<svg version="1.1" xmlns="http://www.w3.org/2000/svg" xmlns:xlink="http://www.w3.org/1999/xlink" width="440" height="253"><defs><clipPath id="yaiiUTQsUXRn"><path fill="none" stroke="none" d=" M 0 0 L 440 0 L 440 253 L 0 253 L 0 0 Z"/></clipPath></defs><g transform="scale(1,1)" clip-path="url(#yaiiUTQsUXRn)"><g><rect fill="rgb(255,255,255)" stroke="none" x="0" y="0" width="440" height="253" fill-opacity="1"/><path fill="none" stroke="rgb(0,153,255)" paint-order="fill stroke markers" d=" M 227.65741499270683 161.2706887752374 C 227.65741499270683 185.42172048527812 208.07913547798535 204.99999999999963 183.92810376794466 204.99999999999963 C 159.777072057904 204.99999999999963 140.19879254318252 185.42172048527812 140.19879254318252 161.2706887752374 C 140.19879254318252 137.1196570651967 159.777072057904 117.54137755047518 183.92810376794466 117.54137755047518 C 208.07913547798535 117.54137755047518 227.65741499270683 137.1196570651967 227.65741499270683 161.2706887752374 Z" stroke-opacity="0.6980392156862745" stroke-linecap="round" stroke-linejoin="round" stroke-miterlimit="10" stroke-width="0.5"/><g transform="scale(19,19)"><g transform="translate(7.7894736842105265,9.167842105263157)"><path fill="rgb(0,153,255)" stroke="none" paint-order="stroke fill markers" d=" M 0.264 -0.082 Q 0.201 0.011 0.11900000000000001 0.011 Q 0.032 0.011 0.016 -0.089 Q 0.013000000000000001 -0.109 0.013000000000000001 -0.131 Q 0.013000000000000001 -0.22 0.051000000000000004 -0.311 Q 0.082 -0.382 0.112 -0.419 Q 0.122 -0.431 0.127 -0.431 Q 0.139 -0.431 0.139 -0.419 Q 0.139 -0.41400000000000003 0.129 -0.4 Q 0.045 -0.28 0.045 -0.17500000000000002 Q 0.045 -0.08 0.109 -0.064 Q 0.12 -0.061 0.133 -0.061 Q 0.201 -0.061 0.257 -0.138 Q 0.264 -0.145 0.266 -0.165 Q 0.276 -0.23800000000000002 0.28700000000000003 -0.266 Q 0.3 -0.291 0.315 -0.291 Q 0.334 -0.291 0.336 -0.268 Q 0.336 -0.24 0.308 -0.168 Q 0.306 -0.161 0.303 -0.155 Q 0.297 -0.14400000000000002 0.297 -0.139 Q 0.297 -0.111 0.317 -0.084 Q 0.335 -0.061 0.372 -0.061 Q 0.449 -0.061 0.511 -0.14400000000000002 Q 0.562 -0.214 0.562 -0.28 Q 0.562 -0.331 0.527 -0.367 Q 0.512 -0.38 0.512 -0.394 Q 0.512 -0.419 0.539 -0.435 Q 0.55 -0.442 0.562 -0.442 Q 0.599 -0.442 0.604 -0.388 Q 0.605 -0.377 0.605 -0.371 Q 0.605 -0.307 0.5750000000000001 -0.213 Q 0.55 -0.136 0.511 -0.082 Q 0.443 0.011 0.358 0.011 Q 0.277 0.011 0.264 -0.082 Z"/></g></g><path fill="none" stroke="rgb(0,153,255)" paint-order="fill stroke markers" d=" M 411.897712553691 118.45174745156237 C 411.897712553691 166.25102745856833 373.14874001225985 204.9999999999996 325.34946000525395 204.9999999999996 C 277.55017999824804 204.9999999999996 238.80120745681685 166.25102745856833 238.80120745681685 118.45174745156237 C 238.80120745681685 70.65246744455638 277.55017999824804 31.903494903125136 325.34946000525395 31.903494903125136 C 373.14874001225985 31.903494903125136 411.897712553691 70.65246744455638 411.897712553691 118.45174745156237 Z" stroke-opacity="0.6980392156862745" stroke-linecap="round" stroke-linejoin="round" stroke-miterlimit="10" stroke-width="0.5"/><g transform="scale(19,19)"><g transform="translate(16.473684210526315,2.3783684210526315)"><path fill="rgb(0,153,255)" stroke="none" paint-order="stroke fill markers" d=" M 0.264 -0.082 Q 0.201 0.011 0.11900000000000001 0.011 Q 0.032 0.011 0.016 -0.089 Q 0.013000000000000001 -0.109 0.013000000000000001 -0.131 Q 0.013000000000000001 -0.22 0.051000000000000004 -0.311 Q 0.082 -0.382 0.112 -0.419 Q 0.122 -0.431 0.127 -0.431 Q 0.139 -0.431 0.139 -0.419 Q 0.139 -0.41400000000000003 0.129 -0.4 Q 0.045 -0.28 0.045 -0.17500000000000002 Q 0.045 -0.08 0.109 -0.064 Q 0.12 -0.061 0.133 -0.061 Q 0.201 -0.061 0.257 -0.138 Q 0.264 -0.145 0.266 -0.165 Q 0.276 -0.23800000000000002 0.28700000000000003 -0.266 Q 0.3 -0.291 0.315 -0.291 Q 0.334 -0.291 0.336 -0.268 Q 0.336 -0.24 0.308 -0.168 Q 0.306 -0.161 0.303 -0.155 Q 0.297 -0.14400000000000002 0.297 -0.139 Q 0.297 -0.111 0.317 -0.084 Q 0.335 -0.061 0.372 -0.061 Q 0.449 -0.061 0.511 -0.14400000000000002 Q 0.562 -0.214 0.562 -0.28 Q 0.562 -0.331 0.527 -0.367 Q 0.512 -0.38 0.512 -0.394 Q 0.512 -0.419 0.539 -0.435 Q 0.55 -0.442 0.562 -0.442 Q 0.599 -0.442 0.604 -0.388 Q 0.605 -0.377 0.605 -0.371 Q 0.605 -0.307 0.5750000000000001 -0.213 Q 0.55 -0.136 0.511 -0.082 Q 0.443 0.011 0.358 0.011 Q 0.277 0.011 0.264 -0.082 Z"/></g><g transform="translate(17.095684210526315,2.5283684210526314) scale(0.7,0.7)"><path fill="rgb(0,153,255)" stroke="none" paint-order="stroke fill markers" d=" M 0.179 -0.115 L 0.527 -0.6990000000000001 Q 0.537 -0.715 0.553 -0.716 Q 0.5680000000000001 -0.716 0.5700000000000001 -0.706 Q 0.5710000000000001 -0.7030000000000001 0.5720000000000001 -0.6920000000000001 L 0.633 -0.067 Q 0.636 -0.042 0.645 -0.037 L 0.646 -0.037 L 0.646 -0.037 L 0.646 -0.037 L 0.646 -0.037 L 0.646 -0.036000000000000004 Q 0.658 -0.031 0.6980000000000001 -0.031 Q 0.72 -0.031 0.721 -0.02 Q 0.721 0 0.7030000000000001 0 L 0.591 -0.003 L 0.59 -0.003 L 0.466 0 L 0.465 0 Q 0.451 0 0.451 -0.011 Q 0.459 -0.03 0.47500000000000003 -0.031 Q 0.547 -0.031 0.547 -0.064 Q 0.547 -0.063 0.531 -0.231 L 0.28 -0.231 L 0.20400000000000001 -0.10300000000000001 Q 0.19 -0.078 0.19 -0.066 Q 0.19 -0.035 0.23700000000000002 -0.031 Q 0.253 -0.031 0.253 -0.019 Q 0.253 0 0.234 0 L 0.138 -0.003 L 0.134 -0.003 L 0.05 0 L 0.048 0 Q 0.035 0 0.035 -0.011 Q 0.035 -0.029 0.05 -0.03 L 0.05 -0.031 L 0.056 -0.031 Q 0.11900000000000001 -0.035 0.159 -0.085 Q 0.169 -0.098 0.179 -0.115 M 0.299 -0.262 L 0.528 -0.262 L 0.496 -0.592 L 0.299 -0.262 Z"/></g></g><path fill="none" stroke="rgb(0,100,0)" paint-order="fill stroke markers" d=" M 39.49999999999982 204.99999999999963 L 189.49999999999966 104.99999999999957" stroke-opacity="0.6980392156862745" stroke-linecap="round" stroke-linejoin="round" stroke-miterlimit="10"/><path fill="none" stroke="rgb(0,100,0)" paint-order="fill stroke markers" d=" M 189.49999999999966 104.99999999999957 L 289.49999999999955 204.99999999999963" stroke-opacity="0.6980392156862745" stroke-linecap="round" stroke-linejoin="round" stroke-miterlimit="10"/><path fill="none" stroke="rgb(0,100,0)" paint-order="fill stroke markers" d=" M 289.49999999999955 204.99999999999963 L 39.49999999999982 204.99999999999963" stroke-opacity="0.6980392156862745" stroke-linecap="round" stroke-linejoin="round" stroke-miterlimit="10"/><path fill="none" stroke="rgb(102,102,102)" paint-order="fill stroke markers" d=" M 183.92810376794466 161.2706887752374 L 183.92810376794466 204.99999999999963" stroke-opacity="0.6980392156862745" stroke-linejoin="round" stroke-miterlimit="10" stroke-dasharray="9,8"/><path fill="none" stroke="rgb(102,102,102)" paint-order="fill stroke markers" d=" M 183.92810376794466 161.2706887752374 L 214.849396271591 130.34939627159096" stroke-opacity="0.6980392156862745" stroke-linejoin="round" stroke-miterlimit="10" stroke-dasharray="9,8"/><path fill="none" stroke="rgb(102,102,102)" paint-order="fill stroke markers" d=" M 183.92810376794466 161.2706887752374 L 159.67144625077495 124.88570249948276" stroke-opacity="0.6980392156862745" stroke-linejoin="round" stroke-miterlimit="10" stroke-dasharray="9,8"/><path fill="none" stroke="rgb(102,102,102)" paint-order="fill stroke markers" d=" M 325.34946000525395 118.45174745156237 L 264.1506037284082 179.65060372840824" stroke-opacity="0.6980392156862745" stroke-linejoin="round" stroke-miterlimit="10" stroke-dasharray="9,8"/><path fill="none" stroke="rgb(102,102,102)" paint-order="fill stroke markers" d=" M 325.34946000525395 118.45174745156237 L 325.34946000525395 204.99999999999963" stroke-opacity="0.6980392156862745" stroke-linejoin="round" stroke-miterlimit="10" stroke-dasharray="9,8"/><path fill="none" stroke="rgb(102,102,102)" paint-order="fill stroke markers" d=" M 325.34946000525395 118.45174745156237 L 277.34112733368517 46.43924844420911" stroke-opacity="0.6980392156862745" stroke-linejoin="round" stroke-miterlimit="10" stroke-dasharray="9,8"/><path fill="none" stroke="rgb(255,85,0)" paint-order="fill stroke markers" d=" M 189.49999999999966 104.99999999999957 L 277.34112733368517 46.43924844420911" stroke-opacity="0.6980392156862745" stroke-linecap="round" stroke-linejoin="round" stroke-miterlimit="10"/><path fill="none" stroke="rgb(255,85,0)" paint-order="fill stroke markers" d=" M 289.49999999999955 204.99999999999963 L 325.34946000525395 204.99999999999963" stroke-opacity="0.6980392156862745" stroke-linecap="round" stroke-linejoin="round" stroke-miterlimit="10"/><path fill="rgb(0,0,255)" stroke="none" paint-order="stroke fill markers" d=" M 41.49999999999982 204.99999999999963 C 41.49999999999982 206.1045694996612 40.60456949966141 206.99999999999963 39.49999999999982 206.99999999999963 C 38.395430500338236 206.99999999999963 37.49999999999982 206.1045694996612 37.49999999999982 204.99999999999963 C 37.49999999999982 203.89543050033805 38.395430500338236 202.99999999999963 39.49999999999982 202.99999999999963 C 40.60456949966141 202.99999999999963 41.49999999999982 203.89543050033805 41.49999999999982 204.99999999999963 Z" fill-opacity="1"/><path fill="none" stroke="rgb(0,0,0)" paint-order="fill stroke markers" d=" M 41.49999999999982 204.99999999999963 C 41.49999999999982 206.1045694996612 40.60456949966141 206.99999999999963 39.49999999999982 206.99999999999963 C 38.395430500338236 206.99999999999963 37.49999999999982 206.1045694996612 37.49999999999982 204.99999999999963 C 37.49999999999982 203.89543050033805 38.395430500338236 202.99999999999963 39.49999999999982 202.99999999999963 C 40.60456949966141 202.99999999999963 41.49999999999982 203.89543050033805 41.49999999999982 204.99999999999963 Z" stroke-opacity="1" stroke-linecap="round" stroke-linejoin="round" stroke-miterlimit="10"/><text fill="rgb(0,0,255)" stroke="none" font-family="geogebra-sans-serif, sans-serif" font-size="16px" font-style="normal" font-weight="normal" text-decoration="normal" x="18" y="219" text-anchor="start" dominant-baseline="alphabetic" fill-opacity="1">A</text><text fill="none" stroke="rgb(255,255,255)" font-family="geogebra-sans-serif, sans-serif" font-size="16px" font-style="normal" font-weight="normal" text-decoration="normal" x="18" y="219" text-anchor="start" dominant-baseline="alphabetic" stroke-opacity="1" stroke-linejoin="bevel" stroke-miterlimit="10" stroke-width="3">A</text><text fill="rgb(0,0,255)" stroke="none" font-family="geogebra-sans-serif, sans-serif" font-size="16px" font-style="normal" font-weight="normal" text-decoration="normal" x="18" y="219" text-anchor="start" dominant-baseline="alphabetic" fill-opacity="1">A</text><path fill="rgb(0,0,255)" stroke="none" paint-order="stroke fill markers" d=" M 191.49999999999966 104.99999999999957 C 191.49999999999966 106.10456949966115 190.60456949966124 106.99999999999957 189.49999999999966 106.99999999999957 C 188.39543050033808 106.99999999999957 187.49999999999966 106.10456949966115 187.49999999999966 104.99999999999957 C 187.49999999999966 103.89543050033798 188.39543050033808 102.99999999999957 189.49999999999966 102.99999999999957 C 190.60456949966124 102.99999999999957 191.49999999999966 103.89543050033798 191.49999999999966 104.99999999999957 Z" fill-opacity="1"/><path fill="none" stroke="rgb(0,0,0)" paint-order="fill stroke markers" d=" M 191.49999999999966 104.99999999999957 C 191.49999999999966 106.10456949966115 190.60456949966124 106.99999999999957 189.49999999999966 106.99999999999957 C 188.39543050033808 106.99999999999957 187.49999999999966 106.10456949966115 187.49999999999966 104.99999999999957 C 187.49999999999966 103.89543050033798 188.39543050033808 102.99999999999957 189.49999999999966 102.99999999999957 C 190.60456949966124 102.99999999999957 191.49999999999966 103.89543050033798 191.49999999999966 104.99999999999957 Z" stroke-opacity="1" stroke-linecap="round" stroke-linejoin="round" stroke-miterlimit="10"/><text fill="rgb(0,0,255)" stroke="none" font-family="geogebra-sans-serif, sans-serif" font-size="16px" font-style="normal" font-weight="normal" text-decoration="normal" x="166" y="104" text-anchor="start" dominant-baseline="alphabetic" fill-opacity="1">B</text><text fill="none" stroke="rgb(255,255,255)" font-family="geogebra-sans-serif, sans-serif" font-size="16px" font-style="normal" font-weight="normal" text-decoration="normal" x="166" y="104" text-anchor="start" dominant-baseline="alphabetic" stroke-opacity="1" stroke-linejoin="bevel" stroke-miterlimit="10" stroke-width="3">B</text><text fill="rgb(0,0,255)" stroke="none" font-family="geogebra-sans-serif, sans-serif" font-size="16px" font-style="normal" font-weight="normal" text-decoration="normal" x="166" y="104" text-anchor="start" dominant-baseline="alphabetic" fill-opacity="1">B</text><path fill="rgb(0,0,255)" stroke="none" paint-order="stroke fill markers" d=" M 291.49999999999955 204.99999999999963 C 291.49999999999955 206.1045694996612 290.6045694996611 206.99999999999963 289.49999999999955 206.99999999999963 C 288.39543050033797 206.99999999999963 287.49999999999955 206.1045694996612 287.49999999999955 204.99999999999963 C 287.49999999999955 203.89543050033805 288.39543050033797 202.99999999999963 289.49999999999955 202.99999999999963 C 290.6045694996611 202.99999999999963 291.49999999999955 203.89543050033805 291.49999999999955 204.99999999999963 Z" fill-opacity="1"/><path fill="none" stroke="rgb(0,0,0)" paint-order="fill stroke markers" d=" M 291.49999999999955 204.99999999999963 C 291.49999999999955 206.1045694996612 290.6045694996611 206.99999999999963 289.49999999999955 206.99999999999963 C 288.39543050033797 206.99999999999963 287.49999999999955 206.1045694996612 287.49999999999955 204.99999999999963 C 287.49999999999955 203.89543050033805 288.39543050033797 202.99999999999963 289.49999999999955 202.99999999999963 C 290.6045694996611 202.99999999999963 291.49999999999955 203.89543050033805 291.49999999999955 204.99999999999963 Z" stroke-opacity="1" stroke-linecap="round" stroke-linejoin="round" stroke-miterlimit="10"/><text fill="rgb(0,0,255)" stroke="none" font-family="geogebra-sans-serif, sans-serif" font-size="16px" font-style="normal" font-weight="normal" text-decoration="normal" x="290" y="227" text-anchor="start" dominant-baseline="alphabetic" fill-opacity="1">C</text><text fill="none" stroke="rgb(255,255,255)" font-family="geogebra-sans-serif, sans-serif" font-size="16px" font-style="normal" font-weight="normal" text-decoration="normal" x="290" y="227" text-anchor="start" dominant-baseline="alphabetic" stroke-opacity="1" stroke-linejoin="bevel" stroke-miterlimit="10" stroke-width="3">C</text><text fill="rgb(0,0,255)" stroke="none" font-family="geogebra-sans-serif, sans-serif" font-size="16px" font-style="normal" font-weight="normal" text-decoration="normal" x="290" y="227" text-anchor="start" dominant-baseline="alphabetic" fill-opacity="1">C</text><path fill="rgb(0,0,255)" stroke="none" paint-order="stroke fill markers" d=" M 233.3979698109991 146.89796981099917 C 233.3979698109991 148.00253931066075 232.50253931066067 148.89796981099917 231.3979698109991 148.89796981099917 C 230.2934003113375 148.89796981099917 229.3979698109991 148.00253931066075 229.3979698109991 146.89796981099917 C 229.3979698109991 145.7934003113376 230.2934003113375 144.89796981099917 231.3979698109991 144.89796981099917 C 232.50253931066067 144.89796981099917 233.3979698109991 145.7934003113376 233.3979698109991 146.89796981099917 Z" fill-opacity="1"/><path fill="none" stroke="rgb(0,0,0)" paint-order="fill stroke markers" d=" M 233.3979698109991 146.89796981099917 C 233.3979698109991 148.00253931066075 232.50253931066067 148.89796981099917 231.3979698109991 148.89796981099917 C 230.2934003113375 148.89796981099917 229.3979698109991 148.00253931066075 229.3979698109991 146.89796981099917 C 229.3979698109991 145.7934003113376 230.2934003113375 144.89796981099917 231.3979698109991 144.89796981099917 C 232.50253931066067 144.89796981099917 233.3979698109991 145.7934003113376 233.3979698109991 146.89796981099917 Z" stroke-opacity="1" stroke-linecap="round" stroke-linejoin="round" stroke-miterlimit="10"/><text fill="rgb(0,0,255)" stroke="none" font-family="geogebra-sans-serif, sans-serif" font-size="16px" font-style="normal" font-weight="normal" text-decoration="normal" x="208" y="162" text-anchor="start" dominant-baseline="alphabetic" fill-opacity="1">M</text><text fill="none" stroke="rgb(255,255,255)" font-family="geogebra-sans-serif, sans-serif" font-size="16px" font-style="normal" font-weight="normal" text-decoration="normal" x="208" y="162" text-anchor="start" dominant-baseline="alphabetic" stroke-opacity="1" stroke-linejoin="bevel" stroke-miterlimit="10" stroke-width="3">M</text><text fill="rgb(0,0,255)" stroke="none" font-family="geogebra-sans-serif, sans-serif" font-size="16px" font-style="normal" font-weight="normal" text-decoration="normal" x="208" y="162" text-anchor="start" dominant-baseline="alphabetic" fill-opacity="1">M</text><path fill="rgb(0,0,255)" stroke="none" paint-order="stroke fill markers" d=" M 185.92810376794466 204.99999999999963 C 185.92810376794466 206.1045694996612 185.03267326760624 206.99999999999963 183.92810376794466 206.99999999999963 C 182.82353426828308 206.99999999999963 181.92810376794466 206.1045694996612 181.92810376794466 204.99999999999963 C 181.92810376794466 203.89543050033805 182.82353426828308 202.99999999999963 183.92810376794466 202.99999999999963 C 185.03267326760624 202.99999999999963 185.92810376794466 203.89543050033805 185.92810376794466 204.99999999999963 Z" fill-opacity="1"/><path fill="none" stroke="rgb(0,0,0)" paint-order="fill stroke markers" d=" M 185.92810376794466 204.99999999999963 C 185.92810376794466 206.1045694996612 185.03267326760624 206.99999999999963 183.92810376794466 206.99999999999963 C 182.82353426828308 206.99999999999963 181.92810376794466 206.1045694996612 181.92810376794466 204.99999999999963 C 181.92810376794466 203.89543050033805 182.82353426828308 202.99999999999963 183.92810376794466 202.99999999999963 C 185.03267326760624 202.99999999999963 185.92810376794466 203.89543050033805 185.92810376794466 204.99999999999963 Z" stroke-opacity="1" stroke-linecap="round" stroke-linejoin="round" stroke-miterlimit="10"/><text fill="rgb(0,0,255)" stroke="none" font-family="geogebra-sans-serif, sans-serif" font-size="16px" font-style="normal" font-weight="normal" text-decoration="normal" x="179" y="225" text-anchor="start" dominant-baseline="alphabetic" fill-opacity="1">B</text><text fill="none" stroke="rgb(255,255,255)" font-family="geogebra-sans-serif, sans-serif" font-size="16px" font-style="normal" font-weight="normal" text-decoration="normal" x="179" y="225" text-anchor="start" dominant-baseline="alphabetic" stroke-opacity="1" stroke-linejoin="bevel" stroke-miterlimit="10" stroke-width="3">B</text><text fill="rgb(0,0,255)" stroke="none" font-family="geogebra-sans-serif, sans-serif" font-size="16px" font-style="normal" font-weight="normal" text-decoration="normal" x="179" y="225" text-anchor="start" dominant-baseline="alphabetic" fill-opacity="1">B</text><text fill="rgb(0,0,255)" stroke="none" font-family="geogebra-sans-serif, sans-serif" font-size="14px" font-style="normal" font-weight="normal" text-decoration="normal" x="190" y="232" text-anchor="start" dominant-baseline="alphabetic" fill-opacity="1">1</text><text fill="none" stroke="rgb(255,255,255)" font-family="geogebra-sans-serif, sans-serif" font-size="14px" font-style="normal" font-weight="normal" text-decoration="normal" x="190" y="232" text-anchor="start" dominant-baseline="alphabetic" stroke-opacity="1" stroke-linejoin="bevel" stroke-miterlimit="10" stroke-width="3">1</text><text fill="rgb(0,0,255)" stroke="none" font-family="geogebra-sans-serif, sans-serif" font-size="14px" font-style="normal" font-weight="normal" text-decoration="normal" x="190" y="232" text-anchor="start" dominant-baseline="alphabetic" fill-opacity="1">1</text><path fill="rgb(0,0,255)" stroke="none" paint-order="stroke fill markers" d=" M 216.849396271591 130.34939627159096 C 216.849396271591 131.45396577125254 215.95396577125257 132.34939627159096 214.849396271591 132.34939627159096 C 213.7448267719294 132.34939627159096 212.849396271591 131.45396577125254 212.849396271591 130.34939627159096 C 212.849396271591 129.24482677192938 213.7448267719294 128.34939627159096 214.849396271591 128.34939627159096 C 215.95396577125257 128.34939627159096 216.849396271591 129.24482677192938 216.849396271591 130.34939627159096 Z" fill-opacity="1"/><path fill="none" stroke="rgb(0,0,0)" paint-order="fill stroke markers" d=" M 216.849396271591 130.34939627159096 C 216.849396271591 131.45396577125254 215.95396577125257 132.34939627159096 214.849396271591 132.34939627159096 C 213.7448267719294 132.34939627159096 212.849396271591 131.45396577125254 212.849396271591 130.34939627159096 C 212.849396271591 129.24482677192938 213.7448267719294 128.34939627159096 214.849396271591 128.34939627159096 C 215.95396577125257 128.34939627159096 216.849396271591 129.24482677192938 216.849396271591 130.34939627159096 Z" stroke-opacity="1" stroke-linecap="round" stroke-linejoin="round" stroke-miterlimit="10"/><text fill="rgb(0,0,255)" stroke="none" font-family="geogebra-sans-serif, sans-serif" font-size="16px" font-style="normal" font-weight="normal" text-decoration="normal" x="217" y="122" text-anchor="start" dominant-baseline="alphabetic" fill-opacity="1">A</text><text fill="none" stroke="rgb(255,255,255)" font-family="geogebra-sans-serif, sans-serif" font-size="16px" font-style="normal" font-weight="normal" text-decoration="normal" x="217" y="122" text-anchor="start" dominant-baseline="alphabetic" stroke-opacity="1" stroke-linejoin="bevel" stroke-miterlimit="10" stroke-width="3">A</text><text fill="rgb(0,0,255)" stroke="none" font-family="geogebra-sans-serif, sans-serif" font-size="16px" font-style="normal" font-weight="normal" text-decoration="normal" x="217" y="122" text-anchor="start" dominant-baseline="alphabetic" fill-opacity="1">A</text><text fill="rgb(0,0,255)" stroke="none" font-family="geogebra-sans-serif, sans-serif" font-size="14px" font-style="normal" font-weight="normal" text-decoration="normal" x="228" y="129" text-anchor="start" dominant-baseline="alphabetic" fill-opacity="1">1</text><text fill="none" stroke="rgb(255,255,255)" font-family="geogebra-sans-serif, sans-serif" font-size="14px" font-style="normal" font-weight="normal" text-decoration="normal" x="228" y="129" text-anchor="start" dominant-baseline="alphabetic" stroke-opacity="1" stroke-linejoin="bevel" stroke-miterlimit="10" stroke-width="3">1</text><text fill="rgb(0,0,255)" stroke="none" font-family="geogebra-sans-serif, sans-serif" font-size="14px" font-style="normal" font-weight="normal" text-decoration="normal" x="228" y="129" text-anchor="start" dominant-baseline="alphabetic" fill-opacity="1">1</text><path fill="rgb(0,0,255)" stroke="none" paint-order="stroke fill markers" d=" M 161.67144625077495 124.88570249948276 C 161.67144625077495 125.99027199914434 160.77601575043653 126.88570249948276 159.67144625077495 126.88570249948276 C 158.56687675111337 126.88570249948276 157.67144625077495 125.99027199914434 157.67144625077495 124.88570249948276 C 157.67144625077495 123.78113299982117 158.56687675111337 122.88570249948276 159.67144625077495 122.88570249948276 C 160.77601575043653 122.88570249948276 161.67144625077495 123.78113299982117 161.67144625077495 124.88570249948276 Z" fill-opacity="1"/><path fill="none" stroke="rgb(0,0,0)" paint-order="fill stroke markers" d=" M 161.67144625077495 124.88570249948276 C 161.67144625077495 125.99027199914434 160.77601575043653 126.88570249948276 159.67144625077495 126.88570249948276 C 158.56687675111337 126.88570249948276 157.67144625077495 125.99027199914434 157.67144625077495 124.88570249948276 C 157.67144625077495 123.78113299982117 158.56687675111337 122.88570249948276 159.67144625077495 122.88570249948276 C 160.77601575043653 122.88570249948276 161.67144625077495 123.78113299982117 161.67144625077495 124.88570249948276 Z" stroke-opacity="1" stroke-linecap="round" stroke-linejoin="round" stroke-miterlimit="10"/><text fill="rgb(0,0,255)" stroke="none" font-family="geogebra-sans-serif, sans-serif" font-size="16px" font-style="normal" font-weight="normal" text-decoration="normal" x="136" y="114" text-anchor="start" dominant-baseline="alphabetic" fill-opacity="1">C</text><text fill="none" stroke="rgb(255,255,255)" font-family="geogebra-sans-serif, sans-serif" font-size="16px" font-style="normal" font-weight="normal" text-decoration="normal" x="136" y="114" text-anchor="start" dominant-baseline="alphabetic" stroke-opacity="1" stroke-linejoin="bevel" stroke-miterlimit="10" stroke-width="3">C</text><text fill="rgb(0,0,255)" stroke="none" font-family="geogebra-sans-serif, sans-serif" font-size="16px" font-style="normal" font-weight="normal" text-decoration="normal" x="136" y="114" text-anchor="start" dominant-baseline="alphabetic" fill-opacity="1">C</text><text fill="rgb(0,0,255)" stroke="none" font-family="geogebra-sans-serif, sans-serif" font-size="14px" font-style="normal" font-weight="normal" text-decoration="normal" x="148" y="121" text-anchor="start" dominant-baseline="alphabetic" fill-opacity="1">1</text><text fill="none" stroke="rgb(255,255,255)" font-family="geogebra-sans-serif, sans-serif" font-size="14px" font-style="normal" font-weight="normal" text-decoration="normal" x="148" y="121" text-anchor="start" dominant-baseline="alphabetic" stroke-opacity="1" stroke-linejoin="bevel" stroke-miterlimit="10" stroke-width="3">1</text><text fill="rgb(0,0,255)" stroke="none" font-family="geogebra-sans-serif, sans-serif" font-size="14px" font-style="normal" font-weight="normal" text-decoration="normal" x="148" y="121" text-anchor="start" dominant-baseline="alphabetic" fill-opacity="1">1</text><path fill="rgb(0,0,255)" stroke="none" paint-order="stroke fill markers" d=" M 266.1506037284082 179.65060372840824 C 266.1506037284082 180.75517322806982 265.2551732280698 181.65060372840824 264.1506037284082 181.65060372840824 C 263.04603422874663 181.65060372840824 262.1506037284082 180.75517322806982 262.1506037284082 179.65060372840824 C 262.1506037284082 178.54603422874666 263.04603422874663 177.65060372840824 264.1506037284082 177.65060372840824 C 265.2551732280698 177.65060372840824 266.1506037284082 178.54603422874666 266.1506037284082 179.65060372840824 Z" fill-opacity="1"/><path fill="none" stroke="rgb(0,0,0)" paint-order="fill stroke markers" d=" M 266.1506037284082 179.65060372840824 C 266.1506037284082 180.75517322806982 265.2551732280698 181.65060372840824 264.1506037284082 181.65060372840824 C 263.04603422874663 181.65060372840824 262.1506037284082 180.75517322806982 262.1506037284082 179.65060372840824 C 262.1506037284082 178.54603422874666 263.04603422874663 177.65060372840824 264.1506037284082 177.65060372840824 C 265.2551732280698 177.65060372840824 266.1506037284082 178.54603422874666 266.1506037284082 179.65060372840824 Z" stroke-opacity="1" stroke-linecap="round" stroke-linejoin="round" stroke-miterlimit="10"/><text fill="rgb(0,0,255)" stroke="none" font-family="geogebra-sans-serif, sans-serif" font-size="16px" font-style="normal" font-weight="normal" text-decoration="normal" x="242" y="190" text-anchor="start" dominant-baseline="alphabetic" fill-opacity="1">A</text><text fill="none" stroke="rgb(255,255,255)" font-family="geogebra-sans-serif, sans-serif" font-size="16px" font-style="normal" font-weight="normal" text-decoration="normal" x="242" y="190" text-anchor="start" dominant-baseline="alphabetic" stroke-opacity="1" stroke-linejoin="bevel" stroke-miterlimit="10" stroke-width="3">A</text><text fill="rgb(0,0,255)" stroke="none" font-family="geogebra-sans-serif, sans-serif" font-size="16px" font-style="normal" font-weight="normal" text-decoration="normal" x="242" y="190" text-anchor="start" dominant-baseline="alphabetic" fill-opacity="1">A</text><text fill="rgb(0,0,255)" stroke="none" font-family="geogebra-sans-serif, sans-serif" font-size="14px" font-style="normal" font-weight="normal" text-decoration="normal" x="253" y="197" text-anchor="start" dominant-baseline="alphabetic" fill-opacity="1">2</text><text fill="none" stroke="rgb(255,255,255)" font-family="geogebra-sans-serif, sans-serif" font-size="14px" font-style="normal" font-weight="normal" text-decoration="normal" x="253" y="197" text-anchor="start" dominant-baseline="alphabetic" stroke-opacity="1" stroke-linejoin="bevel" stroke-miterlimit="10" stroke-width="3">2</text><text fill="rgb(0,0,255)" stroke="none" font-family="geogebra-sans-serif, sans-serif" font-size="14px" font-style="normal" font-weight="normal" text-decoration="normal" x="253" y="197" text-anchor="start" dominant-baseline="alphabetic" fill-opacity="1">2</text><path fill="rgb(0,0,255)" stroke="none" paint-order="stroke fill markers" d=" M 327.34946000525395 204.99999999999963 C 327.34946000525395 206.1045694996612 326.4540295049155 206.99999999999963 325.34946000525395 206.99999999999963 C 324.24489050559237 206.99999999999963 323.34946000525395 206.1045694996612 323.34946000525395 204.99999999999963 C 323.34946000525395 203.89543050033805 324.24489050559237 202.99999999999963 325.34946000525395 202.99999999999963 C 326.4540295049155 202.99999999999963 327.34946000525395 203.89543050033805 327.34946000525395 204.99999999999963 Z" fill-opacity="1"/><path fill="none" stroke="rgb(0,0,0)" paint-order="fill stroke markers" d=" M 327.34946000525395 204.99999999999963 C 327.34946000525395 206.1045694996612 326.4540295049155 206.99999999999963 325.34946000525395 206.99999999999963 C 324.24489050559237 206.99999999999963 323.34946000525395 206.1045694996612 323.34946000525395 204.99999999999963 C 323.34946000525395 203.89543050033805 324.24489050559237 202.99999999999963 325.34946000525395 202.99999999999963 C 326.4540295049155 202.99999999999963 327.34946000525395 203.89543050033805 327.34946000525395 204.99999999999963 Z" stroke-opacity="1" stroke-linecap="round" stroke-linejoin="round" stroke-miterlimit="10"/><text fill="rgb(0,0,255)" stroke="none" font-family="geogebra-sans-serif, sans-serif" font-size="16px" font-style="normal" font-weight="normal" text-decoration="normal" x="323" y="229" text-anchor="start" dominant-baseline="alphabetic" fill-opacity="1">B</text><text fill="none" stroke="rgb(255,255,255)" font-family="geogebra-sans-serif, sans-serif" font-size="16px" font-style="normal" font-weight="normal" text-decoration="normal" x="323" y="229" text-anchor="start" dominant-baseline="alphabetic" stroke-opacity="1" stroke-linejoin="bevel" stroke-miterlimit="10" stroke-width="3">B</text><text fill="rgb(0,0,255)" stroke="none" font-family="geogebra-sans-serif, sans-serif" font-size="16px" font-style="normal" font-weight="normal" text-decoration="normal" x="323" y="229" text-anchor="start" dominant-baseline="alphabetic" fill-opacity="1">B</text><text fill="rgb(0,0,255)" stroke="none" font-family="geogebra-sans-serif, sans-serif" font-size="14px" font-style="normal" font-weight="normal" text-decoration="normal" x="334" y="236" text-anchor="start" dominant-baseline="alphabetic" fill-opacity="1">2</text><text fill="none" stroke="rgb(255,255,255)" font-family="geogebra-sans-serif, sans-serif" font-size="14px" font-style="normal" font-weight="normal" text-decoration="normal" x="334" y="236" text-anchor="start" dominant-baseline="alphabetic" stroke-opacity="1" stroke-linejoin="bevel" stroke-miterlimit="10" stroke-width="3">2</text><text fill="rgb(0,0,255)" stroke="none" font-family="geogebra-sans-serif, sans-serif" font-size="14px" font-style="normal" font-weight="normal" text-decoration="normal" x="334" y="236" text-anchor="start" dominant-baseline="alphabetic" fill-opacity="1">2</text><path fill="rgb(0,0,255)" stroke="none" paint-order="stroke fill markers" d=" M 279.34112733368517 46.43924844420911 C 279.34112733368517 47.5438179438707 278.44569683334674 48.43924844420911 277.34112733368517 48.43924844420911 C 276.2365578340236 48.43924844420911 275.34112733368517 47.5438179438707 275.34112733368517 46.43924844420911 C 275.34112733368517 45.33467894454753 276.2365578340236 44.43924844420911 277.34112733368517 44.43924844420911 C 278.44569683334674 44.43924844420911 279.34112733368517 45.33467894454753 279.34112733368517 46.43924844420911 Z" fill-opacity="1"/><path fill="none" stroke="rgb(0,0,0)" paint-order="fill stroke markers" d=" M 279.34112733368517 46.43924844420911 C 279.34112733368517 47.5438179438707 278.44569683334674 48.43924844420911 277.34112733368517 48.43924844420911 C 276.2365578340236 48.43924844420911 275.34112733368517 47.5438179438707 275.34112733368517 46.43924844420911 C 275.34112733368517 45.33467894454753 276.2365578340236 44.43924844420911 277.34112733368517 44.43924844420911 C 278.44569683334674 44.43924844420911 279.34112733368517 45.33467894454753 279.34112733368517 46.43924844420911 Z" stroke-opacity="1" stroke-linecap="round" stroke-linejoin="round" stroke-miterlimit="10"/><text fill="rgb(0,0,255)" stroke="none" font-family="geogebra-sans-serif, sans-serif" font-size="16px" font-style="normal" font-weight="normal" text-decoration="normal" x="257" y="33" text-anchor="start" dominant-baseline="alphabetic" fill-opacity="1">C</text><text fill="none" stroke="rgb(255,255,255)" font-family="geogebra-sans-serif, sans-serif" font-size="16px" font-style="normal" font-weight="normal" text-decoration="normal" x="257" y="33" text-anchor="start" dominant-baseline="alphabetic" stroke-opacity="1" stroke-linejoin="bevel" stroke-miterlimit="10" stroke-width="3">C</text><text fill="rgb(0,0,255)" stroke="none" font-family="geogebra-sans-serif, sans-serif" font-size="16px" font-style="normal" font-weight="normal" text-decoration="normal" x="257" y="33" text-anchor="start" dominant-baseline="alphabetic" fill-opacity="1">C</text><text fill="rgb(0,0,255)" stroke="none" font-family="geogebra-sans-serif, sans-serif" font-size="14px" font-style="normal" font-weight="normal" text-decoration="normal" x="269" y="40" text-anchor="start" dominant-baseline="alphabetic" fill-opacity="1">2</text><text fill="none" stroke="rgb(255,255,255)" font-family="geogebra-sans-serif, sans-serif" font-size="14px" font-style="normal" font-weight="normal" text-decoration="normal" x="269" y="40" text-anchor="start" dominant-baseline="alphabetic" stroke-opacity="1" stroke-linejoin="bevel" stroke-miterlimit="10" stroke-width="3">2</text><text fill="rgb(0,0,255)" stroke="none" font-family="geogebra-sans-serif, sans-serif" font-size="14px" font-style="normal" font-weight="normal" text-decoration="normal" x="269" y="40" text-anchor="start" dominant-baseline="alphabetic" fill-opacity="1">2</text></g></g></svg>