<svg version="1.1" xmlns="http://www.w3.org/2000/svg" xmlns:xlink="http://www.w3.org/1999/xlink" width="585" height="370"><defs><clipPath id="EKIlXCzEVMTK"><path fill="none" stroke="none" d=" M 0 0 L 585 0 L 585 370 L 0 370 L 0 0 Z"/></clipPath></defs><g transform="scale(1,1)" clip-path="url(#EKIlXCzEVMTK)"><g><rect fill="rgb(255,255,255)" stroke="none" x="0" y="0" width="585" height="370" fill-opacity="1"/><path fill="none" stroke="rgb(0,153,255)" paint-order="fill stroke markers" d=" M 491.9738633237621 198.53716633992298 C 491.9738633237621 281.052872887478 425.081666479388 347.9450697318523 342.56595993183316 347.9450697318523 C 260.05025338427834 347.9450697318523 193.15805653990424 281.052872887478 193.15805653990424 198.53716633992298 C 193.15805653990424 116.02145979236795 260.05025338427834 49.12926294799365 342.56595993183316 49.12926294799365 C 425.081666479388 49.12926294799365 491.9738633237621 116.02145979236795 491.9738633237621 198.53716633992298 Z" stroke-opacity="0.6980392156862745" stroke-linecap="round" stroke-linejoin="round" stroke-miterlimit="10"/><g transform="scale(19,19)"><g transform="translate(14.263157894736842,4.588894736842105)"><path fill="rgb(0,153,255)" stroke="none" paint-order="stroke fill markers" d=" M 0.264 -0.082 Q 0.201 0.011 0.11900000000000001 0.011 Q 0.032 0.011 0.016 -0.089 Q 0.013000000000000001 -0.109 0.013000000000000001 -0.131 Q 0.013000000000000001 -0.22 0.051000000000000004 -0.311 Q 0.082 -0.382 0.112 -0.419 Q 0.122 -0.431 0.127 -0.431 Q 0.139 -0.431 0.139 -0.419 Q 0.139 -0.41400000000000003 0.129 -0.4 Q 0.045 -0.28 0.045 -0.17500000000000002 Q 0.045 -0.08 0.109 -0.064 Q 0.12 -0.061 0.133 -0.061 Q 0.201 -0.061 0.257 -0.138 Q 0.264 -0.145 0.266 -0.165 Q 0.276 -0.23800000000000002 0.28700000000000003 -0.266 Q 0.3 -0.291 0.315 -0.291 Q 0.334 -0.291 0.336 -0.268 Q 0.336 -0.24 0.308 -0.168 Q 0.306 -0.161 0.303 -0.155 Q 0.297 -0.14400000000000002 0.297 -0.139 Q 0.297 -0.111 0.317 -0.084 Q 0.335 -0.061 0.372 -0.061 Q 0.449 -0.061 0.511 -0.14400000000000002 Q 0.562 -0.214 0.562 -0.28 Q 0.562 -0.331 0.527 -0.367 Q 0.512 -0.38 0.512 -0.394 Q 0.512 -0.419 0.539 -0.435 Q 0.55 -0.442 0.562 -0.442 Q 0.599 -0.442 0.604 -0.388 Q 0.605 -0.377 0.605 -0.371 Q 0.605 -0.307 0.5750000000000001 -0.213 Q 0.55 -0.136 0.511 -0.082 Q 0.443 0.011 0.358 0.011 Q 0.277 0.011 0.264 -0.082 Z"/></g></g><path fill="none" stroke="rgb(102,102,102)" paint-order="fill stroke markers" d=" M 282.9609720367984 297.06482803993055 C 282.9609720367984 313.61752048043 269.5423635395646 327.03612897766385 252.9896710990652 327.03612897766385 C 236.43697865856578 327.03612897766385 223.01837016133197 313.61752048043 223.01837016133197 297.06482803993055 C 223.01837016133197 280.5121355994311 236.43697865856578 267.09352710219724 252.9896710990652 267.09352710219724 C 269.5423635395646 267.09352710219724 282.9609720367984 280.5121355994311 282.9609720367984 297.06482803993055 Z" stroke-opacity="0.6980392156862745" stroke-linejoin="round" stroke-miterlimit="10" stroke-dasharray="9,8"/><path fill="none" stroke="rgb(102,102,102)" paint-order="fill stroke markers" d=" M 563.982562012213 261.6301695919543 C 563.982562012213 297.75288350873393 534.6993165432831 327.0361289776638 498.57660262650364 327.0361289776638 C 462.45388870972414 327.0361289776638 433.17064324079433 297.75288350873393 433.17064324079433 261.6301695919543 C 433.17064324079433 225.50745567517473 462.45388870972414 196.22421020624483 498.57660262650364 196.22421020624483 C 534.6993165432831 196.22421020624483 563.982562012213 225.50745567517473 563.982562012213 261.6301695919543 Z" stroke-opacity="0.6980392156862745" stroke-linejoin="round" stroke-miterlimit="10" stroke-dasharray="9,8"/><path fill="none" stroke="rgb(0,100,0)" paint-order="fill stroke markers" d=" M 418.794158106764 327.03612897766385 L 266.3377617569023 327.03612897766385" stroke-opacity="0.6980392156862745" stroke-linecap="round" stroke-linejoin="round" stroke-miterlimit="10"/><path fill="none" stroke="rgb(0,100,0)" paint-order="fill stroke markers" d=" M 302.89399163319507 279.6912837582461 L 309.5836389494196 285.7119663428481" stroke-opacity="0.6980392156862745" stroke-linecap="round" stroke-linejoin="round" stroke-miterlimit="10"/><path fill="none" stroke="rgb(0,100,0)" paint-order="fill stroke markers" d=" M 266.3377617569023 327.03612897766385 L 346.1398688257123 238.3671211234303" stroke-opacity="0.6980392156862745" stroke-linecap="round" stroke-linejoin="round" stroke-miterlimit="10"/><path fill="none" stroke="rgb(0,100,0)" paint-order="fill stroke markers" d=" M 426.07908312340135 267.66591608330947 L 434.9043092046196 269.4309612995531" stroke-opacity="0.6980392156862745" stroke-linecap="round" stroke-linejoin="round" stroke-miterlimit="10"/><path fill="none" stroke="rgb(0,100,0)" paint-order="fill stroke markers" d=" M 418.794158106764 327.03612897766385 L 442.1892342212569 210.0607484051987" stroke-opacity="0.6980392156862745" stroke-linecap="round" stroke-linejoin="round" stroke-miterlimit="10"/><path fill="none" stroke="rgb(0,100,0)" paint-order="fill stroke markers" d=" M 442.1892342212569 210.0607484051987 L 462.3531284924387 109.24127704928948" stroke-opacity="0.6980392156862745" stroke-linecap="round" stroke-linejoin="round" stroke-miterlimit="10"/><path fill="none" stroke="rgb(0,100,0)" paint-order="fill stroke markers" d=" M 462.3531284924387 109.24127704928948 L 346.1398688257123 238.3671211234303" stroke-opacity="0.6980392156862745" stroke-linecap="round" stroke-linejoin="round" stroke-miterlimit="10"/><path fill="none" stroke="rgb(244,0,153)" paint-order="fill stroke markers" d=" M 252.9896710990652 297.06482803993055 L 342.56595993183316 49.12926294799365" stroke-opacity="0.6980392156862745" stroke-linecap="round" stroke-linejoin="round" stroke-miterlimit="10"/><path fill="none" stroke="rgb(244,0,153)" paint-order="fill stroke markers" d=" M 342.56595993183316 49.12926294799365 L 498.57660262650364 261.6301695919543" stroke-opacity="0.6980392156862745" stroke-linecap="round" stroke-linejoin="round" stroke-miterlimit="10"/><path fill="none" stroke="rgb(0,100,0)" paint-order="fill stroke markers" d=" M 45.26762286795636 327.03612897766385 L 442.1892342212569 210.0607484051987" stroke-opacity="0.6980392156862745" stroke-linecap="round" stroke-linejoin="round" stroke-miterlimit="10"/><path fill="none" stroke="rgb(0,100,0)" paint-order="fill stroke markers" d=" M 45.26762286795636 327.03612897766385 L 266.3377617569023 327.03612897766385" stroke-opacity="0.6980392156862745" stroke-linecap="round" stroke-linejoin="round" stroke-miterlimit="10"/><path fill="none" stroke="rgb(0,100,0)" paint-order="fill stroke markers" d=" M 342.56595993183316 49.12926294799365 L 346.1398688257123 238.3671211234303" stroke-opacity="0.6980392156862745" stroke-linecap="round" stroke-linejoin="round" stroke-miterlimit="10"/><path fill="rgb(0,0,255)" stroke="none" paint-order="stroke fill markers" d=" M 268.3377617569023 327.03612897766385 C 268.3377617569023 328.14069847732543 267.4423312565639 329.03612897766385 266.3377617569023 329.03612897766385 C 265.2331922572407 329.03612897766385 264.3377617569023 328.14069847732543 264.3377617569023 327.03612897766385 C 264.3377617569023 325.93155947800227 265.2331922572407 325.03612897766385 266.3377617569023 325.03612897766385 C 267.4423312565639 325.03612897766385 268.3377617569023 325.93155947800227 268.3377617569023 327.03612897766385 Z" fill-opacity="1"/><path fill="none" stroke="rgb(0,0,0)" paint-order="fill stroke markers" d=" M 268.3377617569023 327.03612897766385 C 268.3377617569023 328.14069847732543 267.4423312565639 329.03612897766385 266.3377617569023 329.03612897766385 C 265.2331922572407 329.03612897766385 264.3377617569023 328.14069847732543 264.3377617569023 327.03612897766385 C 264.3377617569023 325.93155947800227 265.2331922572407 325.03612897766385 266.3377617569023 325.03612897766385 C 267.4423312565639 325.03612897766385 268.3377617569023 325.93155947800227 268.3377617569023 327.03612897766385 Z" stroke-opacity="1" stroke-linecap="round" stroke-linejoin="round" stroke-miterlimit="10"/><text fill="rgb(0,0,255)" stroke="none" font-family="geogebra-sans-serif, sans-serif" font-size="16px" font-style="normal" font-weight="normal" text-decoration="normal" x="246" y="348" text-anchor="start" dominant-baseline="alphabetic" fill-opacity="1">A</text><text fill="none" stroke="rgb(255,255,255)" font-family="geogebra-sans-serif, sans-serif" font-size="16px" font-style="normal" font-weight="normal" text-decoration="normal" x="246" y="348" text-anchor="start" dominant-baseline="alphabetic" stroke-opacity="1" stroke-linejoin="bevel" stroke-miterlimit="10" stroke-width="3">A</text><text fill="rgb(0,0,255)" stroke="none" font-family="geogebra-sans-serif, sans-serif" font-size="16px" font-style="normal" font-weight="normal" text-decoration="normal" x="246" y="348" text-anchor="start" dominant-baseline="alphabetic" fill-opacity="1">A</text><path fill="rgb(0,0,255)" stroke="none" paint-order="stroke fill markers" d=" M 464.3531284924387 109.24127704928948 C 464.3531284924387 110.34584654895107 463.4576979921003 111.24127704928948 462.3531284924387 111.24127704928948 C 461.24855899277713 111.24127704928948 460.3531284924387 110.34584654895107 460.3531284924387 109.24127704928948 C 460.3531284924387 108.13670754962789 461.24855899277713 107.24127704928948 462.3531284924387 107.24127704928948 C 463.4576979921003 107.24127704928948 464.3531284924387 108.13670754962789 464.3531284924387 109.24127704928948 Z" fill-opacity="1"/><path fill="none" stroke="rgb(0,0,0)" paint-order="fill stroke markers" d=" M 464.3531284924387 109.24127704928948 C 464.3531284924387 110.34584654895107 463.4576979921003 111.24127704928948 462.3531284924387 111.24127704928948 C 461.24855899277713 111.24127704928948 460.3531284924387 110.34584654895107 460.3531284924387 109.24127704928948 C 460.3531284924387 108.13670754962789 461.24855899277713 107.24127704928948 462.3531284924387 107.24127704928948 C 463.4576979921003 107.24127704928948 464.3531284924387 108.13670754962789 464.3531284924387 109.24127704928948 Z" stroke-opacity="1" stroke-linecap="round" stroke-linejoin="round" stroke-miterlimit="10"/><text fill="rgb(0,0,255)" stroke="none" font-family="geogebra-sans-serif, sans-serif" font-size="16px" font-style="normal" font-weight="normal" text-decoration="normal" x="471" y="106" text-anchor="start" dominant-baseline="alphabetic" fill-opacity="1">B</text><text fill="none" stroke="rgb(255,255,255)" font-family="geogebra-sans-serif, sans-serif" font-size="16px" font-style="normal" font-weight="normal" text-decoration="normal" x="471" y="106" text-anchor="start" dominant-baseline="alphabetic" stroke-opacity="1" stroke-linejoin="bevel" stroke-miterlimit="10" stroke-width="3">B</text><text fill="rgb(0,0,255)" stroke="none" font-family="geogebra-sans-serif, sans-serif" font-size="16px" font-style="normal" font-weight="normal" text-decoration="normal" x="471" y="106" text-anchor="start" dominant-baseline="alphabetic" fill-opacity="1">B</text><path fill="rgb(0,0,255)" stroke="none" paint-order="stroke fill markers" d=" M 420.794158106764 327.03612897766385 C 420.794158106764 328.14069847732543 419.89872760642555 329.03612897766385 418.794158106764 329.03612897766385 C 417.6895886071024 329.03612897766385 416.794158106764 328.14069847732543 416.794158106764 327.03612897766385 C 416.794158106764 325.93155947800227 417.6895886071024 325.03612897766385 418.794158106764 325.03612897766385 C 419.89872760642555 325.03612897766385 420.794158106764 325.93155947800227 420.794158106764 327.03612897766385 Z" fill-opacity="1"/><path fill="none" stroke="rgb(0,0,0)" paint-order="fill stroke markers" d=" M 420.794158106764 327.03612897766385 C 420.794158106764 328.14069847732543 419.89872760642555 329.03612897766385 418.794158106764 329.03612897766385 C 417.6895886071024 329.03612897766385 416.794158106764 328.14069847732543 416.794158106764 327.03612897766385 C 416.794158106764 325.93155947800227 417.6895886071024 325.03612897766385 418.794158106764 325.03612897766385 C 419.89872760642555 325.03612897766385 420.794158106764 325.93155947800227 420.794158106764 327.03612897766385 Z" stroke-opacity="1" stroke-linecap="round" stroke-linejoin="round" stroke-miterlimit="10"/><text fill="rgb(0,0,255)" stroke="none" font-family="geogebra-sans-serif, sans-serif" font-size="16px" font-style="normal" font-weight="normal" text-decoration="normal" x="439" y="349" text-anchor="start" dominant-baseline="alphabetic" fill-opacity="1">C</text><text fill="none" stroke="rgb(255,255,255)" font-family="geogebra-sans-serif, sans-serif" font-size="16px" font-style="normal" font-weight="normal" text-decoration="normal" x="439" y="349" text-anchor="start" dominant-baseline="alphabetic" stroke-opacity="1" stroke-linejoin="bevel" stroke-miterlimit="10" stroke-width="3">C</text><text fill="rgb(0,0,255)" stroke="none" font-family="geogebra-sans-serif, sans-serif" font-size="16px" font-style="normal" font-weight="normal" text-decoration="normal" x="439" y="349" text-anchor="start" dominant-baseline="alphabetic" fill-opacity="1">C</text><path fill="rgb(0,0,255)" stroke="none" paint-order="stroke fill markers" d=" M 348.1398688257123 238.3671211234303 C 348.1398688257123 239.4716906230919 347.2444383253739 240.3671211234303 346.1398688257123 240.3671211234303 C 345.03529932605073 240.3671211234303 344.1398688257123 239.4716906230919 344.1398688257123 238.3671211234303 C 344.1398688257123 237.26255162376873 345.03529932605073 236.3671211234303 346.1398688257123 236.3671211234303 C 347.2444383253739 236.3671211234303 348.1398688257123 237.26255162376873 348.1398688257123 238.3671211234303 Z" fill-opacity="1"/><path fill="none" stroke="rgb(0,0,0)" paint-order="fill stroke markers" d=" M 348.1398688257123 238.3671211234303 C 348.1398688257123 239.4716906230919 347.2444383253739 240.3671211234303 346.1398688257123 240.3671211234303 C 345.03529932605073 240.3671211234303 344.1398688257123 239.4716906230919 344.1398688257123 238.3671211234303 C 344.1398688257123 237.26255162376873 345.03529932605073 236.3671211234303 346.1398688257123 236.3671211234303 C 347.2444383253739 236.3671211234303 348.1398688257123 237.26255162376873 348.1398688257123 238.3671211234303 Z" stroke-opacity="1" stroke-linecap="round" stroke-linejoin="round" stroke-miterlimit="10"/><text fill="rgb(0,0,255)" stroke="none" font-family="geogebra-sans-serif, sans-serif" font-size="16px" font-style="normal" font-weight="normal" text-decoration="normal" x="356" y="251" text-anchor="start" dominant-baseline="alphabetic" fill-opacity="1">M</text><text fill="none" stroke="rgb(255,255,255)" font-family="geogebra-sans-serif, sans-serif" font-size="16px" font-style="normal" font-weight="normal" text-decoration="normal" x="356" y="251" text-anchor="start" dominant-baseline="alphabetic" stroke-opacity="1" stroke-linejoin="bevel" stroke-miterlimit="10" stroke-width="3">M</text><text fill="rgb(0,0,255)" stroke="none" font-family="geogebra-sans-serif, sans-serif" font-size="16px" font-style="normal" font-weight="normal" text-decoration="normal" x="356" y="251" text-anchor="start" dominant-baseline="alphabetic" fill-opacity="1">M</text><path fill="rgb(0,0,255)" stroke="none" paint-order="stroke fill markers" d=" M 444.1892342212569 210.0607484051987 C 444.1892342212569 211.16531790486027 443.2938037209185 212.0607484051987 442.1892342212569 212.0607484051987 C 441.08466472159535 212.0607484051987 440.1892342212569 211.16531790486027 440.1892342212569 210.0607484051987 C 440.1892342212569 208.95617890553712 441.08466472159535 208.0607484051987 442.1892342212569 208.0607484051987 C 443.2938037209185 208.0607484051987 444.1892342212569 208.95617890553712 444.1892342212569 210.0607484051987 Z" fill-opacity="1"/><path fill="none" stroke="rgb(0,0,0)" paint-order="fill stroke markers" d=" M 444.1892342212569 210.0607484051987 C 444.1892342212569 211.16531790486027 443.2938037209185 212.0607484051987 442.1892342212569 212.0607484051987 C 441.08466472159535 212.0607484051987 440.1892342212569 211.16531790486027 440.1892342212569 210.0607484051987 C 440.1892342212569 208.95617890553712 441.08466472159535 208.0607484051987 442.1892342212569 208.0607484051987 C 443.2938037209185 208.0607484051987 444.1892342212569 208.95617890553712 444.1892342212569 210.0607484051987 Z" stroke-opacity="1" stroke-linecap="round" stroke-linejoin="round" stroke-miterlimit="10"/><text fill="rgb(0,0,255)" stroke="none" font-family="geogebra-sans-serif, sans-serif" font-size="16px" font-style="normal" font-weight="normal" text-decoration="normal" x="416" y="207" text-anchor="start" dominant-baseline="alphabetic" fill-opacity="1">N</text><text fill="none" stroke="rgb(255,255,255)" font-family="geogebra-sans-serif, sans-serif" font-size="16px" font-style="normal" font-weight="normal" text-decoration="normal" x="416" y="207" text-anchor="start" dominant-baseline="alphabetic" stroke-opacity="1" stroke-linejoin="bevel" stroke-miterlimit="10" stroke-width="3">N</text><text fill="rgb(0,0,255)" stroke="none" font-family="geogebra-sans-serif, sans-serif" font-size="16px" font-style="normal" font-weight="normal" text-decoration="normal" x="416" y="207" text-anchor="start" dominant-baseline="alphabetic" fill-opacity="1">N</text><path fill="rgb(0,0,255)" stroke="none" paint-order="stroke fill markers" d=" M 47.26762286795636 327.03612897766385 C 47.26762286795636 328.14069847732543 46.37219236761795 329.03612897766385 45.26762286795636 329.03612897766385 C 44.163053368294776 329.03612897766385 43.26762286795636 328.14069847732543 43.26762286795636 327.03612897766385 C 43.26762286795636 325.93155947800227 44.163053368294776 325.03612897766385 45.26762286795636 325.03612897766385 C 46.37219236761795 325.03612897766385 47.26762286795636 325.93155947800227 47.26762286795636 327.03612897766385 Z" fill-opacity="1"/><path fill="none" stroke="rgb(0,0,0)" paint-order="fill stroke markers" d=" M 47.26762286795636 327.03612897766385 C 47.26762286795636 328.14069847732543 46.37219236761795 329.03612897766385 45.26762286795636 329.03612897766385 C 44.163053368294776 329.03612897766385 43.26762286795636 328.14069847732543 43.26762286795636 327.03612897766385 C 43.26762286795636 325.93155947800227 44.163053368294776 325.03612897766385 45.26762286795636 325.03612897766385 C 46.37219236761795 325.03612897766385 47.26762286795636 325.93155947800227 47.26762286795636 327.03612897766385 Z" stroke-opacity="1" stroke-linecap="round" stroke-linejoin="round" stroke-miterlimit="10"/><text fill="rgb(0,0,255)" stroke="none" font-family="geogebra-sans-serif, sans-serif" font-size="16px" font-style="normal" font-weight="normal" text-decoration="normal" x="29" y="313" text-anchor="start" dominant-baseline="alphabetic" fill-opacity="1">K</text><text fill="none" stroke="rgb(255,255,255)" font-family="geogebra-sans-serif, sans-serif" font-size="16px" font-style="normal" font-weight="normal" text-decoration="normal" x="29" y="313" text-anchor="start" dominant-baseline="alphabetic" stroke-opacity="1" stroke-linejoin="bevel" stroke-miterlimit="10" stroke-width="3">K</text><text fill="rgb(0,0,255)" stroke="none" font-family="geogebra-sans-serif, sans-serif" font-size="16px" font-style="normal" font-weight="normal" text-decoration="normal" x="29" y="313" text-anchor="start" dominant-baseline="alphabetic" fill-opacity="1">K</text><path fill="rgb(0,0,255)" stroke="none" paint-order="stroke fill markers" d=" M 254.9896710990652 297.06482803993055 C 254.9896710990652 298.1693975395921 254.09424059872677 299.06482803993055 252.9896710990652 299.06482803993055 C 251.8851015994036 299.06482803993055 250.9896710990652 298.1693975395921 250.9896710990652 297.06482803993055 C 250.9896710990652 295.96025854026897 251.8851015994036 295.06482803993055 252.9896710990652 295.06482803993055 C 254.09424059872677 295.06482803993055 254.9896710990652 295.96025854026897 254.9896710990652 297.06482803993055 Z" fill-opacity="1"/><path fill="none" stroke="rgb(0,0,0)" paint-order="fill stroke markers" d=" M 254.9896710990652 297.06482803993055 C 254.9896710990652 298.1693975395921 254.09424059872677 299.06482803993055 252.9896710990652 299.06482803993055 C 251.8851015994036 299.06482803993055 250.9896710990652 298.1693975395921 250.9896710990652 297.06482803993055 C 250.9896710990652 295.96025854026897 251.8851015994036 295.06482803993055 252.9896710990652 295.06482803993055 C 254.09424059872677 295.06482803993055 254.9896710990652 295.96025854026897 254.9896710990652 297.06482803993055 Z" stroke-opacity="1" stroke-linecap="round" stroke-linejoin="round" stroke-miterlimit="10"/><text fill="rgb(0,0,255)" stroke="none" font-family="geogebra-sans-serif, sans-serif" font-size="16px" font-style="normal" font-weight="normal" text-decoration="normal" x="237" y="290" text-anchor="start" dominant-baseline="alphabetic" fill-opacity="1">P</text><text fill="none" stroke="rgb(255,255,255)" font-family="geogebra-sans-serif, sans-serif" font-size="16px" font-style="normal" font-weight="normal" text-decoration="normal" x="237" y="290" text-anchor="start" dominant-baseline="alphabetic" stroke-opacity="1" stroke-linejoin="bevel" stroke-miterlimit="10" stroke-width="3">P</text><text fill="rgb(0,0,255)" stroke="none" font-family="geogebra-sans-serif, sans-serif" font-size="16px" font-style="normal" font-weight="normal" text-decoration="normal" x="237" y="290" text-anchor="start" dominant-baseline="alphabetic" fill-opacity="1">P</text><path fill="rgb(0,0,255)" stroke="none" paint-order="stroke fill markers" d=" M 500.57660262650364 261.6301695919543 C 500.57660262650364 262.7347390916159 499.6811721261652 263.6301695919543 498.57660262650364 263.6301695919543 C 497.47203312684206 263.6301695919543 496.57660262650364 262.7347390916159 496.57660262650364 261.6301695919543 C 496.57660262650364 260.52560009229273 497.47203312684206 259.6301695919543 498.57660262650364 259.6301695919543 C 499.6811721261652 259.6301695919543 500.57660262650364 260.52560009229273 500.57660262650364 261.6301695919543 Z" fill-opacity="1"/><path fill="none" stroke="rgb(0,0,0)" paint-order="fill stroke markers" d=" M 500.57660262650364 261.6301695919543 C 500.57660262650364 262.7347390916159 499.6811721261652 263.6301695919543 498.57660262650364 263.6301695919543 C 497.47203312684206 263.6301695919543 496.57660262650364 262.7347390916159 496.57660262650364 261.6301695919543 C 496.57660262650364 260.52560009229273 497.47203312684206 259.6301695919543 498.57660262650364 259.6301695919543 C 499.6811721261652 259.6301695919543 500.57660262650364 260.52560009229273 500.57660262650364 261.6301695919543 Z" stroke-opacity="1" stroke-linecap="round" stroke-linejoin="round" stroke-miterlimit="10"/><text fill="rgb(0,0,255)" stroke="none" font-family="geogebra-sans-serif, sans-serif" font-size="16px" font-style="normal" font-weight="normal" text-decoration="normal" x="509" y="283" text-anchor="start" dominant-baseline="alphabetic" fill-opacity="1">Q</text><text fill="none" stroke="rgb(255,255,255)" font-family="geogebra-sans-serif, sans-serif" font-size="16px" font-style="normal" font-weight="normal" text-decoration="normal" x="509" y="283" text-anchor="start" dominant-baseline="alphabetic" stroke-opacity="1" stroke-linejoin="bevel" stroke-miterlimit="10" stroke-width="3">Q</text><text fill="rgb(0,0,255)" stroke="none" font-family="geogebra-sans-serif, sans-serif" font-size="16px" font-style="normal" font-weight="normal" text-decoration="normal" x="509" y="283" text-anchor="start" dominant-baseline="alphabetic" fill-opacity="1">Q</text><path fill="rgb(0,0,255)" stroke="none" paint-order="stroke fill markers" d=" M 344.56595993183316 49.12926294799365 C 344.56595993183316 50.23383244765524 343.67052943149474 51.12926294799365 342.56595993183316 51.12926294799365 C 341.4613904321716 51.12926294799365 340.56595993183316 50.23383244765524 340.56595993183316 49.12926294799365 C 340.56595993183316 48.024693448332066 341.4613904321716 47.12926294799365 342.56595993183316 47.12926294799365 C 343.67052943149474 47.12926294799365 344.56595993183316 48.024693448332066 344.56595993183316 49.12926294799365 Z" fill-opacity="1"/><path fill="none" stroke="rgb(0,0,0)" paint-order="fill stroke markers" d=" M 344.56595993183316 49.12926294799365 C 344.56595993183316 50.23383244765524 343.67052943149474 51.12926294799365 342.56595993183316 51.12926294799365 C 341.4613904321716 51.12926294799365 340.56595993183316 50.23383244765524 340.56595993183316 49.12926294799365 C 340.56595993183316 48.024693448332066 341.4613904321716 47.12926294799365 342.56595993183316 47.12926294799365 C 343.67052943149474 47.12926294799365 344.56595993183316 48.024693448332066 344.56595993183316 49.12926294799365 Z" stroke-opacity="1" stroke-linecap="round" stroke-linejoin="round" stroke-miterlimit="10"/><text fill="rgb(0,0,255)" stroke="none" font-family="geogebra-sans-serif, sans-serif" font-size="16px" font-style="normal" font-weight="normal" text-decoration="normal" x="337" y="32" text-anchor="start" dominant-baseline="alphabetic" fill-opacity="1">R</text><text fill="none" stroke="rgb(255,255,255)" font-family="geogebra-sans-serif, sans-serif" font-size="16px" font-style="normal" font-weight="normal" text-decoration="normal" x="337" y="32" text-anchor="start" dominant-baseline="alphabetic" stroke-opacity="1" stroke-linejoin="bevel" stroke-miterlimit="10" stroke-width="3">R</text><text fill="rgb(0,0,255)" stroke="none" font-family="geogebra-sans-serif, sans-serif" font-size="16px" font-style="normal" font-weight="normal" text-decoration="normal" x="337" y="32" text-anchor="start" dominant-baseline="alphabetic" fill-opacity="1">R</text></g></g></svg>