<svg version="1.1" xmlns="http://www.w3.org/2000/svg" xmlns:xlink="http://www.w3.org/1999/xlink" width="260" height="231"><defs><clipPath id="ghyssXOpXZGR"><path fill="none" stroke="none" d=" M 0 0 L 260 0 L 260 231 L 0 231 L 0 0 Z"/></clipPath></defs><g transform="scale(1,1)" clip-path="url(#ghyssXOpXZGR)"><g><rect fill="rgb(255,255,255)" stroke="none" x="0" y="0" width="260" height="231" fill-opacity="1"/><path fill="rgb(255,0,255)" stroke="none" paint-order="stroke fill markers" d=" M 97.24382301368392 68.33122473669309 C 101.7624218790091 67.26452824142294 105.89471528700803 64.96062377231905 109.17766952966356 61.67766952966355 L 91.49999999999987 43.99999999999986 Z" fill-opacity="0.09803921568627451"/><path fill="none" stroke="rgb(255,0,255)" paint-order="fill stroke markers" d=" M 97.24382301368392 68.33122473669309 C 101.7624218790091 67.26452824142294 105.89471528700803 64.96062377231905 109.17766952966356 61.67766952966355 L 91.49999999999987 43.99999999999986 Z" stroke-opacity="0.7019607843137254" stroke-linecap="round" stroke-linejoin="round" stroke-miterlimit="10"/><path fill="none" stroke="rgb(255,0,255)" paint-order="fill stroke markers" d=" M 96.09505841094712 63.46497978935446 C 99.70993750320726 62.61162259313832 103.01577222960638 60.76849901785522 105.64213562373082 58.14213562373081" stroke-opacity="0.7019607843137254" stroke-linecap="round" stroke-linejoin="round" stroke-miterlimit="10"/><path fill="rgb(0,153,255)" stroke="none" paint-order="stroke fill markers" d=" M 112.71320343559627 65.21320343559626 C 120.06522471223518 57.86118215895738 123.08628620393516 47.22660154766422 120.69746968403176 37.10741238357903 L 91.49999999999987 43.99999999999986 Z" fill-opacity="0.09803921568627451"/><path fill="none" stroke="rgb(0,153,255)" paint-order="fill stroke markers" d=" M 112.71320343559627 65.21320343559626 C 120.06522471223518 57.86118215895738 123.08628620393516 47.22660154766422 120.69746968403176 37.10741238357903 L 91.49999999999987 43.99999999999986 Z" stroke-opacity="0.6980392156862745" stroke-linecap="round" stroke-linejoin="round" stroke-miterlimit="10" stroke-width="0.5"/><path fill="none" stroke="rgb(0,153,255)" paint-order="fill stroke markers" d=" M 116.82114980239426 54.069849685308036 L 121.93184058819864 56.10229641078308" stroke-opacity="0.6980392156862745" stroke-linecap="round" stroke-linejoin="round" stroke-miterlimit="10" stroke-width="0.5"/><path fill="none" stroke="rgb(0,153,255)" paint-order="fill stroke markers" d=" M 118.33348982173933 48.746190470956925 L 123.74942354722802 49.70413717151707" stroke-opacity="0.6980392156862745" stroke-linecap="round" stroke-linejoin="round" stroke-miterlimit="10" stroke-width="0.5"/><path fill="none" stroke="rgb(0,100,0)" paint-order="fill stroke markers" d=" M 91.49999999999987 43.99999999999986 L 66.4999999999999 118.9999999999999" stroke-opacity="0.6980392156862745" stroke-linecap="round" stroke-linejoin="round" stroke-miterlimit="10"/><path fill="none" stroke="rgb(0,100,0)" paint-order="fill stroke markers" d=" M 66.4999999999999 118.9999999999999 L 166.49999999999983 118.9999999999999" stroke-opacity="0.6980392156862745" stroke-linecap="round" stroke-linejoin="round" stroke-miterlimit="10"/><path fill="none" stroke="rgb(0,100,0)" paint-order="fill stroke markers" d=" M 166.49999999999983 118.9999999999999 L 91.49999999999987 43.99999999999986" stroke-opacity="0.6980392156862745" stroke-linecap="round" stroke-linejoin="round" stroke-miterlimit="10"/><path fill="none" stroke="rgb(255,85,0)" paint-order="fill stroke markers" d=" M 23.93852065890414 59.94910178494615 L 209.06147934109566 16.247499340064053" stroke-opacity="0.6980392156862745" stroke-linecap="round" stroke-linejoin="round" stroke-miterlimit="10"/><path fill="none" stroke="rgb(255,85,0)" paint-order="fill stroke markers" d=" M 209.06147934109566 16.247499340064053 L 130.00453783688624 207.10783971926315" stroke-opacity="0.6980392156862745" stroke-linecap="round" stroke-linejoin="round" stroke-miterlimit="10"/><path fill="none" stroke="rgb(255,85,0)" paint-order="fill stroke markers" d=" M 130.00453783688624 207.10783971926315 L 23.93852065890414 59.94910178494615" stroke-opacity="0.6980392156862745" stroke-linecap="round" stroke-linejoin="round" stroke-miterlimit="10"/><path fill="none" stroke="rgb(102,102,102)" paint-order="fill stroke markers" d=" M 166.49999999999983 118.9999999999999 L 23.93852065890414 59.94910178494615" stroke-opacity="0.6980392156862745" stroke-linejoin="round" stroke-miterlimit="10" stroke-dasharray="9,8"/><path fill="none" stroke="rgb(102,102,102)" paint-order="fill stroke markers" d=" M 91.49999999999987 43.99999999999986 L 130.00453783688624 207.10783971926315" stroke-opacity="0.6980392156862745" stroke-linejoin="round" stroke-miterlimit="10" stroke-dasharray="9,8"/><path fill="none" stroke="rgb(102,102,102)" paint-order="fill stroke markers" d=" M 66.4999999999999 118.9999999999999 L 209.06147934109566 16.247499340064053" stroke-opacity="0.6980392156862745" stroke-linejoin="round" stroke-miterlimit="10" stroke-dasharray="9,8"/><path fill="rgb(0,0,255)" stroke="none" paint-order="stroke fill markers" d=" M 93.49999999999987 43.99999999999986 C 93.49999999999987 45.104569499661444 92.60456949966147 45.99999999999986 91.49999999999987 45.99999999999986 C 90.39543050033828 45.99999999999986 89.49999999999987 45.104569499661444 89.49999999999987 43.99999999999986 C 89.49999999999987 42.89543050033827 90.39543050033828 41.99999999999986 91.49999999999987 41.99999999999986 C 92.60456949966147 41.99999999999986 93.49999999999987 42.89543050033827 93.49999999999987 43.99999999999986 Z" fill-opacity="1"/><path fill="none" stroke="rgb(0,0,0)" paint-order="fill stroke markers" d=" M 93.49999999999987 43.99999999999986 C 93.49999999999987 45.104569499661444 92.60456949966147 45.99999999999986 91.49999999999987 45.99999999999986 C 90.39543050033828 45.99999999999986 89.49999999999987 45.104569499661444 89.49999999999987 43.99999999999986 C 89.49999999999987 42.89543050033827 90.39543050033828 41.99999999999986 91.49999999999987 41.99999999999986 C 92.60456949966147 41.99999999999986 93.49999999999987 42.89543050033827 93.49999999999987 43.99999999999986 Z" stroke-opacity="1" stroke-linecap="round" stroke-linejoin="round" stroke-miterlimit="10"/><text fill="rgb(0,0,255)" stroke="none" font-family="geogebra-sans-serif, sans-serif" font-size="16px" font-style="normal" font-weight="normal" text-decoration="normal" x="86" y="35" text-anchor="start" dominant-baseline="alphabetic" fill-opacity="1">A</text><text fill="rgb(0,0,255)" stroke="none" font-family="geogebra-sans-serif, sans-serif" font-size="16px" font-style="normal" font-weight="normal" text-decoration="normal" x="86" y="35" text-anchor="start" dominant-baseline="alphabetic" fill-opacity="1">A</text><path fill="rgb(0,0,255)" stroke="none" paint-order="stroke fill markers" d=" M 68.4999999999999 118.9999999999999 C 68.4999999999999 120.1045694996615 67.6045694996615 120.9999999999999 66.4999999999999 120.9999999999999 C 65.3954305003383 120.9999999999999 64.4999999999999 120.1045694996615 64.4999999999999 118.9999999999999 C 64.4999999999999 117.8954305003383 65.3954305003383 116.9999999999999 66.4999999999999 116.9999999999999 C 67.6045694996615 116.9999999999999 68.4999999999999 117.8954305003383 68.4999999999999 118.9999999999999 Z" fill-opacity="1"/><path fill="none" stroke="rgb(0,0,0)" paint-order="fill stroke markers" d=" M 68.4999999999999 118.9999999999999 C 68.4999999999999 120.1045694996615 67.6045694996615 120.9999999999999 66.4999999999999 120.9999999999999 C 65.3954305003383 120.9999999999999 64.4999999999999 120.1045694996615 64.4999999999999 118.9999999999999 C 64.4999999999999 117.8954305003383 65.3954305003383 116.9999999999999 66.4999999999999 116.9999999999999 C 67.6045694996615 116.9999999999999 68.4999999999999 117.8954305003383 68.4999999999999 118.9999999999999 Z" stroke-opacity="1" stroke-linecap="round" stroke-linejoin="round" stroke-miterlimit="10"/><text fill="rgb(0,0,255)" stroke="none" font-family="geogebra-sans-serif, sans-serif" font-size="16px" font-style="normal" font-weight="normal" text-decoration="normal" x="43" y="129" text-anchor="start" dominant-baseline="alphabetic" fill-opacity="1">B</text><text fill="rgb(0,0,255)" stroke="none" font-family="geogebra-sans-serif, sans-serif" font-size="16px" font-style="normal" font-weight="normal" text-decoration="normal" x="43" y="129" text-anchor="start" dominant-baseline="alphabetic" fill-opacity="1">B</text><path fill="rgb(0,0,255)" stroke="none" paint-order="stroke fill markers" d=" M 168.49999999999983 118.9999999999999 C 168.49999999999983 120.1045694996615 167.6045694996614 120.9999999999999 166.49999999999983 120.9999999999999 C 165.39543050033825 120.9999999999999 164.49999999999983 120.1045694996615 164.49999999999983 118.9999999999999 C 164.49999999999983 117.8954305003383 165.39543050033825 116.9999999999999 166.49999999999983 116.9999999999999 C 167.6045694996614 116.9999999999999 168.49999999999983 117.8954305003383 168.49999999999983 118.9999999999999 Z" fill-opacity="1"/><path fill="none" stroke="rgb(0,0,0)" paint-order="fill stroke markers" d=" M 168.49999999999983 118.9999999999999 C 168.49999999999983 120.1045694996615 167.6045694996614 120.9999999999999 166.49999999999983 120.9999999999999 C 165.39543050033825 120.9999999999999 164.49999999999983 120.1045694996615 164.49999999999983 118.9999999999999 C 164.49999999999983 117.8954305003383 165.39543050033825 116.9999999999999 166.49999999999983 116.9999999999999 C 167.6045694996614 116.9999999999999 168.49999999999983 117.8954305003383 168.49999999999983 118.9999999999999 Z" stroke-opacity="1" stroke-linecap="round" stroke-linejoin="round" stroke-miterlimit="10"/><text fill="rgb(0,0,255)" stroke="none" font-family="geogebra-sans-serif, sans-serif" font-size="16px" font-style="normal" font-weight="normal" text-decoration="normal" x="176" y="130" text-anchor="start" dominant-baseline="alphabetic" fill-opacity="1">C</text><text fill="rgb(0,0,255)" stroke="none" font-family="geogebra-sans-serif, sans-serif" font-size="16px" font-style="normal" font-weight="normal" text-decoration="normal" x="176" y="130" text-anchor="start" dominant-baseline="alphabetic" fill-opacity="1">C</text><path fill="rgb(0,0,255)" stroke="none" paint-order="stroke fill markers" d=" M 132.00453783688624 207.10783971926315 C 132.00453783688624 208.21240921892473 131.10910733654782 209.10783971926315 130.00453783688624 209.10783971926315 C 128.89996833722466 209.10783971926315 128.00453783688624 208.21240921892473 128.00453783688624 207.10783971926315 C 128.00453783688624 206.00327021960157 128.89996833722466 205.10783971926315 130.00453783688624 205.10783971926315 C 131.10910733654782 205.10783971926315 132.00453783688624 206.00327021960157 132.00453783688624 207.10783971926315 Z" fill-opacity="1"/><path fill="none" stroke="rgb(0,0,0)" paint-order="fill stroke markers" d=" M 132.00453783688624 207.10783971926315 C 132.00453783688624 208.21240921892473 131.10910733654782 209.10783971926315 130.00453783688624 209.10783971926315 C 128.89996833722466 209.10783971926315 128.00453783688624 208.21240921892473 128.00453783688624 207.10783971926315 C 128.00453783688624 206.00327021960157 128.89996833722466 205.10783971926315 130.00453783688624 205.10783971926315 C 131.10910733654782 205.10783971926315 132.00453783688624 206.00327021960157 132.00453783688624 207.10783971926315 Z" stroke-opacity="1" stroke-linecap="round" stroke-linejoin="round" stroke-miterlimit="10"/><text fill="rgb(0,0,255)" stroke="none" font-family="geogebra-sans-serif, sans-serif" font-size="16px" font-style="normal" font-weight="normal" text-decoration="normal" x="109" y="206" text-anchor="start" dominant-baseline="alphabetic" fill-opacity="1">I</text><text fill="rgb(0,0,255)" stroke="none" font-family="geogebra-sans-serif, sans-serif" font-size="16px" font-style="normal" font-weight="normal" text-decoration="normal" x="109" y="206" text-anchor="start" dominant-baseline="alphabetic" fill-opacity="1">I</text><text fill="rgb(0,0,255)" stroke="none" font-family="geogebra-sans-serif, sans-serif" font-size="14px" font-style="normal" font-weight="normal" text-decoration="normal" x="113" y="213" text-anchor="start" dominant-baseline="alphabetic" fill-opacity="1">A</text><text fill="rgb(0,0,255)" stroke="none" font-family="geogebra-sans-serif, sans-serif" font-size="14px" font-style="normal" font-weight="normal" text-decoration="normal" x="113" y="213" text-anchor="start" dominant-baseline="alphabetic" fill-opacity="1">A</text><path fill="rgb(0,0,255)" stroke="none" paint-order="stroke fill markers" d=" M 211.06147934109566 16.247499340064053 C 211.06147934109566 17.35206883972564 210.16604884075724 18.247499340064053 209.06147934109566 18.247499340064053 C 207.95690984143408 18.247499340064053 207.06147934109566 17.35206883972564 207.06147934109566 16.247499340064053 C 207.06147934109566 15.142929840402466 207.95690984143408 14.247499340064053 209.06147934109566 14.247499340064053 C 210.16604884075724 14.247499340064053 211.06147934109566 15.142929840402466 211.06147934109566 16.247499340064053 Z" fill-opacity="1"/><path fill="none" stroke="rgb(0,0,0)" paint-order="fill stroke markers" d=" M 211.06147934109566 16.247499340064053 C 211.06147934109566 17.35206883972564 210.16604884075724 18.247499340064053 209.06147934109566 18.247499340064053 C 207.95690984143408 18.247499340064053 207.06147934109566 17.35206883972564 207.06147934109566 16.247499340064053 C 207.06147934109566 15.142929840402466 207.95690984143408 14.247499340064053 209.06147934109566 14.247499340064053 C 210.16604884075724 14.247499340064053 211.06147934109566 15.142929840402466 211.06147934109566 16.247499340064053 Z" stroke-opacity="1" stroke-linecap="round" stroke-linejoin="round" stroke-miterlimit="10"/><text fill="rgb(0,0,255)" stroke="none" font-family="geogebra-sans-serif, sans-serif" font-size="16px" font-style="normal" font-weight="normal" text-decoration="normal" x="211" y="39" text-anchor="start" dominant-baseline="alphabetic" fill-opacity="1">I</text><text fill="rgb(0,0,255)" stroke="none" font-family="geogebra-sans-serif, sans-serif" font-size="16px" font-style="normal" font-weight="normal" text-decoration="normal" x="211" y="39" text-anchor="start" dominant-baseline="alphabetic" fill-opacity="1">I</text><text fill="rgb(0,0,255)" stroke="none" font-family="geogebra-sans-serif, sans-serif" font-size="14px" font-style="normal" font-weight="normal" text-decoration="normal" x="215" y="46" text-anchor="start" dominant-baseline="alphabetic" fill-opacity="1">B</text><text fill="rgb(0,0,255)" stroke="none" font-family="geogebra-sans-serif, sans-serif" font-size="14px" font-style="normal" font-weight="normal" text-decoration="normal" x="215" y="46" text-anchor="start" dominant-baseline="alphabetic" fill-opacity="1">B</text><path fill="rgb(0,0,255)" stroke="none" paint-order="stroke fill markers" d=" M 25.93852065890414 59.94910178494615 C 25.93852065890414 61.05367128460774 25.043090158565725 61.94910178494615 23.93852065890414 61.94910178494615 C 22.833951159242552 61.94910178494615 21.93852065890414 61.05367128460774 21.93852065890414 59.94910178494615 C 21.93852065890414 58.844532285284565 22.833951159242552 57.94910178494615 23.93852065890414 57.94910178494615 C 25.043090158565725 57.94910178494615 25.93852065890414 58.844532285284565 25.93852065890414 59.94910178494615 Z" fill-opacity="1"/><path fill="none" stroke="rgb(0,0,0)" paint-order="fill stroke markers" d=" M 25.93852065890414 59.94910178494615 C 25.93852065890414 61.05367128460774 25.043090158565725 61.94910178494615 23.93852065890414 61.94910178494615 C 22.833951159242552 61.94910178494615 21.93852065890414 61.05367128460774 21.93852065890414 59.94910178494615 C 21.93852065890414 58.844532285284565 22.833951159242552 57.94910178494615 23.93852065890414 57.94910178494615 C 25.043090158565725 57.94910178494615 25.93852065890414 58.844532285284565 25.93852065890414 59.94910178494615 Z" stroke-opacity="1" stroke-linecap="round" stroke-linejoin="round" stroke-miterlimit="10"/><text fill="rgb(0,0,255)" stroke="none" font-family="geogebra-sans-serif, sans-serif" font-size="16px" font-style="normal" font-weight="normal" text-decoration="normal" x="19" y="44" text-anchor="start" dominant-baseline="alphabetic" fill-opacity="1">I</text><text fill="rgb(0,0,255)" stroke="none" font-family="geogebra-sans-serif, sans-serif" font-size="16px" font-style="normal" font-weight="normal" text-decoration="normal" x="19" y="44" text-anchor="start" dominant-baseline="alphabetic" fill-opacity="1">I</text><text fill="rgb(0,0,255)" stroke="none" font-family="geogebra-sans-serif, sans-serif" font-size="14px" font-style="normal" font-weight="normal" text-decoration="normal" x="23" y="51" text-anchor="start" dominant-baseline="alphabetic" fill-opacity="1">C</text><text fill="rgb(0,0,255)" stroke="none" font-family="geogebra-sans-serif, sans-serif" font-size="14px" font-style="normal" font-weight="normal" text-decoration="normal" x="23" y="51" text-anchor="start" dominant-baseline="alphabetic" fill-opacity="1">C</text><path fill="rgb(0,0,255)" stroke="none" paint-order="stroke fill markers" d=" M 104.99546216311357 92.69555915572617 C 104.99546216311357 93.80012865538777 104.10003166277517 94.69555915572617 102.99546216311357 94.69555915572617 C 101.89089266345198 94.69555915572617 100.99546216311357 93.80012865538777 100.99546216311357 92.69555915572617 C 100.99546216311357 91.59098965606458 101.89089266345198 90.69555915572617 102.99546216311357 90.69555915572617 C 104.10003166277517 90.69555915572617 104.99546216311357 91.59098965606458 104.99546216311357 92.69555915572617 Z" fill-opacity="1"/><path fill="none" stroke="rgb(0,0,0)" paint-order="fill stroke markers" d=" M 104.99546216311357 92.69555915572617 C 104.99546216311357 93.80012865538777 104.10003166277517 94.69555915572617 102.99546216311357 94.69555915572617 C 101.89089266345198 94.69555915572617 100.99546216311357 93.80012865538777 100.99546216311357 92.69555915572617 C 100.99546216311357 91.59098965606458 101.89089266345198 90.69555915572617 102.99546216311357 90.69555915572617 C 104.10003166277517 90.69555915572617 104.99546216311357 91.59098965606458 104.99546216311357 92.69555915572617 Z" stroke-opacity="1" stroke-linecap="round" stroke-linejoin="round" stroke-miterlimit="10"/><text fill="rgb(0,0,255)" stroke="none" font-family="geogebra-sans-serif, sans-serif" font-size="16px" font-style="normal" font-weight="normal" text-decoration="normal" x="104" y="80" text-anchor="start" dominant-baseline="alphabetic" fill-opacity="1">I</text><text fill="rgb(0,0,255)" stroke="none" font-family="geogebra-sans-serif, sans-serif" font-size="16px" font-style="normal" font-weight="normal" text-decoration="normal" x="104" y="80" text-anchor="start" dominant-baseline="alphabetic" fill-opacity="1">I</text></g></g></svg>