<svg version="1.1" xmlns="http://www.w3.org/2000/svg" xmlns:xlink="http://www.w3.org/1999/xlink" width="539" height="374"><defs><clipPath id="vACazsPTNyfE"><path fill="none" stroke="none" d=" M 0 0 L 539 0 L 539 374 L 0 374 L 0 0 Z"/></clipPath></defs><g transform="scale(1,1)" clip-path="url(#vACazsPTNyfE)"><g><rect fill="rgb(255,255,255)" stroke="none" x="0" y="0" width="539" height="374" fill-opacity="1"/><path fill="rgb(153,51,0)" stroke="none" paint-order="stroke fill markers" fill-rule="evenodd" d=" M 328.56595993183316 48.12926294799365 L 252.3377617569023 326.0361289776638 L 332.1398688257123 237.36712112343025 Z" fill-opacity="0.047058823529411764"/><path fill="rgb(153,51,0)" stroke="none" paint-order="stroke fill markers" fill-rule="evenodd" d=" M 328.56595993183316 48.12926294799365 L 404.794158106764 326.0361289776638 L 428.1892342212569 209.06074840519867 Z" fill-opacity="0.047058823529411764"/><path fill="rgb(204,0,0)" stroke="none" paint-order="stroke fill markers" fill-rule="evenodd" d=" M 404.794158106764 326.0361289776638 L 484.57660262650364 260.63016959195426 L 428.1892342212569 209.06074840519864 Z" fill-opacity="0.09803921568627451"/><path fill="rgb(204,0,0)" stroke="none" paint-order="stroke fill markers" fill-rule="evenodd" d=" M 252.33776175690232 326.0361289776638 L 354.3252700843106 310.48858505982173 L 332.1398688257123 237.3671211234302 Z" fill-opacity="0.09803921568627451"/><path fill="rgb(0,0,255)" stroke="none" paint-order="stroke fill markers" fill-rule="evenodd" d=" M 252.3377617569023 326.0361289776638 L 238.9896710990652 296.0648280399305 L 332.1398688257123 237.36712112343025 Z" fill-opacity="0.09803921568627451"/><path fill="rgb(0,0,255)" stroke="none" paint-order="stroke fill markers" fill-rule="evenodd" d=" M 404.794158106764 326.0361289776638 L 378.0226555331948 307.0693935162464 L 428.1892342212569 209.06074840519867 Z" fill-opacity="0.09803921568627451"/><path fill="none" stroke="rgb(0,153,255)" paint-order="fill stroke markers" d=" M 477.9738633237621 197.53716633992292 C 477.9738633237621 280.05287288747786 411.081666479388 346.9450697318522 328.56595993183316 346.9450697318522 C 246.05025338427834 346.9450697318522 179.15805653990424 280.05287288747786 179.15805653990424 197.53716633992292 C 179.15805653990424 115.02145979236792 246.05025338427834 48.12926294799365 328.56595993183316 48.12926294799365 C 411.081666479388 48.12926294799365 477.9738633237621 115.02145979236792 477.9738633237621 197.53716633992292 Z" stroke-opacity="0.6980392156862745" stroke-linecap="round" stroke-linejoin="round" stroke-miterlimit="10"/><path fill="none" stroke="rgb(255,85,0)" paint-order="fill stroke markers" d=" M 159.00519340506239 249.98342419656277 C 262.0479193041148 336.5409837751132 413.7448888499347 331.59093673790153 510.9254725840108 238.49985968963773" stroke-opacity="0.6980392156862745" stroke-linejoin="round" stroke-miterlimit="10" stroke-dasharray="9,4,1,4"/><path fill="none" stroke="rgb(0,100,0)" paint-order="fill stroke markers" d=" M 404.794158106764 326.0361289776638 L 252.3377617569023 326.0361289776638" stroke-opacity="0.6980392156862745" stroke-linecap="round" stroke-linejoin="round" stroke-miterlimit="10"/><path fill="none" stroke="rgb(0,100,0)" paint-order="fill stroke markers" d=" M 288.89399163319507 278.691283758246 L 295.5836389494196 284.71196634284803" stroke-opacity="0.6980392156862745" stroke-linecap="round" stroke-linejoin="round" stroke-miterlimit="10"/><path fill="none" stroke="rgb(0,100,0)" paint-order="fill stroke markers" d=" M 252.3377617569023 326.0361289776638 L 332.1398688257123 237.36712112343025" stroke-opacity="0.6980392156862745" stroke-linecap="round" stroke-linejoin="round" stroke-miterlimit="10"/><path fill="none" stroke="rgb(0,100,0)" paint-order="fill stroke markers" d=" M 412.07908312340135 266.6659160833094 L 420.9043092046196 268.430961299553" stroke-opacity="0.6980392156862745" stroke-linecap="round" stroke-linejoin="round" stroke-miterlimit="10"/><path fill="none" stroke="rgb(0,100,0)" paint-order="fill stroke markers" d=" M 404.794158106764 326.0361289776638 L 428.1892342212569 209.06074840519864" stroke-opacity="0.6980392156862745" stroke-linecap="round" stroke-linejoin="round" stroke-miterlimit="10"/><path fill="none" stroke="rgb(0,100,0)" paint-order="fill stroke markers" d=" M 428.1892342212569 209.06074840519864 L 448.3531284924387 108.24127704928945" stroke-opacity="0.6980392156862745" stroke-linecap="round" stroke-linejoin="round" stroke-miterlimit="10"/><path fill="none" stroke="rgb(0,100,0)" paint-order="fill stroke markers" d=" M 448.3531284924387 108.24127704928945 L 332.1398688257123 237.36712112343025" stroke-opacity="0.6980392156862745" stroke-linecap="round" stroke-linejoin="round" stroke-miterlimit="10"/><path fill="none" stroke="rgb(244,0,153)" paint-order="fill stroke markers" d=" M 238.9896710990652 296.0648280399305 L 328.56595993183316 48.12926294799365" stroke-opacity="0.6980392156862745" stroke-linecap="round" stroke-linejoin="round" stroke-miterlimit="10"/><path fill="none" stroke="rgb(244,0,153)" paint-order="fill stroke markers" d=" M 328.56595993183316 48.12926294799365 L 484.57660262650364 260.63016959195426" stroke-opacity="0.6980392156862745" stroke-linecap="round" stroke-linejoin="round" stroke-miterlimit="10"/><path fill="none" stroke="rgb(0,100,0)" paint-order="fill stroke markers" d=" M 31.267622867956362 326.0361289776638 L 428.1892342212569 209.06074840519864" stroke-opacity="0.6980392156862745" stroke-linecap="round" stroke-linejoin="round" stroke-miterlimit="10"/><path fill="none" stroke="rgb(0,100,0)" paint-order="fill stroke markers" d=" M 31.267622867956362 326.0361289776638 L 252.3377617569023 326.0361289776638" stroke-opacity="0.6980392156862745" stroke-linecap="round" stroke-linejoin="round" stroke-miterlimit="10"/><path fill="none" stroke="rgb(0,100,0)" paint-order="fill stroke markers" d=" M 328.56595993183316 48.12926294799365 L 332.1398688257123 237.36712112343025" stroke-opacity="0.6980392156862745" stroke-linecap="round" stroke-linejoin="round" stroke-miterlimit="10"/><path fill="none" stroke="rgb(153,51,0)" paint-order="fill stroke markers" d=" M 328.56595993183316 48.12926294799365 L 252.3377617569023 326.0361289776638" stroke-opacity="0.6980392156862745" stroke-linejoin="round" stroke-miterlimit="10" stroke-dasharray="5,4"/><path fill="none" stroke="rgb(153,51,0)" paint-order="fill stroke markers" d=" M 252.3377617569023 326.0361289776638 L 332.1398688257123 237.36712112343025" stroke-opacity="0.6980392156862745" stroke-linejoin="round" stroke-miterlimit="10" stroke-dasharray="5,4"/><path fill="none" stroke="rgb(153,51,0)" paint-order="fill stroke markers" d=" M 332.1398688257123 237.36712112343025 L 328.56595993183316 48.12926294799365" stroke-opacity="0.6980392156862745" stroke-linejoin="round" stroke-miterlimit="10" stroke-dasharray="5,4"/><path fill="none" stroke="rgb(153,51,0)" paint-order="fill stroke markers" d=" M 328.56595993183316 48.12926294799365 L 404.794158106764 326.0361289776638" stroke-opacity="0.6980392156862745" stroke-linejoin="round" stroke-miterlimit="10" stroke-dasharray="5,4"/><path fill="none" stroke="rgb(153,51,0)" paint-order="fill stroke markers" d=" M 404.794158106764 326.0361289776638 L 428.1892342212569 209.06074840519867" stroke-opacity="0.6980392156862745" stroke-linejoin="round" stroke-miterlimit="10" stroke-dasharray="5,4"/><path fill="none" stroke="rgb(153,51,0)" paint-order="fill stroke markers" d=" M 428.1892342212569 209.06074840519867 L 328.56595993183316 48.12926294799365" stroke-opacity="0.6980392156862745" stroke-linejoin="round" stroke-miterlimit="10" stroke-dasharray="5,4"/><path fill="none" stroke="rgb(204,0,0)" paint-order="fill stroke markers" d=" M 404.794158106764 326.0361289776638 L 484.57660262650364 260.63016959195426" stroke-opacity="0.6980392156862745" stroke-linejoin="round" stroke-miterlimit="10" stroke-dasharray="1,3"/><path fill="none" stroke="rgb(204,0,0)" paint-order="fill stroke markers" d=" M 484.57660262650364 260.63016959195426 L 428.1892342212569 209.06074840519864" stroke-opacity="0.6980392156862745" stroke-linejoin="round" stroke-miterlimit="10" stroke-dasharray="1,3"/><path fill="none" stroke="rgb(204,0,0)" paint-order="fill stroke markers" d=" M 428.1892342212569 209.06074840519864 L 404.794158106764 326.0361289776638" stroke-opacity="0.6980392156862745" stroke-linejoin="round" stroke-miterlimit="10" stroke-dasharray="1,3"/><path fill="none" stroke="rgb(204,0,0)" paint-order="fill stroke markers" d=" M 252.33776175690232 326.0361289776638 L 354.3252700843106 310.48858505982173" stroke-opacity="0.6980392156862745" stroke-linejoin="round" stroke-miterlimit="10" stroke-dasharray="1,3"/><path fill="none" stroke="rgb(204,0,0)" paint-order="fill stroke markers" d=" M 354.3252700843106 310.48858505982173 L 332.1398688257123 237.3671211234302" stroke-opacity="0.6980392156862745" stroke-linejoin="round" stroke-miterlimit="10" stroke-dasharray="1,3"/><path fill="none" stroke="rgb(204,0,0)" paint-order="fill stroke markers" d=" M 332.1398688257123 237.3671211234302 L 252.33776175690232 326.0361289776638" stroke-opacity="0.6980392156862745" stroke-linejoin="round" stroke-miterlimit="10" stroke-dasharray="1,3"/><path fill="none" stroke="rgb(0,0,255)" paint-order="fill stroke markers" d=" M 252.3377617569023 326.0361289776638 L 238.9896710990652 296.0648280399305" stroke-opacity="0.6980392156862745" stroke-linejoin="round" stroke-miterlimit="10" stroke-dasharray="9,8"/><path fill="none" stroke="rgb(0,0,255)" paint-order="fill stroke markers" d=" M 238.9896710990652 296.0648280399305 L 332.1398688257123 237.36712112343025" stroke-opacity="0.6980392156862745" stroke-linejoin="round" stroke-miterlimit="10" stroke-dasharray="9,8"/><path fill="none" stroke="rgb(0,0,255)" paint-order="fill stroke markers" d=" M 332.1398688257123 237.36712112343025 L 252.3377617569023 326.0361289776638" stroke-opacity="0.6980392156862745" stroke-linejoin="round" stroke-miterlimit="10" stroke-dasharray="9,8"/><path fill="none" stroke="rgb(0,0,255)" paint-order="fill stroke markers" d=" M 404.794158106764 326.0361289776638 L 378.0226555331948 307.0693935162464" stroke-opacity="0.6980392156862745" stroke-linejoin="round" stroke-miterlimit="10" stroke-dasharray="9,8"/><path fill="none" stroke="rgb(0,0,255)" paint-order="fill stroke markers" d=" M 378.0226555331948 307.0693935162464 L 428.1892342212569 209.06074840519867" stroke-opacity="0.6980392156862745" stroke-linejoin="round" stroke-miterlimit="10" stroke-dasharray="9,8"/><path fill="none" stroke="rgb(0,0,255)" paint-order="fill stroke markers" d=" M 428.1892342212569 209.06074840519867 L 404.794158106764 326.0361289776638" stroke-opacity="0.6980392156862745" stroke-linejoin="round" stroke-miterlimit="10" stroke-dasharray="9,8"/><path fill="none" stroke="rgb(102,102,102)" paint-order="fill stroke markers" d=" M 238.9896710990652 296.0648280399305 L 484.57660262650364 260.63016959195426" stroke-opacity="0.6980392156862745" stroke-linejoin="round" stroke-miterlimit="10" stroke-dasharray="5,4"/><path fill="none" stroke="rgb(102,102,102)" paint-order="fill stroke markers" d=" M 354.3252700843106 310.48858505982173 L 238.9896710990652 296.0648280399305" stroke-opacity="0.6980392156862745" stroke-linejoin="round" stroke-miterlimit="10" stroke-dasharray="5,4"/><path fill="none" stroke="rgb(102,102,102)" paint-order="fill stroke markers" d=" M 31.267622867956362 326.0361289776638 L 238.9896710990652 296.0648280399305" stroke-opacity="0.6980392156862745" stroke-linejoin="round" stroke-miterlimit="10" stroke-dasharray="5,4"/><path fill="rgb(0,0,255)" stroke="none" paint-order="stroke fill markers" d=" M 254.3377617569023 326.0361289776638 C 254.3377617569023 327.1406984773254 253.44233125656388 328.0361289776638 252.3377617569023 328.0361289776638 C 251.23319225724072 328.0361289776638 250.3377617569023 327.1406984773254 250.3377617569023 326.0361289776638 C 250.3377617569023 324.9315594780022 251.23319225724072 324.0361289776638 252.3377617569023 324.0361289776638 C 253.44233125656388 324.0361289776638 254.3377617569023 324.9315594780022 254.3377617569023 326.0361289776638 Z" fill-opacity="1"/><path fill="none" stroke="rgb(0,0,0)" paint-order="fill stroke markers" d=" M 254.3377617569023 326.0361289776638 C 254.3377617569023 327.1406984773254 253.44233125656388 328.0361289776638 252.3377617569023 328.0361289776638 C 251.23319225724072 328.0361289776638 250.3377617569023 327.1406984773254 250.3377617569023 326.0361289776638 C 250.3377617569023 324.9315594780022 251.23319225724072 324.0361289776638 252.3377617569023 324.0361289776638 C 253.44233125656388 324.0361289776638 254.3377617569023 324.9315594780022 254.3377617569023 326.0361289776638 Z" stroke-opacity="1" stroke-linecap="round" stroke-linejoin="round" stroke-miterlimit="10"/><text fill="rgb(0,0,255)" stroke="none" font-family="geogebra-sans-serif, sans-serif" font-size="16px" font-style="normal" font-weight="normal" text-decoration="normal" x="232" y="347" text-anchor="start" dominant-baseline="alphabetic" fill-opacity="1">A</text><text fill="none" stroke="rgb(255,255,255)" font-family="geogebra-sans-serif, sans-serif" font-size="16px" font-style="normal" font-weight="normal" text-decoration="normal" x="232" y="347" text-anchor="start" dominant-baseline="alphabetic" stroke-opacity="1" stroke-linejoin="bevel" stroke-miterlimit="10" stroke-width="3">A</text><text fill="rgb(0,0,255)" stroke="none" font-family="geogebra-sans-serif, sans-serif" font-size="16px" font-style="normal" font-weight="normal" text-decoration="normal" x="232" y="347" text-anchor="start" dominant-baseline="alphabetic" fill-opacity="1">A</text><path fill="rgb(0,0,255)" stroke="none" paint-order="stroke fill markers" d=" M 450.3531284924387 108.24127704928945 C 450.3531284924387 109.34584654895104 449.4576979921003 110.24127704928945 448.3531284924387 110.24127704928945 C 447.24855899277713 110.24127704928945 446.3531284924387 109.34584654895104 446.3531284924387 108.24127704928945 C 446.3531284924387 107.13670754962786 447.24855899277713 106.24127704928945 448.3531284924387 106.24127704928945 C 449.4576979921003 106.24127704928945 450.3531284924387 107.13670754962786 450.3531284924387 108.24127704928945 Z" fill-opacity="1"/><path fill="none" stroke="rgb(0,0,0)" paint-order="fill stroke markers" d=" M 450.3531284924387 108.24127704928945 C 450.3531284924387 109.34584654895104 449.4576979921003 110.24127704928945 448.3531284924387 110.24127704928945 C 447.24855899277713 110.24127704928945 446.3531284924387 109.34584654895104 446.3531284924387 108.24127704928945 C 446.3531284924387 107.13670754962786 447.24855899277713 106.24127704928945 448.3531284924387 106.24127704928945 C 449.4576979921003 106.24127704928945 450.3531284924387 107.13670754962786 450.3531284924387 108.24127704928945 Z" stroke-opacity="1" stroke-linecap="round" stroke-linejoin="round" stroke-miterlimit="10"/><text fill="rgb(0,0,255)" stroke="none" font-family="geogebra-sans-serif, sans-serif" font-size="16px" font-style="normal" font-weight="normal" text-decoration="normal" x="457" y="105" text-anchor="start" dominant-baseline="alphabetic" fill-opacity="1">B</text><text fill="none" stroke="rgb(255,255,255)" font-family="geogebra-sans-serif, sans-serif" font-size="16px" font-style="normal" font-weight="normal" text-decoration="normal" x="457" y="105" text-anchor="start" dominant-baseline="alphabetic" stroke-opacity="1" stroke-linejoin="bevel" stroke-miterlimit="10" stroke-width="3">B</text><text fill="rgb(0,0,255)" stroke="none" font-family="geogebra-sans-serif, sans-serif" font-size="16px" font-style="normal" font-weight="normal" text-decoration="normal" x="457" y="105" text-anchor="start" dominant-baseline="alphabetic" fill-opacity="1">B</text><path fill="rgb(0,0,255)" stroke="none" paint-order="stroke fill markers" d=" M 406.794158106764 326.0361289776638 C 406.794158106764 327.1406984773254 405.89872760642555 328.0361289776638 404.794158106764 328.0361289776638 C 403.6895886071024 328.0361289776638 402.794158106764 327.1406984773254 402.794158106764 326.0361289776638 C 402.794158106764 324.9315594780022 403.6895886071024 324.0361289776638 404.794158106764 324.0361289776638 C 405.89872760642555 324.0361289776638 406.794158106764 324.9315594780022 406.794158106764 326.0361289776638 Z" fill-opacity="1"/><path fill="none" stroke="rgb(0,0,0)" paint-order="fill stroke markers" d=" M 406.794158106764 326.0361289776638 C 406.794158106764 327.1406984773254 405.89872760642555 328.0361289776638 404.794158106764 328.0361289776638 C 403.6895886071024 328.0361289776638 402.794158106764 327.1406984773254 402.794158106764 326.0361289776638 C 402.794158106764 324.9315594780022 403.6895886071024 324.0361289776638 404.794158106764 324.0361289776638 C 405.89872760642555 324.0361289776638 406.794158106764 324.9315594780022 406.794158106764 326.0361289776638 Z" stroke-opacity="1" stroke-linecap="round" stroke-linejoin="round" stroke-miterlimit="10"/><text fill="rgb(0,0,255)" stroke="none" font-family="geogebra-sans-serif, sans-serif" font-size="16px" font-style="normal" font-weight="normal" text-decoration="normal" x="425" y="348" text-anchor="start" dominant-baseline="alphabetic" fill-opacity="1">C</text><text fill="none" stroke="rgb(255,255,255)" font-family="geogebra-sans-serif, sans-serif" font-size="16px" font-style="normal" font-weight="normal" text-decoration="normal" x="425" y="348" text-anchor="start" dominant-baseline="alphabetic" stroke-opacity="1" stroke-linejoin="bevel" stroke-miterlimit="10" stroke-width="3">C</text><text fill="rgb(0,0,255)" stroke="none" font-family="geogebra-sans-serif, sans-serif" font-size="16px" font-style="normal" font-weight="normal" text-decoration="normal" x="425" y="348" text-anchor="start" dominant-baseline="alphabetic" fill-opacity="1">C</text><path fill="rgb(0,0,255)" stroke="none" paint-order="stroke fill markers" d=" M 334.1398688257123 237.36712112343025 C 334.1398688257123 238.47169062309183 333.2444383253739 239.36712112343025 332.1398688257123 239.36712112343025 C 331.03529932605073 239.36712112343025 330.1398688257123 238.47169062309183 330.1398688257123 237.36712112343025 C 330.1398688257123 236.26255162376867 331.03529932605073 235.36712112343025 332.1398688257123 235.36712112343025 C 333.2444383253739 235.36712112343025 334.1398688257123 236.26255162376867 334.1398688257123 237.36712112343025 Z" fill-opacity="1"/><path fill="none" stroke="rgb(0,0,0)" paint-order="fill stroke markers" d=" M 334.1398688257123 237.36712112343025 C 334.1398688257123 238.47169062309183 333.2444383253739 239.36712112343025 332.1398688257123 239.36712112343025 C 331.03529932605073 239.36712112343025 330.1398688257123 238.47169062309183 330.1398688257123 237.36712112343025 C 330.1398688257123 236.26255162376867 331.03529932605073 235.36712112343025 332.1398688257123 235.36712112343025 C 333.2444383253739 235.36712112343025 334.1398688257123 236.26255162376867 334.1398688257123 237.36712112343025 Z" stroke-opacity="1" stroke-linecap="round" stroke-linejoin="round" stroke-miterlimit="10"/><text fill="rgb(0,0,255)" stroke="none" font-family="geogebra-sans-serif, sans-serif" font-size="16px" font-style="normal" font-weight="normal" text-decoration="normal" x="342" y="250" text-anchor="start" dominant-baseline="alphabetic" fill-opacity="1">M</text><text fill="none" stroke="rgb(255,255,255)" font-family="geogebra-sans-serif, sans-serif" font-size="16px" font-style="normal" font-weight="normal" text-decoration="normal" x="342" y="250" text-anchor="start" dominant-baseline="alphabetic" stroke-opacity="1" stroke-linejoin="bevel" stroke-miterlimit="10" stroke-width="3">M</text><text fill="rgb(0,0,255)" stroke="none" font-family="geogebra-sans-serif, sans-serif" font-size="16px" font-style="normal" font-weight="normal" text-decoration="normal" x="342" y="250" text-anchor="start" dominant-baseline="alphabetic" fill-opacity="1">M</text><path fill="rgb(0,0,255)" stroke="none" paint-order="stroke fill markers" d=" M 430.1892342212569 209.06074840519864 C 430.1892342212569 210.16531790486022 429.2938037209185 211.06074840519864 428.1892342212569 211.06074840519864 C 427.08466472159535 211.06074840519864 426.1892342212569 210.16531790486022 426.1892342212569 209.06074840519864 C 426.1892342212569 207.95617890553706 427.08466472159535 207.06074840519864 428.1892342212569 207.06074840519864 C 429.2938037209185 207.06074840519864 430.1892342212569 207.95617890553706 430.1892342212569 209.06074840519864 Z" fill-opacity="1"/><path fill="none" stroke="rgb(0,0,0)" paint-order="fill stroke markers" d=" M 430.1892342212569 209.06074840519864 C 430.1892342212569 210.16531790486022 429.2938037209185 211.06074840519864 428.1892342212569 211.06074840519864 C 427.08466472159535 211.06074840519864 426.1892342212569 210.16531790486022 426.1892342212569 209.06074840519864 C 426.1892342212569 207.95617890553706 427.08466472159535 207.06074840519864 428.1892342212569 207.06074840519864 C 429.2938037209185 207.06074840519864 430.1892342212569 207.95617890553706 430.1892342212569 209.06074840519864 Z" stroke-opacity="1" stroke-linecap="round" stroke-linejoin="round" stroke-miterlimit="10"/><text fill="rgb(0,0,255)" stroke="none" font-family="geogebra-sans-serif, sans-serif" font-size="16px" font-style="normal" font-weight="normal" text-decoration="normal" x="402" y="206" text-anchor="start" dominant-baseline="alphabetic" fill-opacity="1">N</text><text fill="none" stroke="rgb(255,255,255)" font-family="geogebra-sans-serif, sans-serif" font-size="16px" font-style="normal" font-weight="normal" text-decoration="normal" x="402" y="206" text-anchor="start" dominant-baseline="alphabetic" stroke-opacity="1" stroke-linejoin="bevel" stroke-miterlimit="10" stroke-width="3">N</text><text fill="rgb(0,0,255)" stroke="none" font-family="geogebra-sans-serif, sans-serif" font-size="16px" font-style="normal" font-weight="normal" text-decoration="normal" x="402" y="206" text-anchor="start" dominant-baseline="alphabetic" fill-opacity="1">N</text><path fill="rgb(0,0,255)" stroke="none" paint-order="stroke fill markers" d=" M 33.26762286795636 326.0361289776638 C 33.26762286795636 327.1406984773254 32.37219236761795 328.0361289776638 31.267622867956362 328.0361289776638 C 30.163053368294776 328.0361289776638 29.267622867956362 327.1406984773254 29.267622867956362 326.0361289776638 C 29.267622867956362 324.9315594780022 30.163053368294776 324.0361289776638 31.267622867956362 324.0361289776638 C 32.37219236761795 324.0361289776638 33.26762286795636 324.9315594780022 33.26762286795636 326.0361289776638 Z" fill-opacity="1"/><path fill="none" stroke="rgb(0,0,0)" paint-order="fill stroke markers" d=" M 33.26762286795636 326.0361289776638 C 33.26762286795636 327.1406984773254 32.37219236761795 328.0361289776638 31.267622867956362 328.0361289776638 C 30.163053368294776 328.0361289776638 29.267622867956362 327.1406984773254 29.267622867956362 326.0361289776638 C 29.267622867956362 324.9315594780022 30.163053368294776 324.0361289776638 31.267622867956362 324.0361289776638 C 32.37219236761795 324.0361289776638 33.26762286795636 324.9315594780022 33.26762286795636 326.0361289776638 Z" stroke-opacity="1" stroke-linecap="round" stroke-linejoin="round" stroke-miterlimit="10"/><text fill="rgb(0,0,255)" stroke="none" font-family="geogebra-sans-serif, sans-serif" font-size="16px" font-style="normal" font-weight="normal" text-decoration="normal" x="15" y="312" text-anchor="start" dominant-baseline="alphabetic" fill-opacity="1">K</text><text fill="none" stroke="rgb(255,255,255)" font-family="geogebra-sans-serif, sans-serif" font-size="16px" font-style="normal" font-weight="normal" text-decoration="normal" x="15" y="312" text-anchor="start" dominant-baseline="alphabetic" stroke-opacity="1" stroke-linejoin="bevel" stroke-miterlimit="10" stroke-width="3">K</text><text fill="rgb(0,0,255)" stroke="none" font-family="geogebra-sans-serif, sans-serif" font-size="16px" font-style="normal" font-weight="normal" text-decoration="normal" x="15" y="312" text-anchor="start" dominant-baseline="alphabetic" fill-opacity="1">K</text><path fill="rgb(0,0,255)" stroke="none" paint-order="stroke fill markers" d=" M 240.9896710990652 296.0648280399305 C 240.9896710990652 297.16939753959207 240.09424059872677 298.0648280399305 238.9896710990652 298.0648280399305 C 237.8851015994036 298.0648280399305 236.9896710990652 297.16939753959207 236.9896710990652 296.0648280399305 C 236.9896710990652 294.9602585402689 237.8851015994036 294.0648280399305 238.9896710990652 294.0648280399305 C 240.09424059872677 294.0648280399305 240.9896710990652 294.9602585402689 240.9896710990652 296.0648280399305 Z" fill-opacity="1"/><path fill="none" stroke="rgb(0,0,0)" paint-order="fill stroke markers" d=" M 240.9896710990652 296.0648280399305 C 240.9896710990652 297.16939753959207 240.09424059872677 298.0648280399305 238.9896710990652 298.0648280399305 C 237.8851015994036 298.0648280399305 236.9896710990652 297.16939753959207 236.9896710990652 296.0648280399305 C 236.9896710990652 294.9602585402689 237.8851015994036 294.0648280399305 238.9896710990652 294.0648280399305 C 240.09424059872677 294.0648280399305 240.9896710990652 294.9602585402689 240.9896710990652 296.0648280399305 Z" stroke-opacity="1" stroke-linecap="round" stroke-linejoin="round" stroke-miterlimit="10"/><text fill="rgb(0,0,255)" stroke="none" font-family="geogebra-sans-serif, sans-serif" font-size="16px" font-style="normal" font-weight="normal" text-decoration="normal" x="225" y="284" text-anchor="start" dominant-baseline="alphabetic" fill-opacity="1">P</text><text fill="none" stroke="rgb(255,255,255)" font-family="geogebra-sans-serif, sans-serif" font-size="16px" font-style="normal" font-weight="normal" text-decoration="normal" x="225" y="284" text-anchor="start" dominant-baseline="alphabetic" stroke-opacity="1" stroke-linejoin="bevel" stroke-miterlimit="10" stroke-width="3">P</text><text fill="rgb(0,0,255)" stroke="none" font-family="geogebra-sans-serif, sans-serif" font-size="16px" font-style="normal" font-weight="normal" text-decoration="normal" x="225" y="284" text-anchor="start" dominant-baseline="alphabetic" fill-opacity="1">P</text><path fill="rgb(0,0,255)" stroke="none" paint-order="stroke fill markers" d=" M 486.57660262650364 260.63016959195426 C 486.57660262650364 261.73473909161584 485.6811721261652 262.63016959195426 484.57660262650364 262.63016959195426 C 483.47203312684206 262.63016959195426 482.57660262650364 261.73473909161584 482.57660262650364 260.63016959195426 C 482.57660262650364 259.5256000922927 483.47203312684206 258.63016959195426 484.57660262650364 258.63016959195426 C 485.6811721261652 258.63016959195426 486.57660262650364 259.5256000922927 486.57660262650364 260.63016959195426 Z" fill-opacity="1"/><path fill="none" stroke="rgb(0,0,0)" paint-order="fill stroke markers" d=" M 486.57660262650364 260.63016959195426 C 486.57660262650364 261.73473909161584 485.6811721261652 262.63016959195426 484.57660262650364 262.63016959195426 C 483.47203312684206 262.63016959195426 482.57660262650364 261.73473909161584 482.57660262650364 260.63016959195426 C 482.57660262650364 259.5256000922927 483.47203312684206 258.63016959195426 484.57660262650364 258.63016959195426 C 485.6811721261652 258.63016959195426 486.57660262650364 259.5256000922927 486.57660262650364 260.63016959195426 Z" stroke-opacity="1" stroke-linecap="round" stroke-linejoin="round" stroke-miterlimit="10"/><text fill="rgb(0,0,255)" stroke="none" font-family="geogebra-sans-serif, sans-serif" font-size="16px" font-style="normal" font-weight="normal" text-decoration="normal" x="495" y="282" text-anchor="start" dominant-baseline="alphabetic" fill-opacity="1">Q</text><text fill="none" stroke="rgb(255,255,255)" font-family="geogebra-sans-serif, sans-serif" font-size="16px" font-style="normal" font-weight="normal" text-decoration="normal" x="495" y="282" text-anchor="start" dominant-baseline="alphabetic" stroke-opacity="1" stroke-linejoin="bevel" stroke-miterlimit="10" stroke-width="3">Q</text><text fill="rgb(0,0,255)" stroke="none" font-family="geogebra-sans-serif, sans-serif" font-size="16px" font-style="normal" font-weight="normal" text-decoration="normal" x="495" y="282" text-anchor="start" dominant-baseline="alphabetic" fill-opacity="1">Q</text><path fill="rgb(0,0,255)" stroke="none" paint-order="stroke fill markers" d=" M 330.56595993183316 48.12926294799365 C 330.56595993183316 49.23383244765524 329.67052943149474 50.12926294799365 328.56595993183316 50.12926294799365 C 327.4613904321716 50.12926294799365 326.56595993183316 49.23383244765524 326.56595993183316 48.12926294799365 C 326.56595993183316 47.024693448332066 327.4613904321716 46.12926294799365 328.56595993183316 46.12926294799365 C 329.67052943149474 46.12926294799365 330.56595993183316 47.024693448332066 330.56595993183316 48.12926294799365 Z" fill-opacity="1"/><path fill="none" stroke="rgb(0,0,0)" paint-order="fill stroke markers" d=" M 330.56595993183316 48.12926294799365 C 330.56595993183316 49.23383244765524 329.67052943149474 50.12926294799365 328.56595993183316 50.12926294799365 C 327.4613904321716 50.12926294799365 326.56595993183316 49.23383244765524 326.56595993183316 48.12926294799365 C 326.56595993183316 47.024693448332066 327.4613904321716 46.12926294799365 328.56595993183316 46.12926294799365 C 329.67052943149474 46.12926294799365 330.56595993183316 47.024693448332066 330.56595993183316 48.12926294799365 Z" stroke-opacity="1" stroke-linecap="round" stroke-linejoin="round" stroke-miterlimit="10"/><text fill="rgb(0,0,255)" stroke="none" font-family="geogebra-sans-serif, sans-serif" font-size="16px" font-style="normal" font-weight="normal" text-decoration="normal" x="323" y="31" text-anchor="start" dominant-baseline="alphabetic" fill-opacity="1">R</text><text fill="none" stroke="rgb(255,255,255)" font-family="geogebra-sans-serif, sans-serif" font-size="16px" font-style="normal" font-weight="normal" text-decoration="normal" x="323" y="31" text-anchor="start" dominant-baseline="alphabetic" stroke-opacity="1" stroke-linejoin="bevel" stroke-miterlimit="10" stroke-width="3">R</text><text fill="rgb(0,0,255)" stroke="none" font-family="geogebra-sans-serif, sans-serif" font-size="16px" font-style="normal" font-weight="normal" text-decoration="normal" x="323" y="31" text-anchor="start" dominant-baseline="alphabetic" fill-opacity="1">R</text><path fill="rgb(0,0,255)" stroke="none" paint-order="stroke fill markers" d=" M 356.3252700843106 310.48858505982173 C 356.3252700843106 311.5931545594833 355.4298395839722 312.48858505982173 354.3252700843106 312.48858505982173 C 353.220700584649 312.48858505982173 352.3252700843106 311.5931545594833 352.3252700843106 310.48858505982173 C 352.3252700843106 309.38401556016015 353.220700584649 308.48858505982173 354.3252700843106 308.48858505982173 C 355.4298395839722 308.48858505982173 356.3252700843106 309.38401556016015 356.3252700843106 310.48858505982173 Z" fill-opacity="1"/><path fill="none" stroke="rgb(0,0,0)" paint-order="fill stroke markers" d=" M 356.3252700843106 310.48858505982173 C 356.3252700843106 311.5931545594833 355.4298395839722 312.48858505982173 354.3252700843106 312.48858505982173 C 353.220700584649 312.48858505982173 352.3252700843106 311.5931545594833 352.3252700843106 310.48858505982173 C 352.3252700843106 309.38401556016015 353.220700584649 308.48858505982173 354.3252700843106 308.48858505982173 C 355.4298395839722 308.48858505982173 356.3252700843106 309.38401556016015 356.3252700843106 310.48858505982173 Z" stroke-opacity="1" stroke-linecap="round" stroke-linejoin="round" stroke-miterlimit="10"/><text fill="rgb(0,0,255)" stroke="none" font-family="geogebra-sans-serif, sans-serif" font-size="16px" font-style="normal" font-weight="normal" text-decoration="normal" x="331" y="304" text-anchor="start" dominant-baseline="alphabetic" fill-opacity="1">Y</text><text fill="none" stroke="rgb(255,255,255)" font-family="geogebra-sans-serif, sans-serif" font-size="16px" font-style="normal" font-weight="normal" text-decoration="normal" x="331" y="304" text-anchor="start" dominant-baseline="alphabetic" stroke-opacity="1" stroke-linejoin="bevel" stroke-miterlimit="10" stroke-width="3">Y</text><text fill="rgb(0,0,255)" stroke="none" font-family="geogebra-sans-serif, sans-serif" font-size="16px" font-style="normal" font-weight="normal" text-decoration="normal" x="331" y="304" text-anchor="start" dominant-baseline="alphabetic" fill-opacity="1">Y</text><path fill="rgb(0,0,255)" stroke="none" paint-order="stroke fill markers" d=" M 380.0226555331948 307.0693935162464 C 380.0226555331948 308.173963015908 379.12722503285636 309.0693935162464 378.0226555331948 309.0693935162464 C 376.9180860335332 309.0693935162464 376.0226555331948 308.173963015908 376.0226555331948 307.0693935162464 C 376.0226555331948 305.9648240165848 376.9180860335332 305.0693935162464 378.0226555331948 305.0693935162464 C 379.12722503285636 305.0693935162464 380.0226555331948 305.9648240165848 380.0226555331948 307.0693935162464 Z" fill-opacity="1"/><path fill="none" stroke="rgb(0,0,0)" paint-order="fill stroke markers" d=" M 380.0226555331948 307.0693935162464 C 380.0226555331948 308.173963015908 379.12722503285636 309.0693935162464 378.0226555331948 309.0693935162464 C 376.9180860335332 309.0693935162464 376.0226555331948 308.173963015908 376.0226555331948 307.0693935162464 C 376.0226555331948 305.9648240165848 376.9180860335332 305.0693935162464 378.0226555331948 305.0693935162464 C 379.12722503285636 305.0693935162464 380.0226555331948 305.9648240165848 380.0226555331948 307.0693935162464 Z" stroke-opacity="1" stroke-linecap="round" stroke-linejoin="round" stroke-miterlimit="10"/><text fill="rgb(0,0,255)" stroke="none" font-family="geogebra-sans-serif, sans-serif" font-size="16px" font-style="normal" font-weight="normal" text-decoration="normal" x="364" y="296" text-anchor="start" dominant-baseline="alphabetic" fill-opacity="1">X</text><text fill="none" stroke="rgb(255,255,255)" font-family="geogebra-sans-serif, sans-serif" font-size="16px" font-style="normal" font-weight="normal" text-decoration="normal" x="364" y="296" text-anchor="start" dominant-baseline="alphabetic" stroke-opacity="1" stroke-linejoin="bevel" stroke-miterlimit="10" stroke-width="3">X</text><text fill="rgb(0,0,255)" stroke="none" font-family="geogebra-sans-serif, sans-serif" font-size="16px" font-style="normal" font-weight="normal" text-decoration="normal" x="364" y="296" text-anchor="start" dominant-baseline="alphabetic" fill-opacity="1">X</text></g></g></svg>