<svg version="1.1" xmlns="http://www.w3.org/2000/svg" xmlns:xlink="http://www.w3.org/1999/xlink" width="483" height="168"><defs><clipPath id="AFiekktXMfHx"><path fill="none" stroke="none" d=" M 0 0 L 483 0 L 483 168 L 0 168 L 0 0 Z"/></clipPath></defs><g transform="scale(1,1)" clip-path="url(#AFiekktXMfHx)"><g><rect fill="rgb(255,255,255)" stroke="none" x="0" y="0" width="483" height="168" fill-opacity="1"/><path fill="none" stroke="rgb(0,100,0)" paint-order="fill stroke markers" d=" M 191.5124611797495 58.47507764050053 L 187.48753882024988 66.52492235949977" stroke-opacity="0.6980392156862745" stroke-linecap="round" stroke-linejoin="round" stroke-miterlimit="10"/><path fill="none" stroke="rgb(0,100,0)" paint-order="fill stroke markers" d=" M 139.49999999999972 37.5000000000002 L 239.49999999999966 87.5000000000001" stroke-opacity="0.6980392156862745" stroke-linecap="round" stroke-linejoin="round" stroke-miterlimit="10"/><path fill="none" stroke="rgb(0,100,0)" paint-order="fill stroke markers" d=" M 291.5124611797495 108.47507764050043 L 287.4875388202498 116.52492235949968" stroke-opacity="0.6980392156862745" stroke-linecap="round" stroke-linejoin="round" stroke-miterlimit="10"/><path fill="none" stroke="rgb(0,100,0)" paint-order="fill stroke markers" d=" M 239.49999999999966 87.5000000000001 L 339.49999999999966 137.5" stroke-opacity="0.6980392156862745" stroke-linecap="round" stroke-linejoin="round" stroke-miterlimit="10"/><path fill="none" stroke="rgb(0,100,0)" paint-order="fill stroke markers" d=" M 136.71084031208187 108.55879609315964 L 138.89366093740887 117.29007859446763" stroke-opacity="0.6980392156862745" stroke-linecap="round" stroke-linejoin="round" stroke-miterlimit="10"/><path fill="none" stroke="rgb(0,100,0)" paint-order="fill stroke markers" d=" M 140.1063390625905 107.70992140553248 L 142.2891596879175 116.44120390684047" stroke-opacity="0.6980392156862745" stroke-linecap="round" stroke-linejoin="round" stroke-miterlimit="10"/><path fill="none" stroke="rgb(0,100,0)" paint-order="fill stroke markers" d=" M 39.499999999999716 137.5 L 239.49999999999966 87.5000000000001" stroke-opacity="0.6980392156862745" stroke-linecap="round" stroke-linejoin="round" stroke-miterlimit="10"/><path fill="none" stroke="rgb(0,100,0)" paint-order="fill stroke markers" d=" M 336.7108403120818 58.558796093159735 L 338.89366093740875 67.29007859446773" stroke-opacity="0.6980392156862745" stroke-linecap="round" stroke-linejoin="round" stroke-miterlimit="10"/><path fill="none" stroke="rgb(0,100,0)" paint-order="fill stroke markers" d=" M 340.10633906259045 57.709921405532576 L 342.2891596879174 66.44120390684057" stroke-opacity="0.6980392156862745" stroke-linecap="round" stroke-linejoin="round" stroke-miterlimit="10"/><path fill="none" stroke="rgb(0,100,0)" paint-order="fill stroke markers" d=" M 239.49999999999966 87.5000000000001 L 439.49999999999955 37.5000000000002" stroke-opacity="0.6980392156862745" stroke-linecap="round" stroke-linejoin="round" stroke-miterlimit="10"/><path fill="none" stroke="rgb(0,100,0)" paint-order="fill stroke markers" d=" M 139.49999999999972 37.5000000000002 L 39.499999999999716 137.5" stroke-opacity="0.6980392156862745" stroke-linecap="round" stroke-linejoin="round" stroke-miterlimit="10"/><path fill="none" stroke="rgb(0,100,0)" paint-order="fill stroke markers" d=" M 39.499999999999716 137.5 L 339.49999999999966 137.5" stroke-opacity="0.6980392156862745" stroke-linecap="round" stroke-linejoin="round" stroke-miterlimit="10"/><path fill="none" stroke="rgb(0,100,0)" paint-order="fill stroke markers" d=" M 339.49999999999966 137.5 L 439.49999999999955 37.5000000000002" stroke-opacity="0.6980392156862745" stroke-linecap="round" stroke-linejoin="round" stroke-miterlimit="10"/><path fill="none" stroke="rgb(0,100,0)" paint-order="fill stroke markers" d=" M 439.49999999999955 37.5000000000002 L 139.49999999999972 37.5000000000002" stroke-opacity="0.6980392156862745" stroke-linecap="round" stroke-linejoin="round" stroke-miterlimit="10"/><path fill="none" stroke="rgb(0,100,0)" paint-order="fill stroke markers" d=" M 139.49999999999972 37.5000000000002 L 189.49999999999966 137.5" stroke-opacity="0.6980392156862745" stroke-linecap="round" stroke-linejoin="round" stroke-miterlimit="10"/><path fill="rgb(0,0,255)" stroke="none" paint-order="stroke fill markers" d=" M 41.499999999999716 137.5 C 41.499999999999716 138.60456949966158 40.6045694996613 139.5 39.499999999999716 139.5 C 38.39543050033813 139.5 37.499999999999716 138.60456949966158 37.499999999999716 137.5 C 37.499999999999716 136.39543050033842 38.39543050033813 135.5 39.499999999999716 135.5 C 40.6045694996613 135.5 41.499999999999716 136.39543050033842 41.499999999999716 137.5 Z" fill-opacity="1"/><path fill="none" stroke="rgb(0,0,0)" paint-order="fill stroke markers" d=" M 41.499999999999716 137.5 C 41.499999999999716 138.60456949966158 40.6045694996613 139.5 39.499999999999716 139.5 C 38.39543050033813 139.5 37.499999999999716 138.60456949966158 37.499999999999716 137.5 C 37.499999999999716 136.39543050033842 38.39543050033813 135.5 39.499999999999716 135.5 C 40.6045694996613 135.5 41.499999999999716 136.39543050033842 41.499999999999716 137.5 Z" stroke-opacity="1" stroke-linecap="round" stroke-linejoin="round" stroke-miterlimit="10"/><text fill="rgb(0,0,255)" stroke="none" font-family="geogebra-sans-serif, sans-serif" font-size="16px" font-style="normal" font-weight="normal" text-decoration="normal" x="18" y="159" text-anchor="start" dominant-baseline="alphabetic" fill-opacity="1">A</text><text fill="none" stroke="rgb(255,255,255)" font-family="geogebra-sans-serif, sans-serif" font-size="16px" font-style="normal" font-weight="normal" text-decoration="normal" x="18" y="159" text-anchor="start" dominant-baseline="alphabetic" stroke-opacity="1" stroke-linejoin="bevel" stroke-miterlimit="10" stroke-width="3">A</text><text fill="rgb(0,0,255)" stroke="none" font-family="geogebra-sans-serif, sans-serif" font-size="16px" font-style="normal" font-weight="normal" text-decoration="normal" x="18" y="159" text-anchor="start" dominant-baseline="alphabetic" fill-opacity="1">A</text><path fill="rgb(0,0,255)" stroke="none" paint-order="stroke fill markers" d=" M 241.49999999999966 87.5000000000001 C 241.49999999999966 88.6045694996617 240.60456949966124 89.5000000000001 239.49999999999966 89.5000000000001 C 238.39543050033808 89.5000000000001 237.49999999999966 88.6045694996617 237.49999999999966 87.5000000000001 C 237.49999999999966 86.3954305003385 238.39543050033808 85.5000000000001 239.49999999999966 85.5000000000001 C 240.60456949966124 85.5000000000001 241.49999999999966 86.3954305003385 241.49999999999966 87.5000000000001 Z" fill-opacity="1"/><path fill="none" stroke="rgb(0,0,0)" paint-order="fill stroke markers" d=" M 241.49999999999966 87.5000000000001 C 241.49999999999966 88.6045694996617 240.60456949966124 89.5000000000001 239.49999999999966 89.5000000000001 C 238.39543050033808 89.5000000000001 237.49999999999966 88.6045694996617 237.49999999999966 87.5000000000001 C 237.49999999999966 86.3954305003385 238.39543050033808 85.5000000000001 239.49999999999966 85.5000000000001 C 240.60456949966124 85.5000000000001 241.49999999999966 86.3954305003385 241.49999999999966 87.5000000000001 Z" stroke-opacity="1" stroke-linecap="round" stroke-linejoin="round" stroke-miterlimit="10"/><text fill="rgb(0,0,255)" stroke="none" font-family="geogebra-sans-serif, sans-serif" font-size="16px" font-style="normal" font-weight="normal" text-decoration="normal" x="243" y="74" text-anchor="start" dominant-baseline="alphabetic" fill-opacity="1">O'</text><text fill="none" stroke="rgb(255,255,255)" font-family="geogebra-sans-serif, sans-serif" font-size="16px" font-style="normal" font-weight="normal" text-decoration="normal" x="243" y="74" text-anchor="start" dominant-baseline="alphabetic" stroke-opacity="1" stroke-linejoin="bevel" stroke-miterlimit="10" stroke-width="3">O'</text><text fill="rgb(0,0,255)" stroke="none" font-family="geogebra-sans-serif, sans-serif" font-size="16px" font-style="normal" font-weight="normal" text-decoration="normal" x="243" y="74" text-anchor="start" dominant-baseline="alphabetic" fill-opacity="1">O'</text><path fill="rgb(0,0,255)" stroke="none" paint-order="stroke fill markers" d=" M 191.49999999999966 137.5 C 191.49999999999966 138.60456949966158 190.60456949966124 139.5 189.49999999999966 139.5 C 188.39543050033808 139.5 187.49999999999966 138.60456949966158 187.49999999999966 137.5 C 187.49999999999966 136.39543050033842 188.39543050033808 135.5 189.49999999999966 135.5 C 190.60456949966124 135.5 191.49999999999966 136.39543050033842 191.49999999999966 137.5 Z" fill-opacity="1"/><path fill="none" stroke="rgb(0,0,0)" paint-order="fill stroke markers" d=" M 191.49999999999966 137.5 C 191.49999999999966 138.60456949966158 190.60456949966124 139.5 189.49999999999966 139.5 C 188.39543050033808 139.5 187.49999999999966 138.60456949966158 187.49999999999966 137.5 C 187.49999999999966 136.39543050033842 188.39543050033808 135.5 189.49999999999966 135.5 C 190.60456949966124 135.5 191.49999999999966 136.39543050033842 191.49999999999966 137.5 Z" stroke-opacity="1" stroke-linecap="round" stroke-linejoin="round" stroke-miterlimit="10"/><text fill="rgb(0,0,255)" stroke="none" font-family="geogebra-sans-serif, sans-serif" font-size="16px" font-style="normal" font-weight="normal" text-decoration="normal" x="198" y="156" text-anchor="start" dominant-baseline="alphabetic" fill-opacity="1">O</text><text fill="none" stroke="rgb(255,255,255)" font-family="geogebra-sans-serif, sans-serif" font-size="16px" font-style="normal" font-weight="normal" text-decoration="normal" x="198" y="156" text-anchor="start" dominant-baseline="alphabetic" stroke-opacity="1" stroke-linejoin="bevel" stroke-miterlimit="10" stroke-width="3">O</text><text fill="rgb(0,0,255)" stroke="none" font-family="geogebra-sans-serif, sans-serif" font-size="16px" font-style="normal" font-weight="normal" text-decoration="normal" x="198" y="156" text-anchor="start" dominant-baseline="alphabetic" fill-opacity="1">O</text><path fill="rgb(0,0,255)" stroke="none" paint-order="stroke fill markers" d=" M 441.49999999999955 37.5000000000002 C 441.49999999999955 38.604569499661785 440.6045694996611 39.5000000000002 439.49999999999955 39.5000000000002 C 438.39543050033797 39.5000000000002 437.49999999999955 38.604569499661785 437.49999999999955 37.5000000000002 C 437.49999999999955 36.39543050033861 438.39543050033797 35.5000000000002 439.49999999999955 35.5000000000002 C 440.6045694996611 35.5000000000002 441.49999999999955 36.39543050033861 441.49999999999955 37.5000000000002 Z" fill-opacity="1"/><path fill="none" stroke="rgb(0,0,0)" paint-order="fill stroke markers" d=" M 441.49999999999955 37.5000000000002 C 441.49999999999955 38.604569499661785 440.6045694996611 39.5000000000002 439.49999999999955 39.5000000000002 C 438.39543050033797 39.5000000000002 437.49999999999955 38.604569499661785 437.49999999999955 37.5000000000002 C 437.49999999999955 36.39543050033861 438.39543050033797 35.5000000000002 439.49999999999955 35.5000000000002 C 440.6045694996611 35.5000000000002 441.49999999999955 36.39543050033861 441.49999999999955 37.5000000000002 Z" stroke-opacity="1" stroke-linecap="round" stroke-linejoin="round" stroke-miterlimit="10"/><text fill="rgb(0,0,255)" stroke="none" font-family="geogebra-sans-serif, sans-serif" font-size="16px" font-style="normal" font-weight="normal" text-decoration="normal" x="445" y="29" text-anchor="start" dominant-baseline="alphabetic" fill-opacity="1">A'</text><text fill="none" stroke="rgb(255,255,255)" font-family="geogebra-sans-serif, sans-serif" font-size="16px" font-style="normal" font-weight="normal" text-decoration="normal" x="445" y="29" text-anchor="start" dominant-baseline="alphabetic" stroke-opacity="1" stroke-linejoin="bevel" stroke-miterlimit="10" stroke-width="3">A'</text><text fill="rgb(0,0,255)" stroke="none" font-family="geogebra-sans-serif, sans-serif" font-size="16px" font-style="normal" font-weight="normal" text-decoration="normal" x="445" y="29" text-anchor="start" dominant-baseline="alphabetic" fill-opacity="1">A'</text><path fill="rgb(0,0,255)" stroke="none" paint-order="stroke fill markers" d=" M 341.49999999999966 137.5 C 341.49999999999966 138.60456949966158 340.60456949966124 139.5 339.49999999999966 139.5 C 338.3954305003381 139.5 337.49999999999966 138.60456949966158 337.49999999999966 137.5 C 337.49999999999966 136.39543050033842 338.3954305003381 135.5 339.49999999999966 135.5 C 340.60456949966124 135.5 341.49999999999966 136.39543050033842 341.49999999999966 137.5 Z" fill-opacity="1"/><path fill="none" stroke="rgb(0,0,0)" paint-order="fill stroke markers" d=" M 341.49999999999966 137.5 C 341.49999999999966 138.60456949966158 340.60456949966124 139.5 339.49999999999966 139.5 C 338.3954305003381 139.5 337.49999999999966 138.60456949966158 337.49999999999966 137.5 C 337.49999999999966 136.39543050033842 338.3954305003381 135.5 339.49999999999966 135.5 C 340.60456949966124 135.5 341.49999999999966 136.39543050033842 341.49999999999966 137.5 Z" stroke-opacity="1" stroke-linecap="round" stroke-linejoin="round" stroke-miterlimit="10"/><text fill="rgb(0,0,255)" stroke="none" font-family="geogebra-sans-serif, sans-serif" font-size="16px" font-style="normal" font-weight="normal" text-decoration="normal" x="343" y="157" text-anchor="start" dominant-baseline="alphabetic" fill-opacity="1">B</text><text fill="none" stroke="rgb(255,255,255)" font-family="geogebra-sans-serif, sans-serif" font-size="16px" font-style="normal" font-weight="normal" text-decoration="normal" x="343" y="157" text-anchor="start" dominant-baseline="alphabetic" stroke-opacity="1" stroke-linejoin="bevel" stroke-miterlimit="10" stroke-width="3">B</text><text fill="rgb(0,0,255)" stroke="none" font-family="geogebra-sans-serif, sans-serif" font-size="16px" font-style="normal" font-weight="normal" text-decoration="normal" x="343" y="157" text-anchor="start" dominant-baseline="alphabetic" fill-opacity="1">B</text><path fill="rgb(0,0,255)" stroke="none" paint-order="stroke fill markers" d=" M 141.49999999999972 37.5000000000002 C 141.49999999999972 38.604569499661785 140.6045694996613 39.5000000000002 139.49999999999972 39.5000000000002 C 138.39543050033814 39.5000000000002 137.49999999999972 38.604569499661785 137.49999999999972 37.5000000000002 C 137.49999999999972 36.39543050033861 138.39543050033814 35.5000000000002 139.49999999999972 35.5000000000002 C 140.6045694996613 35.5000000000002 141.49999999999972 36.39543050033861 141.49999999999972 37.5000000000002 Z" fill-opacity="1"/><path fill="none" stroke="rgb(0,0,0)" paint-order="fill stroke markers" d=" M 141.49999999999972 37.5000000000002 C 141.49999999999972 38.604569499661785 140.6045694996613 39.5000000000002 139.49999999999972 39.5000000000002 C 138.39543050033814 39.5000000000002 137.49999999999972 38.604569499661785 137.49999999999972 37.5000000000002 C 137.49999999999972 36.39543050033861 138.39543050033814 35.5000000000002 139.49999999999972 35.5000000000002 C 140.6045694996613 35.5000000000002 141.49999999999972 36.39543050033861 141.49999999999972 37.5000000000002 Z" stroke-opacity="1" stroke-linecap="round" stroke-linejoin="round" stroke-miterlimit="10"/><text fill="rgb(0,0,255)" stroke="none" font-family="geogebra-sans-serif, sans-serif" font-size="16px" font-style="normal" font-weight="normal" text-decoration="normal" x="123" y="28" text-anchor="start" dominant-baseline="alphabetic" fill-opacity="1">B'</text><text fill="none" stroke="rgb(255,255,255)" font-family="geogebra-sans-serif, sans-serif" font-size="16px" font-style="normal" font-weight="normal" text-decoration="normal" x="123" y="28" text-anchor="start" dominant-baseline="alphabetic" stroke-opacity="1" stroke-linejoin="bevel" stroke-miterlimit="10" stroke-width="3">B'</text><text fill="rgb(0,0,255)" stroke="none" font-family="geogebra-sans-serif, sans-serif" font-size="16px" font-style="normal" font-weight="normal" text-decoration="normal" x="123" y="28" text-anchor="start" dominant-baseline="alphabetic" fill-opacity="1">B'</text></g></g></svg>