<svg version="1.1" xmlns="http://www.w3.org/2000/svg" xmlns:xlink="http://www.w3.org/1999/xlink" width="350" height="334"><defs><clipPath id="UPNGtHfiGsdR"><path fill="none" stroke="none" d=" M 0 0 L 350 0 L 350 334 L 0 334 L 0 0 Z"/></clipPath></defs><g transform="scale(1,1)" clip-path="url(#UPNGtHfiGsdR)"><g><rect fill="rgb(255,255,255)" stroke="none" x="0" y="0" width="350" height="334" fill-opacity="1"/><path fill="rgb(204,0,0)" stroke="none" paint-order="stroke fill markers" fill-rule="evenodd" d=" M 219.9897471780804 193.17224839567737 L 208.02540224279952 185.63205938812644 L 200.48521323524727 197.59640432340763 L 212.44955817052946 205.13659333095825 L 219.9897471780804 193.17224839567737" fill-opacity="0.09803921568627451"/><path fill="none" stroke="rgb(204,0,0)" paint-order="fill stroke markers" d=" M 219.9897471780804 193.17224839567737 L 208.02540224279952 185.63205938812644 L 200.48521323524727 197.59640432340763 L 212.44955817052946 205.13659333095825 L 219.9897471780804 193.17224839567737" stroke-opacity="0.6980392156862745" stroke-linecap="round" stroke-linejoin="round" stroke-miterlimit="10" stroke-width="0.5"/><path fill="rgb(204,0,0)" stroke="none" paint-order="stroke fill markers" fill-rule="evenodd" d=" M 144.9897471780804 93.17224839567729 L 145.38213051037005 107.30893949793011 L 159.51882161262384 106.91655616564138 L 159.12643828033322 92.77986506338763 L 144.9897471780804 93.17224839567729" fill-opacity="0.09803921568627451"/><path fill="none" stroke="rgb(204,0,0)" paint-order="fill stroke markers" d=" M 144.9897471780804 93.17224839567729 L 145.38213051037005 107.30893949793011 L 159.51882161262384 106.91655616564138 L 159.12643828033322 92.77986506338763 L 144.9897471780804 93.17224839567729" stroke-opacity="0.6980392156862745" stroke-linecap="round" stroke-linejoin="round" stroke-miterlimit="10" stroke-width="0.5"/><path fill="rgb(204,0,0)" stroke="none" paint-order="stroke fill markers" fill-rule="evenodd" d=" M 94.98974717808026 168.17224839567734 L 108.05537682684316 162.76028739421574 L 102.64341582538205 149.69465774545162 L 89.57778617661866 155.10661874691448 L 94.98974717808026 168.17224839567734" fill-opacity="0.09803921568627451"/><path fill="none" stroke="rgb(204,0,0)" paint-order="fill stroke markers" d=" M 94.98974717808026 168.17224839567734 L 108.05537682684316 162.76028739421574 L 102.64341582538205 149.69465774545162 L 89.57778617661866 155.10661874691448 L 94.98974717808026 168.17224839567734" stroke-opacity="0.6980392156862745" stroke-linecap="round" stroke-linejoin="round" stroke-miterlimit="10" stroke-width="0.5"/><path fill="none" stroke="rgb(153,51,255)" paint-order="fill stroke markers" d=" M 106.77933440885553 71.11646794692268 L 101.56582337953878 63.78030391200684" stroke-opacity="0.6980392156862745" stroke-linecap="round" stroke-linejoin="round" stroke-miterlimit="10"/><path fill="none" stroke="rgb(153,51,255)" paint-order="fill stroke markers" d=" M 143.5 39.49999999999994 L 64.84515778839433 95.39677185892958" stroke-opacity="0.6980392156862745" stroke-linecap="round" stroke-linejoin="round" stroke-miterlimit="10"/><path fill="none" stroke="rgb(153,51,255)" paint-order="fill stroke markers" d=" M 58.56109903133455 143.4438210132041 L 49.784058757059654 141.4529508457255" stroke-opacity="0.6980392156862745" stroke-linecap="round" stroke-linejoin="round" stroke-miterlimit="10"/><path fill="none" stroke="rgb(153,51,255)" paint-order="fill stroke markers" d=" M 64.84515778839433 95.39677185892958 L 43.49999999999987 189.5" stroke-opacity="0.6980392156862745" stroke-linecap="round" stroke-linejoin="round" stroke-miterlimit="10"/><path fill="none" stroke="rgb(0,100,0)" paint-order="fill stroke markers" d=" M 99.2224763051651 241.85592930241185 L 92.68439280962055 248.04086779889568" stroke-opacity="0.6980392156862745" stroke-linecap="round" stroke-linejoin="round" stroke-miterlimit="10"/><path fill="none" stroke="rgb(0,100,0)" paint-order="fill stroke markers" d=" M 101.62773016490881 244.39851732845696 L 95.08964666936426 250.58345582494078" stroke-opacity="0.6980392156862745" stroke-linecap="round" stroke-linejoin="round" stroke-miterlimit="10"/><path fill="none" stroke="rgb(0,100,0)" paint-order="fill stroke markers" d=" M 43.49999999999987 189.5 L 150.81212297452947 302.93938512735264" stroke-opacity="0.6980392156862745" stroke-linecap="round" stroke-linejoin="round" stroke-miterlimit="10"/><path fill="none" stroke="rgb(0,100,0)" paint-order="fill stroke markers" d=" M 218.72881933683152 267.81873516284145 L 222.38515083407117 276.0425566578822" stroke-opacity="0.6980392156862745" stroke-linecap="round" stroke-linejoin="round" stroke-miterlimit="10"/><path fill="none" stroke="rgb(0,100,0)" paint-order="fill stroke markers" d=" M 221.92697214045847 266.3968284694705 L 225.58330363769812 274.62064996451124" stroke-opacity="0.6980392156862745" stroke-linecap="round" stroke-linejoin="round" stroke-miterlimit="10"/><path fill="none" stroke="rgb(0,100,0)" paint-order="fill stroke markers" d=" M 150.81212297452947 302.93938512735264 L 293.50000000000017 239.50000000000003" stroke-opacity="0.6980392156862745" stroke-linecap="round" stroke-linejoin="round" stroke-miterlimit="10"/><path fill="none" stroke="rgb(244,0,153)" paint-order="fill stroke markers" d=" M 285.17788603698295 168.12174746361762 L 294.16505395909724 167.64131771878561" stroke-opacity="0.6980392156862745" stroke-linecap="round" stroke-linejoin="round" stroke-miterlimit="10"/><path fill="none" stroke="rgb(244,0,153)" paint-order="fill stroke markers" d=" M 284.9910522473261 164.62673771612873 L 293.97822016944036 164.14630797129672" stroke-opacity="0.6980392156862745" stroke-linecap="round" stroke-linejoin="round" stroke-miterlimit="10"/><path fill="none" stroke="rgb(244,0,153)" paint-order="fill stroke markers" d=" M 284.8042184576692 161.13172796863984 L 293.7913863797835 160.65129822380783" stroke-opacity="0.6980392156862745" stroke-linecap="round" stroke-linejoin="round" stroke-miterlimit="10"/><path fill="none" stroke="rgb(244,0,153)" paint-order="fill stroke markers" d=" M 293.50000000000017 239.50000000000003 L 285.4692724167662 89.27304568742542" stroke-opacity="0.6980392156862745" stroke-linecap="round" stroke-linejoin="round" stroke-miterlimit="10"/><path fill="none" stroke="rgb(244,0,153)" paint-order="fill stroke markers" d=" M 216.29872231825314 69.7910664494186 L 219.2763418914839 61.2979055727418" stroke-opacity="0.6980392156862745" stroke-linecap="round" stroke-linejoin="round" stroke-miterlimit="10"/><path fill="none" stroke="rgb(244,0,153)" paint-order="fill stroke markers" d=" M 212.99582642176773 68.63310328205108 L 215.97344599499849 60.139942405374285" stroke-opacity="0.6980392156862745" stroke-linecap="round" stroke-linejoin="round" stroke-miterlimit="10"/><path fill="none" stroke="rgb(244,0,153)" paint-order="fill stroke markers" d=" M 209.69293052528232 67.47514011468357 L 212.67055009851308 58.98197923800679" stroke-opacity="0.6980392156862745" stroke-linecap="round" stroke-linejoin="round" stroke-miterlimit="10"/><path fill="none" stroke="rgb(244,0,153)" paint-order="fill stroke markers" d=" M 285.4692724167662 89.27304568742542 L 143.5 39.49999999999994" stroke-opacity="0.6980392156862745" stroke-linecap="round" stroke-linejoin="round" stroke-miterlimit="10"/><path fill="none" stroke="rgb(102,102,102)" paint-order="fill stroke markers" d=" M 43.49999999999987 189.5 L 143.5 39.49999999999994" stroke-opacity="0.6980392156862745" stroke-linejoin="round" stroke-miterlimit="10" stroke-dasharray="5,4"/><path fill="none" stroke="rgb(102,102,102)" paint-order="fill stroke markers" d=" M 293.50000000000017 239.50000000000003 L 143.5 39.49999999999994" stroke-opacity="0.6980392156862745" stroke-linejoin="round" stroke-miterlimit="10" stroke-dasharray="5,4"/><path fill="none" stroke="rgb(102,102,102)" paint-order="fill stroke markers" d=" M 43.49999999999987 189.5 L 293.50000000000017 239.50000000000003" stroke-opacity="0.6980392156862745" stroke-linejoin="round" stroke-miterlimit="10" stroke-dasharray="5,4"/><path fill="none" stroke="rgb(102,102,102)" paint-order="fill stroke markers" d=" M 64.84515778839433 95.39677185892958 L 285.4692724167662 89.27304568742542" stroke-opacity="0.6980392156862745" stroke-linejoin="round" stroke-miterlimit="10" stroke-dasharray="9,8"/><path fill="none" stroke="rgb(102,102,102)" paint-order="fill stroke markers" d=" M 285.4692724167662 89.27304568742542 L 150.81212297452947 302.93938512735264" stroke-opacity="0.6980392156862745" stroke-linejoin="round" stroke-miterlimit="10" stroke-dasharray="9,8"/><path fill="none" stroke="rgb(102,102,102)" paint-order="fill stroke markers" d=" M 150.81212297452947 302.93938512735264 L 64.84515778839433 95.39677185892958" stroke-opacity="0.6980392156862745" stroke-linejoin="round" stroke-miterlimit="10" stroke-dasharray="9,8"/><path fill="none" stroke="rgb(102,102,102)" paint-order="fill stroke markers" d=" M 143.5 39.49999999999994 L 144.98974717808028 93.17224839567729" stroke-opacity="0.6980392156862745" stroke-linejoin="round" stroke-miterlimit="10" stroke-dasharray="5,4"/><path fill="none" stroke="rgb(102,102,102)" paint-order="fill stroke markers" d=" M 293.50000000000017 239.50000000000003 L 219.98974717808045 193.17224839567734" stroke-opacity="0.6980392156862745" stroke-linejoin="round" stroke-miterlimit="10" stroke-dasharray="5,4"/><path fill="none" stroke="rgb(102,102,102)" paint-order="fill stroke markers" d=" M 43.49999999999987 189.5 L 94.98974717808021 168.17224839567734" stroke-opacity="0.6980392156862745" stroke-linejoin="round" stroke-miterlimit="10" stroke-dasharray="5,4"/><path fill="none" stroke="rgb(102,102,102)" paint-order="fill stroke markers" d=" M 94.98974717808021 168.17224839567734 L 146.47949435616056 146.84449679135471" stroke-opacity="0.6980392156862745" stroke-linejoin="round" stroke-miterlimit="10" stroke-dasharray="5,4"/><path fill="none" stroke="rgb(102,102,102)" paint-order="fill stroke markers" d=" M 219.98974717808045 193.17224839567734 L 146.47949435616056 146.84449679135471" stroke-opacity="0.6980392156862745" stroke-linejoin="round" stroke-miterlimit="10" stroke-dasharray="5,4"/><path fill="none" stroke="rgb(102,102,102)" paint-order="fill stroke markers" d=" M 144.98974717808028 93.17224839567729 L 146.47949435616056 146.84449679135471" stroke-opacity="0.6980392156862745" stroke-linejoin="round" stroke-miterlimit="10" stroke-dasharray="5,4"/><path fill="rgb(0,0,255)" stroke="none" paint-order="stroke fill markers" d=" M 145.5 39.49999999999994 C 145.5 40.60456949966153 144.60456949966158 41.49999999999994 143.5 41.49999999999994 C 142.39543050033842 41.49999999999994 141.5 40.60456949966153 141.5 39.49999999999994 C 141.5 38.39543050033836 142.39543050033842 37.49999999999994 143.5 37.49999999999994 C 144.60456949966158 37.49999999999994 145.5 38.39543050033836 145.5 39.49999999999994 Z" fill-opacity="1"/><path fill="none" stroke="rgb(0,0,0)" paint-order="fill stroke markers" d=" M 145.5 39.49999999999994 C 145.5 40.60456949966153 144.60456949966158 41.49999999999994 143.5 41.49999999999994 C 142.39543050033842 41.49999999999994 141.5 40.60456949966153 141.5 39.49999999999994 C 141.5 38.39543050033836 142.39543050033842 37.49999999999994 143.5 37.49999999999994 C 144.60456949966158 37.49999999999994 145.5 38.39543050033836 145.5 39.49999999999994 Z" stroke-opacity="1" stroke-linecap="round" stroke-linejoin="round" stroke-miterlimit="10"/><text fill="rgb(0,0,255)" stroke="none" font-family="geogebra-sans-serif, sans-serif" font-size="16px" font-style="normal" font-weight="normal" text-decoration="normal" x="153" y="33" text-anchor="start" dominant-baseline="alphabetic" fill-opacity="1">A</text><text fill="none" stroke="rgb(255,255,255)" font-family="geogebra-sans-serif, sans-serif" font-size="16px" font-style="normal" font-weight="normal" text-decoration="normal" x="153" y="33" text-anchor="start" dominant-baseline="alphabetic" stroke-opacity="1" stroke-linejoin="bevel" stroke-miterlimit="10" stroke-width="3">A</text><text fill="rgb(0,0,255)" stroke="none" font-family="geogebra-sans-serif, sans-serif" font-size="16px" font-style="normal" font-weight="normal" text-decoration="normal" x="153" y="33" text-anchor="start" dominant-baseline="alphabetic" fill-opacity="1">A</text><path fill="rgb(0,0,255)" stroke="none" paint-order="stroke fill markers" d=" M 45.49999999999987 189.5 C 45.49999999999987 190.60456949966158 44.60456949966146 191.5 43.49999999999987 191.5 C 42.395430500338286 191.5 41.49999999999987 190.60456949966158 41.49999999999987 189.5 C 41.49999999999987 188.39543050033842 42.395430500338286 187.5 43.49999999999987 187.5 C 44.60456949966146 187.5 45.49999999999987 188.39543050033842 45.49999999999987 189.5 Z" fill-opacity="1"/><path fill="none" stroke="rgb(0,0,0)" paint-order="fill stroke markers" d=" M 45.49999999999987 189.5 C 45.49999999999987 190.60456949966158 44.60456949966146 191.5 43.49999999999987 191.5 C 42.395430500338286 191.5 41.49999999999987 190.60456949966158 41.49999999999987 189.5 C 41.49999999999987 188.39543050033842 42.395430500338286 187.5 43.49999999999987 187.5 C 44.60456949966146 187.5 45.49999999999987 188.39543050033842 45.49999999999987 189.5 Z" stroke-opacity="1" stroke-linecap="round" stroke-linejoin="round" stroke-miterlimit="10"/><text fill="rgb(0,0,255)" stroke="none" font-family="geogebra-sans-serif, sans-serif" font-size="16px" font-style="normal" font-weight="normal" text-decoration="normal" x="23" y="204" text-anchor="start" dominant-baseline="alphabetic" fill-opacity="1">C</text><text fill="none" stroke="rgb(255,255,255)" font-family="geogebra-sans-serif, sans-serif" font-size="16px" font-style="normal" font-weight="normal" text-decoration="normal" x="23" y="204" text-anchor="start" dominant-baseline="alphabetic" stroke-opacity="1" stroke-linejoin="bevel" stroke-miterlimit="10" stroke-width="3">C</text><text fill="rgb(0,0,255)" stroke="none" font-family="geogebra-sans-serif, sans-serif" font-size="16px" font-style="normal" font-weight="normal" text-decoration="normal" x="23" y="204" text-anchor="start" dominant-baseline="alphabetic" fill-opacity="1">C</text><path fill="rgb(0,0,255)" stroke="none" paint-order="stroke fill markers" d=" M 295.50000000000017 239.50000000000003 C 295.50000000000017 240.6045694996616 294.60456949966175 241.50000000000003 293.50000000000017 241.50000000000003 C 292.3954305003386 241.50000000000003 291.50000000000017 240.6045694996616 291.50000000000017 239.50000000000003 C 291.50000000000017 238.39543050033845 292.3954305003386 237.50000000000003 293.50000000000017 237.50000000000003 C 294.60456949966175 237.50000000000003 295.50000000000017 238.39543050033845 295.50000000000017 239.50000000000003 Z" fill-opacity="1"/><path fill="none" stroke="rgb(0,0,0)" paint-order="fill stroke markers" d=" M 295.50000000000017 239.50000000000003 C 295.50000000000017 240.6045694996616 294.60456949966175 241.50000000000003 293.50000000000017 241.50000000000003 C 292.3954305003386 241.50000000000003 291.50000000000017 240.6045694996616 291.50000000000017 239.50000000000003 C 291.50000000000017 238.39543050033845 292.3954305003386 237.50000000000003 293.50000000000017 237.50000000000003 C 294.60456949966175 237.50000000000003 295.50000000000017 238.39543050033845 295.50000000000017 239.50000000000003 Z" stroke-opacity="1" stroke-linecap="round" stroke-linejoin="round" stroke-miterlimit="10"/><text fill="rgb(0,0,255)" stroke="none" font-family="geogebra-sans-serif, sans-serif" font-size="16px" font-style="normal" font-weight="normal" text-decoration="normal" x="303" y="257" text-anchor="start" dominant-baseline="alphabetic" fill-opacity="1">B</text><text fill="none" stroke="rgb(255,255,255)" font-family="geogebra-sans-serif, sans-serif" font-size="16px" font-style="normal" font-weight="normal" text-decoration="normal" x="303" y="257" text-anchor="start" dominant-baseline="alphabetic" stroke-opacity="1" stroke-linejoin="bevel" stroke-miterlimit="10" stroke-width="3">B</text><text fill="rgb(0,0,255)" stroke="none" font-family="geogebra-sans-serif, sans-serif" font-size="16px" font-style="normal" font-weight="normal" text-decoration="normal" x="303" y="257" text-anchor="start" dominant-baseline="alphabetic" fill-opacity="1">B</text><path fill="rgb(0,0,255)" stroke="none" paint-order="stroke fill markers" d=" M 66.84515778839433 95.39677185892958 C 66.84515778839433 96.50134135859116 65.94972728805593 97.39677185892958 64.84515778839433 97.39677185892958 C 63.740588288732745 97.39677185892958 62.84515778839433 96.50134135859116 62.84515778839433 95.39677185892958 C 62.84515778839433 94.29220235926799 63.740588288732745 93.39677185892958 64.84515778839433 93.39677185892958 C 65.94972728805593 93.39677185892958 66.84515778839433 94.29220235926799 66.84515778839433 95.39677185892958 Z" fill-opacity="1"/><path fill="none" stroke="rgb(0,0,0)" paint-order="fill stroke markers" d=" M 66.84515778839433 95.39677185892958 C 66.84515778839433 96.50134135859116 65.94972728805593 97.39677185892958 64.84515778839433 97.39677185892958 C 63.740588288732745 97.39677185892958 62.84515778839433 96.50134135859116 62.84515778839433 95.39677185892958 C 62.84515778839433 94.29220235926799 63.740588288732745 93.39677185892958 64.84515778839433 93.39677185892958 C 65.94972728805593 93.39677185892958 66.84515778839433 94.29220235926799 66.84515778839433 95.39677185892958 Z" stroke-opacity="1" stroke-linecap="round" stroke-linejoin="round" stroke-miterlimit="10"/><text fill="rgb(0,0,255)" stroke="none" font-family="geogebra-sans-serif, sans-serif" font-size="16px" font-style="normal" font-weight="normal" text-decoration="normal" x="45" y="84" text-anchor="start" dominant-baseline="alphabetic" fill-opacity="1">E</text><text fill="none" stroke="rgb(255,255,255)" font-family="geogebra-sans-serif, sans-serif" font-size="16px" font-style="normal" font-weight="normal" text-decoration="normal" x="45" y="84" text-anchor="start" dominant-baseline="alphabetic" stroke-opacity="1" stroke-linejoin="bevel" stroke-miterlimit="10" stroke-width="3">E</text><text fill="rgb(0,0,255)" stroke="none" font-family="geogebra-sans-serif, sans-serif" font-size="16px" font-style="normal" font-weight="normal" text-decoration="normal" x="45" y="84" text-anchor="start" dominant-baseline="alphabetic" fill-opacity="1">E</text><path fill="rgb(0,0,255)" stroke="none" paint-order="stroke fill markers" d=" M 152.81212297452947 302.93938512735264 C 152.81212297452947 304.0439546270142 151.91669247419105 304.93938512735264 150.81212297452947 304.93938512735264 C 149.7075534748679 304.93938512735264 148.81212297452947 304.0439546270142 148.81212297452947 302.93938512735264 C 148.81212297452947 301.83481562769106 149.7075534748679 300.93938512735264 150.81212297452947 300.93938512735264 C 151.91669247419105 300.93938512735264 152.81212297452947 301.83481562769106 152.81212297452947 302.93938512735264 Z" fill-opacity="1"/><path fill="none" stroke="rgb(0,0,0)" paint-order="fill stroke markers" d=" M 152.81212297452947 302.93938512735264 C 152.81212297452947 304.0439546270142 151.91669247419105 304.93938512735264 150.81212297452947 304.93938512735264 C 149.7075534748679 304.93938512735264 148.81212297452947 304.0439546270142 148.81212297452947 302.93938512735264 C 148.81212297452947 301.83481562769106 149.7075534748679 300.93938512735264 150.81212297452947 300.93938512735264 C 151.91669247419105 300.93938512735264 152.81212297452947 301.83481562769106 152.81212297452947 302.93938512735264 Z" stroke-opacity="1" stroke-linecap="round" stroke-linejoin="round" stroke-miterlimit="10"/><text fill="rgb(0,0,255)" stroke="none" font-family="geogebra-sans-serif, sans-serif" font-size="16px" font-style="normal" font-weight="normal" text-decoration="normal" x="124" y="312" text-anchor="start" dominant-baseline="alphabetic" fill-opacity="1">D</text><text fill="none" stroke="rgb(255,255,255)" font-family="geogebra-sans-serif, sans-serif" font-size="16px" font-style="normal" font-weight="normal" text-decoration="normal" x="124" y="312" text-anchor="start" dominant-baseline="alphabetic" stroke-opacity="1" stroke-linejoin="bevel" stroke-miterlimit="10" stroke-width="3">D</text><text fill="rgb(0,0,255)" stroke="none" font-family="geogebra-sans-serif, sans-serif" font-size="16px" font-style="normal" font-weight="normal" text-decoration="normal" x="124" y="312" text-anchor="start" dominant-baseline="alphabetic" fill-opacity="1">D</text><path fill="rgb(0,0,255)" stroke="none" paint-order="stroke fill markers" d=" M 287.4692724167662 89.27304568742542 C 287.4692724167662 90.377615187087 286.5738419164278 91.27304568742542 285.4692724167662 91.27304568742542 C 284.36470291710464 91.27304568742542 283.4692724167662 90.377615187087 283.4692724167662 89.27304568742542 C 283.4692724167662 88.16847618776383 284.36470291710464 87.27304568742542 285.4692724167662 87.27304568742542 C 286.5738419164278 87.27304568742542 287.4692724167662 88.16847618776383 287.4692724167662 89.27304568742542 Z" fill-opacity="1"/><path fill="none" stroke="rgb(0,0,0)" paint-order="fill stroke markers" d=" M 287.4692724167662 89.27304568742542 C 287.4692724167662 90.377615187087 286.5738419164278 91.27304568742542 285.4692724167662 91.27304568742542 C 284.36470291710464 91.27304568742542 283.4692724167662 90.377615187087 283.4692724167662 89.27304568742542 C 283.4692724167662 88.16847618776383 284.36470291710464 87.27304568742542 285.4692724167662 87.27304568742542 C 286.5738419164278 87.27304568742542 287.4692724167662 88.16847618776383 287.4692724167662 89.27304568742542 Z" stroke-opacity="1" stroke-linecap="round" stroke-linejoin="round" stroke-miterlimit="10"/><text fill="rgb(0,0,255)" stroke="none" font-family="geogebra-sans-serif, sans-serif" font-size="16px" font-style="normal" font-weight="normal" text-decoration="normal" x="295" y="86" text-anchor="start" dominant-baseline="alphabetic" fill-opacity="1">F</text><text fill="none" stroke="rgb(255,255,255)" font-family="geogebra-sans-serif, sans-serif" font-size="16px" font-style="normal" font-weight="normal" text-decoration="normal" x="295" y="86" text-anchor="start" dominant-baseline="alphabetic" stroke-opacity="1" stroke-linejoin="bevel" stroke-miterlimit="10" stroke-width="3">F</text><text fill="rgb(0,0,255)" stroke="none" font-family="geogebra-sans-serif, sans-serif" font-size="16px" font-style="normal" font-weight="normal" text-decoration="normal" x="295" y="86" text-anchor="start" dominant-baseline="alphabetic" fill-opacity="1">F</text></g></g></svg>