<svg version="1.1" xmlns="http://www.w3.org/2000/svg" xmlns:xlink="http://www.w3.org/1999/xlink" width="319" height="298"><defs><clipPath id="NaEueXSBfJSP"><path fill="none" stroke="none" d=" M 0 0 L 319 0 L 319 298 L 0 298 L 0 0 Z"/></clipPath></defs><g transform="scale(1,1)" clip-path="url(#NaEueXSBfJSP)"><g><rect fill="rgb(255,255,255)" stroke="none" x="0" y="0" width="319" height="298" fill-opacity="1"/><path fill="rgb(0,100,0)" stroke="none" paint-order="stroke fill markers" d=" M 117.63249509436886 41.30125735844604 C 126.45186964690308 47.180840393468856 138.02034475555033 46.859741433336836 146.49999999999952 40.49999999999994 L 131.49999999999955 20.499999999999943 Z" fill-opacity="0.09803921568627451"/><path fill="none" stroke="rgb(0,100,0)" paint-order="fill stroke markers" d=" M 117.63249509436886 41.30125735844604 C 126.45186964690308 47.180840393468856 138.02034475555033 46.859741433336836 146.49999999999952 40.49999999999994 L 131.49999999999955 20.499999999999943 Z" stroke-opacity="0.6980392156862745" stroke-linecap="round" stroke-linejoin="round" stroke-miterlimit="10"/><text fill="rgb(0,100,0)" stroke="none" font-family="geogebra-sans-serif, sans-serif" font-size="16px" font-style="normal" font-weight="normal" text-decoration="normal" x="118" y="63" text-anchor="start" dominant-baseline="alphabetic" fill-opacity="1">α</text><text fill="none" stroke="rgb(255,255,255)" font-family="geogebra-sans-serif, sans-serif" font-size="16px" font-style="normal" font-weight="normal" text-decoration="normal" x="118" y="63" text-anchor="start" dominant-baseline="alphabetic" stroke-opacity="1" stroke-linejoin="bevel" stroke-miterlimit="10" stroke-width="3">α</text><text fill="rgb(0,100,0)" stroke="none" font-family="geogebra-sans-serif, sans-serif" font-size="16px" font-style="normal" font-weight="normal" text-decoration="normal" x="118" y="63" text-anchor="start" dominant-baseline="alphabetic" fill-opacity="1">α</text><path fill="rgb(153,51,255)" stroke="none" paint-order="stroke fill markers" d=" M 266.4999999999993 200.50000000000003 C 261.5792652679727 204.19055104902 258.19177745483296 209.56562488601236 256.9854831077263 215.59709662154543 L 281.4999999999992 220.50000000000003 Z" fill-opacity="0.09803921568627451"/><path fill="none" stroke="rgb(153,51,255)" paint-order="fill stroke markers" d=" M 266.4999999999993 200.50000000000003 C 261.5792652679727 204.19055104902 258.19177745483296 209.56562488601236 256.9854831077263 215.59709662154543 L 281.4999999999992 220.50000000000003 Z" stroke-opacity="0.6980392156862745" stroke-linecap="round" stroke-linejoin="round" stroke-miterlimit="10"/><path fill="none" stroke="rgb(153,51,255)" paint-order="fill stroke markers" d=" M 269.4999999999992 204.50000000000006 C 265.563412214378 207.45244083921602 262.85342196386614 211.75249990880988 261.8883864861808 216.57767729723636" stroke-opacity="0.6980392156862745" stroke-linecap="round" stroke-linejoin="round" stroke-miterlimit="10"/><text fill="rgb(153,51,255)" stroke="none" font-family="geogebra-sans-serif, sans-serif" font-size="16px" font-style="normal" font-weight="normal" text-decoration="normal" x="241" y="201" text-anchor="start" dominant-baseline="alphabetic" fill-opacity="1">β</text><text fill="none" stroke="rgb(255,255,255)" font-family="geogebra-sans-serif, sans-serif" font-size="16px" font-style="normal" font-weight="normal" text-decoration="normal" x="241" y="201" text-anchor="start" dominant-baseline="alphabetic" stroke-opacity="1" stroke-linejoin="bevel" stroke-miterlimit="10" stroke-width="3">β</text><text fill="rgb(153,51,255)" stroke="none" font-family="geogebra-sans-serif, sans-serif" font-size="16px" font-style="normal" font-weight="normal" text-decoration="normal" x="241" y="201" text-anchor="start" dominant-baseline="alphabetic" fill-opacity="1">β</text><path fill="rgb(244,0,153)" stroke="none" paint-order="stroke fill markers" d=" M 56.014516892272724 175.40290337845462 C 58.00129042718331 165.4690357039016 53.79667114093397 155.31818679842297 45.367504905630454 149.6987426415539 L 31.499999999999773 170.5 Z" fill-opacity="0.09803921568627451"/><path fill="none" stroke="rgb(244,0,153)" paint-order="fill stroke markers" d=" M 56.014516892272724 175.40290337845462 C 58.00129042718331 165.4690357039016 53.79667114093397 155.31818679842297 45.367504905630454 149.6987426415539 L 31.499999999999773 170.5 Z" stroke-opacity="0.6980392156862745" stroke-linecap="round" stroke-linejoin="round" stroke-miterlimit="10"/><path fill="none" stroke="rgb(244,0,153)" paint-order="fill stroke markers" d=" M 51.825349715248024 162.08096448796803 L 57.36862691031573 159.7848638937775" stroke-opacity="0.6980392156862745" stroke-linecap="round" stroke-linejoin="round" stroke-miterlimit="10"/><text fill="rgb(244,0,153)" stroke="none" font-family="geogebra-sans-serif, sans-serif" font-size="16px" font-style="normal" font-weight="normal" text-decoration="normal" x="59" y="149" text-anchor="start" dominant-baseline="alphabetic" fill-opacity="1">γ</text><text fill="none" stroke="rgb(255,255,255)" font-family="geogebra-sans-serif, sans-serif" font-size="16px" font-style="normal" font-weight="normal" text-decoration="normal" x="59" y="149" text-anchor="start" dominant-baseline="alphabetic" stroke-opacity="1" stroke-linejoin="bevel" stroke-miterlimit="10" stroke-width="3">γ</text><text fill="rgb(244,0,153)" stroke="none" font-family="geogebra-sans-serif, sans-serif" font-size="16px" font-style="normal" font-weight="normal" text-decoration="normal" x="59" y="149" text-anchor="start" dominant-baseline="alphabetic" fill-opacity="1">γ</text><path fill="rgb(255,0,0)" stroke="none" paint-order="stroke fill markers" fill-rule="evenodd" d=" M 132.98974717807982 74.17224839567729 L 133.28403467729706 84.77476672236693 L 143.88655300398742 84.4804792231504 L 143.59226550476944 73.87796089646005 L 132.98974717807982 74.17224839567729" fill-opacity="0.09803921568627451"/><path fill="none" stroke="rgb(255,0,0)" paint-order="fill stroke markers" d=" M 132.98974717807982 74.17224839567729 L 133.28403467729706 84.77476672236693 L 143.88655300398742 84.4804792231504 L 143.59226550476944 73.87796089646005 L 132.98974717807982 74.17224839567729" stroke-opacity="0.6980392156862745" stroke-linecap="round" stroke-linejoin="round" stroke-miterlimit="10" stroke-width="0.5"/><path fill="rgb(255,0,0)" stroke="none" paint-order="stroke fill markers" fill-rule="evenodd" d=" M 207.98974717807974 174.17224839567737 L 199.0164884766191 168.51710664001416 L 193.36134672095488 177.49036534147507 L 202.33460542241653 183.14550709713805 L 207.98974717807974 174.17224839567737" fill-opacity="0.09803921568627451"/><path fill="none" stroke="rgb(255,0,0)" paint-order="fill stroke markers" d=" M 207.98974717807974 174.17224839567737 L 199.0164884766191 168.51710664001416 L 193.36134672095488 177.49036534147507 L 202.33460542241653 183.14550709713805 L 207.98974717807974 174.17224839567737" stroke-opacity="0.6980392156862745" stroke-linecap="round" stroke-linejoin="round" stroke-miterlimit="10" stroke-width="0.5"/><path fill="rgb(255,0,0)" stroke="none" paint-order="stroke fill markers" fill-rule="evenodd" d=" M 82.98974717808 149.17224839567734 L 92.78896941465216 145.11327764458113 L 88.72999866355634 135.31405540800802 L 78.9307764269838 139.37302615910514 L 82.98974717808 149.17224839567734" fill-opacity="0.09803921568627451"/><path fill="none" stroke="rgb(255,0,0)" paint-order="fill stroke markers" d=" M 82.98974717808 149.17224839567734 L 92.78896941465216 145.11327764458113 L 88.72999866355634 135.31405540800802 L 78.9307764269838 139.37302615910514 L 82.98974717808 149.17224839567734" stroke-opacity="0.6980392156862745" stroke-linecap="round" stroke-linejoin="round" stroke-miterlimit="10" stroke-width="0.5"/><path fill="none" stroke="rgb(153,51,255)" paint-order="fill stroke markers" d=" M 94.77933440885523 52.116467946922675 L 89.56582337953846 44.78030391200685" stroke-opacity="0.6980392156862745" stroke-linecap="round" stroke-linejoin="round" stroke-miterlimit="10"/><path fill="none" stroke="rgb(153,51,255)" paint-order="fill stroke markers" d=" M 131.49999999999955 20.499999999999943 L 52.84515778839415 76.39677185892958" stroke-opacity="0.6980392156862745" stroke-linecap="round" stroke-linejoin="round" stroke-miterlimit="10"/><path fill="none" stroke="rgb(153,51,255)" paint-order="fill stroke markers" d=" M 46.561099031334415 124.44382101320409 L 37.784058757059505 122.4529508457255" stroke-opacity="0.6980392156862745" stroke-linecap="round" stroke-linejoin="round" stroke-miterlimit="10"/><path fill="none" stroke="rgb(153,51,255)" paint-order="fill stroke markers" d=" M 52.84515778839415 76.39677185892958 L 31.499999999999773 170.5" stroke-opacity="0.6980392156862745" stroke-linecap="round" stroke-linejoin="round" stroke-miterlimit="10"/><path fill="none" stroke="rgb(0,100,0)" paint-order="fill stroke markers" d=" M 87.2224763051648 222.85592930241185 L 80.68439280962025 229.04086779889568" stroke-opacity="0.6980392156862745" stroke-linecap="round" stroke-linejoin="round" stroke-miterlimit="10"/><path fill="none" stroke="rgb(0,100,0)" paint-order="fill stroke markers" d=" M 89.62773016490851 225.39851732845696 L 83.08964666936396 231.58345582494078" stroke-opacity="0.6980392156862745" stroke-linecap="round" stroke-linejoin="round" stroke-miterlimit="10"/><path fill="none" stroke="rgb(0,100,0)" paint-order="fill stroke markers" d=" M 31.499999999999773 170.5 L 138.812122974529 283.93938512735264" stroke-opacity="0.6980392156862745" stroke-linecap="round" stroke-linejoin="round" stroke-miterlimit="10"/><path fill="none" stroke="rgb(0,100,0)" paint-order="fill stroke markers" d=" M 206.72881933683078 248.8187351628415 L 210.38515083407043 257.0425566578822" stroke-opacity="0.6980392156862745" stroke-linecap="round" stroke-linejoin="round" stroke-miterlimit="10"/><path fill="none" stroke="rgb(0,100,0)" paint-order="fill stroke markers" d=" M 209.92697214045774 247.3968284694705 L 213.58330363769738 255.6206499645112" stroke-opacity="0.6980392156862745" stroke-linecap="round" stroke-linejoin="round" stroke-miterlimit="10"/><path fill="none" stroke="rgb(0,100,0)" paint-order="fill stroke markers" d=" M 138.812122974529 283.93938512735264 L 281.4999999999992 220.50000000000003" stroke-opacity="0.6980392156862745" stroke-linecap="round" stroke-linejoin="round" stroke-miterlimit="10"/><path fill="none" stroke="rgb(244,0,153)" paint-order="fill stroke markers" d=" M 273.177886036982 149.12174746361762 L 282.16505395909627 148.64131771878561" stroke-opacity="0.6980392156862745" stroke-linecap="round" stroke-linejoin="round" stroke-miterlimit="10"/><path fill="none" stroke="rgb(244,0,153)" paint-order="fill stroke markers" d=" M 272.9910522473251 145.62673771612873 L 281.9782201694394 145.14630797129672" stroke-opacity="0.6980392156862745" stroke-linecap="round" stroke-linejoin="round" stroke-miterlimit="10"/><path fill="none" stroke="rgb(244,0,153)" paint-order="fill stroke markers" d=" M 272.80421845766824 142.13172796863984 L 281.7913863797825 141.65129822380783" stroke-opacity="0.6980392156862745" stroke-linecap="round" stroke-linejoin="round" stroke-miterlimit="10"/><path fill="none" stroke="rgb(244,0,153)" paint-order="fill stroke markers" d=" M 281.4999999999992 220.50000000000003 L 273.4692724167653 70.27304568742542" stroke-opacity="0.6980392156862745" stroke-linecap="round" stroke-linejoin="round" stroke-miterlimit="10"/><path fill="none" stroke="rgb(244,0,153)" paint-order="fill stroke markers" d=" M 204.29872231825246 50.79106644941859 L 207.2763418914832 42.297905572741804" stroke-opacity="0.6980392156862745" stroke-linecap="round" stroke-linejoin="round" stroke-miterlimit="10"/><path fill="none" stroke="rgb(244,0,153)" paint-order="fill stroke markers" d=" M 200.99582642176705 49.633103282051074 L 203.9734459949978 41.13994240537429" stroke-opacity="0.6980392156862745" stroke-linecap="round" stroke-linejoin="round" stroke-miterlimit="10"/><path fill="none" stroke="rgb(244,0,153)" paint-order="fill stroke markers" d=" M 197.69293052528164 48.47514011468356 L 200.6705500985124 39.98197923800678" stroke-opacity="0.6980392156862745" stroke-linecap="round" stroke-linejoin="round" stroke-miterlimit="10"/><path fill="none" stroke="rgb(244,0,153)" paint-order="fill stroke markers" d=" M 273.4692724167653 70.27304568742542 L 131.49999999999955 20.499999999999943" stroke-opacity="0.6980392156862745" stroke-linecap="round" stroke-linejoin="round" stroke-miterlimit="10"/><path fill="none" stroke="rgb(102,102,102)" paint-order="fill stroke markers" d=" M 31.499999999999773 170.5 L 131.49999999999955 20.499999999999943" stroke-opacity="0.6980392156862745" stroke-linejoin="round" stroke-miterlimit="10" stroke-dasharray="5,4"/><path fill="none" stroke="rgb(102,102,102)" paint-order="fill stroke markers" d=" M 281.4999999999992 220.50000000000003 L 131.49999999999955 20.499999999999943" stroke-opacity="0.6980392156862745" stroke-linejoin="round" stroke-miterlimit="10" stroke-dasharray="5,4"/><path fill="none" stroke="rgb(102,102,102)" paint-order="fill stroke markers" d=" M 31.499999999999773 170.5 L 281.4999999999992 220.50000000000003" stroke-opacity="0.6980392156862745" stroke-linejoin="round" stroke-miterlimit="10" stroke-dasharray="5,4"/><path fill="none" stroke="rgb(102,102,102)" paint-order="fill stroke markers" d=" M 52.84515778839415 76.39677185892958 L 273.4692724167653 70.27304568742542" stroke-opacity="0.6980392156862745" stroke-linejoin="round" stroke-miterlimit="10" stroke-dasharray="9,8"/><path fill="none" stroke="rgb(102,102,102)" paint-order="fill stroke markers" d=" M 273.4692724167653 70.27304568742542 L 138.812122974529 283.93938512735264" stroke-opacity="0.6980392156862745" stroke-linejoin="round" stroke-miterlimit="10" stroke-dasharray="9,8"/><path fill="none" stroke="rgb(102,102,102)" paint-order="fill stroke markers" d=" M 138.812122974529 283.93938512735264 L 52.84515778839415 76.39677185892958" stroke-opacity="0.6980392156862745" stroke-linejoin="round" stroke-miterlimit="10" stroke-dasharray="9,8"/><path fill="none" stroke="rgb(102,102,102)" paint-order="fill stroke markers" d=" M 131.49999999999955 20.499999999999943 L 132.98974717807982 74.17224839567729" stroke-opacity="0.6980392156862745" stroke-linejoin="round" stroke-miterlimit="10" stroke-dasharray="5,4"/><path fill="none" stroke="rgb(102,102,102)" paint-order="fill stroke markers" d=" M 281.4999999999992 220.50000000000003 L 207.98974717807974 174.17224839567734" stroke-opacity="0.6980392156862745" stroke-linejoin="round" stroke-miterlimit="10" stroke-dasharray="5,4"/><path fill="none" stroke="rgb(102,102,102)" paint-order="fill stroke markers" d=" M 31.499999999999773 170.5 L 82.98974717807994 149.17224839567734" stroke-opacity="0.6980392156862745" stroke-linejoin="round" stroke-miterlimit="10" stroke-dasharray="5,4"/><path fill="none" stroke="rgb(102,102,102)" paint-order="fill stroke markers" d=" M 82.98974717807994 149.17224839567734 L 134.4794943561601 127.84449679135471" stroke-opacity="0.6980392156862745" stroke-linejoin="round" stroke-miterlimit="10" stroke-dasharray="5,4"/><path fill="none" stroke="rgb(102,102,102)" paint-order="fill stroke markers" d=" M 207.98974717807974 174.17224839567734 L 134.4794943561601 127.84449679135471" stroke-opacity="0.6980392156862745" stroke-linejoin="round" stroke-miterlimit="10" stroke-dasharray="5,4"/><path fill="none" stroke="rgb(102,102,102)" paint-order="fill stroke markers" d=" M 132.98974717807982 74.17224839567729 L 134.4794943561601 127.84449679135471" stroke-opacity="0.6980392156862745" stroke-linejoin="round" stroke-miterlimit="10" stroke-dasharray="5,4"/><path fill="rgb(0,0,255)" stroke="none" paint-order="stroke fill markers" d=" M 133.49999999999955 20.499999999999943 C 133.49999999999955 21.60456949966153 132.60456949966112 22.499999999999943 131.49999999999955 22.499999999999943 C 130.39543050033797 22.499999999999943 129.49999999999955 21.60456949966153 129.49999999999955 20.499999999999943 C 129.49999999999955 19.395430500338357 130.39543050033797 18.499999999999943 131.49999999999955 18.499999999999943 C 132.60456949966112 18.499999999999943 133.49999999999955 19.395430500338357 133.49999999999955 20.499999999999943 Z" fill-opacity="1"/><path fill="none" stroke="rgb(0,0,0)" paint-order="fill stroke markers" d=" M 133.49999999999955 20.499999999999943 C 133.49999999999955 21.60456949966153 132.60456949966112 22.499999999999943 131.49999999999955 22.499999999999943 C 130.39543050033797 22.499999999999943 129.49999999999955 21.60456949966153 129.49999999999955 20.499999999999943 C 129.49999999999955 19.395430500338357 130.39543050033797 18.499999999999943 131.49999999999955 18.499999999999943 C 132.60456949966112 18.499999999999943 133.49999999999955 19.395430500338357 133.49999999999955 20.499999999999943 Z" stroke-opacity="1" stroke-linecap="round" stroke-linejoin="round" stroke-miterlimit="10"/><text fill="rgb(0,0,255)" stroke="none" font-family="geogebra-sans-serif, sans-serif" font-size="16px" font-style="normal" font-weight="normal" text-decoration="normal" x="101" y="25" text-anchor="start" dominant-baseline="alphabetic" fill-opacity="1">A</text><text fill="none" stroke="rgb(255,255,255)" font-family="geogebra-sans-serif, sans-serif" font-size="16px" font-style="normal" font-weight="normal" text-decoration="normal" x="101" y="25" text-anchor="start" dominant-baseline="alphabetic" stroke-opacity="1" stroke-linejoin="bevel" stroke-miterlimit="10" stroke-width="3">A</text><text fill="rgb(0,0,255)" stroke="none" font-family="geogebra-sans-serif, sans-serif" font-size="16px" font-style="normal" font-weight="normal" text-decoration="normal" x="101" y="25" text-anchor="start" dominant-baseline="alphabetic" fill-opacity="1">A</text><path fill="rgb(0,0,255)" stroke="none" paint-order="stroke fill markers" d=" M 33.49999999999977 170.5 C 33.49999999999977 171.60456949966158 32.60456949966136 172.5 31.499999999999773 172.5 C 30.395430500338186 172.5 29.499999999999773 171.60456949966158 29.499999999999773 170.5 C 29.499999999999773 169.39543050033842 30.395430500338186 168.5 31.499999999999773 168.5 C 32.60456949966136 168.5 33.49999999999977 169.39543050033842 33.49999999999977 170.5 Z" fill-opacity="1"/><path fill="none" stroke="rgb(0,0,0)" paint-order="fill stroke markers" d=" M 33.49999999999977 170.5 C 33.49999999999977 171.60456949966158 32.60456949966136 172.5 31.499999999999773 172.5 C 30.395430500338186 172.5 29.499999999999773 171.60456949966158 29.499999999999773 170.5 C 29.499999999999773 169.39543050033842 30.395430500338186 168.5 31.499999999999773 168.5 C 32.60456949966136 168.5 33.49999999999977 169.39543050033842 33.49999999999977 170.5 Z" stroke-opacity="1" stroke-linecap="round" stroke-linejoin="round" stroke-miterlimit="10"/><text fill="rgb(0,0,255)" stroke="none" font-family="geogebra-sans-serif, sans-serif" font-size="16px" font-style="normal" font-weight="normal" text-decoration="normal" x="11" y="185" text-anchor="start" dominant-baseline="alphabetic" fill-opacity="1">C</text><text fill="none" stroke="rgb(255,255,255)" font-family="geogebra-sans-serif, sans-serif" font-size="16px" font-style="normal" font-weight="normal" text-decoration="normal" x="11" y="185" text-anchor="start" dominant-baseline="alphabetic" stroke-opacity="1" stroke-linejoin="bevel" stroke-miterlimit="10" stroke-width="3">C</text><text fill="rgb(0,0,255)" stroke="none" font-family="geogebra-sans-serif, sans-serif" font-size="16px" font-style="normal" font-weight="normal" text-decoration="normal" x="11" y="185" text-anchor="start" dominant-baseline="alphabetic" fill-opacity="1">C</text><path fill="rgb(0,0,255)" stroke="none" paint-order="stroke fill markers" d=" M 283.4999999999992 220.50000000000003 C 283.4999999999992 221.6045694996616 282.6045694996608 222.50000000000003 281.4999999999992 222.50000000000003 C 280.3954305003376 222.50000000000003 279.4999999999992 221.6045694996616 279.4999999999992 220.50000000000003 C 279.4999999999992 219.39543050033845 280.3954305003376 218.50000000000003 281.4999999999992 218.50000000000003 C 282.6045694996608 218.50000000000003 283.4999999999992 219.39543050033845 283.4999999999992 220.50000000000003 Z" fill-opacity="1"/><path fill="none" stroke="rgb(0,0,0)" paint-order="fill stroke markers" d=" M 283.4999999999992 220.50000000000003 C 283.4999999999992 221.6045694996616 282.6045694996608 222.50000000000003 281.4999999999992 222.50000000000003 C 280.3954305003376 222.50000000000003 279.4999999999992 221.6045694996616 279.4999999999992 220.50000000000003 C 279.4999999999992 219.39543050033845 280.3954305003376 218.50000000000003 281.4999999999992 218.50000000000003 C 282.6045694996608 218.50000000000003 283.4999999999992 219.39543050033845 283.4999999999992 220.50000000000003 Z" stroke-opacity="1" stroke-linecap="round" stroke-linejoin="round" stroke-miterlimit="10"/><text fill="rgb(0,0,255)" stroke="none" font-family="geogebra-sans-serif, sans-serif" font-size="16px" font-style="normal" font-weight="normal" text-decoration="normal" x="290" y="238" text-anchor="start" dominant-baseline="alphabetic" fill-opacity="1">B</text><text fill="none" stroke="rgb(255,255,255)" font-family="geogebra-sans-serif, sans-serif" font-size="16px" font-style="normal" font-weight="normal" text-decoration="normal" x="290" y="238" text-anchor="start" dominant-baseline="alphabetic" stroke-opacity="1" stroke-linejoin="bevel" stroke-miterlimit="10" stroke-width="3">B</text><text fill="rgb(0,0,255)" stroke="none" font-family="geogebra-sans-serif, sans-serif" font-size="16px" font-style="normal" font-weight="normal" text-decoration="normal" x="290" y="238" text-anchor="start" dominant-baseline="alphabetic" fill-opacity="1">B</text><path fill="rgb(0,0,255)" stroke="none" paint-order="stroke fill markers" d=" M 54.84515778839415 76.39677185892958 C 54.84515778839415 77.50134135859116 53.94972728805573 78.39677185892958 52.84515778839415 78.39677185892958 C 51.74058828873256 78.39677185892958 50.84515778839415 77.50134135859116 50.84515778839415 76.39677185892958 C 50.84515778839415 75.29220235926799 51.74058828873256 74.39677185892958 52.84515778839415 74.39677185892958 C 53.94972728805573 74.39677185892958 54.84515778839415 75.29220235926799 54.84515778839415 76.39677185892958 Z" fill-opacity="1"/><path fill="none" stroke="rgb(0,0,0)" paint-order="fill stroke markers" d=" M 54.84515778839415 76.39677185892958 C 54.84515778839415 77.50134135859116 53.94972728805573 78.39677185892958 52.84515778839415 78.39677185892958 C 51.74058828873256 78.39677185892958 50.84515778839415 77.50134135859116 50.84515778839415 76.39677185892958 C 50.84515778839415 75.29220235926799 51.74058828873256 74.39677185892958 52.84515778839415 74.39677185892958 C 53.94972728805573 74.39677185892958 54.84515778839415 75.29220235926799 54.84515778839415 76.39677185892958 Z" stroke-opacity="1" stroke-linecap="round" stroke-linejoin="round" stroke-miterlimit="10"/><text fill="rgb(0,0,255)" stroke="none" font-family="geogebra-sans-serif, sans-serif" font-size="16px" font-style="normal" font-weight="normal" text-decoration="normal" x="33" y="65" text-anchor="start" dominant-baseline="alphabetic" fill-opacity="1">E</text><text fill="none" stroke="rgb(255,255,255)" font-family="geogebra-sans-serif, sans-serif" font-size="16px" font-style="normal" font-weight="normal" text-decoration="normal" x="33" y="65" text-anchor="start" dominant-baseline="alphabetic" stroke-opacity="1" stroke-linejoin="bevel" stroke-miterlimit="10" stroke-width="3">E</text><text fill="rgb(0,0,255)" stroke="none" font-family="geogebra-sans-serif, sans-serif" font-size="16px" font-style="normal" font-weight="normal" text-decoration="normal" x="33" y="65" text-anchor="start" dominant-baseline="alphabetic" fill-opacity="1">E</text><path fill="rgb(0,0,255)" stroke="none" paint-order="stroke fill markers" d=" M 140.812122974529 283.93938512735264 C 140.812122974529 285.0439546270142 139.91669247419057 285.93938512735264 138.812122974529 285.93938512735264 C 137.7075534748674 285.93938512735264 136.812122974529 285.0439546270142 136.812122974529 283.93938512735264 C 136.812122974529 282.83481562769106 137.7075534748674 281.93938512735264 138.812122974529 281.93938512735264 C 139.91669247419057 281.93938512735264 140.812122974529 282.83481562769106 140.812122974529 283.93938512735264 Z" fill-opacity="1"/><path fill="none" stroke="rgb(0,0,0)" paint-order="fill stroke markers" d=" M 140.812122974529 283.93938512735264 C 140.812122974529 285.0439546270142 139.91669247419057 285.93938512735264 138.812122974529 285.93938512735264 C 137.7075534748674 285.93938512735264 136.812122974529 285.0439546270142 136.812122974529 283.93938512735264 C 136.812122974529 282.83481562769106 137.7075534748674 281.93938512735264 138.812122974529 281.93938512735264 C 139.91669247419057 281.93938512735264 140.812122974529 282.83481562769106 140.812122974529 283.93938512735264 Z" stroke-opacity="1" stroke-linecap="round" stroke-linejoin="round" stroke-miterlimit="10"/><text fill="rgb(0,0,255)" stroke="none" font-family="geogebra-sans-serif, sans-serif" font-size="16px" font-style="normal" font-weight="normal" text-decoration="normal" x="136" y="256" text-anchor="start" dominant-baseline="alphabetic" fill-opacity="1">D</text><text fill="none" stroke="rgb(255,255,255)" font-family="geogebra-sans-serif, sans-serif" font-size="16px" font-style="normal" font-weight="normal" text-decoration="normal" x="136" y="256" text-anchor="start" dominant-baseline="alphabetic" stroke-opacity="1" stroke-linejoin="bevel" stroke-miterlimit="10" stroke-width="3">D</text><text fill="rgb(0,0,255)" stroke="none" font-family="geogebra-sans-serif, sans-serif" font-size="16px" font-style="normal" font-weight="normal" text-decoration="normal" x="136" y="256" text-anchor="start" dominant-baseline="alphabetic" fill-opacity="1">D</text><path fill="rgb(0,0,255)" stroke="none" paint-order="stroke fill markers" d=" M 275.4692724167653 70.27304568742542 C 275.4692724167653 71.377615187087 274.5738419164269 72.27304568742542 273.4692724167653 72.27304568742542 C 272.3647029171037 72.27304568742542 271.4692724167653 71.377615187087 271.4692724167653 70.27304568742542 C 271.4692724167653 69.16847618776383 272.3647029171037 68.27304568742542 273.4692724167653 68.27304568742542 C 274.5738419164269 68.27304568742542 275.4692724167653 69.16847618776383 275.4692724167653 70.27304568742542 Z" fill-opacity="1"/><path fill="none" stroke="rgb(0,0,0)" paint-order="fill stroke markers" d=" M 275.4692724167653 70.27304568742542 C 275.4692724167653 71.377615187087 274.5738419164269 72.27304568742542 273.4692724167653 72.27304568742542 C 272.3647029171037 72.27304568742542 271.4692724167653 71.377615187087 271.4692724167653 70.27304568742542 C 271.4692724167653 69.16847618776383 272.3647029171037 68.27304568742542 273.4692724167653 68.27304568742542 C 274.5738419164269 68.27304568742542 275.4692724167653 69.16847618776383 275.4692724167653 70.27304568742542 Z" stroke-opacity="1" stroke-linecap="round" stroke-linejoin="round" stroke-miterlimit="10"/><text fill="rgb(0,0,255)" stroke="none" font-family="geogebra-sans-serif, sans-serif" font-size="16px" font-style="normal" font-weight="normal" text-decoration="normal" x="283" y="67" text-anchor="start" dominant-baseline="alphabetic" fill-opacity="1">F</text><text fill="none" stroke="rgb(255,255,255)" font-family="geogebra-sans-serif, sans-serif" font-size="16px" font-style="normal" font-weight="normal" text-decoration="normal" x="283" y="67" text-anchor="start" dominant-baseline="alphabetic" stroke-opacity="1" stroke-linejoin="bevel" stroke-miterlimit="10" stroke-width="3">F</text><text fill="rgb(0,0,255)" stroke="none" font-family="geogebra-sans-serif, sans-serif" font-size="16px" font-style="normal" font-weight="normal" text-decoration="normal" x="283" y="67" text-anchor="start" dominant-baseline="alphabetic" fill-opacity="1">F</text><path fill="rgb(0,0,255)" stroke="none" paint-order="stroke fill markers" d=" M 136.4794943561601 127.84449679135471 C 136.4794943561601 128.9490662910163 135.58406385582168 129.84449679135471 134.4794943561601 129.84449679135471 C 133.37492485649852 129.84449679135471 132.4794943561601 128.9490662910163 132.4794943561601 127.84449679135471 C 132.4794943561601 126.73992729169312 133.37492485649852 125.84449679135471 134.4794943561601 125.84449679135471 C 135.58406385582168 125.84449679135471 136.4794943561601 126.73992729169312 136.4794943561601 127.84449679135471 Z" fill-opacity="1"/><path fill="none" stroke="rgb(0,0,0)" paint-order="fill stroke markers" d=" M 136.4794943561601 127.84449679135471 C 136.4794943561601 128.9490662910163 135.58406385582168 129.84449679135471 134.4794943561601 129.84449679135471 C 133.37492485649852 129.84449679135471 132.4794943561601 128.9490662910163 132.4794943561601 127.84449679135471 C 132.4794943561601 126.73992729169312 133.37492485649852 125.84449679135471 134.4794943561601 125.84449679135471 C 135.58406385582168 125.84449679135471 136.4794943561601 126.73992729169312 136.4794943561601 127.84449679135471 Z" stroke-opacity="1" stroke-linecap="round" stroke-linejoin="round" stroke-miterlimit="10"/><text fill="rgb(0,0,255)" stroke="none" font-family="geogebra-sans-serif, sans-serif" font-size="16px" font-style="normal" font-weight="normal" text-decoration="normal" x="147" y="120" text-anchor="start" dominant-baseline="alphabetic" fill-opacity="1">G</text><text fill="none" stroke="rgb(255,255,255)" font-family="geogebra-sans-serif, sans-serif" font-size="16px" font-style="normal" font-weight="normal" text-decoration="normal" x="147" y="120" text-anchor="start" dominant-baseline="alphabetic" stroke-opacity="1" stroke-linejoin="bevel" stroke-miterlimit="10" stroke-width="3">G</text><text fill="rgb(0,0,255)" stroke="none" font-family="geogebra-sans-serif, sans-serif" font-size="16px" font-style="normal" font-weight="normal" text-decoration="normal" x="147" y="120" text-anchor="start" dominant-baseline="alphabetic" fill-opacity="1">G</text><path fill="rgb(0,0,255)" stroke="none" paint-order="stroke fill markers" d=" M 134.98974717807982 74.17224839567729 C 134.98974717807982 75.27681789533887 134.0943166777414 76.17224839567729 132.98974717807982 76.17224839567729 C 131.88517767841824 76.17224839567729 130.98974717807982 75.27681789533887 130.98974717807982 74.17224839567729 C 130.98974717807982 73.06767889601569 131.88517767841824 72.17224839567729 132.98974717807982 72.17224839567729 C 134.0943166777414 72.17224839567729 134.98974717807982 73.06767889601569 134.98974717807982 74.17224839567729 Z" fill-opacity="1"/><path fill="none" stroke="rgb(0,0,0)" paint-order="fill stroke markers" d=" M 134.98974717807982 74.17224839567729 C 134.98974717807982 75.27681789533887 134.0943166777414 76.17224839567729 132.98974717807982 76.17224839567729 C 131.88517767841824 76.17224839567729 130.98974717807982 75.27681789533887 130.98974717807982 74.17224839567729 C 130.98974717807982 73.06767889601569 131.88517767841824 72.17224839567729 132.98974717807982 72.17224839567729 C 134.0943166777414 72.17224839567729 134.98974717807982 73.06767889601569 134.98974717807982 74.17224839567729 Z" stroke-opacity="1" stroke-linecap="round" stroke-linejoin="round" stroke-miterlimit="10"/><text fill="rgb(0,0,255)" stroke="none" font-family="geogebra-sans-serif, sans-serif" font-size="16px" font-style="normal" font-weight="normal" text-decoration="normal" x="112" y="94" text-anchor="start" dominant-baseline="alphabetic" fill-opacity="1">A'</text><text fill="none" stroke="rgb(255,255,255)" font-family="geogebra-sans-serif, sans-serif" font-size="16px" font-style="normal" font-weight="normal" text-decoration="normal" x="112" y="94" text-anchor="start" dominant-baseline="alphabetic" stroke-opacity="1" stroke-linejoin="bevel" stroke-miterlimit="10" stroke-width="3">A'</text><text fill="rgb(0,0,255)" stroke="none" font-family="geogebra-sans-serif, sans-serif" font-size="16px" font-style="normal" font-weight="normal" text-decoration="normal" x="112" y="94" text-anchor="start" dominant-baseline="alphabetic" fill-opacity="1">A'</text><path fill="rgb(0,0,255)" stroke="none" paint-order="stroke fill markers" d=" M 209.98974717807974 174.17224839567734 C 209.98974717807974 175.27681789533892 209.09431667774132 176.17224839567734 207.98974717807974 176.17224839567734 C 206.88517767841816 176.17224839567734 205.98974717807974 175.27681789533892 205.98974717807974 174.17224839567734 C 205.98974717807974 173.06767889601576 206.88517767841816 172.17224839567734 207.98974717807974 172.17224839567734 C 209.09431667774132 172.17224839567734 209.98974717807974 173.06767889601576 209.98974717807974 174.17224839567734 Z" fill-opacity="1"/><path fill="none" stroke="rgb(0,0,0)" paint-order="fill stroke markers" d=" M 209.98974717807974 174.17224839567734 C 209.98974717807974 175.27681789533892 209.09431667774132 176.17224839567734 207.98974717807974 176.17224839567734 C 206.88517767841816 176.17224839567734 205.98974717807974 175.27681789533892 205.98974717807974 174.17224839567734 C 205.98974717807974 173.06767889601576 206.88517767841816 172.17224839567734 207.98974717807974 172.17224839567734 C 209.09431667774132 172.17224839567734 209.98974717807974 173.06767889601576 209.98974717807974 174.17224839567734 Z" stroke-opacity="1" stroke-linecap="round" stroke-linejoin="round" stroke-miterlimit="10"/><text fill="rgb(0,0,255)" stroke="none" font-family="geogebra-sans-serif, sans-serif" font-size="16px" font-style="normal" font-weight="normal" text-decoration="normal" x="197" y="160" text-anchor="start" dominant-baseline="alphabetic" fill-opacity="1">B'</text><text fill="none" stroke="rgb(255,255,255)" font-family="geogebra-sans-serif, sans-serif" font-size="16px" font-style="normal" font-weight="normal" text-decoration="normal" x="197" y="160" text-anchor="start" dominant-baseline="alphabetic" stroke-opacity="1" stroke-linejoin="bevel" stroke-miterlimit="10" stroke-width="3">B'</text><text fill="rgb(0,0,255)" stroke="none" font-family="geogebra-sans-serif, sans-serif" font-size="16px" font-style="normal" font-weight="normal" text-decoration="normal" x="197" y="160" text-anchor="start" dominant-baseline="alphabetic" fill-opacity="1">B'</text><path fill="rgb(0,0,255)" stroke="none" paint-order="stroke fill markers" d=" M 84.98974717807994 149.17224839567734 C 84.98974717807994 150.27681789533892 84.09431667774152 151.17224839567734 82.98974717807994 151.17224839567734 C 81.88517767841834 151.17224839567734 80.98974717807994 150.27681789533892 80.98974717807994 149.17224839567734 C 80.98974717807994 148.06767889601576 81.88517767841834 147.17224839567734 82.98974717807994 147.17224839567734 C 84.09431667774152 147.17224839567734 84.98974717807994 148.06767889601576 84.98974717807994 149.17224839567734 Z" fill-opacity="1"/><path fill="none" stroke="rgb(0,0,0)" paint-order="fill stroke markers" d=" M 84.98974717807994 149.17224839567734 C 84.98974717807994 150.27681789533892 84.09431667774152 151.17224839567734 82.98974717807994 151.17224839567734 C 81.88517767841834 151.17224839567734 80.98974717807994 150.27681789533892 80.98974717807994 149.17224839567734 C 80.98974717807994 148.06767889601576 81.88517767841834 147.17224839567734 82.98974717807994 147.17224839567734 C 84.09431667774152 147.17224839567734 84.98974717807994 148.06767889601576 84.98974717807994 149.17224839567734 Z" stroke-opacity="1" stroke-linecap="round" stroke-linejoin="round" stroke-miterlimit="10"/><text fill="rgb(0,0,255)" stroke="none" font-family="geogebra-sans-serif, sans-serif" font-size="16px" font-style="normal" font-weight="normal" text-decoration="normal" x="98" y="164" text-anchor="start" dominant-baseline="alphabetic" fill-opacity="1">C'</text><text fill="none" stroke="rgb(255,255,255)" font-family="geogebra-sans-serif, sans-serif" font-size="16px" font-style="normal" font-weight="normal" text-decoration="normal" x="98" y="164" text-anchor="start" dominant-baseline="alphabetic" stroke-opacity="1" stroke-linejoin="bevel" stroke-miterlimit="10" stroke-width="3">C'</text><text fill="rgb(0,0,255)" stroke="none" font-family="geogebra-sans-serif, sans-serif" font-size="16px" font-style="normal" font-weight="normal" text-decoration="normal" x="98" y="164" text-anchor="start" dominant-baseline="alphabetic" fill-opacity="1">C'</text></g></g></svg>