<svg version="1.1" xmlns="http://www.w3.org/2000/svg" xmlns:xlink="http://www.w3.org/1999/xlink" width="296" height="220"><defs><clipPath id="yobqMrzNJnTu"><path fill="none" stroke="none" d=" M 0 0 L 296 0 L 296 220 L 0 220 L 0 0 Z"/></clipPath></defs><g transform="scale(1,1)" clip-path="url(#yobqMrzNJnTu)"><g><rect fill="rgb(255,255,255)" stroke="none" x="0" y="0" width="296" height="220" fill-opacity="1"/><path fill="none" stroke="rgb(0,153,255)" paint-order="fill stroke markers" d=" M 172.09980601477469 130.3911183114524 C 172.09980601477469 159.44620137368963 148.5460073884645 182.99999999999983 119.49092432622729 182.99999999999983 C 90.43584126399008 182.99999999999983 66.88204263767989 159.44620137368963 66.88204263767989 130.3911183114524 C 66.88204263767989 101.33603524921519 90.43584126399008 77.78223662290497 119.49092432622729 77.78223662290497 C 148.5460073884645 77.78223662290497 172.09980601477469 101.33603524921519 172.09980601477469 130.3911183114524 Z" stroke-opacity="0.6980392156862745" stroke-linecap="round" stroke-linejoin="round" stroke-miterlimit="10" stroke-width="0.5"/><g transform="scale(19,19)"><g transform="translate(5.052631578947368,3.799421052631579)"><path fill="rgb(0,153,255)" stroke="none" paint-order="stroke fill markers" d=" M 0.264 -0.082 Q 0.201 0.011 0.11900000000000001 0.011 Q 0.032 0.011 0.016 -0.089 Q 0.013000000000000001 -0.109 0.013000000000000001 -0.131 Q 0.013000000000000001 -0.22 0.051000000000000004 -0.311 Q 0.082 -0.382 0.112 -0.419 Q 0.122 -0.431 0.127 -0.431 Q 0.139 -0.431 0.139 -0.419 Q 0.139 -0.41400000000000003 0.129 -0.4 Q 0.045 -0.28 0.045 -0.17500000000000002 Q 0.045 -0.08 0.109 -0.064 Q 0.12 -0.061 0.133 -0.061 Q 0.201 -0.061 0.257 -0.138 Q 0.264 -0.145 0.266 -0.165 Q 0.276 -0.23800000000000002 0.28700000000000003 -0.266 Q 0.3 -0.291 0.315 -0.291 Q 0.334 -0.291 0.336 -0.268 Q 0.336 -0.24 0.308 -0.168 Q 0.306 -0.161 0.303 -0.155 Q 0.297 -0.14400000000000002 0.297 -0.139 Q 0.297 -0.111 0.317 -0.084 Q 0.335 -0.061 0.372 -0.061 Q 0.449 -0.061 0.511 -0.14400000000000002 Q 0.562 -0.214 0.562 -0.28 Q 0.562 -0.331 0.527 -0.367 Q 0.512 -0.38 0.512 -0.394 Q 0.512 -0.419 0.539 -0.435 Q 0.55 -0.442 0.562 -0.442 Q 0.599 -0.442 0.604 -0.388 Q 0.605 -0.377 0.605 -0.371 Q 0.605 -0.307 0.5750000000000001 -0.213 Q 0.55 -0.136 0.511 -0.082 Q 0.443 0.011 0.358 0.011 Q 0.277 0.011 0.264 -0.082 Z"/></g></g><path fill="none" stroke="rgb(0,100,0)" paint-order="fill stroke markers" d=" M 96.49999999999987 32.999999999999744 L 46.49999999999987 182.99999999999983" stroke-opacity="0.6980392156862745" stroke-linecap="round" stroke-linejoin="round" stroke-miterlimit="10"/><path fill="none" stroke="rgb(0,100,0)" paint-order="fill stroke markers" d=" M 46.49999999999987 182.99999999999983 L 246.49999999999983 182.99999999999983" stroke-opacity="0.6980392156862745" stroke-linecap="round" stroke-linejoin="round" stroke-miterlimit="10"/><path fill="none" stroke="rgb(0,100,0)" paint-order="fill stroke markers" d=" M 246.49999999999983 182.99999999999983 L 96.49999999999987 32.999999999999744" stroke-opacity="0.6980392156862745" stroke-linecap="round" stroke-linejoin="round" stroke-miterlimit="10"/><path fill="rgb(0,0,255)" stroke="none" paint-order="stroke fill markers" d=" M 98.49999999999987 32.999999999999744 C 98.49999999999987 34.10456949966133 97.60456949966147 34.999999999999744 96.49999999999987 34.999999999999744 C 95.39543050033828 34.999999999999744 94.49999999999987 34.10456949966133 94.49999999999987 32.999999999999744 C 94.49999999999987 31.895430500338158 95.39543050033828 30.999999999999744 96.49999999999987 30.999999999999744 C 97.60456949966147 30.999999999999744 98.49999999999987 31.895430500338158 98.49999999999987 32.999999999999744 Z" fill-opacity="1"/><path fill="none" stroke="rgb(0,0,0)" paint-order="fill stroke markers" d=" M 98.49999999999987 32.999999999999744 C 98.49999999999987 34.10456949966133 97.60456949966147 34.999999999999744 96.49999999999987 34.999999999999744 C 95.39543050033828 34.999999999999744 94.49999999999987 34.10456949966133 94.49999999999987 32.999999999999744 C 94.49999999999987 31.895430500338158 95.39543050033828 30.999999999999744 96.49999999999987 30.999999999999744 C 97.60456949966147 30.999999999999744 98.49999999999987 31.895430500338158 98.49999999999987 32.999999999999744 Z" stroke-opacity="1" stroke-linecap="round" stroke-linejoin="round" stroke-miterlimit="10"/><text fill="rgb(0,0,255)" stroke="none" font-family="geogebra-sans-serif, sans-serif" font-size="16px" font-style="normal" font-weight="normal" text-decoration="normal" x="91" y="24" text-anchor="start" dominant-baseline="alphabetic" fill-opacity="1">A</text><text fill="rgb(0,0,255)" stroke="none" font-family="geogebra-sans-serif, sans-serif" font-size="16px" font-style="normal" font-weight="normal" text-decoration="normal" x="91" y="24" text-anchor="start" dominant-baseline="alphabetic" fill-opacity="1">A</text><path fill="rgb(0,0,255)" stroke="none" paint-order="stroke fill markers" d=" M 48.49999999999987 182.99999999999983 C 48.49999999999987 184.1045694996614 47.60456949966146 184.99999999999983 46.49999999999987 184.99999999999983 C 45.395430500338286 184.99999999999983 44.49999999999987 184.1045694996614 44.49999999999987 182.99999999999983 C 44.49999999999987 181.89543050033825 45.395430500338286 180.99999999999983 46.49999999999987 180.99999999999983 C 47.60456949966146 180.99999999999983 48.49999999999987 181.89543050033825 48.49999999999987 182.99999999999983 Z" fill-opacity="1"/><path fill="none" stroke="rgb(0,0,0)" paint-order="fill stroke markers" d=" M 48.49999999999987 182.99999999999983 C 48.49999999999987 184.1045694996614 47.60456949966146 184.99999999999983 46.49999999999987 184.99999999999983 C 45.395430500338286 184.99999999999983 44.49999999999987 184.1045694996614 44.49999999999987 182.99999999999983 C 44.49999999999987 181.89543050033825 45.395430500338286 180.99999999999983 46.49999999999987 180.99999999999983 C 47.60456949966146 180.99999999999983 48.49999999999987 181.89543050033825 48.49999999999987 182.99999999999983 Z" stroke-opacity="1" stroke-linecap="round" stroke-linejoin="round" stroke-miterlimit="10"/><text fill="rgb(0,0,255)" stroke="none" font-family="geogebra-sans-serif, sans-serif" font-size="16px" font-style="normal" font-weight="normal" text-decoration="normal" x="23" y="193" text-anchor="start" dominant-baseline="alphabetic" fill-opacity="1">B</text><text fill="rgb(0,0,255)" stroke="none" font-family="geogebra-sans-serif, sans-serif" font-size="16px" font-style="normal" font-weight="normal" text-decoration="normal" x="23" y="193" text-anchor="start" dominant-baseline="alphabetic" fill-opacity="1">B</text><path fill="rgb(0,0,255)" stroke="none" paint-order="stroke fill markers" d=" M 248.49999999999983 182.99999999999983 C 248.49999999999983 184.1045694996614 247.6045694996614 184.99999999999983 246.49999999999983 184.99999999999983 C 245.39543050033825 184.99999999999983 244.49999999999983 184.1045694996614 244.49999999999983 182.99999999999983 C 244.49999999999983 181.89543050033825 245.39543050033825 180.99999999999983 246.49999999999983 180.99999999999983 C 247.6045694996614 180.99999999999983 248.49999999999983 181.89543050033825 248.49999999999983 182.99999999999983 Z" fill-opacity="1"/><path fill="none" stroke="rgb(0,0,0)" paint-order="fill stroke markers" d=" M 248.49999999999983 182.99999999999983 C 248.49999999999983 184.1045694996614 247.6045694996614 184.99999999999983 246.49999999999983 184.99999999999983 C 245.39543050033825 184.99999999999983 244.49999999999983 184.1045694996614 244.49999999999983 182.99999999999983 C 244.49999999999983 181.89543050033825 245.39543050033825 180.99999999999983 246.49999999999983 180.99999999999983 C 247.6045694996614 180.99999999999983 248.49999999999983 181.89543050033825 248.49999999999983 182.99999999999983 Z" stroke-opacity="1" stroke-linecap="round" stroke-linejoin="round" stroke-miterlimit="10"/><text fill="rgb(0,0,255)" stroke="none" font-family="geogebra-sans-serif, sans-serif" font-size="16px" font-style="normal" font-weight="normal" text-decoration="normal" x="256" y="194" text-anchor="start" dominant-baseline="alphabetic" fill-opacity="1">C</text><text fill="rgb(0,0,255)" stroke="none" font-family="geogebra-sans-serif, sans-serif" font-size="16px" font-style="normal" font-weight="normal" text-decoration="normal" x="256" y="194" text-anchor="start" dominant-baseline="alphabetic" fill-opacity="1">C</text><path fill="rgb(0,0,255)" stroke="none" paint-order="stroke fill markers" d=" M 121.49092432622727 130.3911183114524 C 121.49092432622727 131.49568781111398 120.59549382588887 132.3911183114524 119.49092432622727 132.3911183114524 C 118.38635482656568 132.3911183114524 117.49092432622727 131.49568781111398 117.49092432622727 130.3911183114524 C 117.49092432622727 129.28654881179082 118.38635482656568 128.3911183114524 119.49092432622727 128.3911183114524 C 120.59549382588887 128.3911183114524 121.49092432622727 129.28654881179082 121.49092432622727 130.3911183114524 Z" fill-opacity="1"/><path fill="none" stroke="rgb(0,0,0)" paint-order="fill stroke markers" d=" M 121.49092432622727 130.3911183114524 C 121.49092432622727 131.49568781111398 120.59549382588887 132.3911183114524 119.49092432622727 132.3911183114524 C 118.38635482656568 132.3911183114524 117.49092432622727 131.49568781111398 117.49092432622727 130.3911183114524 C 117.49092432622727 129.28654881179082 118.38635482656568 128.3911183114524 119.49092432622727 128.3911183114524 C 120.59549382588887 128.3911183114524 121.49092432622727 129.28654881179082 121.49092432622727 130.3911183114524 Z" stroke-opacity="1" stroke-linecap="round" stroke-linejoin="round" stroke-miterlimit="10"/><text fill="rgb(0,0,255)" stroke="none" font-family="geogebra-sans-serif, sans-serif" font-size="16px" font-style="normal" font-weight="normal" text-decoration="normal" x="120" y="117" text-anchor="start" dominant-baseline="alphabetic" fill-opacity="1">I</text><text fill="rgb(0,0,255)" stroke="none" font-family="geogebra-sans-serif, sans-serif" font-size="16px" font-style="normal" font-weight="normal" text-decoration="normal" x="120" y="117" text-anchor="start" dominant-baseline="alphabetic" fill-opacity="1">I</text><path fill="rgb(0,0,255)" stroke="none" paint-order="stroke fill markers" d=" M 121.49092432622727 182.99999999999983 C 121.49092432622727 184.1045694996614 120.59549382588887 184.99999999999983 119.49092432622727 184.99999999999983 C 118.38635482656568 184.99999999999983 117.49092432622727 184.1045694996614 117.49092432622727 182.99999999999983 C 117.49092432622727 181.89543050033825 118.38635482656568 180.99999999999983 119.49092432622727 180.99999999999983 C 120.59549382588887 180.99999999999983 121.49092432622727 181.89543050033825 121.49092432622727 182.99999999999983 Z" fill-opacity="1"/><path fill="none" stroke="rgb(0,0,0)" paint-order="fill stroke markers" d=" M 121.49092432622727 182.99999999999983 C 121.49092432622727 184.1045694996614 120.59549382588887 184.99999999999983 119.49092432622727 184.99999999999983 C 118.38635482656568 184.99999999999983 117.49092432622727 184.1045694996614 117.49092432622727 182.99999999999983 C 117.49092432622727 181.89543050033825 118.38635482656568 180.99999999999983 119.49092432622727 180.99999999999983 C 120.59549382588887 180.99999999999983 121.49092432622727 181.89543050033825 121.49092432622727 182.99999999999983 Z" stroke-opacity="1" stroke-linecap="round" stroke-linejoin="round" stroke-miterlimit="10"/><text fill="rgb(0,0,255)" stroke="none" font-family="geogebra-sans-serif, sans-serif" font-size="16px" font-style="normal" font-weight="normal" text-decoration="normal" x="115" y="203" text-anchor="start" dominant-baseline="alphabetic" fill-opacity="1">D</text><text fill="rgb(0,0,255)" stroke="none" font-family="geogebra-sans-serif, sans-serif" font-size="16px" font-style="normal" font-weight="normal" text-decoration="normal" x="115" y="203" text-anchor="start" dominant-baseline="alphabetic" fill-opacity="1">D</text><path fill="rgb(0,0,255)" stroke="none" paint-order="stroke fill markers" d=" M 158.6910213188399 93.19102131883983 C 158.6910213188399 94.29559081850141 157.79559081850147 95.19102131883983 156.6910213188399 95.19102131883983 C 155.5864518191783 95.19102131883983 154.6910213188399 94.29559081850141 154.6910213188399 93.19102131883983 C 154.6910213188399 92.08645181917824 155.5864518191783 91.19102131883983 156.6910213188399 91.19102131883983 C 157.79559081850147 91.19102131883983 158.6910213188399 92.08645181917824 158.6910213188399 93.19102131883983 Z" fill-opacity="1"/><path fill="none" stroke="rgb(0,0,0)" paint-order="fill stroke markers" d=" M 158.6910213188399 93.19102131883983 C 158.6910213188399 94.29559081850141 157.79559081850147 95.19102131883983 156.6910213188399 95.19102131883983 C 155.5864518191783 95.19102131883983 154.6910213188399 94.29559081850141 154.6910213188399 93.19102131883983 C 154.6910213188399 92.08645181917824 155.5864518191783 91.19102131883983 156.6910213188399 91.19102131883983 C 157.79559081850147 91.19102131883983 158.6910213188399 92.08645181917824 158.6910213188399 93.19102131883983 Z" stroke-opacity="1" stroke-linecap="round" stroke-linejoin="round" stroke-miterlimit="10"/><text fill="rgb(0,0,255)" stroke="none" font-family="geogebra-sans-serif, sans-serif" font-size="16px" font-style="normal" font-weight="normal" text-decoration="normal" x="161" y="89" text-anchor="start" dominant-baseline="alphabetic" fill-opacity="1">E</text><text fill="rgb(0,0,255)" stroke="none" font-family="geogebra-sans-serif, sans-serif" font-size="16px" font-style="normal" font-weight="normal" text-decoration="normal" x="161" y="89" text-anchor="start" dominant-baseline="alphabetic" fill-opacity="1">E</text><path fill="rgb(0,0,255)" stroke="none" paint-order="stroke fill markers" d=" M 71.58175693918686 113.7547291824389 C 71.58175693918686 114.85929868210047 70.68632643884845 115.7547291824389 69.58175693918686 115.7547291824389 C 68.47718743952527 115.7547291824389 67.58175693918686 114.85929868210047 67.58175693918686 113.7547291824389 C 67.58175693918686 112.6501596827773 68.47718743952527 111.7547291824389 69.58175693918686 111.7547291824389 C 70.68632643884845 111.7547291824389 71.58175693918686 112.6501596827773 71.58175693918686 113.7547291824389 Z" fill-opacity="1"/><path fill="none" stroke="rgb(0,0,0)" paint-order="fill stroke markers" d=" M 71.58175693918686 113.7547291824389 C 71.58175693918686 114.85929868210047 70.68632643884845 115.7547291824389 69.58175693918686 115.7547291824389 C 68.47718743952527 115.7547291824389 67.58175693918686 114.85929868210047 67.58175693918686 113.7547291824389 C 67.58175693918686 112.6501596827773 68.47718743952527 111.7547291824389 69.58175693918686 111.7547291824389 C 70.68632643884845 111.7547291824389 71.58175693918686 112.6501596827773 71.58175693918686 113.7547291824389 Z" stroke-opacity="1" stroke-linecap="round" stroke-linejoin="round" stroke-miterlimit="10"/><text fill="rgb(0,0,255)" stroke="none" font-family="geogebra-sans-serif, sans-serif" font-size="16px" font-style="normal" font-weight="normal" text-decoration="normal" x="50" y="109" text-anchor="start" dominant-baseline="alphabetic" fill-opacity="1">F</text><text fill="rgb(0,0,255)" stroke="none" font-family="geogebra-sans-serif, sans-serif" font-size="16px" font-style="normal" font-weight="normal" text-decoration="normal" x="50" y="109" text-anchor="start" dominant-baseline="alphabetic" fill-opacity="1">F</text></g></g></svg>