<svg version="1.1" xmlns="http://www.w3.org/2000/svg" xmlns:xlink="http://www.w3.org/1999/xlink" width="274" height="251"><defs><clipPath id="VLVzuZTyNlDq"><path fill="none" stroke="none" d=" M 0 0 L 274 0 L 274 251 L 0 251 L 0 0 Z"/></clipPath></defs><g transform="scale(1,1)" clip-path="url(#VLVzuZTyNlDq)"><g><rect fill="rgb(255,255,255)" stroke="none" x="0" y="0" width="274" height="251" fill-opacity="1"/><path fill="none" stroke="rgb(0,100,0)" paint-order="fill stroke markers" d=" M 37.99999999999973 221.99999999999997 L 237.99999999999955 221.99999999999997 L 137.9999999999997 48.79491924311219 Z" stroke-opacity="0.6980392156862745" stroke-linecap="round" stroke-linejoin="round" stroke-miterlimit="10"/><path fill="rgb(0,0,255)" stroke="none" paint-order="stroke fill markers" d=" M 39.99999999999973 221.99999999999997 C 39.99999999999973 223.10456949966155 39.10456949966132 223.99999999999997 37.99999999999973 223.99999999999997 C 36.89543050033814 223.99999999999997 35.99999999999973 223.10456949966155 35.99999999999973 221.99999999999997 C 35.99999999999973 220.8954305003384 36.89543050033814 219.99999999999997 37.99999999999973 219.99999999999997 C 39.10456949966132 219.99999999999997 39.99999999999973 220.8954305003384 39.99999999999973 221.99999999999997 Z" fill-opacity="1"/><path fill="none" stroke="rgb(0,0,0)" paint-order="fill stroke markers" d=" M 39.99999999999973 221.99999999999997 C 39.99999999999973 223.10456949966155 39.10456949966132 223.99999999999997 37.99999999999973 223.99999999999997 C 36.89543050033814 223.99999999999997 35.99999999999973 223.10456949966155 35.99999999999973 221.99999999999997 C 35.99999999999973 220.8954305003384 36.89543050033814 219.99999999999997 37.99999999999973 219.99999999999997 C 39.10456949966132 219.99999999999997 39.99999999999973 220.8954305003384 39.99999999999973 221.99999999999997 Z" stroke-opacity="1" stroke-linecap="round" stroke-linejoin="round" stroke-miterlimit="10"/><text fill="rgb(0,0,255)" stroke="none" font-family="geogebra-sans-serif, sans-serif" font-size="16px" font-style="normal" font-weight="normal" text-decoration="normal" x="23" y="241" text-anchor="start" dominant-baseline="alphabetic" fill-opacity="1">A</text><text fill="none" stroke="rgb(255,255,255)" font-family="geogebra-sans-serif, sans-serif" font-size="16px" font-style="normal" font-weight="normal" text-decoration="normal" x="23" y="241" text-anchor="start" dominant-baseline="alphabetic" stroke-opacity="1" stroke-linejoin="bevel" stroke-miterlimit="10" stroke-width="3">A</text><text fill="rgb(0,0,255)" stroke="none" font-family="geogebra-sans-serif, sans-serif" font-size="16px" font-style="normal" font-weight="normal" text-decoration="normal" x="23" y="241" text-anchor="start" dominant-baseline="alphabetic" fill-opacity="1">A</text><path fill="rgb(0,0,255)" stroke="none" paint-order="stroke fill markers" d=" M 239.99999999999955 221.99999999999997 C 239.99999999999955 223.10456949966155 239.10456949966112 223.99999999999997 237.99999999999955 223.99999999999997 C 236.89543050033797 223.99999999999997 235.99999999999955 223.10456949966155 235.99999999999955 221.99999999999997 C 235.99999999999955 220.8954305003384 236.89543050033797 219.99999999999997 237.99999999999955 219.99999999999997 C 239.10456949966112 219.99999999999997 239.99999999999955 220.8954305003384 239.99999999999955 221.99999999999997 Z" fill-opacity="1"/><path fill="none" stroke="rgb(0,0,0)" paint-order="fill stroke markers" d=" M 239.99999999999955 221.99999999999997 C 239.99999999999955 223.10456949966155 239.10456949966112 223.99999999999997 237.99999999999955 223.99999999999997 C 236.89543050033797 223.99999999999997 235.99999999999955 223.10456949966155 235.99999999999955 221.99999999999997 C 235.99999999999955 220.8954305003384 236.89543050033797 219.99999999999997 237.99999999999955 219.99999999999997 C 239.10456949966112 219.99999999999997 239.99999999999955 220.8954305003384 239.99999999999955 221.99999999999997 Z" stroke-opacity="1" stroke-linecap="round" stroke-linejoin="round" stroke-miterlimit="10"/><text fill="rgb(0,0,255)" stroke="none" font-family="geogebra-sans-serif, sans-serif" font-size="16px" font-style="normal" font-weight="normal" text-decoration="normal" x="247" y="240" text-anchor="start" dominant-baseline="alphabetic" fill-opacity="1">B</text><text fill="none" stroke="rgb(255,255,255)" font-family="geogebra-sans-serif, sans-serif" font-size="16px" font-style="normal" font-weight="normal" text-decoration="normal" x="247" y="240" text-anchor="start" dominant-baseline="alphabetic" stroke-opacity="1" stroke-linejoin="bevel" stroke-miterlimit="10" stroke-width="3">B</text><text fill="rgb(0,0,255)" stroke="none" font-family="geogebra-sans-serif, sans-serif" font-size="16px" font-style="normal" font-weight="normal" text-decoration="normal" x="247" y="240" text-anchor="start" dominant-baseline="alphabetic" fill-opacity="1">B</text><path fill="rgb(0,0,255)" stroke="none" paint-order="stroke fill markers" d=" M 139.9999999999997 48.79491924311219 C 139.9999999999997 49.89948874277378 139.10456949966127 50.79491924311219 137.9999999999997 50.79491924311219 C 136.8954305003381 50.79491924311219 135.9999999999997 49.89948874277378 135.9999999999997 48.79491924311219 C 135.9999999999997 47.690349743450604 136.8954305003381 46.79491924311219 137.9999999999997 46.79491924311219 C 139.10456949966127 46.79491924311219 139.9999999999997 47.690349743450604 139.9999999999997 48.79491924311219 Z" fill-opacity="1"/><path fill="none" stroke="rgb(0,0,0)" paint-order="fill stroke markers" d=" M 139.9999999999997 48.79491924311219 C 139.9999999999997 49.89948874277378 139.10456949966127 50.79491924311219 137.9999999999997 50.79491924311219 C 136.8954305003381 50.79491924311219 135.9999999999997 49.89948874277378 135.9999999999997 48.79491924311219 C 135.9999999999997 47.690349743450604 136.8954305003381 46.79491924311219 137.9999999999997 46.79491924311219 C 139.10456949966127 46.79491924311219 139.9999999999997 47.690349743450604 139.9999999999997 48.79491924311219 Z" stroke-opacity="1" stroke-linecap="round" stroke-linejoin="round" stroke-miterlimit="10"/><text fill="rgb(0,0,255)" stroke="none" font-family="geogebra-sans-serif, sans-serif" font-size="16px" font-style="normal" font-weight="normal" text-decoration="normal" x="132" y="33" text-anchor="start" dominant-baseline="alphabetic" fill-opacity="1">C</text><text fill="none" stroke="rgb(255,255,255)" font-family="geogebra-sans-serif, sans-serif" font-size="16px" font-style="normal" font-weight="normal" text-decoration="normal" x="132" y="33" text-anchor="start" dominant-baseline="alphabetic" stroke-opacity="1" stroke-linejoin="bevel" stroke-miterlimit="10" stroke-width="3">C</text><text fill="rgb(0,0,255)" stroke="none" font-family="geogebra-sans-serif, sans-serif" font-size="16px" font-style="normal" font-weight="normal" text-decoration="normal" x="132" y="33" text-anchor="start" dominant-baseline="alphabetic" fill-opacity="1">C</text><path fill="none" stroke="rgb(244,0,153)" paint-order="fill stroke markers" d=" M 69.99999999999972 168.99999999999994 L 73.99999999999972 173.49999999999994 C 75.46340582426174 175.0870357437559 77.12192038491679 176.80462510314575 78.99999999999969 178.49999999999994 C 80.87807961508256 180.19537489685416 82.97572428459327 181.86853533117267 84.49999999999969 183.49999999999994 C 86.02427571540613 185.13146466882725 86.97518247670834 186.72123357216327 87.99999999999969 187.99999999999997 C 89.024817523291 189.27876642783664 90.12354580857144 190.24653038017397 91.99999999999969 191.99999999999994 L 98.49999999999966 197.99999999999997 C 100.46936571099539 199.7073550928593 101.75391703541092 200.5828899912633 102.99999999999966 200.99999999999997 C 104.24608296458837 201.41711000873664 105.45369756935014 201.37579512780596 106.99999999999966 201.99999999999997 C 108.54630243064915 202.624204872194 110.4312926871863 203.9139294975128 113.49999999999963 204.49999999999997 C 116.56870731281299 205.08607050248713 120.82113168190247 204.9684868821426 123.99999999999966 204.99999999999997 C 127.17886831809685 205.03151311785734 129.28418058520174 205.21212297391662 130.99999999999963 204.99999999999997 C 132.71581941479752 204.78787702608332 134.04214597728844 204.18302122219083 136.99999999999963 202.49999999999997 C 139.95785402271082 200.8169787778091 144.5472355056424 198.05579213731994 147.49999999999963 195.99999999999997 C 150.4527644943569 193.94420786268 151.76891200013978 192.5938102285293 153.4999999999996 190.99999999999994 C 155.2310879998594 189.40618977147062 157.3771164937962 187.56896694856266 159.4999999999996 185.99999999999997 C 161.62288350620298 184.43103305143728 163.72262202467286 183.13032197721986 165.4999999999996 181.49999999999994 C 167.27737797532632 179.86967802278002 168.7323954075098 177.90974514255765 170.4999999999996 175.99999999999994 C 172.2676045924894 174.0902548574423 174.34779634528547 172.2306974525493 175.99999999999957 170.49999999999997 C 177.65220365471367 168.76930254745065 178.8764192113456 167.167465047245 179.99999999999957 165.99999999999994 C 181.12358078865358 164.83253495275488 182.1465268093295 164.09944235847036 183.99999999999957 162.99999999999994 C 185.85347319066966 161.90055764152953 188.53747355133382 160.4347655188733 190.49999999999957 159.49999999999994 C 192.4625264486653 158.56523448112662 193.70357898533265 158.16149556603614 194.99999999999955 157.99999999999994 C 196.29642101466646 157.83850443396375 197.64821050733303 157.91925221698187 198.99999999999955 157.99999999999994" stroke-opacity="0.8470588235294118" stroke-linecap="round" stroke-linejoin="round" stroke-miterlimit="10" stroke-width="1.5"/></g></g></svg>