<svg version="1.1" xmlns="http://www.w3.org/2000/svg" xmlns:xlink="http://www.w3.org/1999/xlink" width="330" height="71"><defs><clipPath id="dQBNWTIzhMCQ"><path fill="none" stroke="none" d=" M 0 0 L 330 0 L 330 71 L 0 71 L 0 0 Z"/></clipPath></defs><g transform="scale(1,1)" clip-path="url(#dQBNWTIzhMCQ)"><g><rect fill="rgb(255,255,255)" stroke="none" x="0" y="0" width="330" height="71" fill-opacity="1"/><path fill="none" stroke="rgb(0,100,0)" paint-order="fill stroke markers" d=" M 35.49999999999989 39.5000000000002 L 285.49999999999966 39.5000000000002" stroke-opacity="0.6980392156862745" stroke-linecap="round" stroke-linejoin="round" stroke-miterlimit="10"/><path fill="rgb(0,0,255)" stroke="none" paint-order="stroke fill markers" d=" M 37.49999999999989 39.5000000000002 C 37.49999999999989 40.604569499661785 36.60456949966148 41.5000000000002 35.49999999999989 41.5000000000002 C 34.39543050033831 41.5000000000002 33.49999999999989 40.604569499661785 33.49999999999989 39.5000000000002 C 33.49999999999989 38.39543050033861 34.39543050033831 37.5000000000002 35.49999999999989 37.5000000000002 C 36.60456949966148 37.5000000000002 37.49999999999989 38.39543050033861 37.49999999999989 39.5000000000002 Z" fill-opacity="1"/><path fill="none" stroke="rgb(0,0,0)" paint-order="fill stroke markers" d=" M 37.49999999999989 39.5000000000002 C 37.49999999999989 40.604569499661785 36.60456949966148 41.5000000000002 35.49999999999989 41.5000000000002 C 34.39543050033831 41.5000000000002 33.49999999999989 40.604569499661785 33.49999999999989 39.5000000000002 C 33.49999999999989 38.39543050033861 34.39543050033831 37.5000000000002 35.49999999999989 37.5000000000002 C 36.60456949966148 37.5000000000002 37.49999999999989 38.39543050033861 37.49999999999989 39.5000000000002 Z" stroke-opacity="1" stroke-linecap="round" stroke-linejoin="round" stroke-miterlimit="10"/><text fill="rgb(0,0,255)" stroke="none" font-family="geogebra-sans-serif, sans-serif" font-size="16px" font-style="normal" font-weight="normal" text-decoration="normal" x="18" y="29" text-anchor="start" dominant-baseline="alphabetic" fill-opacity="1">O</text><text fill="none" stroke="rgb(255,255,255)" font-family="geogebra-sans-serif, sans-serif" font-size="16px" font-style="normal" font-weight="normal" text-decoration="normal" x="18" y="29" text-anchor="start" dominant-baseline="alphabetic" stroke-opacity="1" stroke-linejoin="bevel" stroke-miterlimit="10" stroke-width="3">O</text><text fill="rgb(0,0,255)" stroke="none" font-family="geogebra-sans-serif, sans-serif" font-size="16px" font-style="normal" font-weight="normal" text-decoration="normal" x="18" y="29" text-anchor="start" dominant-baseline="alphabetic" fill-opacity="1">O</text><path fill="rgb(0,0,255)" stroke="none" paint-order="stroke fill markers" d=" M 87.49999999999984 39.5000000000002 C 87.49999999999984 40.604569499661785 86.60456949966144 41.5000000000002 85.49999999999984 41.5000000000002 C 84.39543050033825 41.5000000000002 83.49999999999984 40.604569499661785 83.49999999999984 39.5000000000002 C 83.49999999999984 38.39543050033861 84.39543050033825 37.5000000000002 85.49999999999984 37.5000000000002 C 86.60456949966144 37.5000000000002 87.49999999999984 38.39543050033861 87.49999999999984 39.5000000000002 Z" fill-opacity="1"/><path fill="none" stroke="rgb(0,0,0)" paint-order="fill stroke markers" d=" M 87.49999999999984 39.5000000000002 C 87.49999999999984 40.604569499661785 86.60456949966144 41.5000000000002 85.49999999999984 41.5000000000002 C 84.39543050033825 41.5000000000002 83.49999999999984 40.604569499661785 83.49999999999984 39.5000000000002 C 83.49999999999984 38.39543050033861 84.39543050033825 37.5000000000002 85.49999999999984 37.5000000000002 C 86.60456949966144 37.5000000000002 87.49999999999984 38.39543050033861 87.49999999999984 39.5000000000002 Z" stroke-opacity="1" stroke-linecap="round" stroke-linejoin="round" stroke-miterlimit="10"/><text fill="rgb(0,0,255)" stroke="none" font-family="geogebra-sans-serif, sans-serif" font-size="16px" font-style="normal" font-weight="normal" text-decoration="normal" x="92" y="29" text-anchor="start" dominant-baseline="alphabetic" fill-opacity="1">A</text><text fill="none" stroke="rgb(255,255,255)" font-family="geogebra-sans-serif, sans-serif" font-size="16px" font-style="normal" font-weight="normal" text-decoration="normal" x="92" y="29" text-anchor="start" dominant-baseline="alphabetic" stroke-opacity="1" stroke-linejoin="bevel" stroke-miterlimit="10" stroke-width="3">A</text><text fill="rgb(0,0,255)" stroke="none" font-family="geogebra-sans-serif, sans-serif" font-size="16px" font-style="normal" font-weight="normal" text-decoration="normal" x="92" y="29" text-anchor="start" dominant-baseline="alphabetic" fill-opacity="1">A</text><path fill="rgb(0,0,255)" stroke="none" paint-order="stroke fill markers" d=" M 187.49999999999974 39.5000000000002 C 187.49999999999974 40.604569499661785 186.60456949966132 41.5000000000002 185.49999999999974 41.5000000000002 C 184.39543050033816 41.5000000000002 183.49999999999974 40.604569499661785 183.49999999999974 39.5000000000002 C 183.49999999999974 38.39543050033861 184.39543050033816 37.5000000000002 185.49999999999974 37.5000000000002 C 186.60456949966132 37.5000000000002 187.49999999999974 38.39543050033861 187.49999999999974 39.5000000000002 Z" fill-opacity="1"/><path fill="none" stroke="rgb(0,0,0)" paint-order="fill stroke markers" d=" M 187.49999999999974 39.5000000000002 C 187.49999999999974 40.604569499661785 186.60456949966132 41.5000000000002 185.49999999999974 41.5000000000002 C 184.39543050033816 41.5000000000002 183.49999999999974 40.604569499661785 183.49999999999974 39.5000000000002 C 183.49999999999974 38.39543050033861 184.39543050033816 37.5000000000002 185.49999999999974 37.5000000000002 C 186.60456949966132 37.5000000000002 187.49999999999974 38.39543050033861 187.49999999999974 39.5000000000002 Z" stroke-opacity="1" stroke-linecap="round" stroke-linejoin="round" stroke-miterlimit="10"/><text fill="rgb(0,0,255)" stroke="none" font-family="geogebra-sans-serif, sans-serif" font-size="16px" font-style="normal" font-weight="normal" text-decoration="normal" x="195" y="28" text-anchor="start" dominant-baseline="alphabetic" fill-opacity="1">O'</text><text fill="none" stroke="rgb(255,255,255)" font-family="geogebra-sans-serif, sans-serif" font-size="16px" font-style="normal" font-weight="normal" text-decoration="normal" x="195" y="28" text-anchor="start" dominant-baseline="alphabetic" stroke-opacity="1" stroke-linejoin="bevel" stroke-miterlimit="10" stroke-width="3">O'</text><text fill="rgb(0,0,255)" stroke="none" font-family="geogebra-sans-serif, sans-serif" font-size="16px" font-style="normal" font-weight="normal" text-decoration="normal" x="195" y="28" text-anchor="start" dominant-baseline="alphabetic" fill-opacity="1">O'</text><path fill="rgb(0,0,255)" stroke="none" paint-order="stroke fill markers" d=" M 287.49999999999966 39.5000000000002 C 287.49999999999966 40.604569499661785 286.60456949966124 41.5000000000002 285.49999999999966 41.5000000000002 C 284.3954305003381 41.5000000000002 283.49999999999966 40.604569499661785 283.49999999999966 39.5000000000002 C 283.49999999999966 38.39543050033861 284.3954305003381 37.5000000000002 285.49999999999966 37.5000000000002 C 286.60456949966124 37.5000000000002 287.49999999999966 38.39543050033861 287.49999999999966 39.5000000000002 Z" fill-opacity="1"/><path fill="none" stroke="rgb(0,0,0)" paint-order="fill stroke markers" d=" M 287.49999999999966 39.5000000000002 C 287.49999999999966 40.604569499661785 286.60456949966124 41.5000000000002 285.49999999999966 41.5000000000002 C 284.3954305003381 41.5000000000002 283.49999999999966 40.604569499661785 283.49999999999966 39.5000000000002 C 283.49999999999966 38.39543050033861 284.3954305003381 37.5000000000002 285.49999999999966 37.5000000000002 C 286.60456949966124 37.5000000000002 287.49999999999966 38.39543050033861 287.49999999999966 39.5000000000002 Z" stroke-opacity="1" stroke-linecap="round" stroke-linejoin="round" stroke-miterlimit="10"/><text fill="rgb(0,0,255)" stroke="none" font-family="geogebra-sans-serif, sans-serif" font-size="16px" font-style="normal" font-weight="normal" text-decoration="normal" x="293" y="31" text-anchor="start" dominant-baseline="alphabetic" fill-opacity="1">Z</text><text fill="none" stroke="rgb(255,255,255)" font-family="geogebra-sans-serif, sans-serif" font-size="16px" font-style="normal" font-weight="normal" text-decoration="normal" x="293" y="31" text-anchor="start" dominant-baseline="alphabetic" stroke-opacity="1" stroke-linejoin="bevel" stroke-miterlimit="10" stroke-width="3">Z</text><text fill="rgb(0,0,255)" stroke="none" font-family="geogebra-sans-serif, sans-serif" font-size="16px" font-style="normal" font-weight="normal" text-decoration="normal" x="293" y="31" text-anchor="start" dominant-baseline="alphabetic" fill-opacity="1">Z</text></g></g></svg>