<svg version="1.1" xmlns="http://www.w3.org/2000/svg" xmlns:xlink="http://www.w3.org/1999/xlink" width="356" height="294"><defs><clipPath id="BOehIwBNRTbC"><path fill="none" stroke="none" d=" M 0 0 L 356 0 L 356 294 L 0 294 L 0 0 Z"/></clipPath></defs><g transform="scale(1,1)" clip-path="url(#BOehIwBNRTbC)"><g><rect fill="rgb(255,255,255)" stroke="none" x="0" y="0" width="356" height="294" fill-opacity="1"/><path fill="none" stroke="rgb(192,192,192)" paint-order="fill stroke markers" d=" M 36.5 0.5 L 36.5 294.5 M 36.5 0.5 L 36.5 294.5 M 86.5 0.5 L 86.5 294.5 M 136.5 0.5 L 136.5 294.5 M 236.5 0.5 L 236.5 294.5 M 286.5 0.5 L 286.5 294.5 M 336.5 0.5 L 336.5 294.5" stroke-opacity="1" stroke-linecap="round" stroke-linejoin="round" stroke-miterlimit="10"/><path fill="none" stroke="rgb(192,192,192)" paint-order="fill stroke markers" d="" stroke-opacity="0.23529411764705882" stroke-linecap="round" stroke-linejoin="round" stroke-miterlimit="10"/><path fill="none" stroke="rgb(192,192,192)" paint-order="fill stroke markers" d=" M 0.5 2.5 L 356.5 2.5 M 0.5 2.5 L 356.5 2.5 M 0.5 52.5 L 356.5 52.5 M 0.5 102.5 L 356.5 102.5 M 0.5 202.5 L 356.5 202.5 M 0.5 252.5 L 356.5 252.5" stroke-opacity="1" stroke-linecap="round" stroke-linejoin="round" stroke-miterlimit="10"/><path fill="none" stroke="rgb(192,192,192)" paint-order="fill stroke markers" d="" stroke-opacity="0.23529411764705882" stroke-linecap="round" stroke-linejoin="round" stroke-miterlimit="10"/><path fill="none" stroke="rgb(0,0,0)" paint-order="fill stroke markers" d=" M 186.5 2.5 L 186.5 294.5" stroke-opacity="1" stroke-miterlimit="10"/><path fill="none" stroke="rgb(0,0,0)" paint-order="fill stroke markers" d=" M 186.5 1.5 L 182.5 5.5" stroke-opacity="1" stroke-miterlimit="10"/><path fill="none" stroke="rgb(0,0,0)" paint-order="fill stroke markers" d=" M 186.5 1.5 L 190.5 5.5" stroke-opacity="1" stroke-miterlimit="10"/><path fill="none" stroke="rgb(0,0,0)" paint-order="fill stroke markers" d=" M 0.5 152.5 L 354.5 152.5" stroke-opacity="1" stroke-miterlimit="10"/><path fill="none" stroke="rgb(0,0,0)" paint-order="fill stroke markers" d=" M 355.5 152.5 L 351.5 148.5" stroke-opacity="1" stroke-miterlimit="10"/><path fill="none" stroke="rgb(0,0,0)" paint-order="fill stroke markers" d=" M 355.5 152.5 L 351.5 156.5" stroke-opacity="1" stroke-miterlimit="10"/><path fill="none" stroke="rgb(153,51,0)" paint-order="fill stroke markers" d=" M 286.49999999999983 102.50000000000009 L 236.49999999999986 52.50000000000013" stroke-opacity="0.6980392156862745" stroke-linecap="round" stroke-linejoin="round" stroke-miterlimit="10" stroke-width="0.5"/><path fill="none" stroke="rgb(153,51,0)" paint-order="fill stroke markers" d=" M 236.49999999999986 52.50000000000013 L 86.49999999999993 202.49999999999997" stroke-opacity="0.6980392156862745" stroke-linecap="round" stroke-linejoin="round" stroke-miterlimit="10" stroke-width="0.5"/><path fill="none" stroke="rgb(153,51,0)" paint-order="fill stroke markers" d=" M 86.49999999999993 202.49999999999997 L 136.49999999999991 252.49999999999994" stroke-opacity="0.6980392156862745" stroke-linecap="round" stroke-linejoin="round" stroke-miterlimit="10" stroke-width="0.5"/><path fill="none" stroke="rgb(153,51,0)" paint-order="fill stroke markers" d=" M 136.49999999999991 252.49999999999994 L 286.49999999999983 102.50000000000009" stroke-opacity="0.6980392156862745" stroke-linecap="round" stroke-linejoin="round" stroke-miterlimit="10" stroke-width="0.5"/><path fill="rgb(0,0,255)" stroke="none" paint-order="stroke fill markers" d=" M 288.49999999999983 102.50000000000009 C 288.49999999999983 103.60456949966166 287.6045694996614 104.50000000000009 286.49999999999983 104.50000000000009 C 285.39543050033825 104.50000000000009 284.49999999999983 103.60456949966166 284.49999999999983 102.50000000000009 C 284.49999999999983 101.39543050033849 285.39543050033825 100.50000000000009 286.49999999999983 100.50000000000009 C 287.6045694996614 100.50000000000009 288.49999999999983 101.39543050033849 288.49999999999983 102.50000000000009 Z" fill-opacity="1"/><path fill="none" stroke="rgb(0,0,0)" paint-order="fill stroke markers" d=" M 288.49999999999983 102.50000000000009 C 288.49999999999983 103.60456949966166 287.6045694996614 104.50000000000009 286.49999999999983 104.50000000000009 C 285.39543050033825 104.50000000000009 284.49999999999983 103.60456949966166 284.49999999999983 102.50000000000009 C 284.49999999999983 101.39543050033849 285.39543050033825 100.50000000000009 286.49999999999983 100.50000000000009 C 287.6045694996614 100.50000000000009 288.49999999999983 101.39543050033849 288.49999999999983 102.50000000000009 Z" stroke-opacity="1" stroke-linecap="round" stroke-linejoin="round" stroke-miterlimit="10"/><text fill="rgb(0,0,255)" stroke="none" font-family="geogebra-sans-serif, sans-serif" font-size="16px" font-style="normal" font-weight="normal" text-decoration="normal" x="291" y="96" text-anchor="start" dominant-baseline="alphabetic" fill-opacity="1">P(a,b)</text><text fill="none" stroke="rgb(255,255,255)" font-family="geogebra-sans-serif, sans-serif" font-size="16px" font-style="normal" font-weight="normal" text-decoration="normal" x="291" y="96" text-anchor="start" dominant-baseline="alphabetic" stroke-opacity="1" stroke-linejoin="bevel" stroke-miterlimit="10" stroke-width="3">P(a,b)</text><text fill="rgb(0,0,255)" stroke="none" font-family="geogebra-sans-serif, sans-serif" font-size="16px" font-style="normal" font-weight="normal" text-decoration="normal" x="291" y="96" text-anchor="start" dominant-baseline="alphabetic" fill-opacity="1">P(a,b)</text><path fill="rgb(0,0,255)" stroke="none" paint-order="stroke fill markers" d=" M 238.49999999999986 52.50000000000013 C 238.49999999999986 53.604569499661714 237.60456949966144 54.50000000000013 236.49999999999986 54.50000000000013 C 235.39543050033828 54.50000000000013 234.49999999999986 53.604569499661714 234.49999999999986 52.50000000000013 C 234.49999999999986 51.39543050033854 235.39543050033828 50.50000000000013 236.49999999999986 50.50000000000013 C 237.60456949966144 50.50000000000013 238.49999999999986 51.39543050033854 238.49999999999986 52.50000000000013 Z" fill-opacity="1"/><path fill="none" stroke="rgb(0,0,0)" paint-order="fill stroke markers" d=" M 238.49999999999986 52.50000000000013 C 238.49999999999986 53.604569499661714 237.60456949966144 54.50000000000013 236.49999999999986 54.50000000000013 C 235.39543050033828 54.50000000000013 234.49999999999986 53.604569499661714 234.49999999999986 52.50000000000013 C 234.49999999999986 51.39543050033854 235.39543050033828 50.50000000000013 236.49999999999986 50.50000000000013 C 237.60456949966144 50.50000000000013 238.49999999999986 51.39543050033854 238.49999999999986 52.50000000000013 Z" stroke-opacity="1" stroke-linecap="round" stroke-linejoin="round" stroke-miterlimit="10"/><text fill="rgb(0,0,255)" stroke="none" font-family="geogebra-sans-serif, sans-serif" font-size="16px" font-style="normal" font-weight="normal" text-decoration="normal" x="215" y="34" text-anchor="start" dominant-baseline="alphabetic" fill-opacity="1">Q(b,a)</text><text fill="none" stroke="rgb(255,255,255)" font-family="geogebra-sans-serif, sans-serif" font-size="16px" font-style="normal" font-weight="normal" text-decoration="normal" x="215" y="34" text-anchor="start" dominant-baseline="alphabetic" stroke-opacity="1" stroke-linejoin="bevel" stroke-miterlimit="10" stroke-width="3">Q(b,a)</text><text fill="rgb(0,0,255)" stroke="none" font-family="geogebra-sans-serif, sans-serif" font-size="16px" font-style="normal" font-weight="normal" text-decoration="normal" x="215" y="34" text-anchor="start" dominant-baseline="alphabetic" fill-opacity="1">Q(b,a)</text><path fill="rgb(0,0,255)" stroke="none" paint-order="stroke fill markers" d=" M 88.49999999999993 202.49999999999997 C 88.49999999999993 203.60456949966155 87.60456949966152 204.49999999999997 86.49999999999993 204.49999999999997 C 85.39543050033834 204.49999999999997 84.49999999999993 203.60456949966155 84.49999999999993 202.49999999999997 C 84.49999999999993 201.3954305003384 85.39543050033834 200.49999999999997 86.49999999999993 200.49999999999997 C 87.60456949966152 200.49999999999997 88.49999999999993 201.3954305003384 88.49999999999993 202.49999999999997 Z" fill-opacity="1"/><path fill="none" stroke="rgb(0,0,0)" paint-order="fill stroke markers" d=" M 88.49999999999993 202.49999999999997 C 88.49999999999993 203.60456949966155 87.60456949966152 204.49999999999997 86.49999999999993 204.49999999999997 C 85.39543050033834 204.49999999999997 84.49999999999993 203.60456949966155 84.49999999999993 202.49999999999997 C 84.49999999999993 201.3954305003384 85.39543050033834 200.49999999999997 86.49999999999993 200.49999999999997 C 87.60456949966152 200.49999999999997 88.49999999999993 201.3954305003384 88.49999999999993 202.49999999999997 Z" stroke-opacity="1" stroke-linecap="round" stroke-linejoin="round" stroke-miterlimit="10"/><text fill="rgb(0,0,255)" stroke="none" font-family="geogebra-sans-serif, sans-serif" font-size="16px" font-style="normal" font-weight="normal" text-decoration="normal" x="31" y="185" text-anchor="start" dominant-baseline="alphabetic" fill-opacity="1">R(-a,-b)</text><text fill="none" stroke="rgb(255,255,255)" font-family="geogebra-sans-serif, sans-serif" font-size="16px" font-style="normal" font-weight="normal" text-decoration="normal" x="31" y="185" text-anchor="start" dominant-baseline="alphabetic" stroke-opacity="1" stroke-linejoin="bevel" stroke-miterlimit="10" stroke-width="3">R(-a,-b)</text><text fill="rgb(0,0,255)" stroke="none" font-family="geogebra-sans-serif, sans-serif" font-size="16px" font-style="normal" font-weight="normal" text-decoration="normal" x="31" y="185" text-anchor="start" dominant-baseline="alphabetic" fill-opacity="1">R(-a,-b)</text><path fill="rgb(0,0,255)" stroke="none" paint-order="stroke fill markers" d=" M 138.49999999999991 252.49999999999994 C 138.49999999999991 253.60456949966152 137.6045694996615 254.49999999999994 136.49999999999991 254.49999999999994 C 135.39543050033834 254.49999999999994 134.49999999999991 253.60456949966152 134.49999999999991 252.49999999999994 C 134.49999999999991 251.39543050033836 135.39543050033834 250.49999999999994 136.49999999999991 250.49999999999994 C 137.6045694996615 250.49999999999994 138.49999999999991 251.39543050033836 138.49999999999991 252.49999999999994 Z" fill-opacity="1"/><path fill="none" stroke="rgb(0,0,0)" paint-order="fill stroke markers" d=" M 138.49999999999991 252.49999999999994 C 138.49999999999991 253.60456949966152 137.6045694996615 254.49999999999994 136.49999999999991 254.49999999999994 C 135.39543050033834 254.49999999999994 134.49999999999991 253.60456949966152 134.49999999999991 252.49999999999994 C 134.49999999999991 251.39543050033836 135.39543050033834 250.49999999999994 136.49999999999991 250.49999999999994 C 137.6045694996615 250.49999999999994 138.49999999999991 251.39543050033836 138.49999999999991 252.49999999999994 Z" stroke-opacity="1" stroke-linecap="round" stroke-linejoin="round" stroke-miterlimit="10"/><text fill="rgb(0,0,255)" stroke="none" font-family="geogebra-sans-serif, sans-serif" font-size="16px" font-style="normal" font-weight="normal" text-decoration="normal" x="105" y="277" text-anchor="start" dominant-baseline="alphabetic" fill-opacity="1">S(-b,-a)</text><text fill="none" stroke="rgb(255,255,255)" font-family="geogebra-sans-serif, sans-serif" font-size="16px" font-style="normal" font-weight="normal" text-decoration="normal" x="105" y="277" text-anchor="start" dominant-baseline="alphabetic" stroke-opacity="1" stroke-linejoin="bevel" stroke-miterlimit="10" stroke-width="3">S(-b,-a)</text><text fill="rgb(0,0,255)" stroke="none" font-family="geogebra-sans-serif, sans-serif" font-size="16px" font-style="normal" font-weight="normal" text-decoration="normal" x="105" y="277" text-anchor="start" dominant-baseline="alphabetic" fill-opacity="1">S(-b,-a)</text></g></g></svg>