<svg version="1.1" xmlns="http://www.w3.org/2000/svg" xmlns:xlink="http://www.w3.org/1999/xlink" width="448" height="231"><defs><clipPath id="iwaXuNsnLlVx"><path fill="none" stroke="none" d=" M 0 0 L 448 0 L 448 231 L 0 231 L 0 0 Z"/></clipPath></defs><g transform="scale(1,1)" clip-path="url(#iwaXuNsnLlVx)"><g><rect fill="rgb(255,255,255)" stroke="none" x="0" y="0" width="448" height="231" fill-opacity="1"/><path fill="none" stroke="rgb(244,0,153)" paint-order="fill stroke markers" d=" M 103.19547634650905 67.50150259413005 C 110.28565395900401 122.22821471200515 147.43822042201828 168.3695882890636 199.39223021466958 186.97239733164042 C 251.3462400073209 205.5752063742173 309.3428522587918 193.50323397038557 349.55913293714843 155.71521462285784 C 389.7754136155051 117.92719527533012 405.43136625303157 60.7937488767633 390.0960854500522 7.783251798323526" stroke-opacity="0.6980392156862745" stroke-linecap="round" stroke-linejoin="round" stroke-miterlimit="10" stroke-width="0.5"/><path fill="rgb(0,153,204)" stroke="none" paint-order="stroke fill markers" d=" M 128.74674699208347 106.57145417193709 C 120.45261958511082 104.54504804409717 111.78671075339022 108.00737826172389 107.17237289506517 115.19116259640924 C 102.55803503674014 122.37494693109458 103.01294560976947 131.69582472163182 108.30490395139239 138.39612681546086 L 123.99999999999989 126.00000000000013 Z" fill-opacity="0.09803921568627451"/><path fill="none" stroke="rgb(0,153,204)" paint-order="fill stroke markers" d=" M 128.74674699208347 106.57145417193709 C 120.45261958511082 104.54504804409717 111.78671075339022 108.00737826172389 107.17237289506517 115.19116259640924 C 102.55803503674014 122.37494693109458 103.01294560976947 131.69582472163182 108.30490395139239 138.39612681546086 L 123.99999999999989 126.00000000000013 Z" stroke-opacity="0.6980392156862745" stroke-linecap="round" stroke-linejoin="round" stroke-miterlimit="10" stroke-width="0.5"/><path fill="none" stroke="rgb(0,153,204)" paint-order="fill stroke markers" d=" M 109.4861716219937 116.67737773940298 L 104.85857416813667 113.7049474534155" stroke-opacity="0.6980392156862745" stroke-linecap="round" stroke-linejoin="round" stroke-miterlimit="10" stroke-width="0.5"/><path fill="rgb(0,204,0)" stroke="none" paint-order="stroke fill markers" d=" M 142.8086438041541 132.7996263315311 C 144.31907277680918 128.62158489910615 144.3953946483873 124.05956112463649 143.02556764865525 119.83333350614495 L 123.99999999999989 126.00000000000013 Z" fill-opacity="0.09803921568627451"/><path fill="none" stroke="rgb(0,204,0)" paint-order="fill stroke markers" d=" M 142.8086438041541 132.7996263315311 C 144.31907277680918 128.62158489910615 144.3953946483873 124.05956112463649 143.02556764865525 119.83333350614495 L 123.99999999999989 126.00000000000013 Z" stroke-opacity="0.6980392156862745" stroke-linecap="round" stroke-linejoin="round" stroke-miterlimit="10" stroke-width="0.5"/><path fill="none" stroke="rgb(0,204,0)" paint-order="fill stroke markers" d=" M 138.5766989482194 131.26971040693664 C 139.74728140202708 128.0317282968073 139.80643085250014 124.4961598715933 138.74481492770778 121.22083346726237" stroke-opacity="0.6980392156862745" stroke-linecap="round" stroke-linejoin="round" stroke-miterlimit="10" stroke-width="0.5"/><path fill="rgb(0,153,204)" stroke="none" paint-order="stroke fill markers" d=" M 378.7580677729725 106.35081264377331 C 370.4567833854706 104.31748582237668 361.7807901974629 107.78381354213164 357.1659894936122 114.97751599000458 C 352.55118878976145 122.17121843787753 353.0175117271406 131.50239352878498 358.3265345919265 138.20015559278625 L 373.9999001532664 125.77656464730667 Z" fill-opacity="0.09803921568627451"/><path fill="none" stroke="rgb(0,153,204)" paint-order="fill stroke markers" d=" M 378.7580677729725 106.35081264377331 C 370.4567833854706 104.31748582237668 361.7807901974629 107.78381354213164 357.1659894936122 114.97751599000458 C 352.55118878976145 122.17121843787753 353.0175117271406 131.50239352878498 358.3265345919265 138.20015559278625 L 373.9999001532664 125.77656464730667 Z" stroke-opacity="0.6980392156862745" stroke-linecap="round" stroke-linejoin="round" stroke-miterlimit="10" stroke-width="0.5"/><path fill="none" stroke="rgb(0,153,204)" paint-order="fill stroke markers" d=" M 359.48065220931466 116.46238518038362 L 354.8513267779097 113.49264679962555" stroke-opacity="0.6980392156862745" stroke-linecap="round" stroke-linejoin="round" stroke-miterlimit="10" stroke-width="0.5"/><path fill="rgb(255,127,0)" stroke="none" paint-order="stroke fill markers" d=" M 140.7532530079163 57.42854582806284 C 146.71772714928326 58.88577530578317 153.02103114209407 57.52261663029354 157.85040606940356 53.73109881479452 C 162.67978099671308 49.93958099929551 165.49999999999983 44.13990794179928 165.49999999999983 37.9999999999998 L 145.4999999999999 37.9999999999998 Z" fill-opacity="0.09803921568627451"/><path fill="none" stroke="rgb(255,127,0)" paint-order="fill stroke markers" d=" M 140.7532530079163 57.42854582806284 C 146.71772714928326 58.88577530578317 153.02103114209407 57.52261663029354 157.85040606940356 53.73109881479452 C 162.67978099671308 49.93958099929551 165.49999999999983 44.13990794179928 165.49999999999983 37.9999999999998 L 145.4999999999999 37.9999999999998 Z" stroke-opacity="0.6980392156862745" stroke-linecap="round" stroke-linejoin="round" stroke-miterlimit="10"/><path fill="none" stroke="rgb(255,127,0)" paint-order="fill stroke markers" d=" M 152.72995097206797 53.38596142402175 L 155.28169837397434 58.81630075014715" stroke-opacity="0.6980392156862745" stroke-linecap="round" stroke-linejoin="round" stroke-miterlimit="10"/><path fill="none" stroke="rgb(255,127,0)" paint-order="fill stroke markers" d=" M 158.73040543029208 48.675034995263005 L 163.39996028804225 52.4426944053559" stroke-opacity="0.6980392156862745" stroke-linecap="round" stroke-linejoin="round" stroke-miterlimit="10"/><path fill="none" stroke="rgb(255,127,0)" paint-order="fill stroke markers" d=" M 155.99784515899302 51.37143399257531 L 159.7029669798141 56.09076363701373" stroke-opacity="0.6980392156862745" stroke-linecap="round" stroke-linejoin="round" stroke-miterlimit="10"/><path fill="rgb(255,127,0)" stroke="none" paint-order="stroke fill markers" d=" M 306.59400392450453 171.35899411324348 C 301.48096443466517 167.95030112001723 295.08474052045574 167.08134994051096 289.2476320481217 169.0024239705611 C 283.4105235757877 170.92349800061123 278.7805783369747 175.42131564905623 276.69135619584574 181.20037366846935 L 295.5 188.00000000000034 Z" fill-opacity="0.09803921568627451"/><path fill="none" stroke="rgb(255,127,0)" paint-order="fill stroke markers" d=" M 306.59400392450453 171.35899411324348 C 301.48096443466517 167.95030112001723 295.08474052045574 167.08134994051096 289.2476320481217 169.0024239705611 C 283.4105235757877 170.92349800061123 278.7805783369747 175.42131564905623 276.69135619584574 181.20037366846935 L 295.5 188.00000000000034 Z" stroke-opacity="0.6980392156862745" stroke-linecap="round" stroke-linejoin="round" stroke-miterlimit="10"/><path fill="none" stroke="rgb(255,127,0)" paint-order="fill stroke markers" d=" M 293.9473364468162 171.07105331420163 L 293.3993375456925 165.096130954508" stroke-opacity="0.6980392156862745" stroke-linecap="round" stroke-linejoin="round" stroke-miterlimit="10"/><path fill="none" stroke="rgb(255,127,0)" paint-order="fill stroke markers" d=" M 286.69509160472336 173.45786851418347 L 283.58747687697866 168.32535151918927" stroke-opacity="0.6980392156862745" stroke-linecap="round" stroke-linejoin="round" stroke-miterlimit="10"/><path fill="none" stroke="rgb(255,127,0)" paint-order="fill stroke markers" d=" M 290.18548724090346 171.85206037497696 L 288.30977685534 166.15278756614518" stroke-opacity="0.6980392156862745" stroke-linecap="round" stroke-linejoin="round" stroke-miterlimit="10"/><path fill="none" stroke="rgb(0,100,0)" paint-order="fill stroke markers" d=" M 45.49999999999983 188.00000000000034 L 145.4999999999999 37.9999999999998" stroke-opacity="0.6980392156862745" stroke-linecap="round" stroke-linejoin="round" stroke-miterlimit="10" stroke-width="0.5"/><path fill="none" stroke="rgb(0,100,0)" paint-order="fill stroke markers" d=" M 145.4999999999999 37.9999999999998 L 395.5 37.9999999999998" stroke-opacity="0.6980392156862745" stroke-linecap="round" stroke-linejoin="round" stroke-miterlimit="10" stroke-width="0.5"/><path fill="none" stroke="rgb(0,100,0)" paint-order="fill stroke markers" d=" M 395.5 37.9999999999998 L 295.5 188.00000000000034" stroke-opacity="0.6980392156862745" stroke-linecap="round" stroke-linejoin="round" stroke-miterlimit="10" stroke-width="0.5"/><path fill="none" stroke="rgb(0,100,0)" paint-order="fill stroke markers" d=" M 145.4999999999999 37.9999999999998 L 123.99999999999989 126.00000000000013" stroke-opacity="0.6980392156862745" stroke-linecap="round" stroke-linejoin="round" stroke-miterlimit="10" stroke-width="0.5"/><path fill="none" stroke="rgb(0,100,0)" paint-order="fill stroke markers" d=" M 123.99999999999989 126.00000000000013 L 45.49999999999983 188.00000000000034" stroke-opacity="0.6980392156862745" stroke-linecap="round" stroke-linejoin="round" stroke-miterlimit="10" stroke-width="0.5"/><path fill="none" stroke="rgb(0,100,0)" paint-order="fill stroke markers" d=" M 295.5 188.00000000000034 L 123.99999999999989 126.00000000000013" stroke-opacity="0.6980392156862745" stroke-linecap="round" stroke-linejoin="round" stroke-miterlimit="10" stroke-width="0.5"/><path fill="none" stroke="rgb(0,100,0)" paint-order="fill stroke markers" d=" M 123.99999999999989 126.00000000000013 L 395.5 37.9999999999998" stroke-opacity="0.6980392156862745" stroke-linecap="round" stroke-linejoin="round" stroke-miterlimit="10" stroke-width="0.5"/><path fill="none" stroke="rgb(0,100,0)" paint-order="fill stroke markers" d=" M 373.9999001532664 125.77656464730667 L 374.00000000000006 126.00000000000011" stroke-opacity="0.6980392156862745" stroke-linecap="round" stroke-linejoin="round" stroke-miterlimit="10" stroke-width="0.5"/><path fill="none" stroke="rgb(153,51,255)" paint-order="fill stroke markers" d=" M 395.5 37.9999999999998 L 373.9999001532664 125.77656464730667" stroke-opacity="0.6980392156862745" stroke-linecap="round" stroke-linejoin="round" stroke-miterlimit="10" stroke-width="0.5"/><path fill="none" stroke="rgb(153,51,255)" paint-order="fill stroke markers" d=" M 373.9999001532664 125.77656464730667 L 295.5 188.00000000000034" stroke-opacity="0.6980392156862745" stroke-linecap="round" stroke-linejoin="round" stroke-miterlimit="10" stroke-width="0.5"/><path fill="rgb(255,127,0)" stroke="none" paint-order="stroke fill markers" d=" M 281.5 184.50000000000034 L 281.5 187.50000000000034 L 45.49999999999983 187.50000000000034 C 45.223857625084435 187.50000000000034 44.99999999999983 187.72385762508495 44.99999999999983 188.00000000000034 C 44.99999999999983 188.27614237491574 45.223857625084435 188.50000000000034 45.49999999999983 188.50000000000034 L 281.5 188.50000000000034 L 281.5 191.50000000000034 L 295.5 188.00000000000034 L 281.5 184.50000000000034 Z" fill-opacity="0.6980392156862745"/><path fill="rgb(255,127,0)" stroke="none" paint-order="stroke fill markers" d=" M 359.9967776497458 122.28907842491178 L 359.99945887397814 125.28907722675098 L 123.9995531292945 125.5000001996936 C 123.72341086466676 125.50024699956933 123.49975339981764 125.72430460607778 123.50000019969336 126.00044687070552 C 123.50024686352202 126.27643691344339 123.72405765306438 126.50000000436289 123.9999902525454 126.50000000436289 C 124.00014244275253 126.50000000436289 124.00029464881541 126.49999993635372 124.00044687070528 126.49999980030665 L 360.0003526153889 126.28907682736403 L 360.00303383962125 129.28907562920324 L 373.9999001532664 125.77656464730667 L 359.9967776497458 122.28907842491178 Z" fill-opacity="0.6980392156862745"/><path fill="rgb(0,0,255)" stroke="none" paint-order="stroke fill markers" d=" M 47.49999999999983 188.00000000000034 C 47.49999999999983 189.10456949966192 46.604569499661416 190.00000000000034 45.49999999999983 190.00000000000034 C 44.39543050033824 190.00000000000034 43.49999999999983 189.10456949966192 43.49999999999983 188.00000000000034 C 43.49999999999983 186.89543050033876 44.39543050033824 186.00000000000034 45.49999999999983 186.00000000000034 C 46.604569499661416 186.00000000000034 47.49999999999983 186.89543050033876 47.49999999999983 188.00000000000034 Z" fill-opacity="1"/><path fill="none" stroke="rgb(0,0,0)" paint-order="fill stroke markers" d=" M 47.49999999999983 188.00000000000034 C 47.49999999999983 189.10456949966192 46.604569499661416 190.00000000000034 45.49999999999983 190.00000000000034 C 44.39543050033824 190.00000000000034 43.49999999999983 189.10456949966192 43.49999999999983 188.00000000000034 C 43.49999999999983 186.89543050033876 44.39543050033824 186.00000000000034 45.49999999999983 186.00000000000034 C 46.604569499661416 186.00000000000034 47.49999999999983 186.89543050033876 47.49999999999983 188.00000000000034 Z" stroke-opacity="1" stroke-linecap="round" stroke-linejoin="round" stroke-miterlimit="10"/><text fill="rgb(0,0,255)" stroke="none" font-family="geogebra-sans-serif, sans-serif" font-size="16px" font-style="normal" font-weight="normal" text-decoration="normal" x="25" y="207" text-anchor="start" dominant-baseline="alphabetic" fill-opacity="1">A</text><text fill="none" stroke="rgb(255,255,255)" font-family="geogebra-sans-serif, sans-serif" font-size="16px" font-style="normal" font-weight="normal" text-decoration="normal" x="25" y="207" text-anchor="start" dominant-baseline="alphabetic" stroke-opacity="1" stroke-linejoin="bevel" stroke-miterlimit="10" stroke-width="3">A</text><text fill="rgb(0,0,255)" stroke="none" font-family="geogebra-sans-serif, sans-serif" font-size="16px" font-style="normal" font-weight="normal" text-decoration="normal" x="25" y="207" text-anchor="start" dominant-baseline="alphabetic" fill-opacity="1">A</text><path fill="rgb(0,0,255)" stroke="none" paint-order="stroke fill markers" d=" M 147.4999999999999 37.9999999999998 C 147.4999999999999 39.10456949966139 146.60456949966147 39.9999999999998 145.4999999999999 39.9999999999998 C 144.3954305003383 39.9999999999998 143.4999999999999 39.10456949966139 143.4999999999999 37.9999999999998 C 143.4999999999999 36.895430500338215 144.3954305003383 35.9999999999998 145.4999999999999 35.9999999999998 C 146.60456949966147 35.9999999999998 147.4999999999999 36.895430500338215 147.4999999999999 37.9999999999998 Z" fill-opacity="1"/><path fill="none" stroke="rgb(0,0,0)" paint-order="fill stroke markers" d=" M 147.4999999999999 37.9999999999998 C 147.4999999999999 39.10456949966139 146.60456949966147 39.9999999999998 145.4999999999999 39.9999999999998 C 144.3954305003383 39.9999999999998 143.4999999999999 39.10456949966139 143.4999999999999 37.9999999999998 C 143.4999999999999 36.895430500338215 144.3954305003383 35.9999999999998 145.4999999999999 35.9999999999998 C 146.60456949966147 35.9999999999998 147.4999999999999 36.895430500338215 147.4999999999999 37.9999999999998 Z" stroke-opacity="1" stroke-linecap="round" stroke-linejoin="round" stroke-miterlimit="10"/><text fill="rgb(0,0,255)" stroke="none" font-family="geogebra-sans-serif, sans-serif" font-size="16px" font-style="normal" font-weight="normal" text-decoration="normal" x="149" y="25" text-anchor="start" dominant-baseline="alphabetic" fill-opacity="1">B</text><text fill="none" stroke="rgb(255,255,255)" font-family="geogebra-sans-serif, sans-serif" font-size="16px" font-style="normal" font-weight="normal" text-decoration="normal" x="149" y="25" text-anchor="start" dominant-baseline="alphabetic" stroke-opacity="1" stroke-linejoin="bevel" stroke-miterlimit="10" stroke-width="3">B</text><text fill="rgb(0,0,255)" stroke="none" font-family="geogebra-sans-serif, sans-serif" font-size="16px" font-style="normal" font-weight="normal" text-decoration="normal" x="149" y="25" text-anchor="start" dominant-baseline="alphabetic" fill-opacity="1">B</text><path fill="rgb(0,0,255)" stroke="none" paint-order="stroke fill markers" d=" M 397.5 37.9999999999998 C 397.5 39.10456949966139 396.6045694996616 39.9999999999998 395.5 39.9999999999998 C 394.3954305003384 39.9999999999998 393.5 39.10456949966139 393.5 37.9999999999998 C 393.5 36.895430500338215 394.3954305003384 35.9999999999998 395.5 35.9999999999998 C 396.6045694996616 35.9999999999998 397.5 36.895430500338215 397.5 37.9999999999998 Z" fill-opacity="1"/><path fill="none" stroke="rgb(0,0,0)" paint-order="fill stroke markers" d=" M 397.5 37.9999999999998 C 397.5 39.10456949966139 396.6045694996616 39.9999999999998 395.5 39.9999999999998 C 394.3954305003384 39.9999999999998 393.5 39.10456949966139 393.5 37.9999999999998 C 393.5 36.895430500338215 394.3954305003384 35.9999999999998 395.5 35.9999999999998 C 396.6045694996616 35.9999999999998 397.5 36.895430500338215 397.5 37.9999999999998 Z" stroke-opacity="1" stroke-linecap="round" stroke-linejoin="round" stroke-miterlimit="10"/><text fill="rgb(0,0,255)" stroke="none" font-family="geogebra-sans-serif, sans-serif" font-size="16px" font-style="normal" font-weight="normal" text-decoration="normal" x="407" y="28" text-anchor="start" dominant-baseline="alphabetic" fill-opacity="1">C</text><text fill="none" stroke="rgb(255,255,255)" font-family="geogebra-sans-serif, sans-serif" font-size="16px" font-style="normal" font-weight="normal" text-decoration="normal" x="407" y="28" text-anchor="start" dominant-baseline="alphabetic" stroke-opacity="1" stroke-linejoin="bevel" stroke-miterlimit="10" stroke-width="3">C</text><text fill="rgb(0,0,255)" stroke="none" font-family="geogebra-sans-serif, sans-serif" font-size="16px" font-style="normal" font-weight="normal" text-decoration="normal" x="407" y="28" text-anchor="start" dominant-baseline="alphabetic" fill-opacity="1">C</text><path fill="rgb(0,0,255)" stroke="none" paint-order="stroke fill markers" d=" M 297.5 188.00000000000034 C 297.5 189.10456949966192 296.6045694996616 190.00000000000034 295.5 190.00000000000034 C 294.3954305003384 190.00000000000034 293.5 189.10456949966192 293.5 188.00000000000034 C 293.5 186.89543050033876 294.3954305003384 186.00000000000034 295.5 186.00000000000034 C 296.6045694996616 186.00000000000034 297.5 186.89543050033876 297.5 188.00000000000034 Z" fill-opacity="1"/><path fill="none" stroke="rgb(0,0,0)" paint-order="fill stroke markers" d=" M 297.5 188.00000000000034 C 297.5 189.10456949966192 296.6045694996616 190.00000000000034 295.5 190.00000000000034 C 294.3954305003384 190.00000000000034 293.5 189.10456949966192 293.5 188.00000000000034 C 293.5 186.89543050033876 294.3954305003384 186.00000000000034 295.5 186.00000000000034 C 296.6045694996616 186.00000000000034 297.5 186.89543050033876 297.5 188.00000000000034 Z" stroke-opacity="1" stroke-linecap="round" stroke-linejoin="round" stroke-miterlimit="10"/><text fill="rgb(0,0,255)" stroke="none" font-family="geogebra-sans-serif, sans-serif" font-size="16px" font-style="normal" font-weight="normal" text-decoration="normal" x="307" y="212" text-anchor="start" dominant-baseline="alphabetic" fill-opacity="1">D</text><text fill="none" stroke="rgb(255,255,255)" font-family="geogebra-sans-serif, sans-serif" font-size="16px" font-style="normal" font-weight="normal" text-decoration="normal" x="307" y="212" text-anchor="start" dominant-baseline="alphabetic" stroke-opacity="1" stroke-linejoin="bevel" stroke-miterlimit="10" stroke-width="3">D</text><text fill="rgb(0,0,255)" stroke="none" font-family="geogebra-sans-serif, sans-serif" font-size="16px" font-style="normal" font-weight="normal" text-decoration="normal" x="307" y="212" text-anchor="start" dominant-baseline="alphabetic" fill-opacity="1">D</text><path fill="rgb(0,0,255)" stroke="none" paint-order="stroke fill markers" d=" M 125.99999999999989 126.00000000000013 C 125.99999999999989 127.10456949966172 125.10456949966147 128.0000000000001 123.99999999999989 128.0000000000001 C 122.89543050033829 128.0000000000001 121.99999999999989 127.10456949966172 121.99999999999989 126.00000000000013 C 121.99999999999989 124.89543050033853 122.89543050033829 124.00000000000013 123.99999999999989 124.00000000000013 C 125.10456949966147 124.00000000000013 125.99999999999989 124.89543050033853 125.99999999999989 126.00000000000013 Z" fill-opacity="1"/><path fill="none" stroke="rgb(0,0,0)" paint-order="fill stroke markers" d=" M 125.99999999999989 126.00000000000013 C 125.99999999999989 127.10456949966172 125.10456949966147 128.0000000000001 123.99999999999989 128.0000000000001 C 122.89543050033829 128.0000000000001 121.99999999999989 127.10456949966172 121.99999999999989 126.00000000000013 C 121.99999999999989 124.89543050033853 122.89543050033829 124.00000000000013 123.99999999999989 124.00000000000013 C 125.10456949966147 124.00000000000013 125.99999999999989 124.89543050033853 125.99999999999989 126.00000000000013 Z" stroke-opacity="1" stroke-linecap="round" stroke-linejoin="round" stroke-miterlimit="10"/><text fill="rgb(0,0,255)" stroke="none" font-family="geogebra-sans-serif, sans-serif" font-size="16px" font-style="normal" font-weight="normal" text-decoration="normal" x="109" y="159" text-anchor="start" dominant-baseline="alphabetic" fill-opacity="1">O</text><text fill="none" stroke="rgb(255,255,255)" font-family="geogebra-sans-serif, sans-serif" font-size="16px" font-style="normal" font-weight="normal" text-decoration="normal" x="109" y="159" text-anchor="start" dominant-baseline="alphabetic" stroke-opacity="1" stroke-linejoin="bevel" stroke-miterlimit="10" stroke-width="3">O</text><text fill="rgb(0,0,255)" stroke="none" font-family="geogebra-sans-serif, sans-serif" font-size="16px" font-style="normal" font-weight="normal" text-decoration="normal" x="109" y="159" text-anchor="start" dominant-baseline="alphabetic" fill-opacity="1">O</text><path fill="rgb(0,0,255)" stroke="none" paint-order="stroke fill markers" d=" M 375.9999001532664 125.77656464730667 C 375.9999001532664 126.88113414696826 375.104469652928 127.77656464730667 373.9999001532664 127.77656464730667 C 372.89533065360484 127.77656464730667 371.9999001532664 126.88113414696826 371.9999001532664 125.77656464730667 C 371.9999001532664 124.67199514764508 372.89533065360484 123.77656464730667 373.9999001532664 123.77656464730667 C 375.104469652928 123.77656464730667 375.9999001532664 124.67199514764508 375.9999001532664 125.77656464730667 Z" fill-opacity="1"/><path fill="none" stroke="rgb(0,0,0)" paint-order="fill stroke markers" d=" M 375.9999001532664 125.77656464730667 C 375.9999001532664 126.88113414696826 375.104469652928 127.77656464730667 373.9999001532664 127.77656464730667 C 372.89533065360484 127.77656464730667 371.9999001532664 126.88113414696826 371.9999001532664 125.77656464730667 C 371.9999001532664 124.67199514764508 372.89533065360484 123.77656464730667 373.9999001532664 123.77656464730667 C 375.104469652928 123.77656464730667 375.9999001532664 124.67199514764508 375.9999001532664 125.77656464730667 Z" stroke-opacity="1" stroke-linecap="round" stroke-linejoin="round" stroke-miterlimit="10"/><text fill="rgb(0,0,255)" stroke="none" font-family="geogebra-sans-serif, sans-serif" font-size="16px" font-style="normal" font-weight="normal" text-decoration="normal" x="384" y="137" text-anchor="start" dominant-baseline="alphabetic" fill-opacity="1">O'</text><text fill="none" stroke="rgb(255,255,255)" font-family="geogebra-sans-serif, sans-serif" font-size="16px" font-style="normal" font-weight="normal" text-decoration="normal" x="384" y="137" text-anchor="start" dominant-baseline="alphabetic" stroke-opacity="1" stroke-linejoin="bevel" stroke-miterlimit="10" stroke-width="3">O'</text><text fill="rgb(0,0,255)" stroke="none" font-family="geogebra-sans-serif, sans-serif" font-size="16px" font-style="normal" font-weight="normal" text-decoration="normal" x="384" y="137" text-anchor="start" dominant-baseline="alphabetic" fill-opacity="1">O'</text></g></g></svg>