<svg version="1.1" xmlns="http://www.w3.org/2000/svg" xmlns:xlink="http://www.w3.org/1999/xlink" width="431" height="228"><defs><clipPath id="dWWWsvRsJMrp"><path fill="none" stroke="none" d=" M 0 0 L 431 0 L 431 228 L 0 228 L 0 0 Z"/></clipPath></defs><g transform="scale(1,1)" clip-path="url(#dWWWsvRsJMrp)"><g><rect fill="rgb(255,255,255)" stroke="none" x="0" y="0" width="431" height="228" fill-opacity="1"/><path fill="rgb(0,153,204)" stroke="none" paint-order="stroke fill markers" d=" M 128.74674699208347 106.57145417193709 C 120.45261958511082 104.54504804409717 111.78671075339022 108.00737826172389 107.17237289506517 115.19116259640924 C 102.55803503674014 122.37494693109458 103.01294560976947 131.69582472163182 108.30490395139239 138.39612681546083 L 123.99999999999989 126.00000000000011 Z" fill-opacity="0.09803921568627451"/><path fill="none" stroke="rgb(0,153,204)" paint-order="fill stroke markers" d=" M 128.74674699208347 106.57145417193709 C 120.45261958511082 104.54504804409717 111.78671075339022 108.00737826172389 107.17237289506517 115.19116259640924 C 102.55803503674014 122.37494693109458 103.01294560976947 131.69582472163182 108.30490395139239 138.39612681546083 L 123.99999999999989 126.00000000000011 Z" stroke-opacity="0.6980392156862745" stroke-linecap="round" stroke-linejoin="round" stroke-miterlimit="10" stroke-width="0.5"/><path fill="none" stroke="rgb(0,153,204)" paint-order="fill stroke markers" d=" M 109.4861716219937 116.67737773940297 L 104.85857416813667 113.70494745341549" stroke-opacity="0.6980392156862745" stroke-linecap="round" stroke-linejoin="round" stroke-miterlimit="10" stroke-width="0.5"/><path fill="rgb(0,204,0)" stroke="none" paint-order="stroke fill markers" d=" M 142.8086438041541 132.7996263315311 C 144.31907277680918 128.62158489910615 144.3953946483873 124.05956112463647 143.02556764865525 119.83333350614495 L 123.99999999999989 126.00000000000011 Z" fill-opacity="0.09803921568627451"/><path fill="none" stroke="rgb(0,204,0)" paint-order="fill stroke markers" d=" M 142.8086438041541 132.7996263315311 C 144.31907277680918 128.62158489910615 144.3953946483873 124.05956112463647 143.02556764865525 119.83333350614495 L 123.99999999999989 126.00000000000011 Z" stroke-opacity="0.6980392156862745" stroke-linecap="round" stroke-linejoin="round" stroke-miterlimit="10" stroke-width="0.5"/><path fill="none" stroke="rgb(0,204,0)" paint-order="fill stroke markers" d=" M 138.5766989482194 131.26971040693664 C 139.74728140202708 128.0317282968073 139.80643085250014 124.4961598715933 138.74481492770778 121.22083346726237" stroke-opacity="0.6980392156862745" stroke-linecap="round" stroke-linejoin="round" stroke-miterlimit="10" stroke-width="0.5"/><path fill="rgb(255,127,0)" stroke="none" paint-order="stroke fill markers" d=" M 140.7532530079163 57.42854582806284 C 146.71772714928326 58.88577530578318 153.02103114209407 57.52261663029354 157.85040606940356 53.73109881479453 C 162.67978099671308 49.939580999295515 165.49999999999983 44.13990794179929 165.49999999999983 37.99999999999981 L 145.4999999999999 37.99999999999981 Z" fill-opacity="0.09803921568627451"/><path fill="none" stroke="rgb(255,127,0)" paint-order="fill stroke markers" d=" M 140.7532530079163 57.42854582806284 C 146.71772714928326 58.88577530578318 153.02103114209407 57.52261663029354 157.85040606940356 53.73109881479453 C 162.67978099671308 49.939580999295515 165.49999999999983 44.13990794179929 165.49999999999983 37.99999999999981 L 145.4999999999999 37.99999999999981 Z" stroke-opacity="0.6980392156862745" stroke-linecap="round" stroke-linejoin="round" stroke-miterlimit="10"/><path fill="none" stroke="rgb(255,127,0)" paint-order="fill stroke markers" d=" M 152.72995097206797 53.38596142402176 L 155.28169837397434 58.81630075014715" stroke-opacity="0.6980392156862745" stroke-linecap="round" stroke-linejoin="round" stroke-miterlimit="10"/><path fill="none" stroke="rgb(255,127,0)" paint-order="fill stroke markers" d=" M 158.73040543029208 48.67503499526301 L 163.39996028804225 52.44269440535591" stroke-opacity="0.6980392156862745" stroke-linecap="round" stroke-linejoin="round" stroke-miterlimit="10"/><path fill="none" stroke="rgb(255,127,0)" paint-order="fill stroke markers" d=" M 155.99784515899302 51.37143399257532 L 159.7029669798141 56.09076363701374" stroke-opacity="0.6980392156862745" stroke-linecap="round" stroke-linejoin="round" stroke-miterlimit="10"/><path fill="rgb(255,127,0)" stroke="none" paint-order="stroke fill markers" d=" M 306.59400392450453 171.35899411324345 C 301.48096443466517 167.95030112001723 295.08474052045574 167.08134994051096 289.2476320481217 169.0024239705611 C 283.4105235757877 170.9234980006112 278.7805783369747 175.4213156490562 276.69135619584574 181.20037366846935 L 295.5 188.00000000000034 Z" fill-opacity="0.09803921568627451"/><path fill="none" stroke="rgb(255,127,0)" paint-order="fill stroke markers" d=" M 306.59400392450453 171.35899411324345 C 301.48096443466517 167.95030112001723 295.08474052045574 167.08134994051096 289.2476320481217 169.0024239705611 C 283.4105235757877 170.9234980006112 278.7805783369747 175.4213156490562 276.69135619584574 181.20037366846935 L 295.5 188.00000000000034 Z" stroke-opacity="0.6980392156862745" stroke-linecap="round" stroke-linejoin="round" stroke-miterlimit="10"/><path fill="none" stroke="rgb(255,127,0)" paint-order="fill stroke markers" d=" M 293.94733644681617 171.07105331420163 L 293.3993375456925 165.096130954508" stroke-opacity="0.6980392156862745" stroke-linecap="round" stroke-linejoin="round" stroke-miterlimit="10"/><path fill="none" stroke="rgb(255,127,0)" paint-order="fill stroke markers" d=" M 286.69509160472336 173.45786851418347 L 283.58747687697866 168.32535151918927" stroke-opacity="0.6980392156862745" stroke-linecap="round" stroke-linejoin="round" stroke-miterlimit="10"/><path fill="none" stroke="rgb(255,127,0)" paint-order="fill stroke markers" d=" M 290.18548724090346 171.85206037497696 L 288.30977685534 166.15278756614518" stroke-opacity="0.6980392156862745" stroke-linecap="round" stroke-linejoin="round" stroke-miterlimit="10"/><path fill="none" stroke="rgb(0,100,0)" paint-order="fill stroke markers" d=" M 45.49999999999983 188.00000000000034 L 145.4999999999999 37.99999999999981" stroke-opacity="0.6980392156862745" stroke-linecap="round" stroke-linejoin="round" stroke-miterlimit="10" stroke-width="0.5"/><path fill="none" stroke="rgb(0,100,0)" paint-order="fill stroke markers" d=" M 145.4999999999999 37.99999999999981 L 395.5 37.99999999999981" stroke-opacity="0.6980392156862745" stroke-linecap="round" stroke-linejoin="round" stroke-miterlimit="10" stroke-width="0.5"/><path fill="none" stroke="rgb(0,100,0)" paint-order="fill stroke markers" d=" M 395.5 37.99999999999981 L 295.5 188.00000000000034" stroke-opacity="0.6980392156862745" stroke-linecap="round" stroke-linejoin="round" stroke-miterlimit="10" stroke-width="0.5"/><path fill="none" stroke="rgb(0,100,0)" paint-order="fill stroke markers" d=" M 145.4999999999999 37.99999999999981 L 123.99999999999989 126.00000000000011" stroke-opacity="0.6980392156862745" stroke-linecap="round" stroke-linejoin="round" stroke-miterlimit="10" stroke-width="0.5"/><path fill="none" stroke="rgb(0,100,0)" paint-order="fill stroke markers" d=" M 123.99999999999989 126.00000000000011 L 45.49999999999983 188.00000000000034" stroke-opacity="0.6980392156862745" stroke-linecap="round" stroke-linejoin="round" stroke-miterlimit="10" stroke-width="0.5"/><path fill="none" stroke="rgb(0,100,0)" paint-order="fill stroke markers" d=" M 295.5 188.00000000000034 L 123.99999999999989 126.00000000000011" stroke-opacity="0.6980392156862745" stroke-linecap="round" stroke-linejoin="round" stroke-miterlimit="10" stroke-width="0.5"/><path fill="none" stroke="rgb(0,100,0)" paint-order="fill stroke markers" d=" M 123.99999999999989 126.00000000000011 L 395.5 37.99999999999981" stroke-opacity="0.6980392156862745" stroke-linecap="round" stroke-linejoin="round" stroke-miterlimit="10" stroke-width="0.5"/><path fill="none" stroke="rgb(0,100,0)" paint-order="fill stroke markers" d=" M 373.9999001532664 125.77656464730667 L 374.00000000000006 126.00000000000011" stroke-opacity="0.6980392156862745" stroke-linecap="round" stroke-linejoin="round" stroke-miterlimit="10" stroke-width="0.5"/><path fill="none" stroke="rgb(0,100,0)" paint-order="fill stroke markers" d=" M 45.49999999999983 188.00000000000034 L 295.5 188.00000000000034" stroke-opacity="0.6980392156862745" stroke-linecap="round" stroke-linejoin="round" stroke-miterlimit="10" stroke-width="0.5"/><path fill="rgb(0,0,255)" stroke="none" paint-order="stroke fill markers" d=" M 47.49999999999983 188.00000000000034 C 47.49999999999983 189.10456949966192 46.604569499661416 190.00000000000034 45.49999999999983 190.00000000000034 C 44.39543050033824 190.00000000000034 43.49999999999983 189.10456949966192 43.49999999999983 188.00000000000034 C 43.49999999999983 186.89543050033876 44.39543050033824 186.00000000000034 45.49999999999983 186.00000000000034 C 46.604569499661416 186.00000000000034 47.49999999999983 186.89543050033876 47.49999999999983 188.00000000000034 Z" fill-opacity="1"/><path fill="none" stroke="rgb(0,0,0)" paint-order="fill stroke markers" d=" M 47.49999999999983 188.00000000000034 C 47.49999999999983 189.10456949966192 46.604569499661416 190.00000000000034 45.49999999999983 190.00000000000034 C 44.39543050033824 190.00000000000034 43.49999999999983 189.10456949966192 43.49999999999983 188.00000000000034 C 43.49999999999983 186.89543050033876 44.39543050033824 186.00000000000034 45.49999999999983 186.00000000000034 C 46.604569499661416 186.00000000000034 47.49999999999983 186.89543050033876 47.49999999999983 188.00000000000034 Z" stroke-opacity="1" stroke-linecap="round" stroke-linejoin="round" stroke-miterlimit="10"/><text fill="rgb(0,0,255)" stroke="none" font-family="geogebra-sans-serif, sans-serif" font-size="16px" font-style="normal" font-weight="normal" text-decoration="normal" x="25" y="207" text-anchor="start" dominant-baseline="alphabetic" fill-opacity="1">A</text><text fill="none" stroke="rgb(255,255,255)" font-family="geogebra-sans-serif, sans-serif" font-size="16px" font-style="normal" font-weight="normal" text-decoration="normal" x="25" y="207" text-anchor="start" dominant-baseline="alphabetic" stroke-opacity="1" stroke-linejoin="bevel" stroke-miterlimit="10" stroke-width="3">A</text><text fill="rgb(0,0,255)" stroke="none" font-family="geogebra-sans-serif, sans-serif" font-size="16px" font-style="normal" font-weight="normal" text-decoration="normal" x="25" y="207" text-anchor="start" dominant-baseline="alphabetic" fill-opacity="1">A</text><path fill="rgb(0,0,255)" stroke="none" paint-order="stroke fill markers" d=" M 147.4999999999999 37.99999999999981 C 147.4999999999999 39.104569499661395 146.60456949966147 39.99999999999981 145.4999999999999 39.99999999999981 C 144.3954305003383 39.99999999999981 143.4999999999999 39.104569499661395 143.4999999999999 37.99999999999981 C 143.4999999999999 36.89543050033822 144.3954305003383 35.99999999999981 145.4999999999999 35.99999999999981 C 146.60456949966147 35.99999999999981 147.4999999999999 36.89543050033822 147.4999999999999 37.99999999999981 Z" fill-opacity="1"/><path fill="none" stroke="rgb(0,0,0)" paint-order="fill stroke markers" d=" M 147.4999999999999 37.99999999999981 C 147.4999999999999 39.104569499661395 146.60456949966147 39.99999999999981 145.4999999999999 39.99999999999981 C 144.3954305003383 39.99999999999981 143.4999999999999 39.104569499661395 143.4999999999999 37.99999999999981 C 143.4999999999999 36.89543050033822 144.3954305003383 35.99999999999981 145.4999999999999 35.99999999999981 C 146.60456949966147 35.99999999999981 147.4999999999999 36.89543050033822 147.4999999999999 37.99999999999981 Z" stroke-opacity="1" stroke-linecap="round" stroke-linejoin="round" stroke-miterlimit="10"/><text fill="rgb(0,0,255)" stroke="none" font-family="geogebra-sans-serif, sans-serif" font-size="16px" font-style="normal" font-weight="normal" text-decoration="normal" x="149" y="25" text-anchor="start" dominant-baseline="alphabetic" fill-opacity="1">B</text><text fill="none" stroke="rgb(255,255,255)" font-family="geogebra-sans-serif, sans-serif" font-size="16px" font-style="normal" font-weight="normal" text-decoration="normal" x="149" y="25" text-anchor="start" dominant-baseline="alphabetic" stroke-opacity="1" stroke-linejoin="bevel" stroke-miterlimit="10" stroke-width="3">B</text><text fill="rgb(0,0,255)" stroke="none" font-family="geogebra-sans-serif, sans-serif" font-size="16px" font-style="normal" font-weight="normal" text-decoration="normal" x="149" y="25" text-anchor="start" dominant-baseline="alphabetic" fill-opacity="1">B</text><path fill="rgb(0,0,255)" stroke="none" paint-order="stroke fill markers" d=" M 397.5 37.99999999999981 C 397.5 39.104569499661395 396.6045694996616 39.99999999999981 395.5 39.99999999999981 C 394.3954305003384 39.99999999999981 393.5 39.104569499661395 393.5 37.99999999999981 C 393.5 36.89543050033822 394.3954305003384 35.99999999999981 395.5 35.99999999999981 C 396.6045694996616 35.99999999999981 397.5 36.89543050033822 397.5 37.99999999999981 Z" fill-opacity="1"/><path fill="none" stroke="rgb(0,0,0)" paint-order="fill stroke markers" d=" M 397.5 37.99999999999981 C 397.5 39.104569499661395 396.6045694996616 39.99999999999981 395.5 39.99999999999981 C 394.3954305003384 39.99999999999981 393.5 39.104569499661395 393.5 37.99999999999981 C 393.5 36.89543050033822 394.3954305003384 35.99999999999981 395.5 35.99999999999981 C 396.6045694996616 35.99999999999981 397.5 36.89543050033822 397.5 37.99999999999981 Z" stroke-opacity="1" stroke-linecap="round" stroke-linejoin="round" stroke-miterlimit="10"/><text fill="rgb(0,0,255)" stroke="none" font-family="geogebra-sans-serif, sans-serif" font-size="16px" font-style="normal" font-weight="normal" text-decoration="normal" x="407" y="28" text-anchor="start" dominant-baseline="alphabetic" fill-opacity="1">C</text><text fill="none" stroke="rgb(255,255,255)" font-family="geogebra-sans-serif, sans-serif" font-size="16px" font-style="normal" font-weight="normal" text-decoration="normal" x="407" y="28" text-anchor="start" dominant-baseline="alphabetic" stroke-opacity="1" stroke-linejoin="bevel" stroke-miterlimit="10" stroke-width="3">C</text><text fill="rgb(0,0,255)" stroke="none" font-family="geogebra-sans-serif, sans-serif" font-size="16px" font-style="normal" font-weight="normal" text-decoration="normal" x="407" y="28" text-anchor="start" dominant-baseline="alphabetic" fill-opacity="1">C</text><path fill="rgb(0,0,255)" stroke="none" paint-order="stroke fill markers" d=" M 297.5 188.00000000000034 C 297.5 189.10456949966192 296.6045694996616 190.00000000000034 295.5 190.00000000000034 C 294.3954305003384 190.00000000000034 293.5 189.10456949966192 293.5 188.00000000000034 C 293.5 186.89543050033876 294.3954305003384 186.00000000000034 295.5 186.00000000000034 C 296.6045694996616 186.00000000000034 297.5 186.89543050033876 297.5 188.00000000000034 Z" fill-opacity="1"/><path fill="none" stroke="rgb(0,0,0)" paint-order="fill stroke markers" d=" M 297.5 188.00000000000034 C 297.5 189.10456949966192 296.6045694996616 190.00000000000034 295.5 190.00000000000034 C 294.3954305003384 190.00000000000034 293.5 189.10456949966192 293.5 188.00000000000034 C 293.5 186.89543050033876 294.3954305003384 186.00000000000034 295.5 186.00000000000034 C 296.6045694996616 186.00000000000034 297.5 186.89543050033876 297.5 188.00000000000034 Z" stroke-opacity="1" stroke-linecap="round" stroke-linejoin="round" stroke-miterlimit="10"/><text fill="rgb(0,0,255)" stroke="none" font-family="geogebra-sans-serif, sans-serif" font-size="16px" font-style="normal" font-weight="normal" text-decoration="normal" x="307" y="212" text-anchor="start" dominant-baseline="alphabetic" fill-opacity="1">D</text><text fill="none" stroke="rgb(255,255,255)" font-family="geogebra-sans-serif, sans-serif" font-size="16px" font-style="normal" font-weight="normal" text-decoration="normal" x="307" y="212" text-anchor="start" dominant-baseline="alphabetic" stroke-opacity="1" stroke-linejoin="bevel" stroke-miterlimit="10" stroke-width="3">D</text><text fill="rgb(0,0,255)" stroke="none" font-family="geogebra-sans-serif, sans-serif" font-size="16px" font-style="normal" font-weight="normal" text-decoration="normal" x="307" y="212" text-anchor="start" dominant-baseline="alphabetic" fill-opacity="1">D</text><path fill="rgb(0,0,255)" stroke="none" paint-order="stroke fill markers" d=" M 125.99999999999989 126.00000000000011 C 125.99999999999989 127.1045694996617 125.10456949966147 128.0000000000001 123.99999999999989 128.0000000000001 C 122.89543050033829 128.0000000000001 121.99999999999989 127.1045694996617 121.99999999999989 126.00000000000011 C 121.99999999999989 124.89543050033852 122.89543050033829 124.00000000000011 123.99999999999989 124.00000000000011 C 125.10456949966147 124.00000000000011 125.99999999999989 124.89543050033852 125.99999999999989 126.00000000000011 Z" fill-opacity="1"/><path fill="none" stroke="rgb(0,0,0)" paint-order="fill stroke markers" d=" M 125.99999999999989 126.00000000000011 C 125.99999999999989 127.1045694996617 125.10456949966147 128.0000000000001 123.99999999999989 128.0000000000001 C 122.89543050033829 128.0000000000001 121.99999999999989 127.1045694996617 121.99999999999989 126.00000000000011 C 121.99999999999989 124.89543050033852 122.89543050033829 124.00000000000011 123.99999999999989 124.00000000000011 C 125.10456949966147 124.00000000000011 125.99999999999989 124.89543050033852 125.99999999999989 126.00000000000011 Z" stroke-opacity="1" stroke-linecap="round" stroke-linejoin="round" stroke-miterlimit="10"/><text fill="rgb(0,0,255)" stroke="none" font-family="geogebra-sans-serif, sans-serif" font-size="16px" font-style="normal" font-weight="normal" text-decoration="normal" x="109" y="159" text-anchor="start" dominant-baseline="alphabetic" fill-opacity="1">O</text><text fill="none" stroke="rgb(255,255,255)" font-family="geogebra-sans-serif, sans-serif" font-size="16px" font-style="normal" font-weight="normal" text-decoration="normal" x="109" y="159" text-anchor="start" dominant-baseline="alphabetic" stroke-opacity="1" stroke-linejoin="bevel" stroke-miterlimit="10" stroke-width="3">O</text><text fill="rgb(0,0,255)" stroke="none" font-family="geogebra-sans-serif, sans-serif" font-size="16px" font-style="normal" font-weight="normal" text-decoration="normal" x="109" y="159" text-anchor="start" dominant-baseline="alphabetic" fill-opacity="1">O</text></g></g></svg>