<svg version="1.1" xmlns="http://www.w3.org/2000/svg" xmlns:xlink="http://www.w3.org/1999/xlink" width="611" height="540"><defs><clipPath id="NZQHhgxXbhvi"><path fill="none" stroke="none" d=" M 0 0 L 611 0 L 611 540 L 0 540 L 0 0 Z"/></clipPath></defs><g transform="scale(1,1)" clip-path="url(#NZQHhgxXbhvi)"><g><rect fill="rgb(255,255,255)" stroke="none" x="0" y="0" width="611" height="540" fill-opacity="1"/><path fill="none" stroke="rgb(37,37,37)" paint-order="fill stroke markers" d=" M 227.5 2.5 L 227.5 540.5" stroke-opacity="1" stroke-miterlimit="10"/><path fill="none" stroke="rgb(37,37,37)" paint-order="fill stroke markers" d=" M 227.5 1.5 L 223.5 5.5" stroke-opacity="1" stroke-miterlimit="10"/><path fill="none" stroke="rgb(37,37,37)" paint-order="fill stroke markers" d=" M 227.5 1.5 L 231.5 5.5" stroke-opacity="1" stroke-miterlimit="10"/><path fill="none" stroke="rgb(37,37,37)" paint-order="fill stroke markers" d=" M 0.5 357.5 L 609.5 357.5" stroke-opacity="1" stroke-miterlimit="10"/><path fill="none" stroke="rgb(37,37,37)" paint-order="fill stroke markers" d=" M 610.5 357.5 L 606.5 353.5" stroke-opacity="1" stroke-miterlimit="10"/><path fill="none" stroke="rgb(37,37,37)" paint-order="fill stroke markers" d=" M 610.5 357.5 L 606.5 361.5" stroke-opacity="1" stroke-miterlimit="10"/><path fill="none" stroke="rgb(37,37,37)" paint-order="fill stroke markers" d=" M 2.5 357.5 L 2.5 360.5" stroke-opacity="1" stroke-miterlimit="10"/><text fill="rgb(37,37,37)" stroke="none" font-family="geogebra-sans-serif, sans-serif" font-size="12px" font-style="normal" font-weight="normal" text-decoration="normal" x="72" y="373" text-anchor="start" dominant-baseline="alphabetic" fill-opacity="1">–2</text><text fill="none" stroke="rgb(255,255,255)" font-family="geogebra-sans-serif, sans-serif" font-size="12px" font-style="normal" font-weight="normal" text-decoration="normal" x="72" y="373" text-anchor="start" dominant-baseline="alphabetic" stroke-opacity="1" stroke-linejoin="bevel" stroke-miterlimit="10" stroke-width="3">–2</text><text fill="rgb(37,37,37)" stroke="none" font-family="geogebra-sans-serif, sans-serif" font-size="12px" font-style="normal" font-weight="normal" text-decoration="normal" x="72" y="373" text-anchor="start" dominant-baseline="alphabetic" fill-opacity="1">–2</text><path fill="none" stroke="rgb(37,37,37)" paint-order="fill stroke markers" d=" M 77.5 357.5 L 77.5 360.5" stroke-opacity="1" stroke-miterlimit="10"/><text fill="rgb(37,37,37)" stroke="none" font-family="geogebra-sans-serif, sans-serif" font-size="12px" font-style="normal" font-weight="normal" text-decoration="normal" x="147" y="373" text-anchor="start" dominant-baseline="alphabetic" fill-opacity="1">–1</text><text fill="none" stroke="rgb(255,255,255)" font-family="geogebra-sans-serif, sans-serif" font-size="12px" font-style="normal" font-weight="normal" text-decoration="normal" x="147" y="373" text-anchor="start" dominant-baseline="alphabetic" stroke-opacity="1" stroke-linejoin="bevel" stroke-miterlimit="10" stroke-width="3">–1</text><text fill="rgb(37,37,37)" stroke="none" font-family="geogebra-sans-serif, sans-serif" font-size="12px" font-style="normal" font-weight="normal" text-decoration="normal" x="147" y="373" text-anchor="start" dominant-baseline="alphabetic" fill-opacity="1">–1</text><path fill="none" stroke="rgb(37,37,37)" paint-order="fill stroke markers" d=" M 152.5 357.5 L 152.5 360.5" stroke-opacity="1" stroke-miterlimit="10"/><path fill="none" stroke="rgb(37,37,37)" paint-order="fill stroke markers" d=" M 227.5 357.5 L 227.5 360.5" stroke-opacity="1" stroke-miterlimit="10"/><text fill="rgb(37,37,37)" stroke="none" font-family="geogebra-sans-serif, sans-serif" font-size="12px" font-style="normal" font-weight="normal" text-decoration="normal" x="300" y="373" text-anchor="start" dominant-baseline="alphabetic" fill-opacity="1">1</text><text fill="none" stroke="rgb(255,255,255)" font-family="geogebra-sans-serif, sans-serif" font-size="12px" font-style="normal" font-weight="normal" text-decoration="normal" x="300" y="373" text-anchor="start" dominant-baseline="alphabetic" stroke-opacity="1" stroke-linejoin="bevel" stroke-miterlimit="10" stroke-width="3">1</text><text fill="rgb(37,37,37)" stroke="none" font-family="geogebra-sans-serif, sans-serif" font-size="12px" font-style="normal" font-weight="normal" text-decoration="normal" x="300" y="373" text-anchor="start" dominant-baseline="alphabetic" fill-opacity="1">1</text><path fill="none" stroke="rgb(37,37,37)" paint-order="fill stroke markers" d=" M 302.5 357.5 L 302.5 360.5" stroke-opacity="1" stroke-miterlimit="10"/><text fill="rgb(37,37,37)" stroke="none" font-family="geogebra-sans-serif, sans-serif" font-size="12px" font-style="normal" font-weight="normal" text-decoration="normal" x="375" y="373" text-anchor="start" dominant-baseline="alphabetic" fill-opacity="1">2</text><text fill="none" stroke="rgb(255,255,255)" font-family="geogebra-sans-serif, sans-serif" font-size="12px" font-style="normal" font-weight="normal" text-decoration="normal" x="375" y="373" text-anchor="start" dominant-baseline="alphabetic" stroke-opacity="1" stroke-linejoin="bevel" stroke-miterlimit="10" stroke-width="3">2</text><text fill="rgb(37,37,37)" stroke="none" font-family="geogebra-sans-serif, sans-serif" font-size="12px" font-style="normal" font-weight="normal" text-decoration="normal" x="375" y="373" text-anchor="start" dominant-baseline="alphabetic" fill-opacity="1">2</text><path fill="none" stroke="rgb(37,37,37)" paint-order="fill stroke markers" d=" M 377.5 357.5 L 377.5 360.5" stroke-opacity="1" stroke-miterlimit="10"/><text fill="rgb(37,37,37)" stroke="none" font-family="geogebra-sans-serif, sans-serif" font-size="12px" font-style="normal" font-weight="normal" text-decoration="normal" x="450" y="373" text-anchor="start" dominant-baseline="alphabetic" fill-opacity="1">3</text><text fill="none" stroke="rgb(255,255,255)" font-family="geogebra-sans-serif, sans-serif" font-size="12px" font-style="normal" font-weight="normal" text-decoration="normal" x="450" y="373" text-anchor="start" dominant-baseline="alphabetic" stroke-opacity="1" stroke-linejoin="bevel" stroke-miterlimit="10" stroke-width="3">3</text><text fill="rgb(37,37,37)" stroke="none" font-family="geogebra-sans-serif, sans-serif" font-size="12px" font-style="normal" font-weight="normal" text-decoration="normal" x="450" y="373" text-anchor="start" dominant-baseline="alphabetic" fill-opacity="1">3</text><path fill="none" stroke="rgb(37,37,37)" paint-order="fill stroke markers" d=" M 452.5 357.5 L 452.5 360.5" stroke-opacity="1" stroke-miterlimit="10"/><text fill="rgb(37,37,37)" stroke="none" font-family="geogebra-sans-serif, sans-serif" font-size="12px" font-style="normal" font-weight="normal" text-decoration="normal" x="525" y="373" text-anchor="start" dominant-baseline="alphabetic" fill-opacity="1">4</text><text fill="none" stroke="rgb(255,255,255)" font-family="geogebra-sans-serif, sans-serif" font-size="12px" font-style="normal" font-weight="normal" text-decoration="normal" x="525" y="373" text-anchor="start" dominant-baseline="alphabetic" stroke-opacity="1" stroke-linejoin="bevel" stroke-miterlimit="10" stroke-width="3">4</text><text fill="rgb(37,37,37)" stroke="none" font-family="geogebra-sans-serif, sans-serif" font-size="12px" font-style="normal" font-weight="normal" text-decoration="normal" x="525" y="373" text-anchor="start" dominant-baseline="alphabetic" fill-opacity="1">4</text><path fill="none" stroke="rgb(37,37,37)" paint-order="fill stroke markers" d=" M 527.5 357.5 L 527.5 360.5" stroke-opacity="1" stroke-miterlimit="10"/><path fill="none" stroke="rgb(37,37,37)" paint-order="fill stroke markers" d=" M 224.5 507.5 L 227.5 507.5" stroke-opacity="1" stroke-miterlimit="10"/><path fill="none" stroke="rgb(37,37,37)" paint-order="fill stroke markers" d=" M 224.5 432.5 L 227.5 432.5" stroke-opacity="1" stroke-miterlimit="10"/><path fill="none" stroke="rgb(37,37,37)" paint-order="fill stroke markers" d=" M 224.5 282.5 L 227.5 282.5" stroke-opacity="1" stroke-miterlimit="10"/><path fill="none" stroke="rgb(37,37,37)" paint-order="fill stroke markers" d=" M 224.5 207.5 L 227.5 207.5" stroke-opacity="1" stroke-miterlimit="10"/><path fill="none" stroke="rgb(37,37,37)" paint-order="fill stroke markers" d=" M 224.5 132.5 L 227.5 132.5" stroke-opacity="1" stroke-miterlimit="10"/><path fill="none" stroke="rgb(37,37,37)" paint-order="fill stroke markers" d=" M 224.5 57.5 L 227.5 57.5" stroke-opacity="1" stroke-miterlimit="10"/><text fill="rgb(37,37,37)" stroke="none" font-family="geogebra-sans-serif, sans-serif" font-size="12px" font-style="normal" font-weight="normal" text-decoration="normal" x="207" y="512" text-anchor="start" dominant-baseline="alphabetic" fill-opacity="1">–2</text><text fill="none" stroke="rgb(255,255,255)" font-family="geogebra-sans-serif, sans-serif" font-size="12px" font-style="normal" font-weight="normal" text-decoration="normal" x="207" y="512" text-anchor="start" dominant-baseline="alphabetic" stroke-opacity="1" stroke-linejoin="bevel" stroke-miterlimit="10" stroke-width="3">–2</text><text fill="rgb(37,37,37)" stroke="none" font-family="geogebra-sans-serif, sans-serif" font-size="12px" font-style="normal" font-weight="normal" text-decoration="normal" x="207" y="512" text-anchor="start" dominant-baseline="alphabetic" fill-opacity="1">–2</text><text fill="rgb(37,37,37)" stroke="none" font-family="geogebra-sans-serif, sans-serif" font-size="12px" font-style="normal" font-weight="normal" text-decoration="normal" x="207" y="437" text-anchor="start" dominant-baseline="alphabetic" fill-opacity="1">–1</text><text fill="none" stroke="rgb(255,255,255)" font-family="geogebra-sans-serif, sans-serif" font-size="12px" font-style="normal" font-weight="normal" text-decoration="normal" x="207" y="437" text-anchor="start" dominant-baseline="alphabetic" stroke-opacity="1" stroke-linejoin="bevel" stroke-miterlimit="10" stroke-width="3">–1</text><text fill="rgb(37,37,37)" stroke="none" font-family="geogebra-sans-serif, sans-serif" font-size="12px" font-style="normal" font-weight="normal" text-decoration="normal" x="207" y="437" text-anchor="start" dominant-baseline="alphabetic" fill-opacity="1">–1</text><text fill="rgb(37,37,37)" stroke="none" font-family="geogebra-sans-serif, sans-serif" font-size="12px" font-style="normal" font-weight="normal" text-decoration="normal" x="213" y="287" text-anchor="start" dominant-baseline="alphabetic" fill-opacity="1">1</text><text fill="none" stroke="rgb(255,255,255)" font-family="geogebra-sans-serif, sans-serif" font-size="12px" font-style="normal" font-weight="normal" text-decoration="normal" x="213" y="287" text-anchor="start" dominant-baseline="alphabetic" stroke-opacity="1" stroke-linejoin="bevel" stroke-miterlimit="10" stroke-width="3">1</text><text fill="rgb(37,37,37)" stroke="none" font-family="geogebra-sans-serif, sans-serif" font-size="12px" font-style="normal" font-weight="normal" text-decoration="normal" x="213" y="287" text-anchor="start" dominant-baseline="alphabetic" fill-opacity="1">1</text><text fill="rgb(37,37,37)" stroke="none" font-family="geogebra-sans-serif, sans-serif" font-size="12px" font-style="normal" font-weight="normal" text-decoration="normal" x="213" y="212" text-anchor="start" dominant-baseline="alphabetic" fill-opacity="1">2</text><text fill="none" stroke="rgb(255,255,255)" font-family="geogebra-sans-serif, sans-serif" font-size="12px" font-style="normal" font-weight="normal" text-decoration="normal" x="213" y="212" text-anchor="start" dominant-baseline="alphabetic" stroke-opacity="1" stroke-linejoin="bevel" stroke-miterlimit="10" stroke-width="3">2</text><text fill="rgb(37,37,37)" stroke="none" font-family="geogebra-sans-serif, sans-serif" font-size="12px" font-style="normal" font-weight="normal" text-decoration="normal" x="213" y="212" text-anchor="start" dominant-baseline="alphabetic" fill-opacity="1">2</text><text fill="rgb(37,37,37)" stroke="none" font-family="geogebra-sans-serif, sans-serif" font-size="12px" font-style="normal" font-weight="normal" text-decoration="normal" x="213" y="137" text-anchor="start" dominant-baseline="alphabetic" fill-opacity="1">3</text><text fill="none" stroke="rgb(255,255,255)" font-family="geogebra-sans-serif, sans-serif" font-size="12px" font-style="normal" font-weight="normal" text-decoration="normal" x="213" y="137" text-anchor="start" dominant-baseline="alphabetic" stroke-opacity="1" stroke-linejoin="bevel" stroke-miterlimit="10" stroke-width="3">3</text><text fill="rgb(37,37,37)" stroke="none" font-family="geogebra-sans-serif, sans-serif" font-size="12px" font-style="normal" font-weight="normal" text-decoration="normal" x="213" y="137" text-anchor="start" dominant-baseline="alphabetic" fill-opacity="1">3</text><text fill="rgb(37,37,37)" stroke="none" font-family="geogebra-sans-serif, sans-serif" font-size="12px" font-style="normal" font-weight="normal" text-decoration="normal" x="213" y="62" text-anchor="start" dominant-baseline="alphabetic" fill-opacity="1">4</text><text fill="none" stroke="rgb(255,255,255)" font-family="geogebra-sans-serif, sans-serif" font-size="12px" font-style="normal" font-weight="normal" text-decoration="normal" x="213" y="62" text-anchor="start" dominant-baseline="alphabetic" stroke-opacity="1" stroke-linejoin="bevel" stroke-miterlimit="10" stroke-width="3">4</text><text fill="rgb(37,37,37)" stroke="none" font-family="geogebra-sans-serif, sans-serif" font-size="12px" font-style="normal" font-weight="normal" text-decoration="normal" x="213" y="62" text-anchor="start" dominant-baseline="alphabetic" fill-opacity="1">4</text><text fill="rgb(37,37,37)" stroke="none" font-family="geogebra-sans-serif, sans-serif" font-size="12px" font-style="normal" font-weight="normal" text-decoration="normal" x="213" y="373" text-anchor="start" dominant-baseline="alphabetic" fill-opacity="1">0</text><text fill="none" stroke="rgb(255,255,255)" font-family="geogebra-sans-serif, sans-serif" font-size="12px" font-style="normal" font-weight="normal" text-decoration="normal" x="213" y="373" text-anchor="start" dominant-baseline="alphabetic" stroke-opacity="1" stroke-linejoin="bevel" stroke-miterlimit="10" stroke-width="3">0</text><text fill="rgb(37,37,37)" stroke="none" font-family="geogebra-sans-serif, sans-serif" font-size="12px" font-style="normal" font-weight="normal" text-decoration="normal" x="213" y="373" text-anchor="start" dominant-baseline="alphabetic" fill-opacity="1">0</text><path fill="none" stroke="rgb(255,127,0)" paint-order="fill stroke markers" d=" M 227.49999925000003 282.4999999999999 L 227.50000000000003 282.4999999999999 M 227.50000000000003 282.4999999999999 L 228.42038847273142 282.4943522126677 L 229.3407769454628 282.4774045969022 L 230.2611654181942 282.4491443835766 L 231.18155389092556 282.40955026472045 L 232.10194236365695 282.35859235428677 L 233.02233083638833 282.2962321330386 L 233.94271930911972 282.2224223773642 L 234.8631077818511 282.13710707177654 L 235.7834962545825 282.0402213047944 L 236.70388472731386 281.93169114784325 L 237.62427320004525 281.811433516753 L 238.54466167277664 281.6793560153683 L 239.46505014550803 281.53535676071675 L 240.38543861823942 281.3793241891166 L 241.3058270909708 281.2111368425277 L 242.22621556370217 281.03066313437597 L 243.14660403643356 280.8377610939977 L 244.06699250916495 280.63227808876616 L 244.98738098189634 280.41405052286893 L 245.90776945462773 280.1829035116062 L 246.82815792735911 279.9386505299762 L 247.74854640009048 279.68109303419993 L 248.66893487282186 279.4100200547161 L 249.58932334555325 279.12520775904653 L 250.50971181828464 278.82641898279127 L 251.43010029101603 278.51340272685934 L 252.35048876374742 278.1858936188767 L 253.27087723647878 277.84361133653226 L 254.19126570921017 277.48625999042986 L 255.11165418194156 277.11352746380106 L 256.032042654673 276.72508470620227 L 256.95243112740434 276.3205849780703 L 257.8728196001357 275.8996630427331 L 258.7932080728671 275.4619343021735 L 259.7135965455985 275.0069938725145 L 260.6339850183299 274.5344155948332 L 261.55437349106126 274.043750976517 L 262.4747619637926 273.53452805793785 L 263.39515043652403 273.0062501987445 L 264.3155389092554 272.45839477754623 L 265.2359273819868 271.8904117981781 L 266.1563158547182 271.30172239510085 L 267.07670432744953 270.69171722977677 L 267.99709280018095 270.0597547690798 L 268.9174812729123 269.40515943593147 L 269.83786974564373 268.7272196213874 L 270.7582582183751 268.02518554633144 L 271.6786466911065 267.2982669597431 L 272.59903516383787 266.54563065917796 L 273.5194236365693 265.7663978176234 L 274.43981210930065 264.95964109923926 L 275.360200582032 264.12438154465013 L 276.2805890547634 263.2595852043842 L 277.2009775274948 262.3641594967394 L 278.1213660002262 261.4369492637503 L 279.04175447295756 260.4767324960014 L 279.9621429456889 259.4822156937306 L 280.88253141842034 258.452028827944 L 281.8029198911517 257.38471986104867 L 282.7233083638831 256.278748781749 L 283.6436968366145 255.13248110353697 L 284.56408530934584 253.94418076996806 L 285.48447378207726 252.71200240291552 L 286.4048622548086 251.43398282201775 M 286.4048622548086 251.43398282201775 L 287.32525072754004 250.1080317544137 L 288.2456392002714 248.73192164342012 L 289.16602767300276 247.3032764528205 L 290.0864161457342 245.8195593496551 L 291.00680461846554 244.27805913252024 L 291.92719309119695 242.67587525403655 L 292.8475815639283 241.00990126490547 L 293.76797003665973 239.2768064823124 L 294.6883585093911 237.4730156567458 L 295.6087469821225 235.59468637782635 L 296.5291354548539 233.63768392058213 L 297.44952392758523 231.59755318767088 L 298.36991240031665 229.46948734900894 L 299.290300873048 227.2482927164977 L 300.21068934577943 224.92834931605643 L 301.1310778185108 222.50356652953758 L 302.05146629124215 219.9673330723021 L 302.97185476397357 217.3124604445388 L 303.892243236705 214.53111884118204 L 304.81263170943635 211.61476432070583 L 305.7330201821677 208.55405580986795 L 306.65340865489907 205.33876025044174 L 307.5737971276305 201.9576438634416 L 308.49418560036185 198.39834710144788 L 309.41457407309326 194.64724036129778 L 310.3349625458246 190.68925691304233 L 311.255351018556 186.50769873477432 L 312.1757394912874 182.08400998506727 L 313.0961279640188 177.39751164058737 L 314.0165164367502 172.42508930351434 L 314.93690490948154 167.1408242451321 L 315.85729338221296 161.51555526854355 M 315.85729338221296 161.51555526854355 L 316.7776818549443 155.5163557690571 L 317.69807032767574 149.10590620507585 L 318.6184588004071 142.2417367337849 L 319.53884727313846 134.87530755287509 L 320.4592357458699 126.95088487212573 L 321.37962421860124 118.40415749215538 L 322.30001269133265 109.16052136038212 L 322.76020692769833 104.25071736302749 L 323.220401164064 99.13293526424991 L 323.68059540042975 93.79390860943914 L 324.1407896367954 88.2192171383166 L 324.6009838731611 82.39315858540891 L 325.0611781095268 76.29860299873894 L 325.5213723458925 69.91682673086478 L 325.98156658225815 63.227322714325226 L 326.44176081862383 56.20758297248665 L 326.90195505498957 48.83284850698851 L 327.36214929135525 41.07582070630434 L 327.82234352772093 32.90632718720332 L 328.28253776408667 24.29093344830966 L 328.74273200045235 15.192489799225882 L 329.20292623681803 5.569600620326753 L 329.43302335500084 0.5472403957582515 L 329.6631204731837 -4.62400003751128 L 329.8932175913666 -9.950785899793743 M 463.1194482692345 432.49999999999966 L 463.1194490192345 432.49999999999966 M 463.1194490192345 432.49999999999966 L 464.03983749196584 432.50564778733184 L 464.9602259646972 432.52259540309734 L 465.8806144374286 432.55085561642295 L 466.80100291016 432.5904497352791 L 467.7213913828914 432.6414076457128 L 468.64177985562276 432.70376786696096 L 469.5621683283542 432.77757762263536 L 470.4825568010856 432.862892928223 L 471.40294527381695 432.95977869520516 L 472.3233337465483 433.0683088521563 L 473.2437222192797 433.1885664832465 L 474.16411069201104 433.32064398463126 L 475.08449916474245 433.4646432392828 L 476.00488763747387 433.620675810883 L 476.92527611020523 433.78886315747184 L 477.84566458293665 433.9693368656236 L 478.766053055668 434.16223890600185 L 479.6864415283994 434.3677219112334 L 480.6068300011308 434.5859494771306 L 481.52721847386215 434.81709648839336 L 482.4476069465935 435.06134947002334 L 483.3679954193249 435.3189069657996 L 484.28838389205634 435.58997994528346 L 485.2087723647877 435.874792240953 L 486.12916083751907 436.1735810172083 L 487.0495493102504 436.48659727314015 L 487.9699377829819 436.8141063811228 L 488.89032625571326 437.1563886634673 L 489.8107147284446 437.5137400095697 L 490.731103201176 437.8864725361985 L 491.65149167390734 438.2749152937973 L 492.5718801466388 438.67941502192923 L 493.4922686193702 439.10033695726645 L 494.41265709210154 439.538065697826 L 495.3330455648329 439.99300612748505 L 496.25343403756426 440.46558440516634 L 497.17382251029574 440.9562490234825 L 498.0942109830271 441.4654719420617 L 499.01459945575846 441.99374980125503 L 499.9349879284898 442.5416052224533 L 500.8553764012213 443.10958820182145 L 501.77576487395265 443.6982776048987 L 502.696153346684 444.3082827702228 L 503.6165418194154 444.94024523091974 L 504.53693029214674 445.594840564068 L 505.4573187648781 446.27278037861214 L 506.37770723760957 446.97481445366816 L 507.29809571034093 447.70173304025644 L 508.2184841830723 448.4543693408216 L 509.13887265580365 449.23360218237616 L 510.0592611285351 450.0403589007603 L 510.9796496012665 450.8756184553494 L 511.90003807399785 451.7404147956153 L 512.8204265467292 452.63584050326017 L 513.7408150194606 453.56305073624924 L 514.661203492192 454.52326750399817 L 515.5815919649234 455.5177843062689 L 516.5019804376548 456.5479711720556 L 517.4223689103861 457.6152801389508 L 518.3427573831176 458.72125121825053 L 519.263145855849 459.86751889646257 L 520.1835343285803 461.0558192300315 L 521.1039228013117 462.287997597084 L 522.024311274043 463.56601717798173 M 522.024311274043 463.56601717798173 L 522.9446997467744 464.8919682455858 L 523.8650882195059 466.2680783565794 L 524.7854766922372 467.69672354717903 L 525.7058651649686 469.1804406503444 L 526.6262536377 470.72194086747925 L 527.5466421104313 472.324124745963 L 528.4670305831628 473.9900987350941 L 529.3874190558942 475.7231935176871 L 530.3078075286255 477.52698434325373 L 531.2281960013569 479.40531362217314 L 532.1485844740884 481.3623160794174 L 533.0689729468196 483.40244681232855 L 533.9893614195511 485.53051265099054 L 534.9097498922824 487.7517072835017 L 535.8301383650138 490.07165068394306 L 536.7505268377453 492.49643347046197 L 537.6709153104766 495.0326669276974 L 538.591303783208 497.6875395554607 L 539.5116922559394 500.46888115881734 L 540.4320807286708 503.3852356792937 L 541.3524692014021 506.44594419013146 L 542.2728576741335 509.6612397495578 L 543.1932461468649 513.0423561365578 L 544.1136346195963 516.6016528985517 L 545.0340230923276 520.3527596387015 L 545.9544115650591 524.3107430869571 L 546.8748000377905 528.4923012652249 L 547.7951885105218 532.9159900149322 L 548.7155769832532 537.6024883594118 L 549.6359654559845 542.574910696485 L 550.556353928716 547.8591757548674 M 580.0087850561204 6469.203215502928" stroke-opacity="0.6980392156862745" stroke-linecap="round" stroke-linejoin="round" stroke-miterlimit="10" stroke-width="2.5"/><path fill="none" stroke="rgb(128,0,0)" paint-order="fill stroke markers" d=" M 302.5 357.5000007499998 L 303.13515712587855 347.7734374999999 M 303.13515712587855 347.7734374999999 L 304.1127354428435 342.0839843749999 L 305.5708494857984 336.3945312499999 L 307.5549434303224 330.7050781249999 L 310.13018787226827 325.0156249999999 M 310.13018787226827 325.0156249999999 L 313.3870548907254 319.3261718749999 L 317.4498054687588 313.6367187499999 L 322.4895015648652 307.9472656249999 L 328.7443530569125 302.2578124999999 L 336.55247827615426 296.56835937499994 L 346.4066885172002 290.87890624999994 L 352.31962076697647 288.03417968749994 L 359.05053378046506 285.18945312499994 L 366.76049745578837 282.34472656249994 L 375.6568525328929 279.49999999999994 M 375.6568525328929 279.49999999999994 L 380.63158876610146 278.07763671874994 L 386.0110005688652 276.65527343749994 L 391.8433821239403 275.23291015624994 L 398.1850947825336 273.81054687499994 L 405.10232130236466 272.38818359374994 L 412.6732987877202 270.96582031249994 L 420.9911899858422 269.54345703124994 L 430.1678164927273 268.12109374999994 L 435.119379767744 267.40991210937494 L 440.338571606418 266.69873046874994 L 445.8470718751787 265.98754882812494 L 451.668971873622 265.27636718749994 L 457.83111904248125 264.56518554687494 L 464.3635225441685 263.85400390624994 L 471.29983263729866 263.14282226562494 L 478.6779099993005 262.43164062499994 L 486.54050532313045 261.72045898437494 L 494.9360749385577 261.00927734374994 L 503.9197653177374 260.29809570312494 L 513.5546087210413 259.58691406249994 L 518.6384197970984 259.23132324218744 L 523.9129847701304 258.87573242187494 L 529.3891064884062 258.52014160156244 L 535.0784196078079 258.16455078124994 L 540.9934722153272 257.80895996093744 L 547.1478172564598 257.45336914062494 L 553.5561151683718 257.09777832031244 L 560.2342493545951 256.74218749999994 M 560.2342493545951 256.74218749999994 L 565.4251566612633 256.47575138656845 L 570.78499593248 256.2093152731369 L 576.3220736471421 255.9428791597054 L 582.0452500775888 255.67644304627387 L 587.9639862211744 255.41000693284235 L 594.0883955868411 255.14357081941083 L 600.4293014329025 254.8771347059793 L 606.9983001374555 254.6106985925478 L 613.8078314819218 254.34426247911628 L 620.8712567438791 254.07782636568476 M 152.50000000000006 121.88055173076552 L 152.48106249117544 120.19531250000003 M 152.48106249117544 120.19531250000003 L 152.13595972798413 114.50585937500003 L 151.34762314419362 108.81640625000006 L 150.09267494110662 103.12695312500006 L 148.33268082309638 97.43750000000006 M 148.33268082309638 97.43750000000006 L 146.0111720089721 91.74804687500006 L 143.04897058872285 86.05859375000006 L 139.33705508224182 80.36914062500006 L 134.72567455011858 74.67968750000006 L 129.00748616592955 68.99023437500006 L 121.8907595990214 63.300781250000114 L 112.95531069610757 57.61132812500006 L 107.62155989483823 54.76660156250006 L 101.5768334984327 51.921875000000114 L 94.68894850165174 49.077148437500114 L 86.78981685983655 46.232421875000114 L 77.66247095367373 43.387695312500114 L 72.55253814238196 41.965332031250114 L 67.02201557615979 40.542968750000114 L 61.01998767689412 39.120605468750114 L 54.486910075543165 37.698242187500114 L 47.352704497689274 36.275878906250114 L 39.534325454099815 34.853515625000114 L 30.932619618059732 33.43115234375006 L 21.428225817770794 32.00878906250017 L 16.293396081666458 31.29760742187517 L 10.876155397974998 30.586425781250114 L 5.153186898676921 29.875244140625114 L -0.9014706539966255 29.164062500000114 L -7.316808515407274 28.452880859375114 M -2181.445986535298 6.40625" stroke-opacity="0.6980392156862745" stroke-linecap="round" stroke-linejoin="round" stroke-miterlimit="10" stroke-width="2.5"/><g transform="scale(19,19)"><g transform="translate(19.68421052631579,15.705797263157896)"><path fill="rgb(128,0,0)" stroke="none" paint-order="stroke fill markers" d=" M 0.367 -0.4 L 0.367 -0.4 L 0.307 -0.083 Q 0.298 -0.021 0.271 0.059000000000000004 Q 0.261 0.088 0.251 0.108 Q 0.216 0.182 0.164 0.2 Q 0.151 0.20500000000000002 0.138 0.20500000000000002 Q 0.088 0.20500000000000002 0.064 0.171 Q 0.053 0.156 0.053 0.136 Q 0.053 0.096 0.08700000000000001 0.081 Q 0.097 0.076 0.108 0.076 Q 0.137 0.076 0.14400000000000002 0.101 Q 0.145 0.106 0.145 0.111 Q 0.145 0.145 0.115 0.159 Q 0.10400000000000001 0.164 0.09 0.165 Q 0.109 0.183 0.138 0.183 Q 0.182 0.183 0.20700000000000002 0.085 Q 0.212 0.062 0.219 0.025 L 0.225 -0.005 L 0.3 -0.4 L 0.234 -0.4 Q 0.209 -0.4 0.20700000000000002 -0.40800000000000003 L 0.20600000000000002 -0.40800000000000003 L 0.20600000000000002 -0.41200000000000003 Q 0.20600000000000002 -0.429 0.223 -0.431 L 0.223 -0.431 L 0.23600000000000002 -0.431 L 0.305 -0.431 Q 0.329 -0.556 0.338 -0.588 Q 0.368 -0.6880000000000001 0.444 -0.7030000000000001 Q 0.455 -0.705 0.465 -0.705 Q 0.517 -0.705 0.541 -0.671 L 0.541 -0.671 Q 0.552 -0.656 0.552 -0.636 Q 0.552 -0.596 0.518 -0.581 Q 0.508 -0.5760000000000001 0.497 -0.5760000000000001 Q 0.468 -0.5760000000000001 0.461 -0.601 Q 0.46 -0.606 0.46 -0.611 Q 0.46 -0.642 0.488 -0.657 Q 0.499 -0.664 0.514 -0.665 Q 0.495 -0.683 0.465 -0.683 Q 0.434 -0.683 0.418 -0.649 Q 0.41100000000000003 -0.635 0.394 -0.545 L 0.373 -0.431 L 0.456 -0.431 Q 0.481 -0.431 0.483 -0.42 Q 0.483 -0.402 0.467 -0.4 L 0.466 -0.4 L 0.453 -0.4 L 0.367 -0.4 Z"/></g><g transform="translate(20.28221052631579,15.292905263157897) scale(0.7,0.7)"><path fill="rgb(128,0,0)" stroke="none" paint-order="stroke fill markers" d=" M 0.661 -0.23 L 0.116 -0.23 Q 0.084 -0.23 0.083 -0.25 Q 0.083 -0.27 0.116 -0.27 L 0.661 -0.27 Q 0.6930000000000001 -0.27 0.6940000000000001 -0.25 Q 0.6940000000000001 -0.23 0.661 -0.23 Z"/></g><g transform="translate(20.82681052631579,15.292905263157897) scale(0.7,0.7)"><path fill="rgb(128,0,0)" stroke="none" paint-order="stroke fill markers" d=" M 0.294 -0.64 L 0.294 -0.079 Q 0.294 -0.049 0.306 -0.041 Q 0.323 -0.031 0.387 -0.031 L 0.419 -0.031 L 0.419 0 Q 0.384 -0.003 0.257 -0.003 Q 0.13 -0.003 0.095 0 L 0.095 -0.031 L 0.127 -0.031 Q 0.20400000000000001 -0.031 0.215 -0.049 L 0.216 -0.05 Q 0.22 -0.058 0.22 -0.079 L 0.22 -0.597 Q 0.168 -0.5710000000000001 0.089 -0.5710000000000001 L 0.089 -0.602 Q 0.209 -0.602 0.271 -0.666 Q 0.29 -0.666 0.293 -0.659 L 0.293 -0.659 L 0.293 -0.658 Q 0.294 -0.655 0.294 -0.64 Z"/></g></g><path fill="none" stroke="rgb(127,0,255)" paint-order="fill stroke markers" d=" M 39.99999999999959 545 L 590.0000000000001 -5" stroke-opacity="0.6980392156862745" stroke-linejoin="round" stroke-miterlimit="10" stroke-width="0.5" stroke-dasharray="8.5,8"/><g transform="scale(19,19)"><g transform="translate(26.526315789473685,1.325736842105263)"><path fill="rgb(127,0,255)" stroke="none" paint-order="stroke fill markers" d=" M 0.486 -0.381 L 0.39 0.001 Q 0.366 0.099 0.28300000000000003 0.16 Q 0.222 0.20500000000000002 0.156 0.20500000000000002 Q 0.089 0.20500000000000002 0.061 0.159 Q 0.05 0.14 0.05 0.11800000000000001 Q 0.05 0.067 0.091 0.055 Q 0.099 0.053 0.106 0.053 Q 0.138 0.053 0.14200000000000002 0.081 Q 0.14300000000000002 0.084 0.14300000000000002 0.088 Q 0.14300000000000002 0.111 0.123 0.129 Q 0.109 0.14100000000000001 0.08 0.14100000000000001 Q 0.098 0.183 0.156 0.183 Q 0.218 0.183 0.266 0.12 Q 0.305 0.068 0.328 -0.021 Q 0.329 -0.025 0.331 -0.034 Q 0.28600000000000003 0.011 0.23 0.011 Q 0.15 0.011 0.121 -0.048 Q 0.108 -0.074 0.108 -0.108 Q 0.108 -0.163 0.161 -0.305 Q 0.163 -0.311 0.166 -0.318 Q 0.183 -0.364 0.183 -0.388 Q 0.183 -0.42 0.158 -0.42 Q 0.10300000000000001 -0.42 0.068 -0.329 L 0.068 -0.328 Q 0.062 -0.313 0.057 -0.296 Q 0.046 -0.279 0.041 -0.278 Q 0.029 -0.278 0.029 -0.28800000000000003 Q 0.029 -0.306 0.05 -0.35100000000000003 Q 0.094 -0.442 0.161 -0.442 Q 0.214 -0.442 0.23500000000000001 -0.397 Q 0.243 -0.38 0.243 -0.36 Q 0.243 -0.339 0.223 -0.28800000000000003 Q 0.17200000000000001 -0.156 0.17200000000000001 -0.092 Q 0.17200000000000001 -0.011 0.234 -0.011 Q 0.292 -0.011 0.335 -0.073 Q 0.34500000000000003 -0.088 0.34700000000000003 -0.096 L 0.392 -0.276 Q 0.399 -0.309 0.41200000000000003 -0.356 Q 0.422 -0.399 0.426 -0.41000000000000003 Q 0.439 -0.431 0.461 -0.431 Q 0.486 -0.426 0.49 -0.404 Q 0.49 -0.395 0.486 -0.381 Z"/></g><g transform="translate(27.330093567251463,1.325736842105263)"><path fill="rgb(127,0,255)" stroke="none" paint-order="stroke fill markers" d=" M 0.687 -0.327 L 0.09 -0.327 Q 0.058 -0.327 0.056 -0.34700000000000003 Q 0.056 -0.367 0.089 -0.367 L 0.6880000000000001 -0.367 Q 0.72 -0.367 0.721 -0.34700000000000003 Q 0.721 -0.327 0.687 -0.327 M 0.6880000000000001 -0.133 L 0.089 -0.133 Q 0.057 -0.133 0.056 -0.153 Q 0.056 -0.17300000000000001 0.09 -0.17300000000000001 L 0.687 -0.17300000000000001 Q 0.719 -0.17300000000000001 0.721 -0.153 Q 0.721 -0.133 0.6880000000000001 -0.133 Z"/></g><g transform="translate(28.38587134502924,1.325736842105263)"><path fill="rgb(127,0,255)" stroke="none" paint-order="stroke fill markers" d=" M 0.334 -0.302 L 0.3 -0.165 Q 0.28300000000000003 -0.097 0.28300000000000003 -0.077 Q 0.28300000000000003 -0.025 0.32 -0.014 Q 0.328 -0.011 0.338 -0.011 Q 0.388 -0.011 0.429 -0.061 Q 0.456 -0.093 0.47100000000000003 -0.14200000000000002 Q 0.47400000000000003 -0.153 0.484 -0.153 Q 0.496 -0.153 0.496 -0.14300000000000002 Q 0.496 -0.11800000000000001 0.465 -0.07100000000000001 Q 0.41100000000000003 0.011 0.336 0.011 Q 0.268 0.011 0.23700000000000002 -0.046 Q 0.231 -0.055 0.228 -0.065 Q 0.20400000000000001 -0.017 0.162 0.002 Q 0.14300000000000002 0.011 0.123 0.011 Q 0.063 0.011 0.039 -0.024 Q 0.029 -0.037 0.029 -0.055 Q 0.029 -0.092 0.061 -0.107 Q 0.07200000000000001 -0.113 0.084 -0.113 Q 0.114 -0.113 0.12 -0.088 Q 0.121 -0.083 0.121 -0.078 Q 0.121 -0.044 0.08700000000000001 -0.028 Q 0.081 -0.025 0.074 -0.024 Q 0.095 -0.011 0.124 -0.011 Q 0.177 -0.011 0.20800000000000002 -0.082 Q 0.214 -0.097 0.219 -0.115 Q 0.273 -0.319 0.273 -0.353 Q 0.267 -0.41500000000000004 0.219 -0.42 Q 0.167 -0.42 0.124 -0.367 L 0.124 -0.366 Q 0.124 -0.365 0.123 -0.365 Q 0.108 -0.34500000000000003 0.096 -0.319 Q 0.091 -0.307 0.08700000000000001 -0.295 L 0.085 -0.289 Q 0.083 -0.278 0.07200000000000001 -0.278 Q 0.06 -0.278 0.06 -0.28800000000000003 Q 0.06 -0.313 0.092 -0.36 Q 0.146 -0.442 0.221 -0.442 Q 0.298 -0.442 0.329 -0.366 Q 0.361 -0.428 0.41400000000000003 -0.44 Q 0.424 -0.442 0.434 -0.442 Q 0.493 -0.442 0.517 -0.40900000000000003 Q 0.527 -0.395 0.527 -0.376 Q 0.527 -0.335 0.49 -0.321 Q 0.481 -0.318 0.47300000000000003 -0.318 Q 0.442 -0.318 0.436 -0.34500000000000003 Q 0.435 -0.34900000000000003 0.435 -0.353 Q 0.435 -0.383 0.464 -0.4 Q 0.47300000000000003 -0.405 0.483 -0.40700000000000003 Q 0.462 -0.42 0.433 -0.42 Q 0.365 -0.42 0.337 -0.314 Q 0.335 -0.308 0.334 -0.302 Z"/></g></g><path fill="none" stroke="rgb(0,100,0)" paint-order="fill stroke markers" d=" M 152.50000000000006 121.88055098076555 L 152.50000000000006 357.4999999999998" stroke-opacity="0.6980392156862745" stroke-linejoin="round" stroke-miterlimit="10" stroke-dasharray="5,4"/><path fill="none" stroke="rgb(0,100,0)" paint-order="fill stroke markers" d=" M 152.50000000000006 121.88055098076555 L 227.50000000000003 121.88055098076555" stroke-opacity="0.6980392156862745" stroke-linejoin="round" stroke-miterlimit="10" stroke-dasharray="5,4"/><path fill="none" stroke="rgb(0,100,0)" paint-order="fill stroke markers" d=" M 463.1194490192345 432.49999999999966 L 227.50000000000003 432.49999999999966" stroke-opacity="0.6980392156862745" stroke-linejoin="round" stroke-miterlimit="10" stroke-dasharray="5,4"/><path fill="none" stroke="rgb(0,100,0)" paint-order="fill stroke markers" d=" M 463.1194490192345 432.49999999999966 L 463.1194490192345 357.4999999999998" stroke-opacity="0.6980392156862745" stroke-linejoin="round" stroke-miterlimit="10" stroke-dasharray="5,4"/><path fill="rgb(255,127,0)" stroke="none" paint-order="stroke fill markers" d=" M 231.50000000000003 282.4999999999999 C 231.50000000000003 284.70913899932305 229.70913899932322 286.4999999999999 227.50000000000003 286.4999999999999 C 225.29086100067684 286.4999999999999 223.50000000000003 284.70913899932305 223.50000000000003 282.4999999999999 C 223.50000000000003 280.2908610006767 225.29086100067684 278.4999999999999 227.50000000000003 278.4999999999999 C 229.70913899932322 278.4999999999999 231.50000000000003 280.2908610006767 231.50000000000003 282.4999999999999 Z" fill-opacity="1"/><path fill="none" stroke="rgb(0,0,0)" paint-order="fill stroke markers" d=" M 231.50000000000003 282.4999999999999 C 231.50000000000003 284.70913899932305 229.70913899932322 286.4999999999999 227.50000000000003 286.4999999999999 C 225.29086100067684 286.4999999999999 223.50000000000003 284.70913899932305 223.50000000000003 282.4999999999999 C 223.50000000000003 280.2908610006767 225.29086100067684 278.4999999999999 227.50000000000003 278.4999999999999 C 229.70913899932322 278.4999999999999 231.50000000000003 280.2908610006767 231.50000000000003 282.4999999999999 Z" stroke-opacity="1" stroke-linecap="round" stroke-linejoin="round" stroke-miterlimit="10"/><text fill="rgb(255,127,0)" stroke="none" font-family="geogebra-sans-serif, sans-serif" font-size="16px" font-style="normal" font-weight="normal" text-decoration="normal" x="159" y="306" text-anchor="start" dominant-baseline="alphabetic" fill-opacity="1">A = (0, 1)</text><text fill="none" stroke="rgb(255,255,255)" font-family="geogebra-sans-serif, sans-serif" font-size="16px" font-style="normal" font-weight="normal" text-decoration="normal" x="159" y="306" text-anchor="start" dominant-baseline="alphabetic" stroke-opacity="1" stroke-linejoin="bevel" stroke-miterlimit="10" stroke-width="3">A = (0, 1)</text><text fill="rgb(255,127,0)" stroke="none" font-family="geogebra-sans-serif, sans-serif" font-size="16px" font-style="normal" font-weight="normal" text-decoration="normal" x="159" y="306" text-anchor="start" dominant-baseline="alphabetic" fill-opacity="1">A = (0, 1)</text><path fill="rgb(128,0,0)" stroke="none" paint-order="stroke fill markers" d=" M 306.5 357.4999999999998 C 306.5 359.70913899932293 304.70913899932316 361.4999999999998 302.5 361.4999999999998 C 300.29086100067684 361.4999999999998 298.5 359.70913899932293 298.5 357.4999999999998 C 298.5 355.2908610006766 300.29086100067684 353.4999999999998 302.5 353.4999999999998 C 304.70913899932316 353.4999999999998 306.5 355.2908610006766 306.5 357.4999999999998 Z" fill-opacity="1"/><path fill="none" stroke="rgb(0,0,0)" paint-order="fill stroke markers" d=" M 306.5 357.4999999999998 C 306.5 359.70913899932293 304.70913899932316 361.4999999999998 302.5 361.4999999999998 C 300.29086100067684 361.4999999999998 298.5 359.70913899932293 298.5 357.4999999999998 C 298.5 355.2908610006766 300.29086100067684 353.4999999999998 302.5 353.4999999999998 C 304.70913899932316 353.4999999999998 306.5 355.2908610006766 306.5 357.4999999999998 Z" stroke-opacity="1" stroke-linecap="round" stroke-linejoin="round" stroke-miterlimit="10"/><text fill="rgb(128,0,0)" stroke="none" font-family="geogebra-sans-serif, sans-serif" font-size="16px" font-style="normal" font-weight="normal" text-decoration="normal" x="320" y="344" text-anchor="start" dominant-baseline="alphabetic" fill-opacity="1">A' = (1, 0)</text><text fill="none" stroke="rgb(255,255,255)" font-family="geogebra-sans-serif, sans-serif" font-size="16px" font-style="normal" font-weight="normal" text-decoration="normal" x="320" y="344" text-anchor="start" dominant-baseline="alphabetic" stroke-opacity="1" stroke-linejoin="bevel" stroke-miterlimit="10" stroke-width="3">A' = (1, 0)</text><text fill="rgb(128,0,0)" stroke="none" font-family="geogebra-sans-serif, sans-serif" font-size="16px" font-style="normal" font-weight="normal" text-decoration="normal" x="320" y="344" text-anchor="start" dominant-baseline="alphabetic" fill-opacity="1">A' = (1, 0)</text><path fill="rgb(255,127,0)" stroke="none" paint-order="stroke fill markers" d=" M 467.1194490192345 432.49999999999966 C 467.1194490192345 434.7091389993228 465.32858801855764 436.49999999999966 463.1194490192345 436.49999999999966 C 460.9103100199113 436.49999999999966 459.1194490192345 434.7091389993228 459.1194490192345 432.49999999999966 C 459.1194490192345 430.2908610006765 460.9103100199113 428.49999999999966 463.1194490192345 428.49999999999966 C 465.32858801855764 428.49999999999966 467.1194490192345 430.2908610006765 467.1194490192345 432.49999999999966 Z" fill-opacity="1"/><path fill="none" stroke="rgb(0,0,0)" paint-order="fill stroke markers" d=" M 467.1194490192345 432.49999999999966 C 467.1194490192345 434.7091389993228 465.32858801855764 436.49999999999966 463.1194490192345 436.49999999999966 C 460.9103100199113 436.49999999999966 459.1194490192345 434.7091389993228 459.1194490192345 432.49999999999966 C 459.1194490192345 430.2908610006765 460.9103100199113 428.49999999999966 463.1194490192345 428.49999999999966 C 465.32858801855764 428.49999999999966 467.1194490192345 430.2908610006765 467.1194490192345 432.49999999999966 Z" stroke-opacity="1" stroke-linecap="round" stroke-linejoin="round" stroke-miterlimit="10"/><text fill="rgb(255,127,0)" stroke="none" font-family="geogebra-sans-serif, sans-serif" font-size="16px" font-style="normal" font-weight="normal" text-decoration="normal" x="401" y="463" text-anchor="start" dominant-baseline="alphabetic" fill-opacity="1">B = (3.14, -1)</text><text fill="none" stroke="rgb(255,255,255)" font-family="geogebra-sans-serif, sans-serif" font-size="16px" font-style="normal" font-weight="normal" text-decoration="normal" x="401" y="463" text-anchor="start" dominant-baseline="alphabetic" stroke-opacity="1" stroke-linejoin="bevel" stroke-miterlimit="10" stroke-width="3">B = (3.14, -1)</text><text fill="rgb(255,127,0)" stroke="none" font-family="geogebra-sans-serif, sans-serif" font-size="16px" font-style="normal" font-weight="normal" text-decoration="normal" x="401" y="463" text-anchor="start" dominant-baseline="alphabetic" fill-opacity="1">B = (3.14, -1)</text><path fill="rgb(128,0,0)" stroke="none" paint-order="stroke fill markers" d=" M 156.50000000000006 121.88055098076555 C 156.50000000000006 124.08968998008872 154.70913899932322 125.88055098076555 152.50000000000006 125.88055098076555 C 150.29086100067687 125.88055098076555 148.50000000000006 124.08968998008872 148.50000000000006 121.88055098076555 C 148.50000000000006 119.67141198144238 150.29086100067687 117.88055098076555 152.50000000000006 117.88055098076555 C 154.70913899932322 117.88055098076555 156.50000000000006 119.67141198144238 156.50000000000006 121.88055098076555 Z" fill-opacity="1"/><path fill="none" stroke="rgb(0,0,0)" paint-order="fill stroke markers" d=" M 156.50000000000006 121.88055098076555 C 156.50000000000006 124.08968998008872 154.70913899932322 125.88055098076555 152.50000000000006 125.88055098076555 C 150.29086100067687 125.88055098076555 148.50000000000006 124.08968998008872 148.50000000000006 121.88055098076555 C 148.50000000000006 119.67141198144238 150.29086100067687 117.88055098076555 152.50000000000006 117.88055098076555 C 154.70913899932322 117.88055098076555 156.50000000000006 119.67141198144238 156.50000000000006 121.88055098076555 Z" stroke-opacity="1" stroke-linecap="round" stroke-linejoin="round" stroke-miterlimit="10"/><text fill="rgb(128,0,0)" stroke="none" font-family="geogebra-sans-serif, sans-serif" font-size="16px" font-style="normal" font-weight="normal" text-decoration="normal" x="84" y="147" text-anchor="start" dominant-baseline="alphabetic" fill-opacity="1">B' = (-1, 3.14)</text><text fill="none" stroke="rgb(255,255,255)" font-family="geogebra-sans-serif, sans-serif" font-size="16px" font-style="normal" font-weight="normal" text-decoration="normal" x="84" y="147" text-anchor="start" dominant-baseline="alphabetic" stroke-opacity="1" stroke-linejoin="bevel" stroke-miterlimit="10" stroke-width="3">B' = (-1, 3.14)</text><text fill="rgb(128,0,0)" stroke="none" font-family="geogebra-sans-serif, sans-serif" font-size="16px" font-style="normal" font-weight="normal" text-decoration="normal" x="84" y="147" text-anchor="start" dominant-baseline="alphabetic" fill-opacity="1">B' = (-1, 3.14)</text><path fill="rgb(0,0,255)" stroke="none" paint-order="stroke fill markers" d=" M 153.50000000000006 357.4999999999998 C 153.50000000000006 358.05228474983056 153.05228474983085 358.4999999999998 152.50000000000006 358.4999999999998 C 151.94771525016927 358.4999999999998 151.50000000000006 358.05228474983056 151.50000000000006 357.4999999999998 C 151.50000000000006 356.947715250169 151.94771525016927 356.4999999999998 152.50000000000006 356.4999999999998 C 153.05228474983085 356.4999999999998 153.50000000000006 356.947715250169 153.50000000000006 357.4999999999998 Z" fill-opacity="1"/><path fill="none" stroke="rgb(0,0,0)" paint-order="fill stroke markers" d=" M 153.50000000000006 357.4999999999998 C 153.50000000000006 358.05228474983056 153.05228474983085 358.4999999999998 152.50000000000006 358.4999999999998 C 151.94771525016927 358.4999999999998 151.50000000000006 358.05228474983056 151.50000000000006 357.4999999999998 C 151.50000000000006 356.947715250169 151.94771525016927 356.4999999999998 152.50000000000006 356.4999999999998 C 153.05228474983085 356.4999999999998 153.50000000000006 356.947715250169 153.50000000000006 357.4999999999998 Z" stroke-opacity="1" stroke-linecap="round" stroke-linejoin="round" stroke-miterlimit="10"/><text fill="rgb(0,0,255)" stroke="none" font-family="geogebra-sans-serif, sans-serif" font-size="16px" font-style="normal" font-weight="normal" text-decoration="normal" x="96" y="340" text-anchor="start" dominant-baseline="alphabetic" fill-opacity="1">(-1, 0)</text><text fill="none" stroke="rgb(255,255,255)" font-family="geogebra-sans-serif, sans-serif" font-size="16px" font-style="normal" font-weight="normal" text-decoration="normal" x="96" y="340" text-anchor="start" dominant-baseline="alphabetic" stroke-opacity="1" stroke-linejoin="bevel" stroke-miterlimit="10" stroke-width="3">(-1, 0)</text><text fill="rgb(0,0,255)" stroke="none" font-family="geogebra-sans-serif, sans-serif" font-size="16px" font-style="normal" font-weight="normal" text-decoration="normal" x="96" y="340" text-anchor="start" dominant-baseline="alphabetic" fill-opacity="1">(-1, 0)</text><path fill="rgb(0,0,255)" stroke="none" paint-order="stroke fill markers" d=" M 228.50000000000003 121.88055098076555 C 228.50000000000003 122.43283573059634 228.05228474983082 122.88055098076555 227.50000000000003 122.88055098076555 C 226.94771525016924 122.88055098076555 226.50000000000003 122.43283573059634 226.50000000000003 121.88055098076555 C 226.50000000000003 121.32826623093476 226.94771525016924 120.88055098076555 227.50000000000003 120.88055098076555 C 228.05228474983082 120.88055098076555 228.50000000000003 121.32826623093476 228.50000000000003 121.88055098076555 Z" fill-opacity="1"/><path fill="none" stroke="rgb(0,0,0)" paint-order="fill stroke markers" d=" M 228.50000000000003 121.88055098076555 C 228.50000000000003 122.43283573059634 228.05228474983082 122.88055098076555 227.50000000000003 122.88055098076555 C 226.94771525016924 122.88055098076555 226.50000000000003 122.43283573059634 226.50000000000003 121.88055098076555 C 226.50000000000003 121.32826623093476 226.94771525016924 120.88055098076555 227.50000000000003 120.88055098076555 C 228.05228474983082 120.88055098076555 228.50000000000003 121.32826623093476 228.50000000000003 121.88055098076555 Z" stroke-opacity="1" stroke-linecap="round" stroke-linejoin="round" stroke-miterlimit="10"/><text fill="rgb(0,0,255)" stroke="none" font-family="geogebra-sans-serif, sans-serif" font-size="16px" font-style="normal" font-weight="normal" text-decoration="normal" x="240" y="120" text-anchor="start" dominant-baseline="alphabetic" fill-opacity="1">(0, π)</text><text fill="none" stroke="rgb(255,255,255)" font-family="geogebra-sans-serif, sans-serif" font-size="16px" font-style="normal" font-weight="normal" text-decoration="normal" x="240" y="120" text-anchor="start" dominant-baseline="alphabetic" stroke-opacity="1" stroke-linejoin="bevel" stroke-miterlimit="10" stroke-width="3">(0, π)</text><text fill="rgb(0,0,255)" stroke="none" font-family="geogebra-sans-serif, sans-serif" font-size="16px" font-style="normal" font-weight="normal" text-decoration="normal" x="240" y="120" text-anchor="start" dominant-baseline="alphabetic" fill-opacity="1">(0, π)</text><path fill="rgb(0,0,255)" stroke="none" paint-order="stroke fill markers" d=" M 464.1194490192345 357.4999999999998 C 464.1194490192345 358.05228474983056 463.67173376906527 358.4999999999998 463.1194490192345 358.4999999999998 C 462.5671642694037 358.4999999999998 462.1194490192345 358.05228474983056 462.1194490192345 357.4999999999998 C 462.1194490192345 356.947715250169 462.5671642694037 356.4999999999998 463.1194490192345 356.4999999999998 C 463.67173376906527 356.4999999999998 464.1194490192345 356.947715250169 464.1194490192345 357.4999999999998 Z" fill-opacity="1"/><path fill="none" stroke="rgb(0,0,0)" paint-order="fill stroke markers" d=" M 464.1194490192345 357.4999999999998 C 464.1194490192345 358.05228474983056 463.67173376906527 358.4999999999998 463.1194490192345 358.4999999999998 C 462.5671642694037 358.4999999999998 462.1194490192345 358.05228474983056 462.1194490192345 357.4999999999998 C 462.1194490192345 356.947715250169 462.5671642694037 356.4999999999998 463.1194490192345 356.4999999999998 C 463.67173376906527 356.4999999999998 464.1194490192345 356.947715250169 464.1194490192345 357.4999999999998 Z" stroke-opacity="1" stroke-linecap="round" stroke-linejoin="round" stroke-miterlimit="10"/><text fill="rgb(0,0,255)" stroke="none" font-family="geogebra-sans-serif, sans-serif" font-size="16px" font-style="normal" font-weight="normal" text-decoration="normal" x="441" y="342" text-anchor="start" dominant-baseline="alphabetic" fill-opacity="1">(π, 0)</text><text fill="none" stroke="rgb(255,255,255)" font-family="geogebra-sans-serif, sans-serif" font-size="16px" font-style="normal" font-weight="normal" text-decoration="normal" x="441" y="342" text-anchor="start" dominant-baseline="alphabetic" stroke-opacity="1" stroke-linejoin="bevel" stroke-miterlimit="10" stroke-width="3">(π, 0)</text><text fill="rgb(0,0,255)" stroke="none" font-family="geogebra-sans-serif, sans-serif" font-size="16px" font-style="normal" font-weight="normal" text-decoration="normal" x="441" y="342" text-anchor="start" dominant-baseline="alphabetic" fill-opacity="1">(π, 0)</text><path fill="rgb(0,0,255)" stroke="none" paint-order="stroke fill markers" d=" M 228.50000000000003 432.49999999999966 C 228.50000000000003 433.05228474983045 228.05228474983082 433.49999999999966 227.50000000000003 433.49999999999966 C 226.94771525016924 433.49999999999966 226.50000000000003 433.05228474983045 226.50000000000003 432.49999999999966 C 226.50000000000003 431.94771525016887 226.94771525016924 431.49999999999966 227.50000000000003 431.49999999999966 C 228.05228474983082 431.49999999999966 228.50000000000003 431.94771525016887 228.50000000000003 432.49999999999966 Z" fill-opacity="1"/><path fill="none" stroke="rgb(0,0,0)" paint-order="fill stroke markers" d=" M 228.50000000000003 432.49999999999966 C 228.50000000000003 433.05228474983045 228.05228474983082 433.49999999999966 227.50000000000003 433.49999999999966 C 226.94771525016924 433.49999999999966 226.50000000000003 433.05228474983045 226.50000000000003 432.49999999999966 C 226.50000000000003 431.94771525016887 226.94771525016924 431.49999999999966 227.50000000000003 431.49999999999966 C 228.05228474983082 431.49999999999966 228.50000000000003 431.94771525016887 228.50000000000003 432.49999999999966 Z" stroke-opacity="1" stroke-linecap="round" stroke-linejoin="round" stroke-miterlimit="10"/><text fill="rgb(0,0,255)" stroke="none" font-family="geogebra-sans-serif, sans-serif" font-size="16px" font-style="normal" font-weight="normal" text-decoration="normal" x="235" y="461" text-anchor="start" dominant-baseline="alphabetic" fill-opacity="1">(0, -1)</text><text fill="none" stroke="rgb(255,255,255)" font-family="geogebra-sans-serif, sans-serif" font-size="16px" font-style="normal" font-weight="normal" text-decoration="normal" x="235" y="461" text-anchor="start" dominant-baseline="alphabetic" stroke-opacity="1" stroke-linejoin="bevel" stroke-miterlimit="10" stroke-width="3">(0, -1)</text><text fill="rgb(0,0,255)" stroke="none" font-family="geogebra-sans-serif, sans-serif" font-size="16px" font-style="normal" font-weight="normal" text-decoration="normal" x="235" y="461" text-anchor="start" dominant-baseline="alphabetic" fill-opacity="1">(0, -1)</text><g transform="scale(19,19)"><g transform="translate(17,9.904526315789475)"><path fill="rgb(255,127,0)" stroke="none" paint-order="stroke fill markers" d=" M 0.367 -0.4 L 0.367 -0.4 L 0.307 -0.083 Q 0.298 -0.021 0.271 0.059000000000000004 Q 0.261 0.088 0.251 0.108 Q 0.216 0.182 0.164 0.2 Q 0.151 0.20500000000000002 0.138 0.20500000000000002 Q 0.088 0.20500000000000002 0.064 0.171 Q 0.053 0.156 0.053 0.136 Q 0.053 0.096 0.08700000000000001 0.081 Q 0.097 0.076 0.108 0.076 Q 0.137 0.076 0.14400000000000002 0.101 Q 0.145 0.106 0.145 0.111 Q 0.145 0.145 0.115 0.159 Q 0.10400000000000001 0.164 0.09 0.165 Q 0.109 0.183 0.138 0.183 Q 0.182 0.183 0.20700000000000002 0.085 Q 0.212 0.062 0.219 0.025 L 0.225 -0.005 L 0.3 -0.4 L 0.234 -0.4 Q 0.209 -0.4 0.20700000000000002 -0.40800000000000003 L 0.20600000000000002 -0.40800000000000003 L 0.20600000000000002 -0.41200000000000003 Q 0.20600000000000002 -0.429 0.223 -0.431 L 0.223 -0.431 L 0.23600000000000002 -0.431 L 0.305 -0.431 Q 0.329 -0.556 0.338 -0.588 Q 0.368 -0.6880000000000001 0.444 -0.7030000000000001 Q 0.455 -0.705 0.465 -0.705 Q 0.517 -0.705 0.541 -0.671 L 0.541 -0.671 Q 0.552 -0.656 0.552 -0.636 Q 0.552 -0.596 0.518 -0.581 Q 0.508 -0.5760000000000001 0.497 -0.5760000000000001 Q 0.468 -0.5760000000000001 0.461 -0.601 Q 0.46 -0.606 0.46 -0.611 Q 0.46 -0.642 0.488 -0.657 Q 0.499 -0.664 0.514 -0.665 Q 0.495 -0.683 0.465 -0.683 Q 0.434 -0.683 0.418 -0.649 Q 0.41100000000000003 -0.635 0.394 -0.545 L 0.373 -0.431 L 0.456 -0.431 Q 0.481 -0.431 0.483 -0.42 Q 0.483 -0.402 0.467 -0.4 L 0.466 -0.4 L 0.453 -0.4 L 0.367 -0.4 Z"/></g></g></g></g></svg>