<svg version="1.1" xmlns="http://www.w3.org/2000/svg" xmlns:xlink="http://www.w3.org/1999/xlink" width="263" height="202"><defs><clipPath id="fDfpoUdJsQNL"><path fill="none" stroke="none" d=" M 0 0 L 263 0 L 263 202 L 0 202 L 0 0 Z"/></clipPath></defs><g transform="scale(1,1)" clip-path="url(#fDfpoUdJsQNL)"><g><rect fill="rgb(255,255,255)" stroke="none" x="0" y="0" width="263" height="202" fill-opacity="1"/><path fill="none" stroke="rgb(0,153,255)" paint-order="fill stroke markers" d=" M 142.5298429860286 121.44605676957413 C 142.5298429860286 146.02752769466116 122.60262354329674 165.95474713739293 98.02115261820961 165.95474713739293 C 73.43968169312247 165.95474713739293 53.51246225039064 146.02752769466116 53.51246225039064 121.44605676957413 C 53.51246225039064 96.86458584448707 73.43968169312247 76.93736640175531 98.02115261820961 76.93736640175531 C 122.60262354329674 76.93736640175531 142.5298429860286 96.86458584448707 142.5298429860286 121.44605676957413 Z" stroke-opacity="0.6980392156862745" stroke-linejoin="round" stroke-miterlimit="10" stroke-dasharray="5,4"/><path fill="none" stroke="rgb(0,100,0)" paint-order="fill stroke markers" d=" M 69.9999999999999 34.00000000000074 L 43.99999999999993 165.00000000000014" stroke-opacity="0.6980392156862745" stroke-linecap="round" stroke-linejoin="round" stroke-miterlimit="10"/><path fill="none" stroke="rgb(0,100,0)" paint-order="fill stroke markers" d=" M 212.49999999999974 168.0000000000001 L 69.9999999999999 34.00000000000074" stroke-opacity="0.6980392156862745" stroke-linecap="round" stroke-linejoin="round" stroke-miterlimit="10"/><path fill="none" stroke="rgb(255,85,0)" paint-order="fill stroke markers" d=" M 43.99999999999993 165.00000000000014 L 97.22883859412462 165.94769445568187" stroke-opacity="0.6980392156862745" stroke-linecap="round" stroke-linejoin="round" stroke-miterlimit="10"/><path fill="none" stroke="rgb(255,85,0)" paint-order="fill stroke markers" d=" M 159.27116140587492 167.05230554431836 L 212.49999999999974 168.0000000000001" stroke-opacity="0.6980392156862745" stroke-linecap="round" stroke-linejoin="round" stroke-miterlimit="10"/><path fill="none" stroke="rgb(0,100,0)" paint-order="fill stroke markers" d=" M 97.22883859412462 165.94769445568187 L 159.27116140587492 167.05230554431836" stroke-opacity="0.6980392156862745" stroke-linecap="round" stroke-linejoin="round" stroke-miterlimit="10"/><path fill="none" stroke="rgb(0,100,0)" paint-order="fill stroke markers" d=" M 98.8134666422946 76.94441908346636 L 97.22883859412462 165.94769445568187" stroke-opacity="0.6980392156862745" stroke-linecap="round" stroke-linejoin="round" stroke-miterlimit="10"/><path fill="none" stroke="rgb(0,100,0)" paint-order="fill stroke markers" d=" M 69.9999999999999 34.00000000000074 L 159.27116140587492 167.05230554431836" stroke-opacity="0.6980392156862745" stroke-linecap="round" stroke-linejoin="round" stroke-miterlimit="10"/><path fill="rgb(0,0,255)" stroke="none" paint-order="stroke fill markers" d=" M 71.9999999999999 34.00000000000074 C 71.9999999999999 35.104569499662325 71.1045694996615 36.00000000000074 69.9999999999999 36.00000000000074 C 68.8954305003383 36.00000000000074 67.9999999999999 35.104569499662325 67.9999999999999 34.00000000000074 C 67.9999999999999 32.89543050033915 68.8954305003383 32.00000000000074 69.9999999999999 32.00000000000074 C 71.1045694996615 32.00000000000074 71.9999999999999 32.89543050033915 71.9999999999999 34.00000000000074 Z" fill-opacity="1"/><path fill="none" stroke="rgb(0,0,0)" paint-order="fill stroke markers" d=" M 71.9999999999999 34.00000000000074 C 71.9999999999999 35.104569499662325 71.1045694996615 36.00000000000074 69.9999999999999 36.00000000000074 C 68.8954305003383 36.00000000000074 67.9999999999999 35.104569499662325 67.9999999999999 34.00000000000074 C 67.9999999999999 32.89543050033915 68.8954305003383 32.00000000000074 69.9999999999999 32.00000000000074 C 71.1045694996615 32.00000000000074 71.9999999999999 32.89543050033915 71.9999999999999 34.00000000000074 Z" stroke-opacity="1" stroke-linecap="round" stroke-linejoin="round" stroke-miterlimit="10"/><text fill="rgb(0,0,255)" stroke="none" font-family="geogebra-sans-serif, sans-serif" font-size="16px" font-style="normal" font-weight="normal" text-decoration="normal" x="58" y="24" text-anchor="start" dominant-baseline="alphabetic" fill-opacity="1">A</text><text fill="none" stroke="rgb(255,255,255)" font-family="geogebra-sans-serif, sans-serif" font-size="16px" font-style="normal" font-weight="normal" text-decoration="normal" x="58" y="24" text-anchor="start" dominant-baseline="alphabetic" stroke-opacity="1" stroke-linejoin="bevel" stroke-miterlimit="10" stroke-width="3">A</text><text fill="rgb(0,0,255)" stroke="none" font-family="geogebra-sans-serif, sans-serif" font-size="16px" font-style="normal" font-weight="normal" text-decoration="normal" x="58" y="24" text-anchor="start" dominant-baseline="alphabetic" fill-opacity="1">A</text><path fill="rgb(0,0,255)" stroke="none" paint-order="stroke fill markers" d=" M 45.99999999999993 165.00000000000014 C 45.99999999999993 166.10456949966172 45.104569499661515 167.00000000000014 43.99999999999993 167.00000000000014 C 42.89543050033834 167.00000000000014 41.99999999999993 166.10456949966172 41.99999999999993 165.00000000000014 C 41.99999999999993 163.89543050033856 42.89543050033834 163.00000000000014 43.99999999999993 163.00000000000014 C 45.104569499661515 163.00000000000014 45.99999999999993 163.89543050033856 45.99999999999993 165.00000000000014 Z" fill-opacity="1"/><path fill="none" stroke="rgb(0,0,0)" paint-order="fill stroke markers" d=" M 45.99999999999993 165.00000000000014 C 45.99999999999993 166.10456949966172 45.104569499661515 167.00000000000014 43.99999999999993 167.00000000000014 C 42.89543050033834 167.00000000000014 41.99999999999993 166.10456949966172 41.99999999999993 165.00000000000014 C 41.99999999999993 163.89543050033856 42.89543050033834 163.00000000000014 43.99999999999993 163.00000000000014 C 45.104569499661515 163.00000000000014 45.99999999999993 163.89543050033856 45.99999999999993 165.00000000000014 Z" stroke-opacity="1" stroke-linecap="round" stroke-linejoin="round" stroke-miterlimit="10"/><text fill="rgb(0,0,255)" stroke="none" font-family="geogebra-sans-serif, sans-serif" font-size="16px" font-style="normal" font-weight="normal" text-decoration="normal" x="24" y="175" text-anchor="start" dominant-baseline="alphabetic" fill-opacity="1">B</text><text fill="none" stroke="rgb(255,255,255)" font-family="geogebra-sans-serif, sans-serif" font-size="16px" font-style="normal" font-weight="normal" text-decoration="normal" x="24" y="175" text-anchor="start" dominant-baseline="alphabetic" stroke-opacity="1" stroke-linejoin="bevel" stroke-miterlimit="10" stroke-width="3">B</text><text fill="rgb(0,0,255)" stroke="none" font-family="geogebra-sans-serif, sans-serif" font-size="16px" font-style="normal" font-weight="normal" text-decoration="normal" x="24" y="175" text-anchor="start" dominant-baseline="alphabetic" fill-opacity="1">B</text><path fill="rgb(0,0,255)" stroke="none" paint-order="stroke fill markers" d=" M 214.49999999999974 168.0000000000001 C 214.49999999999974 169.1045694996617 213.60456949966132 170.0000000000001 212.49999999999974 170.0000000000001 C 211.39543050033816 170.0000000000001 210.49999999999974 169.1045694996617 210.49999999999974 168.0000000000001 C 210.49999999999974 166.89543050033853 211.39543050033816 166.0000000000001 212.49999999999974 166.0000000000001 C 213.60456949966132 166.0000000000001 214.49999999999974 166.89543050033853 214.49999999999974 168.0000000000001 Z" fill-opacity="1"/><path fill="none" stroke="rgb(0,0,0)" paint-order="fill stroke markers" d=" M 214.49999999999974 168.0000000000001 C 214.49999999999974 169.1045694996617 213.60456949966132 170.0000000000001 212.49999999999974 170.0000000000001 C 211.39543050033816 170.0000000000001 210.49999999999974 169.1045694996617 210.49999999999974 168.0000000000001 C 210.49999999999974 166.89543050033853 211.39543050033816 166.0000000000001 212.49999999999974 166.0000000000001 C 213.60456949966132 166.0000000000001 214.49999999999974 166.89543050033853 214.49999999999974 168.0000000000001 Z" stroke-opacity="1" stroke-linecap="round" stroke-linejoin="round" stroke-miterlimit="10"/><text fill="rgb(0,0,255)" stroke="none" font-family="geogebra-sans-serif, sans-serif" font-size="16px" font-style="normal" font-weight="normal" text-decoration="normal" x="220" y="181" text-anchor="start" dominant-baseline="alphabetic" fill-opacity="1">C</text><text fill="none" stroke="rgb(255,255,255)" font-family="geogebra-sans-serif, sans-serif" font-size="16px" font-style="normal" font-weight="normal" text-decoration="normal" x="220" y="181" text-anchor="start" dominant-baseline="alphabetic" stroke-opacity="1" stroke-linejoin="bevel" stroke-miterlimit="10" stroke-width="3">C</text><text fill="rgb(0,0,255)" stroke="none" font-family="geogebra-sans-serif, sans-serif" font-size="16px" font-style="normal" font-weight="normal" text-decoration="normal" x="220" y="181" text-anchor="start" dominant-baseline="alphabetic" fill-opacity="1">C</text><path fill="rgb(0,0,255)" stroke="none" paint-order="stroke fill markers" d=" M 100.02115261820961 121.44605676957413 C 100.02115261820961 122.55062626923572 99.12572211787119 123.44605676957413 98.02115261820961 123.44605676957413 C 96.91658311854802 123.44605676957413 96.02115261820961 122.55062626923572 96.02115261820961 121.44605676957413 C 96.02115261820961 120.34148726991253 96.91658311854802 119.44605676957413 98.02115261820961 119.44605676957413 C 99.12572211787119 119.44605676957413 100.02115261820961 120.34148726991253 100.02115261820961 121.44605676957413 Z" fill-opacity="1"/><path fill="none" stroke="rgb(0,0,0)" paint-order="fill stroke markers" d=" M 100.02115261820961 121.44605676957413 C 100.02115261820961 122.55062626923572 99.12572211787119 123.44605676957413 98.02115261820961 123.44605676957413 C 96.91658311854802 123.44605676957413 96.02115261820961 122.55062626923572 96.02115261820961 121.44605676957413 C 96.02115261820961 120.34148726991253 96.91658311854802 119.44605676957413 98.02115261820961 119.44605676957413 C 99.12572211787119 119.44605676957413 100.02115261820961 120.34148726991253 100.02115261820961 121.44605676957413 Z" stroke-opacity="1" stroke-linecap="round" stroke-linejoin="round" stroke-miterlimit="10"/><text fill="rgb(0,0,255)" stroke="none" font-family="geogebra-sans-serif, sans-serif" font-size="16px" font-style="normal" font-weight="normal" text-decoration="normal" x="84" y="130" text-anchor="start" dominant-baseline="alphabetic" fill-opacity="1">I</text><text fill="none" stroke="rgb(255,255,255)" font-family="geogebra-sans-serif, sans-serif" font-size="16px" font-style="normal" font-weight="normal" text-decoration="normal" x="84" y="130" text-anchor="start" dominant-baseline="alphabetic" stroke-opacity="1" stroke-linejoin="bevel" stroke-miterlimit="10" stroke-width="3">I</text><text fill="rgb(0,0,255)" stroke="none" font-family="geogebra-sans-serif, sans-serif" font-size="16px" font-style="normal" font-weight="normal" text-decoration="normal" x="84" y="130" text-anchor="start" dominant-baseline="alphabetic" fill-opacity="1">I</text><path fill="rgb(0,0,255)" stroke="none" paint-order="stroke fill markers" d=" M 99.22883859412462 165.94769445568187 C 99.22883859412462 167.05226395534345 98.3334080937862 167.94769445568187 97.22883859412462 167.94769445568187 C 96.12426909446303 167.94769445568187 95.22883859412462 167.05226395534345 95.22883859412462 165.94769445568187 C 95.22883859412462 164.8431249560203 96.12426909446303 163.94769445568187 97.22883859412462 163.94769445568187 C 98.3334080937862 163.94769445568187 99.22883859412462 164.8431249560203 99.22883859412462 165.94769445568187 Z" fill-opacity="1"/><path fill="none" stroke="rgb(0,0,0)" paint-order="fill stroke markers" d=" M 99.22883859412462 165.94769445568187 C 99.22883859412462 167.05226395534345 98.3334080937862 167.94769445568187 97.22883859412462 167.94769445568187 C 96.12426909446303 167.94769445568187 95.22883859412462 167.05226395534345 95.22883859412462 165.94769445568187 C 95.22883859412462 164.8431249560203 96.12426909446303 163.94769445568187 97.22883859412462 163.94769445568187 C 98.3334080937862 163.94769445568187 99.22883859412462 164.8431249560203 99.22883859412462 165.94769445568187 Z" stroke-opacity="1" stroke-linecap="round" stroke-linejoin="round" stroke-miterlimit="10"/><text fill="rgb(0,0,255)" stroke="none" font-family="geogebra-sans-serif, sans-serif" font-size="16px" font-style="normal" font-weight="normal" text-decoration="normal" x="92" y="189" text-anchor="start" dominant-baseline="alphabetic" fill-opacity="1">D</text><text fill="none" stroke="rgb(255,255,255)" font-family="geogebra-sans-serif, sans-serif" font-size="16px" font-style="normal" font-weight="normal" text-decoration="normal" x="92" y="189" text-anchor="start" dominant-baseline="alphabetic" stroke-opacity="1" stroke-linejoin="bevel" stroke-miterlimit="10" stroke-width="3">D</text><text fill="rgb(0,0,255)" stroke="none" font-family="geogebra-sans-serif, sans-serif" font-size="16px" font-style="normal" font-weight="normal" text-decoration="normal" x="92" y="189" text-anchor="start" dominant-baseline="alphabetic" fill-opacity="1">D</text><path fill="rgb(0,0,255)" stroke="none" paint-order="stroke fill markers" d=" M 100.8134666422946 76.94441908346636 C 100.8134666422946 78.04898858312794 99.91803614195618 78.94441908346636 98.8134666422946 78.94441908346636 C 97.708897142633 78.94441908346636 96.8134666422946 78.04898858312794 96.8134666422946 76.94441908346636 C 96.8134666422946 75.83984958380476 97.708897142633 74.94441908346636 98.8134666422946 74.94441908346636 C 99.91803614195618 74.94441908346636 100.8134666422946 75.83984958380476 100.8134666422946 76.94441908346636 Z" fill-opacity="1"/><path fill="none" stroke="rgb(0,0,0)" paint-order="fill stroke markers" d=" M 100.8134666422946 76.94441908346636 C 100.8134666422946 78.04898858312794 99.91803614195618 78.94441908346636 98.8134666422946 78.94441908346636 C 97.708897142633 78.94441908346636 96.8134666422946 78.04898858312794 96.8134666422946 76.94441908346636 C 96.8134666422946 75.83984958380476 97.708897142633 74.94441908346636 98.8134666422946 74.94441908346636 C 99.91803614195618 74.94441908346636 100.8134666422946 75.83984958380476 100.8134666422946 76.94441908346636 Z" stroke-opacity="1" stroke-linecap="round" stroke-linejoin="round" stroke-miterlimit="10"/><text fill="rgb(0,0,255)" stroke="none" font-family="geogebra-sans-serif, sans-serif" font-size="16px" font-style="normal" font-weight="normal" text-decoration="normal" x="81" y="99" text-anchor="start" dominant-baseline="alphabetic" fill-opacity="1">E</text><text fill="none" stroke="rgb(255,255,255)" font-family="geogebra-sans-serif, sans-serif" font-size="16px" font-style="normal" font-weight="normal" text-decoration="normal" x="81" y="99" text-anchor="start" dominant-baseline="alphabetic" stroke-opacity="1" stroke-linejoin="bevel" stroke-miterlimit="10" stroke-width="3">E</text><text fill="rgb(0,0,255)" stroke="none" font-family="geogebra-sans-serif, sans-serif" font-size="16px" font-style="normal" font-weight="normal" text-decoration="normal" x="81" y="99" text-anchor="start" dominant-baseline="alphabetic" fill-opacity="1">E</text><path fill="rgb(0,0,255)" stroke="none" paint-order="stroke fill markers" d=" M 161.27116140587492 167.05230554431836 C 161.27116140587492 168.15687504397994 160.3757309055365 169.05230554431836 159.27116140587492 169.05230554431836 C 158.16659190621334 169.05230554431836 157.27116140587492 168.15687504397994 157.27116140587492 167.05230554431836 C 157.27116140587492 165.94773604465678 158.16659190621334 165.05230554431836 159.27116140587492 165.05230554431836 C 160.3757309055365 165.05230554431836 161.27116140587492 165.94773604465678 161.27116140587492 167.05230554431836 Z" fill-opacity="1"/><path fill="none" stroke="rgb(0,0,0)" paint-order="fill stroke markers" d=" M 161.27116140587492 167.05230554431836 C 161.27116140587492 168.15687504397994 160.3757309055365 169.05230554431836 159.27116140587492 169.05230554431836 C 158.16659190621334 169.05230554431836 157.27116140587492 168.15687504397994 157.27116140587492 167.05230554431836 C 157.27116140587492 165.94773604465678 158.16659190621334 165.05230554431836 159.27116140587492 165.05230554431836 C 160.3757309055365 165.05230554431836 161.27116140587492 165.94773604465678 161.27116140587492 167.05230554431836 Z" stroke-opacity="1" stroke-linecap="round" stroke-linejoin="round" stroke-miterlimit="10"/><text fill="rgb(0,0,255)" stroke="none" font-family="geogebra-sans-serif, sans-serif" font-size="16px" font-style="normal" font-weight="normal" text-decoration="normal" x="159" y="155" text-anchor="start" dominant-baseline="alphabetic" fill-opacity="1">F</text><text fill="none" stroke="rgb(255,255,255)" font-family="geogebra-sans-serif, sans-serif" font-size="16px" font-style="normal" font-weight="normal" text-decoration="normal" x="159" y="155" text-anchor="start" dominant-baseline="alphabetic" stroke-opacity="1" stroke-linejoin="bevel" stroke-miterlimit="10" stroke-width="3">F</text><text fill="rgb(0,0,255)" stroke="none" font-family="geogebra-sans-serif, sans-serif" font-size="16px" font-style="normal" font-weight="normal" text-decoration="normal" x="159" y="155" text-anchor="start" dominant-baseline="alphabetic" fill-opacity="1">F</text></g></g></svg>