<svg version="1.1" xmlns="http://www.w3.org/2000/svg" xmlns:xlink="http://www.w3.org/1999/xlink" width="277" height="321"><defs><clipPath id="LdKsqNokAfvW"><path fill="none" stroke="none" d=" M 0 0 L 277 0 L 277 321 L 0 321 L 0 0 Z"/></clipPath></defs><g transform="scale(1,1)" clip-path="url(#LdKsqNokAfvW)"><g><rect fill="rgb(255,255,255)" stroke="none" x="0" y="0" width="277" height="321" fill-opacity="1"/><path fill="none" stroke="rgb(0,153,255)" paint-order="fill stroke markers" d=" M 142.52984298602865 121.44605676957414 C 142.52984298602865 146.02752769466122 122.60262354329682 165.95474713739299 98.02115261820967 165.95474713739299 C 73.43968169312251 165.95474713739299 53.51246225039067 146.02752769466122 53.51246225039067 121.44605676957414 C 53.51246225039067 96.8645858444871 73.43968169312251 76.93736640175533 98.02115261820967 76.93736640175533 C 122.60262354329682 76.93736640175533 142.52984298602865 96.8645858444871 142.52984298602865 121.44605676957414 Z" stroke-opacity="0.6980392156862745" stroke-linejoin="round" stroke-miterlimit="10" stroke-dasharray="5,4"/><path fill="none" stroke="rgb(244,0,153)" paint-order="fill stroke markers" d=" M 251.28335935973763 204.46996599442005 C 214.7613567204897 170.12646877575892 162.47777248271234 158.3094737590747 114.73584401931166 173.60786402030672 C 66.99391555591097 188.9062542815388 31.315633487694626 228.90968839204834 21.555913089677205 278.08366866354896" stroke-opacity="0.6980392156862745" stroke-linejoin="round" stroke-miterlimit="10" stroke-width="1.5" stroke-dasharray="5.5,4"/><path fill="none" stroke="rgb(0,100,0)" paint-order="fill stroke markers" d=" M 69.99999999999994 34.00000000000074 L 43.999999999999964 165.00000000000017" stroke-opacity="0.6980392156862745" stroke-linecap="round" stroke-linejoin="round" stroke-miterlimit="10"/><path fill="none" stroke="rgb(0,100,0)" paint-order="fill stroke markers" d=" M 43.999999999999964 165.00000000000017 L 212.4999999999999 168.00000000000017" stroke-opacity="0.6980392156862745" stroke-linecap="round" stroke-linejoin="round" stroke-miterlimit="10"/><path fill="none" stroke="rgb(0,100,0)" paint-order="fill stroke markers" d=" M 212.4999999999999 168.00000000000017 L 69.99999999999994 34.00000000000074" stroke-opacity="0.6980392156862745" stroke-linecap="round" stroke-linejoin="round" stroke-miterlimit="10"/><path fill="none" stroke="rgb(0,100,0)" paint-order="fill stroke markers" d=" M 43.999999999999964 165.00000000000017 L 97.22883859412468 165.94769445568193" stroke-opacity="0.6980392156862745" stroke-linecap="round" stroke-linejoin="round" stroke-miterlimit="10"/><path fill="none" stroke="rgb(0,100,0)" paint-order="fill stroke markers" d=" M 159.27116140587503 167.05230554431841 L 212.4999999999999 168.00000000000017" stroke-opacity="0.6980392156862745" stroke-linecap="round" stroke-linejoin="round" stroke-miterlimit="10"/><path fill="none" stroke="rgb(0,100,0)" paint-order="fill stroke markers" d=" M 97.22883859412468 165.94769445568193 L 159.27116140587503 167.05230554431841" stroke-opacity="0.6980392156862745" stroke-linecap="round" stroke-linejoin="round" stroke-miterlimit="10"/><path fill="none" stroke="rgb(0,100,0)" paint-order="fill stroke markers" d=" M 98.81346664229469 76.94441908346639 L 97.22883859412468 165.94769445568193" stroke-opacity="0.6980392156862745" stroke-linecap="round" stroke-linejoin="round" stroke-miterlimit="10"/><path fill="none" stroke="rgb(0,100,0)" paint-order="fill stroke markers" d=" M 69.99999999999994 34.00000000000074 L 159.27116140587503 167.05230554431841" stroke-opacity="0.6980392156862745" stroke-linecap="round" stroke-linejoin="round" stroke-miterlimit="10"/><path fill="none" stroke="rgb(244,0,153)" paint-order="fill stroke markers" d=" M 69.99999999999994 34.00000000000074 L 156.81637892494982 304.9292548896231" stroke-opacity="0.6980392156862745" stroke-linejoin="round" stroke-miterlimit="10" stroke-dasharray="9,8"/><path fill="none" stroke="rgb(102,102,102)" paint-order="fill stroke markers" d=" M 156.81637892494982 304.9292548896231 L 159.27116140587503 167.05230554431841" stroke-opacity="0.6980392156862745" stroke-linejoin="round" stroke-miterlimit="10" stroke-width="1.5" stroke-dasharray="9.5,8"/><path fill="none" stroke="rgb(102,102,102)" paint-order="fill stroke markers" d=" M 212.4999999999999 168.00000000000017 L 251.2833593597377 204.46996599442005" stroke-opacity="0.6980392156862745" stroke-linejoin="round" stroke-miterlimit="10" stroke-width="1.5" stroke-dasharray="9.5,8"/><path fill="none" stroke="rgb(102,102,102)" paint-order="fill stroke markers" d=" M 43.999999999999964 165.00000000000017 L 21.55591308967722 278.083668663549" stroke-opacity="0.6980392156862745" stroke-linejoin="round" stroke-miterlimit="10" stroke-width="1.5" stroke-dasharray="9.5,8"/><path fill="rgb(0,0,255)" stroke="none" paint-order="stroke fill markers" d=" M 71.99999999999994 34.00000000000074 C 71.99999999999994 35.104569499662325 71.10456949966152 36.00000000000074 69.99999999999994 36.00000000000074 C 68.89543050033835 36.00000000000074 67.99999999999994 35.104569499662325 67.99999999999994 34.00000000000074 C 67.99999999999994 32.89543050033915 68.89543050033835 32.00000000000074 69.99999999999994 32.00000000000074 C 71.10456949966152 32.00000000000074 71.99999999999994 32.89543050033915 71.99999999999994 34.00000000000074 Z" fill-opacity="1"/><path fill="none" stroke="rgb(0,0,0)" paint-order="fill stroke markers" d=" M 71.99999999999994 34.00000000000074 C 71.99999999999994 35.104569499662325 71.10456949966152 36.00000000000074 69.99999999999994 36.00000000000074 C 68.89543050033835 36.00000000000074 67.99999999999994 35.104569499662325 67.99999999999994 34.00000000000074 C 67.99999999999994 32.89543050033915 68.89543050033835 32.00000000000074 69.99999999999994 32.00000000000074 C 71.10456949966152 32.00000000000074 71.99999999999994 32.89543050033915 71.99999999999994 34.00000000000074 Z" stroke-opacity="1" stroke-linecap="round" stroke-linejoin="round" stroke-miterlimit="10"/><text fill="rgb(0,0,255)" stroke="none" font-family="geogebra-sans-serif, sans-serif" font-size="16px" font-style="normal" font-weight="normal" text-decoration="normal" x="58" y="24" text-anchor="start" dominant-baseline="alphabetic" fill-opacity="1">A</text><text fill="none" stroke="rgb(255,255,255)" font-family="geogebra-sans-serif, sans-serif" font-size="16px" font-style="normal" font-weight="normal" text-decoration="normal" x="58" y="24" text-anchor="start" dominant-baseline="alphabetic" stroke-opacity="1" stroke-linejoin="bevel" stroke-miterlimit="10" stroke-width="3">A</text><text fill="rgb(0,0,255)" stroke="none" font-family="geogebra-sans-serif, sans-serif" font-size="16px" font-style="normal" font-weight="normal" text-decoration="normal" x="58" y="24" text-anchor="start" dominant-baseline="alphabetic" fill-opacity="1">A</text><path fill="rgb(0,0,255)" stroke="none" paint-order="stroke fill markers" d=" M 45.999999999999964 165.00000000000017 C 45.999999999999964 166.10456949966175 45.10456949966155 167.00000000000017 43.999999999999964 167.00000000000017 C 42.89543050033838 167.00000000000017 41.999999999999964 166.10456949966175 41.999999999999964 165.00000000000017 C 41.999999999999964 163.8954305003386 42.89543050033838 163.00000000000017 43.999999999999964 163.00000000000017 C 45.10456949966155 163.00000000000017 45.999999999999964 163.8954305003386 45.999999999999964 165.00000000000017 Z" fill-opacity="1"/><path fill="none" stroke="rgb(0,0,0)" paint-order="fill stroke markers" d=" M 45.999999999999964 165.00000000000017 C 45.999999999999964 166.10456949966175 45.10456949966155 167.00000000000017 43.999999999999964 167.00000000000017 C 42.89543050033838 167.00000000000017 41.999999999999964 166.10456949966175 41.999999999999964 165.00000000000017 C 41.999999999999964 163.8954305003386 42.89543050033838 163.00000000000017 43.999999999999964 163.00000000000017 C 45.10456949966155 163.00000000000017 45.999999999999964 163.8954305003386 45.999999999999964 165.00000000000017 Z" stroke-opacity="1" stroke-linecap="round" stroke-linejoin="round" stroke-miterlimit="10"/><text fill="rgb(0,0,255)" stroke="none" font-family="geogebra-sans-serif, sans-serif" font-size="16px" font-style="normal" font-weight="normal" text-decoration="normal" x="10" y="175" text-anchor="start" dominant-baseline="alphabetic" fill-opacity="1">B</text><text fill="none" stroke="rgb(255,255,255)" font-family="geogebra-sans-serif, sans-serif" font-size="16px" font-style="normal" font-weight="normal" text-decoration="normal" x="10" y="175" text-anchor="start" dominant-baseline="alphabetic" stroke-opacity="1" stroke-linejoin="bevel" stroke-miterlimit="10" stroke-width="3">B</text><text fill="rgb(0,0,255)" stroke="none" font-family="geogebra-sans-serif, sans-serif" font-size="16px" font-style="normal" font-weight="normal" text-decoration="normal" x="10" y="175" text-anchor="start" dominant-baseline="alphabetic" fill-opacity="1">B</text><path fill="rgb(0,0,255)" stroke="none" paint-order="stroke fill markers" d=" M 214.4999999999999 168.00000000000017 C 214.4999999999999 169.10456949966175 213.60456949966147 170.00000000000017 212.4999999999999 170.00000000000017 C 211.3954305003383 170.00000000000017 210.4999999999999 169.10456949966175 210.4999999999999 168.00000000000017 C 210.4999999999999 166.8954305003386 211.3954305003383 166.00000000000017 212.4999999999999 166.00000000000017 C 213.60456949966147 166.00000000000017 214.4999999999999 166.8954305003386 214.4999999999999 168.00000000000017 Z" fill-opacity="1"/><path fill="none" stroke="rgb(0,0,0)" paint-order="fill stroke markers" d=" M 214.4999999999999 168.00000000000017 C 214.4999999999999 169.10456949966175 213.60456949966147 170.00000000000017 212.4999999999999 170.00000000000017 C 211.3954305003383 170.00000000000017 210.4999999999999 169.10456949966175 210.4999999999999 168.00000000000017 C 210.4999999999999 166.8954305003386 211.3954305003383 166.00000000000017 212.4999999999999 166.00000000000017 C 213.60456949966147 166.00000000000017 214.4999999999999 166.8954305003386 214.4999999999999 168.00000000000017 Z" stroke-opacity="1" stroke-linecap="round" stroke-linejoin="round" stroke-miterlimit="10"/><text fill="rgb(0,0,255)" stroke="none" font-family="geogebra-sans-serif, sans-serif" font-size="16px" font-style="normal" font-weight="normal" text-decoration="normal" x="229" y="151" text-anchor="start" dominant-baseline="alphabetic" fill-opacity="1">C</text><text fill="none" stroke="rgb(255,255,255)" font-family="geogebra-sans-serif, sans-serif" font-size="16px" font-style="normal" font-weight="normal" text-decoration="normal" x="229" y="151" text-anchor="start" dominant-baseline="alphabetic" stroke-opacity="1" stroke-linejoin="bevel" stroke-miterlimit="10" stroke-width="3">C</text><text fill="rgb(0,0,255)" stroke="none" font-family="geogebra-sans-serif, sans-serif" font-size="16px" font-style="normal" font-weight="normal" text-decoration="normal" x="229" y="151" text-anchor="start" dominant-baseline="alphabetic" fill-opacity="1">C</text><path fill="rgb(0,0,255)" stroke="none" paint-order="stroke fill markers" d=" M 100.02115261820967 121.44605676957416 C 100.02115261820967 122.55062626923575 99.12572211787125 123.44605676957416 98.02115261820967 123.44605676957416 C 96.91658311854808 123.44605676957416 96.02115261820967 122.55062626923575 96.02115261820967 121.44605676957416 C 96.02115261820967 120.34148726991256 96.91658311854808 119.44605676957416 98.02115261820967 119.44605676957416 C 99.12572211787125 119.44605676957416 100.02115261820967 120.34148726991256 100.02115261820967 121.44605676957416 Z" fill-opacity="1"/><path fill="none" stroke="rgb(0,0,0)" paint-order="fill stroke markers" d=" M 100.02115261820967 121.44605676957416 C 100.02115261820967 122.55062626923575 99.12572211787125 123.44605676957416 98.02115261820967 123.44605676957416 C 96.91658311854808 123.44605676957416 96.02115261820967 122.55062626923575 96.02115261820967 121.44605676957416 C 96.02115261820967 120.34148726991256 96.91658311854808 119.44605676957416 98.02115261820967 119.44605676957416 C 99.12572211787125 119.44605676957416 100.02115261820967 120.34148726991256 100.02115261820967 121.44605676957416 Z" stroke-opacity="1" stroke-linecap="round" stroke-linejoin="round" stroke-miterlimit="10"/><text fill="rgb(0,0,255)" stroke="none" font-family="geogebra-sans-serif, sans-serif" font-size="16px" font-style="normal" font-weight="normal" text-decoration="normal" x="84" y="130" text-anchor="start" dominant-baseline="alphabetic" fill-opacity="1">I</text><text fill="none" stroke="rgb(255,255,255)" font-family="geogebra-sans-serif, sans-serif" font-size="16px" font-style="normal" font-weight="normal" text-decoration="normal" x="84" y="130" text-anchor="start" dominant-baseline="alphabetic" stroke-opacity="1" stroke-linejoin="bevel" stroke-miterlimit="10" stroke-width="3">I</text><text fill="rgb(0,0,255)" stroke="none" font-family="geogebra-sans-serif, sans-serif" font-size="16px" font-style="normal" font-weight="normal" text-decoration="normal" x="84" y="130" text-anchor="start" dominant-baseline="alphabetic" fill-opacity="1">I</text><path fill="rgb(0,0,255)" stroke="none" paint-order="stroke fill markers" d=" M 99.22883859412468 165.94769445568193 C 99.22883859412468 167.0522639553435 98.33340809378626 167.94769445568193 97.22883859412468 167.94769445568193 C 96.12426909446309 167.94769445568193 95.22883859412468 167.0522639553435 95.22883859412468 165.94769445568193 C 95.22883859412468 164.84312495602035 96.12426909446309 163.94769445568193 97.22883859412468 163.94769445568193 C 98.33340809378626 163.94769445568193 99.22883859412468 164.84312495602035 99.22883859412468 165.94769445568193 Z" fill-opacity="1"/><path fill="none" stroke="rgb(0,0,0)" paint-order="fill stroke markers" d=" M 99.22883859412468 165.94769445568193 C 99.22883859412468 167.0522639553435 98.33340809378626 167.94769445568193 97.22883859412468 167.94769445568193 C 96.12426909446309 167.94769445568193 95.22883859412468 167.0522639553435 95.22883859412468 165.94769445568193 C 95.22883859412468 164.84312495602035 96.12426909446309 163.94769445568193 97.22883859412468 163.94769445568193 C 98.33340809378626 163.94769445568193 99.22883859412468 164.84312495602035 99.22883859412468 165.94769445568193 Z" stroke-opacity="1" stroke-linecap="round" stroke-linejoin="round" stroke-miterlimit="10"/><text fill="rgb(0,0,255)" stroke="none" font-family="geogebra-sans-serif, sans-serif" font-size="16px" font-style="normal" font-weight="normal" text-decoration="normal" x="75" y="182" text-anchor="start" dominant-baseline="alphabetic" fill-opacity="1">D</text><text fill="none" stroke="rgb(255,255,255)" font-family="geogebra-sans-serif, sans-serif" font-size="16px" font-style="normal" font-weight="normal" text-decoration="normal" x="75" y="182" text-anchor="start" dominant-baseline="alphabetic" stroke-opacity="1" stroke-linejoin="bevel" stroke-miterlimit="10" stroke-width="3">D</text><text fill="rgb(0,0,255)" stroke="none" font-family="geogebra-sans-serif, sans-serif" font-size="16px" font-style="normal" font-weight="normal" text-decoration="normal" x="75" y="182" text-anchor="start" dominant-baseline="alphabetic" fill-opacity="1">D</text><path fill="rgb(0,0,255)" stroke="none" paint-order="stroke fill markers" d=" M 100.81346664229469 76.94441908346639 C 100.81346664229469 78.04898858312797 99.91803614195626 78.94441908346639 98.81346664229469 78.94441908346639 C 97.70889714263309 78.94441908346639 96.81346664229469 78.04898858312797 96.81346664229469 76.94441908346639 C 96.81346664229469 75.83984958380479 97.70889714263309 74.94441908346639 98.81346664229469 74.94441908346639 C 99.91803614195626 74.94441908346639 100.81346664229469 75.83984958380479 100.81346664229469 76.94441908346639 Z" fill-opacity="1"/><path fill="none" stroke="rgb(0,0,0)" paint-order="fill stroke markers" d=" M 100.81346664229469 76.94441908346639 C 100.81346664229469 78.04898858312797 99.91803614195626 78.94441908346639 98.81346664229469 78.94441908346639 C 97.70889714263309 78.94441908346639 96.81346664229469 78.04898858312797 96.81346664229469 76.94441908346639 C 96.81346664229469 75.83984958380479 97.70889714263309 74.94441908346639 98.81346664229469 74.94441908346639 C 99.91803614195626 74.94441908346639 100.81346664229469 75.83984958380479 100.81346664229469 76.94441908346639 Z" stroke-opacity="1" stroke-linecap="round" stroke-linejoin="round" stroke-miterlimit="10"/><text fill="rgb(0,0,255)" stroke="none" font-family="geogebra-sans-serif, sans-serif" font-size="16px" font-style="normal" font-weight="normal" text-decoration="normal" x="108" y="60" text-anchor="start" dominant-baseline="alphabetic" fill-opacity="1">E</text><text fill="none" stroke="rgb(255,255,255)" font-family="geogebra-sans-serif, sans-serif" font-size="16px" font-style="normal" font-weight="normal" text-decoration="normal" x="108" y="60" text-anchor="start" dominant-baseline="alphabetic" stroke-opacity="1" stroke-linejoin="bevel" stroke-miterlimit="10" stroke-width="3">E</text><text fill="rgb(0,0,255)" stroke="none" font-family="geogebra-sans-serif, sans-serif" font-size="16px" font-style="normal" font-weight="normal" text-decoration="normal" x="108" y="60" text-anchor="start" dominant-baseline="alphabetic" fill-opacity="1">E</text><path fill="rgb(0,0,255)" stroke="none" paint-order="stroke fill markers" d=" M 161.27116140587503 167.05230554431841 C 161.27116140587503 168.15687504398 160.3757309055366 169.05230554431841 159.27116140587503 169.05230554431841 C 158.16659190621345 169.05230554431841 157.27116140587503 168.15687504398 157.27116140587503 167.05230554431841 C 157.27116140587503 165.94773604465684 158.16659190621345 165.05230554431841 159.27116140587503 165.05230554431841 C 160.3757309055366 165.05230554431841 161.27116140587503 165.94773604465684 161.27116140587503 167.05230554431841 Z" fill-opacity="1"/><path fill="none" stroke="rgb(0,0,0)" paint-order="fill stroke markers" d=" M 161.27116140587503 167.05230554431841 C 161.27116140587503 168.15687504398 160.3757309055366 169.05230554431841 159.27116140587503 169.05230554431841 C 158.16659190621345 169.05230554431841 157.27116140587503 168.15687504398 157.27116140587503 167.05230554431841 C 157.27116140587503 165.94773604465684 158.16659190621345 165.05230554431841 159.27116140587503 165.05230554431841 C 160.3757309055366 165.05230554431841 161.27116140587503 165.94773604465684 161.27116140587503 167.05230554431841 Z" stroke-opacity="1" stroke-linecap="round" stroke-linejoin="round" stroke-miterlimit="10"/><text fill="rgb(0,0,255)" stroke="none" font-family="geogebra-sans-serif, sans-serif" font-size="16px" font-style="normal" font-weight="normal" text-decoration="normal" x="159" y="155" text-anchor="start" dominant-baseline="alphabetic" fill-opacity="1">F</text><text fill="none" stroke="rgb(255,255,255)" font-family="geogebra-sans-serif, sans-serif" font-size="16px" font-style="normal" font-weight="normal" text-decoration="normal" x="159" y="155" text-anchor="start" dominant-baseline="alphabetic" stroke-opacity="1" stroke-linejoin="bevel" stroke-miterlimit="10" stroke-width="3">F</text><text fill="rgb(0,0,255)" stroke="none" font-family="geogebra-sans-serif, sans-serif" font-size="16px" font-style="normal" font-weight="normal" text-decoration="normal" x="159" y="155" text-anchor="start" dominant-baseline="alphabetic" fill-opacity="1">F</text><path fill="rgb(0,0,255)" stroke="none" paint-order="stroke fill markers" d=" M 158.81637892494982 304.9292548896231 C 158.81637892494982 306.0338243892847 157.9209484246114 306.9292548896231 156.81637892494982 306.9292548896231 C 155.71180942528824 306.9292548896231 154.81637892494982 306.0338243892847 154.81637892494982 304.9292548896231 C 154.81637892494982 303.82468538996153 155.71180942528824 302.9292548896231 156.81637892494982 302.9292548896231 C 157.9209484246114 302.9292548896231 158.81637892494982 303.82468538996153 158.81637892494982 304.9292548896231 Z" fill-opacity="1"/><path fill="none" stroke="rgb(0,0,0)" paint-order="fill stroke markers" d=" M 158.81637892494982 304.9292548896231 C 158.81637892494982 306.0338243892847 157.9209484246114 306.9292548896231 156.81637892494982 306.9292548896231 C 155.71180942528824 306.9292548896231 154.81637892494982 306.0338243892847 154.81637892494982 304.9292548896231 C 154.81637892494982 303.82468538996153 155.71180942528824 302.9292548896231 156.81637892494982 302.9292548896231 C 157.9209484246114 302.9292548896231 158.81637892494982 303.82468538996153 158.81637892494982 304.9292548896231 Z" stroke-opacity="1" stroke-linecap="round" stroke-linejoin="round" stroke-miterlimit="10"/><text fill="rgb(0,0,255)" stroke="none" font-family="geogebra-sans-serif, sans-serif" font-size="16px" font-style="normal" font-weight="normal" text-decoration="normal" x="189" y="295" text-anchor="start" dominant-baseline="alphabetic" fill-opacity="1">I</text><text fill="none" stroke="rgb(255,255,255)" font-family="geogebra-sans-serif, sans-serif" font-size="16px" font-style="normal" font-weight="normal" text-decoration="normal" x="189" y="295" text-anchor="start" dominant-baseline="alphabetic" stroke-opacity="1" stroke-linejoin="bevel" stroke-miterlimit="10" stroke-width="3">I</text><text fill="rgb(0,0,255)" stroke="none" font-family="geogebra-sans-serif, sans-serif" font-size="16px" font-style="normal" font-weight="normal" text-decoration="normal" x="189" y="295" text-anchor="start" dominant-baseline="alphabetic" fill-opacity="1">I</text><text fill="rgb(0,0,255)" stroke="none" font-family="geogebra-sans-serif, sans-serif" font-size="14px" font-style="normal" font-weight="normal" text-decoration="normal" x="193" y="302" text-anchor="start" dominant-baseline="alphabetic" fill-opacity="1">a</text><text fill="none" stroke="rgb(255,255,255)" font-family="geogebra-sans-serif, sans-serif" font-size="14px" font-style="normal" font-weight="normal" text-decoration="normal" x="193" y="302" text-anchor="start" dominant-baseline="alphabetic" stroke-opacity="1" stroke-linejoin="bevel" stroke-miterlimit="10" stroke-width="3">a</text><text fill="rgb(0,0,255)" stroke="none" font-family="geogebra-sans-serif, sans-serif" font-size="14px" font-style="normal" font-weight="normal" text-decoration="normal" x="193" y="302" text-anchor="start" dominant-baseline="alphabetic" fill-opacity="1">a</text></g></g></svg>