<svg version="1.1" xmlns="http://www.w3.org/2000/svg" xmlns:xlink="http://www.w3.org/1999/xlink" width="367" height="267"><defs><clipPath id="GeoxFQWJQlmv"><path fill="none" stroke="none" d=" M 0 0 L 367 0 L 367 267 L 0 267 L 0 0 Z"/></clipPath></defs><g transform="scale(1,1)" clip-path="url(#GeoxFQWJQlmv)"><g><rect fill="rgb(255,255,255)" stroke="none" x="0" y="0" width="367" height="267" fill-opacity="1"/><path fill="rgb(0,153,204)" stroke="none" paint-order="stroke fill markers" d=" M 143.50000000000017 222.49999999999977 C 143.50000000000017 216.16462238701834 141.494351359863 209.9918705859102 137.7705098312486 204.8664424312256 L 113.50000000000017 222.49999999999977 Z" fill-opacity="0.09803921568627451"/><path fill="none" stroke="rgb(0,153,204)" paint-order="fill stroke markers" d=" M 143.50000000000017 222.49999999999977 C 143.50000000000017 216.16462238701834 141.494351359863 209.9918705859102 137.7705098312486 204.8664424312256 L 113.50000000000017 222.49999999999977 Z" stroke-opacity="0.6980392156862745" stroke-linecap="round" stroke-linejoin="round" stroke-miterlimit="10" stroke-width="0.5"/><path fill="none" stroke="rgb(0,153,204)" paint-order="fill stroke markers" d=" M 139.89389114075536 215.72320057475747 L 145.22109852696283 214.35540619535078" stroke-opacity="0.6980392156862745" stroke-linecap="round" stroke-linejoin="round" stroke-miterlimit="10" stroke-width="0.5"/><path fill="none" stroke="rgb(0,153,204)" paint-order="fill stroke markers" d=" M 138.83640924045503 212.4686059393423 L 143.9501799128404 210.44392089957657" stroke-opacity="0.6980392156862745" stroke-linecap="round" stroke-linejoin="round" stroke-miterlimit="10" stroke-width="0.5"/><path fill="rgb(0,153,204)" stroke="none" paint-order="stroke fill markers" d=" M 137.7705098312486 204.8664424312256 C 134.04666830263417 199.74101427654102 128.795811993265 195.92604385933902 122.77050983124857 193.96830451114516 L 113.50000000000017 222.49999999999977 Z" fill-opacity="0.09803921568627451"/><path fill="none" stroke="rgb(0,153,204)" paint-order="fill stroke markers" d=" M 137.7705098312486 204.8664424312256 C 134.04666830263417 199.74101427654102 128.795811993265 195.92604385933902 122.77050983124857 193.96830451114516 L 113.50000000000017 222.49999999999977 Z" stroke-opacity="0.6980392156862745" stroke-linecap="round" stroke-linejoin="round" stroke-miterlimit="10" stroke-width="0.5"/><path fill="none" stroke="rgb(0,153,204)" paint-order="fill stroke markers" d=" M 130.86980372065196 201.5035141343595 L 134.37563566426977 197.26569129909268" stroke-opacity="0.6980392156862745" stroke-linecap="round" stroke-linejoin="round" stroke-miterlimit="10" stroke-width="0.5"/><path fill="none" stroke="rgb(0,153,204)" paint-order="fill stroke markers" d=" M 128.10128016317782 199.49206403006986 L 131.0483275355623 194.84826043980877" stroke-opacity="0.6980392156862745" stroke-linecap="round" stroke-linejoin="round" stroke-miterlimit="10" stroke-width="0.5"/><path fill="rgb(0,153,204)" stroke="none" paint-order="stroke fill markers" d=" M 122.77050983124857 193.96830451114516 C 116.74520766923214 192.0105651629513 110.25479233076817 192.0105651629513 104.22949016875174 193.96830451114516 L 113.50000000000017 222.49999999999977 Z" fill-opacity="0.09803921568627451"/><path fill="none" stroke="rgb(0,153,204)" paint-order="fill stroke markers" d=" M 122.77050983124857 193.96830451114516 C 116.74520766923214 192.0105651629513 110.25479233076817 192.0105651629513 104.22949016875174 193.96830451114516 L 113.50000000000017 222.49999999999977 Z" stroke-opacity="0.6980392156862745" stroke-linecap="round" stroke-linejoin="round" stroke-miterlimit="10" stroke-width="0.5"/><path fill="none" stroke="rgb(0,153,204)" paint-order="fill stroke markers" d=" M 115.21104165717396 195.30377165032937 L 115.55638951458519 189.81462464397387" stroke-opacity="0.6980392156862745" stroke-linecap="round" stroke-linejoin="round" stroke-miterlimit="10" stroke-width="0.5"/><path fill="none" stroke="rgb(0,153,204)" paint-order="fill stroke markers" d=" M 111.78895834282638 195.30377165032937 L 111.44361048541515 189.81462464397387" stroke-opacity="0.6980392156862745" stroke-linecap="round" stroke-linejoin="round" stroke-miterlimit="10" stroke-width="0.5"/><path fill="rgb(255,0,0)" stroke="none" paint-order="stroke fill markers" fill-rule="evenodd" d=" M 163.5000000000001 68.61582314123713 L 150.05002976072188 64.24566289674921 L 145.67986951623277 77.69563313602806 L 159.1298397555122 82.06579338051537 L 163.5000000000001 68.61582314123713" fill-opacity="0.09803921568627451"/><path fill="none" stroke="rgb(255,0,0)" paint-order="fill stroke markers" d=" M 163.5000000000001 68.61582314123713 L 150.05002976072188 64.24566289674921 L 145.67986951623277 77.69563313602806 L 159.1298397555122 82.06579338051537 L 163.5000000000001 68.61582314123713" stroke-opacity="0.6980392156862745" stroke-linecap="round" stroke-linejoin="round" stroke-miterlimit="10" stroke-width="0.5"/><path fill="rgb(255,0,0)" stroke="none" paint-order="stroke fill markers" fill-rule="evenodd" d=" M 244.40169943749487 127.39434837048445 L 232.96047138114196 135.70688712603297 L 241.27301013669026 147.14811518238722 L 252.71423819304337 138.83557642683738 L 244.40169943749487 127.39434837048445" fill-opacity="0.09803921568627451"/><path fill="none" stroke="rgb(255,0,0)" paint-order="fill stroke markers" d=" M 244.40169943749487 127.39434837048445 L 232.96047138114196 135.70688712603297 L 241.27301013669026 147.14811518238722 L 252.71423819304337 138.83557642683738 L 244.40169943749487 127.39434837048445" stroke-opacity="0.6980392156862745" stroke-linecap="round" stroke-linejoin="round" stroke-miterlimit="10" stroke-width="0.5"/><path fill="none" stroke="rgb(0,100,0)" paint-order="fill stroke markers" d=" M 213.50000000000014 218.49999999999977 L 213.50000000000014 226.49999999999977" stroke-opacity="0.6980392156862745" stroke-linecap="round" stroke-linejoin="round" stroke-miterlimit="10" stroke-width="0.5"/><g transform="scale(19,19)"><g transform="translate(10.894736842105264,12.749263157894736)"><path fill="rgb(0,100,0)" stroke="none" paint-order="stroke fill markers" d=" M 0.294 -0.64 L 0.294 -0.079 Q 0.294 -0.049 0.306 -0.041 Q 0.323 -0.031 0.387 -0.031 L 0.419 -0.031 L 0.419 0 Q 0.384 -0.003 0.257 -0.003 Q 0.13 -0.003 0.095 0 L 0.095 -0.031 L 0.127 -0.031 Q 0.20400000000000001 -0.031 0.215 -0.049 L 0.216 -0.05 Q 0.22 -0.058 0.22 -0.079 L 0.22 -0.597 Q 0.168 -0.5710000000000001 0.089 -0.5710000000000001 L 0.089 -0.602 Q 0.209 -0.602 0.271 -0.666 Q 0.29 -0.666 0.293 -0.659 L 0.293 -0.659 L 0.293 -0.658 Q 0.294 -0.655 0.294 -0.64 Z"/></g><g transform="translate(11.394736842105264,12.749263157894736)"><path fill="rgb(0,100,0)" stroke="none" paint-order="stroke fill markers" d=" M 0.449 -0.17400000000000002 L 0.449 -0.17400000000000002 L 0.421 0 L 0.05 0 Q 0.05 -0.025 0.056 -0.032 L 0.061 -0.037 L 0.253 -0.251 Q 0.358 -0.369 0.358 -0.47200000000000003 Q 0.358 -0.561 0.304 -0.607 L 0.303 -0.608 L 0.302 -0.608 Q 0.27 -0.635 0.224 -0.635 Q 0.152 -0.635 0.109 -0.5730000000000001 Q 0.097 -0.555 0.089 -0.533 Q 0.092 -0.534 0.10200000000000001 -0.534 Q 0.14200000000000002 -0.534 0.153 -0.498 L 0.153 -0.497 Q 0.155 -0.49 0.155 -0.482 Q 0.155 -0.442 0.117 -0.431 Q 0.109 -0.429 0.10300000000000001 -0.429 Q 0.066 -0.429 0.054 -0.46 Q 0.05 -0.47100000000000003 0.05 -0.485 Q 0.05 -0.562 0.109 -0.617 Q 0.162 -0.666 0.23700000000000002 -0.666 Q 0.34700000000000003 -0.666 0.40800000000000003 -0.592 Q 0.443 -0.549 0.448 -0.49 Q 0.449 -0.481 0.449 -0.47200000000000003 Q 0.449 -0.399 0.394 -0.333 Q 0.365 -0.299 0.304 -0.243 L 0.243 -0.189 L 0.233 -0.18 L 0.127 -0.077 L 0.307 -0.077 Q 0.395 -0.077 0.402 -0.085 Q 0.41200000000000003 -0.099 0.424 -0.17400000000000002 L 0.449 -0.17400000000000002 Z"/></g></g><path fill="none" stroke="rgb(0,100,0)" paint-order="fill stroke markers" d=" M 113.50000000000017 222.49999999999977 L 313.5000000000001 222.49999999999977" stroke-opacity="0.6980392156862745" stroke-linecap="round" stroke-linejoin="round" stroke-miterlimit="10" stroke-width="0.5"/><path fill="none" stroke="rgb(0,100,0)" paint-order="fill stroke markers" d=" M 78.79407449732481 128.63041634798424 L 86.40252662768604 126.15828039298465" stroke-opacity="0.6980392156862745" stroke-linecap="round" stroke-linejoin="round" stroke-miterlimit="10" stroke-width="0.5"/><g transform="scale(19,19)"><g transform="translate(3,7.854526315789474)"><path fill="rgb(0,100,0)" stroke="none" paint-order="stroke fill markers" d=" M 0.294 -0.64 L 0.294 -0.079 Q 0.294 -0.049 0.306 -0.041 Q 0.323 -0.031 0.387 -0.031 L 0.419 -0.031 L 0.419 0 Q 0.384 -0.003 0.257 -0.003 Q 0.13 -0.003 0.095 0 L 0.095 -0.031 L 0.127 -0.031 Q 0.20400000000000001 -0.031 0.215 -0.049 L 0.216 -0.05 Q 0.22 -0.058 0.22 -0.079 L 0.22 -0.597 Q 0.168 -0.5710000000000001 0.089 -0.5710000000000001 L 0.089 -0.602 Q 0.209 -0.602 0.271 -0.666 Q 0.29 -0.666 0.293 -0.659 L 0.293 -0.659 L 0.293 -0.658 Q 0.294 -0.655 0.294 -0.64 Z"/></g><g transform="translate(3.5,7.854526315789474)"><path fill="rgb(0,100,0)" stroke="none" paint-order="stroke fill markers" d=" M 0.449 -0.17400000000000002 L 0.449 -0.17400000000000002 L 0.421 0 L 0.05 0 Q 0.05 -0.025 0.056 -0.032 L 0.061 -0.037 L 0.253 -0.251 Q 0.358 -0.369 0.358 -0.47200000000000003 Q 0.358 -0.561 0.304 -0.607 L 0.303 -0.608 L 0.302 -0.608 Q 0.27 -0.635 0.224 -0.635 Q 0.152 -0.635 0.109 -0.5730000000000001 Q 0.097 -0.555 0.089 -0.533 Q 0.092 -0.534 0.10200000000000001 -0.534 Q 0.14200000000000002 -0.534 0.153 -0.498 L 0.153 -0.497 Q 0.155 -0.49 0.155 -0.482 Q 0.155 -0.442 0.117 -0.431 Q 0.109 -0.429 0.10300000000000001 -0.429 Q 0.066 -0.429 0.054 -0.46 Q 0.05 -0.47100000000000003 0.05 -0.485 Q 0.05 -0.562 0.109 -0.617 Q 0.162 -0.666 0.23700000000000002 -0.666 Q 0.34700000000000003 -0.666 0.40800000000000003 -0.592 Q 0.443 -0.549 0.448 -0.49 Q 0.449 -0.481 0.449 -0.47200000000000003 Q 0.449 -0.399 0.394 -0.333 Q 0.365 -0.299 0.304 -0.243 L 0.243 -0.189 L 0.233 -0.18 L 0.127 -0.077 L 0.307 -0.077 Q 0.395 -0.077 0.402 -0.085 Q 0.41200000000000003 -0.099 0.424 -0.17400000000000002 L 0.449 -0.17400000000000002 Z"/></g></g><path fill="none" stroke="rgb(0,100,0)" paint-order="fill stroke markers" d=" M 113.50000000000017 222.49999999999977 L 51.69660112501069 32.288696740969115" stroke-opacity="0.6980392156862745" stroke-linecap="round" stroke-linejoin="round" stroke-miterlimit="10" stroke-width="0.5"/><path fill="none" stroke="rgb(244,0,153)" paint-order="fill stroke markers" d=" M 190.8370329367626 161.3670846716914 L 195.53931495510236 167.839220626691" stroke-opacity="0.6980392156862745" stroke-linecap="round" stroke-linejoin="round" stroke-miterlimit="10" stroke-width="0.5"/><path fill="none" stroke="rgb(244,0,153)" paint-order="fill stroke markers" d=" M 193.26408391988744 159.60372891481396 L 197.9663659382272 166.07586486981356" stroke-opacity="0.6980392156862745" stroke-linecap="round" stroke-linejoin="round" stroke-miterlimit="10" stroke-width="0.5"/><g transform="scale(19,19)"><g transform="translate(13.368421052631579,5.4308421052631575)"><path fill="rgb(244,0,153)" stroke="none" paint-order="stroke fill markers" d=" M 0.028 0.169 L 0.18 -0.437 Q 0.209 -0.551 0.292 -0.631 Q 0.37 -0.705 0.456 -0.705 Q 0.539 -0.705 0.5750000000000001 -0.639 Q 0.59 -0.611 0.59 -0.577 Q 0.59 -0.502 0.528 -0.439 Q 0.507 -0.418 0.482 -0.403 Q 0.549 -0.357 0.549 -0.264 Q 0.549 -0.161 0.46900000000000003 -0.076 Q 0.392 0.005 0.296 0.012 L 0.28300000000000003 0.012 Q 0.186 0.012 0.14100000000000001 -0.063 Q 0.129 -0.083 0.123 -0.105 L 0.048 0.188 L 0.047 0.19 Q 0.043000000000000003 0.194 0.037 0.194 Q 0.025 0.194 0.025 0.184 Q 0.025 0.181 0.028 0.169 M 0.328 -0.401 Q 0.34500000000000003 -0.395 0.371 -0.395 Q 0.401 -0.395 0.419 -0.403 Q 0.406 -0.40900000000000003 0.379 -0.40900000000000003 Q 0.34400000000000003 -0.40900000000000003 0.328 -0.401 M 0.45 -0.421 Q 0.511 -0.467 0.525 -0.577 L 0.525 -0.578 L 0.525 -0.58 Q 0.527 -0.594 0.527 -0.602 Q 0.527 -0.673 0.46900000000000003 -0.682 Q 0.462 -0.683 0.455 -0.683 Q 0.372 -0.683 0.299 -0.606 Q 0.23 -0.534 0.2 -0.41600000000000004 L 0.154 -0.231 Q 0.14100000000000001 -0.179 0.14100000000000001 -0.156 Q 0.14100000000000001 -0.074 0.2 -0.034 Q 0.234 -0.01 0.281 -0.01 Q 0.359 -0.01 0.41500000000000004 -0.094 Q 0.422 -0.10300000000000001 0.427 -0.113 Q 0.462 -0.179 0.47400000000000003 -0.274 Q 0.47600000000000003 -0.291 0.47600000000000003 -0.302 Q 0.47600000000000003 -0.355 0.446 -0.386 Q 0.41400000000000003 -0.373 0.371 -0.373 Q 0.303 -0.373 0.303 -0.399 Q 0.303 -0.431 0.381 -0.431 Q 0.422 -0.431 0.45 -0.421 Z"/></g></g><path fill="none" stroke="rgb(244,0,153)" paint-order="fill stroke markers" d=" M 113.50000000000017 222.49999999999977 L 275.3033988749896 104.94294954150519" stroke-opacity="0.6980392156862745" stroke-linecap="round" stroke-linejoin="round" stroke-miterlimit="10" stroke-width="0.5"/><path fill="none" stroke="rgb(244,0,153)" paint-order="fill stroke markers" d=" M 140.13394788075186 127.58486516742737 L 147.7424000111131 130.05700112242695" stroke-opacity="0.6980392156862745" stroke-linecap="round" stroke-linejoin="round" stroke-miterlimit="10" stroke-width="0.5"/><path fill="none" stroke="rgb(244,0,153)" paint-order="fill stroke markers" d=" M 141.0609988638767 124.73169561854192 L 148.66945099423793 127.20383157354149" stroke-opacity="0.6980392156862745" stroke-linecap="round" stroke-linejoin="round" stroke-miterlimit="10" stroke-width="0.5"/><g transform="scale(19,19)"><g transform="translate(9.631578947368421,2.904684210526316)"><path fill="rgb(244,0,153)" stroke="none" paint-order="stroke fill markers" d=" M 0.47700000000000004 -0.23600000000000002 L 0.47700000000000004 -0.23600000000000002 L 0.47700000000000004 -0.17400000000000002 Q 0.542 -0.255 0.5750000000000001 -0.372 Q 0.585 -0.392 0.59 -0.393 Q 0.602 -0.393 0.602 -0.383 Q 0.602 -0.366 0.579 -0.307 Q 0.545 -0.221 0.487 -0.148 Q 0.47700000000000004 -0.128 0.47700000000000004 -0.113 Q 0.47700000000000004 -0.011 0.508 -0.011 Q 0.539 -0.011 0.558 -0.046 Q 0.561 -0.052000000000000005 0.5640000000000001 -0.06 Q 0.5680000000000001 -0.07 0.577 -0.07 Q 0.589 -0.07 0.589 -0.06 Q 0.589 -0.041 0.5640000000000001 -0.015 Q 0.538 0.011 0.505 0.011 Q 0.442 0.011 0.418 -0.058 Q 0.41600000000000004 -0.065 0.41400000000000003 -0.073 Q 0.309 0.011 0.203 0.011 Q 0.109 0.011 0.065 -0.064 Q 0.041 -0.105 0.041 -0.158 Q 0.041 -0.26 0.11900000000000001 -0.34700000000000003 Q 0.196 -0.433 0.293 -0.441 Q 0.302 -0.442 0.31 -0.442 Q 0.394 -0.442 0.44 -0.376 Q 0.44 -0.375 0.441 -0.375 Q 0.47700000000000004 -0.322 0.47700000000000004 -0.23600000000000002 M 0.41000000000000003 -0.099 L 0.41000000000000003 -0.099 Q 0.40800000000000003 -0.116 0.40800000000000003 -0.211 Q 0.40800000000000003 -0.334 0.381 -0.379 Q 0.369 -0.399 0.352 -0.40900000000000003 L 0.35100000000000003 -0.41000000000000003 L 0.35100000000000003 -0.41000000000000003 L 0.35000000000000003 -0.41000000000000003 Q 0.332 -0.42 0.309 -0.42 Q 0.23800000000000002 -0.42 0.181 -0.34 L 0.17300000000000001 -0.328 Q 0.137 -0.27 0.12 -0.166 Q 0.115 -0.138 0.115 -0.12 Q 0.115 -0.036000000000000004 0.17400000000000002 -0.016 Q 0.188 -0.011 0.20500000000000002 -0.011 Q 0.309 -0.011 0.41000000000000003 -0.099 Z"/></g></g><path fill="none" stroke="rgb(244,0,153)" paint-order="fill stroke markers" d=" M 113.50000000000017 222.49999999999977 L 175.30339887498963 32.288696740969115" stroke-opacity="0.6980392156862745" stroke-linecap="round" stroke-linejoin="round" stroke-miterlimit="10" stroke-width="0.5"/><path fill="none" stroke="rgb(0,100,0)" paint-order="fill stroke markers" d=" M 313.5000000000001 222.49999999999977 L 244.40169943749487 127.39434837048445" stroke-opacity="0.6980392156862745" stroke-linecap="round" stroke-linejoin="round" stroke-miterlimit="10" stroke-width="0.5"/><path fill="none" stroke="rgb(0,100,0)" paint-order="fill stroke markers" d=" M 51.69660112501069 32.288696740969115 L 163.5000000000001 68.61582314123713" stroke-opacity="0.6980392156862745" stroke-linecap="round" stroke-linejoin="round" stroke-miterlimit="10" stroke-width="0.5"/><path fill="none" stroke="rgb(255,85,0)" paint-order="fill stroke markers" d=" M 163.5000000000001 68.61582314123713 L 244.40169943749487 127.39434837048445" stroke-opacity="0.6980392156862745" stroke-linecap="round" stroke-linejoin="round" stroke-miterlimit="10" stroke-width="0.5"/><path fill="rgb(0,0,255)" stroke="none" paint-order="stroke fill markers" d=" M 115.50000000000017 222.49999999999977 C 115.50000000000017 223.60456949966135 114.60456949966175 224.49999999999977 113.50000000000017 224.49999999999977 C 112.39543050033858 224.49999999999977 111.50000000000017 223.60456949966135 111.50000000000017 222.49999999999977 C 111.50000000000017 221.3954305003382 112.39543050033858 220.49999999999977 113.50000000000017 220.49999999999977 C 114.60456949966175 220.49999999999977 115.50000000000017 221.3954305003382 115.50000000000017 222.49999999999977 Z" fill-opacity="1"/><path fill="none" stroke="rgb(0,0,0)" paint-order="fill stroke markers" d=" M 115.50000000000017 222.49999999999977 C 115.50000000000017 223.60456949966135 114.60456949966175 224.49999999999977 113.50000000000017 224.49999999999977 C 112.39543050033858 224.49999999999977 111.50000000000017 223.60456949966135 111.50000000000017 222.49999999999977 C 111.50000000000017 221.3954305003382 112.39543050033858 220.49999999999977 113.50000000000017 220.49999999999977 C 114.60456949966175 220.49999999999977 115.50000000000017 221.3954305003382 115.50000000000017 222.49999999999977 Z" stroke-opacity="1" stroke-linecap="round" stroke-linejoin="round" stroke-miterlimit="10"/><text fill="rgb(0,0,255)" stroke="none" font-family="geogebra-sans-serif, sans-serif" font-size="16px" font-style="normal" font-weight="normal" text-decoration="normal" x="95" y="244" text-anchor="start" dominant-baseline="alphabetic" fill-opacity="1">A</text><text fill="none" stroke="rgb(255,255,255)" font-family="geogebra-sans-serif, sans-serif" font-size="16px" font-style="normal" font-weight="normal" text-decoration="normal" x="95" y="244" text-anchor="start" dominant-baseline="alphabetic" stroke-opacity="1" stroke-linejoin="bevel" stroke-miterlimit="10" stroke-width="3">A</text><text fill="rgb(0,0,255)" stroke="none" font-family="geogebra-sans-serif, sans-serif" font-size="16px" font-style="normal" font-weight="normal" text-decoration="normal" x="95" y="244" text-anchor="start" dominant-baseline="alphabetic" fill-opacity="1">A</text><path fill="rgb(0,0,255)" stroke="none" paint-order="stroke fill markers" d=" M 315.5000000000001 222.49999999999977 C 315.5000000000001 223.60456949966135 314.6045694996617 224.49999999999977 313.5000000000001 224.49999999999977 C 312.39543050033853 224.49999999999977 311.5000000000001 223.60456949966135 311.5000000000001 222.49999999999977 C 311.5000000000001 221.3954305003382 312.39543050033853 220.49999999999977 313.5000000000001 220.49999999999977 C 314.6045694996617 220.49999999999977 315.5000000000001 221.3954305003382 315.5000000000001 222.49999999999977 Z" fill-opacity="1"/><path fill="none" stroke="rgb(0,0,0)" paint-order="fill stroke markers" d=" M 315.5000000000001 222.49999999999977 C 315.5000000000001 223.60456949966135 314.6045694996617 224.49999999999977 313.5000000000001 224.49999999999977 C 312.39543050033853 224.49999999999977 311.5000000000001 223.60456949966135 311.5000000000001 222.49999999999977 C 311.5000000000001 221.3954305003382 312.39543050033853 220.49999999999977 313.5000000000001 220.49999999999977 C 314.6045694996617 220.49999999999977 315.5000000000001 221.3954305003382 315.5000000000001 222.49999999999977 Z" stroke-opacity="1" stroke-linecap="round" stroke-linejoin="round" stroke-miterlimit="10"/><text fill="rgb(0,0,255)" stroke="none" font-family="geogebra-sans-serif, sans-serif" font-size="16px" font-style="normal" font-weight="normal" text-decoration="normal" x="323" y="241" text-anchor="start" dominant-baseline="alphabetic" fill-opacity="1">B</text><text fill="none" stroke="rgb(255,255,255)" font-family="geogebra-sans-serif, sans-serif" font-size="16px" font-style="normal" font-weight="normal" text-decoration="normal" x="323" y="241" text-anchor="start" dominant-baseline="alphabetic" stroke-opacity="1" stroke-linejoin="bevel" stroke-miterlimit="10" stroke-width="3">B</text><text fill="rgb(0,0,255)" stroke="none" font-family="geogebra-sans-serif, sans-serif" font-size="16px" font-style="normal" font-weight="normal" text-decoration="normal" x="323" y="241" text-anchor="start" dominant-baseline="alphabetic" fill-opacity="1">B</text><path fill="rgb(0,0,255)" stroke="none" paint-order="stroke fill markers" d=" M 53.69660112501069 32.288696740969115 C 53.69660112501069 33.3932662406307 52.801170624672274 34.288696740969115 51.69660112501069 34.288696740969115 C 50.5920316253491 34.288696740969115 49.69660112501069 33.3932662406307 49.69660112501069 32.288696740969115 C 49.69660112501069 31.18412724130753 50.5920316253491 30.288696740969115 51.69660112501069 30.288696740969115 C 52.801170624672274 30.288696740969115 53.69660112501069 31.18412724130753 53.69660112501069 32.288696740969115 Z" fill-opacity="1"/><path fill="none" stroke="rgb(0,0,0)" paint-order="fill stroke markers" d=" M 53.69660112501069 32.288696740969115 C 53.69660112501069 33.3932662406307 52.801170624672274 34.288696740969115 51.69660112501069 34.288696740969115 C 50.5920316253491 34.288696740969115 49.69660112501069 33.3932662406307 49.69660112501069 32.288696740969115 C 49.69660112501069 31.18412724130753 50.5920316253491 30.288696740969115 51.69660112501069 30.288696740969115 C 52.801170624672274 30.288696740969115 53.69660112501069 31.18412724130753 53.69660112501069 32.288696740969115 Z" stroke-opacity="1" stroke-linecap="round" stroke-linejoin="round" stroke-miterlimit="10"/><text fill="rgb(0,0,255)" stroke="none" font-family="geogebra-sans-serif, sans-serif" font-size="16px" font-style="normal" font-weight="normal" text-decoration="normal" x="21" y="39" text-anchor="start" dominant-baseline="alphabetic" fill-opacity="1">C</text><text fill="none" stroke="rgb(255,255,255)" font-family="geogebra-sans-serif, sans-serif" font-size="16px" font-style="normal" font-weight="normal" text-decoration="normal" x="21" y="39" text-anchor="start" dominant-baseline="alphabetic" stroke-opacity="1" stroke-linejoin="bevel" stroke-miterlimit="10" stroke-width="3">C</text><text fill="rgb(0,0,255)" stroke="none" font-family="geogebra-sans-serif, sans-serif" font-size="16px" font-style="normal" font-weight="normal" text-decoration="normal" x="21" y="39" text-anchor="start" dominant-baseline="alphabetic" fill-opacity="1">C</text><path fill="rgb(0,0,255)" stroke="none" paint-order="stroke fill markers" d=" M 165.5000000000001 68.61582314123713 C 165.5000000000001 69.72039264089872 164.6045694996617 70.61582314123713 163.5000000000001 70.61582314123713 C 162.39543050033853 70.61582314123713 161.5000000000001 69.72039264089872 161.5000000000001 68.61582314123713 C 161.5000000000001 67.51125364157554 162.39543050033853 66.61582314123713 163.5000000000001 66.61582314123713 C 164.6045694996617 66.61582314123713 165.5000000000001 67.51125364157554 165.5000000000001 68.61582314123713 Z" fill-opacity="1"/><path fill="none" stroke="rgb(0,0,0)" paint-order="fill stroke markers" d=" M 165.5000000000001 68.61582314123713 C 165.5000000000001 69.72039264089872 164.6045694996617 70.61582314123713 163.5000000000001 70.61582314123713 C 162.39543050033853 70.61582314123713 161.5000000000001 69.72039264089872 161.5000000000001 68.61582314123713 C 161.5000000000001 67.51125364157554 162.39543050033853 66.61582314123713 163.5000000000001 66.61582314123713 C 164.6045694996617 66.61582314123713 165.5000000000001 67.51125364157554 165.5000000000001 68.61582314123713 Z" stroke-opacity="1" stroke-linecap="round" stroke-linejoin="round" stroke-miterlimit="10"/><text fill="rgb(0,0,255)" stroke="none" font-family="geogebra-sans-serif, sans-serif" font-size="16px" font-style="normal" font-weight="normal" text-decoration="normal" x="141" y="47" text-anchor="start" dominant-baseline="alphabetic" fill-opacity="1">D</text><text fill="none" stroke="rgb(255,255,255)" font-family="geogebra-sans-serif, sans-serif" font-size="16px" font-style="normal" font-weight="normal" text-decoration="normal" x="141" y="47" text-anchor="start" dominant-baseline="alphabetic" stroke-opacity="1" stroke-linejoin="bevel" stroke-miterlimit="10" stroke-width="3">D</text><text fill="rgb(0,0,255)" stroke="none" font-family="geogebra-sans-serif, sans-serif" font-size="16px" font-style="normal" font-weight="normal" text-decoration="normal" x="141" y="47" text-anchor="start" dominant-baseline="alphabetic" fill-opacity="1">D</text><path fill="rgb(0,0,255)" stroke="none" paint-order="stroke fill markers" d=" M 246.40169943749487 127.39434837048445 C 246.40169943749487 128.49891787014604 245.50626893715645 129.39434837048447 244.40169943749487 129.39434837048447 C 243.2971299378333 129.39434837048447 242.40169943749487 128.49891787014604 242.40169943749487 127.39434837048445 C 242.40169943749487 126.28977887082286 243.2971299378333 125.39434837048445 244.40169943749487 125.39434837048445 C 245.50626893715645 125.39434837048445 246.40169943749487 126.28977887082286 246.40169943749487 127.39434837048445 Z" fill-opacity="1"/><path fill="none" stroke="rgb(0,0,0)" paint-order="fill stroke markers" d=" M 246.40169943749487 127.39434837048445 C 246.40169943749487 128.49891787014604 245.50626893715645 129.39434837048447 244.40169943749487 129.39434837048447 C 243.2971299378333 129.39434837048447 242.40169943749487 128.49891787014604 242.40169943749487 127.39434837048445 C 242.40169943749487 126.28977887082286 243.2971299378333 125.39434837048445 244.40169943749487 125.39434837048445 C 245.50626893715645 125.39434837048445 246.40169943749487 126.28977887082286 246.40169943749487 127.39434837048445 Z" stroke-opacity="1" stroke-linecap="round" stroke-linejoin="round" stroke-miterlimit="10"/><text fill="rgb(0,0,255)" stroke="none" font-family="geogebra-sans-serif, sans-serif" font-size="16px" font-style="normal" font-weight="normal" text-decoration="normal" x="266" y="140" text-anchor="start" dominant-baseline="alphabetic" fill-opacity="1">E</text><text fill="none" stroke="rgb(255,255,255)" font-family="geogebra-sans-serif, sans-serif" font-size="16px" font-style="normal" font-weight="normal" text-decoration="normal" x="266" y="140" text-anchor="start" dominant-baseline="alphabetic" stroke-opacity="1" stroke-linejoin="bevel" stroke-miterlimit="10" stroke-width="3">E</text><text fill="rgb(0,0,255)" stroke="none" font-family="geogebra-sans-serif, sans-serif" font-size="16px" font-style="normal" font-weight="normal" text-decoration="normal" x="266" y="140" text-anchor="start" dominant-baseline="alphabetic" fill-opacity="1">E</text></g></g></svg>