<svg version="1.1" xmlns="http://www.w3.org/2000/svg" xmlns:xlink="http://www.w3.org/1999/xlink" width="419" height="389"><defs><clipPath id="yPsqUVrrOnzG"><path fill="none" stroke="none" d=" M 0 0 L 419 0 L 419 389 L 0 389 L 0 0 Z"/></clipPath></defs><g transform="scale(1,1)" clip-path="url(#yPsqUVrrOnzG)"><g><rect fill="rgb(255,255,255)" stroke="none" x="0" y="0" width="419" height="389" fill-opacity="1"/><path fill="rgb(0,153,204)" stroke="none" paint-order="stroke fill markers" d=" M 146.50000000000023 345.49999999999955 C 146.50000000000023 339.1646223870181 144.49435135986306 332.9918705859099 140.77050983124866 327.8664424312253 L 116.50000000000023 345.49999999999955 Z" fill-opacity="0.09803921568627451"/><path fill="none" stroke="rgb(0,153,204)" paint-order="fill stroke markers" d=" M 146.50000000000023 345.49999999999955 C 146.50000000000023 339.1646223870181 144.49435135986306 332.9918705859099 140.77050983124866 327.8664424312253 L 116.50000000000023 345.49999999999955 Z" stroke-opacity="0.6980392156862745" stroke-linecap="round" stroke-linejoin="round" stroke-miterlimit="10" stroke-width="0.5"/><path fill="none" stroke="rgb(0,153,204)" paint-order="fill stroke markers" d=" M 142.89389114075541 338.72320057475724 L 148.2210985269629 337.35540619535055" stroke-opacity="0.6980392156862745" stroke-linecap="round" stroke-linejoin="round" stroke-miterlimit="10" stroke-width="0.5"/><path fill="none" stroke="rgb(0,153,204)" paint-order="fill stroke markers" d=" M 141.83640924045508 335.46860593934207 L 146.95017991284047 333.44392089957637" stroke-opacity="0.6980392156862745" stroke-linecap="round" stroke-linejoin="round" stroke-miterlimit="10" stroke-width="0.5"/><text fill="rgb(0,153,204)" stroke="none" font-family="geogebra-sans-serif, sans-serif" font-size="16px" font-style="normal" font-weight="normal" text-decoration="normal" x="157" y="335" text-anchor="start" dominant-baseline="alphabetic" fill-opacity="1">36°</text><text fill="none" stroke="rgb(255,255,255)" font-family="geogebra-sans-serif, sans-serif" font-size="16px" font-style="normal" font-weight="normal" text-decoration="normal" x="157" y="335" text-anchor="start" dominant-baseline="alphabetic" stroke-opacity="1" stroke-linejoin="bevel" stroke-miterlimit="10" stroke-width="3">36°</text><text fill="rgb(0,153,204)" stroke="none" font-family="geogebra-sans-serif, sans-serif" font-size="16px" font-style="normal" font-weight="normal" text-decoration="normal" x="157" y="335" text-anchor="start" dominant-baseline="alphabetic" fill-opacity="1">36°</text><path fill="rgb(0,153,204)" stroke="none" paint-order="stroke fill markers" d=" M 140.77050983124866 327.8664424312253 C 137.04666830263423 322.7410142765408 131.79581199326506 318.9260438593388 125.77050983124863 316.96830451114494 L 116.50000000000023 345.49999999999955 Z" fill-opacity="0.09803921568627451"/><path fill="none" stroke="rgb(0,153,204)" paint-order="fill stroke markers" d=" M 140.77050983124866 327.8664424312253 C 137.04666830263423 322.7410142765408 131.79581199326506 318.9260438593388 125.77050983124863 316.96830451114494 L 116.50000000000023 345.49999999999955 Z" stroke-opacity="0.6980392156862745" stroke-linecap="round" stroke-linejoin="round" stroke-miterlimit="10" stroke-width="0.5"/><path fill="none" stroke="rgb(0,153,204)" paint-order="fill stroke markers" d=" M 133.86980372065202 324.5035141343593 L 137.37563566426982 320.26569129909245" stroke-opacity="0.6980392156862745" stroke-linecap="round" stroke-linejoin="round" stroke-miterlimit="10" stroke-width="0.5"/><path fill="none" stroke="rgb(0,153,204)" paint-order="fill stroke markers" d=" M 131.10128016317788 322.4920640300696 L 134.04832753556235 317.84826043980854" stroke-opacity="0.6980392156862745" stroke-linecap="round" stroke-linejoin="round" stroke-miterlimit="10" stroke-width="0.5"/><path fill="rgb(0,153,204)" stroke="none" paint-order="stroke fill markers" d=" M 125.77050983124863 316.96830451114494 C 119.7452076692322 315.0105651629511 113.25479233076823 315.0105651629511 107.2294901687518 316.96830451114494 L 116.50000000000023 345.49999999999955 Z" fill-opacity="0.09803921568627451"/><path fill="none" stroke="rgb(0,153,204)" paint-order="fill stroke markers" d=" M 125.77050983124863 316.96830451114494 C 119.7452076692322 315.0105651629511 113.25479233076823 315.0105651629511 107.2294901687518 316.96830451114494 L 116.50000000000023 345.49999999999955 Z" stroke-opacity="0.6980392156862745" stroke-linecap="round" stroke-linejoin="round" stroke-miterlimit="10" stroke-width="0.5"/><path fill="none" stroke="rgb(0,153,204)" paint-order="fill stroke markers" d=" M 118.21104165717402 318.30377165032917 L 118.55638951458525 312.8146246439737" stroke-opacity="0.6980392156862745" stroke-linecap="round" stroke-linejoin="round" stroke-miterlimit="10" stroke-width="0.5"/><path fill="none" stroke="rgb(0,153,204)" paint-order="fill stroke markers" d=" M 114.78895834282643 318.30377165032917 L 114.4436104854152 312.8146246439737" stroke-opacity="0.6980392156862745" stroke-linecap="round" stroke-linejoin="round" stroke-miterlimit="10" stroke-width="0.5"/><path fill="rgb(255,0,0)" stroke="none" paint-order="stroke fill markers" fill-rule="evenodd" d=" M 166.50000000000017 191.615823141237 L 153.05002976072194 187.24566289674908 L 148.67986951623283 200.69563313602794 L 162.12983975551225 205.06579338051523 L 166.50000000000017 191.615823141237" fill-opacity="0.09803921568627451"/><path fill="none" stroke="rgb(255,0,0)" paint-order="fill stroke markers" d=" M 166.50000000000017 191.615823141237 L 153.05002976072194 187.24566289674908 L 148.67986951623283 200.69563313602794 L 162.12983975551225 205.06579338051523 L 166.50000000000017 191.615823141237" stroke-opacity="0.6980392156862745" stroke-linecap="round" stroke-linejoin="round" stroke-miterlimit="10" stroke-width="0.5"/><path fill="rgb(255,0,0)" stroke="none" paint-order="stroke fill markers" fill-rule="evenodd" d=" M 247.40169943749493 250.39434837048427 L 235.960471381142 258.70688712603277 L 244.27301013669032 270.148115182387 L 255.71423819304343 261.8355764268372 L 247.40169943749493 250.39434837048427" fill-opacity="0.09803921568627451"/><path fill="none" stroke="rgb(255,0,0)" paint-order="fill stroke markers" d=" M 247.40169943749493 250.39434837048427 L 235.960471381142 258.70688712603277 L 244.27301013669032 270.148115182387 L 255.71423819304343 261.8355764268372 L 247.40169943749493 250.39434837048427" stroke-opacity="0.6980392156862745" stroke-linecap="round" stroke-linejoin="round" stroke-miterlimit="10" stroke-width="0.5"/><path fill="rgb(255,127,0)" stroke="none" paint-order="stroke fill markers" d=" M 298.86644243122595 321.2294901687511 C 291.0973305878555 326.8740803277899 286.50000000000017 335.8968496367949 286.50000000000017 345.49999999999955 L 316.50000000000017 345.49999999999955 Z" fill-opacity="0.09803921568627451"/><path fill="none" stroke="rgb(255,127,0)" paint-order="fill stroke markers" d=" M 298.86644243122595 321.2294901687511 C 291.0973305878555 326.8740803277899 286.50000000000017 335.8968496367949 286.50000000000017 345.49999999999955 L 316.50000000000017 345.49999999999955 Z" stroke-opacity="0.6980392156862745" stroke-linecap="round" stroke-linejoin="round" stroke-miterlimit="10"/><path fill="none" stroke="rgb(255,127,0)" paint-order="fill stroke markers" d=" M 301.8053686926883 325.27457514062587 C 295.3311088232129 329.9784002731582 291.50000000000017 337.497374697329 291.50000000000017 345.49999999999955" stroke-opacity="0.6980392156862745" stroke-linecap="round" stroke-linejoin="round" stroke-miterlimit="10"/><text fill="rgb(255,127,0)" stroke="none" font-family="geogebra-sans-serif, sans-serif" font-size="16px" font-style="normal" font-weight="normal" text-decoration="normal" x="262" y="331" text-anchor="start" dominant-baseline="alphabetic" fill-opacity="1">54°</text><text fill="none" stroke="rgb(255,255,255)" font-family="geogebra-sans-serif, sans-serif" font-size="16px" font-style="normal" font-weight="normal" text-decoration="normal" x="262" y="331" text-anchor="start" dominant-baseline="alphabetic" stroke-opacity="1" stroke-linejoin="bevel" stroke-miterlimit="10" stroke-width="3">54°</text><text fill="rgb(255,127,0)" stroke="none" font-family="geogebra-sans-serif, sans-serif" font-size="16px" font-style="normal" font-weight="normal" text-decoration="normal" x="262" y="331" text-anchor="start" dominant-baseline="alphabetic" fill-opacity="1">54°</text><path fill="rgb(255,0,255)" stroke="none" paint-order="stroke fill markers" d=" M 354.0328890437412 137.65513917219488 C 346.39356881873914 148.16976141457752 346.3935688187391 162.40763206736057 354.0328890437412 172.92225430974324 L 378.3033988749896 155.28869674096904 Z" fill-opacity="0.09803921568627451"/><path fill="none" stroke="rgb(255,0,255)" paint-order="fill stroke markers" d=" M 354.0328890437412 137.65513917219488 C 346.39356881873914 148.16976141457752 346.3935688187391 162.40763206736057 354.0328890437412 172.92225430974324 L 378.3033988749896 155.28869674096904 Z" stroke-opacity="0.6980392156862745" stroke-linecap="round" stroke-linejoin="round" stroke-miterlimit="10"/><path fill="none" stroke="rgb(255,0,255)" paint-order="fill stroke markers" d=" M 351.3033988749896 155.28869674096904 L 345.3033988749896 155.28869674096904" stroke-opacity="0.6980392156862745" stroke-linecap="round" stroke-linejoin="round" stroke-miterlimit="10"/><text fill="rgb(255,0,255)" stroke="none" font-family="geogebra-sans-serif, sans-serif" font-size="16px" font-style="normal" font-weight="normal" text-decoration="normal" x="316" y="162" text-anchor="start" dominant-baseline="alphabetic" fill-opacity="1">72°</text><text fill="none" stroke="rgb(255,255,255)" font-family="geogebra-sans-serif, sans-serif" font-size="16px" font-style="normal" font-weight="normal" text-decoration="normal" x="316" y="162" text-anchor="start" dominant-baseline="alphabetic" stroke-opacity="1" stroke-linejoin="bevel" stroke-miterlimit="10" stroke-width="3">72°</text><text fill="rgb(255,0,255)" stroke="none" font-family="geogebra-sans-serif, sans-serif" font-size="16px" font-style="normal" font-weight="normal" text-decoration="normal" x="316" y="162" text-anchor="start" dominant-baseline="alphabetic" fill-opacity="1">72°</text><path fill="none" stroke="rgb(0,100,0)" paint-order="fill stroke markers" d=" M 216.5000000000002 341.49999999999955 L 216.5000000000002 349.49999999999955" stroke-opacity="0.6980392156862745" stroke-linecap="round" stroke-linejoin="round" stroke-miterlimit="10" stroke-width="0.5"/><g transform="scale(19,19)"><g transform="translate(11.052631578947368,19.22294736842105)"><path fill="rgb(0,100,0)" stroke="none" paint-order="stroke fill markers" d=" M 0.294 -0.64 L 0.294 -0.079 Q 0.294 -0.049 0.306 -0.041 Q 0.323 -0.031 0.387 -0.031 L 0.419 -0.031 L 0.419 0 Q 0.384 -0.003 0.257 -0.003 Q 0.13 -0.003 0.095 0 L 0.095 -0.031 L 0.127 -0.031 Q 0.20400000000000001 -0.031 0.215 -0.049 L 0.216 -0.05 Q 0.22 -0.058 0.22 -0.079 L 0.22 -0.597 Q 0.168 -0.5710000000000001 0.089 -0.5710000000000001 L 0.089 -0.602 Q 0.209 -0.602 0.271 -0.666 Q 0.29 -0.666 0.293 -0.659 L 0.293 -0.659 L 0.293 -0.658 Q 0.294 -0.655 0.294 -0.64 Z"/></g><g transform="translate(11.552631578947368,19.22294736842105)"><path fill="rgb(0,100,0)" stroke="none" paint-order="stroke fill markers" d=" M 0.449 -0.17400000000000002 L 0.449 -0.17400000000000002 L 0.421 0 L 0.05 0 Q 0.05 -0.025 0.056 -0.032 L 0.061 -0.037 L 0.253 -0.251 Q 0.358 -0.369 0.358 -0.47200000000000003 Q 0.358 -0.561 0.304 -0.607 L 0.303 -0.608 L 0.302 -0.608 Q 0.27 -0.635 0.224 -0.635 Q 0.152 -0.635 0.109 -0.5730000000000001 Q 0.097 -0.555 0.089 -0.533 Q 0.092 -0.534 0.10200000000000001 -0.534 Q 0.14200000000000002 -0.534 0.153 -0.498 L 0.153 -0.497 Q 0.155 -0.49 0.155 -0.482 Q 0.155 -0.442 0.117 -0.431 Q 0.109 -0.429 0.10300000000000001 -0.429 Q 0.066 -0.429 0.054 -0.46 Q 0.05 -0.47100000000000003 0.05 -0.485 Q 0.05 -0.562 0.109 -0.617 Q 0.162 -0.666 0.23700000000000002 -0.666 Q 0.34700000000000003 -0.666 0.40800000000000003 -0.592 Q 0.443 -0.549 0.448 -0.49 Q 0.449 -0.481 0.449 -0.47200000000000003 Q 0.449 -0.399 0.394 -0.333 Q 0.365 -0.299 0.304 -0.243 L 0.243 -0.189 L 0.233 -0.18 L 0.127 -0.077 L 0.307 -0.077 Q 0.395 -0.077 0.402 -0.085 Q 0.41200000000000003 -0.099 0.424 -0.17400000000000002 L 0.449 -0.17400000000000002 Z"/></g></g><path fill="none" stroke="rgb(0,100,0)" paint-order="fill stroke markers" d=" M 116.50000000000023 345.49999999999955 L 316.50000000000017 345.49999999999955" stroke-opacity="0.6980392156862745" stroke-linecap="round" stroke-linejoin="round" stroke-miterlimit="10" stroke-width="0.5"/><path fill="none" stroke="rgb(0,100,0)" paint-order="fill stroke markers" d=" M 81.79407449732487 251.63041634798407 L 89.4025266276861 249.15828039298447" stroke-opacity="0.6980392156862745" stroke-linecap="round" stroke-linejoin="round" stroke-miterlimit="10" stroke-width="0.5"/><g transform="scale(19,19)"><g transform="translate(3.1578947368421053,14.32821052631579)"><path fill="rgb(0,100,0)" stroke="none" paint-order="stroke fill markers" d=" M 0.294 -0.64 L 0.294 -0.079 Q 0.294 -0.049 0.306 -0.041 Q 0.323 -0.031 0.387 -0.031 L 0.419 -0.031 L 0.419 0 Q 0.384 -0.003 0.257 -0.003 Q 0.13 -0.003 0.095 0 L 0.095 -0.031 L 0.127 -0.031 Q 0.20400000000000001 -0.031 0.215 -0.049 L 0.216 -0.05 Q 0.22 -0.058 0.22 -0.079 L 0.22 -0.597 Q 0.168 -0.5710000000000001 0.089 -0.5710000000000001 L 0.089 -0.602 Q 0.209 -0.602 0.271 -0.666 Q 0.29 -0.666 0.293 -0.659 L 0.293 -0.659 L 0.293 -0.658 Q 0.294 -0.655 0.294 -0.64 Z"/></g><g transform="translate(3.6578947368421053,14.32821052631579)"><path fill="rgb(0,100,0)" stroke="none" paint-order="stroke fill markers" d=" M 0.449 -0.17400000000000002 L 0.449 -0.17400000000000002 L 0.421 0 L 0.05 0 Q 0.05 -0.025 0.056 -0.032 L 0.061 -0.037 L 0.253 -0.251 Q 0.358 -0.369 0.358 -0.47200000000000003 Q 0.358 -0.561 0.304 -0.607 L 0.303 -0.608 L 0.302 -0.608 Q 0.27 -0.635 0.224 -0.635 Q 0.152 -0.635 0.109 -0.5730000000000001 Q 0.097 -0.555 0.089 -0.533 Q 0.092 -0.534 0.10200000000000001 -0.534 Q 0.14200000000000002 -0.534 0.153 -0.498 L 0.153 -0.497 Q 0.155 -0.49 0.155 -0.482 Q 0.155 -0.442 0.117 -0.431 Q 0.109 -0.429 0.10300000000000001 -0.429 Q 0.066 -0.429 0.054 -0.46 Q 0.05 -0.47100000000000003 0.05 -0.485 Q 0.05 -0.562 0.109 -0.617 Q 0.162 -0.666 0.23700000000000002 -0.666 Q 0.34700000000000003 -0.666 0.40800000000000003 -0.592 Q 0.443 -0.549 0.448 -0.49 Q 0.449 -0.481 0.449 -0.47200000000000003 Q 0.449 -0.399 0.394 -0.333 Q 0.365 -0.299 0.304 -0.243 L 0.243 -0.189 L 0.233 -0.18 L 0.127 -0.077 L 0.307 -0.077 Q 0.395 -0.077 0.402 -0.085 Q 0.41200000000000003 -0.099 0.424 -0.17400000000000002 L 0.449 -0.17400000000000002 Z"/></g></g><path fill="none" stroke="rgb(0,100,0)" paint-order="fill stroke markers" d=" M 116.50000000000023 345.49999999999955 L 54.696601125010744 155.288696740969" stroke-opacity="0.6980392156862745" stroke-linecap="round" stroke-linejoin="round" stroke-miterlimit="10" stroke-width="0.5"/><path fill="none" stroke="rgb(244,0,153)" paint-order="fill stroke markers" d=" M 193.83703293676265 284.3670846716912 L 198.5393149551024 290.83922062669075" stroke-opacity="0.6980392156862745" stroke-linecap="round" stroke-linejoin="round" stroke-miterlimit="10" stroke-width="0.5"/><path fill="none" stroke="rgb(244,0,153)" paint-order="fill stroke markers" d=" M 196.2640839198875 282.60372891481376 L 200.96636593822726 289.0758648698133" stroke-opacity="0.6980392156862745" stroke-linecap="round" stroke-linejoin="round" stroke-miterlimit="10" stroke-width="0.5"/><g transform="scale(19,19)"><g transform="translate(13.526315789473685,11.904526315789475)"><path fill="rgb(244,0,153)" stroke="none" paint-order="stroke fill markers" d=" M 0.028 0.169 L 0.18 -0.437 Q 0.209 -0.551 0.292 -0.631 Q 0.37 -0.705 0.456 -0.705 Q 0.539 -0.705 0.5750000000000001 -0.639 Q 0.59 -0.611 0.59 -0.577 Q 0.59 -0.502 0.528 -0.439 Q 0.507 -0.418 0.482 -0.403 Q 0.549 -0.357 0.549 -0.264 Q 0.549 -0.161 0.46900000000000003 -0.076 Q 0.392 0.005 0.296 0.012 L 0.28300000000000003 0.012 Q 0.186 0.012 0.14100000000000001 -0.063 Q 0.129 -0.083 0.123 -0.105 L 0.048 0.188 L 0.047 0.19 Q 0.043000000000000003 0.194 0.037 0.194 Q 0.025 0.194 0.025 0.184 Q 0.025 0.181 0.028 0.169 M 0.328 -0.401 Q 0.34500000000000003 -0.395 0.371 -0.395 Q 0.401 -0.395 0.419 -0.403 Q 0.406 -0.40900000000000003 0.379 -0.40900000000000003 Q 0.34400000000000003 -0.40900000000000003 0.328 -0.401 M 0.45 -0.421 Q 0.511 -0.467 0.525 -0.577 L 0.525 -0.578 L 0.525 -0.58 Q 0.527 -0.594 0.527 -0.602 Q 0.527 -0.673 0.46900000000000003 -0.682 Q 0.462 -0.683 0.455 -0.683 Q 0.372 -0.683 0.299 -0.606 Q 0.23 -0.534 0.2 -0.41600000000000004 L 0.154 -0.231 Q 0.14100000000000001 -0.179 0.14100000000000001 -0.156 Q 0.14100000000000001 -0.074 0.2 -0.034 Q 0.234 -0.01 0.281 -0.01 Q 0.359 -0.01 0.41500000000000004 -0.094 Q 0.422 -0.10300000000000001 0.427 -0.113 Q 0.462 -0.179 0.47400000000000003 -0.274 Q 0.47600000000000003 -0.291 0.47600000000000003 -0.302 Q 0.47600000000000003 -0.355 0.446 -0.386 Q 0.41400000000000003 -0.373 0.371 -0.373 Q 0.303 -0.373 0.303 -0.399 Q 0.303 -0.431 0.381 -0.431 Q 0.422 -0.431 0.45 -0.421 Z"/></g></g><path fill="none" stroke="rgb(244,0,153)" paint-order="fill stroke markers" d=" M 116.50000000000023 345.49999999999955 L 278.3033988749897 227.94294954150502" stroke-opacity="0.6980392156862745" stroke-linecap="round" stroke-linejoin="round" stroke-miterlimit="10" stroke-width="0.5"/><path fill="none" stroke="rgb(244,0,153)" paint-order="fill stroke markers" d=" M 143.13394788075192 250.58486516742718 L 150.74240001111315 253.05700112242678" stroke-opacity="0.6980392156862745" stroke-linecap="round" stroke-linejoin="round" stroke-miterlimit="10" stroke-width="0.5"/><path fill="none" stroke="rgb(244,0,153)" paint-order="fill stroke markers" d=" M 144.06099886387676 247.73169561854175 L 151.669450994238 250.20383157354135" stroke-opacity="0.6980392156862745" stroke-linecap="round" stroke-linejoin="round" stroke-miterlimit="10" stroke-width="0.5"/><g transform="scale(19,19)"><g transform="translate(9.789473684210526,9.378368421052631)"><path fill="rgb(244,0,153)" stroke="none" paint-order="stroke fill markers" d=" M 0.47700000000000004 -0.23600000000000002 L 0.47700000000000004 -0.23600000000000002 L 0.47700000000000004 -0.17400000000000002 Q 0.542 -0.255 0.5750000000000001 -0.372 Q 0.585 -0.392 0.59 -0.393 Q 0.602 -0.393 0.602 -0.383 Q 0.602 -0.366 0.579 -0.307 Q 0.545 -0.221 0.487 -0.148 Q 0.47700000000000004 -0.128 0.47700000000000004 -0.113 Q 0.47700000000000004 -0.011 0.508 -0.011 Q 0.539 -0.011 0.558 -0.046 Q 0.561 -0.052000000000000005 0.5640000000000001 -0.06 Q 0.5680000000000001 -0.07 0.577 -0.07 Q 0.589 -0.07 0.589 -0.06 Q 0.589 -0.041 0.5640000000000001 -0.015 Q 0.538 0.011 0.505 0.011 Q 0.442 0.011 0.418 -0.058 Q 0.41600000000000004 -0.065 0.41400000000000003 -0.073 Q 0.309 0.011 0.203 0.011 Q 0.109 0.011 0.065 -0.064 Q 0.041 -0.105 0.041 -0.158 Q 0.041 -0.26 0.11900000000000001 -0.34700000000000003 Q 0.196 -0.433 0.293 -0.441 Q 0.302 -0.442 0.31 -0.442 Q 0.394 -0.442 0.44 -0.376 Q 0.44 -0.375 0.441 -0.375 Q 0.47700000000000004 -0.322 0.47700000000000004 -0.23600000000000002 M 0.41000000000000003 -0.099 L 0.41000000000000003 -0.099 Q 0.40800000000000003 -0.116 0.40800000000000003 -0.211 Q 0.40800000000000003 -0.334 0.381 -0.379 Q 0.369 -0.399 0.352 -0.40900000000000003 L 0.35100000000000003 -0.41000000000000003 L 0.35100000000000003 -0.41000000000000003 L 0.35000000000000003 -0.41000000000000003 Q 0.332 -0.42 0.309 -0.42 Q 0.23800000000000002 -0.42 0.181 -0.34 L 0.17300000000000001 -0.328 Q 0.137 -0.27 0.12 -0.166 Q 0.115 -0.138 0.115 -0.12 Q 0.115 -0.036000000000000004 0.17400000000000002 -0.016 Q 0.188 -0.011 0.20500000000000002 -0.011 Q 0.309 -0.011 0.41000000000000003 -0.099 Z"/></g></g><path fill="none" stroke="rgb(244,0,153)" paint-order="fill stroke markers" d=" M 116.50000000000023 345.49999999999955 L 178.30339887498968 155.288696740969" stroke-opacity="0.6980392156862745" stroke-linecap="round" stroke-linejoin="round" stroke-miterlimit="10" stroke-width="0.5"/><path fill="none" stroke="rgb(0,100,0)" paint-order="fill stroke markers" d=" M 316.50000000000017 345.49999999999955 L 247.40169943749493 250.39434837048427" stroke-opacity="0.6980392156862745" stroke-linecap="round" stroke-linejoin="round" stroke-miterlimit="10" stroke-width="0.5"/><path fill="none" stroke="rgb(0,100,0)" paint-order="fill stroke markers" d=" M 54.696601125010744 155.288696740969 L 166.50000000000017 191.615823141237" stroke-opacity="0.6980392156862745" stroke-linecap="round" stroke-linejoin="round" stroke-miterlimit="10" stroke-width="0.5"/><path fill="none" stroke="rgb(255,85,0)" paint-order="fill stroke markers" d=" M 166.50000000000017 191.615823141237 L 247.40169943749493 250.39434837048427" stroke-opacity="0.6980392156862745" stroke-linecap="round" stroke-linejoin="round" stroke-miterlimit="10" stroke-width="0.5"/><path fill="none" stroke="rgb(0,100,0)" paint-order="fill stroke markers" d=" M 343.5974733723143 249.1582803929845 L 351.20592550267554 251.6304163479841" stroke-opacity="0.6980392156862745" stroke-linecap="round" stroke-linejoin="round" stroke-miterlimit="10" stroke-width="0.5"/><path fill="none" stroke="rgb(0,100,0)" paint-order="fill stroke markers" d=" M 316.50000000000017 345.49999999999955 L 378.3033988749896 155.28869674096904" stroke-opacity="0.6980392156862745" stroke-linecap="round" stroke-linejoin="round" stroke-miterlimit="10" stroke-width="0.5"/><path fill="none" stroke="rgb(0,100,0)" paint-order="fill stroke markers" d=" M 133.2471595533356 93.27410353422192 L 137.94944157167535 99.7462394892215" stroke-opacity="0.6980392156862745" stroke-linecap="round" stroke-linejoin="round" stroke-miterlimit="10" stroke-width="0.5"/><path fill="none" stroke="rgb(0,100,0)" paint-order="fill stroke markers" d=" M 54.696601125010744 155.288696740969 L 216.50000000000017 37.73164628247443" stroke-opacity="0.6980392156862745" stroke-linecap="round" stroke-linejoin="round" stroke-miterlimit="10" stroke-width="0.5"/><path fill="none" stroke="rgb(0,100,0)" paint-order="fill stroke markers" d=" M 299.75284044666483 93.27410353422195 L 295.050558428325 99.74623948922152" stroke-opacity="0.6980392156862745" stroke-linecap="round" stroke-linejoin="round" stroke-miterlimit="10" stroke-width="0.5"/><path fill="none" stroke="rgb(0,100,0)" paint-order="fill stroke markers" d=" M 216.50000000000017 37.73164628247443 L 378.3033988749896 155.28869674096904" stroke-opacity="0.6980392156862745" stroke-linecap="round" stroke-linejoin="round" stroke-miterlimit="10" stroke-width="0.5"/><path fill="none" stroke="rgb(244,0,153)" paint-order="fill stroke markers" d=" M 187.23224844325713 114.86425150879866 L 194.84070057361836 117.33638746379823" stroke-opacity="0.6980392156862745" stroke-linecap="round" stroke-linejoin="round" stroke-miterlimit="10" stroke-width="0.5"/><path fill="none" stroke="rgb(244,0,153)" paint-order="fill stroke markers" d=" M 188.15929942638198 112.0110819599132 L 195.7677515567432 114.48321791491277" stroke-opacity="0.6980392156862745" stroke-linecap="round" stroke-linejoin="round" stroke-miterlimit="10" stroke-width="0.5"/><path fill="none" stroke="rgb(244,0,153)" paint-order="fill stroke markers" d=" M 166.50000000000017 191.615823141237 L 216.50000000000017 37.73164628247443" stroke-opacity="0.6980392156862745" stroke-linecap="round" stroke-linejoin="round" stroke-miterlimit="10" stroke-width="0.5"/><path fill="none" stroke="rgb(244,0,153)" paint-order="fill stroke markers" d=" M 309.2878826555099 200.4871324566656 L 313.99016467384973 206.9592684116652" stroke-opacity="0.6980392156862745" stroke-linecap="round" stroke-linejoin="round" stroke-miterlimit="10" stroke-width="0.5"/><path fill="none" stroke="rgb(244,0,153)" paint-order="fill stroke markers" d=" M 311.7149336386348 198.72377669978815 L 316.41721565697463 205.19591265478775" stroke-opacity="0.6980392156862745" stroke-linecap="round" stroke-linejoin="round" stroke-miterlimit="10" stroke-width="0.5"/><path fill="none" stroke="rgb(244,0,153)" paint-order="fill stroke markers" d=" M 247.40169943749493 250.39434837048427 L 378.3033988749896 155.28869674096904" stroke-opacity="0.6980392156862745" stroke-linecap="round" stroke-linejoin="round" stroke-miterlimit="10" stroke-width="0.5"/><path fill="rgb(0,0,255)" stroke="none" paint-order="stroke fill markers" d=" M 118.50000000000023 345.49999999999955 C 118.50000000000023 346.6045694996611 117.6045694996618 347.49999999999955 116.50000000000023 347.49999999999955 C 115.39543050033863 347.49999999999955 114.50000000000023 346.6045694996611 114.50000000000023 345.49999999999955 C 114.50000000000023 344.39543050033797 115.39543050033863 343.49999999999955 116.50000000000023 343.49999999999955 C 117.6045694996618 343.49999999999955 118.50000000000023 344.39543050033797 118.50000000000023 345.49999999999955 Z" fill-opacity="1"/><path fill="none" stroke="rgb(0,0,0)" paint-order="fill stroke markers" d=" M 118.50000000000023 345.49999999999955 C 118.50000000000023 346.6045694996611 117.6045694996618 347.49999999999955 116.50000000000023 347.49999999999955 C 115.39543050033863 347.49999999999955 114.50000000000023 346.6045694996611 114.50000000000023 345.49999999999955 C 114.50000000000023 344.39543050033797 115.39543050033863 343.49999999999955 116.50000000000023 343.49999999999955 C 117.6045694996618 343.49999999999955 118.50000000000023 344.39543050033797 118.50000000000023 345.49999999999955 Z" stroke-opacity="1" stroke-linecap="round" stroke-linejoin="round" stroke-miterlimit="10"/><text fill="rgb(0,0,255)" stroke="none" font-family="geogebra-sans-serif, sans-serif" font-size="16px" font-style="normal" font-weight="normal" text-decoration="normal" x="98" y="367" text-anchor="start" dominant-baseline="alphabetic" fill-opacity="1">A</text><text fill="none" stroke="rgb(255,255,255)" font-family="geogebra-sans-serif, sans-serif" font-size="16px" font-style="normal" font-weight="normal" text-decoration="normal" x="98" y="367" text-anchor="start" dominant-baseline="alphabetic" stroke-opacity="1" stroke-linejoin="bevel" stroke-miterlimit="10" stroke-width="3">A</text><text fill="rgb(0,0,255)" stroke="none" font-family="geogebra-sans-serif, sans-serif" font-size="16px" font-style="normal" font-weight="normal" text-decoration="normal" x="98" y="367" text-anchor="start" dominant-baseline="alphabetic" fill-opacity="1">A</text><path fill="rgb(0,0,255)" stroke="none" paint-order="stroke fill markers" d=" M 318.50000000000017 345.49999999999955 C 318.50000000000017 346.6045694996611 317.60456949966175 347.49999999999955 316.50000000000017 347.49999999999955 C 315.3954305003386 347.49999999999955 314.50000000000017 346.6045694996611 314.50000000000017 345.49999999999955 C 314.50000000000017 344.39543050033797 315.3954305003386 343.49999999999955 316.50000000000017 343.49999999999955 C 317.60456949966175 343.49999999999955 318.50000000000017 344.39543050033797 318.50000000000017 345.49999999999955 Z" fill-opacity="1"/><path fill="none" stroke="rgb(0,0,0)" paint-order="fill stroke markers" d=" M 318.50000000000017 345.49999999999955 C 318.50000000000017 346.6045694996611 317.60456949966175 347.49999999999955 316.50000000000017 347.49999999999955 C 315.3954305003386 347.49999999999955 314.50000000000017 346.6045694996611 314.50000000000017 345.49999999999955 C 314.50000000000017 344.39543050033797 315.3954305003386 343.49999999999955 316.50000000000017 343.49999999999955 C 317.60456949966175 343.49999999999955 318.50000000000017 344.39543050033797 318.50000000000017 345.49999999999955 Z" stroke-opacity="1" stroke-linecap="round" stroke-linejoin="round" stroke-miterlimit="10"/><text fill="rgb(0,0,255)" stroke="none" font-family="geogebra-sans-serif, sans-serif" font-size="16px" font-style="normal" font-weight="normal" text-decoration="normal" x="330" y="367" text-anchor="start" dominant-baseline="alphabetic" fill-opacity="1">B</text><text fill="none" stroke="rgb(255,255,255)" font-family="geogebra-sans-serif, sans-serif" font-size="16px" font-style="normal" font-weight="normal" text-decoration="normal" x="330" y="367" text-anchor="start" dominant-baseline="alphabetic" stroke-opacity="1" stroke-linejoin="bevel" stroke-miterlimit="10" stroke-width="3">B</text><text fill="rgb(0,0,255)" stroke="none" font-family="geogebra-sans-serif, sans-serif" font-size="16px" font-style="normal" font-weight="normal" text-decoration="normal" x="330" y="367" text-anchor="start" dominant-baseline="alphabetic" fill-opacity="1">B</text><path fill="rgb(0,0,255)" stroke="none" paint-order="stroke fill markers" d=" M 56.696601125010744 155.288696740969 C 56.696601125010744 156.39326624063057 55.80117062467233 157.288696740969 54.696601125010744 157.288696740969 C 53.59203162534916 157.288696740969 52.696601125010744 156.39326624063057 52.696601125010744 155.288696740969 C 52.696601125010744 154.1841272413074 53.59203162534916 153.288696740969 54.696601125010744 153.288696740969 C 55.80117062467233 153.288696740969 56.696601125010744 154.1841272413074 56.696601125010744 155.288696740969 Z" fill-opacity="1"/><path fill="none" stroke="rgb(0,0,0)" paint-order="fill stroke markers" d=" M 56.696601125010744 155.288696740969 C 56.696601125010744 156.39326624063057 55.80117062467233 157.288696740969 54.696601125010744 157.288696740969 C 53.59203162534916 157.288696740969 52.696601125010744 156.39326624063057 52.696601125010744 155.288696740969 C 52.696601125010744 154.1841272413074 53.59203162534916 153.288696740969 54.696601125010744 153.288696740969 C 55.80117062467233 153.288696740969 56.696601125010744 154.1841272413074 56.696601125010744 155.288696740969 Z" stroke-opacity="1" stroke-linecap="round" stroke-linejoin="round" stroke-miterlimit="10"/><text fill="rgb(0,0,255)" stroke="none" font-family="geogebra-sans-serif, sans-serif" font-size="16px" font-style="normal" font-weight="normal" text-decoration="normal" x="24" y="162" text-anchor="start" dominant-baseline="alphabetic" fill-opacity="1">C</text><text fill="none" stroke="rgb(255,255,255)" font-family="geogebra-sans-serif, sans-serif" font-size="16px" font-style="normal" font-weight="normal" text-decoration="normal" x="24" y="162" text-anchor="start" dominant-baseline="alphabetic" stroke-opacity="1" stroke-linejoin="bevel" stroke-miterlimit="10" stroke-width="3">C</text><text fill="rgb(0,0,255)" stroke="none" font-family="geogebra-sans-serif, sans-serif" font-size="16px" font-style="normal" font-weight="normal" text-decoration="normal" x="24" y="162" text-anchor="start" dominant-baseline="alphabetic" fill-opacity="1">C</text><path fill="rgb(0,0,255)" stroke="none" paint-order="stroke fill markers" d=" M 168.50000000000017 191.615823141237 C 168.50000000000017 192.72039264089858 167.60456949966175 193.615823141237 166.50000000000017 193.615823141237 C 165.3954305003386 193.615823141237 164.50000000000017 192.72039264089858 164.50000000000017 191.615823141237 C 164.50000000000017 190.51125364157542 165.3954305003386 189.615823141237 166.50000000000017 189.615823141237 C 167.60456949966175 189.615823141237 168.50000000000017 190.51125364157542 168.50000000000017 191.615823141237 Z" fill-opacity="1"/><path fill="none" stroke="rgb(0,0,0)" paint-order="fill stroke markers" d=" M 168.50000000000017 191.615823141237 C 168.50000000000017 192.72039264089858 167.60456949966175 193.615823141237 166.50000000000017 193.615823141237 C 165.3954305003386 193.615823141237 164.50000000000017 192.72039264089858 164.50000000000017 191.615823141237 C 164.50000000000017 190.51125364157542 165.3954305003386 189.615823141237 166.50000000000017 189.615823141237 C 167.60456949966175 189.615823141237 168.50000000000017 190.51125364157542 168.50000000000017 191.615823141237 Z" stroke-opacity="1" stroke-linecap="round" stroke-linejoin="round" stroke-miterlimit="10"/><text fill="rgb(0,0,255)" stroke="none" font-family="geogebra-sans-serif, sans-serif" font-size="16px" font-style="normal" font-weight="normal" text-decoration="normal" x="144" y="170" text-anchor="start" dominant-baseline="alphabetic" fill-opacity="1">D</text><text fill="none" stroke="rgb(255,255,255)" font-family="geogebra-sans-serif, sans-serif" font-size="16px" font-style="normal" font-weight="normal" text-decoration="normal" x="144" y="170" text-anchor="start" dominant-baseline="alphabetic" stroke-opacity="1" stroke-linejoin="bevel" stroke-miterlimit="10" stroke-width="3">D</text><text fill="rgb(0,0,255)" stroke="none" font-family="geogebra-sans-serif, sans-serif" font-size="16px" font-style="normal" font-weight="normal" text-decoration="normal" x="144" y="170" text-anchor="start" dominant-baseline="alphabetic" fill-opacity="1">D</text><path fill="rgb(0,0,255)" stroke="none" paint-order="stroke fill markers" d=" M 249.40169943749493 250.39434837048427 C 249.40169943749493 251.49891787014585 248.5062689371565 252.39434837048427 247.40169943749493 252.39434837048427 C 246.29712993783335 252.39434837048427 245.40169943749493 251.49891787014585 245.40169943749493 250.39434837048427 C 245.40169943749493 249.2897788708227 246.29712993783335 248.39434837048427 247.40169943749493 248.39434837048427 C 248.5062689371565 248.39434837048427 249.40169943749493 249.2897788708227 249.40169943749493 250.39434837048427 Z" fill-opacity="1"/><path fill="none" stroke="rgb(0,0,0)" paint-order="fill stroke markers" d=" M 249.40169943749493 250.39434837048427 C 249.40169943749493 251.49891787014585 248.5062689371565 252.39434837048427 247.40169943749493 252.39434837048427 C 246.29712993783335 252.39434837048427 245.40169943749493 251.49891787014585 245.40169943749493 250.39434837048427 C 245.40169943749493 249.2897788708227 246.29712993783335 248.39434837048427 247.40169943749493 248.39434837048427 C 248.5062689371565 248.39434837048427 249.40169943749493 249.2897788708227 249.40169943749493 250.39434837048427 Z" stroke-opacity="1" stroke-linecap="round" stroke-linejoin="round" stroke-miterlimit="10"/><text fill="rgb(0,0,255)" stroke="none" font-family="geogebra-sans-serif, sans-serif" font-size="16px" font-style="normal" font-weight="normal" text-decoration="normal" x="269" y="263" text-anchor="start" dominant-baseline="alphabetic" fill-opacity="1">E</text><text fill="none" stroke="rgb(255,255,255)" font-family="geogebra-sans-serif, sans-serif" font-size="16px" font-style="normal" font-weight="normal" text-decoration="normal" x="269" y="263" text-anchor="start" dominant-baseline="alphabetic" stroke-opacity="1" stroke-linejoin="bevel" stroke-miterlimit="10" stroke-width="3">E</text><text fill="rgb(0,0,255)" stroke="none" font-family="geogebra-sans-serif, sans-serif" font-size="16px" font-style="normal" font-weight="normal" text-decoration="normal" x="269" y="263" text-anchor="start" dominant-baseline="alphabetic" fill-opacity="1">E</text><path fill="rgb(0,0,255)" stroke="none" paint-order="stroke fill markers" d=" M 380.3033988749896 155.28869674096904 C 380.3033988749896 156.39326624063062 379.4079683746512 157.28869674096904 378.3033988749896 157.28869674096904 C 377.19882937532805 157.28869674096904 376.3033988749896 156.39326624063062 376.3033988749896 155.28869674096904 C 376.3033988749896 154.18412724130746 377.19882937532805 153.28869674096904 378.3033988749896 153.28869674096904 C 379.4079683746512 153.28869674096904 380.3033988749896 154.18412724130746 380.3033988749896 155.28869674096904 Z" fill-opacity="1"/><path fill="none" stroke="rgb(0,0,0)" paint-order="fill stroke markers" d=" M 380.3033988749896 155.28869674096904 C 380.3033988749896 156.39326624063062 379.4079683746512 157.28869674096904 378.3033988749896 157.28869674096904 C 377.19882937532805 157.28869674096904 376.3033988749896 156.39326624063062 376.3033988749896 155.28869674096904 C 376.3033988749896 154.18412724130746 377.19882937532805 153.28869674096904 378.3033988749896 153.28869674096904 C 379.4079683746512 153.28869674096904 380.3033988749896 154.18412724130746 380.3033988749896 155.28869674096904 Z" stroke-opacity="1" stroke-linecap="round" stroke-linejoin="round" stroke-miterlimit="10"/><text fill="rgb(0,0,255)" stroke="none" font-family="geogebra-sans-serif, sans-serif" font-size="16px" font-style="normal" font-weight="normal" text-decoration="normal" x="393" y="158" text-anchor="start" dominant-baseline="alphabetic" fill-opacity="1">B'</text><text fill="none" stroke="rgb(255,255,255)" font-family="geogebra-sans-serif, sans-serif" font-size="16px" font-style="normal" font-weight="normal" text-decoration="normal" x="393" y="158" text-anchor="start" dominant-baseline="alphabetic" stroke-opacity="1" stroke-linejoin="bevel" stroke-miterlimit="10" stroke-width="3">B'</text><text fill="rgb(0,0,255)" stroke="none" font-family="geogebra-sans-serif, sans-serif" font-size="16px" font-style="normal" font-weight="normal" text-decoration="normal" x="393" y="158" text-anchor="start" dominant-baseline="alphabetic" fill-opacity="1">B'</text><path fill="rgb(0,0,255)" stroke="none" paint-order="stroke fill markers" d=" M 218.50000000000017 37.73164628247443 C 218.50000000000017 38.836215782136016 217.60456949966175 39.73164628247443 216.50000000000017 39.73164628247443 C 215.3954305003386 39.73164628247443 214.50000000000017 38.836215782136016 214.50000000000017 37.73164628247443 C 214.50000000000017 36.62707678281284 215.3954305003386 35.73164628247443 216.50000000000017 35.73164628247443 C 217.60456949966175 35.73164628247443 218.50000000000017 36.62707678281284 218.50000000000017 37.73164628247443 Z" fill-opacity="1"/><path fill="none" stroke="rgb(0,0,0)" paint-order="fill stroke markers" d=" M 218.50000000000017 37.73164628247443 C 218.50000000000017 38.836215782136016 217.60456949966175 39.73164628247443 216.50000000000017 39.73164628247443 C 215.3954305003386 39.73164628247443 214.50000000000017 38.836215782136016 214.50000000000017 37.73164628247443 C 214.50000000000017 36.62707678281284 215.3954305003386 35.73164628247443 216.50000000000017 35.73164628247443 C 217.60456949966175 35.73164628247443 218.50000000000017 36.62707678281284 218.50000000000017 37.73164628247443 Z" stroke-opacity="1" stroke-linecap="round" stroke-linejoin="round" stroke-miterlimit="10"/><text fill="rgb(0,0,255)" stroke="none" font-family="geogebra-sans-serif, sans-serif" font-size="16px" font-style="normal" font-weight="normal" text-decoration="normal" x="207" y="24" text-anchor="start" dominant-baseline="alphabetic" fill-opacity="1">C'</text><text fill="none" stroke="rgb(255,255,255)" font-family="geogebra-sans-serif, sans-serif" font-size="16px" font-style="normal" font-weight="normal" text-decoration="normal" x="207" y="24" text-anchor="start" dominant-baseline="alphabetic" stroke-opacity="1" stroke-linejoin="bevel" stroke-miterlimit="10" stroke-width="3">C'</text><text fill="rgb(0,0,255)" stroke="none" font-family="geogebra-sans-serif, sans-serif" font-size="16px" font-style="normal" font-weight="normal" text-decoration="normal" x="207" y="24" text-anchor="start" dominant-baseline="alphabetic" fill-opacity="1">C'</text></g></g></svg>