<svg version="1.1" xmlns="http://www.w3.org/2000/svg" xmlns:xlink="http://www.w3.org/1999/xlink" width="219" height="322"><defs><clipPath id="GySTeLRWfJMM"><path fill="none" stroke="none" d=" M 0 0 L 219 0 L 219 322 L 0 322 L 0 0 Z"/></clipPath></defs><g transform="scale(1,1)" clip-path="url(#GySTeLRWfJMM)"><g><rect fill="rgb(255,255,255)" stroke="none" x="0" y="0" width="219" height="322" fill-opacity="1"/><path fill="rgb(255,0,0)" stroke="none" paint-order="stroke fill markers" fill-rule="evenodd" d=" M 108.07486857819681 157.55606189226353 L 94.11715926356578 159.8325395855949 L 96.39363695689637 173.790248900227 L 110.35134627152819 171.51377120689455 L 108.07486857819681 157.55606189226353" fill-opacity="0.09803921568627451"/><path fill="none" stroke="rgb(255,0,0)" paint-order="fill stroke markers" d=" M 108.07486857819681 157.55606189226353 L 94.11715926356578 159.8325395855949 L 96.39363695689637 173.790248900227 L 110.35134627152819 171.51377120689455 L 108.07486857819681 157.55606189226353" stroke-opacity="0.6980392156862745" stroke-linecap="round" stroke-linejoin="round" stroke-miterlimit="10" stroke-width="0.5"/><path fill="rgb(255,0,255)" stroke="none" paint-order="stroke fill markers" d=" M 41.999999999999886 75.075414074261 C 46.622649023379594 75.075414074261 51.15478107192184 73.79373752931434 55.092794994337666 71.37280168955888 L 41.999999999999886 50.07541407426103 Z" fill-opacity="0.09803921568627451"/><path fill="none" stroke="rgb(255,0,255)" paint-order="fill stroke markers" d=" M 41.999999999999886 75.075414074261 C 46.622649023379594 75.075414074261 51.15478107192184 73.79373752931434 55.092794994337666 71.37280168955888 L 41.999999999999886 50.07541407426103 Z" stroke-opacity="0.6980392156862745" stroke-linecap="round" stroke-linejoin="round" stroke-miterlimit="10"/><path fill="none" stroke="rgb(255,0,255)" paint-order="fill stroke markers" d=" M 41.999999999999886 70.075414074261 C 45.69811921870365 70.075414074261 49.323824857537446 69.05007283830366 52.47423599547011 67.11332416649932" stroke-opacity="0.6980392156862745" stroke-linecap="round" stroke-linejoin="round" stroke-miterlimit="10"/><path fill="rgb(255,127,0)" stroke="none" paint-order="stroke fill markers" d=" M 54.56908319456416 70.52090618494697 C 61.592036033987775 66.2034714158381 65.90756407549976 58.58367415174723 65.9985386061839 50.340262648913864 L 41.999999999999886 50.07541407426103 Z" fill-opacity="0.09803921568627451"/><path fill="none" stroke="rgb(255,127,0)" paint-order="fill stroke markers" d=" M 54.56908319456416 70.52090618494697 C 61.592036033987775 66.2034714158381 65.90756407549976 58.58367415174723 65.9985386061839 50.340262648913864 L 41.999999999999886 50.07541407426103 Z" stroke-opacity="0.6980392156862745" stroke-linecap="round" stroke-linejoin="round" stroke-miterlimit="10"/><path fill="none" stroke="rgb(255,127,0)" paint-order="fill stroke markers" d=" M 60.272889920382404 60.42439923985012 L 65.49371561192027 63.381252144304135" stroke-opacity="0.6980392156862745" stroke-linecap="round" stroke-linejoin="round" stroke-miterlimit="10"/><path fill="rgb(255,127,0)" stroke="none" paint-order="stroke fill markers" d=" M 161.2507059731412 244.0545078893142 C 154.14749500536925 248.4212821943359 149.8197891677055 256.16187527775753 149.8197891677055 264.50000000000017 L 173.81978916770547 264.50000000000017 Z" fill-opacity="0.09803921568627451"/><path fill="none" stroke="rgb(255,127,0)" paint-order="fill stroke markers" d=" M 161.2507059731412 244.0545078893142 C 154.14749500536925 248.4212821943359 149.8197891677055 256.16187527775753 149.8197891677055 264.50000000000017 L 173.81978916770547 264.50000000000017 Z" stroke-opacity="0.6980392156862745" stroke-linecap="round" stroke-linejoin="round" stroke-miterlimit="10"/><path fill="none" stroke="rgb(255,127,0)" paint-order="fill stroke markers" d=" M 155.49007417128342 254.25199784592445 L 150.25301274373427 251.32399723047425" stroke-opacity="0.6980392156862745" stroke-linecap="round" stroke-linejoin="round" stroke-miterlimit="10"/><path fill="none" stroke="rgb(255,85,0)" paint-order="fill stroke markers" d=" M 41.999999999999886 50.07541407426103 L 41.999999999999886 168.33275604868885" stroke-opacity="0.6980392156862745" stroke-linecap="round" stroke-linejoin="round" stroke-miterlimit="10"/><g transform="scale(19,19)"><g transform="translate(0.9473684210526315,11.95978947368421)"><path fill="rgb(0,100,0)" stroke="none" paint-order="stroke fill markers" d=" M 0.028 -0.165 L 0.028 -0.196 L 0.335 -0.665 Q 0.343 -0.677 0.355 -0.677 Q 0.369 -0.677 0.371 -0.666 L 0.371 -0.651 L 0.371 -0.196 L 0.47100000000000003 -0.196 L 0.47100000000000003 -0.165 L 0.371 -0.165 L 0.371 -0.078 Q 0.371 -0.047 0.383 -0.04 Q 0.397 -0.031 0.447 -0.031 L 0.468 -0.031 L 0.468 0 Q 0.427 -0.003 0.332 -0.003 Q 0.23800000000000002 -0.003 0.197 0 L 0.197 -0.031 L 0.218 -0.031 Q 0.28 -0.031 0.29 -0.048 Q 0.294 -0.055 0.294 -0.078 L 0.294 -0.165 L 0.028 -0.165 M 0.3 -0.196 L 0.3 -0.5690000000000001 L 0.056 -0.196 L 0.3 -0.196 Z"/></g></g><path fill="none" stroke="rgb(0,100,0)" paint-order="fill stroke markers" d=" M 41.999999999999886 168.33275604868885 L 41.999999999999886 264.50000000000017" stroke-opacity="0.6980392156862745" stroke-linecap="round" stroke-linejoin="round" stroke-miterlimit="10" stroke-width="0.5"/><g transform="scale(19,19)"><g transform="translate(4.157894736842105,15.012421052631579)"><path fill="rgb(0,100,0)" stroke="none" paint-order="stroke fill markers" d=" M 0.29 -0.352 L 0.29 -0.352 Q 0.39 -0.332 0.434 -0.254 Q 0.457 -0.215 0.457 -0.171 Q 0.457 -0.08600000000000001 0.387 -0.028 Q 0.326 0.022 0.244 0.022 Q 0.145 0.022 0.085 -0.037 Q 0.042 -0.079 0.042 -0.135 Q 0.042 -0.182 0.084 -0.191 Q 0.091 -0.193 0.098 -0.193 Q 0.136 -0.193 0.149 -0.161 Q 0.153 -0.148 0.154 -0.137 Q 0.154 -0.097 0.11800000000000001 -0.085 Q 0.10400000000000001 -0.08 0.088 -0.082 Q 0.125 -0.02 0.216 -0.008 Q 0.229 -0.006 0.241 -0.006 Q 0.305 -0.006 0.335 -0.069 Q 0.354 -0.109 0.354 -0.171 Q 0.354 -0.304 0.274 -0.331 Q 0.256 -0.337 0.23500000000000001 -0.337 L 0.191 -0.337 Q 0.169 -0.337 0.167 -0.34800000000000003 Q 0.167 -0.358 0.182 -0.36 Q 0.197 -0.36 0.221 -0.363 Q 0.272 -0.365 0.301 -0.402 L 0.301 -0.403 L 0.302 -0.404 L 0.303 -0.405 L 0.304 -0.405 L 0.31 -0.41500000000000004 Q 0.338 -0.462 0.338 -0.529 Q 0.338 -0.622 0.266 -0.638 Q 0.254 -0.641 0.242 -0.641 Q 0.17200000000000001 -0.641 0.128 -0.601 Q 0.117 -0.591 0.109 -0.579 Q 0.171 -0.579 0.171 -0.529 Q 0.171 -0.493 0.14 -0.481 Q 0.131 -0.47800000000000004 0.12 -0.47800000000000004 Q 0.081 -0.47800000000000004 0.07100000000000001 -0.513 L 0.07100000000000001 -0.513 L 0.07100000000000001 -0.514 Q 0.069 -0.522 0.069 -0.53 Q 0.069 -0.597 0.135 -0.637 Q 0.183 -0.666 0.246 -0.666 Q 0.337 -0.666 0.393 -0.612 L 0.395 -0.61 Q 0.43 -0.5740000000000001 0.43 -0.528 Q 0.43 -0.445 0.359 -0.389 Q 0.328 -0.365 0.29 -0.352 Z"/></g></g><path fill="none" stroke="rgb(0,100,0)" paint-order="fill stroke markers" d=" M 41.999999999999886 264.50000000000017 L 125.51723566375243 264.50000000000017" stroke-opacity="0.6980392156862745" stroke-linecap="round" stroke-linejoin="round" stroke-miterlimit="10" stroke-width="0.5"/><path fill="none" stroke="rgb(255,85,0)" paint-order="fill stroke markers" d=" M 125.51723566375243 264.50000000000017 L 173.81978916770547 264.50000000000017" stroke-opacity="0.6980392156862745" stroke-linecap="round" stroke-linejoin="round" stroke-miterlimit="10"/><path fill="none" stroke="rgb(0,100,0)" paint-order="fill stroke markers" d=" M 137.53974685450348 213.12287814522588 L 144.35491089139882 208.93318374703782" stroke-opacity="0.6980392156862745" stroke-linecap="round" stroke-linejoin="round" stroke-miterlimit="10" stroke-width="0.5"/><path fill="none" stroke="rgb(0,100,0)" paint-order="fill stroke markers" d=" M 173.81978916770547 264.50000000000017 L 108.07486857819681 157.55606189226353" stroke-opacity="0.6980392156862745" stroke-linecap="round" stroke-linejoin="round" stroke-miterlimit="10" stroke-width="0.5"/><path fill="none" stroke="rgb(0,100,0)" paint-order="fill stroke markers" d=" M 71.62985227065069 105.91058518235633 L 78.445016307546 101.72089078416823" stroke-opacity="0.6980392156862745" stroke-linecap="round" stroke-linejoin="round" stroke-miterlimit="10" stroke-width="0.5"/><path fill="none" stroke="rgb(0,100,0)" paint-order="fill stroke markers" d=" M 108.07486857819681 157.55606189226353 L 41.999999999999886 50.07541407426103" stroke-opacity="0.6980392156862745" stroke-linecap="round" stroke-linejoin="round" stroke-miterlimit="10" stroke-width="0.5"/><path fill="none" stroke="rgb(244,0,153)" paint-order="fill stroke markers" d=" M 112.63643595566207 213.47958012109663 L 121.51906777124829 212.0308385883395" stroke-opacity="0.6980392156862745" stroke-linecap="round" stroke-linejoin="round" stroke-miterlimit="10"/><path fill="none" stroke="rgb(244,0,153)" paint-order="fill stroke markers" d=" M 112.07303647070096 210.0252233039242 L 120.95566828628718 208.57648177116707" stroke-opacity="0.6980392156862745" stroke-linecap="round" stroke-linejoin="round" stroke-miterlimit="10"/><path fill="none" stroke="rgb(244,0,153)" paint-order="fill stroke markers" d=" M 125.51723566375243 264.50000000000017 L 108.07486857819681 157.55606189226353" stroke-opacity="0.6980392156862745" stroke-linecap="round" stroke-linejoin="round" stroke-miterlimit="10"/><path fill="none" stroke="rgb(0,100,0)" paint-order="fill stroke markers" d=" M 108.07486857819681 157.55606189226353 L 41.999999999999886 168.33275604868885" stroke-opacity="0.6980392156862745" stroke-linecap="round" stroke-linejoin="round" stroke-miterlimit="10" stroke-width="0.5"/><path fill="none" stroke="rgb(244,0,153)" paint-order="fill stroke markers" d=" M 95.19406887010645 106.53564201336002 L 104.07670068569267 105.08690048060285" stroke-opacity="0.6980392156862745" stroke-linecap="round" stroke-linejoin="round" stroke-miterlimit="10"/><path fill="none" stroke="rgb(244,0,153)" paint-order="fill stroke markers" d=" M 94.63066938514534 103.0812851961876 L 103.51330120073156 101.63254366343043" stroke-opacity="0.6980392156862745" stroke-linecap="round" stroke-linejoin="round" stroke-miterlimit="10"/><path fill="none" stroke="rgb(244,0,153)" paint-order="fill stroke markers" d=" M 108.07486857819681 157.55606189226353 L 90.6325014926412 50.612123784526915" stroke-opacity="0.6980392156862745" stroke-linecap="round" stroke-linejoin="round" stroke-miterlimit="10"/><path fill="none" stroke="rgb(153,51,255)" paint-order="fill stroke markers" d=" M 60.820817344521686 110.98908480793656 L 69.13895170912807 114.42545508663972" stroke-opacity="0.6980392156862745" stroke-linecap="round" stroke-linejoin="round" stroke-miterlimit="10"/><path fill="none" stroke="rgb(153,51,255)" paint-order="fill stroke markers" d=" M 62.15718356401736 107.7542547772563 L 70.47531792862374 111.19062505595946" stroke-opacity="0.6980392156862745" stroke-linecap="round" stroke-linejoin="round" stroke-miterlimit="10"/><path fill="none" stroke="rgb(153,51,255)" paint-order="fill stroke markers" d=" M 63.49354978351303 104.51942474657605 L 71.81168414811941 107.9557950252792" stroke-opacity="0.6980392156862745" stroke-linecap="round" stroke-linejoin="round" stroke-miterlimit="10"/><path fill="none" stroke="rgb(153,51,255)" paint-order="fill stroke markers" d=" M 41.999999999999886 168.33275604868885 L 90.6325014926412 50.612123784526915" stroke-opacity="0.6980392156862745" stroke-linecap="round" stroke-linejoin="round" stroke-miterlimit="10"/><path fill="none" stroke="rgb(153,51,255)" paint-order="fill stroke markers" d=" M 84.86124499101905 210.823148782849 L 78.06607203556072 216.724472744928" stroke-opacity="0.6980392156862745" stroke-linecap="round" stroke-linejoin="round" stroke-miterlimit="10"/><path fill="none" stroke="rgb(153,51,255)" paint-order="fill stroke markers" d=" M 87.15620430960533 213.465716043305 L 80.361031354147 219.367040005384" stroke-opacity="0.6980392156862745" stroke-linecap="round" stroke-linejoin="round" stroke-miterlimit="10"/><path fill="none" stroke="rgb(153,51,255)" paint-order="fill stroke markers" d=" M 89.45116362819161 216.10828330376103 L 82.65599067273328 222.00960726584003" stroke-opacity="0.6980392156862745" stroke-linecap="round" stroke-linejoin="round" stroke-miterlimit="10"/><path fill="none" stroke="rgb(153,51,255)" paint-order="fill stroke markers" d=" M 41.999999999999886 168.33275604868885 L 125.51723566375243 264.50000000000017" stroke-opacity="0.6980392156862745" stroke-linecap="round" stroke-linejoin="round" stroke-miterlimit="10"/><path fill="none" stroke="rgb(0,100,0)" paint-order="fill stroke markers" d=" M 41.999999999999886 50.07541407426103 L 90.6325014926412 50.612123784526915" stroke-opacity="0.6980392156862745" stroke-linecap="round" stroke-linejoin="round" stroke-miterlimit="10" stroke-width="0.5"/><path fill="rgb(0,0,255)" stroke="none" paint-order="stroke fill markers" d=" M 127.51723566375243 264.50000000000017 C 127.51723566375243 265.60456949966175 126.62180516341402 266.50000000000017 125.51723566375243 266.50000000000017 C 124.41266616409084 266.50000000000017 123.51723566375243 265.60456949966175 123.51723566375243 264.50000000000017 C 123.51723566375243 263.3954305003386 124.41266616409084 262.50000000000017 125.51723566375243 262.50000000000017 C 126.62180516341402 262.50000000000017 127.51723566375243 263.3954305003386 127.51723566375243 264.50000000000017 Z" fill-opacity="1"/><path fill="none" stroke="rgb(0,0,0)" paint-order="fill stroke markers" d=" M 127.51723566375243 264.50000000000017 C 127.51723566375243 265.60456949966175 126.62180516341402 266.50000000000017 125.51723566375243 266.50000000000017 C 124.41266616409084 266.50000000000017 123.51723566375243 265.60456949966175 123.51723566375243 264.50000000000017 C 123.51723566375243 263.3954305003386 124.41266616409084 262.50000000000017 125.51723566375243 262.50000000000017 C 126.62180516341402 262.50000000000017 127.51723566375243 263.3954305003386 127.51723566375243 264.50000000000017 Z" stroke-opacity="1" stroke-linecap="round" stroke-linejoin="round" stroke-miterlimit="10"/><text fill="rgb(0,0,255)" stroke="none" font-family="geogebra-sans-serif, sans-serif" font-size="16px" font-style="normal" font-weight="normal" text-decoration="normal" x="117" y="291" text-anchor="start" dominant-baseline="alphabetic" fill-opacity="1">N</text><text fill="none" stroke="rgb(255,255,255)" font-family="geogebra-sans-serif, sans-serif" font-size="16px" font-style="normal" font-weight="normal" text-decoration="normal" x="117" y="291" text-anchor="start" dominant-baseline="alphabetic" stroke-opacity="1" stroke-linejoin="bevel" stroke-miterlimit="10" stroke-width="3">N</text><text fill="rgb(0,0,255)" stroke="none" font-family="geogebra-sans-serif, sans-serif" font-size="16px" font-style="normal" font-weight="normal" text-decoration="normal" x="117" y="291" text-anchor="start" dominant-baseline="alphabetic" fill-opacity="1">N</text><path fill="rgb(0,0,255)" stroke="none" paint-order="stroke fill markers" d=" M 43.999999999999886 168.33275604868885 C 43.999999999999886 169.43732554835043 43.10456949966147 170.33275604868885 41.999999999999886 170.33275604868885 C 40.8954305003383 170.33275604868885 39.999999999999886 169.43732554835043 39.999999999999886 168.33275604868885 C 39.999999999999886 167.22818654902727 40.8954305003383 166.33275604868885 41.999999999999886 166.33275604868885 C 43.10456949966147 166.33275604868885 43.999999999999886 167.22818654902727 43.999999999999886 168.33275604868885 Z" fill-opacity="1"/><path fill="none" stroke="rgb(0,0,0)" paint-order="fill stroke markers" d=" M 43.999999999999886 168.33275604868885 C 43.999999999999886 169.43732554835043 43.10456949966147 170.33275604868885 41.999999999999886 170.33275604868885 C 40.8954305003383 170.33275604868885 39.999999999999886 169.43732554835043 39.999999999999886 168.33275604868885 C 39.999999999999886 167.22818654902727 40.8954305003383 166.33275604868885 41.999999999999886 166.33275604868885 C 43.10456949966147 166.33275604868885 43.999999999999886 167.22818654902727 43.999999999999886 168.33275604868885 Z" stroke-opacity="1" stroke-linecap="round" stroke-linejoin="round" stroke-miterlimit="10"/><text fill="rgb(0,0,255)" stroke="none" font-family="geogebra-sans-serif, sans-serif" font-size="16px" font-style="normal" font-weight="normal" text-decoration="normal" x="12" y="178" text-anchor="start" dominant-baseline="alphabetic" fill-opacity="1">M</text><text fill="none" stroke="rgb(255,255,255)" font-family="geogebra-sans-serif, sans-serif" font-size="16px" font-style="normal" font-weight="normal" text-decoration="normal" x="12" y="178" text-anchor="start" dominant-baseline="alphabetic" stroke-opacity="1" stroke-linejoin="bevel" stroke-miterlimit="10" stroke-width="3">M</text><text fill="rgb(0,0,255)" stroke="none" font-family="geogebra-sans-serif, sans-serif" font-size="16px" font-style="normal" font-weight="normal" text-decoration="normal" x="12" y="178" text-anchor="start" dominant-baseline="alphabetic" fill-opacity="1">M</text><path fill="rgb(0,0,255)" stroke="none" paint-order="stroke fill markers" d=" M 43.999999999999886 264.50000000000017 C 43.999999999999886 265.60456949966175 43.10456949966147 266.50000000000017 41.999999999999886 266.50000000000017 C 40.8954305003383 266.50000000000017 39.999999999999886 265.60456949966175 39.999999999999886 264.50000000000017 C 39.999999999999886 263.3954305003386 40.8954305003383 262.50000000000017 41.999999999999886 262.50000000000017 C 43.10456949966147 262.50000000000017 43.999999999999886 263.3954305003386 43.999999999999886 264.50000000000017 Z" fill-opacity="1"/><path fill="none" stroke="rgb(0,0,0)" paint-order="fill stroke markers" d=" M 43.999999999999886 264.50000000000017 C 43.999999999999886 265.60456949966175 43.10456949966147 266.50000000000017 41.999999999999886 266.50000000000017 C 40.8954305003383 266.50000000000017 39.999999999999886 265.60456949966175 39.999999999999886 264.50000000000017 C 39.999999999999886 263.3954305003386 40.8954305003383 262.50000000000017 41.999999999999886 262.50000000000017 C 43.10456949966147 262.50000000000017 43.999999999999886 263.3954305003386 43.999999999999886 264.50000000000017 Z" stroke-opacity="1" stroke-linecap="round" stroke-linejoin="round" stroke-miterlimit="10"/><text fill="rgb(0,0,255)" stroke="none" font-family="geogebra-sans-serif, sans-serif" font-size="16px" font-style="normal" font-weight="normal" text-decoration="normal" x="27" y="292" text-anchor="start" dominant-baseline="alphabetic" fill-opacity="1">B</text><text fill="none" stroke="rgb(255,255,255)" font-family="geogebra-sans-serif, sans-serif" font-size="16px" font-style="normal" font-weight="normal" text-decoration="normal" x="27" y="292" text-anchor="start" dominant-baseline="alphabetic" stroke-opacity="1" stroke-linejoin="bevel" stroke-miterlimit="10" stroke-width="3">B</text><text fill="rgb(0,0,255)" stroke="none" font-family="geogebra-sans-serif, sans-serif" font-size="16px" font-style="normal" font-weight="normal" text-decoration="normal" x="27" y="292" text-anchor="start" dominant-baseline="alphabetic" fill-opacity="1">B</text><path fill="rgb(0,0,255)" stroke="none" paint-order="stroke fill markers" d=" M 110.07486857819681 157.55606189226353 C 110.07486857819681 158.6606313919251 109.1794380778584 159.55606189226353 108.07486857819681 159.55606189226353 C 106.97029907853522 159.55606189226353 106.07486857819681 158.6606313919251 106.07486857819681 157.55606189226353 C 106.07486857819681 156.45149239260195 106.97029907853522 155.55606189226353 108.07486857819681 155.55606189226353 C 109.1794380778584 155.55606189226353 110.07486857819681 156.45149239260195 110.07486857819681 157.55606189226353 Z" fill-opacity="1"/><path fill="none" stroke="rgb(0,0,0)" paint-order="fill stroke markers" d=" M 110.07486857819681 157.55606189226353 C 110.07486857819681 158.6606313919251 109.1794380778584 159.55606189226353 108.07486857819681 159.55606189226353 C 106.97029907853522 159.55606189226353 106.07486857819681 158.6606313919251 106.07486857819681 157.55606189226353 C 106.07486857819681 156.45149239260195 106.97029907853522 155.55606189226353 108.07486857819681 155.55606189226353 C 109.1794380778584 155.55606189226353 110.07486857819681 156.45149239260195 110.07486857819681 157.55606189226353 Z" stroke-opacity="1" stroke-linecap="round" stroke-linejoin="round" stroke-miterlimit="10"/><text fill="rgb(0,0,255)" stroke="none" font-family="geogebra-sans-serif, sans-serif" font-size="16px" font-style="normal" font-weight="normal" text-decoration="normal" x="112" y="154" text-anchor="start" dominant-baseline="alphabetic" fill-opacity="1">O</text><text fill="none" stroke="rgb(255,255,255)" font-family="geogebra-sans-serif, sans-serif" font-size="16px" font-style="normal" font-weight="normal" text-decoration="normal" x="112" y="154" text-anchor="start" dominant-baseline="alphabetic" stroke-opacity="1" stroke-linejoin="bevel" stroke-miterlimit="10" stroke-width="3">O</text><text fill="rgb(0,0,255)" stroke="none" font-family="geogebra-sans-serif, sans-serif" font-size="16px" font-style="normal" font-weight="normal" text-decoration="normal" x="112" y="154" text-anchor="start" dominant-baseline="alphabetic" fill-opacity="1">O</text><path fill="rgb(0,0,255)" stroke="none" paint-order="stroke fill markers" d=" M 175.81978916770547 264.50000000000017 C 175.81978916770547 265.60456949966175 174.92435866736704 266.50000000000017 173.81978916770547 266.50000000000017 C 172.7152196680439 266.50000000000017 171.81978916770547 265.60456949966175 171.81978916770547 264.50000000000017 C 171.81978916770547 263.3954305003386 172.7152196680439 262.50000000000017 173.81978916770547 262.50000000000017 C 174.92435866736704 262.50000000000017 175.81978916770547 263.3954305003386 175.81978916770547 264.50000000000017 Z" fill-opacity="1"/><path fill="none" stroke="rgb(0,0,0)" paint-order="fill stroke markers" d=" M 175.81978916770547 264.50000000000017 C 175.81978916770547 265.60456949966175 174.92435866736704 266.50000000000017 173.81978916770547 266.50000000000017 C 172.7152196680439 266.50000000000017 171.81978916770547 265.60456949966175 171.81978916770547 264.50000000000017 C 171.81978916770547 263.3954305003386 172.7152196680439 262.50000000000017 173.81978916770547 262.50000000000017 C 174.92435866736704 262.50000000000017 175.81978916770547 263.3954305003386 175.81978916770547 264.50000000000017 Z" stroke-opacity="1" stroke-linecap="round" stroke-linejoin="round" stroke-miterlimit="10"/><text fill="rgb(0,0,255)" stroke="none" font-family="geogebra-sans-serif, sans-serif" font-size="16px" font-style="normal" font-weight="normal" text-decoration="normal" x="171" y="293" text-anchor="start" dominant-baseline="alphabetic" fill-opacity="1">A</text><text fill="none" stroke="rgb(255,255,255)" font-family="geogebra-sans-serif, sans-serif" font-size="16px" font-style="normal" font-weight="normal" text-decoration="normal" x="171" y="293" text-anchor="start" dominant-baseline="alphabetic" stroke-opacity="1" stroke-linejoin="bevel" stroke-miterlimit="10" stroke-width="3">A</text><text fill="rgb(0,0,255)" stroke="none" font-family="geogebra-sans-serif, sans-serif" font-size="16px" font-style="normal" font-weight="normal" text-decoration="normal" x="171" y="293" text-anchor="start" dominant-baseline="alphabetic" fill-opacity="1">A</text><path fill="rgb(0,0,255)" stroke="none" paint-order="stroke fill markers" d=" M 43.999999999999886 50.07541407426103 C 43.999999999999886 51.17998357392262 43.10456949966147 52.07541407426103 41.999999999999886 52.07541407426103 C 40.8954305003383 52.07541407426103 39.999999999999886 51.17998357392262 39.999999999999886 50.07541407426103 C 39.999999999999886 48.97084457459945 40.8954305003383 48.07541407426103 41.999999999999886 48.07541407426103 C 43.10456949966147 48.07541407426103 43.999999999999886 48.97084457459945 43.999999999999886 50.07541407426103 Z" fill-opacity="1"/><path fill="none" stroke="rgb(0,0,0)" paint-order="fill stroke markers" d=" M 43.999999999999886 50.07541407426103 C 43.999999999999886 51.17998357392262 43.10456949966147 52.07541407426103 41.999999999999886 52.07541407426103 C 40.8954305003383 52.07541407426103 39.999999999999886 51.17998357392262 39.999999999999886 50.07541407426103 C 39.999999999999886 48.97084457459945 40.8954305003383 48.07541407426103 41.999999999999886 48.07541407426103 C 43.10456949966147 48.07541407426103 43.999999999999886 48.97084457459945 43.999999999999886 50.07541407426103 Z" stroke-opacity="1" stroke-linecap="round" stroke-linejoin="round" stroke-miterlimit="10"/><text fill="rgb(0,0,255)" stroke="none" font-family="geogebra-sans-serif, sans-serif" font-size="16px" font-style="normal" font-weight="normal" text-decoration="normal" x="28" y="33" text-anchor="start" dominant-baseline="alphabetic" fill-opacity="1">C</text><text fill="none" stroke="rgb(255,255,255)" font-family="geogebra-sans-serif, sans-serif" font-size="16px" font-style="normal" font-weight="normal" text-decoration="normal" x="28" y="33" text-anchor="start" dominant-baseline="alphabetic" stroke-opacity="1" stroke-linejoin="bevel" stroke-miterlimit="10" stroke-width="3">C</text><text fill="rgb(0,0,255)" stroke="none" font-family="geogebra-sans-serif, sans-serif" font-size="16px" font-style="normal" font-weight="normal" text-decoration="normal" x="28" y="33" text-anchor="start" dominant-baseline="alphabetic" fill-opacity="1">C</text><path fill="rgb(0,0,255)" stroke="none" paint-order="stroke fill markers" d=" M 92.6325014926412 50.612123784526915 C 92.6325014926412 51.7166932841885 91.73707099230279 52.612123784526915 90.6325014926412 52.612123784526915 C 89.5279319929796 52.612123784526915 88.6325014926412 51.7166932841885 88.6325014926412 50.612123784526915 C 88.6325014926412 49.50755428486533 89.5279319929796 48.612123784526915 90.6325014926412 48.612123784526915 C 91.73707099230279 48.612123784526915 92.6325014926412 49.50755428486533 92.6325014926412 50.612123784526915 Z" fill-opacity="1"/><path fill="none" stroke="rgb(0,0,0)" paint-order="fill stroke markers" d=" M 92.6325014926412 50.612123784526915 C 92.6325014926412 51.7166932841885 91.73707099230279 52.612123784526915 90.6325014926412 52.612123784526915 C 89.5279319929796 52.612123784526915 88.6325014926412 51.7166932841885 88.6325014926412 50.612123784526915 C 88.6325014926412 49.50755428486533 89.5279319929796 48.612123784526915 90.6325014926412 48.612123784526915 C 91.73707099230279 48.612123784526915 92.6325014926412 49.50755428486533 92.6325014926412 50.612123784526915 Z" stroke-opacity="1" stroke-linecap="round" stroke-linejoin="round" stroke-miterlimit="10"/><text fill="rgb(0,0,255)" stroke="none" font-family="geogebra-sans-serif, sans-serif" font-size="16px" font-style="normal" font-weight="normal" text-decoration="normal" x="98" y="41" text-anchor="start" dominant-baseline="alphabetic" fill-opacity="1">N'</text><text fill="none" stroke="rgb(255,255,255)" font-family="geogebra-sans-serif, sans-serif" font-size="16px" font-style="normal" font-weight="normal" text-decoration="normal" x="98" y="41" text-anchor="start" dominant-baseline="alphabetic" stroke-opacity="1" stroke-linejoin="bevel" stroke-miterlimit="10" stroke-width="3">N'</text><text fill="rgb(0,0,255)" stroke="none" font-family="geogebra-sans-serif, sans-serif" font-size="16px" font-style="normal" font-weight="normal" text-decoration="normal" x="98" y="41" text-anchor="start" dominant-baseline="alphabetic" fill-opacity="1">N'</text></g></g></svg>