<svg version="1.1" xmlns="http://www.w3.org/2000/svg" xmlns:xlink="http://www.w3.org/1999/xlink" width="221" height="313"><defs><clipPath id="DFnznwKakgaG"><path fill="none" stroke="none" d=" M 0 0 L 221 0 L 221 313 L 0 313 L 0 0 Z"/></clipPath></defs><g transform="scale(1,1)" clip-path="url(#DFnznwKakgaG)"><g><rect fill="rgb(255,255,255)" stroke="none" x="0" y="0" width="221" height="313" fill-opacity="1"/><path fill="rgb(255,0,0)" stroke="none" paint-order="stroke fill markers" fill-rule="evenodd" d=" M 108.07486857819681 157.5560618922635 L 94.11715926356578 159.83253958559487 L 96.39363695689637 173.79024890022697 L 110.35134627152819 171.51377120689452 L 108.07486857819681 157.5560618922635" fill-opacity="0.09803921568627451"/><path fill="none" stroke="rgb(255,0,0)" paint-order="fill stroke markers" d=" M 108.07486857819681 157.5560618922635 L 94.11715926356578 159.83253958559487 L 96.39363695689637 173.79024890022697 L 110.35134627152819 171.51377120689452 L 108.07486857819681 157.5560618922635" stroke-opacity="0.6980392156862745" stroke-linecap="round" stroke-linejoin="round" stroke-miterlimit="10" stroke-width="0.5"/><path fill="none" stroke="rgb(255,85,0)" paint-order="fill stroke markers" d=" M 41.999999999999886 50.075414074261005 L 41.999999999999886 168.3327560486888" stroke-opacity="0.6980392156862745" stroke-linecap="round" stroke-linejoin="round" stroke-miterlimit="10"/><g transform="scale(19,19)"><g transform="translate(0.9473684210526315,11.95978947368421)"><path fill="rgb(0,100,0)" stroke="none" paint-order="stroke fill markers" d=" M 0.028 -0.165 L 0.028 -0.196 L 0.335 -0.665 Q 0.343 -0.677 0.355 -0.677 Q 0.369 -0.677 0.371 -0.666 L 0.371 -0.651 L 0.371 -0.196 L 0.47100000000000003 -0.196 L 0.47100000000000003 -0.165 L 0.371 -0.165 L 0.371 -0.078 Q 0.371 -0.047 0.383 -0.04 Q 0.397 -0.031 0.447 -0.031 L 0.468 -0.031 L 0.468 0 Q 0.427 -0.003 0.332 -0.003 Q 0.23800000000000002 -0.003 0.197 0 L 0.197 -0.031 L 0.218 -0.031 Q 0.28 -0.031 0.29 -0.048 Q 0.294 -0.055 0.294 -0.078 L 0.294 -0.165 L 0.028 -0.165 M 0.3 -0.196 L 0.3 -0.5690000000000001 L 0.056 -0.196 L 0.3 -0.196 Z"/></g></g><path fill="none" stroke="rgb(0,100,0)" paint-order="fill stroke markers" d=" M 41.999999999999886 168.3327560486888 L 41.999999999999886 264.5000000000001" stroke-opacity="0.6980392156862745" stroke-linecap="round" stroke-linejoin="round" stroke-miterlimit="10" stroke-width="0.5"/><g transform="scale(19,19)"><g transform="translate(4.157894736842105,15.012421052631579)"><path fill="rgb(0,100,0)" stroke="none" paint-order="stroke fill markers" d=" M 0.29 -0.352 L 0.29 -0.352 Q 0.39 -0.332 0.434 -0.254 Q 0.457 -0.215 0.457 -0.171 Q 0.457 -0.08600000000000001 0.387 -0.028 Q 0.326 0.022 0.244 0.022 Q 0.145 0.022 0.085 -0.037 Q 0.042 -0.079 0.042 -0.135 Q 0.042 -0.182 0.084 -0.191 Q 0.091 -0.193 0.098 -0.193 Q 0.136 -0.193 0.149 -0.161 Q 0.153 -0.148 0.154 -0.137 Q 0.154 -0.097 0.11800000000000001 -0.085 Q 0.10400000000000001 -0.08 0.088 -0.082 Q 0.125 -0.02 0.216 -0.008 Q 0.229 -0.006 0.241 -0.006 Q 0.305 -0.006 0.335 -0.069 Q 0.354 -0.109 0.354 -0.171 Q 0.354 -0.304 0.274 -0.331 Q 0.256 -0.337 0.23500000000000001 -0.337 L 0.191 -0.337 Q 0.169 -0.337 0.167 -0.34800000000000003 Q 0.167 -0.358 0.182 -0.36 Q 0.197 -0.36 0.221 -0.363 Q 0.272 -0.365 0.301 -0.402 L 0.301 -0.403 L 0.302 -0.404 L 0.303 -0.405 L 0.304 -0.405 L 0.31 -0.41500000000000004 Q 0.338 -0.462 0.338 -0.529 Q 0.338 -0.622 0.266 -0.638 Q 0.254 -0.641 0.242 -0.641 Q 0.17200000000000001 -0.641 0.128 -0.601 Q 0.117 -0.591 0.109 -0.579 Q 0.171 -0.579 0.171 -0.529 Q 0.171 -0.493 0.14 -0.481 Q 0.131 -0.47800000000000004 0.12 -0.47800000000000004 Q 0.081 -0.47800000000000004 0.07100000000000001 -0.513 L 0.07100000000000001 -0.513 L 0.07100000000000001 -0.514 Q 0.069 -0.522 0.069 -0.53 Q 0.069 -0.597 0.135 -0.637 Q 0.183 -0.666 0.246 -0.666 Q 0.337 -0.666 0.393 -0.612 L 0.395 -0.61 Q 0.43 -0.5740000000000001 0.43 -0.528 Q 0.43 -0.445 0.359 -0.389 Q 0.328 -0.365 0.29 -0.352 Z"/></g></g><path fill="none" stroke="rgb(0,100,0)" paint-order="fill stroke markers" d=" M 41.999999999999886 264.5000000000001 L 125.51723566375243 264.5000000000001" stroke-opacity="0.6980392156862745" stroke-linecap="round" stroke-linejoin="round" stroke-miterlimit="10" stroke-width="0.5"/><path fill="none" stroke="rgb(255,85,0)" paint-order="fill stroke markers" d=" M 125.51723566375243 264.5000000000001 L 173.81978916770547 264.5000000000001" stroke-opacity="0.6980392156862745" stroke-linecap="round" stroke-linejoin="round" stroke-miterlimit="10"/><path fill="none" stroke="rgb(0,100,0)" paint-order="fill stroke markers" d=" M 137.53974685450348 213.12287814522585 L 144.35491089139882 208.9331837470378" stroke-opacity="0.6980392156862745" stroke-linecap="round" stroke-linejoin="round" stroke-miterlimit="10" stroke-width="0.5"/><path fill="none" stroke="rgb(0,100,0)" paint-order="fill stroke markers" d=" M 173.81978916770547 264.5000000000001 L 108.07486857819681 157.5560618922635" stroke-opacity="0.6980392156862745" stroke-linecap="round" stroke-linejoin="round" stroke-miterlimit="10" stroke-width="0.5"/><path fill="none" stroke="rgb(0,100,0)" paint-order="fill stroke markers" d=" M 71.62985227065069 105.9105851823563 L 78.445016307546 101.7208907841682" stroke-opacity="0.6980392156862745" stroke-linecap="round" stroke-linejoin="round" stroke-miterlimit="10" stroke-width="0.5"/><path fill="none" stroke="rgb(0,100,0)" paint-order="fill stroke markers" d=" M 108.07486857819681 157.5560618922635 L 41.999999999999886 50.075414074261005" stroke-opacity="0.6980392156862745" stroke-linecap="round" stroke-linejoin="round" stroke-miterlimit="10" stroke-width="0.5"/><path fill="none" stroke="rgb(0,100,0)" paint-order="fill stroke markers" d=" M 113.08967268061805 213.15235470773268 L 120.98534540558357 211.864584456393" stroke-opacity="0.6980392156862745" stroke-linecap="round" stroke-linejoin="round" stroke-miterlimit="10" stroke-width="0.5"/><path fill="none" stroke="rgb(0,100,0)" paint-order="fill stroke markers" d=" M 112.60675883636567 210.19147743587064 L 120.50243156133119 208.90370718453096" stroke-opacity="0.6980392156862745" stroke-linecap="round" stroke-linejoin="round" stroke-miterlimit="10" stroke-width="0.5"/><path fill="none" stroke="rgb(0,100,0)" paint-order="fill stroke markers" d=" M 125.51723566375243 264.5000000000001 L 108.07486857819681 157.5560618922635" stroke-opacity="0.6980392156862745" stroke-linecap="round" stroke-linejoin="round" stroke-miterlimit="10" stroke-width="0.5"/><path fill="none" stroke="rgb(0,100,0)" paint-order="fill stroke markers" d=" M 108.07486857819681 157.5560618922635 L 41.999999999999886 168.3327560486888" stroke-opacity="0.6980392156862745" stroke-linecap="round" stroke-linejoin="round" stroke-miterlimit="10" stroke-width="0.5"/><path fill="rgb(0,0,255)" stroke="none" paint-order="stroke fill markers" d=" M 127.51723566375243 264.5000000000001 C 127.51723566375243 265.6045694996617 126.62180516341402 266.5000000000001 125.51723566375243 266.5000000000001 C 124.41266616409084 266.5000000000001 123.51723566375243 265.6045694996617 123.51723566375243 264.5000000000001 C 123.51723566375243 263.39543050033853 124.41266616409084 262.5000000000001 125.51723566375243 262.5000000000001 C 126.62180516341402 262.5000000000001 127.51723566375243 263.39543050033853 127.51723566375243 264.5000000000001 Z" fill-opacity="1"/><path fill="none" stroke="rgb(0,0,0)" paint-order="fill stroke markers" d=" M 127.51723566375243 264.5000000000001 C 127.51723566375243 265.6045694996617 126.62180516341402 266.5000000000001 125.51723566375243 266.5000000000001 C 124.41266616409084 266.5000000000001 123.51723566375243 265.6045694996617 123.51723566375243 264.5000000000001 C 123.51723566375243 263.39543050033853 124.41266616409084 262.5000000000001 125.51723566375243 262.5000000000001 C 126.62180516341402 262.5000000000001 127.51723566375243 263.39543050033853 127.51723566375243 264.5000000000001 Z" stroke-opacity="1" stroke-linecap="round" stroke-linejoin="round" stroke-miterlimit="10"/><text fill="rgb(0,0,255)" stroke="none" font-family="geogebra-sans-serif, sans-serif" font-size="16px" font-style="normal" font-weight="normal" text-decoration="normal" x="117" y="291" text-anchor="start" dominant-baseline="alphabetic" fill-opacity="1">N</text><text fill="none" stroke="rgb(255,255,255)" font-family="geogebra-sans-serif, sans-serif" font-size="16px" font-style="normal" font-weight="normal" text-decoration="normal" x="117" y="291" text-anchor="start" dominant-baseline="alphabetic" stroke-opacity="1" stroke-linejoin="bevel" stroke-miterlimit="10" stroke-width="3">N</text><text fill="rgb(0,0,255)" stroke="none" font-family="geogebra-sans-serif, sans-serif" font-size="16px" font-style="normal" font-weight="normal" text-decoration="normal" x="117" y="291" text-anchor="start" dominant-baseline="alphabetic" fill-opacity="1">N</text><path fill="rgb(0,0,255)" stroke="none" paint-order="stroke fill markers" d=" M 43.999999999999886 168.3327560486888 C 43.999999999999886 169.43732554835037 43.10456949966147 170.3327560486888 41.999999999999886 170.3327560486888 C 40.8954305003383 170.3327560486888 39.999999999999886 169.43732554835037 39.999999999999886 168.3327560486888 C 39.999999999999886 167.2281865490272 40.8954305003383 166.3327560486888 41.999999999999886 166.3327560486888 C 43.10456949966147 166.3327560486888 43.999999999999886 167.2281865490272 43.999999999999886 168.3327560486888 Z" fill-opacity="1"/><path fill="none" stroke="rgb(0,0,0)" paint-order="fill stroke markers" d=" M 43.999999999999886 168.3327560486888 C 43.999999999999886 169.43732554835037 43.10456949966147 170.3327560486888 41.999999999999886 170.3327560486888 C 40.8954305003383 170.3327560486888 39.999999999999886 169.43732554835037 39.999999999999886 168.3327560486888 C 39.999999999999886 167.2281865490272 40.8954305003383 166.3327560486888 41.999999999999886 166.3327560486888 C 43.10456949966147 166.3327560486888 43.999999999999886 167.2281865490272 43.999999999999886 168.3327560486888 Z" stroke-opacity="1" stroke-linecap="round" stroke-linejoin="round" stroke-miterlimit="10"/><text fill="rgb(0,0,255)" stroke="none" font-family="geogebra-sans-serif, sans-serif" font-size="16px" font-style="normal" font-weight="normal" text-decoration="normal" x="12" y="178" text-anchor="start" dominant-baseline="alphabetic" fill-opacity="1">M</text><text fill="none" stroke="rgb(255,255,255)" font-family="geogebra-sans-serif, sans-serif" font-size="16px" font-style="normal" font-weight="normal" text-decoration="normal" x="12" y="178" text-anchor="start" dominant-baseline="alphabetic" stroke-opacity="1" stroke-linejoin="bevel" stroke-miterlimit="10" stroke-width="3">M</text><text fill="rgb(0,0,255)" stroke="none" font-family="geogebra-sans-serif, sans-serif" font-size="16px" font-style="normal" font-weight="normal" text-decoration="normal" x="12" y="178" text-anchor="start" dominant-baseline="alphabetic" fill-opacity="1">M</text><path fill="rgb(0,0,255)" stroke="none" paint-order="stroke fill markers" d=" M 43.999999999999886 264.5000000000001 C 43.999999999999886 265.6045694996617 43.10456949966147 266.5000000000001 41.999999999999886 266.5000000000001 C 40.8954305003383 266.5000000000001 39.999999999999886 265.6045694996617 39.999999999999886 264.5000000000001 C 39.999999999999886 263.39543050033853 40.8954305003383 262.5000000000001 41.999999999999886 262.5000000000001 C 43.10456949966147 262.5000000000001 43.999999999999886 263.39543050033853 43.999999999999886 264.5000000000001 Z" fill-opacity="1"/><path fill="none" stroke="rgb(0,0,0)" paint-order="fill stroke markers" d=" M 43.999999999999886 264.5000000000001 C 43.999999999999886 265.6045694996617 43.10456949966147 266.5000000000001 41.999999999999886 266.5000000000001 C 40.8954305003383 266.5000000000001 39.999999999999886 265.6045694996617 39.999999999999886 264.5000000000001 C 39.999999999999886 263.39543050033853 40.8954305003383 262.5000000000001 41.999999999999886 262.5000000000001 C 43.10456949966147 262.5000000000001 43.999999999999886 263.39543050033853 43.999999999999886 264.5000000000001 Z" stroke-opacity="1" stroke-linecap="round" stroke-linejoin="round" stroke-miterlimit="10"/><text fill="rgb(0,0,255)" stroke="none" font-family="geogebra-sans-serif, sans-serif" font-size="16px" font-style="normal" font-weight="normal" text-decoration="normal" x="27" y="292" text-anchor="start" dominant-baseline="alphabetic" fill-opacity="1">B</text><text fill="none" stroke="rgb(255,255,255)" font-family="geogebra-sans-serif, sans-serif" font-size="16px" font-style="normal" font-weight="normal" text-decoration="normal" x="27" y="292" text-anchor="start" dominant-baseline="alphabetic" stroke-opacity="1" stroke-linejoin="bevel" stroke-miterlimit="10" stroke-width="3">B</text><text fill="rgb(0,0,255)" stroke="none" font-family="geogebra-sans-serif, sans-serif" font-size="16px" font-style="normal" font-weight="normal" text-decoration="normal" x="27" y="292" text-anchor="start" dominant-baseline="alphabetic" fill-opacity="1">B</text><path fill="rgb(0,0,255)" stroke="none" paint-order="stroke fill markers" d=" M 110.07486857819681 157.5560618922635 C 110.07486857819681 158.66063139192508 109.1794380778584 159.5560618922635 108.07486857819681 159.5560618922635 C 106.97029907853522 159.5560618922635 106.07486857819681 158.66063139192508 106.07486857819681 157.5560618922635 C 106.07486857819681 156.45149239260192 106.97029907853522 155.5560618922635 108.07486857819681 155.5560618922635 C 109.1794380778584 155.5560618922635 110.07486857819681 156.45149239260192 110.07486857819681 157.5560618922635 Z" fill-opacity="1"/><path fill="none" stroke="rgb(0,0,0)" paint-order="fill stroke markers" d=" M 110.07486857819681 157.5560618922635 C 110.07486857819681 158.66063139192508 109.1794380778584 159.5560618922635 108.07486857819681 159.5560618922635 C 106.97029907853522 159.5560618922635 106.07486857819681 158.66063139192508 106.07486857819681 157.5560618922635 C 106.07486857819681 156.45149239260192 106.97029907853522 155.5560618922635 108.07486857819681 155.5560618922635 C 109.1794380778584 155.5560618922635 110.07486857819681 156.45149239260192 110.07486857819681 157.5560618922635 Z" stroke-opacity="1" stroke-linecap="round" stroke-linejoin="round" stroke-miterlimit="10"/><text fill="rgb(0,0,255)" stroke="none" font-family="geogebra-sans-serif, sans-serif" font-size="16px" font-style="normal" font-weight="normal" text-decoration="normal" x="112" y="154" text-anchor="start" dominant-baseline="alphabetic" fill-opacity="1">O</text><text fill="none" stroke="rgb(255,255,255)" font-family="geogebra-sans-serif, sans-serif" font-size="16px" font-style="normal" font-weight="normal" text-decoration="normal" x="112" y="154" text-anchor="start" dominant-baseline="alphabetic" stroke-opacity="1" stroke-linejoin="bevel" stroke-miterlimit="10" stroke-width="3">O</text><text fill="rgb(0,0,255)" stroke="none" font-family="geogebra-sans-serif, sans-serif" font-size="16px" font-style="normal" font-weight="normal" text-decoration="normal" x="112" y="154" text-anchor="start" dominant-baseline="alphabetic" fill-opacity="1">O</text><path fill="rgb(0,0,255)" stroke="none" paint-order="stroke fill markers" d=" M 175.81978916770547 264.5000000000001 C 175.81978916770547 265.6045694996617 174.92435866736704 266.5000000000001 173.81978916770547 266.5000000000001 C 172.7152196680439 266.5000000000001 171.81978916770547 265.6045694996617 171.81978916770547 264.5000000000001 C 171.81978916770547 263.39543050033853 172.7152196680439 262.5000000000001 173.81978916770547 262.5000000000001 C 174.92435866736704 262.5000000000001 175.81978916770547 263.39543050033853 175.81978916770547 264.5000000000001 Z" fill-opacity="1"/><path fill="none" stroke="rgb(0,0,0)" paint-order="fill stroke markers" d=" M 175.81978916770547 264.5000000000001 C 175.81978916770547 265.6045694996617 174.92435866736704 266.5000000000001 173.81978916770547 266.5000000000001 C 172.7152196680439 266.5000000000001 171.81978916770547 265.6045694996617 171.81978916770547 264.5000000000001 C 171.81978916770547 263.39543050033853 172.7152196680439 262.5000000000001 173.81978916770547 262.5000000000001 C 174.92435866736704 262.5000000000001 175.81978916770547 263.39543050033853 175.81978916770547 264.5000000000001 Z" stroke-opacity="1" stroke-linecap="round" stroke-linejoin="round" stroke-miterlimit="10"/><text fill="rgb(0,0,255)" stroke="none" font-family="geogebra-sans-serif, sans-serif" font-size="16px" font-style="normal" font-weight="normal" text-decoration="normal" x="171" y="293" text-anchor="start" dominant-baseline="alphabetic" fill-opacity="1">A</text><text fill="none" stroke="rgb(255,255,255)" font-family="geogebra-sans-serif, sans-serif" font-size="16px" font-style="normal" font-weight="normal" text-decoration="normal" x="171" y="293" text-anchor="start" dominant-baseline="alphabetic" stroke-opacity="1" stroke-linejoin="bevel" stroke-miterlimit="10" stroke-width="3">A</text><text fill="rgb(0,0,255)" stroke="none" font-family="geogebra-sans-serif, sans-serif" font-size="16px" font-style="normal" font-weight="normal" text-decoration="normal" x="171" y="293" text-anchor="start" dominant-baseline="alphabetic" fill-opacity="1">A</text><path fill="rgb(0,0,255)" stroke="none" paint-order="stroke fill markers" d=" M 43.999999999999886 50.075414074261005 C 43.999999999999886 51.17998357392259 43.10456949966147 52.075414074261005 41.999999999999886 52.075414074261005 C 40.8954305003383 52.075414074261005 39.999999999999886 51.17998357392259 39.999999999999886 50.075414074261005 C 39.999999999999886 48.97084457459942 40.8954305003383 48.075414074261005 41.999999999999886 48.075414074261005 C 43.10456949966147 48.075414074261005 43.999999999999886 48.97084457459942 43.999999999999886 50.075414074261005 Z" fill-opacity="1"/><path fill="none" stroke="rgb(0,0,0)" paint-order="fill stroke markers" d=" M 43.999999999999886 50.075414074261005 C 43.999999999999886 51.17998357392259 43.10456949966147 52.075414074261005 41.999999999999886 52.075414074261005 C 40.8954305003383 52.075414074261005 39.999999999999886 51.17998357392259 39.999999999999886 50.075414074261005 C 39.999999999999886 48.97084457459942 40.8954305003383 48.075414074261005 41.999999999999886 48.075414074261005 C 43.10456949966147 48.075414074261005 43.999999999999886 48.97084457459942 43.999999999999886 50.075414074261005 Z" stroke-opacity="1" stroke-linecap="round" stroke-linejoin="round" stroke-miterlimit="10"/><text fill="rgb(0,0,255)" stroke="none" font-family="geogebra-sans-serif, sans-serif" font-size="16px" font-style="normal" font-weight="normal" text-decoration="normal" x="28" y="33" text-anchor="start" dominant-baseline="alphabetic" fill-opacity="1">C</text><text fill="none" stroke="rgb(255,255,255)" font-family="geogebra-sans-serif, sans-serif" font-size="16px" font-style="normal" font-weight="normal" text-decoration="normal" x="28" y="33" text-anchor="start" dominant-baseline="alphabetic" stroke-opacity="1" stroke-linejoin="bevel" stroke-miterlimit="10" stroke-width="3">C</text><text fill="rgb(0,0,255)" stroke="none" font-family="geogebra-sans-serif, sans-serif" font-size="16px" font-style="normal" font-weight="normal" text-decoration="normal" x="28" y="33" text-anchor="start" dominant-baseline="alphabetic" fill-opacity="1">C</text></g></g></svg>