<svg version="1.1" xmlns="http://www.w3.org/2000/svg" xmlns:xlink="http://www.w3.org/1999/xlink" width="393" height="390"><defs><clipPath id="MkiOQDizGidE"><path fill="none" stroke="none" d=" M 0 0 L 393 0 L 393 390 L 0 390 L 0 0 Z"/></clipPath></defs><g transform="scale(1,1)" clip-path="url(#MkiOQDizGidE)"><g><rect fill="rgb(255,255,255)" stroke="none" x="0" y="0" width="393" height="390" fill-opacity="1"/><path fill="none" stroke="rgb(0,153,255)" paint-order="fill stroke markers" d=" M 205.70831746635952 176.00000000000017 C 205.70831746635952 206.21456942557228 181.21456942557194 230.70831746635986 150.99999999999991 230.70831746635986 C 120.78543057442786 230.70831746635986 96.2916825336403 206.21456942557228 96.2916825336403 176.00000000000017 C 96.2916825336403 145.7854305744281 120.78543057442786 121.29168253364048 150.99999999999991 121.29168253364048 C 181.21456942557194 121.29168253364048 205.70831746635952 145.7854305744281 205.70831746635952 176.00000000000017 Z" stroke-opacity="0.6980392156862745" stroke-linecap="round" stroke-linejoin="round" stroke-miterlimit="10"/><path fill="none" stroke="rgb(0,153,255)" paint-order="fill stroke markers" d=" M 278.745031103602 254.05953033703202 C 278.745031103602 284.27409976260407 254.25128306281442 308.7678478033917 224.0367136372424 308.7678478033917 C 193.82214421167038 308.7678478033917 169.3283961708828 284.27409976260407 169.3283961708828 254.05953033703202 C 169.3283961708828 223.84496091145994 193.82214421167038 199.35121287067233 224.0367136372424 199.35121287067233 C 254.25128306281442 199.35121287067233 278.745031103602 223.84496091145994 278.745031103602 254.05953033703202 Z" stroke-opacity="0.6980392156862745" stroke-linecap="round" stroke-linejoin="round" stroke-miterlimit="10"/><path fill="none" stroke="rgb(0,153,255)" paint-order="fill stroke markers" d=" M 201.81031285534704 267.4467918058866 C 201.81031285534704 297.66136123145867 177.31656481455946 322.15510927224625 147.10199538898743 322.15510927224625 C 116.8874259634154 322.15510927224625 92.39367792262783 297.66136123145867 92.39367792262783 267.4467918058866 C 92.39367792262783 237.23222238031454 116.8874259634154 212.73847433952693 147.10199538898743 212.73847433952693 C 177.31656481455946 212.73847433952693 201.81031285534704 237.23222238031454 201.81031285534704 267.4467918058866 Z" stroke-opacity="0.6980392156862745" stroke-linecap="round" stroke-linejoin="round" stroke-miterlimit="10"/><path fill="none" stroke="rgb(255,85,0)" paint-order="fill stroke markers" d=" M 253.63089672638978 237.19053349699874 C 253.63089672638978 281.35248825832787 217.83055889343802 317.15282609127974 173.66860413210892 317.15282609127974 C 129.50664937077983 317.15282609127974 93.70631153782809 281.35248825832787 93.70631153782809 237.19053349699874 C 93.70631153782809 193.0285787356696 129.50664937077983 157.2282409027178 173.66860413210892 157.2282409027178 C 217.83055889343802 157.2282409027178 253.63089672638978 193.0285787356696 253.63089672638978 237.19053349699874 Z" stroke-opacity="0.6980392156862745" stroke-linejoin="round" stroke-miterlimit="10" stroke-dasharray="9,8"/><path fill="none" stroke="rgb(244,0,153)" paint-order="fill stroke markers" d=" M 363.7738489736307 192.25869263594552 C 363.7738489736307 287.92783892998295 286.21868240487754 365.48300549873625 190.54953611084025 365.48300549873625 C 94.88038981680292 365.48300549873625 17.325223248049753 287.92783892998295 17.325223248049753 192.25869263594552 C 17.325223248049753 96.58954634190808 94.88038981680292 19.034379773154797 190.54953611084025 19.034379773154797 C 286.21868240487754 19.034379773154797 363.7738489736307 96.58954634190808 363.7738489736307 192.25869263594552 Z" stroke-opacity="0.6980392156862745" stroke-linejoin="round" stroke-miterlimit="10" stroke-width="1.5" stroke-dasharray="5.5,4"/><path fill="none" stroke="rgb(0,100,0)" paint-order="fill stroke markers" d=" M 101.89243633537652 43.441418013039424 L 89.55008691671063 332.99168034411736" stroke-opacity="0.6980392156862745" stroke-linecap="round" stroke-linejoin="round" stroke-miterlimit="10"/><path fill="none" stroke="rgb(0,100,0)" paint-order="fill stroke markers" d=" M 333.1504080569779 290.60325978119886 L 89.55008691671063 332.99168034411736" stroke-opacity="0.6980392156862745" stroke-linecap="round" stroke-linejoin="round" stroke-miterlimit="10"/><path fill="none" stroke="rgb(0,100,0)" paint-order="fill stroke markers" d=" M 333.1504080569779 290.60325978119886 L 101.89243633537652 43.441418013039424" stroke-opacity="0.6980392156862745" stroke-linecap="round" stroke-linejoin="round" stroke-miterlimit="10"/><path fill="none" stroke="rgb(255,85,0)" paint-order="fill stroke markers" d=" M 173.66860413210892 237.19053349699874 L 190.54953611084025 192.25869263594552" stroke-opacity="0.6980392156862745" stroke-linecap="round" stroke-linejoin="round" stroke-miterlimit="10" stroke-width="1.5"/><path fill="rgb(0,0,255)" stroke="none" paint-order="stroke fill markers" d=" M 181.99999999999986 223.0000000000001 C 181.99999999999986 224.65685424949248 180.65685424949223 226.0000000000001 178.99999999999986 226.0000000000001 C 177.3431457505075 226.0000000000001 175.99999999999986 224.65685424949248 175.99999999999986 223.0000000000001 C 175.99999999999986 221.34314575050774 177.3431457505075 220.0000000000001 178.99999999999986 220.0000000000001 C 180.65685424949223 220.0000000000001 181.99999999999986 221.34314575050774 181.99999999999986 223.0000000000001 Z" fill-opacity="1"/><path fill="none" stroke="rgb(0,0,0)" paint-order="fill stroke markers" d=" M 181.99999999999986 223.0000000000001 C 181.99999999999986 224.65685424949248 180.65685424949223 226.0000000000001 178.99999999999986 226.0000000000001 C 177.3431457505075 226.0000000000001 175.99999999999986 224.65685424949248 175.99999999999986 223.0000000000001 C 175.99999999999986 221.34314575050774 177.3431457505075 220.0000000000001 178.99999999999986 220.0000000000001 C 180.65685424949223 220.0000000000001 181.99999999999986 221.34314575050774 181.99999999999986 223.0000000000001 Z" stroke-opacity="1" stroke-linecap="round" stroke-linejoin="round" stroke-miterlimit="10"/><text fill="rgb(0,0,255)" stroke="none" font-family="geogebra-sans-serif, sans-serif" font-size="16px" font-style="normal" font-weight="normal" text-decoration="normal" x="166" y="211" text-anchor="start" dominant-baseline="alphabetic" fill-opacity="1">P</text><text fill="none" stroke="rgb(255,255,255)" font-family="geogebra-sans-serif, sans-serif" font-size="16px" font-style="normal" font-weight="normal" text-decoration="normal" x="166" y="211" text-anchor="start" dominant-baseline="alphabetic" stroke-opacity="1" stroke-linejoin="bevel" stroke-miterlimit="10" stroke-width="3">P</text><text fill="rgb(0,0,255)" stroke="none" font-family="geogebra-sans-serif, sans-serif" font-size="16px" font-style="normal" font-weight="normal" text-decoration="normal" x="166" y="211" text-anchor="start" dominant-baseline="alphabetic" fill-opacity="1">P</text><path fill="rgb(0,0,255)" stroke="none" paint-order="stroke fill markers" d=" M 176.66860413210892 237.19053349699874 C 176.66860413210892 238.8473877464911 175.3254583816013 240.19053349699874 173.66860413210892 240.19053349699874 C 172.01174988261656 240.19053349699874 170.66860413210892 238.8473877464911 170.66860413210892 237.19053349699874 C 170.66860413210892 235.53367924750637 172.01174988261656 234.19053349699874 173.66860413210892 234.19053349699874 C 175.3254583816013 234.19053349699874 176.66860413210892 235.53367924750637 176.66860413210892 237.19053349699874 Z" fill-opacity="1"/><path fill="none" stroke="rgb(0,0,0)" paint-order="fill stroke markers" d=" M 176.66860413210892 237.19053349699874 C 176.66860413210892 238.8473877464911 175.3254583816013 240.19053349699874 173.66860413210892 240.19053349699874 C 172.01174988261656 240.19053349699874 170.66860413210892 238.8473877464911 170.66860413210892 237.19053349699874 C 170.66860413210892 235.53367924750637 172.01174988261656 234.19053349699874 173.66860413210892 234.19053349699874 C 175.3254583816013 234.19053349699874 176.66860413210892 235.53367924750637 176.66860413210892 237.19053349699874 Z" stroke-opacity="1" stroke-linecap="round" stroke-linejoin="round" stroke-miterlimit="10"/><path fill="rgb(0,0,255)" stroke="none" paint-order="stroke fill markers" d=" M 193.54953611084025 192.25869263594552 C 193.54953611084025 193.9155468854379 192.20639036033262 195.25869263594552 190.54953611084025 195.25869263594552 C 188.89268186134788 195.25869263594552 187.54953611084025 193.9155468854379 187.54953611084025 192.25869263594552 C 187.54953611084025 190.60183838645315 188.89268186134788 189.25869263594552 190.54953611084025 189.25869263594552 C 192.20639036033262 189.25869263594552 193.54953611084025 190.60183838645315 193.54953611084025 192.25869263594552 Z" fill-opacity="1"/><path fill="none" stroke="rgb(0,0,0)" paint-order="fill stroke markers" d=" M 193.54953611084025 192.25869263594552 C 193.54953611084025 193.9155468854379 192.20639036033262 195.25869263594552 190.54953611084025 195.25869263594552 C 188.89268186134788 195.25869263594552 187.54953611084025 193.9155468854379 187.54953611084025 192.25869263594552 C 187.54953611084025 190.60183838645315 188.89268186134788 189.25869263594552 190.54953611084025 189.25869263594552 C 192.20639036033262 189.25869263594552 193.54953611084025 190.60183838645315 193.54953611084025 192.25869263594552 Z" stroke-opacity="1" stroke-linecap="round" stroke-linejoin="round" stroke-miterlimit="10"/></g></g></svg>