<svg version="1.1" xmlns="http://www.w3.org/2000/svg" xmlns:xlink="http://www.w3.org/1999/xlink" width="309" height="239"><defs><clipPath id="xGrGsidcnDBR"><path fill="none" stroke="none" d=" M 0 0 L 309 0 L 309 239 L 0 239 L 0 0 Z"/></clipPath></defs><g transform="scale(1,1)" clip-path="url(#xGrGsidcnDBR)"><g><rect fill="rgb(255,255,255)" stroke="none" x="0" y="0" width="309" height="239" fill-opacity="1"/><path fill="none" stroke="rgb(0,153,255)" paint-order="fill stroke markers" d=" M 296.1666666666665 129.8333333333332 C 296.1666666666665 185.0618083164125 251.39514164974585 229.8333333333332 196.16666666666654 229.8333333333332 C 140.93819168358723 229.8333333333332 96.16666666666657 185.0618083164125 96.16666666666657 129.8333333333332 C 96.16666666666657 74.60485835025388 140.93819168358723 29.833333333333215 196.16666666666654 29.833333333333215 C 251.39514164974585 29.833333333333215 296.1666666666665 74.60485835025388 296.1666666666665 129.8333333333332 Z" stroke-opacity="0.6980392156862745" stroke-linejoin="round" stroke-miterlimit="10" stroke-dasharray="9,8"/><g transform="scale(19,19)"><g transform="translate(10.631578947368421,1.1152105263157894)"><path fill="rgb(0,153,255)" stroke="none" paint-order="stroke fill markers" d=" M 0.264 -0.082 Q 0.201 0.011 0.11900000000000001 0.011 Q 0.032 0.011 0.016 -0.089 Q 0.013000000000000001 -0.109 0.013000000000000001 -0.131 Q 0.013000000000000001 -0.22 0.051000000000000004 -0.311 Q 0.082 -0.382 0.112 -0.419 Q 0.122 -0.431 0.127 -0.431 Q 0.139 -0.431 0.139 -0.419 Q 0.139 -0.41400000000000003 0.129 -0.4 Q 0.045 -0.28 0.045 -0.17500000000000002 Q 0.045 -0.08 0.109 -0.064 Q 0.12 -0.061 0.133 -0.061 Q 0.201 -0.061 0.257 -0.138 Q 0.264 -0.145 0.266 -0.165 Q 0.276 -0.23800000000000002 0.28700000000000003 -0.266 Q 0.3 -0.291 0.315 -0.291 Q 0.334 -0.291 0.336 -0.268 Q 0.336 -0.24 0.308 -0.168 Q 0.306 -0.161 0.303 -0.155 Q 0.297 -0.14400000000000002 0.297 -0.139 Q 0.297 -0.111 0.317 -0.084 Q 0.335 -0.061 0.372 -0.061 Q 0.449 -0.061 0.511 -0.14400000000000002 Q 0.562 -0.214 0.562 -0.28 Q 0.562 -0.331 0.527 -0.367 Q 0.512 -0.38 0.512 -0.394 Q 0.512 -0.419 0.539 -0.435 Q 0.55 -0.442 0.562 -0.442 Q 0.599 -0.442 0.604 -0.388 Q 0.605 -0.377 0.605 -0.371 Q 0.605 -0.307 0.5750000000000001 -0.213 Q 0.55 -0.136 0.511 -0.082 Q 0.443 0.011 0.358 0.011 Q 0.277 0.011 0.264 -0.082 Z"/></g></g><path fill="none" stroke="rgb(0,153,255)" paint-order="fill stroke markers" d=" M 162.8333333333332 129.8333333333332 C 162.8333333333332 157.44757082487286 140.44757082487288 179.8333333333332 112.83333333333323 179.8333333333332 C 85.21909584179357 179.8333333333332 62.83333333333324 157.44757082487286 62.83333333333324 129.8333333333332 C 62.83333333333324 102.21909584179353 85.21909584179357 79.8333333333332 112.83333333333323 79.8333333333332 C 140.44757082487288 79.8333333333332 162.8333333333332 102.21909584179353 162.8333333333332 129.8333333333332 Z" stroke-opacity="0.6980392156862745" stroke-linecap="round" stroke-linejoin="round" stroke-miterlimit="10"/><g transform="scale(19,19)"><g transform="translate(4.052631578947368,4.062578947368421)"><path fill="rgb(0,153,255)" stroke="none" paint-order="stroke fill markers" d=" M 0.041 -0.254 L 0.041 -0.254 L 0.037 -0.249 Q 0.018000000000000002 -0.249 0.018000000000000002 -0.259 Q 0.018000000000000002 -0.28700000000000003 0.052000000000000005 -0.339 Q 0.122 -0.44 0.213 -0.442 Q 0.303 -0.442 0.34600000000000003 -0.332 Q 0.383 -0.23900000000000002 0.387 -0.128 Q 0.466 -0.326 0.519 -0.424 Q 0.522 -0.431 0.531 -0.431 Q 0.543 -0.431 0.543 -0.421 Q 0.543 -0.41600000000000004 0.524 -0.383 Q 0.45 -0.23600000000000002 0.395 -0.078 Q 0.391 -0.066 0.388 -0.056 Q 0.384 -0.043000000000000003 0.38 -0.017 Q 0.371 0.053 0.343 0.155 Q 0.326 0.212 0.311 0.215 Q 0.298 0.215 0.298 0.197 Q 0.298 0.156 0.34800000000000003 -0.013000000000000001 Q 0.34900000000000003 -0.015 0.35000000000000003 -0.018000000000000002 Q 0.362 -0.052000000000000005 0.362 -0.116 Q 0.362 -0.35100000000000003 0.222 -0.369 Q 0.211 -0.37 0.2 -0.37 Q 0.129 -0.37 0.081 -0.321 L 0.08 -0.32 Q 0.054 -0.293 0.041 -0.254 Z"/></g></g><path fill="none" stroke="rgb(255,85,0)" paint-order="fill stroke markers" d=" M 29.49999999999993 129.8333333333332 L 196.16666666666654 129.8333333333332" stroke-opacity="0.6980392156862745" stroke-linecap="round" stroke-linejoin="round" stroke-miterlimit="10" stroke-width="1.5"/><path fill="none" stroke="rgb(0,100,0)" paint-order="fill stroke markers" d=" M 196.16666666666654 129.8333333333332 L 249.28018564224348 45.10462449134137" stroke-opacity="0.6980392156862745" stroke-linecap="round" stroke-linejoin="round" stroke-miterlimit="10"/><path fill="none" stroke="rgb(0,100,0)" paint-order="fill stroke markers" d=" M 249.28018564224348 45.10462449134137 L 82.61351897557688 45.104624491341355" stroke-opacity="0.6980392156862745" stroke-linecap="round" stroke-linejoin="round" stroke-miterlimit="10"/><path fill="none" stroke="rgb(0,100,0)" paint-order="fill stroke markers" d=" M 29.49999999999993 129.8333333333332 L 82.61351897557688 45.104624491341355" stroke-opacity="0.6980392156862745" stroke-linecap="round" stroke-linejoin="round" stroke-miterlimit="10"/><path fill="none" stroke="rgb(0,100,0)" paint-order="fill stroke markers" d=" M 29.49999999999993 129.8333333333332 L 249.28018564224348 45.10462449134137" stroke-opacity="0.6980392156862745" stroke-linecap="round" stroke-linejoin="round" stroke-miterlimit="10"/><path fill="none" stroke="rgb(0,100,0)" paint-order="fill stroke markers" d=" M 82.61351897557688 45.104624491341355 L 196.16666666666654 129.8333333333332" stroke-opacity="0.6980392156862745" stroke-linecap="round" stroke-linejoin="round" stroke-miterlimit="10"/><path fill="none" stroke="rgb(0,100,0)" paint-order="fill stroke markers" d=" M 112.83333333333323 129.8333333333332 L 139.39009282112175 87.46897891233726" stroke-opacity="0.6980392156862745" stroke-linejoin="round" stroke-miterlimit="10" stroke-dasharray="9,8"/><path fill="rgb(0,0,255)" stroke="none" paint-order="stroke fill markers" d=" M 31.49999999999993 129.8333333333332 C 31.49999999999993 130.93790283299478 30.604569499661515 131.8333333333332 29.49999999999993 131.8333333333332 C 28.395430500338342 131.8333333333332 27.49999999999993 130.93790283299478 27.49999999999993 129.8333333333332 C 27.49999999999993 128.72876383367162 28.395430500338342 127.8333333333332 29.49999999999993 127.8333333333332 C 30.604569499661515 127.8333333333332 31.49999999999993 128.72876383367162 31.49999999999993 129.8333333333332 Z" fill-opacity="1"/><path fill="none" stroke="rgb(0,0,0)" paint-order="fill stroke markers" d=" M 31.49999999999993 129.8333333333332 C 31.49999999999993 130.93790283299478 30.604569499661515 131.8333333333332 29.49999999999993 131.8333333333332 C 28.395430500338342 131.8333333333332 27.49999999999993 130.93790283299478 27.49999999999993 129.8333333333332 C 27.49999999999993 128.72876383367162 28.395430500338342 127.8333333333332 29.49999999999993 127.8333333333332 C 30.604569499661515 127.8333333333332 31.49999999999993 128.72876383367162 31.49999999999993 129.8333333333332 Z" stroke-opacity="1" stroke-linecap="round" stroke-linejoin="round" stroke-miterlimit="10"/><text fill="rgb(0,0,255)" stroke="none" font-family="geogebra-sans-serif, sans-serif" font-size="16px" font-style="normal" font-weight="normal" text-decoration="normal" x="12" y="145" text-anchor="start" dominant-baseline="alphabetic" fill-opacity="1">A</text><text fill="none" stroke="rgb(255,255,255)" font-family="geogebra-sans-serif, sans-serif" font-size="16px" font-style="normal" font-weight="normal" text-decoration="normal" x="12" y="145" text-anchor="start" dominant-baseline="alphabetic" stroke-opacity="1" stroke-linejoin="bevel" stroke-miterlimit="10" stroke-width="3">A</text><text fill="rgb(0,0,255)" stroke="none" font-family="geogebra-sans-serif, sans-serif" font-size="16px" font-style="normal" font-weight="normal" text-decoration="normal" x="12" y="145" text-anchor="start" dominant-baseline="alphabetic" fill-opacity="1">A</text><path fill="rgb(0,0,255)" stroke="none" paint-order="stroke fill markers" d=" M 198.16666666666654 129.8333333333332 C 198.16666666666654 130.93790283299478 197.27123616632812 131.8333333333332 196.16666666666654 131.8333333333332 C 195.06209716700496 131.8333333333332 194.16666666666654 130.93790283299478 194.16666666666654 129.8333333333332 C 194.16666666666654 128.72876383367162 195.06209716700496 127.8333333333332 196.16666666666654 127.8333333333332 C 197.27123616632812 127.8333333333332 198.16666666666654 128.72876383367162 198.16666666666654 129.8333333333332 Z" fill-opacity="1"/><path fill="none" stroke="rgb(0,0,0)" paint-order="fill stroke markers" d=" M 198.16666666666654 129.8333333333332 C 198.16666666666654 130.93790283299478 197.27123616632812 131.8333333333332 196.16666666666654 131.8333333333332 C 195.06209716700496 131.8333333333332 194.16666666666654 130.93790283299478 194.16666666666654 129.8333333333332 C 194.16666666666654 128.72876383367162 195.06209716700496 127.8333333333332 196.16666666666654 127.8333333333332 C 197.27123616632812 127.8333333333332 198.16666666666654 128.72876383367162 198.16666666666654 129.8333333333332 Z" stroke-opacity="1" stroke-linecap="round" stroke-linejoin="round" stroke-miterlimit="10"/><text fill="rgb(0,0,255)" stroke="none" font-family="geogebra-sans-serif, sans-serif" font-size="16px" font-style="normal" font-weight="normal" text-decoration="normal" x="206" y="146" text-anchor="start" dominant-baseline="alphabetic" fill-opacity="1">B</text><text fill="none" stroke="rgb(255,255,255)" font-family="geogebra-sans-serif, sans-serif" font-size="16px" font-style="normal" font-weight="normal" text-decoration="normal" x="206" y="146" text-anchor="start" dominant-baseline="alphabetic" stroke-opacity="1" stroke-linejoin="bevel" stroke-miterlimit="10" stroke-width="3">B</text><text fill="rgb(0,0,255)" stroke="none" font-family="geogebra-sans-serif, sans-serif" font-size="16px" font-style="normal" font-weight="normal" text-decoration="normal" x="206" y="146" text-anchor="start" dominant-baseline="alphabetic" fill-opacity="1">B</text><path fill="rgb(0,0,255)" stroke="none" paint-order="stroke fill markers" d=" M 84.61351897557688 45.104624491341355 C 84.61351897557688 46.20919399100294 83.71808847523846 47.104624491341355 82.61351897557688 47.104624491341355 C 81.50894947591529 47.104624491341355 80.61351897557688 46.20919399100294 80.61351897557688 45.104624491341355 C 80.61351897557688 44.00005499167977 81.50894947591529 43.104624491341355 82.61351897557688 43.104624491341355 C 83.71808847523846 43.104624491341355 84.61351897557688 44.00005499167977 84.61351897557688 45.104624491341355 Z" fill-opacity="1"/><path fill="none" stroke="rgb(0,0,0)" paint-order="fill stroke markers" d=" M 84.61351897557688 45.104624491341355 C 84.61351897557688 46.20919399100294 83.71808847523846 47.104624491341355 82.61351897557688 47.104624491341355 C 81.50894947591529 47.104624491341355 80.61351897557688 46.20919399100294 80.61351897557688 45.104624491341355 C 80.61351897557688 44.00005499167977 81.50894947591529 43.104624491341355 82.61351897557688 43.104624491341355 C 83.71808847523846 43.104624491341355 84.61351897557688 44.00005499167977 84.61351897557688 45.104624491341355 Z" stroke-opacity="1" stroke-linecap="round" stroke-linejoin="round" stroke-miterlimit="10"/><text fill="rgb(0,0,255)" stroke="none" font-family="geogebra-sans-serif, sans-serif" font-size="16px" font-style="normal" font-weight="normal" text-decoration="normal" x="65" y="39" text-anchor="start" dominant-baseline="alphabetic" fill-opacity="1">D</text><text fill="none" stroke="rgb(255,255,255)" font-family="geogebra-sans-serif, sans-serif" font-size="16px" font-style="normal" font-weight="normal" text-decoration="normal" x="65" y="39" text-anchor="start" dominant-baseline="alphabetic" stroke-opacity="1" stroke-linejoin="bevel" stroke-miterlimit="10" stroke-width="3">D</text><text fill="rgb(0,0,255)" stroke="none" font-family="geogebra-sans-serif, sans-serif" font-size="16px" font-style="normal" font-weight="normal" text-decoration="normal" x="65" y="39" text-anchor="start" dominant-baseline="alphabetic" fill-opacity="1">D</text><path fill="rgb(0,0,255)" stroke="none" paint-order="stroke fill markers" d=" M 251.28018564224348 45.10462449134137 C 251.28018564224348 46.209193991002955 250.38475514190506 47.10462449134137 249.28018564224348 47.10462449134137 C 248.1756161425819 47.10462449134137 247.28018564224348 46.209193991002955 247.28018564224348 45.10462449134137 C 247.28018564224348 44.00005499167978 248.1756161425819 43.10462449134137 249.28018564224348 43.10462449134137 C 250.38475514190506 43.10462449134137 251.28018564224348 44.00005499167978 251.28018564224348 45.10462449134137 Z" fill-opacity="1"/><path fill="none" stroke="rgb(0,0,0)" paint-order="fill stroke markers" d=" M 251.28018564224348 45.10462449134137 C 251.28018564224348 46.209193991002955 250.38475514190506 47.10462449134137 249.28018564224348 47.10462449134137 C 248.1756161425819 47.10462449134137 247.28018564224348 46.209193991002955 247.28018564224348 45.10462449134137 C 247.28018564224348 44.00005499167978 248.1756161425819 43.10462449134137 249.28018564224348 43.10462449134137 C 250.38475514190506 43.10462449134137 251.28018564224348 44.00005499167978 251.28018564224348 45.10462449134137 Z" stroke-opacity="1" stroke-linecap="round" stroke-linejoin="round" stroke-miterlimit="10"/><text fill="rgb(0,0,255)" stroke="none" font-family="geogebra-sans-serif, sans-serif" font-size="16px" font-style="normal" font-weight="normal" text-decoration="normal" x="253" y="41" text-anchor="start" dominant-baseline="alphabetic" fill-opacity="1">C</text><text fill="none" stroke="rgb(255,255,255)" font-family="geogebra-sans-serif, sans-serif" font-size="16px" font-style="normal" font-weight="normal" text-decoration="normal" x="253" y="41" text-anchor="start" dominant-baseline="alphabetic" stroke-opacity="1" stroke-linejoin="bevel" stroke-miterlimit="10" stroke-width="3">C</text><text fill="rgb(0,0,255)" stroke="none" font-family="geogebra-sans-serif, sans-serif" font-size="16px" font-style="normal" font-weight="normal" text-decoration="normal" x="253" y="41" text-anchor="start" dominant-baseline="alphabetic" fill-opacity="1">C</text><path fill="rgb(0,0,255)" stroke="none" paint-order="stroke fill markers" d=" M 141.39009282112175 87.46897891233726 C 141.39009282112175 88.57354841199884 140.49466232078333 89.46897891233726 139.39009282112175 89.46897891233726 C 138.28552332146018 89.46897891233726 137.39009282112175 88.57354841199884 137.39009282112175 87.46897891233726 C 137.39009282112175 86.36440941267567 138.28552332146018 85.46897891233726 139.39009282112175 85.46897891233726 C 140.49466232078333 85.46897891233726 141.39009282112175 86.36440941267567 141.39009282112175 87.46897891233726 Z" fill-opacity="1"/><path fill="none" stroke="rgb(0,0,0)" paint-order="fill stroke markers" d=" M 141.39009282112175 87.46897891233726 C 141.39009282112175 88.57354841199884 140.49466232078333 89.46897891233726 139.39009282112175 89.46897891233726 C 138.28552332146018 89.46897891233726 137.39009282112175 88.57354841199884 137.39009282112175 87.46897891233726 C 137.39009282112175 86.36440941267567 138.28552332146018 85.46897891233726 139.39009282112175 85.46897891233726 C 140.49466232078333 85.46897891233726 141.39009282112175 86.36440941267567 141.39009282112175 87.46897891233726 Z" stroke-opacity="1" stroke-linecap="round" stroke-linejoin="round" stroke-miterlimit="10"/><text fill="rgb(0,0,255)" stroke="none" font-family="geogebra-sans-serif, sans-serif" font-size="16px" font-style="normal" font-weight="normal" text-decoration="normal" x="140" y="70" text-anchor="start" dominant-baseline="alphabetic" fill-opacity="1">P</text><text fill="none" stroke="rgb(255,255,255)" font-family="geogebra-sans-serif, sans-serif" font-size="16px" font-style="normal" font-weight="normal" text-decoration="normal" x="140" y="70" text-anchor="start" dominant-baseline="alphabetic" stroke-opacity="1" stroke-linejoin="bevel" stroke-miterlimit="10" stroke-width="3">P</text><text fill="rgb(0,0,255)" stroke="none" font-family="geogebra-sans-serif, sans-serif" font-size="16px" font-style="normal" font-weight="normal" text-decoration="normal" x="140" y="70" text-anchor="start" dominant-baseline="alphabetic" fill-opacity="1">P</text><path fill="rgb(0,0,255)" stroke="none" paint-order="stroke fill markers" d=" M 114.83333333333323 129.8333333333332 C 114.83333333333323 130.93790283299478 113.93790283299481 131.8333333333332 112.83333333333323 131.8333333333332 C 111.72876383367164 131.8333333333332 110.83333333333323 130.93790283299478 110.83333333333323 129.8333333333332 C 110.83333333333323 128.72876383367162 111.72876383367164 127.8333333333332 112.83333333333323 127.8333333333332 C 113.93790283299481 127.8333333333332 114.83333333333323 128.72876383367162 114.83333333333323 129.8333333333332 Z" fill-opacity="1"/><path fill="none" stroke="rgb(0,0,0)" paint-order="fill stroke markers" d=" M 114.83333333333323 129.8333333333332 C 114.83333333333323 130.93790283299478 113.93790283299481 131.8333333333332 112.83333333333323 131.8333333333332 C 111.72876383367164 131.8333333333332 110.83333333333323 130.93790283299478 110.83333333333323 129.8333333333332 C 110.83333333333323 128.72876383367162 111.72876383367164 127.8333333333332 112.83333333333323 127.8333333333332 C 113.93790283299481 127.8333333333332 114.83333333333323 128.72876383367162 114.83333333333323 129.8333333333332 Z" stroke-opacity="1" stroke-linecap="round" stroke-linejoin="round" stroke-miterlimit="10"/><text fill="rgb(0,0,255)" stroke="none" font-family="geogebra-sans-serif, sans-serif" font-size="16px" font-style="normal" font-weight="normal" text-decoration="normal" x="109" y="151" text-anchor="start" dominant-baseline="alphabetic" fill-opacity="1">F</text><text fill="none" stroke="rgb(255,255,255)" font-family="geogebra-sans-serif, sans-serif" font-size="16px" font-style="normal" font-weight="normal" text-decoration="normal" x="109" y="151" text-anchor="start" dominant-baseline="alphabetic" stroke-opacity="1" stroke-linejoin="bevel" stroke-miterlimit="10" stroke-width="3">F</text><text fill="rgb(0,0,255)" stroke="none" font-family="geogebra-sans-serif, sans-serif" font-size="16px" font-style="normal" font-weight="normal" text-decoration="normal" x="109" y="151" text-anchor="start" dominant-baseline="alphabetic" fill-opacity="1">F</text></g></g></svg>