<svg version="1.1" xmlns="http://www.w3.org/2000/svg" xmlns:xlink="http://www.w3.org/1999/xlink" width="475" height="261"><defs><clipPath id="TqemwTyBUqcn"><path fill="none" stroke="none" d=" M 0 0 L 475 0 L 475 261 L 0 261 L 0 0 Z"/></clipPath></defs><g transform="scale(1,1)" clip-path="url(#TqemwTyBUqcn)"><g><rect fill="rgb(255,255,255)" stroke="none" x="0" y="0" width="475" height="261" fill-opacity="1"/><path fill="none" stroke="rgb(153,51,255)" paint-order="fill stroke markers" d=" M 117.00000000000003 40.99999999999979 L 288.99999999999994 39.99999999999977" stroke-opacity="0.6980392156862745" stroke-linejoin="round" stroke-miterlimit="10" stroke-dasharray="9,8"/><path fill="none" stroke="rgb(0,100,0)" paint-order="fill stroke markers" d=" M 54.33333333333339 216.33333333333331 L 357.53333333333325 215.7333333333333" stroke-opacity="0.6980392156862745" stroke-linecap="round" stroke-linejoin="round" stroke-miterlimit="10"/><path fill="rgb(0,0,255)" stroke="none" paint-order="stroke fill markers" d=" M 119.00000000000003 40.99999999999979 C 119.00000000000003 42.10456949966137 118.10456949966161 42.99999999999979 117.00000000000003 42.99999999999979 C 115.89543050033843 42.99999999999979 115.00000000000003 42.10456949966137 115.00000000000003 40.99999999999979 C 115.00000000000003 39.8954305003382 115.89543050033843 38.99999999999979 117.00000000000003 38.99999999999979 C 118.10456949966161 38.99999999999979 119.00000000000003 39.8954305003382 119.00000000000003 40.99999999999979 Z" fill-opacity="1"/><path fill="none" stroke="rgb(0,0,0)" paint-order="fill stroke markers" d=" M 119.00000000000003 40.99999999999979 C 119.00000000000003 42.10456949966137 118.10456949966161 42.99999999999979 117.00000000000003 42.99999999999979 C 115.89543050033843 42.99999999999979 115.00000000000003 42.10456949966137 115.00000000000003 40.99999999999979 C 115.00000000000003 39.8954305003382 115.89543050033843 38.99999999999979 117.00000000000003 38.99999999999979 C 118.10456949966161 38.99999999999979 119.00000000000003 39.8954305003382 119.00000000000003 40.99999999999979 Z" stroke-opacity="1" stroke-linecap="round" stroke-linejoin="round" stroke-miterlimit="10"/><text fill="rgb(0,0,255)" stroke="none" font-family="geogebra-sans-serif, sans-serif" font-size="16px" font-style="normal" font-weight="normal" text-decoration="normal" x="103" y="24" text-anchor="start" dominant-baseline="alphabetic" fill-opacity="1">A</text><text fill="none" stroke="rgb(255,255,255)" font-family="geogebra-sans-serif, sans-serif" font-size="16px" font-style="normal" font-weight="normal" text-decoration="normal" x="103" y="24" text-anchor="start" dominant-baseline="alphabetic" stroke-opacity="1" stroke-linejoin="bevel" stroke-miterlimit="10" stroke-width="3">A</text><text fill="rgb(0,0,255)" stroke="none" font-family="geogebra-sans-serif, sans-serif" font-size="16px" font-style="normal" font-weight="normal" text-decoration="normal" x="103" y="24" text-anchor="start" dominant-baseline="alphabetic" fill-opacity="1">A</text><path fill="rgb(0,0,255)" stroke="none" paint-order="stroke fill markers" d=" M 290.99999999999994 39.99999999999977 C 290.99999999999994 41.10456949966136 290.1045694996615 41.99999999999977 288.99999999999994 41.99999999999977 C 287.89543050033836 41.99999999999977 286.99999999999994 41.10456949966136 286.99999999999994 39.99999999999977 C 286.99999999999994 38.895430500338186 287.89543050033836 37.99999999999977 288.99999999999994 37.99999999999977 C 290.1045694996615 37.99999999999977 290.99999999999994 38.895430500338186 290.99999999999994 39.99999999999977 Z" fill-opacity="1"/><path fill="none" stroke="rgb(0,0,0)" paint-order="fill stroke markers" d=" M 290.99999999999994 39.99999999999977 C 290.99999999999994 41.10456949966136 290.1045694996615 41.99999999999977 288.99999999999994 41.99999999999977 C 287.89543050033836 41.99999999999977 286.99999999999994 41.10456949966136 286.99999999999994 39.99999999999977 C 286.99999999999994 38.895430500338186 287.89543050033836 37.99999999999977 288.99999999999994 37.99999999999977 C 290.1045694996615 37.99999999999977 290.99999999999994 38.895430500338186 290.99999999999994 39.99999999999977 Z" stroke-opacity="1" stroke-linecap="round" stroke-linejoin="round" stroke-miterlimit="10"/><text fill="rgb(0,0,255)" stroke="none" font-family="geogebra-sans-serif, sans-serif" font-size="16px" font-style="normal" font-weight="normal" text-decoration="normal" x="285" y="25" text-anchor="start" dominant-baseline="alphabetic" fill-opacity="1">B</text><text fill="none" stroke="rgb(255,255,255)" font-family="geogebra-sans-serif, sans-serif" font-size="16px" font-style="normal" font-weight="normal" text-decoration="normal" x="285" y="25" text-anchor="start" dominant-baseline="alphabetic" stroke-opacity="1" stroke-linejoin="bevel" stroke-miterlimit="10" stroke-width="3">B</text><text fill="rgb(0,0,255)" stroke="none" font-family="geogebra-sans-serif, sans-serif" font-size="16px" font-style="normal" font-weight="normal" text-decoration="normal" x="285" y="25" text-anchor="start" dominant-baseline="alphabetic" fill-opacity="1">B</text><path fill="rgb(0,0,255)" stroke="none" paint-order="stroke fill markers" d=" M 256.3333333333333 216.33333333333331 C 256.3333333333333 217.4379028329949 255.4379028329949 218.33333333333331 254.33333333333331 218.33333333333331 C 253.22876383367174 218.33333333333331 252.33333333333331 217.4379028329949 252.33333333333331 216.33333333333331 C 252.33333333333331 215.22876383367174 253.22876383367174 214.33333333333331 254.33333333333331 214.33333333333331 C 255.4379028329949 214.33333333333331 256.3333333333333 215.22876383367174 256.3333333333333 216.33333333333331 Z" fill-opacity="1"/><path fill="none" stroke="rgb(0,0,0)" paint-order="fill stroke markers" d=" M 256.3333333333333 216.33333333333331 C 256.3333333333333 217.4379028329949 255.4379028329949 218.33333333333331 254.33333333333331 218.33333333333331 C 253.22876383367174 218.33333333333331 252.33333333333331 217.4379028329949 252.33333333333331 216.33333333333331 C 252.33333333333331 215.22876383367174 253.22876383367174 214.33333333333331 254.33333333333331 214.33333333333331 C 255.4379028329949 214.33333333333331 256.3333333333333 215.22876383367174 256.3333333333333 216.33333333333331 Z" stroke-opacity="1" stroke-linecap="round" stroke-linejoin="round" stroke-miterlimit="10"/><text fill="rgb(0,0,255)" stroke="none" font-family="geogebra-sans-serif, sans-serif" font-size="16px" font-style="normal" font-weight="normal" text-decoration="normal" x="248" y="241" text-anchor="start" dominant-baseline="alphabetic" fill-opacity="1">M</text><text fill="none" stroke="rgb(255,255,255)" font-family="geogebra-sans-serif, sans-serif" font-size="16px" font-style="normal" font-weight="normal" text-decoration="normal" x="248" y="241" text-anchor="start" dominant-baseline="alphabetic" stroke-opacity="1" stroke-linejoin="bevel" stroke-miterlimit="10" stroke-width="3">M</text><text fill="rgb(0,0,255)" stroke="none" font-family="geogebra-sans-serif, sans-serif" font-size="16px" font-style="normal" font-weight="normal" text-decoration="normal" x="248" y="241" text-anchor="start" dominant-baseline="alphabetic" fill-opacity="1">M</text><text fill="rgb(0,0,0)" stroke="none" font-family="geogebra-sans-serif, sans-serif" font-size="16px" font-style="normal" font-weight="normal" text-decoration="normal" x="94" y="100" text-anchor="start" dominant-baseline="alphabetic" fill-opacity="1">Water</text><text fill="rgb(0,0,0)" stroke="none" font-family="geogebra-sans-serif, sans-serif" font-size="16px" font-style="normal" font-weight="normal" text-decoration="normal" x="339" y="166" text-anchor="start" dominant-baseline="alphabetic" fill-opacity="1">Land</text><path fill="none" stroke="rgb(0,0,0)" paint-order="fill stroke markers" d=" M 33.666666666666735 70.99999999999982 L 35.66666666666673 76.33333333333314 C 36.28232411441203 78.0711281118514 36.821467733775265 79.74894839148037 38.3333333333334 82.99999999999983 C 39.845198932891535 86.25105160851929 42.329786512644574 91.07533454592922 45.00000000000006 97.66666666666652 L 52.33333333333339 117.66666666666654 C 54.140613784353306 122.71695324186469 54.899335291435236 124.45914508819638 56.33333333333339 128.9999999999999 C 57.76733137523155 133.5408549118034 59.87660595194593 140.88037288907873 63.00000000000006 147.66666666666657 C 66.12339404805417 154.45296044425442 70.26090756744802 160.68603002215477 73.00000000000006 164.33333333333326 C 75.7390924325521 167.98063664451172 77.07976377826235 169.04217368896832 79.00000000000006 170.99999999999994 C 80.92023622173775 172.95782631103154 83.42003731950292 175.8119418886382 86.33333333333339 178.33333333333326 C 89.24662934716383 180.85472477802836 92.57342027705953 183.0433920898119 95.66666666666671 184.3333333333333 C 98.7599130562739 185.62327457685464 101.6196149055926 186.0144897521138 103.00000000000004 186.3333333333333 C 104.38038509440749 186.65217691455277 104.28145343390364 186.89864890173254 106.33333333333337 186.3333333333333 L 115.00000000000003 183.66666666666663 C 117.41209530787363 182.9424186923775 118.03359446425748 182.87102586777758 121.6666666666667 180.99999999999994 C 125.29973886907594 179.1289741322223 131.94438411751054 175.45831522126696 137.00000000000003 172.33333333333326 C 142.05561588248955 169.2083514453996 145.52220239903397 166.6290465804876 147.66666666666669 164.99999999999991 C 149.8111309342994 163.37095341951226 150.63347295302037 162.69216512344892 157.66666666666669 158.33333333333326 L 187.66666666666669 139.66666666666657 C 197.38942754444884 133.39770707428355 203.59090389144166 128.8986631736855 207 126.33333333333321 C 210.4090961085584 123.76800349298094 211.02581197868244 123.13638771287445 217 118.99999999999987 L 244.33333333333331 100.99999999999986 L 265.66666666666663 88.33333333333317 C 268.24920475399637 86.69286494547202 264.6909708221568 88.21567380707262 268.3333333333333 86.99999999999983 L 287 80.33333333333316 C 291.1813452012977 78.83649694948537 288.7010766497004 79.79698065753588 289.66666666666663 80.33333333333316 C 290.6322566836329 80.86968600913043 295.04370526916273 80.98190765267452 296.99999999999994 80.99999999999983 C 298.95629473083716 81.01809234732512 298.4574356069816 80.94205539843162 300.99999999999994 81.66666666666649 C 303.5425643930183 82.39127793490137 309.12655230291045 83.91653742026465 314.3333333333333 85.6666666666665 C 319.5401143637562 87.41679591306836 324.3696885147098 89.39179492050884 329.66666666666663 91.66666666666652 L 346.99999999999994 98.99999999999984 L 364.3333333333333 105.66666666666652 C 368.61512973437686 107.45692651130551 370.3991586325908 108.64475648085661 372.99999999999994 109.66666666666653 C 375.6008413674091 110.68857685247644 379.0184952040135 111.5445672545452 384.99999999999994 113.66666666666653 L 404.33333333333326 120.99999999999987 C 409.1398061153122 122.82302549903793 410.20739592390225 123.08086807494008 414.33333333333326 123.66666666666654 L 428.99999999999994 125.66666666666654 C 432.35644424696375 126.16711346738933 431.8850477306199 126.2542524612841 433.66666666666663 126.33333333333321 C 435.4482856027133 126.41241420538233 439.4829199911504 126.48343695558577 441.6666666666666 126.33333333333321 C 443.85041334218266 126.18322971108066 444.18327230477735 125.81199971637204 444.99999999999994 124.99999999999989 C 445.8167276952225 124.18800028362772 447.11732412307265 122.93523084559199 448.6666666666666 121.66666666666654 L 453.33333333333326 117.99999999999987 C 454.6525687970684 116.8862564320738 455.4929510652008 115.94312821603683 456.33333333333326 114.99999999999986" stroke-opacity="0.8470588235294118" stroke-linecap="round" stroke-linejoin="round" stroke-miterlimit="10" stroke-width="5"/></g></g></svg>