<svg version="1.1" xmlns="http://www.w3.org/2000/svg" xmlns:xlink="http://www.w3.org/1999/xlink" width="519" height="256"><defs><clipPath id="OhmWxdSrrXbZ"><path fill="none" stroke="none" d=" M 0 0 L 519 0 L 519 256 L 0 256 L 0 0 Z"/></clipPath></defs><g transform="scale(1,1)" clip-path="url(#OhmWxdSrrXbZ)"><g><rect fill="rgb(255,255,255)" stroke="none" x="0" y="0" width="519" height="256" fill-opacity="1"/><path fill="none" stroke="rgb(0,153,255)" paint-order="fill stroke markers" d=" M 232.99999999999915 130.0000000000001 C 232.99999999999915 185.22847498307942 188.2284749830785 230.00000000000006 132.99999999999932 230.00000000000006 C 77.7715250169201 230.00000000000006 32.9999999999995 185.22847498307942 32.9999999999995 130.0000000000001 C 32.9999999999995 74.7715250169208 77.7715250169201 30.000000000000156 132.99999999999932 30.000000000000156 C 188.2284749830785 30.000000000000156 232.99999999999915 74.7715250169208 232.99999999999915 130.0000000000001 Z" stroke-opacity="0.6980392156862745" stroke-linecap="round" stroke-linejoin="round" stroke-miterlimit="10"/><g transform="scale(19,19)"><g transform="translate(3.789473684210526,1.6415263157894737)"><path fill="rgb(0,153,255)" stroke="none" paint-order="stroke fill markers" d=" M 0.264 -0.082 Q 0.201 0.011 0.11900000000000001 0.011 Q 0.032 0.011 0.016 -0.089 Q 0.013000000000000001 -0.109 0.013000000000000001 -0.131 Q 0.013000000000000001 -0.22 0.051000000000000004 -0.311 Q 0.082 -0.382 0.112 -0.419 Q 0.122 -0.431 0.127 -0.431 Q 0.139 -0.431 0.139 -0.419 Q 0.139 -0.41400000000000003 0.129 -0.4 Q 0.045 -0.28 0.045 -0.17500000000000002 Q 0.045 -0.08 0.109 -0.064 Q 0.12 -0.061 0.133 -0.061 Q 0.201 -0.061 0.257 -0.138 Q 0.264 -0.145 0.266 -0.165 Q 0.276 -0.23800000000000002 0.28700000000000003 -0.266 Q 0.3 -0.291 0.315 -0.291 Q 0.334 -0.291 0.336 -0.268 Q 0.336 -0.24 0.308 -0.168 Q 0.306 -0.161 0.303 -0.155 Q 0.297 -0.14400000000000002 0.297 -0.139 Q 0.297 -0.111 0.317 -0.084 Q 0.335 -0.061 0.372 -0.061 Q 0.449 -0.061 0.511 -0.14400000000000002 Q 0.562 -0.214 0.562 -0.28 Q 0.562 -0.331 0.527 -0.367 Q 0.512 -0.38 0.512 -0.394 Q 0.512 -0.419 0.539 -0.435 Q 0.55 -0.442 0.562 -0.442 Q 0.599 -0.442 0.604 -0.388 Q 0.605 -0.377 0.605 -0.371 Q 0.605 -0.307 0.5750000000000001 -0.213 Q 0.55 -0.136 0.511 -0.082 Q 0.443 0.011 0.358 0.011 Q 0.277 0.011 0.264 -0.082 Z"/></g><g transform="translate(4.411473684210526,1.7915263157894736) scale(0.7,0.7)"><path fill="rgb(0,153,255)" stroke="none" paint-order="stroke fill markers" d=" M 0.449 -0.17400000000000002 L 0.449 -0.17400000000000002 L 0.421 0 L 0.05 0 Q 0.05 -0.025 0.056 -0.032 L 0.061 -0.037 L 0.253 -0.251 Q 0.358 -0.369 0.358 -0.47200000000000003 Q 0.358 -0.561 0.304 -0.607 L 0.303 -0.608 L 0.302 -0.608 Q 0.27 -0.635 0.224 -0.635 Q 0.152 -0.635 0.109 -0.5730000000000001 Q 0.097 -0.555 0.089 -0.533 Q 0.092 -0.534 0.10200000000000001 -0.534 Q 0.14200000000000002 -0.534 0.153 -0.498 L 0.153 -0.497 Q 0.155 -0.49 0.155 -0.482 Q 0.155 -0.442 0.117 -0.431 Q 0.109 -0.429 0.10300000000000001 -0.429 Q 0.066 -0.429 0.054 -0.46 Q 0.05 -0.47100000000000003 0.05 -0.485 Q 0.05 -0.562 0.109 -0.617 Q 0.162 -0.666 0.23700000000000002 -0.666 Q 0.34700000000000003 -0.666 0.40800000000000003 -0.592 Q 0.443 -0.549 0.448 -0.49 Q 0.449 -0.481 0.449 -0.47200000000000003 Q 0.449 -0.399 0.394 -0.333 Q 0.365 -0.299 0.304 -0.243 L 0.243 -0.189 L 0.233 -0.18 L 0.127 -0.077 L 0.307 -0.077 Q 0.395 -0.077 0.402 -0.085 Q 0.41200000000000003 -0.099 0.424 -0.17400000000000002 L 0.449 -0.17400000000000002 Z"/></g></g><path fill="none" stroke="rgb(0,153,255)" paint-order="fill stroke markers" d=" M 357.999999999999 130.0000000000001 C 357.999999999999 157.61423749153977 335.6142374915387 180.0000000000001 307.99999999999903 180.0000000000001 C 280.38576250845944 180.0000000000001 257.99999999999915 157.61423749153977 257.99999999999915 130.0000000000001 C 257.99999999999915 102.38576250846046 280.38576250845944 80.00000000000014 307.99999999999903 80.00000000000014 C 335.6142374915387 80.00000000000014 357.999999999999 102.38576250846046 357.999999999999 130.0000000000001 Z" stroke-opacity="0.6980392156862745" stroke-linecap="round" stroke-linejoin="round" stroke-miterlimit="10"/><g transform="scale(19,19)"><g transform="translate(13.894736842105264,4.273105263157895)"><path fill="rgb(0,153,255)" stroke="none" paint-order="stroke fill markers" d=" M 0.264 -0.082 Q 0.201 0.011 0.11900000000000001 0.011 Q 0.032 0.011 0.016 -0.089 Q 0.013000000000000001 -0.109 0.013000000000000001 -0.131 Q 0.013000000000000001 -0.22 0.051000000000000004 -0.311 Q 0.082 -0.382 0.112 -0.419 Q 0.122 -0.431 0.127 -0.431 Q 0.139 -0.431 0.139 -0.419 Q 0.139 -0.41400000000000003 0.129 -0.4 Q 0.045 -0.28 0.045 -0.17500000000000002 Q 0.045 -0.08 0.109 -0.064 Q 0.12 -0.061 0.133 -0.061 Q 0.201 -0.061 0.257 -0.138 Q 0.264 -0.145 0.266 -0.165 Q 0.276 -0.23800000000000002 0.28700000000000003 -0.266 Q 0.3 -0.291 0.315 -0.291 Q 0.334 -0.291 0.336 -0.268 Q 0.336 -0.24 0.308 -0.168 Q 0.306 -0.161 0.303 -0.155 Q 0.297 -0.14400000000000002 0.297 -0.139 Q 0.297 -0.111 0.317 -0.084 Q 0.335 -0.061 0.372 -0.061 Q 0.449 -0.061 0.511 -0.14400000000000002 Q 0.562 -0.214 0.562 -0.28 Q 0.562 -0.331 0.527 -0.367 Q 0.512 -0.38 0.512 -0.394 Q 0.512 -0.419 0.539 -0.435 Q 0.55 -0.442 0.562 -0.442 Q 0.599 -0.442 0.604 -0.388 Q 0.605 -0.377 0.605 -0.371 Q 0.605 -0.307 0.5750000000000001 -0.213 Q 0.55 -0.136 0.511 -0.082 Q 0.443 0.011 0.358 0.011 Q 0.277 0.011 0.264 -0.082 Z"/></g><g transform="translate(14.516736842105264,4.423105263157895) scale(0.7,0.7)"><path fill="rgb(0,153,255)" stroke="none" paint-order="stroke fill markers" d=" M 0.294 -0.64 L 0.294 -0.079 Q 0.294 -0.049 0.306 -0.041 Q 0.323 -0.031 0.387 -0.031 L 0.419 -0.031 L 0.419 0 Q 0.384 -0.003 0.257 -0.003 Q 0.13 -0.003 0.095 0 L 0.095 -0.031 L 0.127 -0.031 Q 0.20400000000000001 -0.031 0.215 -0.049 L 0.216 -0.05 Q 0.22 -0.058 0.22 -0.079 L 0.22 -0.597 Q 0.168 -0.5710000000000001 0.089 -0.5710000000000001 L 0.089 -0.602 Q 0.209 -0.602 0.271 -0.666 Q 0.29 -0.666 0.293 -0.659 L 0.293 -0.659 L 0.293 -0.658 Q 0.294 -0.655 0.294 -0.64 Z"/></g></g><g transform="scale(19,19)"><g transform="translate(15.368421052631579,3.167842105263158)"><path fill="rgb(0,100,0)" stroke="none" paint-order="stroke fill markers" d=" M 0.088 -0.059000000000000004 L 0.088 -0.059000000000000004 L 0.146 -0.29 Q 0.162 -0.354 0.162 -0.374 Q 0.162 -0.42 0.131 -0.42 Q 0.09 -0.42 0.064 -0.325 Q 0.061 -0.314 0.058 -0.301 Q 0.047 -0.279 0.041 -0.278 Q 0.029 -0.278 0.029 -0.28800000000000003 Q 0.029 -0.304 0.048 -0.356 Q 0.054 -0.373 0.06 -0.385 Q 0.084 -0.434 0.12 -0.441 Q 0.127 -0.442 0.134 -0.442 Q 0.188 -0.442 0.214 -0.397 Q 0.224 -0.378 0.226 -0.355 Q 0.29 -0.442 0.382 -0.442 Q 0.433 -0.442 0.464 -0.41600000000000004 Q 0.492 -0.392 0.496 -0.34500000000000003 Q 0.5640000000000001 -0.442 0.659 -0.442 Q 0.748 -0.442 0.769 -0.373 L 0.769 -0.372 Q 0.774 -0.355 0.774 -0.335 Q 0.774 -0.28200000000000003 0.713 -0.115 Q 0.6950000000000001 -0.07100000000000001 0.6950000000000001 -0.044 Q 0.6950000000000001 -0.011 0.719 -0.011 Q 0.781 -0.011 0.8170000000000001 -0.121 L 0.8210000000000001 -0.135 Q 0.8260000000000001 -0.151 0.8310000000000001 -0.152 L 0.8310000000000001 -0.153 L 0.836 -0.153 Q 0.848 -0.153 0.848 -0.14300000000000002 Q 0.848 -0.126 0.8270000000000001 -0.08 Q 0.784 0.011 0.717 0.011 Q 0.666 0.011 0.644 -0.032 Q 0.635 -0.05 0.635 -0.07100000000000001 Q 0.635 -0.091 0.648 -0.126 Q 0.71 -0.29 0.71 -0.35000000000000003 Q 0.71 -0.42 0.656 -0.42 Q 0.5680000000000001 -0.42 0.51 -0.325 Q 0.494 -0.3 0.491 -0.28700000000000003 Q 0.488 -0.274 0.431 -0.046 Q 0.42 -0.003 0.406 0.006 L 0.405 0.007 L 0.404 0.007 Q 0.397 0.011 0.386 0.011 Q 0.361 0.006 0.357 -0.016 L 0.37 -0.075 L 0.39 -0.151 L 0.418 -0.267 Q 0.433 -0.323 0.433 -0.35000000000000003 Q 0.433 -0.42 0.379 -0.42 Q 0.289 -0.42 0.228 -0.32 Q 0.221 -0.309 0.216 -0.298 L 0.203 -0.248 Q 0.198 -0.225 0.186 -0.181 L 0.164 -0.091 Q 0.147 -0.022 0.145 -0.017 Q 0.136 0.009000000000000001 0.108 0.011 Q 0.083 0.006 0.079 -0.016 Q 0.079 -0.014 0.088 -0.059000000000000004 Z"/></g></g><path fill="none" stroke="rgb(0,100,0)" paint-order="fill stroke markers" d=" M 100.42238138081814 15.937391746338221 L 483.00000000000347 130" stroke-opacity="0.6980392156862745" stroke-linecap="round" stroke-linejoin="round" stroke-miterlimit="10"/><g transform="scale(19,19)"><g transform="translate(15.105263157894736,10.957315789473684)"><path fill="rgb(0,100,0)" stroke="none" paint-order="stroke fill markers" d=" M 0.088 -0.059000000000000004 L 0.088 -0.059000000000000004 L 0.146 -0.29 Q 0.162 -0.354 0.162 -0.374 Q 0.162 -0.42 0.131 -0.42 Q 0.09 -0.42 0.064 -0.325 Q 0.061 -0.314 0.058 -0.301 Q 0.047 -0.279 0.041 -0.278 Q 0.029 -0.278 0.029 -0.28800000000000003 Q 0.029 -0.304 0.049 -0.36 L 0.049 -0.361 Q 0.049 -0.362 0.05 -0.362 L 0.05 -0.363 L 0.05 -0.364 L 0.059000000000000004 -0.385 Q 0.081 -0.425 0.10400000000000001 -0.435 Q 0.11800000000000001 -0.442 0.134 -0.442 Q 0.19 -0.442 0.215 -0.395 Q 0.224 -0.377 0.226 -0.355 Q 0.29 -0.442 0.382 -0.442 Q 0.468 -0.442 0.491 -0.376 Q 0.497 -0.358 0.497 -0.335 Q 0.497 -0.28400000000000003 0.436 -0.115 Q 0.418 -0.07100000000000001 0.418 -0.044 Q 0.418 -0.011 0.442 -0.011 Q 0.508 -0.011 0.544 -0.135 Q 0.549 -0.151 0.554 -0.152 L 0.554 -0.153 L 0.559 -0.153 Q 0.5710000000000001 -0.153 0.5710000000000001 -0.14300000000000002 Q 0.5710000000000001 -0.126 0.55 -0.08 Q 0.507 0.011 0.44 0.011 Q 0.389 0.011 0.367 -0.032 Q 0.358 -0.05 0.358 -0.07100000000000001 Q 0.358 -0.091 0.368 -0.117 Q 0.433 -0.292 0.433 -0.35000000000000003 Q 0.433 -0.42 0.379 -0.42 Q 0.289 -0.42 0.228 -0.32 Q 0.221 -0.309 0.216 -0.298 L 0.203 -0.248 Q 0.198 -0.225 0.186 -0.181 L 0.164 -0.091 Q 0.147 -0.022 0.145 -0.017 Q 0.136 0.009000000000000001 0.108 0.011 Q 0.083 0.006 0.079 -0.016 Q 0.079 -0.014 0.088 -0.059000000000000004 Z"/></g></g><path fill="none" stroke="rgb(0,100,0)" paint-order="fill stroke markers" d=" M 483.00000000000347 130 L 97.57032471949145 244.91292726304937" stroke-opacity="0.6980392156862745" stroke-linecap="round" stroke-linejoin="round" stroke-miterlimit="10"/><path fill="none" stroke="rgb(244,0,153)" paint-order="fill stroke markers" d=" M 357.67979289307385 124.35038248186495 L 259.030082615495 119.90310981762804" stroke-opacity="0.6980392156862745" stroke-linecap="round" stroke-linejoin="round" stroke-miterlimit="10"/><path fill="none" stroke="rgb(244,0,153)" paint-order="fill stroke markers" d=" M 259.030082615495 119.90310981762804 L 322.2857142857136 82.08425762500511" stroke-opacity="0.6980392156862745" stroke-linecap="round" stroke-linejoin="round" stroke-miterlimit="10"/><path fill="none" stroke="rgb(244,0,153)" paint-order="fill stroke markers" d=" M 322.2857142857136 82.08425762500511 L 357.67979289307385 124.35038248186495" stroke-opacity="0.6980392156862745" stroke-linecap="round" stroke-linejoin="round" stroke-miterlimit="10"/><path fill="none" stroke="rgb(244,0,153)" paint-order="fill stroke markers" d=" M 232.359585786148 118.70076496373008 L 35.06016523099203 109.8062196352563" stroke-opacity="0.6980392156862745" stroke-linecap="round" stroke-linejoin="round" stroke-miterlimit="10"/><path fill="none" stroke="rgb(244,0,153)" paint-order="fill stroke markers" d=" M 35.06016523099203 109.8062196352563 L 161.57142857142748 34.16851525000749" stroke-opacity="0.6980392156862745" stroke-linecap="round" stroke-linejoin="round" stroke-miterlimit="10"/><path fill="none" stroke="rgb(244,0,153)" paint-order="fill stroke markers" d=" M 161.57142857142748 34.16851525000749 L 232.359585786148 118.70076496373008" stroke-opacity="0.6980392156862745" stroke-linecap="round" stroke-linejoin="round" stroke-miterlimit="10"/><path fill="none" stroke="rgb(0,0,0)" paint-order="fill stroke markers" d=" M 161.57142857142748 34.16851525000749 L 133.70987550857 114.25349229949322" stroke-opacity="0.6980392156862745" stroke-linejoin="round" stroke-miterlimit="10" stroke-dasharray="9,8"/><path fill="none" stroke="rgb(0,0,0)" paint-order="fill stroke markers" d=" M 98.31579690120975 71.98736744263189 L 232.359585786148 118.70076496373008" stroke-opacity="0.6980392156862745" stroke-linejoin="round" stroke-miterlimit="10" stroke-dasharray="9,8"/><path fill="none" stroke="rgb(0,0,0)" paint-order="fill stroke markers" d=" M 290.65789845060436 100.99368372131659 L 357.67979289307385 124.35038248186495" stroke-opacity="0.6980392156862745" stroke-linejoin="round" stroke-miterlimit="10" stroke-dasharray="9,8"/><path fill="none" stroke="rgb(0,0,0)" paint-order="fill stroke markers" d=" M 322.2857142857136 82.08425762500511 L 308.35493775428444 122.12674614974648" stroke-opacity="0.6980392156862745" stroke-linejoin="round" stroke-miterlimit="10" stroke-dasharray="9,8"/><path fill="none" stroke="rgb(255,85,0)" paint-order="fill stroke markers" d=" M 142.99705986285596 87.55849994966465 L 483.00000000000347 130" stroke-opacity="0.6980392156862745" stroke-linejoin="round" stroke-miterlimit="10" stroke-dasharray="9,8"/><path fill="none" stroke="rgb(0,100,0)" paint-order="fill stroke markers" d=" M 232.359585786148 118.70076496373008 L 259.030082615495 119.90310981762804" stroke-opacity="0.6980392156862745" stroke-linecap="round" stroke-linejoin="round" stroke-miterlimit="10"/><path fill="none" stroke="rgb(0,100,0)" paint-order="fill stroke markers" d=" M 357.67979289307385 124.35038248186495 L 483.00000000000347 130" stroke-opacity="0.6980392156862745" stroke-linecap="round" stroke-linejoin="round" stroke-miterlimit="10"/><path fill="rgb(0,0,255)" stroke="none" paint-order="stroke fill markers" d=" M 134.99999999999932 130.0000000000001 C 134.99999999999932 131.1045694996617 134.1045694996609 132.0000000000001 132.99999999999932 132.0000000000001 C 131.89543050033774 132.0000000000001 130.99999999999932 131.1045694996617 130.99999999999932 130.0000000000001 C 130.99999999999932 128.89543050033853 131.89543050033774 128.0000000000001 132.99999999999932 128.0000000000001 C 134.1045694996609 128.0000000000001 134.99999999999932 128.89543050033853 134.99999999999932 130.0000000000001 Z" fill-opacity="1"/><path fill="none" stroke="rgb(0,0,0)" paint-order="fill stroke markers" d=" M 134.99999999999932 130.0000000000001 C 134.99999999999932 131.1045694996617 134.1045694996609 132.0000000000001 132.99999999999932 132.0000000000001 C 131.89543050033774 132.0000000000001 130.99999999999932 131.1045694996617 130.99999999999932 130.0000000000001 C 130.99999999999932 128.89543050033853 131.89543050033774 128.0000000000001 132.99999999999932 128.0000000000001 C 134.1045694996609 128.0000000000001 134.99999999999932 128.89543050033853 134.99999999999932 130.0000000000001 Z" stroke-opacity="1" stroke-linecap="round" stroke-linejoin="round" stroke-miterlimit="10"/><text fill="rgb(0,0,255)" stroke="none" font-family="geogebra-sans-serif, sans-serif" font-size="16px" font-style="normal" font-weight="normal" text-decoration="normal" x="125" y="150" text-anchor="start" dominant-baseline="alphabetic" fill-opacity="1">O</text><text fill="none" stroke="rgb(255,255,255)" font-family="geogebra-sans-serif, sans-serif" font-size="16px" font-style="normal" font-weight="normal" text-decoration="normal" x="125" y="150" text-anchor="start" dominant-baseline="alphabetic" stroke-opacity="1" stroke-linejoin="bevel" stroke-miterlimit="10" stroke-width="3">O</text><text fill="rgb(0,0,255)" stroke="none" font-family="geogebra-sans-serif, sans-serif" font-size="16px" font-style="normal" font-weight="normal" text-decoration="normal" x="125" y="150" text-anchor="start" dominant-baseline="alphabetic" fill-opacity="1">O</text><text fill="rgb(0,0,255)" stroke="none" font-family="geogebra-sans-serif, sans-serif" font-size="14px" font-style="normal" font-weight="normal" text-decoration="normal" x="137" y="157" text-anchor="start" dominant-baseline="alphabetic" fill-opacity="1">2</text><text fill="none" stroke="rgb(255,255,255)" font-family="geogebra-sans-serif, sans-serif" font-size="14px" font-style="normal" font-weight="normal" text-decoration="normal" x="137" y="157" text-anchor="start" dominant-baseline="alphabetic" stroke-opacity="1" stroke-linejoin="bevel" stroke-miterlimit="10" stroke-width="3">2</text><text fill="rgb(0,0,255)" stroke="none" font-family="geogebra-sans-serif, sans-serif" font-size="14px" font-style="normal" font-weight="normal" text-decoration="normal" x="137" y="157" text-anchor="start" dominant-baseline="alphabetic" fill-opacity="1">2</text><path fill="rgb(0,0,255)" stroke="none" paint-order="stroke fill markers" d=" M 309.99999999999903 130.0000000000001 C 309.99999999999903 131.1045694996617 309.1045694996606 132.0000000000001 307.99999999999903 132.0000000000001 C 306.89543050033745 132.0000000000001 305.99999999999903 131.1045694996617 305.99999999999903 130.0000000000001 C 305.99999999999903 128.89543050033853 306.89543050033745 128.0000000000001 307.99999999999903 128.0000000000001 C 309.1045694996606 128.0000000000001 309.99999999999903 128.89543050033853 309.99999999999903 130.0000000000001 Z" fill-opacity="1"/><path fill="none" stroke="rgb(0,0,0)" paint-order="fill stroke markers" d=" M 309.99999999999903 130.0000000000001 C 309.99999999999903 131.1045694996617 309.1045694996606 132.0000000000001 307.99999999999903 132.0000000000001 C 306.89543050033745 132.0000000000001 305.99999999999903 131.1045694996617 305.99999999999903 130.0000000000001 C 305.99999999999903 128.89543050033853 306.89543050033745 128.0000000000001 307.99999999999903 128.0000000000001 C 309.1045694996606 128.0000000000001 309.99999999999903 128.89543050033853 309.99999999999903 130.0000000000001 Z" stroke-opacity="1" stroke-linecap="round" stroke-linejoin="round" stroke-miterlimit="10"/><text fill="rgb(0,0,255)" stroke="none" font-family="geogebra-sans-serif, sans-serif" font-size="16px" font-style="normal" font-weight="normal" text-decoration="normal" x="307" y="151" text-anchor="start" dominant-baseline="alphabetic" fill-opacity="1">O</text><text fill="none" stroke="rgb(255,255,255)" font-family="geogebra-sans-serif, sans-serif" font-size="16px" font-style="normal" font-weight="normal" text-decoration="normal" x="307" y="151" text-anchor="start" dominant-baseline="alphabetic" stroke-opacity="1" stroke-linejoin="bevel" stroke-miterlimit="10" stroke-width="3">O</text><text fill="rgb(0,0,255)" stroke="none" font-family="geogebra-sans-serif, sans-serif" font-size="16px" font-style="normal" font-weight="normal" text-decoration="normal" x="307" y="151" text-anchor="start" dominant-baseline="alphabetic" fill-opacity="1">O</text><text fill="rgb(0,0,255)" stroke="none" font-family="geogebra-sans-serif, sans-serif" font-size="14px" font-style="normal" font-weight="normal" text-decoration="normal" x="319" y="158" text-anchor="start" dominant-baseline="alphabetic" fill-opacity="1">1</text><text fill="none" stroke="rgb(255,255,255)" font-family="geogebra-sans-serif, sans-serif" font-size="14px" font-style="normal" font-weight="normal" text-decoration="normal" x="319" y="158" text-anchor="start" dominant-baseline="alphabetic" stroke-opacity="1" stroke-linejoin="bevel" stroke-miterlimit="10" stroke-width="3">1</text><text fill="rgb(0,0,255)" stroke="none" font-family="geogebra-sans-serif, sans-serif" font-size="14px" font-style="normal" font-weight="normal" text-decoration="normal" x="319" y="158" text-anchor="start" dominant-baseline="alphabetic" fill-opacity="1">1</text><path fill="rgb(0,0,255)" stroke="none" paint-order="stroke fill markers" d=" M 485.00000000000347 130 C 485.00000000000347 131.10456949966158 484.10456949966505 132 483.00000000000347 132 C 481.8954305003419 132 481.00000000000347 131.10456949966158 481.00000000000347 130 C 481.00000000000347 128.89543050033842 481.8954305003419 128 483.00000000000347 128 C 484.10456949966505 128 485.00000000000347 128.89543050033842 485.00000000000347 130 Z" fill-opacity="1"/><path fill="none" stroke="rgb(0,0,0)" paint-order="fill stroke markers" d=" M 485.00000000000347 130 C 485.00000000000347 131.10456949966158 484.10456949966505 132 483.00000000000347 132 C 481.8954305003419 132 481.00000000000347 131.10456949966158 481.00000000000347 130 C 481.00000000000347 128.89543050033842 481.8954305003419 128 483.00000000000347 128 C 484.10456949966505 128 485.00000000000347 128.89543050033842 485.00000000000347 130 Z" stroke-opacity="1" stroke-linecap="round" stroke-linejoin="round" stroke-miterlimit="10"/><text fill="rgb(0,0,255)" stroke="none" font-family="geogebra-sans-serif, sans-serif" font-size="16px" font-style="normal" font-weight="normal" text-decoration="normal" x="487" y="126" text-anchor="start" dominant-baseline="alphabetic" fill-opacity="1">M</text><text fill="none" stroke="rgb(255,255,255)" font-family="geogebra-sans-serif, sans-serif" font-size="16px" font-style="normal" font-weight="normal" text-decoration="normal" x="487" y="126" text-anchor="start" dominant-baseline="alphabetic" stroke-opacity="1" stroke-linejoin="bevel" stroke-miterlimit="10" stroke-width="3">M</text><text fill="rgb(0,0,255)" stroke="none" font-family="geogebra-sans-serif, sans-serif" font-size="16px" font-style="normal" font-weight="normal" text-decoration="normal" x="487" y="126" text-anchor="start" dominant-baseline="alphabetic" fill-opacity="1">M</text><path fill="rgb(0,0,255)" stroke="none" paint-order="stroke fill markers" d=" M 163.57142857142748 34.16851525000749 C 163.57142857142748 35.273084749669074 162.67599807108905 36.16851525000749 161.57142857142748 36.16851525000749 C 160.4668590717659 36.16851525000749 159.57142857142748 35.273084749669074 159.57142857142748 34.16851525000749 C 159.57142857142748 33.0639457503459 160.4668590717659 32.16851525000749 161.57142857142748 32.16851525000749 C 162.67599807108905 32.16851525000749 163.57142857142748 33.0639457503459 163.57142857142748 34.16851525000749 Z" fill-opacity="1"/><path fill="none" stroke="rgb(0,0,0)" paint-order="fill stroke markers" d=" M 163.57142857142748 34.16851525000749 C 163.57142857142748 35.273084749669074 162.67599807108905 36.16851525000749 161.57142857142748 36.16851525000749 C 160.4668590717659 36.16851525000749 159.57142857142748 35.273084749669074 159.57142857142748 34.16851525000749 C 159.57142857142748 33.0639457503459 160.4668590717659 32.16851525000749 161.57142857142748 32.16851525000749 C 162.67599807108905 32.16851525000749 163.57142857142748 33.0639457503459 163.57142857142748 34.16851525000749 Z" stroke-opacity="1" stroke-linecap="round" stroke-linejoin="round" stroke-miterlimit="10"/><text fill="rgb(0,0,255)" stroke="none" font-family="geogebra-sans-serif, sans-serif" font-size="16px" font-style="normal" font-weight="normal" text-decoration="normal" x="166" y="30" text-anchor="start" dominant-baseline="alphabetic" fill-opacity="1">F</text><text fill="none" stroke="rgb(255,255,255)" font-family="geogebra-sans-serif, sans-serif" font-size="16px" font-style="normal" font-weight="normal" text-decoration="normal" x="166" y="30" text-anchor="start" dominant-baseline="alphabetic" stroke-opacity="1" stroke-linejoin="bevel" stroke-miterlimit="10" stroke-width="3">F</text><text fill="rgb(0,0,255)" stroke="none" font-family="geogebra-sans-serif, sans-serif" font-size="16px" font-style="normal" font-weight="normal" text-decoration="normal" x="166" y="30" text-anchor="start" dominant-baseline="alphabetic" fill-opacity="1">F</text><path fill="rgb(0,0,255)" stroke="none" paint-order="stroke fill markers" d=" M 324.2857142857136 82.08425762500511 C 324.2857142857136 83.18882712466669 323.3902837853752 84.08425762500511 322.2857142857136 84.08425762500511 C 321.181144786052 84.08425762500511 320.2857142857136 83.18882712466669 320.2857142857136 82.08425762500511 C 320.2857142857136 80.97968812534351 321.181144786052 80.08425762500511 322.2857142857136 80.08425762500511 C 323.3902837853752 80.08425762500511 324.2857142857136 80.97968812534351 324.2857142857136 82.08425762500511 Z" fill-opacity="1"/><path fill="none" stroke="rgb(0,0,0)" paint-order="fill stroke markers" d=" M 324.2857142857136 82.08425762500511 C 324.2857142857136 83.18882712466669 323.3902837853752 84.08425762500511 322.2857142857136 84.08425762500511 C 321.181144786052 84.08425762500511 320.2857142857136 83.18882712466669 320.2857142857136 82.08425762500511 C 320.2857142857136 80.97968812534351 321.181144786052 80.08425762500511 322.2857142857136 80.08425762500511 C 323.3902837853752 80.08425762500511 324.2857142857136 80.97968812534351 324.2857142857136 82.08425762500511 Z" stroke-opacity="1" stroke-linecap="round" stroke-linejoin="round" stroke-miterlimit="10"/><text fill="rgb(0,0,255)" stroke="none" font-family="geogebra-sans-serif, sans-serif" font-size="16px" font-style="normal" font-weight="normal" text-decoration="normal" x="326" y="78" text-anchor="start" dominant-baseline="alphabetic" fill-opacity="1">E</text><text fill="none" stroke="rgb(255,255,255)" font-family="geogebra-sans-serif, sans-serif" font-size="16px" font-style="normal" font-weight="normal" text-decoration="normal" x="326" y="78" text-anchor="start" dominant-baseline="alphabetic" stroke-opacity="1" stroke-linejoin="bevel" stroke-miterlimit="10" stroke-width="3">E</text><text fill="rgb(0,0,255)" stroke="none" font-family="geogebra-sans-serif, sans-serif" font-size="16px" font-style="normal" font-weight="normal" text-decoration="normal" x="326" y="78" text-anchor="start" dominant-baseline="alphabetic" fill-opacity="1">E</text><path fill="rgb(0,0,255)" stroke="none" paint-order="stroke fill markers" d=" M 37.06016523099203 109.8062196352563 C 37.06016523099203 110.91078913491788 36.16473473065361 111.8062196352563 35.06016523099203 111.8062196352563 C 33.95559573133044 111.8062196352563 33.06016523099203 110.91078913491788 33.06016523099203 109.8062196352563 C 33.06016523099203 108.7016501355947 33.95559573133044 107.8062196352563 35.06016523099203 107.8062196352563 C 36.16473473065361 107.8062196352563 37.06016523099203 108.7016501355947 37.06016523099203 109.8062196352563 Z" fill-opacity="1"/><path fill="none" stroke="rgb(0,0,0)" paint-order="fill stroke markers" d=" M 37.06016523099203 109.8062196352563 C 37.06016523099203 110.91078913491788 36.16473473065361 111.8062196352563 35.06016523099203 111.8062196352563 C 33.95559573133044 111.8062196352563 33.06016523099203 110.91078913491788 33.06016523099203 109.8062196352563 C 33.06016523099203 108.7016501355947 33.95559573133044 107.8062196352563 35.06016523099203 107.8062196352563 C 36.16473473065361 107.8062196352563 37.06016523099203 108.7016501355947 37.06016523099203 109.8062196352563 Z" stroke-opacity="1" stroke-linecap="round" stroke-linejoin="round" stroke-miterlimit="10"/><text fill="rgb(0,0,255)" stroke="none" font-family="geogebra-sans-serif, sans-serif" font-size="16px" font-style="normal" font-weight="normal" text-decoration="normal" x="13" y="114" text-anchor="start" dominant-baseline="alphabetic" fill-opacity="1">D</text><text fill="none" stroke="rgb(255,255,255)" font-family="geogebra-sans-serif, sans-serif" font-size="16px" font-style="normal" font-weight="normal" text-decoration="normal" x="13" y="114" text-anchor="start" dominant-baseline="alphabetic" stroke-opacity="1" stroke-linejoin="bevel" stroke-miterlimit="10" stroke-width="3">D</text><text fill="rgb(0,0,255)" stroke="none" font-family="geogebra-sans-serif, sans-serif" font-size="16px" font-style="normal" font-weight="normal" text-decoration="normal" x="13" y="114" text-anchor="start" dominant-baseline="alphabetic" fill-opacity="1">D</text><path fill="rgb(0,0,255)" stroke="none" paint-order="stroke fill markers" d=" M 359.67979289307385 124.35038248186495 C 359.67979289307385 125.45495198152653 358.78436239273543 126.35038248186495 357.67979289307385 126.35038248186495 C 356.5752233934123 126.35038248186495 355.67979289307385 125.45495198152653 355.67979289307385 124.35038248186495 C 355.67979289307385 123.24581298220336 356.5752233934123 122.35038248186495 357.67979289307385 122.35038248186495 C 358.78436239273543 122.35038248186495 359.67979289307385 123.24581298220336 359.67979289307385 124.35038248186495 Z" fill-opacity="1"/><path fill="none" stroke="rgb(0,0,0)" paint-order="fill stroke markers" d=" M 359.67979289307385 124.35038248186495 C 359.67979289307385 125.45495198152653 358.78436239273543 126.35038248186495 357.67979289307385 126.35038248186495 C 356.5752233934123 126.35038248186495 355.67979289307385 125.45495198152653 355.67979289307385 124.35038248186495 C 355.67979289307385 123.24581298220336 356.5752233934123 122.35038248186495 357.67979289307385 122.35038248186495 C 358.78436239273543 122.35038248186495 359.67979289307385 123.24581298220336 359.67979289307385 124.35038248186495 Z" stroke-opacity="1" stroke-linecap="round" stroke-linejoin="round" stroke-miterlimit="10"/><text fill="rgb(0,0,255)" stroke="none" font-family="geogebra-sans-serif, sans-serif" font-size="16px" font-style="normal" font-weight="normal" text-decoration="normal" x="342" y="142" text-anchor="start" dominant-baseline="alphabetic" fill-opacity="1">A</text><text fill="none" stroke="rgb(255,255,255)" font-family="geogebra-sans-serif, sans-serif" font-size="16px" font-style="normal" font-weight="normal" text-decoration="normal" x="342" y="142" text-anchor="start" dominant-baseline="alphabetic" stroke-opacity="1" stroke-linejoin="bevel" stroke-miterlimit="10" stroke-width="3">A</text><text fill="rgb(0,0,255)" stroke="none" font-family="geogebra-sans-serif, sans-serif" font-size="16px" font-style="normal" font-weight="normal" text-decoration="normal" x="342" y="142" text-anchor="start" dominant-baseline="alphabetic" fill-opacity="1">A</text><path fill="rgb(0,0,255)" stroke="none" paint-order="stroke fill markers" d=" M 261.030082615495 119.90310981762804 C 261.030082615495 121.00767931728961 260.1346521151566 121.90310981762804 259.030082615495 121.90310981762804 C 257.92551311583344 121.90310981762804 257.030082615495 121.00767931728961 257.030082615495 119.90310981762804 C 257.030082615495 118.79854031796644 257.92551311583344 117.90310981762804 259.030082615495 117.90310981762804 C 260.1346521151566 117.90310981762804 261.030082615495 118.79854031796644 261.030082615495 119.90310981762804 Z" fill-opacity="1"/><path fill="none" stroke="rgb(0,0,0)" paint-order="fill stroke markers" d=" M 261.030082615495 119.90310981762804 C 261.030082615495 121.00767931728961 260.1346521151566 121.90310981762804 259.030082615495 121.90310981762804 C 257.92551311583344 121.90310981762804 257.030082615495 121.00767931728961 257.030082615495 119.90310981762804 C 257.030082615495 118.79854031796644 257.92551311583344 117.90310981762804 259.030082615495 117.90310981762804 C 260.1346521151566 117.90310981762804 261.030082615495 118.79854031796644 261.030082615495 119.90310981762804 Z" stroke-opacity="1" stroke-linecap="round" stroke-linejoin="round" stroke-miterlimit="10"/><text fill="rgb(0,0,255)" stroke="none" font-family="geogebra-sans-serif, sans-serif" font-size="16px" font-style="normal" font-weight="normal" text-decoration="normal" x="265" y="140" text-anchor="start" dominant-baseline="alphabetic" fill-opacity="1">B</text><text fill="none" stroke="rgb(255,255,255)" font-family="geogebra-sans-serif, sans-serif" font-size="16px" font-style="normal" font-weight="normal" text-decoration="normal" x="265" y="140" text-anchor="start" dominant-baseline="alphabetic" stroke-opacity="1" stroke-linejoin="bevel" stroke-miterlimit="10" stroke-width="3">B</text><text fill="rgb(0,0,255)" stroke="none" font-family="geogebra-sans-serif, sans-serif" font-size="16px" font-style="normal" font-weight="normal" text-decoration="normal" x="265" y="140" text-anchor="start" dominant-baseline="alphabetic" fill-opacity="1">B</text><path fill="rgb(0,0,255)" stroke="none" paint-order="stroke fill markers" d=" M 234.359585786148 118.70076496373008 C 234.359585786148 119.80533446339166 233.46415528580957 120.70076496373008 232.359585786148 120.70076496373008 C 231.2550162864864 120.70076496373008 230.359585786148 119.80533446339166 230.359585786148 118.70076496373008 C 230.359585786148 117.59619546406849 231.2550162864864 116.70076496373008 232.359585786148 116.70076496373008 C 233.46415528580957 116.70076496373008 234.359585786148 117.59619546406849 234.359585786148 118.70076496373008 Z" fill-opacity="1"/><path fill="none" stroke="rgb(0,0,0)" paint-order="fill stroke markers" d=" M 234.359585786148 118.70076496373008 C 234.359585786148 119.80533446339166 233.46415528580957 120.70076496373008 232.359585786148 120.70076496373008 C 231.2550162864864 120.70076496373008 230.359585786148 119.80533446339166 230.359585786148 118.70076496373008 C 230.359585786148 117.59619546406849 231.2550162864864 116.70076496373008 232.359585786148 116.70076496373008 C 233.46415528580957 116.70076496373008 234.359585786148 117.59619546406849 234.359585786148 118.70076496373008 Z" stroke-opacity="1" stroke-linecap="round" stroke-linejoin="round" stroke-miterlimit="10"/><text fill="rgb(0,0,255)" stroke="none" font-family="geogebra-sans-serif, sans-serif" font-size="16px" font-style="normal" font-weight="normal" text-decoration="normal" x="212" y="141" text-anchor="start" dominant-baseline="alphabetic" fill-opacity="1">C</text><text fill="none" stroke="rgb(255,255,255)" font-family="geogebra-sans-serif, sans-serif" font-size="16px" font-style="normal" font-weight="normal" text-decoration="normal" x="212" y="141" text-anchor="start" dominant-baseline="alphabetic" stroke-opacity="1" stroke-linejoin="bevel" stroke-miterlimit="10" stroke-width="3">C</text><text fill="rgb(0,0,255)" stroke="none" font-family="geogebra-sans-serif, sans-serif" font-size="16px" font-style="normal" font-weight="normal" text-decoration="normal" x="212" y="141" text-anchor="start" dominant-baseline="alphabetic" fill-opacity="1">C</text><path fill="rgb(255,85,0)" stroke="none" paint-order="stroke fill markers" d=" M 144.99705986285596 87.55849994966465 C 144.99705986285596 88.66306944932623 144.10162936251754 89.55849994966465 142.99705986285596 89.55849994966465 C 141.89249036319438 89.55849994966465 140.99705986285596 88.66306944932623 140.99705986285596 87.55849994966465 C 140.99705986285596 86.45393045000306 141.89249036319438 85.55849994966465 142.99705986285596 85.55849994966465 C 144.10162936251754 85.55849994966465 144.99705986285596 86.45393045000306 144.99705986285596 87.55849994966465 Z" fill-opacity="1"/><path fill="none" stroke="rgb(0,0,0)" paint-order="fill stroke markers" d=" M 144.99705986285596 87.55849994966465 C 144.99705986285596 88.66306944932623 144.10162936251754 89.55849994966465 142.99705986285596 89.55849994966465 C 141.89249036319438 89.55849994966465 140.99705986285596 88.66306944932623 140.99705986285596 87.55849994966465 C 140.99705986285596 86.45393045000306 141.89249036319438 85.55849994966465 142.99705986285596 85.55849994966465 C 144.10162936251754 85.55849994966465 144.99705986285596 86.45393045000306 144.99705986285596 87.55849994966465 Z" stroke-opacity="1" stroke-linecap="round" stroke-linejoin="round" stroke-miterlimit="10"/><path fill="rgb(255,85,0)" stroke="none" paint-order="stroke fill markers" d=" M 314.9985299314275 108.77924997483291 C 314.9985299314275 109.88381947449449 314.1030994310891 110.77924997483291 312.9985299314275 110.77924997483291 C 311.89396043176595 110.77924997483291 310.9985299314275 109.88381947449449 310.9985299314275 108.77924997483291 C 310.9985299314275 107.67468047517131 311.89396043176595 106.77924997483291 312.9985299314275 106.77924997483291 C 314.1030994310891 106.77924997483291 314.9985299314275 107.67468047517131 314.9985299314275 108.77924997483291 Z" fill-opacity="1"/><path fill="none" stroke="rgb(0,0,0)" paint-order="fill stroke markers" d=" M 314.9985299314275 108.77924997483291 C 314.9985299314275 109.88381947449449 314.1030994310891 110.77924997483291 312.9985299314275 110.77924997483291 C 311.89396043176595 110.77924997483291 310.9985299314275 109.88381947449449 310.9985299314275 108.77924997483291 C 310.9985299314275 107.67468047517131 311.89396043176595 106.77924997483291 312.9985299314275 106.77924997483291 C 314.1030994310891 106.77924997483291 314.9985299314275 107.67468047517131 314.9985299314275 108.77924997483291 Z" stroke-opacity="1" stroke-linecap="round" stroke-linejoin="round" stroke-miterlimit="10"/></g></g></svg>