<svg version="1.1" xmlns="http://www.w3.org/2000/svg" xmlns:xlink="http://www.w3.org/1999/xlink" width="345" height="179"><defs><clipPath id="hPmOziANdtIK"><path fill="none" stroke="none" d=" M 0 0 L 345 0 L 345 179 L 0 179 L 0 0 Z"/></clipPath></defs><g transform="scale(1,1)" clip-path="url(#hPmOziANdtIK)"><g><rect fill="rgb(255,255,255)" stroke="none" x="0" y="0" width="345" height="179" fill-opacity="1"/><path fill="none" stroke="rgb(0,100,0)" paint-order="fill stroke markers" d=" M 84.99999999999991 33.69999999999999 L 194.9999999999999 33.69999999999999" stroke-opacity="0.6980392156862745" stroke-linecap="round" stroke-linejoin="round" stroke-miterlimit="10"/><path fill="none" stroke="rgb(0,100,0)" paint-order="fill stroke markers" d=" M 29.999999999999932 143.70000000000002 L 304.99999999999983 143.70000000000002" stroke-opacity="0.6980392156862745" stroke-linecap="round" stroke-linejoin="round" stroke-miterlimit="10"/><path fill="none" stroke="rgb(0,100,0)" paint-order="fill stroke markers" d=" M 304.99999999999983 143.70000000000002 L 194.9999999999999 33.69999999999999" stroke-opacity="0.6980392156862745" stroke-linecap="round" stroke-linejoin="round" stroke-miterlimit="10"/><path fill="none" stroke="rgb(0,100,0)" paint-order="fill stroke markers" d=" M 84.99999999999991 33.69999999999999 L 29.999999999999932 143.70000000000002" stroke-opacity="0.6980392156862745" stroke-linecap="round" stroke-linejoin="round" stroke-miterlimit="10"/><path fill="none" stroke="rgb(0,100,0)" paint-order="fill stroke markers" d=" M 84.99999999999991 33.69999999999999 L 304.99999999999983 143.70000000000002" stroke-opacity="0.6980392156862745" stroke-linecap="round" stroke-linejoin="round" stroke-miterlimit="10"/><path fill="none" stroke="rgb(0,100,0)" paint-order="fill stroke markers" d=" M 194.9999999999999 33.69999999999999 L 29.999999999999932 143.70000000000002" stroke-opacity="0.6980392156862745" stroke-linecap="round" stroke-linejoin="round" stroke-miterlimit="10"/><path fill="none" stroke="rgb(0,100,0)" paint-order="fill stroke markers" d=" M 139.9999999999999 33.69999999999999 L 167.4999999999999 143.70000000000002" stroke-opacity="0.6980392156862745" stroke-linecap="round" stroke-linejoin="round" stroke-miterlimit="10"/><path fill="rgb(0,0,255)" stroke="none" paint-order="stroke fill markers" d=" M 31.999999999999932 143.70000000000002 C 31.999999999999932 144.8045694996616 31.10456949966152 145.70000000000002 29.999999999999932 145.70000000000002 C 28.895430500338346 145.70000000000002 27.999999999999932 144.8045694996616 27.999999999999932 143.70000000000002 C 27.999999999999932 142.59543050033844 28.895430500338346 141.70000000000002 29.999999999999932 141.70000000000002 C 31.10456949966152 141.70000000000002 31.999999999999932 142.59543050033844 31.999999999999932 143.70000000000002 Z" fill-opacity="1"/><path fill="none" stroke="rgb(0,0,0)" paint-order="fill stroke markers" d=" M 31.999999999999932 143.70000000000002 C 31.999999999999932 144.8045694996616 31.10456949966152 145.70000000000002 29.999999999999932 145.70000000000002 C 28.895430500338346 145.70000000000002 27.999999999999932 144.8045694996616 27.999999999999932 143.70000000000002 C 27.999999999999932 142.59543050033844 28.895430500338346 141.70000000000002 29.999999999999932 141.70000000000002 C 31.10456949966152 141.70000000000002 31.999999999999932 142.59543050033844 31.999999999999932 143.70000000000002 Z" stroke-opacity="1" stroke-linecap="round" stroke-linejoin="round" stroke-miterlimit="10"/><text fill="rgb(0,0,255)" stroke="none" font-family="geogebra-sans-serif, sans-serif" font-size="16px" font-style="normal" font-weight="normal" text-decoration="normal" x="11" y="149" text-anchor="start" dominant-baseline="alphabetic" fill-opacity="1">A</text><text fill="rgb(0,0,255)" stroke="none" font-family="geogebra-sans-serif, sans-serif" font-size="16px" font-style="normal" font-weight="normal" text-decoration="normal" x="11" y="149" text-anchor="start" dominant-baseline="alphabetic" fill-opacity="1">A</text><path fill="rgb(0,0,255)" stroke="none" paint-order="stroke fill markers" d=" M 306.99999999999983 143.70000000000002 C 306.99999999999983 144.8045694996616 306.1045694996614 145.70000000000002 304.99999999999983 145.70000000000002 C 303.89543050033825 145.70000000000002 302.99999999999983 144.8045694996616 302.99999999999983 143.70000000000002 C 302.99999999999983 142.59543050033844 303.89543050033825 141.70000000000002 304.99999999999983 141.70000000000002 C 306.1045694996614 141.70000000000002 306.99999999999983 142.59543050033844 306.99999999999983 143.70000000000002 Z" fill-opacity="1"/><path fill="none" stroke="rgb(0,0,0)" paint-order="fill stroke markers" d=" M 306.99999999999983 143.70000000000002 C 306.99999999999983 144.8045694996616 306.1045694996614 145.70000000000002 304.99999999999983 145.70000000000002 C 303.89543050033825 145.70000000000002 302.99999999999983 144.8045694996616 302.99999999999983 143.70000000000002 C 302.99999999999983 142.59543050033844 303.89543050033825 141.70000000000002 304.99999999999983 141.70000000000002 C 306.1045694996614 141.70000000000002 306.99999999999983 142.59543050033844 306.99999999999983 143.70000000000002 Z" stroke-opacity="1" stroke-linecap="round" stroke-linejoin="round" stroke-miterlimit="10"/><text fill="rgb(0,0,255)" stroke="none" font-family="geogebra-sans-serif, sans-serif" font-size="16px" font-style="normal" font-weight="normal" text-decoration="normal" x="319" y="150" text-anchor="start" dominant-baseline="alphabetic" fill-opacity="1">B</text><text fill="rgb(0,0,255)" stroke="none" font-family="geogebra-sans-serif, sans-serif" font-size="16px" font-style="normal" font-weight="normal" text-decoration="normal" x="319" y="150" text-anchor="start" dominant-baseline="alphabetic" fill-opacity="1">B</text><path fill="rgb(0,0,255)" stroke="none" paint-order="stroke fill markers" d=" M 86.99999999999991 33.69999999999999 C 86.99999999999991 34.804569499661575 86.1045694996615 35.69999999999999 84.99999999999991 35.69999999999999 C 83.89543050033832 35.69999999999999 82.99999999999991 34.804569499661575 82.99999999999991 33.69999999999999 C 82.99999999999991 32.5954305003384 83.89543050033832 31.69999999999999 84.99999999999991 31.69999999999999 C 86.1045694996615 31.69999999999999 86.99999999999991 32.5954305003384 86.99999999999991 33.69999999999999 Z" fill-opacity="1"/><path fill="none" stroke="rgb(0,0,0)" paint-order="fill stroke markers" d=" M 86.99999999999991 33.69999999999999 C 86.99999999999991 34.804569499661575 86.1045694996615 35.69999999999999 84.99999999999991 35.69999999999999 C 83.89543050033832 35.69999999999999 82.99999999999991 34.804569499661575 82.99999999999991 33.69999999999999 C 82.99999999999991 32.5954305003384 83.89543050033832 31.69999999999999 84.99999999999991 31.69999999999999 C 86.1045694996615 31.69999999999999 86.99999999999991 32.5954305003384 86.99999999999991 33.69999999999999 Z" stroke-opacity="1" stroke-linecap="round" stroke-linejoin="round" stroke-miterlimit="10"/><text fill="rgb(0,0,255)" stroke="none" font-family="geogebra-sans-serif, sans-serif" font-size="16px" font-style="normal" font-weight="normal" text-decoration="normal" x="68" y="30" text-anchor="start" dominant-baseline="alphabetic" fill-opacity="1">C</text><text fill="rgb(0,0,255)" stroke="none" font-family="geogebra-sans-serif, sans-serif" font-size="16px" font-style="normal" font-weight="normal" text-decoration="normal" x="68" y="30" text-anchor="start" dominant-baseline="alphabetic" fill-opacity="1">C</text><path fill="rgb(0,0,255)" stroke="none" paint-order="stroke fill markers" d=" M 196.9999999999999 33.69999999999999 C 196.9999999999999 34.804569499661575 196.10456949966147 35.69999999999999 194.9999999999999 35.69999999999999 C 193.8954305003383 35.69999999999999 192.9999999999999 34.804569499661575 192.9999999999999 33.69999999999999 C 192.9999999999999 32.5954305003384 193.8954305003383 31.69999999999999 194.9999999999999 31.69999999999999 C 196.10456949966147 31.69999999999999 196.9999999999999 32.5954305003384 196.9999999999999 33.69999999999999 Z" fill-opacity="1"/><path fill="none" stroke="rgb(0,0,0)" paint-order="fill stroke markers" d=" M 196.9999999999999 33.69999999999999 C 196.9999999999999 34.804569499661575 196.10456949966147 35.69999999999999 194.9999999999999 35.69999999999999 C 193.8954305003383 35.69999999999999 192.9999999999999 34.804569499661575 192.9999999999999 33.69999999999999 C 192.9999999999999 32.5954305003384 193.8954305003383 31.69999999999999 194.9999999999999 31.69999999999999 C 196.10456949966147 31.69999999999999 196.9999999999999 32.5954305003384 196.9999999999999 33.69999999999999 Z" stroke-opacity="1" stroke-linecap="round" stroke-linejoin="round" stroke-miterlimit="10"/><text fill="rgb(0,0,255)" stroke="none" font-family="geogebra-sans-serif, sans-serif" font-size="16px" font-style="normal" font-weight="normal" text-decoration="normal" x="199" y="30" text-anchor="start" dominant-baseline="alphabetic" fill-opacity="1">D</text><text fill="rgb(0,0,255)" stroke="none" font-family="geogebra-sans-serif, sans-serif" font-size="16px" font-style="normal" font-weight="normal" text-decoration="normal" x="199" y="30" text-anchor="start" dominant-baseline="alphabetic" fill-opacity="1">D</text><path fill="rgb(0,0,255)" stroke="none" paint-order="stroke fill markers" d=" M 141.9999999999999 33.69999999999999 C 141.9999999999999 34.804569499661575 141.10456949966147 35.69999999999999 139.9999999999999 35.69999999999999 C 138.8954305003383 35.69999999999999 137.9999999999999 34.804569499661575 137.9999999999999 33.69999999999999 C 137.9999999999999 32.5954305003384 138.8954305003383 31.69999999999999 139.9999999999999 31.69999999999999 C 141.10456949966147 31.69999999999999 141.9999999999999 32.5954305003384 141.9999999999999 33.69999999999999 Z" fill-opacity="1"/><path fill="none" stroke="rgb(0,0,0)" paint-order="fill stroke markers" d=" M 141.9999999999999 33.69999999999999 C 141.9999999999999 34.804569499661575 141.10456949966147 35.69999999999999 139.9999999999999 35.69999999999999 C 138.8954305003383 35.69999999999999 137.9999999999999 34.804569499661575 137.9999999999999 33.69999999999999 C 137.9999999999999 32.5954305003384 138.8954305003383 31.69999999999999 139.9999999999999 31.69999999999999 C 141.10456949966147 31.69999999999999 141.9999999999999 32.5954305003384 141.9999999999999 33.69999999999999 Z" stroke-opacity="1" stroke-linecap="round" stroke-linejoin="round" stroke-miterlimit="10"/><text fill="rgb(0,0,255)" stroke="none" font-family="geogebra-sans-serif, sans-serif" font-size="16px" font-style="normal" font-weight="normal" text-decoration="normal" x="137" y="24" text-anchor="start" dominant-baseline="alphabetic" fill-opacity="1">L</text><text fill="rgb(0,0,255)" stroke="none" font-family="geogebra-sans-serif, sans-serif" font-size="16px" font-style="normal" font-weight="normal" text-decoration="normal" x="137" y="24" text-anchor="start" dominant-baseline="alphabetic" fill-opacity="1">L</text><path fill="rgb(0,0,255)" stroke="none" paint-order="stroke fill markers" d=" M 169.4999999999999 143.70000000000002 C 169.4999999999999 144.8045694996616 168.60456949966147 145.70000000000002 167.4999999999999 145.70000000000002 C 166.3954305003383 145.70000000000002 165.4999999999999 144.8045694996616 165.4999999999999 143.70000000000002 C 165.4999999999999 142.59543050033844 166.3954305003383 141.70000000000002 167.4999999999999 141.70000000000002 C 168.60456949966147 141.70000000000002 169.4999999999999 142.59543050033844 169.4999999999999 143.70000000000002 Z" fill-opacity="1"/><path fill="none" stroke="rgb(0,0,0)" paint-order="fill stroke markers" d=" M 169.4999999999999 143.70000000000002 C 169.4999999999999 144.8045694996616 168.60456949966147 145.70000000000002 167.4999999999999 145.70000000000002 C 166.3954305003383 145.70000000000002 165.4999999999999 144.8045694996616 165.4999999999999 143.70000000000002 C 165.4999999999999 142.59543050033844 166.3954305003383 141.70000000000002 167.4999999999999 141.70000000000002 C 168.60456949966147 141.70000000000002 169.4999999999999 142.59543050033844 169.4999999999999 143.70000000000002 Z" stroke-opacity="1" stroke-linecap="round" stroke-linejoin="round" stroke-miterlimit="10"/><text fill="rgb(0,0,255)" stroke="none" font-family="geogebra-sans-serif, sans-serif" font-size="16px" font-style="normal" font-weight="normal" text-decoration="normal" x="168" y="166" text-anchor="start" dominant-baseline="alphabetic" fill-opacity="1">K</text><text fill="rgb(0,0,255)" stroke="none" font-family="geogebra-sans-serif, sans-serif" font-size="16px" font-style="normal" font-weight="normal" text-decoration="normal" x="168" y="166" text-anchor="start" dominant-baseline="alphabetic" fill-opacity="1">K</text><path fill="rgb(0,0,255)" stroke="none" paint-order="stroke fill markers" d=" M 149.85714285714272 65.12857142857143 C 149.85714285714272 66.23314092823301 148.9617123568043 67.12857142857143 147.85714285714272 67.12857142857143 C 146.75257335748114 67.12857142857143 145.85714285714272 66.23314092823301 145.85714285714272 65.12857142857143 C 145.85714285714272 64.02400192890984 146.75257335748114 63.12857142857143 147.85714285714272 63.12857142857143 C 148.9617123568043 63.12857142857143 149.85714285714272 64.02400192890984 149.85714285714272 65.12857142857143 Z" fill-opacity="1"/><path fill="none" stroke="rgb(0,0,0)" paint-order="fill stroke markers" d=" M 149.85714285714272 65.12857142857143 C 149.85714285714272 66.23314092823301 148.9617123568043 67.12857142857143 147.85714285714272 67.12857142857143 C 146.75257335748114 67.12857142857143 145.85714285714272 66.23314092823301 145.85714285714272 65.12857142857143 C 145.85714285714272 64.02400192890984 146.75257335748114 63.12857142857143 147.85714285714272 63.12857142857143 C 148.9617123568043 63.12857142857143 149.85714285714272 64.02400192890984 149.85714285714272 65.12857142857143 Z" stroke-opacity="1" stroke-linecap="round" stroke-linejoin="round" stroke-miterlimit="10"/><text fill="rgb(0,0,255)" stroke="none" font-family="geogebra-sans-serif, sans-serif" font-size="16px" font-style="normal" font-weight="normal" text-decoration="normal" x="133" y="92" text-anchor="start" dominant-baseline="alphabetic" fill-opacity="1">N</text><text fill="rgb(0,0,255)" stroke="none" font-family="geogebra-sans-serif, sans-serif" font-size="16px" font-style="normal" font-weight="normal" text-decoration="normal" x="133" y="92" text-anchor="start" dominant-baseline="alphabetic" fill-opacity="1">N</text></g></g></svg>