<svg version="1.1" xmlns="http://www.w3.org/2000/svg" xmlns:xlink="http://www.w3.org/1999/xlink" width="313" height="333"><defs><clipPath id="bPpfNfIVbFhb"><path fill="none" stroke="none" d=" M 0 0 L 313 0 L 313 333 L 0 333 L 0 0 Z"/></clipPath></defs><g transform="scale(1,1)" clip-path="url(#bPpfNfIVbFhb)"><g><rect fill="rgb(255,255,255)" stroke="none" x="0" y="0" width="313" height="333" fill-opacity="1"/><path fill="none" stroke="rgb(0,100,0)" paint-order="fill stroke markers" d=" M 271.99999999999994 165.9999999999999 C 271.99999999999994 235.0355937288489 216.0355937288491 290.99999999999966 146.99999999999997 290.99999999999966 C 77.96440627115082 290.99999999999966 22 235.0355937288489 22 165.9999999999999 C 22 96.96440627115084 77.96440627115082 41.000000000000114 146.99999999999997 41.000000000000114 C 216.0355937288491 41.000000000000114 271.99999999999994 96.96440627115084 271.99999999999994 165.9999999999999 Z" stroke-opacity="0.6980392156862745" stroke-linejoin="round" stroke-miterlimit="10" stroke-dasharray="5,4"/><path fill="none" stroke="rgb(0,153,255)" paint-order="fill stroke markers" d=" M 224.2542485937368 213.7457514062629 C 224.2542485937368 256.4120947642207 189.66634335795783 290.99999999999966 146.99999999999997 290.99999999999966 C 104.33365664204211 290.99999999999966 69.74575140626314 256.4120947642207 69.74575140626314 213.7457514062629 C 69.74575140626314 171.07940804830514 104.33365664204211 136.49150281252622 146.99999999999997 136.49150281252622 C 189.66634335795783 136.49150281252622 224.2542485937368 171.07940804830514 224.2542485937368 213.7457514062629 Z" stroke-opacity="0.6980392156862745" stroke-linecap="round" stroke-linejoin="round" stroke-miterlimit="10"/><g transform="scale(19,19)"><g transform="translate(2.6315789473684212,10.431)"><path fill="rgb(0,153,255)" stroke="none" paint-order="stroke fill markers" d=" M 0.264 -0.082 Q 0.201 0.011 0.11900000000000001 0.011 Q 0.032 0.011 0.016 -0.089 Q 0.013000000000000001 -0.109 0.013000000000000001 -0.131 Q 0.013000000000000001 -0.22 0.051000000000000004 -0.311 Q 0.082 -0.382 0.112 -0.419 Q 0.122 -0.431 0.127 -0.431 Q 0.139 -0.431 0.139 -0.419 Q 0.139 -0.41400000000000003 0.129 -0.4 Q 0.045 -0.28 0.045 -0.17500000000000002 Q 0.045 -0.08 0.109 -0.064 Q 0.12 -0.061 0.133 -0.061 Q 0.201 -0.061 0.257 -0.138 Q 0.264 -0.145 0.266 -0.165 Q 0.276 -0.23800000000000002 0.28700000000000003 -0.266 Q 0.3 -0.291 0.315 -0.291 Q 0.334 -0.291 0.336 -0.268 Q 0.336 -0.24 0.308 -0.168 Q 0.306 -0.161 0.303 -0.155 Q 0.297 -0.14400000000000002 0.297 -0.139 Q 0.297 -0.111 0.317 -0.084 Q 0.335 -0.061 0.372 -0.061 Q 0.449 -0.061 0.511 -0.14400000000000002 Q 0.562 -0.214 0.562 -0.28 Q 0.562 -0.331 0.527 -0.367 Q 0.512 -0.38 0.512 -0.394 Q 0.512 -0.419 0.539 -0.435 Q 0.55 -0.442 0.562 -0.442 Q 0.599 -0.442 0.604 -0.388 Q 0.605 -0.377 0.605 -0.371 Q 0.605 -0.307 0.5750000000000001 -0.213 Q 0.55 -0.136 0.511 -0.082 Q 0.443 0.011 0.358 0.011 Q 0.277 0.011 0.264 -0.082 Z"/></g></g><path fill="none" stroke="rgb(244,0,153)" paint-order="fill stroke markers" d=" M 208.80339887498945 179.19660112501037 C 208.80339887498945 213.3296758113766 181.13307468636626 240.99999999999972 146.99999999999997 240.99999999999972 C 112.86692531363369 240.99999999999972 85.19660112501052 213.3296758113766 85.19660112501052 179.19660112501037 C 85.19660112501052 145.06352643864415 112.86692531363369 117.393202250021 146.99999999999997 117.393202250021 C 181.13307468636626 117.393202250021 208.80339887498945 145.06352643864415 208.80339887498945 179.19660112501037 Z" stroke-opacity="0.6980392156862745" stroke-linejoin="round" stroke-miterlimit="10" stroke-dasharray="5,4"/><g transform="scale(19,19)"><g transform="translate(6.684210526315789,5.483631578947368)"><path fill="rgb(244,0,153)" stroke="none" paint-order="stroke fill markers" d=" M 0.041 -0.254 L 0.041 -0.254 L 0.037 -0.249 Q 0.018000000000000002 -0.249 0.018000000000000002 -0.259 Q 0.018000000000000002 -0.28700000000000003 0.052000000000000005 -0.339 Q 0.122 -0.44 0.213 -0.442 Q 0.303 -0.442 0.34600000000000003 -0.332 Q 0.383 -0.23900000000000002 0.387 -0.128 Q 0.466 -0.326 0.519 -0.424 Q 0.522 -0.431 0.531 -0.431 Q 0.543 -0.431 0.543 -0.421 Q 0.543 -0.41600000000000004 0.524 -0.383 Q 0.45 -0.23600000000000002 0.395 -0.078 Q 0.391 -0.066 0.388 -0.056 Q 0.384 -0.043000000000000003 0.38 -0.017 Q 0.371 0.053 0.343 0.155 Q 0.326 0.212 0.311 0.215 Q 0.298 0.215 0.298 0.197 Q 0.298 0.156 0.34800000000000003 -0.013000000000000001 Q 0.34900000000000003 -0.015 0.35000000000000003 -0.018000000000000002 Q 0.362 -0.052000000000000005 0.362 -0.116 Q 0.362 -0.35100000000000003 0.222 -0.369 Q 0.211 -0.37 0.2 -0.37 Q 0.129 -0.37 0.081 -0.321 L 0.08 -0.32 Q 0.054 -0.293 0.041 -0.254 Z"/></g></g><path fill="rgb(255,0,0)" stroke="none" paint-order="stroke fill markers" fill-rule="evenodd" d=" M 77.90169943749474 179.19660112501037 L 87.38853241799924 183.9400176152626 L 92.13194890825245 174.4531846347578 L 82.645115927747 169.7097681445059 L 77.90169943749474 179.19660112501037" fill-opacity="0.09803921568627451"/><path fill="none" stroke="rgb(255,0,0)" paint-order="fill stroke markers" d=" M 77.90169943749474 179.19660112501037 L 87.38853241799924 183.9400176152626 L 92.13194890825245 174.4531846347578 L 82.645115927747 169.7097681445059 L 77.90169943749474 179.19660112501037" stroke-opacity="0.6980392156862745" stroke-linecap="round" stroke-linejoin="round" stroke-miterlimit="10" stroke-width="0.5"/><path fill="rgb(255,0,0)" stroke="none" paint-order="stroke fill markers" fill-rule="evenodd" d=" M 216.0983005625052 179.19660112501037 L 211.35488407225293 169.7097681445059 L 201.86805109174747 174.4531846347578 L 206.61146758200067 183.9400176152626 L 216.0983005625052 179.19660112501037" fill-opacity="0.09803921568627451"/><path fill="none" stroke="rgb(255,0,0)" paint-order="fill stroke markers" d=" M 216.0983005625052 179.19660112501037 L 211.35488407225293 169.7097681445059 L 201.86805109174747 174.4531846347578 L 206.61146758200067 183.9400176152626 L 216.0983005625052 179.19660112501037" stroke-opacity="0.6980392156862745" stroke-linecap="round" stroke-linejoin="round" stroke-miterlimit="10" stroke-width="0.5"/><path fill="rgb(255,0,0)" stroke="none" paint-order="stroke fill markers" fill-rule="evenodd" d=" M 146.99999999999997 179.19660112501037 L 146.99999999999997 168.5899994072129 L 136.39339828220176 168.5899994072122 L 136.39339828220247 179.19660112501037 L 146.99999999999997 179.19660112501037" fill-opacity="0.09803921568627451"/><path fill="none" stroke="rgb(255,0,0)" paint-order="fill stroke markers" d=" M 146.99999999999997 179.19660112501037 L 146.99999999999997 168.5899994072129 L 136.39339828220176 168.5899994072122 L 136.39339828220247 179.19660112501037 L 146.99999999999997 179.19660112501037" stroke-opacity="0.6980392156862745" stroke-linecap="round" stroke-linejoin="round" stroke-miterlimit="10" stroke-width="0.5"/><path fill="rgb(255,0,0)" stroke="none" paint-order="stroke fill markers" fill-rule="evenodd" d=" M 47 240.99999999999974 L 56.4868329805045 245.74341649025197 L 61.230249470757705 236.25658350974717 L 51.74341649025225 231.51316701949526 L 47 240.99999999999974" fill-opacity="0.09803921568627451"/><path fill="none" stroke="rgb(255,0,0)" paint-order="fill stroke markers" d=" M 47 240.99999999999974 L 56.4868329805045 245.74341649025197 L 61.230249470757705 236.25658350974717 L 51.74341649025225 231.51316701949526 L 47 240.99999999999974" stroke-opacity="0.6980392156862745" stroke-linecap="round" stroke-linejoin="round" stroke-miterlimit="10" stroke-width="0.5"/><path fill="rgb(255,0,0)" stroke="none" paint-order="stroke fill markers" fill-rule="evenodd" d=" M 246.99999999999994 240.99999999999974 L 242.25658350974768 231.51316701949526 L 232.76975052924223 236.25658350974717 L 237.51316701949543 245.74341649025197 L 246.99999999999994 240.99999999999974" fill-opacity="0.09803921568627451"/><path fill="none" stroke="rgb(255,0,0)" paint-order="fill stroke markers" d=" M 246.99999999999994 240.99999999999974 L 242.25658350974768 231.51316701949526 L 232.76975052924223 236.25658350974717 L 237.51316701949543 245.74341649025197 L 246.99999999999994 240.99999999999974" stroke-opacity="0.6980392156862745" stroke-linecap="round" stroke-linejoin="round" stroke-miterlimit="10" stroke-width="0.5"/><path fill="rgb(255,0,0)" stroke="none" paint-order="stroke fill markers" fill-rule="evenodd" d=" M 146.99999999999997 240.99999999999974 L 157.60660171779747 240.99999999999974 L 157.60660171779818 230.39339828220156 L 146.99999999999997 230.39339828220227 L 146.99999999999997 240.99999999999974" fill-opacity="0.09803921568627451"/><path fill="none" stroke="rgb(255,0,0)" paint-order="fill stroke markers" d=" M 146.99999999999997 240.99999999999974 L 157.60660171779747 240.99999999999974 L 157.60660171779818 230.39339828220156 L 146.99999999999997 230.39339828220227 L 146.99999999999997 240.99999999999974" stroke-opacity="0.6980392156862745" stroke-linecap="round" stroke-linejoin="round" stroke-miterlimit="10" stroke-width="0.5"/><path fill="none" stroke="rgb(0,100,0)" paint-order="fill stroke markers" d=" M 146.99999999999997 41.000000000000114 L 47 240.99999999999974" stroke-opacity="0.6980392156862745" stroke-linecap="round" stroke-linejoin="round" stroke-miterlimit="10" stroke-width="0.5"/><path fill="none" stroke="rgb(0,100,0)" paint-order="fill stroke markers" d=" M 47 240.99999999999974 L 246.99999999999994 240.99999999999974" stroke-opacity="0.6980392156862745" stroke-linecap="round" stroke-linejoin="round" stroke-miterlimit="10" stroke-width="0.5"/><path fill="none" stroke="rgb(0,100,0)" paint-order="fill stroke markers" d=" M 246.99999999999994 240.99999999999974 L 146.99999999999997 41.000000000000114" stroke-opacity="0.6980392156862745" stroke-linecap="round" stroke-linejoin="round" stroke-miterlimit="10" stroke-width="0.5"/><path fill="none" stroke="rgb(255,127,0)" paint-order="fill stroke markers" d=" M 112.45084971874735 175.19660112501037 L 112.45084971874735 183.19660112501037" stroke-opacity="0.6980392156862745" stroke-linecap="round" stroke-linejoin="round" stroke-miterlimit="10" stroke-width="0.5"/><path fill="none" stroke="rgb(255,127,0)" paint-order="fill stroke markers" d=" M 77.90169943749474 179.19660112501037 L 146.99999999999997 179.19660112501037" stroke-opacity="0.6980392156862745" stroke-linejoin="round" stroke-miterlimit="10" stroke-width="0.5" stroke-dasharray="8.5,8"/><path fill="none" stroke="rgb(255,127,0)" paint-order="fill stroke markers" d=" M 181.5491502812526 175.19660112501037 L 181.5491502812526 183.19660112501037" stroke-opacity="0.6980392156862745" stroke-linecap="round" stroke-linejoin="round" stroke-miterlimit="10" stroke-width="0.5"/><path fill="none" stroke="rgb(255,127,0)" paint-order="fill stroke markers" d=" M 146.99999999999997 179.19660112501037 L 216.0983005625052 179.19660112501037" stroke-opacity="0.6980392156862745" stroke-linejoin="round" stroke-miterlimit="10" stroke-width="0.5" stroke-dasharray="8.5,8"/><path fill="none" stroke="rgb(255,0,255)" paint-order="fill stroke markers" d=" M 112.0036361232474 200.71970542288622 L 115.58134488724706 193.56428789488692" stroke-opacity="0.6980392156862745" stroke-linecap="round" stroke-linejoin="round" stroke-miterlimit="10" stroke-width="0.5"/><path fill="none" stroke="rgb(255,0,255)" paint-order="fill stroke markers" d=" M 109.32035455024764 199.37806463638637 L 112.8980633142473 192.22264710838706" stroke-opacity="0.6980392156862745" stroke-linecap="round" stroke-linejoin="round" stroke-miterlimit="10" stroke-width="0.5"/><path fill="none" stroke="rgb(255,0,255)" paint-order="fill stroke markers" d=" M 146.99999999999997 213.74575140626294 L 77.90169943749474 179.19660112501037" stroke-opacity="0.6980392156862745" stroke-linecap="round" stroke-linejoin="round" stroke-miterlimit="10" stroke-width="0.5"/><path fill="none" stroke="rgb(255,0,255)" paint-order="fill stroke markers" d=" M 178.41865511275287 193.56428789488692 L 181.99636387675255 200.71970542288622" stroke-opacity="0.6980392156862745" stroke-linecap="round" stroke-linejoin="round" stroke-miterlimit="10" stroke-width="0.5"/><path fill="none" stroke="rgb(255,0,255)" paint-order="fill stroke markers" d=" M 181.10193668575263 192.22264710838706 L 184.67964544975231 199.37806463638637" stroke-opacity="0.6980392156862745" stroke-linecap="round" stroke-linejoin="round" stroke-miterlimit="10" stroke-width="0.5"/><path fill="none" stroke="rgb(255,0,255)" paint-order="fill stroke markers" d=" M 146.99999999999997 213.74575140626294 L 216.0983005625052 179.19660112501037" stroke-opacity="0.6980392156862745" stroke-linecap="round" stroke-linejoin="round" stroke-miterlimit="10" stroke-width="0.5"/><path fill="none" stroke="rgb(0,100,0)" paint-order="fill stroke markers" d=" M 146.99999999999997 290.99999999999966 L 47 240.99999999999974" stroke-opacity="0.6980392156862745" stroke-linecap="round" stroke-linejoin="round" stroke-miterlimit="10" stroke-width="0.5"/><path fill="none" stroke="rgb(0,100,0)" paint-order="fill stroke markers" d=" M 146.99999999999997 290.99999999999966 L 246.99999999999994 240.99999999999974" stroke-opacity="0.6980392156862745" stroke-linecap="round" stroke-linejoin="round" stroke-miterlimit="10" stroke-width="0.5"/><path fill="none" stroke="rgb(0,100,0)" paint-order="fill stroke markers" d=" M 146.99999999999997 41.000000000000114 L 146.99999999999997 213.74575140626294" stroke-opacity="0.6980392156862745" stroke-linecap="round" stroke-linejoin="round" stroke-miterlimit="10" stroke-width="0.5"/><path fill="none" stroke="rgb(255,0,255)" paint-order="fill stroke markers" d=" M 150.99999999999997 250.87287570313129 L 142.99999999999997 250.87287570313129" stroke-opacity="0.6980392156862745" stroke-linecap="round" stroke-linejoin="round" stroke-miterlimit="10" stroke-width="0.5"/><path fill="none" stroke="rgb(255,0,255)" paint-order="fill stroke markers" d=" M 150.99999999999997 253.87287570313129 L 142.99999999999997 253.87287570313129" stroke-opacity="0.6980392156862745" stroke-linecap="round" stroke-linejoin="round" stroke-miterlimit="10" stroke-width="0.5"/><path fill="none" stroke="rgb(255,0,255)" paint-order="fill stroke markers" d=" M 146.99999999999997 213.74575140626294 L 146.99999999999997 290.99999999999966" stroke-opacity="0.6980392156862745" stroke-linecap="round" stroke-linejoin="round" stroke-miterlimit="10" stroke-width="0.5"/><g transform="scale(19,19)"><g transform="translate(11.421052631578947,16.272947368421054)"><path fill="rgb(0,100,0)" stroke="none" paint-order="stroke fill markers" d=" M 0.016 -0.099 L 0.016 -0.099 L 0.093 -0.17200000000000001 Q 0.093 -0.338 0.17200000000000001 -0.517 Q 0.223 -0.634 0.28300000000000003 -0.682 Q 0.312 -0.705 0.339 -0.705 Q 0.398 -0.705 0.398 -0.627 Q 0.398 -0.47300000000000003 0.226 -0.277 Q 0.201 -0.248 0.17500000000000002 -0.222 Q 0.159 -0.20600000000000002 0.153 -0.197 Q 0.148 -0.189 0.148 -0.14 Q 0.148 -0.01 0.209 -0.01 Q 0.26 -0.01 0.339 -0.088 Q 0.34900000000000003 -0.097 0.352 -0.097 Q 0.362 -0.097 0.364 -0.085 Q 0.364 -0.073 0.31 -0.031 L 0.31 -0.031 Q 0.306 -0.028 0.303 -0.026000000000000002 Q 0.25 0.012 0.20700000000000002 0.012 Q 0.114 0.012 0.095 -0.14100000000000001 Q 0.075 -0.121 0.059000000000000004 -0.107 Q 0.028 -0.076 0.023 -0.076 Q 0.015 -0.076 0.011 -0.089 Q 0.011 -0.092 0.016 -0.099 M 0.158 -0.23900000000000002 Q 0.374 -0.464 0.374 -0.631 Q 0.374 -0.683 0.34 -0.683 Q 0.31 -0.683 0.279 -0.626 L 0.278 -0.625 L 0.26 -0.589 Q 0.20400000000000001 -0.47400000000000003 0.159 -0.244 L 0.159 -0.243 Q 0.158 -0.24 0.158 -0.23900000000000002 Z"/></g></g><path fill="none" stroke="rgb(0,100,0)" paint-order="fill stroke markers" d=" M 253.99999999999994 290.99999999999966 L 40 290.99999999999966" stroke-opacity="0.6980392156862745" stroke-linecap="round" stroke-linejoin="round" stroke-miterlimit="10" stroke-width="0.5"/><path fill="rgb(0,0,255)" stroke="none" paint-order="stroke fill markers" d=" M 148.99999999999997 41.000000000000114 C 148.99999999999997 42.1045694996617 148.10456949966155 43.000000000000114 146.99999999999997 43.000000000000114 C 145.8954305003384 43.000000000000114 144.99999999999997 42.1045694996617 144.99999999999997 41.000000000000114 C 144.99999999999997 39.89543050033853 145.8954305003384 39.000000000000114 146.99999999999997 39.000000000000114 C 148.10456949966155 39.000000000000114 148.99999999999997 39.89543050033853 148.99999999999997 41.000000000000114 Z" fill-opacity="1"/><path fill="none" stroke="rgb(0,0,0)" paint-order="fill stroke markers" d=" M 148.99999999999997 41.000000000000114 C 148.99999999999997 42.1045694996617 148.10456949966155 43.000000000000114 146.99999999999997 43.000000000000114 C 145.8954305003384 43.000000000000114 144.99999999999997 42.1045694996617 144.99999999999997 41.000000000000114 C 144.99999999999997 39.89543050033853 145.8954305003384 39.000000000000114 146.99999999999997 39.000000000000114 C 148.10456949966155 39.000000000000114 148.99999999999997 39.89543050033853 148.99999999999997 41.000000000000114 Z" stroke-opacity="1" stroke-linecap="round" stroke-linejoin="round" stroke-miterlimit="10"/><text fill="rgb(0,0,255)" stroke="none" font-family="geogebra-sans-serif, sans-serif" font-size="16px" font-style="normal" font-weight="normal" text-decoration="normal" x="144" y="28" text-anchor="start" dominant-baseline="alphabetic" fill-opacity="1">A</text><text fill="none" stroke="rgb(255,255,255)" font-family="geogebra-sans-serif, sans-serif" font-size="16px" font-style="normal" font-weight="normal" text-decoration="normal" x="144" y="28" text-anchor="start" dominant-baseline="alphabetic" stroke-opacity="1" stroke-linejoin="bevel" stroke-miterlimit="10" stroke-width="3">A</text><text fill="rgb(0,0,255)" stroke="none" font-family="geogebra-sans-serif, sans-serif" font-size="16px" font-style="normal" font-weight="normal" text-decoration="normal" x="144" y="28" text-anchor="start" dominant-baseline="alphabetic" fill-opacity="1">A</text><path fill="rgb(0,0,255)" stroke="none" paint-order="stroke fill markers" d=" M 49 240.99999999999974 C 49 242.10456949966132 48.10456949966159 242.99999999999974 47 242.99999999999974 C 45.89543050033841 242.99999999999974 45 242.10456949966132 45 240.99999999999974 C 45 239.89543050033816 45.89543050033841 238.99999999999974 47 238.99999999999974 C 48.10456949966159 238.99999999999974 49 239.89543050033816 49 240.99999999999974 Z" fill-opacity="1"/><path fill="none" stroke="rgb(0,0,0)" paint-order="fill stroke markers" d=" M 49 240.99999999999974 C 49 242.10456949966132 48.10456949966159 242.99999999999974 47 242.99999999999974 C 45.89543050033841 242.99999999999974 45 242.10456949966132 45 240.99999999999974 C 45 239.89543050033816 45.89543050033841 238.99999999999974 47 238.99999999999974 C 48.10456949966159 238.99999999999974 49 239.89543050033816 49 240.99999999999974 Z" stroke-opacity="1" stroke-linecap="round" stroke-linejoin="round" stroke-miterlimit="10"/><text fill="rgb(0,0,255)" stroke="none" font-family="geogebra-sans-serif, sans-serif" font-size="16px" font-style="normal" font-weight="normal" text-decoration="normal" x="24" y="259" text-anchor="start" dominant-baseline="alphabetic" fill-opacity="1">B</text><text fill="none" stroke="rgb(255,255,255)" font-family="geogebra-sans-serif, sans-serif" font-size="16px" font-style="normal" font-weight="normal" text-decoration="normal" x="24" y="259" text-anchor="start" dominant-baseline="alphabetic" stroke-opacity="1" stroke-linejoin="bevel" stroke-miterlimit="10" stroke-width="3">B</text><text fill="rgb(0,0,255)" stroke="none" font-family="geogebra-sans-serif, sans-serif" font-size="16px" font-style="normal" font-weight="normal" text-decoration="normal" x="24" y="259" text-anchor="start" dominant-baseline="alphabetic" fill-opacity="1">B</text><path fill="rgb(0,0,255)" stroke="none" paint-order="stroke fill markers" d=" M 248.99999999999994 240.99999999999974 C 248.99999999999994 242.10456949966132 248.10456949966152 242.99999999999974 246.99999999999994 242.99999999999974 C 245.89543050033836 242.99999999999974 244.99999999999994 242.10456949966132 244.99999999999994 240.99999999999974 C 244.99999999999994 239.89543050033816 245.89543050033836 238.99999999999974 246.99999999999994 238.99999999999974 C 248.10456949966152 238.99999999999974 248.99999999999994 239.89543050033816 248.99999999999994 240.99999999999974 Z" fill-opacity="1"/><path fill="none" stroke="rgb(0,0,0)" paint-order="fill stroke markers" d=" M 248.99999999999994 240.99999999999974 C 248.99999999999994 242.10456949966132 248.10456949966152 242.99999999999974 246.99999999999994 242.99999999999974 C 245.89543050033836 242.99999999999974 244.99999999999994 242.10456949966132 244.99999999999994 240.99999999999974 C 244.99999999999994 239.89543050033816 245.89543050033836 238.99999999999974 246.99999999999994 238.99999999999974 C 248.10456949966152 238.99999999999974 248.99999999999994 239.89543050033816 248.99999999999994 240.99999999999974 Z" stroke-opacity="1" stroke-linecap="round" stroke-linejoin="round" stroke-miterlimit="10"/><text fill="rgb(0,0,255)" stroke="none" font-family="geogebra-sans-serif, sans-serif" font-size="16px" font-style="normal" font-weight="normal" text-decoration="normal" x="258" y="250" text-anchor="start" dominant-baseline="alphabetic" fill-opacity="1">C</text><text fill="none" stroke="rgb(255,255,255)" font-family="geogebra-sans-serif, sans-serif" font-size="16px" font-style="normal" font-weight="normal" text-decoration="normal" x="258" y="250" text-anchor="start" dominant-baseline="alphabetic" stroke-opacity="1" stroke-linejoin="bevel" stroke-miterlimit="10" stroke-width="3">C</text><text fill="rgb(0,0,255)" stroke="none" font-family="geogebra-sans-serif, sans-serif" font-size="16px" font-style="normal" font-weight="normal" text-decoration="normal" x="258" y="250" text-anchor="start" dominant-baseline="alphabetic" fill-opacity="1">C</text><path fill="rgb(0,0,255)" stroke="none" paint-order="stroke fill markers" d=" M 148.99999999999997 290.99999999999966 C 148.99999999999997 292.10456949966124 148.10456949966155 292.99999999999966 146.99999999999997 292.99999999999966 C 145.8954305003384 292.99999999999966 144.99999999999997 292.10456949966124 144.99999999999997 290.99999999999966 C 144.99999999999997 289.8954305003381 145.8954305003384 288.99999999999966 146.99999999999997 288.99999999999966 C 148.10456949966155 288.99999999999966 148.99999999999997 289.8954305003381 148.99999999999997 290.99999999999966 Z" fill-opacity="1"/><path fill="none" stroke="rgb(0,0,0)" paint-order="fill stroke markers" d=" M 148.99999999999997 290.99999999999966 C 148.99999999999997 292.10456949966124 148.10456949966155 292.99999999999966 146.99999999999997 292.99999999999966 C 145.8954305003384 292.99999999999966 144.99999999999997 292.10456949966124 144.99999999999997 290.99999999999966 C 144.99999999999997 289.8954305003381 145.8954305003384 288.99999999999966 146.99999999999997 288.99999999999966 C 148.10456949966155 288.99999999999966 148.99999999999997 289.8954305003381 148.99999999999997 290.99999999999966 Z" stroke-opacity="1" stroke-linecap="round" stroke-linejoin="round" stroke-miterlimit="10"/><text fill="rgb(0,0,255)" stroke="none" font-family="geogebra-sans-serif, sans-serif" font-size="16px" font-style="normal" font-weight="normal" text-decoration="normal" x="145" y="315" text-anchor="start" dominant-baseline="alphabetic" fill-opacity="1">D</text><text fill="none" stroke="rgb(255,255,255)" font-family="geogebra-sans-serif, sans-serif" font-size="16px" font-style="normal" font-weight="normal" text-decoration="normal" x="145" y="315" text-anchor="start" dominant-baseline="alphabetic" stroke-opacity="1" stroke-linejoin="bevel" stroke-miterlimit="10" stroke-width="3">D</text><text fill="rgb(0,0,255)" stroke="none" font-family="geogebra-sans-serif, sans-serif" font-size="16px" font-style="normal" font-weight="normal" text-decoration="normal" x="145" y="315" text-anchor="start" dominant-baseline="alphabetic" fill-opacity="1">D</text><path fill="rgb(0,0,255)" stroke="none" paint-order="stroke fill markers" d=" M 148.99999999999997 179.19660112501037 C 148.99999999999997 180.30117062467195 148.10456949966155 181.19660112501037 146.99999999999997 181.19660112501037 C 145.8954305003384 181.19660112501037 144.99999999999997 180.30117062467195 144.99999999999997 179.19660112501037 C 144.99999999999997 178.0920316253488 145.8954305003384 177.19660112501037 146.99999999999997 177.19660112501037 C 148.10456949966155 177.19660112501037 148.99999999999997 178.0920316253488 148.99999999999997 179.19660112501037 Z" fill-opacity="1"/><path fill="none" stroke="rgb(0,0,0)" paint-order="fill stroke markers" d=" M 148.99999999999997 179.19660112501037 C 148.99999999999997 180.30117062467195 148.10456949966155 181.19660112501037 146.99999999999997 181.19660112501037 C 145.8954305003384 181.19660112501037 144.99999999999997 180.30117062467195 144.99999999999997 179.19660112501037 C 144.99999999999997 178.0920316253488 145.8954305003384 177.19660112501037 146.99999999999997 177.19660112501037 C 148.10456949966155 177.19660112501037 148.99999999999997 178.0920316253488 148.99999999999997 179.19660112501037 Z" stroke-opacity="1" stroke-linecap="round" stroke-linejoin="round" stroke-miterlimit="10"/><text fill="rgb(0,0,255)" stroke="none" font-family="geogebra-sans-serif, sans-serif" font-size="16px" font-style="normal" font-weight="normal" text-decoration="normal" x="157" y="166" text-anchor="start" dominant-baseline="alphabetic" fill-opacity="1">F</text><text fill="none" stroke="rgb(255,255,255)" font-family="geogebra-sans-serif, sans-serif" font-size="16px" font-style="normal" font-weight="normal" text-decoration="normal" x="157" y="166" text-anchor="start" dominant-baseline="alphabetic" stroke-opacity="1" stroke-linejoin="bevel" stroke-miterlimit="10" stroke-width="3">F</text><text fill="rgb(0,0,255)" stroke="none" font-family="geogebra-sans-serif, sans-serif" font-size="16px" font-style="normal" font-weight="normal" text-decoration="normal" x="157" y="166" text-anchor="start" dominant-baseline="alphabetic" fill-opacity="1">F</text><path fill="rgb(0,0,255)" stroke="none" paint-order="stroke fill markers" d=" M 79.90169943749474 179.19660112501037 C 79.90169943749474 180.30117062467195 79.00626893715634 181.19660112501037 77.90169943749474 181.19660112501037 C 76.79712993783315 181.19660112501037 75.90169943749474 180.30117062467195 75.90169943749474 179.19660112501037 C 75.90169943749474 178.0920316253488 76.79712993783315 177.19660112501037 77.90169943749474 177.19660112501037 C 79.00626893715634 177.19660112501037 79.90169943749474 178.0920316253488 79.90169943749474 179.19660112501037 Z" fill-opacity="1"/><path fill="none" stroke="rgb(0,0,0)" paint-order="fill stroke markers" d=" M 79.90169943749474 179.19660112501037 C 79.90169943749474 180.30117062467195 79.00626893715634 181.19660112501037 77.90169943749474 181.19660112501037 C 76.79712993783315 181.19660112501037 75.90169943749474 180.30117062467195 75.90169943749474 179.19660112501037 C 75.90169943749474 178.0920316253488 76.79712993783315 177.19660112501037 77.90169943749474 177.19660112501037 C 79.00626893715634 177.19660112501037 79.90169943749474 178.0920316253488 79.90169943749474 179.19660112501037 Z" stroke-opacity="1" stroke-linecap="round" stroke-linejoin="round" stroke-miterlimit="10"/><text fill="rgb(0,0,255)" stroke="none" font-family="geogebra-sans-serif, sans-serif" font-size="16px" font-style="normal" font-weight="normal" text-decoration="normal" x="59" y="175" text-anchor="start" dominant-baseline="alphabetic" fill-opacity="1">P</text><text fill="none" stroke="rgb(255,255,255)" font-family="geogebra-sans-serif, sans-serif" font-size="16px" font-style="normal" font-weight="normal" text-decoration="normal" x="59" y="175" text-anchor="start" dominant-baseline="alphabetic" stroke-opacity="1" stroke-linejoin="bevel" stroke-miterlimit="10" stroke-width="3">P</text><text fill="rgb(0,0,255)" stroke="none" font-family="geogebra-sans-serif, sans-serif" font-size="16px" font-style="normal" font-weight="normal" text-decoration="normal" x="59" y="175" text-anchor="start" dominant-baseline="alphabetic" fill-opacity="1">P</text><path fill="rgb(0,0,255)" stroke="none" paint-order="stroke fill markers" d=" M 218.0983005625052 179.19660112501037 C 218.0983005625052 180.30117062467195 217.20287006216677 181.19660112501037 216.0983005625052 181.19660112501037 C 214.9937310628436 181.19660112501037 214.0983005625052 180.30117062467195 214.0983005625052 179.19660112501037 C 214.0983005625052 178.0920316253488 214.9937310628436 177.19660112501037 216.0983005625052 177.19660112501037 C 217.20287006216677 177.19660112501037 218.0983005625052 178.0920316253488 218.0983005625052 179.19660112501037 Z" fill-opacity="1"/><path fill="none" stroke="rgb(0,0,0)" paint-order="fill stroke markers" d=" M 218.0983005625052 179.19660112501037 C 218.0983005625052 180.30117062467195 217.20287006216677 181.19660112501037 216.0983005625052 181.19660112501037 C 214.9937310628436 181.19660112501037 214.0983005625052 180.30117062467195 214.0983005625052 179.19660112501037 C 214.0983005625052 178.0920316253488 214.9937310628436 177.19660112501037 216.0983005625052 177.19660112501037 C 217.20287006216677 177.19660112501037 218.0983005625052 178.0920316253488 218.0983005625052 179.19660112501037 Z" stroke-opacity="1" stroke-linecap="round" stroke-linejoin="round" stroke-miterlimit="10"/><text fill="rgb(0,0,255)" stroke="none" font-family="geogebra-sans-serif, sans-serif" font-size="16px" font-style="normal" font-weight="normal" text-decoration="normal" x="224" y="179" text-anchor="start" dominant-baseline="alphabetic" fill-opacity="1">Q</text><text fill="none" stroke="rgb(255,255,255)" font-family="geogebra-sans-serif, sans-serif" font-size="16px" font-style="normal" font-weight="normal" text-decoration="normal" x="224" y="179" text-anchor="start" dominant-baseline="alphabetic" stroke-opacity="1" stroke-linejoin="bevel" stroke-miterlimit="10" stroke-width="3">Q</text><text fill="rgb(0,0,255)" stroke="none" font-family="geogebra-sans-serif, sans-serif" font-size="16px" font-style="normal" font-weight="normal" text-decoration="normal" x="224" y="179" text-anchor="start" dominant-baseline="alphabetic" fill-opacity="1">Q</text><path fill="rgb(0,0,255)" stroke="none" paint-order="stroke fill markers" d=" M 148.99999999999997 213.74575140626294 C 148.99999999999997 214.85032090592452 148.10456949966155 215.74575140626294 146.99999999999997 215.74575140626294 C 145.8954305003384 215.74575140626294 144.99999999999997 214.85032090592452 144.99999999999997 213.74575140626294 C 144.99999999999997 212.64118190660136 145.8954305003384 211.74575140626294 146.99999999999997 211.74575140626294 C 148.10456949966155 211.74575140626294 148.99999999999997 212.64118190660136 148.99999999999997 213.74575140626294 Z" fill-opacity="1"/><path fill="none" stroke="rgb(0,0,0)" paint-order="fill stroke markers" d=" M 148.99999999999997 213.74575140626294 C 148.99999999999997 214.85032090592452 148.10456949966155 215.74575140626294 146.99999999999997 215.74575140626294 C 145.8954305003384 215.74575140626294 144.99999999999997 214.85032090592452 144.99999999999997 213.74575140626294 C 144.99999999999997 212.64118190660136 145.8954305003384 211.74575140626294 146.99999999999997 211.74575140626294 C 148.10456949966155 211.74575140626294 148.99999999999997 212.64118190660136 148.99999999999997 213.74575140626294 Z" stroke-opacity="1" stroke-linecap="round" stroke-linejoin="round" stroke-miterlimit="10"/><text fill="rgb(0,0,255)" stroke="none" font-family="geogebra-sans-serif, sans-serif" font-size="16px" font-style="normal" font-weight="normal" text-decoration="normal" x="131" y="229" text-anchor="start" dominant-baseline="alphabetic" fill-opacity="1">E</text><text fill="none" stroke="rgb(255,255,255)" font-family="geogebra-sans-serif, sans-serif" font-size="16px" font-style="normal" font-weight="normal" text-decoration="normal" x="131" y="229" text-anchor="start" dominant-baseline="alphabetic" stroke-opacity="1" stroke-linejoin="bevel" stroke-miterlimit="10" stroke-width="3">E</text><text fill="rgb(0,0,255)" stroke="none" font-family="geogebra-sans-serif, sans-serif" font-size="16px" font-style="normal" font-weight="normal" text-decoration="normal" x="131" y="229" text-anchor="start" dominant-baseline="alphabetic" fill-opacity="1">E</text><path fill="rgb(0,0,255)" stroke="none" paint-order="stroke fill markers" d=" M 148.99999999999997 240.99999999999974 C 148.99999999999997 242.10456949966132 148.10456949966155 242.99999999999974 146.99999999999997 242.99999999999974 C 145.8954305003384 242.99999999999974 144.99999999999997 242.10456949966132 144.99999999999997 240.99999999999974 C 144.99999999999997 239.89543050033816 145.8954305003384 238.99999999999974 146.99999999999997 238.99999999999974 C 148.10456949966155 238.99999999999974 148.99999999999997 239.89543050033816 148.99999999999997 240.99999999999974 Z" fill-opacity="1"/><path fill="none" stroke="rgb(0,0,0)" paint-order="fill stroke markers" d=" M 148.99999999999997 240.99999999999974 C 148.99999999999997 242.10456949966132 148.10456949966155 242.99999999999974 146.99999999999997 242.99999999999974 C 145.8954305003384 242.99999999999974 144.99999999999997 242.10456949966132 144.99999999999997 240.99999999999974 C 144.99999999999997 239.89543050033816 145.8954305003384 238.99999999999974 146.99999999999997 238.99999999999974 C 148.10456949966155 238.99999999999974 148.99999999999997 239.89543050033816 148.99999999999997 240.99999999999974 Z" stroke-opacity="1" stroke-linecap="round" stroke-linejoin="round" stroke-miterlimit="10"/><text fill="rgb(0,0,255)" stroke="none" font-family="geogebra-sans-serif, sans-serif" font-size="16px" font-style="normal" font-weight="normal" text-decoration="normal" x="157" y="261" text-anchor="start" dominant-baseline="alphabetic" fill-opacity="1">M</text><text fill="none" stroke="rgb(255,255,255)" font-family="geogebra-sans-serif, sans-serif" font-size="16px" font-style="normal" font-weight="normal" text-decoration="normal" x="157" y="261" text-anchor="start" dominant-baseline="alphabetic" stroke-opacity="1" stroke-linejoin="bevel" stroke-miterlimit="10" stroke-width="3">M</text><text fill="rgb(0,0,255)" stroke="none" font-family="geogebra-sans-serif, sans-serif" font-size="16px" font-style="normal" font-weight="normal" text-decoration="normal" x="157" y="261" text-anchor="start" dominant-baseline="alphabetic" fill-opacity="1">M</text></g></g></svg>