<svg version="1.1" xmlns="http://www.w3.org/2000/svg" xmlns:xlink="http://www.w3.org/1999/xlink" width="291" height="167"><defs><clipPath id="xKtHlrTFHJXT"><path fill="none" stroke="none" d=" M 0 0 L 291 0 L 291 167 L 0 167 L 0 0 Z"/></clipPath></defs><g transform="scale(1,1)" clip-path="url(#xKtHlrTFHJXT)"><g><rect fill="rgb(255,255,255)" stroke="none" x="0" y="0" width="291" height="167" fill-opacity="1"/><path fill="none" stroke="rgb(255,85,0)" paint-order="fill stroke markers" d=" M 29.49999999999993 131.83333333333317 L 196.16666666666654 131.83333333333317" stroke-opacity="0.6980392156862745" stroke-linecap="round" stroke-linejoin="round" stroke-miterlimit="10" stroke-width="1.5"/><path fill="none" stroke="rgb(0,100,0)" paint-order="fill stroke markers" d=" M 196.16666666666654 131.83333333333317 L 249.28018564224348 47.10462449134138" stroke-opacity="0.6980392156862745" stroke-linecap="round" stroke-linejoin="round" stroke-miterlimit="10"/><path fill="none" stroke="rgb(0,100,0)" paint-order="fill stroke markers" d=" M 249.28018564224348 47.10462449134138 L 82.61351897557688 47.10462449134137" stroke-opacity="0.6980392156862745" stroke-linecap="round" stroke-linejoin="round" stroke-miterlimit="10"/><path fill="none" stroke="rgb(0,100,0)" paint-order="fill stroke markers" d=" M 29.49999999999993 131.83333333333317 L 82.61351897557688 47.10462449134137" stroke-opacity="0.6980392156862745" stroke-linecap="round" stroke-linejoin="round" stroke-miterlimit="10"/><path fill="none" stroke="rgb(0,100,0)" paint-order="fill stroke markers" d=" M 29.49999999999993 131.83333333333317 L 249.28018564224348 47.10462449134138" stroke-opacity="0.6980392156862745" stroke-linecap="round" stroke-linejoin="round" stroke-miterlimit="10"/><path fill="none" stroke="rgb(0,100,0)" paint-order="fill stroke markers" d=" M 82.61351897557688 47.10462449134137 L 196.16666666666654 131.83333333333317" stroke-opacity="0.6980392156862745" stroke-linecap="round" stroke-linejoin="round" stroke-miterlimit="10"/><path fill="rgb(0,0,255)" stroke="none" paint-order="stroke fill markers" d=" M 31.49999999999993 131.83333333333317 C 31.49999999999993 132.93790283299475 30.604569499661515 133.83333333333317 29.49999999999993 133.83333333333317 C 28.395430500338342 133.83333333333317 27.49999999999993 132.93790283299475 27.49999999999993 131.83333333333317 C 27.49999999999993 130.7287638336716 28.395430500338342 129.83333333333317 29.49999999999993 129.83333333333317 C 30.604569499661515 129.83333333333317 31.49999999999993 130.7287638336716 31.49999999999993 131.83333333333317 Z" fill-opacity="1"/><path fill="none" stroke="rgb(0,0,0)" paint-order="fill stroke markers" d=" M 31.49999999999993 131.83333333333317 C 31.49999999999993 132.93790283299475 30.604569499661515 133.83333333333317 29.49999999999993 133.83333333333317 C 28.395430500338342 133.83333333333317 27.49999999999993 132.93790283299475 27.49999999999993 131.83333333333317 C 27.49999999999993 130.7287638336716 28.395430500338342 129.83333333333317 29.49999999999993 129.83333333333317 C 30.604569499661515 129.83333333333317 31.49999999999993 130.7287638336716 31.49999999999993 131.83333333333317 Z" stroke-opacity="1" stroke-linecap="round" stroke-linejoin="round" stroke-miterlimit="10"/><text fill="rgb(0,0,255)" stroke="none" font-family="geogebra-sans-serif, sans-serif" font-size="16px" font-style="normal" font-weight="normal" text-decoration="normal" x="12" y="147" text-anchor="start" dominant-baseline="alphabetic" fill-opacity="1">A</text><text fill="none" stroke="rgb(255,255,255)" font-family="geogebra-sans-serif, sans-serif" font-size="16px" font-style="normal" font-weight="normal" text-decoration="normal" x="12" y="147" text-anchor="start" dominant-baseline="alphabetic" stroke-opacity="1" stroke-linejoin="bevel" stroke-miterlimit="10" stroke-width="3">A</text><text fill="rgb(0,0,255)" stroke="none" font-family="geogebra-sans-serif, sans-serif" font-size="16px" font-style="normal" font-weight="normal" text-decoration="normal" x="12" y="147" text-anchor="start" dominant-baseline="alphabetic" fill-opacity="1">A</text><path fill="rgb(0,0,255)" stroke="none" paint-order="stroke fill markers" d=" M 198.16666666666654 131.83333333333317 C 198.16666666666654 132.93790283299475 197.27123616632812 133.83333333333317 196.16666666666654 133.83333333333317 C 195.06209716700496 133.83333333333317 194.16666666666654 132.93790283299475 194.16666666666654 131.83333333333317 C 194.16666666666654 130.7287638336716 195.06209716700496 129.83333333333317 196.16666666666654 129.83333333333317 C 197.27123616632812 129.83333333333317 198.16666666666654 130.7287638336716 198.16666666666654 131.83333333333317 Z" fill-opacity="1"/><path fill="none" stroke="rgb(0,0,0)" paint-order="fill stroke markers" d=" M 198.16666666666654 131.83333333333317 C 198.16666666666654 132.93790283299475 197.27123616632812 133.83333333333317 196.16666666666654 133.83333333333317 C 195.06209716700496 133.83333333333317 194.16666666666654 132.93790283299475 194.16666666666654 131.83333333333317 C 194.16666666666654 130.7287638336716 195.06209716700496 129.83333333333317 196.16666666666654 129.83333333333317 C 197.27123616632812 129.83333333333317 198.16666666666654 130.7287638336716 198.16666666666654 131.83333333333317 Z" stroke-opacity="1" stroke-linecap="round" stroke-linejoin="round" stroke-miterlimit="10"/><text fill="rgb(0,0,255)" stroke="none" font-family="geogebra-sans-serif, sans-serif" font-size="16px" font-style="normal" font-weight="normal" text-decoration="normal" x="206" y="148" text-anchor="start" dominant-baseline="alphabetic" fill-opacity="1">B</text><text fill="none" stroke="rgb(255,255,255)" font-family="geogebra-sans-serif, sans-serif" font-size="16px" font-style="normal" font-weight="normal" text-decoration="normal" x="206" y="148" text-anchor="start" dominant-baseline="alphabetic" stroke-opacity="1" stroke-linejoin="bevel" stroke-miterlimit="10" stroke-width="3">B</text><text fill="rgb(0,0,255)" stroke="none" font-family="geogebra-sans-serif, sans-serif" font-size="16px" font-style="normal" font-weight="normal" text-decoration="normal" x="206" y="148" text-anchor="start" dominant-baseline="alphabetic" fill-opacity="1">B</text><path fill="rgb(0,0,255)" stroke="none" paint-order="stroke fill markers" d=" M 84.61351897557688 47.10462449134137 C 84.61351897557688 48.209193991002955 83.71808847523846 49.10462449134137 82.61351897557688 49.10462449134137 C 81.50894947591529 49.10462449134137 80.61351897557688 48.209193991002955 80.61351897557688 47.10462449134137 C 80.61351897557688 46.00005499167978 81.50894947591529 45.10462449134137 82.61351897557688 45.10462449134137 C 83.71808847523846 45.10462449134137 84.61351897557688 46.00005499167978 84.61351897557688 47.10462449134137 Z" fill-opacity="1"/><path fill="none" stroke="rgb(0,0,0)" paint-order="fill stroke markers" d=" M 84.61351897557688 47.10462449134137 C 84.61351897557688 48.209193991002955 83.71808847523846 49.10462449134137 82.61351897557688 49.10462449134137 C 81.50894947591529 49.10462449134137 80.61351897557688 48.209193991002955 80.61351897557688 47.10462449134137 C 80.61351897557688 46.00005499167978 81.50894947591529 45.10462449134137 82.61351897557688 45.10462449134137 C 83.71808847523846 45.10462449134137 84.61351897557688 46.00005499167978 84.61351897557688 47.10462449134137 Z" stroke-opacity="1" stroke-linecap="round" stroke-linejoin="round" stroke-miterlimit="10"/><text fill="rgb(0,0,255)" stroke="none" font-family="geogebra-sans-serif, sans-serif" font-size="16px" font-style="normal" font-weight="normal" text-decoration="normal" x="65" y="41" text-anchor="start" dominant-baseline="alphabetic" fill-opacity="1">D</text><text fill="none" stroke="rgb(255,255,255)" font-family="geogebra-sans-serif, sans-serif" font-size="16px" font-style="normal" font-weight="normal" text-decoration="normal" x="65" y="41" text-anchor="start" dominant-baseline="alphabetic" stroke-opacity="1" stroke-linejoin="bevel" stroke-miterlimit="10" stroke-width="3">D</text><text fill="rgb(0,0,255)" stroke="none" font-family="geogebra-sans-serif, sans-serif" font-size="16px" font-style="normal" font-weight="normal" text-decoration="normal" x="65" y="41" text-anchor="start" dominant-baseline="alphabetic" fill-opacity="1">D</text><path fill="rgb(0,0,255)" stroke="none" paint-order="stroke fill markers" d=" M 251.28018564224348 47.10462449134138 C 251.28018564224348 48.20919399100297 250.38475514190506 49.10462449134138 249.28018564224348 49.10462449134138 C 248.1756161425819 49.10462449134138 247.28018564224348 48.20919399100297 247.28018564224348 47.10462449134138 C 247.28018564224348 46.0000549916798 248.1756161425819 45.10462449134138 249.28018564224348 45.10462449134138 C 250.38475514190506 45.10462449134138 251.28018564224348 46.0000549916798 251.28018564224348 47.10462449134138 Z" fill-opacity="1"/><path fill="none" stroke="rgb(0,0,0)" paint-order="fill stroke markers" d=" M 251.28018564224348 47.10462449134138 C 251.28018564224348 48.20919399100297 250.38475514190506 49.10462449134138 249.28018564224348 49.10462449134138 C 248.1756161425819 49.10462449134138 247.28018564224348 48.20919399100297 247.28018564224348 47.10462449134138 C 247.28018564224348 46.0000549916798 248.1756161425819 45.10462449134138 249.28018564224348 45.10462449134138 C 250.38475514190506 45.10462449134138 251.28018564224348 46.0000549916798 251.28018564224348 47.10462449134138 Z" stroke-opacity="1" stroke-linecap="round" stroke-linejoin="round" stroke-miterlimit="10"/><text fill="rgb(0,0,255)" stroke="none" font-family="geogebra-sans-serif, sans-serif" font-size="16px" font-style="normal" font-weight="normal" text-decoration="normal" x="253" y="43" text-anchor="start" dominant-baseline="alphabetic" fill-opacity="1">C</text><text fill="none" stroke="rgb(255,255,255)" font-family="geogebra-sans-serif, sans-serif" font-size="16px" font-style="normal" font-weight="normal" text-decoration="normal" x="253" y="43" text-anchor="start" dominant-baseline="alphabetic" stroke-opacity="1" stroke-linejoin="bevel" stroke-miterlimit="10" stroke-width="3">C</text><text fill="rgb(0,0,255)" stroke="none" font-family="geogebra-sans-serif, sans-serif" font-size="16px" font-style="normal" font-weight="normal" text-decoration="normal" x="253" y="43" text-anchor="start" dominant-baseline="alphabetic" fill-opacity="1">C</text><path fill="rgb(0,0,255)" stroke="none" paint-order="stroke fill markers" d=" M 141.39009282112175 89.46897891233728 C 141.39009282112175 90.57354841199887 140.49466232078333 91.46897891233728 139.39009282112175 91.46897891233728 C 138.28552332146018 91.46897891233728 137.39009282112175 90.57354841199887 137.39009282112175 89.46897891233728 C 137.39009282112175 88.36440941267568 138.28552332146018 87.46897891233728 139.39009282112175 87.46897891233728 C 140.49466232078333 87.46897891233728 141.39009282112175 88.36440941267568 141.39009282112175 89.46897891233728 Z" fill-opacity="1"/><path fill="none" stroke="rgb(0,0,0)" paint-order="fill stroke markers" d=" M 141.39009282112175 89.46897891233728 C 141.39009282112175 90.57354841199887 140.49466232078333 91.46897891233728 139.39009282112175 91.46897891233728 C 138.28552332146018 91.46897891233728 137.39009282112175 90.57354841199887 137.39009282112175 89.46897891233728 C 137.39009282112175 88.36440941267568 138.28552332146018 87.46897891233728 139.39009282112175 87.46897891233728 C 140.49466232078333 87.46897891233728 141.39009282112175 88.36440941267568 141.39009282112175 89.46897891233728 Z" stroke-opacity="1" stroke-linecap="round" stroke-linejoin="round" stroke-miterlimit="10"/><text fill="rgb(0,0,255)" stroke="none" font-family="geogebra-sans-serif, sans-serif" font-size="16px" font-style="normal" font-weight="normal" text-decoration="normal" x="140" y="72" text-anchor="start" dominant-baseline="alphabetic" fill-opacity="1">P</text><text fill="none" stroke="rgb(255,255,255)" font-family="geogebra-sans-serif, sans-serif" font-size="16px" font-style="normal" font-weight="normal" text-decoration="normal" x="140" y="72" text-anchor="start" dominant-baseline="alphabetic" stroke-opacity="1" stroke-linejoin="bevel" stroke-miterlimit="10" stroke-width="3">P</text><text fill="rgb(0,0,255)" stroke="none" font-family="geogebra-sans-serif, sans-serif" font-size="16px" font-style="normal" font-weight="normal" text-decoration="normal" x="140" y="72" text-anchor="start" dominant-baseline="alphabetic" fill-opacity="1">P</text></g></g></svg>