<svg version="1.1" xmlns="http://www.w3.org/2000/svg" xmlns:xlink="http://www.w3.org/1999/xlink" width="320" height="307"><defs><clipPath id="xvMJKwnDdETu"><path fill="none" stroke="none" d=" M 0 0 L 320 0 L 320 307 L 0 307 L 0 0 Z"/></clipPath></defs><g transform="scale(1,1)" clip-path="url(#xvMJKwnDdETu)"><g><rect fill="rgb(255,255,255)" stroke="none" x="0" y="0" width="320" height="307" fill-opacity="1"/><path fill="none" stroke="rgb(0,153,255)" paint-order="fill stroke markers" d=" M 230.3333333333332 151.66666666666677 C 230.3333333333332 192.16754832092488 197.50088165425802 225 156.9999999999999 225 C 116.49911834574172 225 83.66666666666659 192.16754832092488 83.66666666666659 151.66666666666677 C 83.66666666666659 111.16578501240866 116.49911834574172 78.33333333333356 156.9999999999999 78.33333333333356 C 197.50088165425802 78.33333333333356 230.3333333333332 111.16578501240866 230.3333333333332 151.66666666666677 Z" stroke-opacity="0.6980392156862745" stroke-linecap="round" stroke-linejoin="round" stroke-miterlimit="10"/><g transform="scale(19,19)"><g transform="translate(4.7368421052631575,8.220473684210527)"><path fill="rgb(0,153,255)" stroke="none" paint-order="stroke fill markers" d=" M 0.264 -0.082 Q 0.201 0.011 0.11900000000000001 0.011 Q 0.032 0.011 0.016 -0.089 Q 0.013000000000000001 -0.109 0.013000000000000001 -0.131 Q 0.013000000000000001 -0.22 0.051000000000000004 -0.311 Q 0.082 -0.382 0.112 -0.419 Q 0.122 -0.431 0.127 -0.431 Q 0.139 -0.431 0.139 -0.419 Q 0.139 -0.41400000000000003 0.129 -0.4 Q 0.045 -0.28 0.045 -0.17500000000000002 Q 0.045 -0.08 0.109 -0.064 Q 0.12 -0.061 0.133 -0.061 Q 0.201 -0.061 0.257 -0.138 Q 0.264 -0.145 0.266 -0.165 Q 0.276 -0.23800000000000002 0.28700000000000003 -0.266 Q 0.3 -0.291 0.315 -0.291 Q 0.334 -0.291 0.336 -0.268 Q 0.336 -0.24 0.308 -0.168 Q 0.306 -0.161 0.303 -0.155 Q 0.297 -0.14400000000000002 0.297 -0.139 Q 0.297 -0.111 0.317 -0.084 Q 0.335 -0.061 0.372 -0.061 Q 0.449 -0.061 0.511 -0.14400000000000002 Q 0.562 -0.214 0.562 -0.28 Q 0.562 -0.331 0.527 -0.367 Q 0.512 -0.38 0.512 -0.394 Q 0.512 -0.419 0.539 -0.435 Q 0.55 -0.442 0.562 -0.442 Q 0.599 -0.442 0.604 -0.388 Q 0.605 -0.377 0.605 -0.371 Q 0.605 -0.307 0.5750000000000001 -0.213 Q 0.55 -0.136 0.511 -0.082 Q 0.443 0.011 0.358 0.011 Q 0.277 0.011 0.264 -0.082 Z"/></g><g transform="translate(5.358842105263157,8.370473684210527) scale(0.7,0.7)"><path fill="rgb(0,153,255)" stroke="none" paint-order="stroke fill markers" d=" M 0.29 -0.352 L 0.29 -0.352 Q 0.39 -0.332 0.434 -0.254 Q 0.457 -0.215 0.457 -0.171 Q 0.457 -0.08600000000000001 0.387 -0.028 Q 0.326 0.022 0.244 0.022 Q 0.145 0.022 0.085 -0.037 Q 0.042 -0.079 0.042 -0.135 Q 0.042 -0.182 0.084 -0.191 Q 0.091 -0.193 0.098 -0.193 Q 0.136 -0.193 0.149 -0.161 Q 0.153 -0.148 0.154 -0.137 Q 0.154 -0.097 0.11800000000000001 -0.085 Q 0.10400000000000001 -0.08 0.088 -0.082 Q 0.125 -0.02 0.216 -0.008 Q 0.229 -0.006 0.241 -0.006 Q 0.305 -0.006 0.335 -0.069 Q 0.354 -0.109 0.354 -0.171 Q 0.354 -0.304 0.274 -0.331 Q 0.256 -0.337 0.23500000000000001 -0.337 L 0.191 -0.337 Q 0.169 -0.337 0.167 -0.34800000000000003 Q 0.167 -0.358 0.182 -0.36 Q 0.197 -0.36 0.221 -0.363 Q 0.272 -0.365 0.301 -0.402 L 0.301 -0.403 L 0.302 -0.404 L 0.303 -0.405 L 0.304 -0.405 L 0.31 -0.41500000000000004 Q 0.338 -0.462 0.338 -0.529 Q 0.338 -0.622 0.266 -0.638 Q 0.254 -0.641 0.242 -0.641 Q 0.17200000000000001 -0.641 0.128 -0.601 Q 0.117 -0.591 0.109 -0.579 Q 0.171 -0.579 0.171 -0.529 Q 0.171 -0.493 0.14 -0.481 Q 0.131 -0.47800000000000004 0.12 -0.47800000000000004 Q 0.081 -0.47800000000000004 0.07100000000000001 -0.513 L 0.07100000000000001 -0.513 L 0.07100000000000001 -0.514 Q 0.069 -0.522 0.069 -0.53 Q 0.069 -0.597 0.135 -0.637 Q 0.183 -0.666 0.246 -0.666 Q 0.337 -0.666 0.393 -0.612 L 0.395 -0.61 Q 0.43 -0.5740000000000001 0.43 -0.528 Q 0.43 -0.445 0.359 -0.389 Q 0.328 -0.365 0.29 -0.352 Z"/></g></g><path fill="none" stroke="rgb(0,153,255)" paint-order="fill stroke markers" d=" M 290.33333333333314 151.66666666666677 C 290.33333333333314 225.3046333107724 230.6379666441056 284.9999999999999 156.9999999999999 284.9999999999999 C 83.36203335589414 284.9999999999999 23.66666666666663 225.3046333107724 23.66666666666663 151.66666666666677 C 23.66666666666663 78.02870002256111 83.36203335589414 18.333333333333655 156.9999999999999 18.333333333333655 C 230.6379666441056 18.333333333333655 290.33333333333314 78.02870002256111 290.33333333333314 151.66666666666677 Z" stroke-opacity="0.6980392156862745" stroke-linecap="round" stroke-linejoin="round" stroke-miterlimit="10"/><g transform="scale(19,19)"><g transform="translate(3.4210526315789473,1.431)"><path fill="rgb(0,153,255)" stroke="none" paint-order="stroke fill markers" d=" M 0.264 -0.082 Q 0.201 0.011 0.11900000000000001 0.011 Q 0.032 0.011 0.016 -0.089 Q 0.013000000000000001 -0.109 0.013000000000000001 -0.131 Q 0.013000000000000001 -0.22 0.051000000000000004 -0.311 Q 0.082 -0.382 0.112 -0.419 Q 0.122 -0.431 0.127 -0.431 Q 0.139 -0.431 0.139 -0.419 Q 0.139 -0.41400000000000003 0.129 -0.4 Q 0.045 -0.28 0.045 -0.17500000000000002 Q 0.045 -0.08 0.109 -0.064 Q 0.12 -0.061 0.133 -0.061 Q 0.201 -0.061 0.257 -0.138 Q 0.264 -0.145 0.266 -0.165 Q 0.276 -0.23800000000000002 0.28700000000000003 -0.266 Q 0.3 -0.291 0.315 -0.291 Q 0.334 -0.291 0.336 -0.268 Q 0.336 -0.24 0.308 -0.168 Q 0.306 -0.161 0.303 -0.155 Q 0.297 -0.14400000000000002 0.297 -0.139 Q 0.297 -0.111 0.317 -0.084 Q 0.335 -0.061 0.372 -0.061 Q 0.449 -0.061 0.511 -0.14400000000000002 Q 0.562 -0.214 0.562 -0.28 Q 0.562 -0.331 0.527 -0.367 Q 0.512 -0.38 0.512 -0.394 Q 0.512 -0.419 0.539 -0.435 Q 0.55 -0.442 0.562 -0.442 Q 0.599 -0.442 0.604 -0.388 Q 0.605 -0.377 0.605 -0.371 Q 0.605 -0.307 0.5750000000000001 -0.213 Q 0.55 -0.136 0.511 -0.082 Q 0.443 0.011 0.358 0.011 Q 0.277 0.011 0.264 -0.082 Z"/></g><g transform="translate(4.043052631578948,1.581) scale(0.7,0.7)"><path fill="rgb(0,153,255)" stroke="none" paint-order="stroke fill markers" d=" M 0.294 -0.64 L 0.294 -0.079 Q 0.294 -0.049 0.306 -0.041 Q 0.323 -0.031 0.387 -0.031 L 0.419 -0.031 L 0.419 0 Q 0.384 -0.003 0.257 -0.003 Q 0.13 -0.003 0.095 0 L 0.095 -0.031 L 0.127 -0.031 Q 0.20400000000000001 -0.031 0.215 -0.049 L 0.216 -0.05 Q 0.22 -0.058 0.22 -0.079 L 0.22 -0.597 Q 0.168 -0.5710000000000001 0.089 -0.5710000000000001 L 0.089 -0.602 Q 0.209 -0.602 0.271 -0.666 Q 0.29 -0.666 0.293 -0.659 L 0.293 -0.659 L 0.293 -0.658 Q 0.294 -0.655 0.294 -0.64 Z"/></g></g><path fill="none" stroke="rgb(102,102,102)" paint-order="fill stroke markers" d=" M 249.86307547091258 115.8001351651333 C 249.86307547091258 136.05057599226237 233.446849631375 152.4668018317999 213.19640880424592 152.4668018317999 C 192.94596797711682 152.4668018317999 176.52974213757926 136.05057599226237 176.52974213757926 115.8001351651333 C 176.52974213757926 95.54969433800424 192.94596797711682 79.1334684984667 213.19640880424592 79.1334684984667 C 233.446849631375 79.1334684984667 249.86307547091258 95.54969433800424 249.86307547091258 115.8001351651333 Z" stroke-opacity="0.6980392156862745" stroke-linejoin="round" stroke-miterlimit="10" stroke-dasharray="9,8"/><path fill="none" stroke="rgb(255,127,0)" paint-order="fill stroke markers" d=" M 269.39281760849195 79.93360366359985 L 190.94060244639107 86.66041094189993" stroke-opacity="0.6980392156862745" stroke-linecap="round" stroke-linejoin="round" stroke-miterlimit="10"/><path fill="none" stroke="rgb(255,127,0)" paint-order="fill stroke markers" d=" M 190.94060244639107 86.66041094189993 L 112.48838728428936 93.38721822020011" stroke-opacity="0.6980392156862745" stroke-linecap="round" stroke-linejoin="round" stroke-miterlimit="10"/><path fill="none" stroke="rgb(102,102,102)" paint-order="fill stroke markers" d=" M 14.376401919027487 101.79973297048264 L 112.48838728428936 93.38721822020011" stroke-opacity="0.6980392156862745" stroke-linejoin="round" stroke-miterlimit="10" stroke-dasharray="9,8"/><path fill="none" stroke="rgb(102,102,102)" paint-order="fill stroke markers" d=" M 304.55561442041545 76.91860457108092 L 269.39281760849195 79.93360366359985" stroke-opacity="0.6980392156862745" stroke-linejoin="round" stroke-miterlimit="10" stroke-dasharray="9,8"/><path fill="none" stroke="rgb(102,102,102)" paint-order="fill stroke markers" d=" M 269.39281760849195 79.93360366359985 L 213.19640880424592 115.8001351651333" stroke-opacity="0.6980392156862745" stroke-linejoin="round" stroke-miterlimit="10" stroke-dasharray="9,8"/><path fill="none" stroke="rgb(102,102,102)" paint-order="fill stroke markers" d=" M 213.19640880424592 115.8001351651333 L 156.9999999999999 151.66666666666677" stroke-opacity="0.6980392156862745" stroke-linejoin="round" stroke-miterlimit="10" stroke-dasharray="9,8"/><path fill="rgb(0,0,255)" stroke="none" paint-order="stroke fill markers" d=" M 158.9999999999999 151.66666666666677 C 158.9999999999999 152.77123616632835 158.10456949966147 153.66666666666677 156.9999999999999 153.66666666666677 C 155.8954305003383 153.66666666666677 154.9999999999999 152.77123616632835 154.9999999999999 151.66666666666677 C 154.9999999999999 150.5620971670052 155.8954305003383 149.66666666666677 156.9999999999999 149.66666666666677 C 158.10456949966147 149.66666666666677 158.9999999999999 150.5620971670052 158.9999999999999 151.66666666666677 Z" fill-opacity="1"/><path fill="none" stroke="rgb(0,0,0)" paint-order="fill stroke markers" d=" M 158.9999999999999 151.66666666666677 C 158.9999999999999 152.77123616632835 158.10456949966147 153.66666666666677 156.9999999999999 153.66666666666677 C 155.8954305003383 153.66666666666677 154.9999999999999 152.77123616632835 154.9999999999999 151.66666666666677 C 154.9999999999999 150.5620971670052 155.8954305003383 149.66666666666677 156.9999999999999 149.66666666666677 C 158.10456949966147 149.66666666666677 158.9999999999999 150.5620971670052 158.9999999999999 151.66666666666677 Z" stroke-opacity="1" stroke-linecap="round" stroke-linejoin="round" stroke-miterlimit="10"/><text fill="rgb(0,0,255)" stroke="none" font-family="geogebra-sans-serif, sans-serif" font-size="16px" font-style="normal" font-weight="normal" text-decoration="normal" x="137" y="146" text-anchor="start" dominant-baseline="alphabetic" fill-opacity="1">O</text><text fill="none" stroke="rgb(255,255,255)" font-family="geogebra-sans-serif, sans-serif" font-size="16px" font-style="normal" font-weight="normal" text-decoration="normal" x="137" y="146" text-anchor="start" dominant-baseline="alphabetic" stroke-opacity="1" stroke-linejoin="bevel" stroke-miterlimit="10" stroke-width="3">O</text><text fill="rgb(0,0,255)" stroke="none" font-family="geogebra-sans-serif, sans-serif" font-size="16px" font-style="normal" font-weight="normal" text-decoration="normal" x="137" y="146" text-anchor="start" dominant-baseline="alphabetic" fill-opacity="1">O</text><path fill="rgb(0,0,255)" stroke="none" paint-order="stroke fill markers" d=" M 271.39281760849195 79.93360366359985 C 271.39281760849195 81.03817316326143 270.49738710815353 81.93360366359985 269.39281760849195 81.93360366359985 C 268.2882481088304 81.93360366359985 267.39281760849195 81.03817316326143 267.39281760849195 79.93360366359985 C 267.39281760849195 78.82903416393826 268.2882481088304 77.93360366359985 269.39281760849195 77.93360366359985 C 270.49738710815353 77.93360366359985 271.39281760849195 78.82903416393826 271.39281760849195 79.93360366359985 Z" fill-opacity="1"/><path fill="none" stroke="rgb(0,0,0)" paint-order="fill stroke markers" d=" M 271.39281760849195 79.93360366359985 C 271.39281760849195 81.03817316326143 270.49738710815353 81.93360366359985 269.39281760849195 81.93360366359985 C 268.2882481088304 81.93360366359985 267.39281760849195 81.03817316326143 267.39281760849195 79.93360366359985 C 267.39281760849195 78.82903416393826 268.2882481088304 77.93360366359985 269.39281760849195 77.93360366359985 C 270.49738710815353 77.93360366359985 271.39281760849195 78.82903416393826 271.39281760849195 79.93360366359985 Z" stroke-opacity="1" stroke-linecap="round" stroke-linejoin="round" stroke-miterlimit="10"/><text fill="rgb(0,0,255)" stroke="none" font-family="geogebra-sans-serif, sans-serif" font-size="16px" font-style="normal" font-weight="normal" text-decoration="normal" x="285" y="69" text-anchor="start" dominant-baseline="alphabetic" fill-opacity="1">A</text><text fill="none" stroke="rgb(255,255,255)" font-family="geogebra-sans-serif, sans-serif" font-size="16px" font-style="normal" font-weight="normal" text-decoration="normal" x="285" y="69" text-anchor="start" dominant-baseline="alphabetic" stroke-opacity="1" stroke-linejoin="bevel" stroke-miterlimit="10" stroke-width="3">A</text><text fill="rgb(0,0,255)" stroke="none" font-family="geogebra-sans-serif, sans-serif" font-size="16px" font-style="normal" font-weight="normal" text-decoration="normal" x="285" y="69" text-anchor="start" dominant-baseline="alphabetic" fill-opacity="1">A</text><path fill="rgb(0,0,255)" stroke="none" paint-order="stroke fill markers" d=" M 215.19640880424592 115.8001351651333 C 215.19640880424592 116.90470466479488 214.3009783039075 117.8001351651333 213.19640880424592 117.8001351651333 C 212.09183930458434 117.8001351651333 211.19640880424592 116.90470466479488 211.19640880424592 115.8001351651333 C 211.19640880424592 114.6955656654717 212.09183930458434 113.8001351651333 213.19640880424592 113.8001351651333 C 214.3009783039075 113.8001351651333 215.19640880424592 114.6955656654717 215.19640880424592 115.8001351651333 Z" fill-opacity="1"/><path fill="none" stroke="rgb(0,0,0)" paint-order="fill stroke markers" d=" M 215.19640880424592 115.8001351651333 C 215.19640880424592 116.90470466479488 214.3009783039075 117.8001351651333 213.19640880424592 117.8001351651333 C 212.09183930458434 117.8001351651333 211.19640880424592 116.90470466479488 211.19640880424592 115.8001351651333 C 211.19640880424592 114.6955656654717 212.09183930458434 113.8001351651333 213.19640880424592 113.8001351651333 C 214.3009783039075 113.8001351651333 215.19640880424592 114.6955656654717 215.19640880424592 115.8001351651333 Z" stroke-opacity="1" stroke-linecap="round" stroke-linejoin="round" stroke-miterlimit="10"/><text fill="rgb(0,0,255)" stroke="none" font-family="geogebra-sans-serif, sans-serif" font-size="16px" font-style="normal" font-weight="normal" text-decoration="normal" x="207" y="140" text-anchor="start" dominant-baseline="alphabetic" fill-opacity="1">O'</text><text fill="none" stroke="rgb(255,255,255)" font-family="geogebra-sans-serif, sans-serif" font-size="16px" font-style="normal" font-weight="normal" text-decoration="normal" x="207" y="140" text-anchor="start" dominant-baseline="alphabetic" stroke-opacity="1" stroke-linejoin="bevel" stroke-miterlimit="10" stroke-width="3">O'</text><text fill="rgb(0,0,255)" stroke="none" font-family="geogebra-sans-serif, sans-serif" font-size="16px" font-style="normal" font-weight="normal" text-decoration="normal" x="207" y="140" text-anchor="start" dominant-baseline="alphabetic" fill-opacity="1">O'</text><path fill="rgb(0,0,255)" stroke="none" paint-order="stroke fill markers" d=" M 192.94060244639107 86.66041094189993 C 192.94060244639107 87.7649804415615 192.04517194605265 88.66041094189993 190.94060244639107 88.66041094189993 C 189.8360329467295 88.66041094189993 188.94060244639107 87.7649804415615 188.94060244639107 86.66041094189993 C 188.94060244639107 85.55584144223833 189.8360329467295 84.66041094189993 190.94060244639107 84.66041094189993 C 192.04517194605265 84.66041094189993 192.94060244639107 85.55584144223833 192.94060244639107 86.66041094189993 Z" fill-opacity="1"/><path fill="none" stroke="rgb(0,0,0)" paint-order="fill stroke markers" d=" M 192.94060244639107 86.66041094189993 C 192.94060244639107 87.7649804415615 192.04517194605265 88.66041094189993 190.94060244639107 88.66041094189993 C 189.8360329467295 88.66041094189993 188.94060244639107 87.7649804415615 188.94060244639107 86.66041094189993 C 188.94060244639107 85.55584144223833 189.8360329467295 84.66041094189993 190.94060244639107 84.66041094189993 C 192.04517194605265 84.66041094189993 192.94060244639107 85.55584144223833 192.94060244639107 86.66041094189993 Z" stroke-opacity="1" stroke-linecap="round" stroke-linejoin="round" stroke-miterlimit="10"/><text fill="rgb(0,0,255)" stroke="none" font-family="geogebra-sans-serif, sans-serif" font-size="16px" font-style="normal" font-weight="normal" text-decoration="normal" x="181" y="74" text-anchor="start" dominant-baseline="alphabetic" fill-opacity="1">B'</text><text fill="none" stroke="rgb(255,255,255)" font-family="geogebra-sans-serif, sans-serif" font-size="16px" font-style="normal" font-weight="normal" text-decoration="normal" x="181" y="74" text-anchor="start" dominant-baseline="alphabetic" stroke-opacity="1" stroke-linejoin="bevel" stroke-miterlimit="10" stroke-width="3">B'</text><text fill="rgb(0,0,255)" stroke="none" font-family="geogebra-sans-serif, sans-serif" font-size="16px" font-style="normal" font-weight="normal" text-decoration="normal" x="181" y="74" text-anchor="start" dominant-baseline="alphabetic" fill-opacity="1">B'</text><path fill="rgb(0,0,255)" stroke="none" paint-order="stroke fill markers" d=" M 114.48838728428936 93.38721822020011 C 114.48838728428936 94.49178771986169 113.59295678395094 95.38721822020011 112.48838728428936 95.38721822020011 C 111.38381778462777 95.38721822020011 110.48838728428936 94.49178771986169 110.48838728428936 93.38721822020011 C 110.48838728428936 92.28264872053852 111.38381778462777 91.38721822020011 112.48838728428936 91.38721822020011 C 113.59295678395094 91.38721822020011 114.48838728428936 92.28264872053852 114.48838728428936 93.38721822020011 Z" fill-opacity="1"/><path fill="none" stroke="rgb(0,0,0)" paint-order="fill stroke markers" d=" M 114.48838728428936 93.38721822020011 C 114.48838728428936 94.49178771986169 113.59295678395094 95.38721822020011 112.48838728428936 95.38721822020011 C 111.38381778462777 95.38721822020011 110.48838728428936 94.49178771986169 110.48838728428936 93.38721822020011 C 110.48838728428936 92.28264872053852 111.38381778462777 91.38721822020011 112.48838728428936 91.38721822020011 C 113.59295678395094 91.38721822020011 114.48838728428936 92.28264872053852 114.48838728428936 93.38721822020011 Z" stroke-opacity="1" stroke-linecap="round" stroke-linejoin="round" stroke-miterlimit="10"/><text fill="rgb(0,0,255)" stroke="none" font-family="geogebra-sans-serif, sans-serif" font-size="16px" font-style="normal" font-weight="normal" text-decoration="normal" x="107" y="82" text-anchor="start" dominant-baseline="alphabetic" fill-opacity="1">C'</text><text fill="none" stroke="rgb(255,255,255)" font-family="geogebra-sans-serif, sans-serif" font-size="16px" font-style="normal" font-weight="normal" text-decoration="normal" x="107" y="82" text-anchor="start" dominant-baseline="alphabetic" stroke-opacity="1" stroke-linejoin="bevel" stroke-miterlimit="10" stroke-width="3">C'</text><text fill="rgb(0,0,255)" stroke="none" font-family="geogebra-sans-serif, sans-serif" font-size="16px" font-style="normal" font-weight="normal" text-decoration="normal" x="107" y="82" text-anchor="start" dominant-baseline="alphabetic" fill-opacity="1">C'</text></g></g></svg>