<svg version="1.1" xmlns="http://www.w3.org/2000/svg" xmlns:xlink="http://www.w3.org/1999/xlink" width="328" height="239"><defs><clipPath id="PgHSlDoZAcDs"><path fill="none" stroke="none" d=" M 0 0 L 328 0 L 328 239 L 0 239 L 0 0 Z"/></clipPath></defs><g transform="scale(1,1)" clip-path="url(#PgHSlDoZAcDs)"><g><rect fill="rgb(255,255,255)" stroke="none" x="0" y="0" width="328" height="239" fill-opacity="1"/><path fill="none" stroke="rgb(0,100,0)" paint-order="fill stroke markers" d=" M 84.99999999999996 103.99999999999997 L 184.99999999999994 103.99999999999997" stroke-opacity="0.6980392156862745" stroke-linecap="round" stroke-linejoin="round" stroke-miterlimit="10"/><path fill="none" stroke="rgb(0,100,0)" paint-order="fill stroke markers" d=" M 34.999999999999964 204.00000000000003 L 284.9999999999999 204.00000000000003" stroke-opacity="0.6980392156862745" stroke-linecap="round" stroke-linejoin="round" stroke-miterlimit="10"/><path fill="none" stroke="rgb(0,100,0)" paint-order="fill stroke markers" d=" M 284.9999999999999 204.00000000000003 L 184.99999999999994 103.99999999999997" stroke-opacity="0.6980392156862745" stroke-linecap="round" stroke-linejoin="round" stroke-miterlimit="10"/><path fill="none" stroke="rgb(0,100,0)" paint-order="fill stroke markers" d=" M 84.99999999999996 103.99999999999997 L 34.999999999999964 204.00000000000003" stroke-opacity="0.6980392156862745" stroke-linecap="round" stroke-linejoin="round" stroke-miterlimit="10"/><path fill="none" stroke="rgb(0,100,0)" paint-order="fill stroke markers" d=" M 118.33333333333329 37.333333333333286 L 159.99999999999994 204.00000000000003" stroke-opacity="0.6980392156862745" stroke-linecap="round" stroke-linejoin="round" stroke-miterlimit="10"/><path fill="none" stroke="rgb(0,100,0)" paint-order="fill stroke markers" d=" M 84.99999999999996 103.99999999999997 L 284.9999999999999 204.00000000000003" stroke-opacity="0.6980392156862745" stroke-linecap="round" stroke-linejoin="round" stroke-miterlimit="10"/><path fill="none" stroke="rgb(0,100,0)" paint-order="fill stroke markers" d=" M 184.99999999999994 103.99999999999997 L 34.999999999999964 204.00000000000003" stroke-opacity="0.6980392156862745" stroke-linecap="round" stroke-linejoin="round" stroke-miterlimit="10"/><path fill="none" stroke="rgb(0,100,0)" paint-order="fill stroke markers" d=" M 118.33333333333329 37.333333333333286 L 84.99999999999996 103.99999999999997" stroke-opacity="0.6980392156862745" stroke-linecap="round" stroke-linejoin="round" stroke-miterlimit="10"/><path fill="none" stroke="rgb(0,100,0)" paint-order="fill stroke markers" d=" M 118.33333333333329 37.333333333333286 L 184.99999999999994 103.99999999999997" stroke-opacity="0.6980392156862745" stroke-linecap="round" stroke-linejoin="round" stroke-miterlimit="10"/><path fill="rgb(0,0,255)" stroke="none" paint-order="stroke fill markers" d=" M 36.999999999999964 204.00000000000003 C 36.999999999999964 205.1045694996616 36.10456949966155 206.00000000000003 34.999999999999964 206.00000000000003 C 33.89543050033838 206.00000000000003 32.999999999999964 205.1045694996616 32.999999999999964 204.00000000000003 C 32.999999999999964 202.89543050033845 33.89543050033838 202.00000000000003 34.999999999999964 202.00000000000003 C 36.10456949966155 202.00000000000003 36.999999999999964 202.89543050033845 36.999999999999964 204.00000000000003 Z" fill-opacity="1"/><path fill="none" stroke="rgb(0,0,0)" paint-order="fill stroke markers" d=" M 36.999999999999964 204.00000000000003 C 36.999999999999964 205.1045694996616 36.10456949966155 206.00000000000003 34.999999999999964 206.00000000000003 C 33.89543050033838 206.00000000000003 32.999999999999964 205.1045694996616 32.999999999999964 204.00000000000003 C 32.999999999999964 202.89543050033845 33.89543050033838 202.00000000000003 34.999999999999964 202.00000000000003 C 36.10456949966155 202.00000000000003 36.999999999999964 202.89543050033845 36.999999999999964 204.00000000000003 Z" stroke-opacity="1" stroke-linecap="round" stroke-linejoin="round" stroke-miterlimit="10"/><text fill="rgb(0,0,255)" stroke="none" font-family="geogebra-sans-serif, sans-serif" font-size="16px" font-style="normal" font-weight="normal" text-decoration="normal" x="16" y="209" text-anchor="start" dominant-baseline="alphabetic" fill-opacity="1">A</text><text fill="rgb(0,0,255)" stroke="none" font-family="geogebra-sans-serif, sans-serif" font-size="16px" font-style="normal" font-weight="normal" text-decoration="normal" x="16" y="209" text-anchor="start" dominant-baseline="alphabetic" fill-opacity="1">A</text><path fill="rgb(0,0,255)" stroke="none" paint-order="stroke fill markers" d=" M 286.9999999999999 204.00000000000003 C 286.9999999999999 205.1045694996616 286.10456949966147 206.00000000000003 284.9999999999999 206.00000000000003 C 283.8954305003383 206.00000000000003 282.9999999999999 205.1045694996616 282.9999999999999 204.00000000000003 C 282.9999999999999 202.89543050033845 283.8954305003383 202.00000000000003 284.9999999999999 202.00000000000003 C 286.10456949966147 202.00000000000003 286.9999999999999 202.89543050033845 286.9999999999999 204.00000000000003 Z" fill-opacity="1"/><path fill="none" stroke="rgb(0,0,0)" paint-order="fill stroke markers" d=" M 286.9999999999999 204.00000000000003 C 286.9999999999999 205.1045694996616 286.10456949966147 206.00000000000003 284.9999999999999 206.00000000000003 C 283.8954305003383 206.00000000000003 282.9999999999999 205.1045694996616 282.9999999999999 204.00000000000003 C 282.9999999999999 202.89543050033845 283.8954305003383 202.00000000000003 284.9999999999999 202.00000000000003 C 286.10456949966147 202.00000000000003 286.9999999999999 202.89543050033845 286.9999999999999 204.00000000000003 Z" stroke-opacity="1" stroke-linecap="round" stroke-linejoin="round" stroke-miterlimit="10"/><text fill="rgb(0,0,255)" stroke="none" font-family="geogebra-sans-serif, sans-serif" font-size="16px" font-style="normal" font-weight="normal" text-decoration="normal" x="299" y="210" text-anchor="start" dominant-baseline="alphabetic" fill-opacity="1">B</text><text fill="rgb(0,0,255)" stroke="none" font-family="geogebra-sans-serif, sans-serif" font-size="16px" font-style="normal" font-weight="normal" text-decoration="normal" x="299" y="210" text-anchor="start" dominant-baseline="alphabetic" fill-opacity="1">B</text><path fill="rgb(0,0,255)" stroke="none" paint-order="stroke fill markers" d=" M 86.99999999999996 103.99999999999997 C 86.99999999999996 105.10456949966155 86.10456949966155 105.99999999999997 84.99999999999996 105.99999999999997 C 83.89543050033836 105.99999999999997 82.99999999999996 105.10456949966155 82.99999999999996 103.99999999999997 C 82.99999999999996 102.89543050033838 83.89543050033836 101.99999999999997 84.99999999999996 101.99999999999997 C 86.10456949966155 101.99999999999997 86.99999999999996 102.89543050033838 86.99999999999996 103.99999999999997 Z" fill-opacity="1"/><path fill="none" stroke="rgb(0,0,0)" paint-order="fill stroke markers" d=" M 86.99999999999996 103.99999999999997 C 86.99999999999996 105.10456949966155 86.10456949966155 105.99999999999997 84.99999999999996 105.99999999999997 C 83.89543050033836 105.99999999999997 82.99999999999996 105.10456949966155 82.99999999999996 103.99999999999997 C 82.99999999999996 102.89543050033838 83.89543050033836 101.99999999999997 84.99999999999996 101.99999999999997 C 86.10456949966155 101.99999999999997 86.99999999999996 102.89543050033838 86.99999999999996 103.99999999999997 Z" stroke-opacity="1" stroke-linecap="round" stroke-linejoin="round" stroke-miterlimit="10"/><text fill="rgb(0,0,255)" stroke="none" font-family="geogebra-sans-serif, sans-serif" font-size="16px" font-style="normal" font-weight="normal" text-decoration="normal" x="68" y="100" text-anchor="start" dominant-baseline="alphabetic" fill-opacity="1">C</text><text fill="rgb(0,0,255)" stroke="none" font-family="geogebra-sans-serif, sans-serif" font-size="16px" font-style="normal" font-weight="normal" text-decoration="normal" x="68" y="100" text-anchor="start" dominant-baseline="alphabetic" fill-opacity="1">C</text><path fill="rgb(0,0,255)" stroke="none" paint-order="stroke fill markers" d=" M 186.99999999999994 103.99999999999997 C 186.99999999999994 105.10456949966155 186.10456949966152 105.99999999999997 184.99999999999994 105.99999999999997 C 183.89543050033836 105.99999999999997 182.99999999999994 105.10456949966155 182.99999999999994 103.99999999999997 C 182.99999999999994 102.89543050033838 183.89543050033836 101.99999999999997 184.99999999999994 101.99999999999997 C 186.10456949966152 101.99999999999997 186.99999999999994 102.89543050033838 186.99999999999994 103.99999999999997 Z" fill-opacity="1"/><path fill="none" stroke="rgb(0,0,0)" paint-order="fill stroke markers" d=" M 186.99999999999994 103.99999999999997 C 186.99999999999994 105.10456949966155 186.10456949966152 105.99999999999997 184.99999999999994 105.99999999999997 C 183.89543050033836 105.99999999999997 182.99999999999994 105.10456949966155 182.99999999999994 103.99999999999997 C 182.99999999999994 102.89543050033838 183.89543050033836 101.99999999999997 184.99999999999994 101.99999999999997 C 186.10456949966152 101.99999999999997 186.99999999999994 102.89543050033838 186.99999999999994 103.99999999999997 Z" stroke-opacity="1" stroke-linecap="round" stroke-linejoin="round" stroke-miterlimit="10"/><text fill="rgb(0,0,255)" stroke="none" font-family="geogebra-sans-serif, sans-serif" font-size="16px" font-style="normal" font-weight="normal" text-decoration="normal" x="189" y="100" text-anchor="start" dominant-baseline="alphabetic" fill-opacity="1">D</text><text fill="rgb(0,0,255)" stroke="none" font-family="geogebra-sans-serif, sans-serif" font-size="16px" font-style="normal" font-weight="normal" text-decoration="normal" x="189" y="100" text-anchor="start" dominant-baseline="alphabetic" fill-opacity="1">D</text><path fill="rgb(0,0,255)" stroke="none" paint-order="stroke fill markers" d=" M 120.33333333333329 37.333333333333286 C 120.33333333333329 38.43790283299487 119.43790283299487 39.333333333333286 118.33333333333329 39.333333333333286 C 117.22876383367169 39.333333333333286 116.33333333333329 38.43790283299487 116.33333333333329 37.333333333333286 C 116.33333333333329 36.2287638336717 117.22876383367169 35.333333333333286 118.33333333333329 35.333333333333286 C 119.43790283299487 35.333333333333286 120.33333333333329 36.2287638336717 120.33333333333329 37.333333333333286 Z" fill-opacity="1"/><path fill="none" stroke="rgb(0,0,0)" paint-order="fill stroke markers" d=" M 120.33333333333329 37.333333333333286 C 120.33333333333329 38.43790283299487 119.43790283299487 39.333333333333286 118.33333333333329 39.333333333333286 C 117.22876383367169 39.333333333333286 116.33333333333329 38.43790283299487 116.33333333333329 37.333333333333286 C 116.33333333333329 36.2287638336717 117.22876383367169 35.333333333333286 118.33333333333329 35.333333333333286 C 119.43790283299487 35.333333333333286 120.33333333333329 36.2287638336717 120.33333333333329 37.333333333333286 Z" stroke-opacity="1" stroke-linecap="round" stroke-linejoin="round" stroke-miterlimit="10"/><text fill="rgb(0,0,255)" stroke="none" font-family="geogebra-sans-serif, sans-serif" font-size="16px" font-style="normal" font-weight="normal" text-decoration="normal" x="116" y="29" text-anchor="start" dominant-baseline="alphabetic" fill-opacity="1">M</text><text fill="rgb(0,0,255)" stroke="none" font-family="geogebra-sans-serif, sans-serif" font-size="16px" font-style="normal" font-weight="normal" text-decoration="normal" x="116" y="29" text-anchor="start" dominant-baseline="alphabetic" fill-opacity="1">M</text><path fill="rgb(0,0,255)" stroke="none" paint-order="stroke fill markers" d=" M 136.99999999999994 103.99999999999997 C 136.99999999999994 105.10456949966155 136.10456949966152 105.99999999999997 134.99999999999994 105.99999999999997 C 133.89543050033836 105.99999999999997 132.99999999999994 105.10456949966155 132.99999999999994 103.99999999999997 C 132.99999999999994 102.89543050033838 133.89543050033836 101.99999999999997 134.99999999999994 101.99999999999997 C 136.10456949966152 101.99999999999997 136.99999999999994 102.89543050033838 136.99999999999994 103.99999999999997 Z" fill-opacity="1"/><path fill="none" stroke="rgb(0,0,0)" paint-order="fill stroke markers" d=" M 136.99999999999994 103.99999999999997 C 136.99999999999994 105.10456949966155 136.10456949966152 105.99999999999997 134.99999999999994 105.99999999999997 C 133.89543050033836 105.99999999999997 132.99999999999994 105.10456949966155 132.99999999999994 103.99999999999997 C 132.99999999999994 102.89543050033838 133.89543050033836 101.99999999999997 134.99999999999994 101.99999999999997 C 136.10456949966152 101.99999999999997 136.99999999999994 102.89543050033838 136.99999999999994 103.99999999999997 Z" stroke-opacity="1" stroke-linecap="round" stroke-linejoin="round" stroke-miterlimit="10"/><text fill="rgb(0,0,255)" stroke="none" font-family="geogebra-sans-serif, sans-serif" font-size="16px" font-style="normal" font-weight="normal" text-decoration="normal" x="117" y="100" text-anchor="start" dominant-baseline="alphabetic" fill-opacity="1">L</text><text fill="rgb(0,0,255)" stroke="none" font-family="geogebra-sans-serif, sans-serif" font-size="16px" font-style="normal" font-weight="normal" text-decoration="normal" x="117" y="100" text-anchor="start" dominant-baseline="alphabetic" fill-opacity="1">L</text><path fill="rgb(0,0,255)" stroke="none" paint-order="stroke fill markers" d=" M 161.99999999999994 204.00000000000003 C 161.99999999999994 205.1045694996616 161.10456949966152 206.00000000000003 159.99999999999994 206.00000000000003 C 158.89543050033836 206.00000000000003 157.99999999999994 205.1045694996616 157.99999999999994 204.00000000000003 C 157.99999999999994 202.89543050033845 158.89543050033836 202.00000000000003 159.99999999999994 202.00000000000003 C 161.10456949966152 202.00000000000003 161.99999999999994 202.89543050033845 161.99999999999994 204.00000000000003 Z" fill-opacity="1"/><path fill="none" stroke="rgb(0,0,0)" paint-order="fill stroke markers" d=" M 161.99999999999994 204.00000000000003 C 161.99999999999994 205.1045694996616 161.10456949966152 206.00000000000003 159.99999999999994 206.00000000000003 C 158.89543050033836 206.00000000000003 157.99999999999994 205.1045694996616 157.99999999999994 204.00000000000003 C 157.99999999999994 202.89543050033845 158.89543050033836 202.00000000000003 159.99999999999994 202.00000000000003 C 161.10456949966152 202.00000000000003 161.99999999999994 202.89543050033845 161.99999999999994 204.00000000000003 Z" stroke-opacity="1" stroke-linecap="round" stroke-linejoin="round" stroke-miterlimit="10"/><text fill="rgb(0,0,255)" stroke="none" font-family="geogebra-sans-serif, sans-serif" font-size="16px" font-style="normal" font-weight="normal" text-decoration="normal" x="161" y="226" text-anchor="start" dominant-baseline="alphabetic" fill-opacity="1">K</text><text fill="rgb(0,0,255)" stroke="none" font-family="geogebra-sans-serif, sans-serif" font-size="16px" font-style="normal" font-weight="normal" text-decoration="normal" x="161" y="226" text-anchor="start" dominant-baseline="alphabetic" fill-opacity="1">K</text><path fill="rgb(0,0,255)" stroke="none" paint-order="stroke fill markers" d=" M 144.14285714285705 132.57142857142856 C 144.14285714285705 133.67599807109013 143.24742664251863 134.57142857142856 142.14285714285705 134.57142857142856 C 141.03828764319547 134.57142857142856 140.14285714285705 133.67599807109013 140.14285714285705 132.57142857142856 C 140.14285714285705 131.46685907176698 141.03828764319547 130.57142857142856 142.14285714285705 130.57142857142856 C 143.24742664251863 130.57142857142856 144.14285714285705 131.46685907176698 144.14285714285705 132.57142857142856 Z" fill-opacity="1"/><path fill="none" stroke="rgb(0,0,0)" paint-order="fill stroke markers" d=" M 144.14285714285705 132.57142857142856 C 144.14285714285705 133.67599807109013 143.24742664251863 134.57142857142856 142.14285714285705 134.57142857142856 C 141.03828764319547 134.57142857142856 140.14285714285705 133.67599807109013 140.14285714285705 132.57142857142856 C 140.14285714285705 131.46685907176698 141.03828764319547 130.57142857142856 142.14285714285705 130.57142857142856 C 143.24742664251863 130.57142857142856 144.14285714285705 131.46685907176698 144.14285714285705 132.57142857142856 Z" stroke-opacity="1" stroke-linecap="round" stroke-linejoin="round" stroke-miterlimit="10"/><text fill="rgb(0,0,255)" stroke="none" font-family="geogebra-sans-serif, sans-serif" font-size="16px" font-style="normal" font-weight="normal" text-decoration="normal" x="127" y="160" text-anchor="start" dominant-baseline="alphabetic" fill-opacity="1">N</text><text fill="rgb(0,0,255)" stroke="none" font-family="geogebra-sans-serif, sans-serif" font-size="16px" font-style="normal" font-weight="normal" text-decoration="normal" x="127" y="160" text-anchor="start" dominant-baseline="alphabetic" fill-opacity="1">N</text></g></g></svg>