<svg version="1.1" xmlns="http://www.w3.org/2000/svg" xmlns:xlink="http://www.w3.org/1999/xlink" width="393" height="390"><defs><clipPath id="OGACmtzCQONz"><path fill="none" stroke="none" d=" M 0 0 L 393 0 L 393 390 L 0 390 L 0 0 Z"/></clipPath></defs><g transform="scale(1,1)" clip-path="url(#OGACmtzCQONz)"><g><rect fill="rgb(255,255,255)" stroke="none" x="0" y="0" width="393" height="390" fill-opacity="1"/><path fill="none" stroke="rgb(0,153,255)" paint-order="fill stroke markers" d=" M 205.70831746635952 176.00000000000017 C 205.70831746635952 206.21456942557228 181.21456942557194 230.70831746635986 150.99999999999991 230.70831746635986 C 120.78543057442786 230.70831746635986 96.2916825336403 206.21456942557228 96.2916825336403 176.00000000000017 C 96.2916825336403 145.7854305744281 120.78543057442786 121.29168253364048 150.99999999999991 121.29168253364048 C 181.21456942557194 121.29168253364048 205.70831746635952 145.7854305744281 205.70831746635952 176.00000000000017 Z" stroke-opacity="0.6980392156862745" stroke-linecap="round" stroke-linejoin="round" stroke-miterlimit="10"/><path fill="none" stroke="rgb(244,0,153)" paint-order="fill stroke markers" d=" M 233.70831746635946 223.0000000000001 C 233.70831746635946 253.21456942557217 209.21456942557188 277.7083174663598 178.99999999999986 277.7083174663598 C 148.78543057442783 277.7083174663598 124.29168253364026 253.21456942557217 124.29168253364026 223.0000000000001 C 124.29168253364026 192.78543057442803 148.78543057442783 168.29168253364043 178.99999999999986 168.29168253364043 C 209.21456942557188 168.29168253364043 233.70831746635946 192.78543057442803 233.70831746635946 223.0000000000001 Z" stroke-opacity="0.6980392156862745" stroke-linejoin="round" stroke-miterlimit="10" stroke-width="1.5" stroke-dasharray="5.5,4"/><path fill="none" stroke="rgb(0,153,255)" paint-order="fill stroke markers" d=" M 278.745031103602 254.05953033703202 C 278.745031103602 284.27409976260407 254.25128306281442 308.7678478033917 224.0367136372424 308.7678478033917 C 193.82214421167038 308.7678478033917 169.3283961708828 284.27409976260407 169.3283961708828 254.05953033703202 C 169.3283961708828 223.84496091145994 193.82214421167038 199.35121287067233 224.0367136372424 199.35121287067233 C 254.25128306281442 199.35121287067233 278.745031103602 223.84496091145994 278.745031103602 254.05953033703202 Z" stroke-opacity="0.6980392156862745" stroke-linecap="round" stroke-linejoin="round" stroke-miterlimit="10"/><path fill="none" stroke="rgb(0,153,255)" paint-order="fill stroke markers" d=" M 201.81031285534704 267.4467918058866 C 201.81031285534704 297.66136123145867 177.31656481455946 322.15510927224625 147.10199538898743 322.15510927224625 C 116.8874259634154 322.15510927224625 92.39367792262783 297.66136123145867 92.39367792262783 267.4467918058866 C 92.39367792262783 237.23222238031454 116.8874259634154 212.73847433952693 147.10199538898743 212.73847433952693 C 177.31656481455946 212.73847433952693 201.81031285534704 237.23222238031454 201.81031285534704 267.4467918058866 Z" stroke-opacity="0.6980392156862745" stroke-linecap="round" stroke-linejoin="round" stroke-miterlimit="10"/><path fill="none" stroke="rgb(244,0,153)" paint-order="fill stroke markers" d=" M 363.7738489736307 192.25869263594552 C 363.7738489736307 287.92783892998295 286.21868240487754 365.48300549873625 190.54953611084025 365.48300549873625 C 94.88038981680292 365.48300549873625 17.325223248049753 287.92783892998295 17.325223248049753 192.25869263594552 C 17.325223248049753 96.58954634190808 94.88038981680292 19.034379773154797 190.54953611084025 19.034379773154797 C 286.21868240487754 19.034379773154797 363.7738489736307 96.58954634190808 363.7738489736307 192.25869263594552 Z" stroke-opacity="0.6980392156862745" stroke-linejoin="round" stroke-miterlimit="10" stroke-width="1.5" stroke-dasharray="5.5,4"/><path fill="none" stroke="rgb(0,100,0)" paint-order="fill stroke markers" d=" M 101.89243633537652 43.441418013039424 L 89.55008691671063 332.99168034411736" stroke-opacity="0.6980392156862745" stroke-linecap="round" stroke-linejoin="round" stroke-miterlimit="10"/><path fill="none" stroke="rgb(0,100,0)" paint-order="fill stroke markers" d=" M 333.1504080569779 290.60325978119886 L 89.55008691671063 332.99168034411736" stroke-opacity="0.6980392156862745" stroke-linecap="round" stroke-linejoin="round" stroke-miterlimit="10"/><path fill="none" stroke="rgb(0,100,0)" paint-order="fill stroke markers" d=" M 333.1504080569779 290.60325978119886 L 101.89243633537652 43.441418013039424" stroke-opacity="0.6980392156862745" stroke-linecap="round" stroke-linejoin="round" stroke-miterlimit="10"/><path fill="none" stroke="rgb(0,100,0)" paint-order="fill stroke markers" d=" M 101.89243633537652 43.441418013039424 L 150.99999999999991 176.00000000000017" stroke-opacity="0.6980392156862745" stroke-linejoin="round" stroke-miterlimit="10" stroke-dasharray="9,8"/><path fill="none" stroke="rgb(0,100,0)" paint-order="fill stroke markers" d=" M 150.99999999999991 176.00000000000017 L 147.10199538898743 267.4467918058866" stroke-opacity="0.6980392156862745" stroke-linejoin="round" stroke-miterlimit="10" stroke-dasharray="9,8"/><path fill="none" stroke="rgb(0,100,0)" paint-order="fill stroke markers" d=" M 150.99999999999991 176.00000000000017 L 224.0367136372424 254.05953033703202" stroke-opacity="0.6980392156862745" stroke-linejoin="round" stroke-miterlimit="10" stroke-dasharray="9,8"/><path fill="none" stroke="rgb(0,100,0)" paint-order="fill stroke markers" d=" M 224.0367136372424 254.05953033703202 L 333.1504080569779 290.60325978119886" stroke-opacity="0.6980392156862745" stroke-linejoin="round" stroke-miterlimit="10" stroke-dasharray="9,8"/><path fill="none" stroke="rgb(0,100,0)" paint-order="fill stroke markers" d=" M 147.10199538898743 267.4467918058866 L 224.0367136372424 254.05953033703202" stroke-opacity="0.6980392156862745" stroke-linejoin="round" stroke-miterlimit="10" stroke-dasharray="9,8"/><path fill="none" stroke="rgb(0,100,0)" paint-order="fill stroke markers" d=" M 147.10199538898743 267.4467918058866 L 89.55008691671063 332.99168034411736" stroke-opacity="0.6980392156862745" stroke-linejoin="round" stroke-miterlimit="10" stroke-dasharray="9,8"/><path fill="none" stroke="rgb(255,85,0)" paint-order="fill stroke markers" d=" M 173.66860413210892 237.19053349699874 L 190.54953611084025 192.25869263594552" stroke-opacity="0.6980392156862745" stroke-linecap="round" stroke-linejoin="round" stroke-miterlimit="10" stroke-width="1.5"/><path fill="rgb(0,0,255)" stroke="none" paint-order="stroke fill markers" d=" M 181.99999999999986 223.0000000000001 C 181.99999999999986 224.65685424949248 180.65685424949223 226.0000000000001 178.99999999999986 226.0000000000001 C 177.3431457505075 226.0000000000001 175.99999999999986 224.65685424949248 175.99999999999986 223.0000000000001 C 175.99999999999986 221.34314575050774 177.3431457505075 220.0000000000001 178.99999999999986 220.0000000000001 C 180.65685424949223 220.0000000000001 181.99999999999986 221.34314575050774 181.99999999999986 223.0000000000001 Z" fill-opacity="1"/><path fill="none" stroke="rgb(0,0,0)" paint-order="fill stroke markers" d=" M 181.99999999999986 223.0000000000001 C 181.99999999999986 224.65685424949248 180.65685424949223 226.0000000000001 178.99999999999986 226.0000000000001 C 177.3431457505075 226.0000000000001 175.99999999999986 224.65685424949248 175.99999999999986 223.0000000000001 C 175.99999999999986 221.34314575050774 177.3431457505075 220.0000000000001 178.99999999999986 220.0000000000001 C 180.65685424949223 220.0000000000001 181.99999999999986 221.34314575050774 181.99999999999986 223.0000000000001 Z" stroke-opacity="1" stroke-linecap="round" stroke-linejoin="round" stroke-miterlimit="10"/><text fill="rgb(0,0,255)" stroke="none" font-family="geogebra-sans-serif, sans-serif" font-size="16px" font-style="normal" font-weight="normal" text-decoration="normal" x="166" y="211" text-anchor="start" dominant-baseline="alphabetic" fill-opacity="1">P</text><text fill="none" stroke="rgb(255,255,255)" font-family="geogebra-sans-serif, sans-serif" font-size="16px" font-style="normal" font-weight="normal" text-decoration="normal" x="166" y="211" text-anchor="start" dominant-baseline="alphabetic" stroke-opacity="1" stroke-linejoin="bevel" stroke-miterlimit="10" stroke-width="3">P</text><text fill="rgb(0,0,255)" stroke="none" font-family="geogebra-sans-serif, sans-serif" font-size="16px" font-style="normal" font-weight="normal" text-decoration="normal" x="166" y="211" text-anchor="start" dominant-baseline="alphabetic" fill-opacity="1">P</text><path fill="rgb(0,0,255)" stroke="none" paint-order="stroke fill markers" d=" M 152.99999999999991 176.00000000000017 C 152.99999999999991 177.10456949966175 152.1045694996615 178.00000000000017 150.99999999999991 178.00000000000017 C 149.89543050033834 178.00000000000017 148.99999999999991 177.10456949966175 148.99999999999991 176.00000000000017 C 148.99999999999991 174.8954305003386 149.89543050033834 174.00000000000017 150.99999999999991 174.00000000000017 C 152.1045694996615 174.00000000000017 152.99999999999991 174.8954305003386 152.99999999999991 176.00000000000017 Z" fill-opacity="1"/><path fill="none" stroke="rgb(0,0,0)" paint-order="fill stroke markers" d=" M 152.99999999999991 176.00000000000017 C 152.99999999999991 177.10456949966175 152.1045694996615 178.00000000000017 150.99999999999991 178.00000000000017 C 149.89543050033834 178.00000000000017 148.99999999999991 177.10456949966175 148.99999999999991 176.00000000000017 C 148.99999999999991 174.8954305003386 149.89543050033834 174.00000000000017 150.99999999999991 174.00000000000017 C 152.1045694996615 174.00000000000017 152.99999999999991 174.8954305003386 152.99999999999991 176.00000000000017 Z" stroke-opacity="1" stroke-linecap="round" stroke-linejoin="round" stroke-miterlimit="10"/><text fill="rgb(0,0,255)" stroke="none" font-family="geogebra-sans-serif, sans-serif" font-size="16px" font-style="normal" font-weight="normal" text-decoration="normal" x="117" y="163" text-anchor="start" dominant-baseline="alphabetic" fill-opacity="1">A'</text><text fill="none" stroke="rgb(255,255,255)" font-family="geogebra-sans-serif, sans-serif" font-size="16px" font-style="normal" font-weight="normal" text-decoration="normal" x="117" y="163" text-anchor="start" dominant-baseline="alphabetic" stroke-opacity="1" stroke-linejoin="bevel" stroke-miterlimit="10" stroke-width="3">A'</text><text fill="rgb(0,0,255)" stroke="none" font-family="geogebra-sans-serif, sans-serif" font-size="16px" font-style="normal" font-weight="normal" text-decoration="normal" x="117" y="163" text-anchor="start" dominant-baseline="alphabetic" fill-opacity="1">A'</text><path fill="rgb(0,0,255)" stroke="none" paint-order="stroke fill markers" d=" M 226.0367136372424 254.05953033703202 C 226.0367136372424 255.1640998366936 225.14128313690398 256.059530337032 224.0367136372424 256.059530337032 C 222.93214413758082 256.059530337032 222.0367136372424 255.1640998366936 222.0367136372424 254.05953033703202 C 222.0367136372424 252.95496083737044 222.93214413758082 252.05953033703202 224.0367136372424 252.05953033703202 C 225.14128313690398 252.05953033703202 226.0367136372424 252.95496083737044 226.0367136372424 254.05953033703202 Z" fill-opacity="1"/><path fill="none" stroke="rgb(0,0,0)" paint-order="fill stroke markers" d=" M 226.0367136372424 254.05953033703202 C 226.0367136372424 255.1640998366936 225.14128313690398 256.059530337032 224.0367136372424 256.059530337032 C 222.93214413758082 256.059530337032 222.0367136372424 255.1640998366936 222.0367136372424 254.05953033703202 C 222.0367136372424 252.95496083737044 222.93214413758082 252.05953033703202 224.0367136372424 252.05953033703202 C 225.14128313690398 252.05953033703202 226.0367136372424 252.95496083737044 226.0367136372424 254.05953033703202 Z" stroke-opacity="1" stroke-linecap="round" stroke-linejoin="round" stroke-miterlimit="10"/><text fill="rgb(0,0,255)" stroke="none" font-family="geogebra-sans-serif, sans-serif" font-size="16px" font-style="normal" font-weight="normal" text-decoration="normal" x="234" y="253" text-anchor="start" dominant-baseline="alphabetic" fill-opacity="1">C'</text><text fill="none" stroke="rgb(255,255,255)" font-family="geogebra-sans-serif, sans-serif" font-size="16px" font-style="normal" font-weight="normal" text-decoration="normal" x="234" y="253" text-anchor="start" dominant-baseline="alphabetic" stroke-opacity="1" stroke-linejoin="bevel" stroke-miterlimit="10" stroke-width="3">C'</text><text fill="rgb(0,0,255)" stroke="none" font-family="geogebra-sans-serif, sans-serif" font-size="16px" font-style="normal" font-weight="normal" text-decoration="normal" x="234" y="253" text-anchor="start" dominant-baseline="alphabetic" fill-opacity="1">C'</text><path fill="rgb(0,0,255)" stroke="none" paint-order="stroke fill markers" d=" M 149.10199538898743 267.4467918058866 C 149.10199538898743 268.5513613055482 148.206564888649 269.4467918058866 147.10199538898743 269.4467918058866 C 145.99742588932585 269.4467918058866 145.10199538898743 268.5513613055482 145.10199538898743 267.4467918058866 C 145.10199538898743 266.34222230622504 145.99742588932585 265.4467918058866 147.10199538898743 265.4467918058866 C 148.206564888649 265.4467918058866 149.10199538898743 266.34222230622504 149.10199538898743 267.4467918058866 Z" fill-opacity="1"/><path fill="none" stroke="rgb(0,0,0)" paint-order="fill stroke markers" d=" M 149.10199538898743 267.4467918058866 C 149.10199538898743 268.5513613055482 148.206564888649 269.4467918058866 147.10199538898743 269.4467918058866 C 145.99742588932585 269.4467918058866 145.10199538898743 268.5513613055482 145.10199538898743 267.4467918058866 C 145.10199538898743 266.34222230622504 145.99742588932585 265.4467918058866 147.10199538898743 265.4467918058866 C 148.206564888649 265.4467918058866 149.10199538898743 266.34222230622504 149.10199538898743 267.4467918058866 Z" stroke-opacity="1" stroke-linecap="round" stroke-linejoin="round" stroke-miterlimit="10"/><text fill="rgb(0,0,255)" stroke="none" font-family="geogebra-sans-serif, sans-serif" font-size="16px" font-style="normal" font-weight="normal" text-decoration="normal" x="115" y="275" text-anchor="start" dominant-baseline="alphabetic" fill-opacity="1">B'</text><text fill="none" stroke="rgb(255,255,255)" font-family="geogebra-sans-serif, sans-serif" font-size="16px" font-style="normal" font-weight="normal" text-decoration="normal" x="115" y="275" text-anchor="start" dominant-baseline="alphabetic" stroke-opacity="1" stroke-linejoin="bevel" stroke-miterlimit="10" stroke-width="3">B'</text><text fill="rgb(0,0,255)" stroke="none" font-family="geogebra-sans-serif, sans-serif" font-size="16px" font-style="normal" font-weight="normal" text-decoration="normal" x="115" y="275" text-anchor="start" dominant-baseline="alphabetic" fill-opacity="1">B'</text><path fill="rgb(0,0,255)" stroke="none" paint-order="stroke fill markers" d=" M 103.89243633537652 43.441418013039424 C 103.89243633537652 44.54598751270101 102.9970058350381 45.441418013039424 101.89243633537652 45.441418013039424 C 100.78786683571492 45.441418013039424 99.89243633537652 44.54598751270101 99.89243633537652 43.441418013039424 C 99.89243633537652 42.33684851337784 100.78786683571492 41.441418013039424 101.89243633537652 41.441418013039424 C 102.9970058350381 41.441418013039424 103.89243633537652 42.33684851337784 103.89243633537652 43.441418013039424 Z" fill-opacity="1"/><path fill="none" stroke="rgb(0,0,0)" paint-order="fill stroke markers" d=" M 103.89243633537652 43.441418013039424 C 103.89243633537652 44.54598751270101 102.9970058350381 45.441418013039424 101.89243633537652 45.441418013039424 C 100.78786683571492 45.441418013039424 99.89243633537652 44.54598751270101 99.89243633537652 43.441418013039424 C 99.89243633537652 42.33684851337784 100.78786683571492 41.441418013039424 101.89243633537652 41.441418013039424 C 102.9970058350381 41.441418013039424 103.89243633537652 42.33684851337784 103.89243633537652 43.441418013039424 Z" stroke-opacity="1" stroke-linecap="round" stroke-linejoin="round" stroke-miterlimit="10"/><text fill="rgb(0,0,255)" stroke="none" font-family="geogebra-sans-serif, sans-serif" font-size="16px" font-style="normal" font-weight="normal" text-decoration="normal" x="81" y="31" text-anchor="start" dominant-baseline="alphabetic" fill-opacity="1">A</text><text fill="none" stroke="rgb(255,255,255)" font-family="geogebra-sans-serif, sans-serif" font-size="16px" font-style="normal" font-weight="normal" text-decoration="normal" x="81" y="31" text-anchor="start" dominant-baseline="alphabetic" stroke-opacity="1" stroke-linejoin="bevel" stroke-miterlimit="10" stroke-width="3">A</text><text fill="rgb(0,0,255)" stroke="none" font-family="geogebra-sans-serif, sans-serif" font-size="16px" font-style="normal" font-weight="normal" text-decoration="normal" x="81" y="31" text-anchor="start" dominant-baseline="alphabetic" fill-opacity="1">A</text><path fill="rgb(0,0,255)" stroke="none" paint-order="stroke fill markers" d=" M 91.55008691671063 332.99168034411736 C 91.55008691671063 334.09624984377893 90.6546564163722 334.99168034411736 89.55008691671063 334.99168034411736 C 88.44551741704903 334.99168034411736 87.55008691671063 334.09624984377893 87.55008691671063 332.99168034411736 C 87.55008691671063 331.8871108444558 88.44551741704903 330.99168034411736 89.55008691671063 330.99168034411736 C 90.6546564163722 330.99168034411736 91.55008691671063 331.8871108444558 91.55008691671063 332.99168034411736 Z" fill-opacity="1"/><path fill="none" stroke="rgb(0,0,0)" paint-order="fill stroke markers" d=" M 91.55008691671063 332.99168034411736 C 91.55008691671063 334.09624984377893 90.6546564163722 334.99168034411736 89.55008691671063 334.99168034411736 C 88.44551741704903 334.99168034411736 87.55008691671063 334.09624984377893 87.55008691671063 332.99168034411736 C 87.55008691671063 331.8871108444558 88.44551741704903 330.99168034411736 89.55008691671063 330.99168034411736 C 90.6546564163722 330.99168034411736 91.55008691671063 331.8871108444558 91.55008691671063 332.99168034411736 Z" stroke-opacity="1" stroke-linecap="round" stroke-linejoin="round" stroke-miterlimit="10"/><text fill="rgb(0,0,255)" stroke="none" font-family="geogebra-sans-serif, sans-serif" font-size="16px" font-style="normal" font-weight="normal" text-decoration="normal" x="70" y="352" text-anchor="start" dominant-baseline="alphabetic" fill-opacity="1">B</text><text fill="none" stroke="rgb(255,255,255)" font-family="geogebra-sans-serif, sans-serif" font-size="16px" font-style="normal" font-weight="normal" text-decoration="normal" x="70" y="352" text-anchor="start" dominant-baseline="alphabetic" stroke-opacity="1" stroke-linejoin="bevel" stroke-miterlimit="10" stroke-width="3">B</text><text fill="rgb(0,0,255)" stroke="none" font-family="geogebra-sans-serif, sans-serif" font-size="16px" font-style="normal" font-weight="normal" text-decoration="normal" x="70" y="352" text-anchor="start" dominant-baseline="alphabetic" fill-opacity="1">B</text><path fill="rgb(0,0,255)" stroke="none" paint-order="stroke fill markers" d=" M 335.1504080569779 290.60325978119886 C 335.1504080569779 291.70782928086044 334.25497755663946 292.60325978119886 333.1504080569779 292.60325978119886 C 332.0458385573163 292.60325978119886 331.1504080569779 291.70782928086044 331.1504080569779 290.60325978119886 C 331.1504080569779 289.4986902815373 332.0458385573163 288.60325978119886 333.1504080569779 288.60325978119886 C 334.25497755663946 288.60325978119886 335.1504080569779 289.4986902815373 335.1504080569779 290.60325978119886 Z" fill-opacity="1"/><path fill="none" stroke="rgb(0,0,0)" paint-order="fill stroke markers" d=" M 335.1504080569779 290.60325978119886 C 335.1504080569779 291.70782928086044 334.25497755663946 292.60325978119886 333.1504080569779 292.60325978119886 C 332.0458385573163 292.60325978119886 331.1504080569779 291.70782928086044 331.1504080569779 290.60325978119886 C 331.1504080569779 289.4986902815373 332.0458385573163 288.60325978119886 333.1504080569779 288.60325978119886 C 334.25497755663946 288.60325978119886 335.1504080569779 289.4986902815373 335.1504080569779 290.60325978119886 Z" stroke-opacity="1" stroke-linecap="round" stroke-linejoin="round" stroke-miterlimit="10"/><text fill="rgb(0,0,255)" stroke="none" font-family="geogebra-sans-serif, sans-serif" font-size="16px" font-style="normal" font-weight="normal" text-decoration="normal" x="341" y="304" text-anchor="start" dominant-baseline="alphabetic" fill-opacity="1">C</text><text fill="none" stroke="rgb(255,255,255)" font-family="geogebra-sans-serif, sans-serif" font-size="16px" font-style="normal" font-weight="normal" text-decoration="normal" x="341" y="304" text-anchor="start" dominant-baseline="alphabetic" stroke-opacity="1" stroke-linejoin="bevel" stroke-miterlimit="10" stroke-width="3">C</text><text fill="rgb(0,0,255)" stroke="none" font-family="geogebra-sans-serif, sans-serif" font-size="16px" font-style="normal" font-weight="normal" text-decoration="normal" x="341" y="304" text-anchor="start" dominant-baseline="alphabetic" fill-opacity="1">C</text><path fill="rgb(0,0,255)" stroke="none" paint-order="stroke fill markers" d=" M 176.66860413210892 237.19053349699874 C 176.66860413210892 238.8473877464911 175.3254583816013 240.19053349699874 173.66860413210892 240.19053349699874 C 172.01174988261656 240.19053349699874 170.66860413210892 238.8473877464911 170.66860413210892 237.19053349699874 C 170.66860413210892 235.53367924750637 172.01174988261656 234.19053349699874 173.66860413210892 234.19053349699874 C 175.3254583816013 234.19053349699874 176.66860413210892 235.53367924750637 176.66860413210892 237.19053349699874 Z" fill-opacity="1"/><path fill="none" stroke="rgb(0,0,0)" paint-order="fill stroke markers" d=" M 176.66860413210892 237.19053349699874 C 176.66860413210892 238.8473877464911 175.3254583816013 240.19053349699874 173.66860413210892 240.19053349699874 C 172.01174988261656 240.19053349699874 170.66860413210892 238.8473877464911 170.66860413210892 237.19053349699874 C 170.66860413210892 235.53367924750637 172.01174988261656 234.19053349699874 173.66860413210892 234.19053349699874 C 175.3254583816013 234.19053349699874 176.66860413210892 235.53367924750637 176.66860413210892 237.19053349699874 Z" stroke-opacity="1" stroke-linecap="round" stroke-linejoin="round" stroke-miterlimit="10"/><text fill="rgb(0,0,255)" stroke="none" font-family="geogebra-sans-serif, sans-serif" font-size="16px" font-style="normal" font-weight="normal" text-decoration="normal" x="160" y="247" text-anchor="start" dominant-baseline="alphabetic" fill-opacity="1">I</text><text fill="none" stroke="rgb(255,255,255)" font-family="geogebra-sans-serif, sans-serif" font-size="16px" font-style="normal" font-weight="normal" text-decoration="normal" x="160" y="247" text-anchor="start" dominant-baseline="alphabetic" stroke-opacity="1" stroke-linejoin="bevel" stroke-miterlimit="10" stroke-width="3">I</text><text fill="rgb(0,0,255)" stroke="none" font-family="geogebra-sans-serif, sans-serif" font-size="16px" font-style="normal" font-weight="normal" text-decoration="normal" x="160" y="247" text-anchor="start" dominant-baseline="alphabetic" fill-opacity="1">I</text><path fill="rgb(0,0,255)" stroke="none" paint-order="stroke fill markers" d=" M 189.37670313090408 315.969060131943 C 189.37670313090408 317.0736296316046 188.48127263056566 317.969060131943 187.37670313090408 317.969060131943 C 186.2721336312425 317.969060131943 185.37670313090408 317.0736296316046 185.37670313090408 315.969060131943 C 185.37670313090408 314.86449063228144 186.2721336312425 313.969060131943 187.37670313090408 313.969060131943 C 188.48127263056566 313.969060131943 189.37670313090408 314.86449063228144 189.37670313090408 315.969060131943 Z" fill-opacity="1"/><path fill="none" stroke="rgb(0,0,0)" paint-order="fill stroke markers" d=" M 189.37670313090408 315.969060131943 C 189.37670313090408 317.0736296316046 188.48127263056566 317.969060131943 187.37670313090408 317.969060131943 C 186.2721336312425 317.969060131943 185.37670313090408 317.0736296316046 185.37670313090408 315.969060131943 C 185.37670313090408 314.86449063228144 186.2721336312425 313.969060131943 187.37670313090408 313.969060131943 C 188.48127263056566 313.969060131943 189.37670313090408 314.86449063228144 189.37670313090408 315.969060131943 Z" stroke-opacity="1" stroke-linecap="round" stroke-linejoin="round" stroke-miterlimit="10"/><text fill="rgb(0,0,255)" stroke="none" font-family="geogebra-sans-serif, sans-serif" font-size="16px" font-style="normal" font-weight="normal" text-decoration="normal" x="191" y="312" text-anchor="start" dominant-baseline="alphabetic" fill-opacity="1">D</text><text fill="none" stroke="rgb(255,255,255)" font-family="geogebra-sans-serif, sans-serif" font-size="16px" font-style="normal" font-weight="normal" text-decoration="normal" x="191" y="312" text-anchor="start" dominant-baseline="alphabetic" stroke-opacity="1" stroke-linejoin="bevel" stroke-miterlimit="10" stroke-width="3">D</text><text fill="rgb(0,0,255)" stroke="none" font-family="geogebra-sans-serif, sans-serif" font-size="16px" font-style="normal" font-weight="normal" text-decoration="normal" x="191" y="312" text-anchor="start" dominant-baseline="alphabetic" fill-opacity="1">D</text><path fill="rgb(0,0,255)" stroke="none" paint-order="stroke fill markers" d=" M 193.54953611084025 192.25869263594552 C 193.54953611084025 193.9155468854379 192.20639036033262 195.25869263594552 190.54953611084025 195.25869263594552 C 188.89268186134788 195.25869263594552 187.54953611084025 193.9155468854379 187.54953611084025 192.25869263594552 C 187.54953611084025 190.60183838645315 188.89268186134788 189.25869263594552 190.54953611084025 189.25869263594552 C 192.20639036033262 189.25869263594552 193.54953611084025 190.60183838645315 193.54953611084025 192.25869263594552 Z" fill-opacity="1"/><path fill="none" stroke="rgb(0,0,0)" paint-order="fill stroke markers" d=" M 193.54953611084025 192.25869263594552 C 193.54953611084025 193.9155468854379 192.20639036033262 195.25869263594552 190.54953611084025 195.25869263594552 C 188.89268186134788 195.25869263594552 187.54953611084025 193.9155468854379 187.54953611084025 192.25869263594552 C 187.54953611084025 190.60183838645315 188.89268186134788 189.25869263594552 190.54953611084025 189.25869263594552 C 192.20639036033262 189.25869263594552 193.54953611084025 190.60183838645315 193.54953611084025 192.25869263594552 Z" stroke-opacity="1" stroke-linecap="round" stroke-linejoin="round" stroke-miterlimit="10"/><text fill="rgb(0,0,255)" stroke="none" font-family="geogebra-sans-serif, sans-serif" font-size="16px" font-style="normal" font-weight="normal" text-decoration="normal" x="183" y="186" text-anchor="start" dominant-baseline="alphabetic" fill-opacity="1">O</text><text fill="none" stroke="rgb(255,255,255)" font-family="geogebra-sans-serif, sans-serif" font-size="16px" font-style="normal" font-weight="normal" text-decoration="normal" x="183" y="186" text-anchor="start" dominant-baseline="alphabetic" stroke-opacity="1" stroke-linejoin="bevel" stroke-miterlimit="10" stroke-width="3">O</text><text fill="rgb(0,0,255)" stroke="none" font-family="geogebra-sans-serif, sans-serif" font-size="16px" font-style="normal" font-weight="normal" text-decoration="normal" x="183" y="186" text-anchor="start" dominant-baseline="alphabetic" fill-opacity="1">O</text></g></g></svg>