<svg version="1.1" xmlns="http://www.w3.org/2000/svg" xmlns:xlink="http://www.w3.org/1999/xlink" width="322" height="349"><defs><clipPath id="ACCcglENoTKD"><path fill="none" stroke="none" d=" M 0 0 L 322 0 L 322 349 L 0 349 L 0 0 Z"/></clipPath></defs><g transform="scale(1,1)" clip-path="url(#ACCcglENoTKD)"><g><rect fill="rgb(255,255,255)" stroke="none" x="0" y="0" width="322" height="349" fill-opacity="1"/><path fill="none" stroke="rgb(0,100,0)" paint-order="fill stroke markers" d=" M 305.24185934744196 186.38934603616664 C 305.24185934744196 269.19462999705985 238.11491362742743 336.32157571707444 155.3096296665343 336.32157571707444 C 72.50434570564117 336.32157571707444 5.377399985626653 269.19462999705985 5.377399985626653 186.38934603616664 C 5.377399985626653 103.58406207527344 72.50434570564117 36.45711635525885 155.3096296665343 36.45711635525885 C 238.11491362742743 36.45711635525885 305.24185934744196 103.58406207527344 305.24185934744196 186.38934603616664 Z" stroke-opacity="0.6980392156862745" stroke-linejoin="round" stroke-miterlimit="10" stroke-dasharray="5,4"/><path fill="none" stroke="rgb(0,153,255)" paint-order="fill stroke markers" d=" M 247.97284361839104 243.65836176521765 C 247.97284361839104 294.83484170113616 206.48610960245276 336.32157571707444 155.3096296665343 336.32157571707444 C 104.13314973061584 336.32157571707444 62.64641571467759 294.83484170113616 62.64641571467759 243.65836176521765 C 62.64641571467759 192.48188182929914 104.13314973061584 150.99514781336083 155.3096296665343 150.99514781336083 C 206.48610960245276 150.99514781336083 247.97284361839104 192.48188182929914 247.97284361839104 243.65836176521765 Z" stroke-opacity="0.6980392156862745" stroke-linecap="round" stroke-linejoin="round" stroke-miterlimit="10"/><path fill="none" stroke="rgb(244,0,153)" paint-order="fill stroke markers" d=" M 229.44020082801967 202.21811268322588 C 229.44020082801967 243.15929663196067 196.25081361526907 276.34868384471133 155.3096296665343 276.34868384471133 C 114.36844571779953 276.34868384471133 81.17905850504893 243.15929663196067 81.17905850504893 202.21811268322588 C 81.17905850504893 161.27692873449107 114.36844571779953 128.08754152174043 155.3096296665343 128.08754152174043 C 196.25081361526907 128.08754152174043 229.44020082801967 161.27692873449107 229.44020082801967 202.21811268322588 Z" stroke-opacity="0.6980392156862745" stroke-linejoin="round" stroke-miterlimit="10" stroke-dasharray="5,4"/><path fill="none" stroke="rgb(0,100,0)" paint-order="fill stroke markers" d=" M 155.3096296665343 36.45711635525885 L 35.36384592180819 276.34868384471133" stroke-opacity="0.6980392156862745" stroke-linecap="round" stroke-linejoin="round" stroke-miterlimit="10" stroke-width="0.5"/><path fill="none" stroke="rgb(0,100,0)" paint-order="fill stroke markers" d=" M 35.36384592180819 276.34868384471133 L 275.2554134112604 276.34868384471133" stroke-opacity="0.6980392156862745" stroke-linecap="round" stroke-linejoin="round" stroke-miterlimit="10" stroke-width="0.5"/><path fill="none" stroke="rgb(0,100,0)" paint-order="fill stroke markers" d=" M 275.2554134112604 276.34868384471133 L 155.3096296665343 36.45711635525885" stroke-opacity="0.6980392156862745" stroke-linecap="round" stroke-linejoin="round" stroke-miterlimit="10" stroke-width="0.5"/><path fill="none" stroke="rgb(255,127,0)" paint-order="fill stroke markers" d=" M 113.8693805845426 198.21811268322588 L 113.8693805845426 206.21811268322588" stroke-opacity="0.6980392156862745" stroke-linecap="round" stroke-linejoin="round" stroke-miterlimit="10" stroke-width="0.5"/><path fill="none" stroke="rgb(255,127,0)" paint-order="fill stroke markers" d=" M 72.42913150255089 202.21811268322588 L 155.3096296665343 202.21811268322588" stroke-opacity="0.6980392156862745" stroke-linejoin="round" stroke-miterlimit="10" stroke-width="0.5" stroke-dasharray="8.5,8"/><path fill="none" stroke="rgb(255,127,0)" paint-order="fill stroke markers" d=" M 196.74987874852602 198.21811268322588 L 196.74987874852602 206.21811268322588" stroke-opacity="0.6980392156862745" stroke-linecap="round" stroke-linejoin="round" stroke-miterlimit="10" stroke-width="0.5"/><path fill="none" stroke="rgb(255,127,0)" paint-order="fill stroke markers" d=" M 155.3096296665343 202.21811268322588 L 238.19012783051772 202.21811268322588" stroke-opacity="0.6980392156862745" stroke-linejoin="round" stroke-miterlimit="10" stroke-width="0.5" stroke-dasharray="8.5,8"/><path fill="rgb(0,0,255)" stroke="none" paint-order="stroke fill markers" d=" M 157.3096296665343 36.45711635525885 C 157.3096296665343 37.561685854920434 156.41419916619589 38.45711635525885 155.3096296665343 38.45711635525885 C 154.20506016687273 38.45711635525885 153.3096296665343 37.561685854920434 153.3096296665343 36.45711635525885 C 153.3096296665343 35.35254685559726 154.20506016687273 34.45711635525885 155.3096296665343 34.45711635525885 C 156.41419916619589 34.45711635525885 157.3096296665343 35.35254685559726 157.3096296665343 36.45711635525885 Z" fill-opacity="1"/><path fill="none" stroke="rgb(0,0,0)" paint-order="fill stroke markers" d=" M 157.3096296665343 36.45711635525885 C 157.3096296665343 37.561685854920434 156.41419916619589 38.45711635525885 155.3096296665343 38.45711635525885 C 154.20506016687273 38.45711635525885 153.3096296665343 37.561685854920434 153.3096296665343 36.45711635525885 C 153.3096296665343 35.35254685559726 154.20506016687273 34.45711635525885 155.3096296665343 34.45711635525885 C 156.41419916619589 34.45711635525885 157.3096296665343 35.35254685559726 157.3096296665343 36.45711635525885 Z" stroke-opacity="1" stroke-linecap="round" stroke-linejoin="round" stroke-miterlimit="10"/><text fill="rgb(0,0,255)" stroke="none" font-family="geogebra-sans-serif, sans-serif" font-size="16px" font-style="normal" font-weight="normal" text-decoration="normal" x="152" y="24" text-anchor="start" dominant-baseline="alphabetic" fill-opacity="1">A</text><text fill="none" stroke="rgb(255,255,255)" font-family="geogebra-sans-serif, sans-serif" font-size="16px" font-style="normal" font-weight="normal" text-decoration="normal" x="152" y="24" text-anchor="start" dominant-baseline="alphabetic" stroke-opacity="1" stroke-linejoin="bevel" stroke-miterlimit="10" stroke-width="3">A</text><text fill="rgb(0,0,255)" stroke="none" font-family="geogebra-sans-serif, sans-serif" font-size="16px" font-style="normal" font-weight="normal" text-decoration="normal" x="152" y="24" text-anchor="start" dominant-baseline="alphabetic" fill-opacity="1">A</text><path fill="rgb(0,0,255)" stroke="none" paint-order="stroke fill markers" d=" M 37.36384592180819 276.34868384471133 C 37.36384592180819 277.4532533443729 36.46841542146978 278.34868384471133 35.36384592180819 278.34868384471133 C 34.259276422146606 278.34868384471133 33.36384592180819 277.4532533443729 33.36384592180819 276.34868384471133 C 33.36384592180819 275.24411434504975 34.259276422146606 274.34868384471133 35.36384592180819 274.34868384471133 C 36.46841542146978 274.34868384471133 37.36384592180819 275.24411434504975 37.36384592180819 276.34868384471133 Z" fill-opacity="1"/><path fill="none" stroke="rgb(0,0,0)" paint-order="fill stroke markers" d=" M 37.36384592180819 276.34868384471133 C 37.36384592180819 277.4532533443729 36.46841542146978 278.34868384471133 35.36384592180819 278.34868384471133 C 34.259276422146606 278.34868384471133 33.36384592180819 277.4532533443729 33.36384592180819 276.34868384471133 C 33.36384592180819 275.24411434504975 34.259276422146606 274.34868384471133 35.36384592180819 274.34868384471133 C 36.46841542146978 274.34868384471133 37.36384592180819 275.24411434504975 37.36384592180819 276.34868384471133 Z" stroke-opacity="1" stroke-linecap="round" stroke-linejoin="round" stroke-miterlimit="10"/><text fill="rgb(0,0,255)" stroke="none" font-family="geogebra-sans-serif, sans-serif" font-size="16px" font-style="normal" font-weight="normal" text-decoration="normal" x="12" y="294" text-anchor="start" dominant-baseline="alphabetic" fill-opacity="1">B</text><text fill="none" stroke="rgb(255,255,255)" font-family="geogebra-sans-serif, sans-serif" font-size="16px" font-style="normal" font-weight="normal" text-decoration="normal" x="12" y="294" text-anchor="start" dominant-baseline="alphabetic" stroke-opacity="1" stroke-linejoin="bevel" stroke-miterlimit="10" stroke-width="3">B</text><text fill="rgb(0,0,255)" stroke="none" font-family="geogebra-sans-serif, sans-serif" font-size="16px" font-style="normal" font-weight="normal" text-decoration="normal" x="12" y="294" text-anchor="start" dominant-baseline="alphabetic" fill-opacity="1">B</text><path fill="rgb(0,0,255)" stroke="none" paint-order="stroke fill markers" d=" M 277.2554134112604 276.34868384471133 C 277.2554134112604 277.4532533443729 276.359982910922 278.34868384471133 275.2554134112604 278.34868384471133 C 274.1508439115988 278.34868384471133 273.2554134112604 277.4532533443729 273.2554134112604 276.34868384471133 C 273.2554134112604 275.24411434504975 274.1508439115988 274.34868384471133 275.2554134112604 274.34868384471133 C 276.359982910922 274.34868384471133 277.2554134112604 275.24411434504975 277.2554134112604 276.34868384471133 Z" fill-opacity="1"/><path fill="none" stroke="rgb(0,0,0)" paint-order="fill stroke markers" d=" M 277.2554134112604 276.34868384471133 C 277.2554134112604 277.4532533443729 276.359982910922 278.34868384471133 275.2554134112604 278.34868384471133 C 274.1508439115988 278.34868384471133 273.2554134112604 277.4532533443729 273.2554134112604 276.34868384471133 C 273.2554134112604 275.24411434504975 274.1508439115988 274.34868384471133 275.2554134112604 274.34868384471133 C 276.359982910922 274.34868384471133 277.2554134112604 275.24411434504975 277.2554134112604 276.34868384471133 Z" stroke-opacity="1" stroke-linecap="round" stroke-linejoin="round" stroke-miterlimit="10"/><text fill="rgb(0,0,255)" stroke="none" font-family="geogebra-sans-serif, sans-serif" font-size="16px" font-style="normal" font-weight="normal" text-decoration="normal" x="286" y="285" text-anchor="start" dominant-baseline="alphabetic" fill-opacity="1">C</text><text fill="none" stroke="rgb(255,255,255)" font-family="geogebra-sans-serif, sans-serif" font-size="16px" font-style="normal" font-weight="normal" text-decoration="normal" x="286" y="285" text-anchor="start" dominant-baseline="alphabetic" stroke-opacity="1" stroke-linejoin="bevel" stroke-miterlimit="10" stroke-width="3">C</text><text fill="rgb(0,0,255)" stroke="none" font-family="geogebra-sans-serif, sans-serif" font-size="16px" font-style="normal" font-weight="normal" text-decoration="normal" x="286" y="285" text-anchor="start" dominant-baseline="alphabetic" fill-opacity="1">C</text><path fill="rgb(0,0,255)" stroke="none" paint-order="stroke fill markers" d=" M 157.3096296665343 336.32157571707444 C 157.3096296665343 337.426145216736 156.41419916619589 338.32157571707444 155.3096296665343 338.32157571707444 C 154.20506016687273 338.32157571707444 153.3096296665343 337.426145216736 153.3096296665343 336.32157571707444 C 153.3096296665343 335.21700621741286 154.20506016687273 334.32157571707444 155.3096296665343 334.32157571707444 C 156.41419916619589 334.32157571707444 157.3096296665343 335.21700621741286 157.3096296665343 336.32157571707444 Z" fill-opacity="1"/><path fill="none" stroke="rgb(0,0,0)" paint-order="fill stroke markers" d=" M 157.3096296665343 336.32157571707444 C 157.3096296665343 337.426145216736 156.41419916619589 338.32157571707444 155.3096296665343 338.32157571707444 C 154.20506016687273 338.32157571707444 153.3096296665343 337.426145216736 153.3096296665343 336.32157571707444 C 153.3096296665343 335.21700621741286 154.20506016687273 334.32157571707444 155.3096296665343 334.32157571707444 C 156.41419916619589 334.32157571707444 157.3096296665343 335.21700621741286 157.3096296665343 336.32157571707444 Z" stroke-opacity="1" stroke-linecap="round" stroke-linejoin="round" stroke-miterlimit="10"/><path fill="rgb(0,0,255)" stroke="none" paint-order="stroke fill markers" d=" M 157.3096296665343 202.21811268322588 C 157.3096296665343 203.32268218288746 156.41419916619589 204.21811268322588 155.3096296665343 204.21811268322588 C 154.20506016687273 204.21811268322588 153.3096296665343 203.32268218288746 153.3096296665343 202.21811268322588 C 153.3096296665343 201.1135431835643 154.20506016687273 200.21811268322588 155.3096296665343 200.21811268322588 C 156.41419916619589 200.21811268322588 157.3096296665343 201.1135431835643 157.3096296665343 202.21811268322588 Z" fill-opacity="1"/><path fill="none" stroke="rgb(0,0,0)" paint-order="fill stroke markers" d=" M 157.3096296665343 202.21811268322588 C 157.3096296665343 203.32268218288746 156.41419916619589 204.21811268322588 155.3096296665343 204.21811268322588 C 154.20506016687273 204.21811268322588 153.3096296665343 203.32268218288746 153.3096296665343 202.21811268322588 C 153.3096296665343 201.1135431835643 154.20506016687273 200.21811268322588 155.3096296665343 200.21811268322588 C 156.41419916619589 200.21811268322588 157.3096296665343 201.1135431835643 157.3096296665343 202.21811268322588 Z" stroke-opacity="1" stroke-linecap="round" stroke-linejoin="round" stroke-miterlimit="10"/><path fill="rgb(0,0,255)" stroke="none" paint-order="stroke fill markers" d=" M 74.42913150255089 202.21811268322588 C 74.42913150255089 203.32268218288746 73.53370100221247 204.21811268322588 72.42913150255089 204.21811268322588 C 71.3245620028893 204.21811268322588 70.42913150255089 203.32268218288746 70.42913150255089 202.21811268322588 C 70.42913150255089 201.1135431835643 71.3245620028893 200.21811268322588 72.42913150255089 200.21811268322588 C 73.53370100221247 200.21811268322588 74.42913150255089 201.1135431835643 74.42913150255089 202.21811268322588 Z" fill-opacity="1"/><path fill="none" stroke="rgb(0,0,0)" paint-order="fill stroke markers" d=" M 74.42913150255089 202.21811268322588 C 74.42913150255089 203.32268218288746 73.53370100221247 204.21811268322588 72.42913150255089 204.21811268322588 C 71.3245620028893 204.21811268322588 70.42913150255089 203.32268218288746 70.42913150255089 202.21811268322588 C 70.42913150255089 201.1135431835643 71.3245620028893 200.21811268322588 72.42913150255089 200.21811268322588 C 73.53370100221247 200.21811268322588 74.42913150255089 201.1135431835643 74.42913150255089 202.21811268322588 Z" stroke-opacity="1" stroke-linecap="round" stroke-linejoin="round" stroke-miterlimit="10"/><text fill="rgb(0,0,255)" stroke="none" font-family="geogebra-sans-serif, sans-serif" font-size="16px" font-style="normal" font-weight="normal" text-decoration="normal" x="53" y="198" text-anchor="start" dominant-baseline="alphabetic" fill-opacity="1">P</text><text fill="none" stroke="rgb(255,255,255)" font-family="geogebra-sans-serif, sans-serif" font-size="16px" font-style="normal" font-weight="normal" text-decoration="normal" x="53" y="198" text-anchor="start" dominant-baseline="alphabetic" stroke-opacity="1" stroke-linejoin="bevel" stroke-miterlimit="10" stroke-width="3">P</text><text fill="rgb(0,0,255)" stroke="none" font-family="geogebra-sans-serif, sans-serif" font-size="16px" font-style="normal" font-weight="normal" text-decoration="normal" x="53" y="198" text-anchor="start" dominant-baseline="alphabetic" fill-opacity="1">P</text><path fill="rgb(0,0,255)" stroke="none" paint-order="stroke fill markers" d=" M 240.19012783051772 202.21811268322588 C 240.19012783051772 203.32268218288746 239.2946973301793 204.21811268322588 238.19012783051772 204.21811268322588 C 237.08555833085614 204.21811268322588 236.19012783051772 203.32268218288746 236.19012783051772 202.21811268322588 C 236.19012783051772 201.1135431835643 237.08555833085614 200.21811268322588 238.19012783051772 200.21811268322588 C 239.2946973301793 200.21811268322588 240.19012783051772 201.1135431835643 240.19012783051772 202.21811268322588 Z" fill-opacity="1"/><path fill="none" stroke="rgb(0,0,0)" paint-order="fill stroke markers" d=" M 240.19012783051772 202.21811268322588 C 240.19012783051772 203.32268218288746 239.2946973301793 204.21811268322588 238.19012783051772 204.21811268322588 C 237.08555833085614 204.21811268322588 236.19012783051772 203.32268218288746 236.19012783051772 202.21811268322588 C 236.19012783051772 201.1135431835643 237.08555833085614 200.21811268322588 238.19012783051772 200.21811268322588 C 239.2946973301793 200.21811268322588 240.19012783051772 201.1135431835643 240.19012783051772 202.21811268322588 Z" stroke-opacity="1" stroke-linecap="round" stroke-linejoin="round" stroke-miterlimit="10"/><text fill="rgb(0,0,255)" stroke="none" font-family="geogebra-sans-serif, sans-serif" font-size="16px" font-style="normal" font-weight="normal" text-decoration="normal" x="246" y="202" text-anchor="start" dominant-baseline="alphabetic" fill-opacity="1">Q</text><text fill="none" stroke="rgb(255,255,255)" font-family="geogebra-sans-serif, sans-serif" font-size="16px" font-style="normal" font-weight="normal" text-decoration="normal" x="246" y="202" text-anchor="start" dominant-baseline="alphabetic" stroke-opacity="1" stroke-linejoin="bevel" stroke-miterlimit="10" stroke-width="3">Q</text><text fill="rgb(0,0,255)" stroke="none" font-family="geogebra-sans-serif, sans-serif" font-size="16px" font-style="normal" font-weight="normal" text-decoration="normal" x="246" y="202" text-anchor="start" dominant-baseline="alphabetic" fill-opacity="1">Q</text></g></g></svg>