<svg version="1.1" xmlns="http://www.w3.org/2000/svg" xmlns:xlink="http://www.w3.org/1999/xlink" width="242" height="259"><defs><clipPath id="avnXewZBQeTT"><path fill="none" stroke="none" d=" M 0 0 L 242 0 L 242 259 L 0 259 L 0 0 Z"/></clipPath></defs><g transform="scale(1,1)" clip-path="url(#avnXewZBQeTT)"><g><rect fill="rgb(255,255,255)" stroke="none" x="0" y="0" width="242" height="259" fill-opacity="1"/><path fill="none" stroke="rgb(0,153,255)" paint-order="fill stroke markers" d=" M 215.94045831545657 131.9999999999999 C 215.94045831545657 186.73535372720107 171.5686870605344 231.10712498212325 116.83333333333323 231.10712498212325 C 62.09797960613208 231.10712498212325 17.726208351209905 186.73535372720107 17.726208351209905 131.9999999999999 C 17.726208351209905 77.2646462727987 62.09797960613208 32.892875017876506 116.83333333333323 32.892875017876506 C 171.5686870605344 32.892875017876506 215.94045831545657 77.2646462727987 215.94045831545657 131.9999999999999 Z" stroke-opacity="0.6980392156862745" stroke-linejoin="round" stroke-miterlimit="10" stroke-dasharray="5,4"/><path fill="none" stroke="rgb(255,127,0)" paint-order="fill stroke markers" d=" M 173.6851161574973 160.68042353004444 C 173.6851161574973 185.34154464997079 153.69332747413483 205.33333333333326 129.03220635420848 205.33333333333326 C 104.37108523428216 205.33333333333326 84.37929655091969 185.34154464997079 84.37929655091969 160.68042353004444 C 84.37929655091969 136.0193024101181 104.37108523428216 116.02751372675561 129.03220635420848 116.02751372675561 C 153.69332747413483 116.02751372675561 173.6851161574973 136.0193024101181 173.6851161574973 160.68042353004444 Z" stroke-opacity="0.6980392156862745" stroke-linejoin="round" stroke-miterlimit="10" stroke-dasharray="5,4"/><path fill="none" stroke="rgb(244,0,153)" paint-order="fill stroke markers" d=" M 189.87834912284018 238.9454874148878 C 191.18256666499883 212.10990904047182 177.6669532852775 186.720053310615 154.6766257112871 172.81702888686772 C 131.68629813729675 158.91400446312045 102.9237324346239 158.73682316480216 79.76386710935479 172.3555561529363 C 56.60400178408569 185.97428914107044 42.77661609982799 211.19570829527015 43.75012561742828 238.04531777671025" stroke-opacity="0.6980392156862745" stroke-linejoin="round" stroke-miterlimit="10" stroke-width="1.5" stroke-dasharray="5.5,4"/><path fill="none" stroke="rgb(0,100,0)" paint-order="fill stroke markers" d=" M 50.16666666666658 205.33333333333326 L 150.16666666666654 38.66666666666654" stroke-opacity="0.6980392156862745" stroke-linecap="round" stroke-linejoin="round" stroke-miterlimit="10"/><path fill="none" stroke="rgb(0,100,0)" paint-order="fill stroke markers" d=" M 150.16666666666654 38.66666666666654 L 183.49999999999986 205.33333333333326" stroke-opacity="0.6980392156862745" stroke-linecap="round" stroke-linejoin="round" stroke-miterlimit="10"/><path fill="none" stroke="rgb(0,100,0)" paint-order="fill stroke markers" d=" M 183.49999999999986 205.33333333333326 L 50.16666666666658 205.33333333333326" stroke-opacity="0.6980392156862745" stroke-linecap="round" stroke-linejoin="round" stroke-miterlimit="10"/><path fill="none" stroke="rgb(0,100,0)" paint-order="fill stroke markers" d=" M 112.20266011923212 145.33483908369783 L 107.57219832038439 153.05227541511073" stroke-opacity="0.6980392156862745" stroke-linecap="round" stroke-linejoin="round" stroke-miterlimit="10"/><path fill="none" stroke="rgb(0,100,0)" paint-order="fill stroke markers" d=" M 90.74265208540803 137.70669096876412 L 129.03220635420848 160.68042353004444" stroke-opacity="0.6980392156862745" stroke-linecap="round" stroke-linejoin="round" stroke-miterlimit="10"/><path fill="none" stroke="rgb(0,100,0)" paint-order="fill stroke markers" d=" M 150.49221438803258 168.30857164497814 L 145.86175258918482 176.02600797639104" stroke-opacity="0.6980392156862745" stroke-linecap="round" stroke-linejoin="round" stroke-miterlimit="10"/><path fill="none" stroke="rgb(0,100,0)" paint-order="fill stroke markers" d=" M 129.03220635420848 160.68042353004444 L 167.32176062300894 183.65415609132475" stroke-opacity="0.6980392156862745" stroke-linecap="round" stroke-linejoin="round" stroke-miterlimit="10"/><path fill="none" stroke="rgb(0,100,0)" paint-order="fill stroke markers" d=" M 151.80761919556764 160.7144585240061 L 150.04257397932398 151.88923244278783" stroke-opacity="0.6980392156862745" stroke-linecap="round" stroke-linejoin="round" stroke-miterlimit="10"/><path fill="none" stroke="rgb(0,100,0)" paint-order="fill stroke markers" d=" M 172.81798682068313 151.92326743674948 L 129.03220635420848 160.68042353004444" stroke-opacity="0.6980392156862745" stroke-linejoin="round" stroke-miterlimit="10" stroke-dasharray="9,8"/><path fill="none" stroke="rgb(0,100,0)" paint-order="fill stroke markers" d=" M 108.02183872909299 169.47161461730104 L 106.25679351284933 160.64638853608278" stroke-opacity="0.6980392156862745" stroke-linecap="round" stroke-linejoin="round" stroke-miterlimit="10"/><path fill="none" stroke="rgb(0,100,0)" paint-order="fill stroke markers" d=" M 129.03220635420848 160.68042353004444 L 85.24642588773382 169.4375796233394" stroke-opacity="0.6980392156862745" stroke-linejoin="round" stroke-miterlimit="10" stroke-dasharray="9,8"/><path fill="rgb(0,0,255)" stroke="none" paint-order="stroke fill markers" d=" M 52.16666666666658 205.33333333333326 C 52.16666666666658 206.43790283299484 51.271236166328165 207.33333333333326 50.16666666666658 207.33333333333326 C 49.06209716700499 207.33333333333326 48.16666666666658 206.43790283299484 48.16666666666658 205.33333333333326 C 48.16666666666658 204.22876383367168 49.06209716700499 203.33333333333326 50.16666666666658 203.33333333333326 C 51.271236166328165 203.33333333333326 52.16666666666658 204.22876383367168 52.16666666666658 205.33333333333326 Z" fill-opacity="1"/><path fill="none" stroke="rgb(0,0,0)" paint-order="fill stroke markers" d=" M 52.16666666666658 205.33333333333326 C 52.16666666666658 206.43790283299484 51.271236166328165 207.33333333333326 50.16666666666658 207.33333333333326 C 49.06209716700499 207.33333333333326 48.16666666666658 206.43790283299484 48.16666666666658 205.33333333333326 C 48.16666666666658 204.22876383367168 49.06209716700499 203.33333333333326 50.16666666666658 203.33333333333326 C 51.271236166328165 203.33333333333326 52.16666666666658 204.22876383367168 52.16666666666658 205.33333333333326 Z" stroke-opacity="1" stroke-linecap="round" stroke-linejoin="round" stroke-miterlimit="10"/><text fill="rgb(0,0,255)" stroke="none" font-family="geogebra-sans-serif, sans-serif" font-size="16px" font-style="normal" font-weight="normal" text-decoration="normal" x="26" y="232" text-anchor="start" dominant-baseline="alphabetic" fill-opacity="1">A</text><text fill="rgb(0,0,255)" stroke="none" font-family="geogebra-sans-serif, sans-serif" font-size="16px" font-style="normal" font-weight="normal" text-decoration="normal" x="26" y="232" text-anchor="start" dominant-baseline="alphabetic" fill-opacity="1">A</text><path fill="rgb(0,0,255)" stroke="none" paint-order="stroke fill markers" d=" M 152.16666666666654 38.66666666666654 C 152.16666666666654 39.77123616632813 151.27123616632812 40.66666666666654 150.16666666666654 40.66666666666654 C 149.06209716700496 40.66666666666654 148.16666666666654 39.77123616632813 148.16666666666654 38.66666666666654 C 148.16666666666654 37.56209716700496 149.06209716700496 36.66666666666654 150.16666666666654 36.66666666666654 C 151.27123616632812 36.66666666666654 152.16666666666654 37.56209716700496 152.16666666666654 38.66666666666654 Z" fill-opacity="1"/><path fill="none" stroke="rgb(0,0,0)" paint-order="fill stroke markers" d=" M 152.16666666666654 38.66666666666654 C 152.16666666666654 39.77123616632813 151.27123616632812 40.66666666666654 150.16666666666654 40.66666666666654 C 149.06209716700496 40.66666666666654 148.16666666666654 39.77123616632813 148.16666666666654 38.66666666666654 C 148.16666666666654 37.56209716700496 149.06209716700496 36.66666666666654 150.16666666666654 36.66666666666654 C 151.27123616632812 36.66666666666654 152.16666666666654 37.56209716700496 152.16666666666654 38.66666666666654 Z" stroke-opacity="1" stroke-linecap="round" stroke-linejoin="round" stroke-miterlimit="10"/><text fill="rgb(0,0,255)" stroke="none" font-family="geogebra-sans-serif, sans-serif" font-size="16px" font-style="normal" font-weight="normal" text-decoration="normal" x="153" y="28" text-anchor="start" dominant-baseline="alphabetic" fill-opacity="1">B</text><text fill="rgb(0,0,255)" stroke="none" font-family="geogebra-sans-serif, sans-serif" font-size="16px" font-style="normal" font-weight="normal" text-decoration="normal" x="153" y="28" text-anchor="start" dominant-baseline="alphabetic" fill-opacity="1">B</text><path fill="rgb(0,0,255)" stroke="none" paint-order="stroke fill markers" d=" M 185.49999999999986 205.33333333333326 C 185.49999999999986 206.43790283299484 184.60456949966144 207.33333333333326 183.49999999999986 207.33333333333326 C 182.39543050033828 207.33333333333326 181.49999999999986 206.43790283299484 181.49999999999986 205.33333333333326 C 181.49999999999986 204.22876383367168 182.39543050033828 203.33333333333326 183.49999999999986 203.33333333333326 C 184.60456949966144 203.33333333333326 185.49999999999986 204.22876383367168 185.49999999999986 205.33333333333326 Z" fill-opacity="1"/><path fill="none" stroke="rgb(0,0,0)" paint-order="fill stroke markers" d=" M 185.49999999999986 205.33333333333326 C 185.49999999999986 206.43790283299484 184.60456949966144 207.33333333333326 183.49999999999986 207.33333333333326 C 182.39543050033828 207.33333333333326 181.49999999999986 206.43790283299484 181.49999999999986 205.33333333333326 C 181.49999999999986 204.22876383367168 182.39543050033828 203.33333333333326 183.49999999999986 203.33333333333326 C 184.60456949966144 203.33333333333326 185.49999999999986 204.22876383367168 185.49999999999986 205.33333333333326 Z" stroke-opacity="1" stroke-linecap="round" stroke-linejoin="round" stroke-miterlimit="10"/><text fill="rgb(0,0,255)" stroke="none" font-family="geogebra-sans-serif, sans-serif" font-size="16px" font-style="normal" font-weight="normal" text-decoration="normal" x="193" y="229" text-anchor="start" dominant-baseline="alphabetic" fill-opacity="1">C</text><text fill="rgb(0,0,255)" stroke="none" font-family="geogebra-sans-serif, sans-serif" font-size="16px" font-style="normal" font-weight="normal" text-decoration="normal" x="193" y="229" text-anchor="start" dominant-baseline="alphabetic" fill-opacity="1">C</text><path fill="rgb(0,0,255)" stroke="none" paint-order="stroke fill markers" d=" M 131.03220635420848 160.68042353004444 C 131.03220635420848 161.78499302970602 130.13677585387006 162.68042353004444 129.03220635420848 162.68042353004444 C 127.92763685454689 162.68042353004444 127.03220635420848 161.78499302970602 127.03220635420848 160.68042353004444 C 127.03220635420848 159.57585403038286 127.92763685454689 158.68042353004444 129.03220635420848 158.68042353004444 C 130.13677585387006 158.68042353004444 131.03220635420848 159.57585403038286 131.03220635420848 160.68042353004444 Z" fill-opacity="1"/><path fill="none" stroke="rgb(0,0,0)" paint-order="fill stroke markers" d=" M 131.03220635420848 160.68042353004444 C 131.03220635420848 161.78499302970602 130.13677585387006 162.68042353004444 129.03220635420848 162.68042353004444 C 127.92763685454689 162.68042353004444 127.03220635420848 161.78499302970602 127.03220635420848 160.68042353004444 C 127.03220635420848 159.57585403038286 127.92763685454689 158.68042353004444 129.03220635420848 158.68042353004444 C 130.13677585387006 158.68042353004444 131.03220635420848 159.57585403038286 131.03220635420848 160.68042353004444 Z" stroke-opacity="1" stroke-linecap="round" stroke-linejoin="round" stroke-miterlimit="10"/><text fill="rgb(0,0,255)" stroke="none" font-family="geogebra-sans-serif, sans-serif" font-size="16px" font-style="normal" font-weight="normal" text-decoration="normal" x="130" y="149" text-anchor="start" dominant-baseline="alphabetic" fill-opacity="1">I</text><text fill="rgb(0,0,255)" stroke="none" font-family="geogebra-sans-serif, sans-serif" font-size="16px" font-style="normal" font-weight="normal" text-decoration="normal" x="130" y="149" text-anchor="start" dominant-baseline="alphabetic" fill-opacity="1">I</text><path fill="rgb(0,0,255)" stroke="none" paint-order="stroke fill markers" d=" M 92.74265208540803 137.70669096876412 C 92.74265208540803 138.8112604684257 91.8472215850696 139.70669096876412 90.74265208540803 139.70669096876412 C 89.63808258574643 139.70669096876412 88.74265208540803 138.8112604684257 88.74265208540803 137.70669096876412 C 88.74265208540803 136.60212146910254 89.63808258574643 135.70669096876412 90.74265208540803 135.70669096876412 C 91.8472215850696 135.70669096876412 92.74265208540803 136.60212146910254 92.74265208540803 137.70669096876412 Z" fill-opacity="1"/><path fill="none" stroke="rgb(0,0,0)" paint-order="fill stroke markers" d=" M 92.74265208540803 137.70669096876412 C 92.74265208540803 138.8112604684257 91.8472215850696 139.70669096876412 90.74265208540803 139.70669096876412 C 89.63808258574643 139.70669096876412 88.74265208540803 138.8112604684257 88.74265208540803 137.70669096876412 C 88.74265208540803 136.60212146910254 89.63808258574643 135.70669096876412 90.74265208540803 135.70669096876412 C 91.8472215850696 135.70669096876412 92.74265208540803 136.60212146910254 92.74265208540803 137.70669096876412 Z" stroke-opacity="1" stroke-linecap="round" stroke-linejoin="round" stroke-miterlimit="10"/><text fill="rgb(0,0,255)" stroke="none" font-family="geogebra-sans-serif, sans-serif" font-size="16px" font-style="normal" font-weight="normal" text-decoration="normal" x="71" y="133" text-anchor="start" dominant-baseline="alphabetic" fill-opacity="1">D</text><text fill="rgb(0,0,255)" stroke="none" font-family="geogebra-sans-serif, sans-serif" font-size="16px" font-style="normal" font-weight="normal" text-decoration="normal" x="71" y="133" text-anchor="start" dominant-baseline="alphabetic" fill-opacity="1">D</text><path fill="rgb(0,0,255)" stroke="none" paint-order="stroke fill markers" d=" M 174.81798682068313 151.92326743674948 C 174.81798682068313 153.02783693641106 173.9225563203447 153.92326743674948 172.81798682068313 153.92326743674948 C 171.71341732102155 153.92326743674948 170.81798682068313 153.02783693641106 170.81798682068313 151.92326743674948 C 170.81798682068313 150.8186979370879 171.71341732102155 149.92326743674948 172.81798682068313 149.92326743674948 C 173.9225563203447 149.92326743674948 174.81798682068313 150.8186979370879 174.81798682068313 151.92326743674948 Z" fill-opacity="1"/><path fill="none" stroke="rgb(0,0,0)" paint-order="fill stroke markers" d=" M 174.81798682068313 151.92326743674948 C 174.81798682068313 153.02783693641106 173.9225563203447 153.92326743674948 172.81798682068313 153.92326743674948 C 171.71341732102155 153.92326743674948 170.81798682068313 153.02783693641106 170.81798682068313 151.92326743674948 C 170.81798682068313 150.8186979370879 171.71341732102155 149.92326743674948 172.81798682068313 149.92326743674948 C 173.9225563203447 149.92326743674948 174.81798682068313 150.8186979370879 174.81798682068313 151.92326743674948 Z" stroke-opacity="1" stroke-linecap="round" stroke-linejoin="round" stroke-miterlimit="10"/><text fill="rgb(0,0,255)" stroke="none" font-family="geogebra-sans-serif, sans-serif" font-size="16px" font-style="normal" font-weight="normal" text-decoration="normal" x="177" y="148" text-anchor="start" dominant-baseline="alphabetic" fill-opacity="1">E</text><text fill="rgb(0,0,255)" stroke="none" font-family="geogebra-sans-serif, sans-serif" font-size="16px" font-style="normal" font-weight="normal" text-decoration="normal" x="177" y="148" text-anchor="start" dominant-baseline="alphabetic" fill-opacity="1">E</text><path fill="rgb(0,0,255)" stroke="none" paint-order="stroke fill markers" d=" M 169.32176062300894 183.65415609132475 C 169.32176062300894 184.75872559098633 168.42633012267052 185.65415609132475 167.32176062300894 185.65415609132475 C 166.21719112334736 185.65415609132475 165.32176062300894 184.75872559098633 165.32176062300894 183.65415609132475 C 165.32176062300894 182.54958659166317 166.21719112334736 181.65415609132475 167.32176062300894 181.65415609132475 C 168.42633012267052 181.65415609132475 169.32176062300894 182.54958659166317 169.32176062300894 183.65415609132475 Z" fill-opacity="1"/><path fill="none" stroke="rgb(0,0,0)" paint-order="fill stroke markers" d=" M 169.32176062300894 183.65415609132475 C 169.32176062300894 184.75872559098633 168.42633012267052 185.65415609132475 167.32176062300894 185.65415609132475 C 166.21719112334736 185.65415609132475 165.32176062300894 184.75872559098633 165.32176062300894 183.65415609132475 C 165.32176062300894 182.54958659166317 166.21719112334736 181.65415609132475 167.32176062300894 181.65415609132475 C 168.42633012267052 181.65415609132475 169.32176062300894 182.54958659166317 169.32176062300894 183.65415609132475 Z" stroke-opacity="1" stroke-linecap="round" stroke-linejoin="round" stroke-miterlimit="10"/><text fill="rgb(0,0,255)" stroke="none" font-family="geogebra-sans-serif, sans-serif" font-size="16px" font-style="normal" font-weight="normal" text-decoration="normal" x="145" y="194" text-anchor="start" dominant-baseline="alphabetic" fill-opacity="1">K</text><text fill="rgb(0,0,255)" stroke="none" font-family="geogebra-sans-serif, sans-serif" font-size="16px" font-style="normal" font-weight="normal" text-decoration="normal" x="145" y="194" text-anchor="start" dominant-baseline="alphabetic" fill-opacity="1">K</text><path fill="rgb(0,0,255)" stroke="none" paint-order="stroke fill markers" d=" M 87.24642588773382 169.4375796233394 C 87.24642588773382 170.54214912300097 86.35099538739541 171.4375796233394 85.24642588773382 171.4375796233394 C 84.14185638807223 171.4375796233394 83.24642588773382 170.54214912300097 83.24642588773382 169.4375796233394 C 83.24642588773382 168.3330101236778 84.14185638807223 167.4375796233394 85.24642588773382 167.4375796233394 C 86.35099538739541 167.4375796233394 87.24642588773382 168.3330101236778 87.24642588773382 169.4375796233394 Z" fill-opacity="1"/><path fill="none" stroke="rgb(0,0,0)" paint-order="fill stroke markers" d=" M 87.24642588773382 169.4375796233394 C 87.24642588773382 170.54214912300097 86.35099538739541 171.4375796233394 85.24642588773382 171.4375796233394 C 84.14185638807223 171.4375796233394 83.24642588773382 170.54214912300097 83.24642588773382 169.4375796233394 C 83.24642588773382 168.3330101236778 84.14185638807223 167.4375796233394 85.24642588773382 167.4375796233394 C 86.35099538739541 167.4375796233394 87.24642588773382 168.3330101236778 87.24642588773382 169.4375796233394 Z" stroke-opacity="1" stroke-linecap="round" stroke-linejoin="round" stroke-miterlimit="10"/><text fill="rgb(0,0,255)" stroke="none" font-family="geogebra-sans-serif, sans-serif" font-size="16px" font-style="normal" font-weight="normal" text-decoration="normal" x="76" y="192" text-anchor="start" dominant-baseline="alphabetic" fill-opacity="1">L</text><text fill="rgb(0,0,255)" stroke="none" font-family="geogebra-sans-serif, sans-serif" font-size="16px" font-style="normal" font-weight="normal" text-decoration="normal" x="76" y="192" text-anchor="start" dominant-baseline="alphabetic" fill-opacity="1">L</text></g></g></svg>