<svg version="1.1" xmlns="http://www.w3.org/2000/svg" xmlns:xlink="http://www.w3.org/1999/xlink" width="333" height="362"><defs><clipPath id="dZmJoMxtUTsE"><path fill="none" stroke="none" d=" M 0 0 L 333 0 L 333 362 L 0 362 L 0 0 Z"/></clipPath></defs><g transform="scale(1,1)" clip-path="url(#dZmJoMxtUTsE)"><g><rect fill="rgb(255,255,255)" stroke="none" x="0" y="0" width="333" height="362" fill-opacity="1"/><path fill="none" stroke="rgb(0,153,255)" paint-order="fill stroke markers" d=" M 313.66068747318474 180.0000000000006 C 313.66068747318474 262.10303059080206 247.1030305908015 328.66068747318513 164.99999999999986 328.66068747318513 C 82.89696940919819 328.66068747318513 16.33931252681498 262.10303059080206 16.33931252681498 180.0000000000006 C 16.33931252681498 97.89696940919912 82.89696940919819 31.33931252681606 164.99999999999986 31.33931252681606 C 247.1030305908015 31.33931252681606 313.66068747318474 97.89696940919912 313.66068747318474 180.0000000000006 Z" stroke-opacity="0.6980392156862745" stroke-linejoin="round" stroke-miterlimit="10" stroke-dasharray="5,4"/><path fill="none" stroke="rgb(255,127,0)" paint-order="fill stroke markers" d=" M 250.27767423624587 223.02063529506722 C 250.27767423624587 260.0123169749566 220.2899912112022 290.0000000000002 183.29830953131273 290.0000000000002 C 146.30662785142326 290.0000000000002 116.31894482637958 260.0123169749566 116.31894482637958 223.02063529506722 C 116.31894482637958 186.0289536151778 146.30662785142326 156.04127059013422 183.29830953131273 156.04127059013422 C 220.2899912112022 156.04127059013422 250.27767423624587 186.0289536151778 250.27767423624587 223.02063529506722 Z" stroke-opacity="0.6980392156862745" stroke-linejoin="round" stroke-miterlimit="10" stroke-dasharray="5,4"/><path fill="none" stroke="rgb(244,0,153)" paint-order="fill stroke markers" d=" M 274.5675236842602 340.4182311223318 C 276.52384999749825 300.16486356070806 256.25042992791623 262.0800799659229 221.76493856693065 241.2255433303021 C 187.27944720594513 220.37100669468128 144.1355986519359 220.10523474720384 109.39580066403227 240.53333422940497 C 74.65600267612862 260.9614337116061 53.91492414974208 298.79356244290557 55.375188426142515 339.06797666506554" stroke-opacity="0.6980392156862745" stroke-linejoin="round" stroke-miterlimit="10" stroke-width="1.5" stroke-dasharray="5.5,4"/><path fill="rgb(204,0,0)" stroke="none" paint-order="stroke fill markers" fill-rule="evenodd" d=" M 216.44957554275246 242.91139490193103 L 207.35448960389058 237.4543433386139 L 201.89743804057247 246.549429277476 L 210.99252397943533 252.00648084079288 L 216.44957554275246 242.91139490193103" fill-opacity="0.09803921568627451"/><path fill="none" stroke="rgb(204,0,0)" paint-order="fill stroke markers" d=" M 216.44957554275246 242.91139490193103 L 207.35448960389058 237.4543433386139 L 201.89743804057247 246.549429277476 L 210.99252397943533 252.00648084079288 L 216.44957554275246 242.91139490193103" stroke-opacity="0.6980392156862745" stroke-linecap="round" stroke-linejoin="round" stroke-miterlimit="10" stroke-width="0.5"/><path fill="rgb(0,204,0)" stroke="none" paint-order="stroke fill markers" d=" M 199.565127337174 65.72478777137735 C 202.73748288601828 67.6282011006839 206.23454026646155 68.92842093323179 209.8798301022012 69.55983525356214 L 214.9999999999998 40.00000000000108 Z" fill-opacity="0.09803921568627451"/><path fill="none" stroke="rgb(0,204,0)" paint-order="fill stroke markers" d=" M 199.565127337174 65.72478777137735 C 202.73748288601828 67.6282011006839 206.23454026646155 68.92842093323179 209.8798301022012 69.55983525356214 L 214.9999999999998 40.00000000000108 Z" stroke-opacity="0.6980392156862745" stroke-linecap="round" stroke-linejoin="round" stroke-miterlimit="10"/><path fill="none" stroke="rgb(0,204,0)" paint-order="fill stroke markers" d=" M 202.13760611431164 61.43732314281465 C 204.78123573834853 63.02350091723673 207.69545022205125 64.10701744436 210.73319175183428 64.63319604463533" stroke-opacity="0.6980392156862745" stroke-linecap="round" stroke-linejoin="round" stroke-miterlimit="10"/><path fill="rgb(0,204,0)" stroke="none" paint-order="stroke fill markers" d=" M 209.8798301022012 69.55983525356214 C 213.52511993794081 70.19124957389255 217.25575669414098 70.14296574272947 220.8834840541453 69.4174202707286 L 214.9999999999998 40.00000000000108 Z" fill-opacity="0.09803921568627451"/><path fill="none" stroke="rgb(0,204,0)" paint-order="fill stroke markers" d=" M 209.8798301022012 69.55983525356214 C 213.52511993794081 70.19124957389255 217.25575669414098 70.14296574272947 220.8834840541453 69.4174202707286 L 214.9999999999998 40.00000000000108 Z" stroke-opacity="0.6980392156862745" stroke-linecap="round" stroke-linejoin="round" stroke-miterlimit="10"/><path fill="none" stroke="rgb(0,204,0)" paint-order="fill stroke markers" d=" M 210.73319175183428 64.63319604463533 C 213.77093328161732 65.15937464491066 216.87979724511746 65.11913811894141 219.90290337845443 64.51451689227406" stroke-opacity="0.6980392156862745" stroke-linecap="round" stroke-linejoin="round" stroke-miterlimit="10"/><path fill="none" stroke="rgb(0,100,0)" paint-order="fill stroke markers" d=" M 64.99999999999994 290.0000000000002 L 214.9999999999998 40.00000000000108" stroke-opacity="0.6980392156862745" stroke-linecap="round" stroke-linejoin="round" stroke-miterlimit="10"/><path fill="none" stroke="rgb(0,100,0)" paint-order="fill stroke markers" d=" M 214.9999999999998 40.00000000000108 L 264.9999999999997 290.0000000000002" stroke-opacity="0.6980392156862745" stroke-linecap="round" stroke-linejoin="round" stroke-miterlimit="10"/><path fill="none" stroke="rgb(0,100,0)" paint-order="fill stroke markers" d=" M 156.89637472913626 201.9316177084006 L 152.26591293028855 209.6490540398135" stroke-opacity="0.6980392156862745" stroke-linecap="round" stroke-linejoin="round" stroke-miterlimit="10"/><path fill="none" stroke="rgb(0,100,0)" paint-order="fill stroke markers" d=" M 125.86397812811207 188.5600364531469 L 183.29830953131273 223.02063529506722" stroke-opacity="0.6980392156862745" stroke-linecap="round" stroke-linejoin="round" stroke-miterlimit="10"/><path fill="none" stroke="rgb(0,100,0)" paint-order="fill stroke markers" d=" M 217.02016748929051 220.8653812657052 L 215.25512227304685 212.04015518448693" stroke-opacity="0.6980392156862745" stroke-linecap="round" stroke-linejoin="round" stroke-miterlimit="10"/><path fill="none" stroke="rgb(0,100,0)" paint-order="fill stroke markers" d=" M 248.97698023102467 209.88490115512488 L 183.29830953131273 223.02063529506722" stroke-opacity="0.6980392156862745" stroke-linejoin="round" stroke-miterlimit="10" stroke-dasharray="9,8"/><path fill="none" stroke="rgb(0,100,0)" paint-order="fill stroke markers" d=" M 151.34149678957857 234.00111540564754 L 149.5764515733349 225.17588932442928" stroke-opacity="0.6980392156862745" stroke-linecap="round" stroke-linejoin="round" stroke-miterlimit="10"/><path fill="none" stroke="rgb(0,100,0)" paint-order="fill stroke markers" d=" M 183.29830953131273 223.02063529506722 L 117.61963883160077 236.1563694350096" stroke-opacity="0.6980392156862745" stroke-linejoin="round" stroke-miterlimit="10" stroke-dasharray="9,8"/><path fill="none" stroke="rgb(255,85,0)" paint-order="fill stroke markers" d=" M 211.74505172898614 305.7641396267547 L 214.9904218199718 314.1586362151473" stroke-opacity="0.6980392156862745" stroke-linecap="round" stroke-linejoin="round" stroke-miterlimit="10"/><path fill="none" stroke="rgb(255,85,0)" paint-order="fill stroke markers" d=" M 215.00957818002775 304.5020512580381 L 218.2549482710134 312.8965478464307" stroke-opacity="0.6980392156862745" stroke-linecap="round" stroke-linejoin="round" stroke-miterlimit="10"/><path fill="none" stroke="rgb(255,85,0)" paint-order="fill stroke markers" d=" M 164.99999999999986 328.66068747318513 L 264.9999999999997 290.0000000000002" stroke-opacity="0.6980392156862745" stroke-linecap="round" stroke-linejoin="round" stroke-miterlimit="10"/><path fill="none" stroke="rgb(153,51,255)" paint-order="fill stroke markers" d=" M 164.99999999999986 328.66068747318513 L 216.44957554275246 242.91139490193103" stroke-opacity="0.6980392156862745" stroke-linejoin="round" stroke-miterlimit="10" stroke-dasharray="9,8"/><path fill="none" stroke="rgb(0,100,0)" paint-order="fill stroke markers" d=" M 64.99999999999994 290.0000000000002 L 164.99999999999986 290.0000000000002" stroke-opacity="0.6980392156862745" stroke-linecap="round" stroke-linejoin="round" stroke-miterlimit="10"/><path fill="none" stroke="rgb(0,100,0)" paint-order="fill stroke markers" d=" M 164.99999999999986 290.0000000000002 L 264.9999999999997 290.0000000000002" stroke-opacity="0.6980392156862745" stroke-linecap="round" stroke-linejoin="round" stroke-miterlimit="10"/><path fill="none" stroke="rgb(0,100,0)" paint-order="fill stroke markers" d=" M 214.9999999999998 40.00000000000108 L 183.29830953131273 223.02063529506722" stroke-opacity="0.6980392156862745" stroke-linecap="round" stroke-linejoin="round" stroke-miterlimit="10"/><path fill="none" stroke="rgb(255,85,0)" paint-order="fill stroke markers" d=" M 178.88180663106206 274.88436314567156 L 170.01385605499374 273.34831217633194" stroke-opacity="0.6980392156862745" stroke-linecap="round" stroke-linejoin="round" stroke-miterlimit="10"/><path fill="none" stroke="rgb(255,85,0)" paint-order="fill stroke markers" d=" M 178.28445347631887 278.3330105919204 L 169.41650290025055 276.7969596225808" stroke-opacity="0.6980392156862745" stroke-linecap="round" stroke-linejoin="round" stroke-miterlimit="10"/><path fill="none" stroke="rgb(255,85,0)" paint-order="fill stroke markers" d=" M 183.29830953131273 223.02063529506722 L 164.99999999999986 328.66068747318513" stroke-opacity="0.6980392156862745" stroke-linecap="round" stroke-linejoin="round" stroke-miterlimit="10"/><path fill="none" stroke="rgb(255,85,0)" paint-order="fill stroke markers" d=" M 115.00957818002786 314.1586362151473 L 118.25494827101352 305.7641396267547" stroke-opacity="0.6980392156862745" stroke-linecap="round" stroke-linejoin="round" stroke-miterlimit="10"/><path fill="none" stroke="rgb(255,85,0)" paint-order="fill stroke markers" d=" M 111.74505172898628 312.8965478464307 L 114.99042181997194 304.5020512580381" stroke-opacity="0.6980392156862745" stroke-linecap="round" stroke-linejoin="round" stroke-miterlimit="10"/><path fill="none" stroke="rgb(255,85,0)" paint-order="fill stroke markers" d=" M 164.99999999999986 328.66068747318513 L 64.99999999999994 290.0000000000002" stroke-opacity="0.6980392156862745" stroke-linecap="round" stroke-linejoin="round" stroke-miterlimit="10"/><path fill="none" stroke="rgb(0,100,0)" paint-order="fill stroke markers" d=" M 200.6885608164595 228.2069293607945 L 196.05809901761174 235.9243656922074" stroke-opacity="0.6980392156862745" stroke-linecap="round" stroke-linejoin="round" stroke-miterlimit="10"/><path fill="none" stroke="rgb(0,100,0)" paint-order="fill stroke markers" d=" M 203.6897860564534 230.00766450479085 L 199.05932425760565 237.72510083620375" stroke-opacity="0.6980392156862745" stroke-linecap="round" stroke-linejoin="round" stroke-miterlimit="10"/><path fill="none" stroke="rgb(0,100,0)" paint-order="fill stroke markers" d=" M 183.29830953131273 223.02063529506722 L 216.44957554275246 242.91139490193103" stroke-opacity="0.6980392156862745" stroke-linecap="round" stroke-linejoin="round" stroke-miterlimit="10"/><path fill="none" stroke="rgb(0,100,0)" paint-order="fill stroke markers" d=" M 229.4057265180598 245.43722878175467 L 224.7752647192121 253.15466511316757" stroke-opacity="0.6980392156862745" stroke-linecap="round" stroke-linejoin="round" stroke-miterlimit="10"/><path fill="none" stroke="rgb(0,100,0)" paint-order="fill stroke markers" d=" M 232.4069517580537 247.23796392575102 L 227.776489959206 254.95540025716392" stroke-opacity="0.6980392156862745" stroke-linecap="round" stroke-linejoin="round" stroke-miterlimit="10"/><path fill="none" stroke="rgb(0,100,0)" paint-order="fill stroke markers" d=" M 216.44957554275246 242.91139490193103 L 240.73264093451337 257.48123413698755" stroke-opacity="0.6980392156862745" stroke-linecap="round" stroke-linejoin="round" stroke-miterlimit="10"/><path fill="none" stroke="rgb(255,85,0)" paint-order="fill stroke markers" d=" M 198.50926161097502 290.99044689672183 L 204.67302738567375 297.54849473694475" stroke-opacity="0.6980392156862745" stroke-linecap="round" stroke-linejoin="round" stroke-miterlimit="10"/><path fill="none" stroke="rgb(255,85,0)" paint-order="fill stroke markers" d=" M 201.0596135488395 288.5934268732279 L 207.22337932353824 295.1514747134508" stroke-opacity="0.6980392156862745" stroke-linecap="round" stroke-linejoin="round" stroke-miterlimit="10"/><path fill="none" stroke="rgb(255,85,0)" paint-order="fill stroke markers" d=" M 164.99999999999986 328.66068747318513 L 240.73264093451337 257.48123413698755" stroke-opacity="0.6980392156862745" stroke-linecap="round" stroke-linejoin="round" stroke-miterlimit="10"/><path fill="none" stroke="rgb(255,85,0)" paint-order="fill stroke markers" d=" M 138.10241015868033 286.0175485229444 L 146.11279690389003 281.91465878616515" stroke-opacity="0.6980392156862745" stroke-linecap="round" stroke-linejoin="round" stroke-miterlimit="10"/><path fill="none" stroke="rgb(255,85,0)" paint-order="fill stroke markers" d=" M 136.5068419277106 282.9023981220295 L 144.5172286729203 278.79950838525025" stroke-opacity="0.6980392156862745" stroke-linecap="round" stroke-linejoin="round" stroke-miterlimit="10"/><path fill="none" stroke="rgb(255,85,0)" paint-order="fill stroke markers" d=" M 164.99999999999986 328.66068747318513 L 117.61963883160077 236.1563694350096" stroke-opacity="0.6980392156862745" stroke-linecap="round" stroke-linejoin="round" stroke-miterlimit="10"/><path fill="rgb(0,0,255)" stroke="none" paint-order="stroke fill markers" d=" M 66.99999999999994 290.0000000000002 C 66.99999999999994 291.1045694996618 66.10456949966152 292.0000000000002 64.99999999999994 292.0000000000002 C 63.89543050033836 292.0000000000002 62.99999999999994 291.1045694996618 62.99999999999994 290.0000000000002 C 62.99999999999994 288.89543050033865 63.89543050033836 288.0000000000002 64.99999999999994 288.0000000000002 C 66.10456949966152 288.0000000000002 66.99999999999994 288.89543050033865 66.99999999999994 290.0000000000002 Z" fill-opacity="1"/><path fill="none" stroke="rgb(0,0,0)" paint-order="fill stroke markers" d=" M 66.99999999999994 290.0000000000002 C 66.99999999999994 291.1045694996618 66.10456949966152 292.0000000000002 64.99999999999994 292.0000000000002 C 63.89543050033836 292.0000000000002 62.99999999999994 291.1045694996618 62.99999999999994 290.0000000000002 C 62.99999999999994 288.89543050033865 63.89543050033836 288.0000000000002 64.99999999999994 288.0000000000002 C 66.10456949966152 288.0000000000002 66.99999999999994 288.89543050033865 66.99999999999994 290.0000000000002 Z" stroke-opacity="1" stroke-linecap="round" stroke-linejoin="round" stroke-miterlimit="10"/><text fill="rgb(0,0,255)" stroke="none" font-family="geogebra-sans-serif, sans-serif" font-size="16px" font-style="normal" font-weight="normal" text-decoration="normal" x="40" y="299" text-anchor="start" dominant-baseline="alphabetic" fill-opacity="1">A</text><text fill="none" stroke="rgb(255,255,255)" font-family="geogebra-sans-serif, sans-serif" font-size="16px" font-style="normal" font-weight="normal" text-decoration="normal" x="40" y="299" text-anchor="start" dominant-baseline="alphabetic" stroke-opacity="1" stroke-linejoin="bevel" stroke-miterlimit="10" stroke-width="3">A</text><text fill="rgb(0,0,255)" stroke="none" font-family="geogebra-sans-serif, sans-serif" font-size="16px" font-style="normal" font-weight="normal" text-decoration="normal" x="40" y="299" text-anchor="start" dominant-baseline="alphabetic" fill-opacity="1">A</text><path fill="rgb(0,0,255)" stroke="none" paint-order="stroke fill markers" d=" M 216.9999999999998 40.00000000000108 C 216.9999999999998 41.10456949966267 216.10456949966138 42.00000000000108 214.9999999999998 42.00000000000108 C 213.89543050033822 42.00000000000108 212.9999999999998 41.10456949966267 212.9999999999998 40.00000000000108 C 212.9999999999998 38.895430500339494 213.89543050033822 38.00000000000108 214.9999999999998 38.00000000000108 C 216.10456949966138 38.00000000000108 216.9999999999998 38.895430500339494 216.9999999999998 40.00000000000108 Z" fill-opacity="1"/><path fill="none" stroke="rgb(0,0,0)" paint-order="fill stroke markers" d=" M 216.9999999999998 40.00000000000108 C 216.9999999999998 41.10456949966267 216.10456949966138 42.00000000000108 214.9999999999998 42.00000000000108 C 213.89543050033822 42.00000000000108 212.9999999999998 41.10456949966267 212.9999999999998 40.00000000000108 C 212.9999999999998 38.895430500339494 213.89543050033822 38.00000000000108 214.9999999999998 38.00000000000108 C 216.10456949966138 38.00000000000108 216.9999999999998 38.895430500339494 216.9999999999998 40.00000000000108 Z" stroke-opacity="1" stroke-linecap="round" stroke-linejoin="round" stroke-miterlimit="10"/><text fill="rgb(0,0,255)" stroke="none" font-family="geogebra-sans-serif, sans-serif" font-size="16px" font-style="normal" font-weight="normal" text-decoration="normal" x="220" y="30" text-anchor="start" dominant-baseline="alphabetic" fill-opacity="1">B</text><text fill="none" stroke="rgb(255,255,255)" font-family="geogebra-sans-serif, sans-serif" font-size="16px" font-style="normal" font-weight="normal" text-decoration="normal" x="220" y="30" text-anchor="start" dominant-baseline="alphabetic" stroke-opacity="1" stroke-linejoin="bevel" stroke-miterlimit="10" stroke-width="3">B</text><text fill="rgb(0,0,255)" stroke="none" font-family="geogebra-sans-serif, sans-serif" font-size="16px" font-style="normal" font-weight="normal" text-decoration="normal" x="220" y="30" text-anchor="start" dominant-baseline="alphabetic" fill-opacity="1">B</text><path fill="rgb(0,0,255)" stroke="none" paint-order="stroke fill markers" d=" M 266.9999999999997 290.0000000000002 C 266.9999999999997 291.1045694996618 266.1045694996613 292.0000000000002 264.9999999999997 292.0000000000002 C 263.89543050033814 292.0000000000002 262.9999999999997 291.1045694996618 262.9999999999997 290.0000000000002 C 262.9999999999997 288.89543050033865 263.89543050033814 288.0000000000002 264.9999999999997 288.0000000000002 C 266.1045694996613 288.0000000000002 266.9999999999997 288.89543050033865 266.9999999999997 290.0000000000002 Z" fill-opacity="1"/><path fill="none" stroke="rgb(0,0,0)" paint-order="fill stroke markers" d=" M 266.9999999999997 290.0000000000002 C 266.9999999999997 291.1045694996618 266.1045694996613 292.0000000000002 264.9999999999997 292.0000000000002 C 263.89543050033814 292.0000000000002 262.9999999999997 291.1045694996618 262.9999999999997 290.0000000000002 C 262.9999999999997 288.89543050033865 263.89543050033814 288.0000000000002 264.9999999999997 288.0000000000002 C 266.1045694996613 288.0000000000002 266.9999999999997 288.89543050033865 266.9999999999997 290.0000000000002 Z" stroke-opacity="1" stroke-linecap="round" stroke-linejoin="round" stroke-miterlimit="10"/><text fill="rgb(0,0,255)" stroke="none" font-family="geogebra-sans-serif, sans-serif" font-size="16px" font-style="normal" font-weight="normal" text-decoration="normal" x="281" y="304" text-anchor="start" dominant-baseline="alphabetic" fill-opacity="1">C</text><text fill="none" stroke="rgb(255,255,255)" font-family="geogebra-sans-serif, sans-serif" font-size="16px" font-style="normal" font-weight="normal" text-decoration="normal" x="281" y="304" text-anchor="start" dominant-baseline="alphabetic" stroke-opacity="1" stroke-linejoin="bevel" stroke-miterlimit="10" stroke-width="3">C</text><text fill="rgb(0,0,255)" stroke="none" font-family="geogebra-sans-serif, sans-serif" font-size="16px" font-style="normal" font-weight="normal" text-decoration="normal" x="281" y="304" text-anchor="start" dominant-baseline="alphabetic" fill-opacity="1">C</text><path fill="rgb(0,0,255)" stroke="none" paint-order="stroke fill markers" d=" M 185.29830953131273 223.02063529506722 C 185.29830953131273 224.1252047947288 184.4028790309743 225.02063529506722 183.29830953131273 225.02063529506722 C 182.19374003165115 225.02063529506722 181.29830953131273 224.1252047947288 181.29830953131273 223.02063529506722 C 181.29830953131273 221.91606579540564 182.19374003165115 221.02063529506722 183.29830953131273 221.02063529506722 C 184.4028790309743 221.02063529506722 185.29830953131273 221.91606579540564 185.29830953131273 223.02063529506722 Z" fill-opacity="1"/><path fill="none" stroke="rgb(0,0,0)" paint-order="fill stroke markers" d=" M 185.29830953131273 223.02063529506722 C 185.29830953131273 224.1252047947288 184.4028790309743 225.02063529506722 183.29830953131273 225.02063529506722 C 182.19374003165115 225.02063529506722 181.29830953131273 224.1252047947288 181.29830953131273 223.02063529506722 C 181.29830953131273 221.91606579540564 182.19374003165115 221.02063529506722 183.29830953131273 221.02063529506722 C 184.4028790309743 221.02063529506722 185.29830953131273 221.91606579540564 185.29830953131273 223.02063529506722 Z" stroke-opacity="1" stroke-linecap="round" stroke-linejoin="round" stroke-miterlimit="10"/><text fill="rgb(0,0,255)" stroke="none" font-family="geogebra-sans-serif, sans-serif" font-size="16px" font-style="normal" font-weight="normal" text-decoration="normal" x="191" y="217" text-anchor="start" dominant-baseline="alphabetic" fill-opacity="1">I</text><text fill="none" stroke="rgb(255,255,255)" font-family="geogebra-sans-serif, sans-serif" font-size="16px" font-style="normal" font-weight="normal" text-decoration="normal" x="191" y="217" text-anchor="start" dominant-baseline="alphabetic" stroke-opacity="1" stroke-linejoin="bevel" stroke-miterlimit="10" stroke-width="3">I</text><text fill="rgb(0,0,255)" stroke="none" font-family="geogebra-sans-serif, sans-serif" font-size="16px" font-style="normal" font-weight="normal" text-decoration="normal" x="191" y="217" text-anchor="start" dominant-baseline="alphabetic" fill-opacity="1">I</text><path fill="rgb(0,0,255)" stroke="none" paint-order="stroke fill markers" d=" M 127.86397812811207 188.5600364531469 C 127.86397812811207 189.66460595280847 126.96854762777366 190.5600364531469 125.86397812811207 190.5600364531469 C 124.75940862845047 190.5600364531469 123.86397812811207 189.66460595280847 123.86397812811207 188.5600364531469 C 123.86397812811207 187.4554669534853 124.75940862845047 186.5600364531469 125.86397812811207 186.5600364531469 C 126.96854762777366 186.5600364531469 127.86397812811207 187.4554669534853 127.86397812811207 188.5600364531469 Z" fill-opacity="1"/><path fill="none" stroke="rgb(0,0,0)" paint-order="fill stroke markers" d=" M 127.86397812811207 188.5600364531469 C 127.86397812811207 189.66460595280847 126.96854762777366 190.5600364531469 125.86397812811207 190.5600364531469 C 124.75940862845047 190.5600364531469 123.86397812811207 189.66460595280847 123.86397812811207 188.5600364531469 C 123.86397812811207 187.4554669534853 124.75940862845047 186.5600364531469 125.86397812811207 186.5600364531469 C 126.96854762777366 186.5600364531469 127.86397812811207 187.4554669534853 127.86397812811207 188.5600364531469 Z" stroke-opacity="1" stroke-linecap="round" stroke-linejoin="round" stroke-miterlimit="10"/><text fill="rgb(0,0,255)" stroke="none" font-family="geogebra-sans-serif, sans-serif" font-size="16px" font-style="normal" font-weight="normal" text-decoration="normal" x="106" y="184" text-anchor="start" dominant-baseline="alphabetic" fill-opacity="1">D</text><text fill="none" stroke="rgb(255,255,255)" font-family="geogebra-sans-serif, sans-serif" font-size="16px" font-style="normal" font-weight="normal" text-decoration="normal" x="106" y="184" text-anchor="start" dominant-baseline="alphabetic" stroke-opacity="1" stroke-linejoin="bevel" stroke-miterlimit="10" stroke-width="3">D</text><text fill="rgb(0,0,255)" stroke="none" font-family="geogebra-sans-serif, sans-serif" font-size="16px" font-style="normal" font-weight="normal" text-decoration="normal" x="106" y="184" text-anchor="start" dominant-baseline="alphabetic" fill-opacity="1">D</text><path fill="rgb(0,0,255)" stroke="none" paint-order="stroke fill markers" d=" M 250.97698023102467 209.88490115512488 C 250.97698023102467 210.98947065478646 250.08154973068625 211.88490115512488 248.97698023102467 211.88490115512488 C 247.8724107313631 211.88490115512488 246.97698023102467 210.98947065478646 246.97698023102467 209.88490115512488 C 246.97698023102467 208.7803316554633 247.8724107313631 207.88490115512488 248.97698023102467 207.88490115512488 C 250.08154973068625 207.88490115512488 250.97698023102467 208.7803316554633 250.97698023102467 209.88490115512488 Z" fill-opacity="1"/><path fill="none" stroke="rgb(0,0,0)" paint-order="fill stroke markers" d=" M 250.97698023102467 209.88490115512488 C 250.97698023102467 210.98947065478646 250.08154973068625 211.88490115512488 248.97698023102467 211.88490115512488 C 247.8724107313631 211.88490115512488 246.97698023102467 210.98947065478646 246.97698023102467 209.88490115512488 C 246.97698023102467 208.7803316554633 247.8724107313631 207.88490115512488 248.97698023102467 207.88490115512488 C 250.08154973068625 207.88490115512488 250.97698023102467 208.7803316554633 250.97698023102467 209.88490115512488 Z" stroke-opacity="1" stroke-linecap="round" stroke-linejoin="round" stroke-miterlimit="10"/><text fill="rgb(0,0,255)" stroke="none" font-family="geogebra-sans-serif, sans-serif" font-size="16px" font-style="normal" font-weight="normal" text-decoration="normal" x="254" y="208" text-anchor="start" dominant-baseline="alphabetic" fill-opacity="1">E</text><text fill="none" stroke="rgb(255,255,255)" font-family="geogebra-sans-serif, sans-serif" font-size="16px" font-style="normal" font-weight="normal" text-decoration="normal" x="254" y="208" text-anchor="start" dominant-baseline="alphabetic" stroke-opacity="1" stroke-linejoin="bevel" stroke-miterlimit="10" stroke-width="3">E</text><text fill="rgb(0,0,255)" stroke="none" font-family="geogebra-sans-serif, sans-serif" font-size="16px" font-style="normal" font-weight="normal" text-decoration="normal" x="254" y="208" text-anchor="start" dominant-baseline="alphabetic" fill-opacity="1">E</text><path fill="rgb(0,0,255)" stroke="none" paint-order="stroke fill markers" d=" M 242.73264093451337 257.48123413698755 C 242.73264093451337 258.58580363664913 241.83721043417495 259.48123413698755 240.73264093451337 259.48123413698755 C 239.6280714348518 259.48123413698755 238.73264093451337 258.58580363664913 238.73264093451337 257.48123413698755 C 238.73264093451337 256.376664637326 239.6280714348518 255.48123413698755 240.73264093451337 255.48123413698755 C 241.83721043417495 255.48123413698755 242.73264093451337 256.376664637326 242.73264093451337 257.48123413698755 Z" fill-opacity="1"/><path fill="none" stroke="rgb(0,0,0)" paint-order="fill stroke markers" d=" M 242.73264093451337 257.48123413698755 C 242.73264093451337 258.58580363664913 241.83721043417495 259.48123413698755 240.73264093451337 259.48123413698755 C 239.6280714348518 259.48123413698755 238.73264093451337 258.58580363664913 238.73264093451337 257.48123413698755 C 238.73264093451337 256.376664637326 239.6280714348518 255.48123413698755 240.73264093451337 255.48123413698755 C 241.83721043417495 255.48123413698755 242.73264093451337 256.376664637326 242.73264093451337 257.48123413698755 Z" stroke-opacity="1" stroke-linecap="round" stroke-linejoin="round" stroke-miterlimit="10"/><text fill="rgb(0,0,255)" stroke="none" font-family="geogebra-sans-serif, sans-serif" font-size="16px" font-style="normal" font-weight="normal" text-decoration="normal" x="238" y="281" text-anchor="start" dominant-baseline="alphabetic" fill-opacity="1">K</text><text fill="none" stroke="rgb(255,255,255)" font-family="geogebra-sans-serif, sans-serif" font-size="16px" font-style="normal" font-weight="normal" text-decoration="normal" x="238" y="281" text-anchor="start" dominant-baseline="alphabetic" stroke-opacity="1" stroke-linejoin="bevel" stroke-miterlimit="10" stroke-width="3">K</text><text fill="rgb(0,0,255)" stroke="none" font-family="geogebra-sans-serif, sans-serif" font-size="16px" font-style="normal" font-weight="normal" text-decoration="normal" x="238" y="281" text-anchor="start" dominant-baseline="alphabetic" fill-opacity="1">K</text><path fill="rgb(0,0,255)" stroke="none" paint-order="stroke fill markers" d=" M 119.61963883160077 236.1563694350096 C 119.61963883160077 237.26093893467117 118.72420833126236 238.1563694350096 117.61963883160077 238.1563694350096 C 116.51506933193917 238.1563694350096 115.61963883160077 237.26093893467117 115.61963883160077 236.1563694350096 C 115.61963883160077 235.05179993534801 116.51506933193917 234.1563694350096 117.61963883160077 234.1563694350096 C 118.72420833126236 234.1563694350096 119.61963883160077 235.05179993534801 119.61963883160077 236.1563694350096 Z" fill-opacity="1"/><path fill="none" stroke="rgb(0,0,0)" paint-order="fill stroke markers" d=" M 119.61963883160077 236.1563694350096 C 119.61963883160077 237.26093893467117 118.72420833126236 238.1563694350096 117.61963883160077 238.1563694350096 C 116.51506933193917 238.1563694350096 115.61963883160077 237.26093893467117 115.61963883160077 236.1563694350096 C 115.61963883160077 235.05179993534801 116.51506933193917 234.1563694350096 117.61963883160077 234.1563694350096 C 118.72420833126236 234.1563694350096 119.61963883160077 235.05179993534801 119.61963883160077 236.1563694350096 Z" stroke-opacity="1" stroke-linecap="round" stroke-linejoin="round" stroke-miterlimit="10"/><text fill="rgb(0,0,255)" stroke="none" font-family="geogebra-sans-serif, sans-serif" font-size="16px" font-style="normal" font-weight="normal" text-decoration="normal" x="108" y="261" text-anchor="start" dominant-baseline="alphabetic" fill-opacity="1">L</text><text fill="none" stroke="rgb(255,255,255)" font-family="geogebra-sans-serif, sans-serif" font-size="16px" font-style="normal" font-weight="normal" text-decoration="normal" x="108" y="261" text-anchor="start" dominant-baseline="alphabetic" stroke-opacity="1" stroke-linejoin="bevel" stroke-miterlimit="10" stroke-width="3">L</text><text fill="rgb(0,0,255)" stroke="none" font-family="geogebra-sans-serif, sans-serif" font-size="16px" font-style="normal" font-weight="normal" text-decoration="normal" x="108" y="261" text-anchor="start" dominant-baseline="alphabetic" fill-opacity="1">L</text><path fill="rgb(0,0,255)" stroke="none" paint-order="stroke fill markers" d=" M 166.99999999999986 328.66068747318513 C 166.99999999999986 329.7652569728467 166.10456949966144 330.66068747318513 164.99999999999986 330.66068747318513 C 163.89543050033828 330.66068747318513 162.99999999999986 329.7652569728467 162.99999999999986 328.66068747318513 C 162.99999999999986 327.55611797352356 163.89543050033828 326.66068747318513 164.99999999999986 326.66068747318513 C 166.10456949966144 326.66068747318513 166.99999999999986 327.55611797352356 166.99999999999986 328.66068747318513 Z" fill-opacity="1"/><path fill="none" stroke="rgb(0,0,0)" paint-order="fill stroke markers" d=" M 166.99999999999986 328.66068747318513 C 166.99999999999986 329.7652569728467 166.10456949966144 330.66068747318513 164.99999999999986 330.66068747318513 C 163.89543050033828 330.66068747318513 162.99999999999986 329.7652569728467 162.99999999999986 328.66068747318513 C 162.99999999999986 327.55611797352356 163.89543050033828 326.66068747318513 164.99999999999986 326.66068747318513 C 166.10456949966144 326.66068747318513 166.99999999999986 327.55611797352356 166.99999999999986 328.66068747318513 Z" stroke-opacity="1" stroke-linecap="round" stroke-linejoin="round" stroke-miterlimit="10"/><text fill="rgb(0,0,255)" stroke="none" font-family="geogebra-sans-serif, sans-serif" font-size="16px" font-style="normal" font-weight="normal" text-decoration="normal" x="159" y="351" text-anchor="start" dominant-baseline="alphabetic" fill-opacity="1">P</text><text fill="none" stroke="rgb(255,255,255)" font-family="geogebra-sans-serif, sans-serif" font-size="16px" font-style="normal" font-weight="normal" text-decoration="normal" x="159" y="351" text-anchor="start" dominant-baseline="alphabetic" stroke-opacity="1" stroke-linejoin="bevel" stroke-miterlimit="10" stroke-width="3">P</text><text fill="rgb(0,0,255)" stroke="none" font-family="geogebra-sans-serif, sans-serif" font-size="16px" font-style="normal" font-weight="normal" text-decoration="normal" x="159" y="351" text-anchor="start" dominant-baseline="alphabetic" fill-opacity="1">P</text><path fill="rgb(0,0,255)" stroke="none" paint-order="stroke fill markers" d=" M 218.44957554275246 242.91139490193103 C 218.44957554275246 244.0159644015926 217.55414504241404 244.91139490193103 216.44957554275246 244.91139490193103 C 215.34500604309088 244.91139490193103 214.44957554275246 244.0159644015926 214.44957554275246 242.91139490193103 C 214.44957554275246 241.80682540226945 215.34500604309088 240.91139490193103 216.44957554275246 240.91139490193103 C 217.55414504241404 240.91139490193103 218.44957554275246 241.80682540226945 218.44957554275246 242.91139490193103 Z" fill-opacity="1"/><path fill="none" stroke="rgb(0,0,0)" paint-order="fill stroke markers" d=" M 218.44957554275246 242.91139490193103 C 218.44957554275246 244.0159644015926 217.55414504241404 244.91139490193103 216.44957554275246 244.91139490193103 C 215.34500604309088 244.91139490193103 214.44957554275246 244.0159644015926 214.44957554275246 242.91139490193103 C 214.44957554275246 241.80682540226945 215.34500604309088 240.91139490193103 216.44957554275246 240.91139490193103 C 217.55414504241404 240.91139490193103 218.44957554275246 241.80682540226945 218.44957554275246 242.91139490193103 Z" stroke-opacity="1" stroke-linecap="round" stroke-linejoin="round" stroke-miterlimit="10"/><text fill="rgb(0,0,255)" stroke="none" font-family="geogebra-sans-serif, sans-serif" font-size="16px" font-style="normal" font-weight="normal" text-decoration="normal" x="220" y="236" text-anchor="start" dominant-baseline="alphabetic" fill-opacity="1">N</text><text fill="none" stroke="rgb(255,255,255)" font-family="geogebra-sans-serif, sans-serif" font-size="16px" font-style="normal" font-weight="normal" text-decoration="normal" x="220" y="236" text-anchor="start" dominant-baseline="alphabetic" stroke-opacity="1" stroke-linejoin="bevel" stroke-miterlimit="10" stroke-width="3">N</text><text fill="rgb(0,0,255)" stroke="none" font-family="geogebra-sans-serif, sans-serif" font-size="16px" font-style="normal" font-weight="normal" text-decoration="normal" x="220" y="236" text-anchor="start" dominant-baseline="alphabetic" fill-opacity="1">N</text></g></g></svg>