<svg version="1.1" xmlns="http://www.w3.org/2000/svg" xmlns:xlink="http://www.w3.org/1999/xlink" width="331" height="366"><defs><clipPath id="wlHTsQWfCPBP"><path fill="none" stroke="none" d=" M 0 0 L 331 0 L 331 366 L 0 366 L 0 0 Z"/></clipPath></defs><g transform="scale(1,1)" clip-path="url(#wlHTsQWfCPBP)"><g><rect fill="rgb(255,255,255)" stroke="none" x="0" y="0" width="331" height="366" fill-opacity="1"/><path fill="rgb(153,51,255)" stroke="none" paint-order="stroke fill markers" fill-rule="evenodd" d=" M 121.36397812811252 190.5600364531462 L 178.79830953131338 225.02063529506665 L 210.5000000000006 41.99999999999983 Z" fill-opacity="0.047058823529411764"/><path fill="rgb(153,51,255)" stroke="none" paint-order="stroke fill markers" fill-rule="evenodd" d=" M 160.50000000000045 291.99999999999994 L 160.50000000000045 330.66068747318496 L 260.50000000000074 291.99999999999994 Z" fill-opacity="0.047058823529411764"/><path fill="none" stroke="rgb(0,153,255)" paint-order="fill stroke markers" d=" M 309.16068747318593 181.99999999999986 C 309.16068747318593 264.1030305908016 242.60303059080243 330.66068747318496 160.50000000000045 330.66068747318496 C 78.39696940919846 330.66068747318496 11.839312526814979 264.1030305908016 11.839312526814979 181.99999999999986 C 11.839312526814979 99.89696940919806 78.39696940919846 33.33931252681475 160.50000000000045 33.33931252681475 C 242.60303059080243 33.33931252681475 309.16068747318593 99.89696940919806 309.16068747318593 181.99999999999986 Z" stroke-opacity="0.6980392156862745" stroke-linejoin="round" stroke-miterlimit="10" stroke-dasharray="5,4"/><path fill="none" stroke="rgb(255,127,0)" paint-order="fill stroke markers" d=" M 245.7776742362468 225.02063529506665 C 245.7776742362468 262.0123169749562 215.789991211203 291.9999999999999 178.79830953131338 291.9999999999999 C 141.80662785142377 291.9999999999999 111.81894482637996 262.0123169749562 111.81894482637996 225.02063529506665 C 111.81894482637996 188.02895361517713 141.80662785142377 158.04127059013342 178.79830953131338 158.04127059013342 C 215.789991211203 158.04127059013342 245.7776742362468 188.02895361517713 245.7776742362468 225.02063529506665 Z" stroke-opacity="0.6980392156862745" stroke-linejoin="round" stroke-miterlimit="10" stroke-dasharray="5,4"/><path fill="rgb(0,204,0)" stroke="none" paint-order="stroke fill markers" d=" M 195.0651273371748 67.7247877713761 C 198.23748288601908 69.62820110068265 201.73454026646232 70.92842093323054 205.379830102202 71.55983525356089 L 210.5000000000006 41.99999999999983 Z" fill-opacity="0.09803921568627451"/><path fill="none" stroke="rgb(0,204,0)" paint-order="fill stroke markers" d=" M 195.0651273371748 67.7247877713761 C 198.23748288601908 69.62820110068265 201.73454026646232 70.92842093323054 205.379830102202 71.55983525356089 L 210.5000000000006 41.99999999999983 Z" stroke-opacity="0.6980392156862745" stroke-linecap="round" stroke-linejoin="round" stroke-miterlimit="10"/><path fill="none" stroke="rgb(0,204,0)" paint-order="fill stroke markers" d=" M 197.63760611431243 63.4373231428134 C 200.28123573834935 65.02350091723548 203.19545022205205 66.10701744435875 206.23319175183508 66.63319604463402" stroke-opacity="0.6980392156862745" stroke-linecap="round" stroke-linejoin="round" stroke-miterlimit="10"/><path fill="rgb(0,204,0)" stroke="none" paint-order="stroke fill markers" d=" M 205.379830102202 71.55983525356089 C 209.0251199379416 72.1912495738913 212.7557566941418 72.14296574272822 216.38348405414612 71.41742027072735 L 210.5000000000006 41.99999999999983 Z" fill-opacity="0.09803921568627451"/><path fill="none" stroke="rgb(0,204,0)" paint-order="fill stroke markers" d=" M 205.379830102202 71.55983525356089 C 209.0251199379416 72.1912495738913 212.7557566941418 72.14296574272822 216.38348405414612 71.41742027072735 L 210.5000000000006 41.99999999999983 Z" stroke-opacity="0.6980392156862745" stroke-linecap="round" stroke-linejoin="round" stroke-miterlimit="10"/><path fill="none" stroke="rgb(0,204,0)" paint-order="fill stroke markers" d=" M 206.23319175183508 66.63319604463402 C 209.2709332816181 67.1593746449094 212.37979724511825 67.11913811894016 215.4029033784552 66.51451689227275" stroke-opacity="0.6980392156862745" stroke-linecap="round" stroke-linejoin="round" stroke-miterlimit="10"/><path fill="rgb(255,0,0)" stroke="none" paint-order="stroke fill markers" fill-rule="evenodd" d=" M 160.50000000000045 291.99999999999994 L 149.89339828220295 291.99999999999994 L 149.89339828220224 302.6066017177981 L 160.50000000000045 302.6066017177974 L 160.50000000000045 291.99999999999994" fill-opacity="0.09803921568627451"/><path fill="none" stroke="rgb(255,0,0)" paint-order="fill stroke markers" d=" M 160.50000000000045 291.99999999999994 L 149.89339828220295 291.99999999999994 L 149.89339828220224 302.6066017177981 L 160.50000000000045 302.6066017177974 L 160.50000000000045 291.99999999999994" stroke-opacity="0.6980392156862745" stroke-linecap="round" stroke-linejoin="round" stroke-miterlimit="10" stroke-width="0.5"/><path fill="rgb(0,204,0)" stroke="none" paint-order="stroke fill markers" d=" M 230.50000000000077 291.99999999999994 C 230.50000000000077 295.6995705197312 231.18429187044435 299.3672300692407 232.5183447053586 302.81790030328546 L 260.50000000000074 291.99999999999994 Z" fill-opacity="0.09803921568627451"/><path fill="none" stroke="rgb(0,204,0)" paint-order="fill stroke markers" d=" M 230.50000000000077 291.99999999999994 C 230.50000000000077 295.6995705197312 231.18429187044435 299.3672300692407 232.5183447053586 302.81790030328546 L 260.50000000000074 291.99999999999994 Z" stroke-opacity="0.6980392156862745" stroke-linecap="round" stroke-linejoin="round" stroke-miterlimit="10"/><path fill="none" stroke="rgb(0,204,0)" paint-order="fill stroke markers" d=" M 235.50000000000077 291.99999999999994 C 235.50000000000077 295.08297543310937 236.07024322537038 298.1393583910339 237.18195392113228 301.0149169194045" stroke-opacity="0.6980392156862745" stroke-linecap="round" stroke-linejoin="round" stroke-miterlimit="10"/><path fill="none" stroke="rgb(0,100,0)" paint-order="fill stroke markers" d=" M 152.3963747291368 203.93161770839998 L 147.7659129302891 211.64905403981288" stroke-opacity="0.6980392156862745" stroke-linecap="round" stroke-linejoin="round" stroke-miterlimit="10"/><path fill="none" stroke="rgb(0,100,0)" paint-order="fill stroke markers" d=" M 121.36397812811252 190.5600364531462 L 178.79830953131338 225.02063529506665" stroke-opacity="0.6980392156862745" stroke-linecap="round" stroke-linejoin="round" stroke-miterlimit="10"/><path fill="none" stroke="rgb(0,100,0)" paint-order="fill stroke markers" d=" M 209.83070613233772 238.39221655032046 L 205.20024433348996 246.10965288173335" stroke-opacity="0.6980392156862745" stroke-linecap="round" stroke-linejoin="round" stroke-miterlimit="10"/><path fill="none" stroke="rgb(0,100,0)" paint-order="fill stroke markers" d=" M 178.79830953131338 225.02063529506665 L 236.23264093451428 259.48123413698715" stroke-opacity="0.6980392156862745" stroke-linecap="round" stroke-linejoin="round" stroke-miterlimit="10"/><path fill="none" stroke="rgb(0,100,0)" paint-order="fill stroke markers" d=" M 212.5201674892913 222.86538126570457 L 210.75512227304765 214.0401551844863" stroke-opacity="0.6980392156862745" stroke-linecap="round" stroke-linejoin="round" stroke-miterlimit="10"/><path fill="none" stroke="rgb(0,100,0)" paint-order="fill stroke markers" d=" M 244.47698023102558 211.88490115512425 L 178.79830953131338 225.02063529506665" stroke-opacity="0.6980392156862745" stroke-linejoin="round" stroke-miterlimit="10" stroke-dasharray="9,8"/><path fill="none" stroke="rgb(0,100,0)" paint-order="fill stroke markers" d=" M 146.8414967895791 236.001115405647 L 145.07645157333545 227.17588932442874" stroke-opacity="0.6980392156862745" stroke-linecap="round" stroke-linejoin="round" stroke-miterlimit="10"/><path fill="none" stroke="rgb(0,100,0)" paint-order="fill stroke markers" d=" M 178.79830953131338 225.02063529506665 L 113.11963883160118 238.15636943500908" stroke-opacity="0.6980392156862745" stroke-linejoin="round" stroke-miterlimit="10" stroke-dasharray="9,8"/><path fill="none" stroke="rgb(0,100,0)" paint-order="fill stroke markers" d=" M 121.36397812811252 190.5600364531462 L 60.500000000000156 291.99999999999994" stroke-opacity="0.6980392156862745" stroke-linecap="round" stroke-linejoin="round" stroke-miterlimit="10"/><path fill="none" stroke="rgb(0,100,0)" paint-order="fill stroke markers" d=" M 244.47698023102558 211.88490115512425 L 260.50000000000074 291.99999999999994" stroke-opacity="0.6980392156862745" stroke-linecap="round" stroke-linejoin="round" stroke-miterlimit="10"/><path fill="none" stroke="rgb(255,85,0)" paint-order="fill stroke markers" d=" M 223.4190803113958 129.540989368143 L 232.24430639261405 127.77594415189932" stroke-opacity="0.6980392156862745" stroke-linecap="round" stroke-linejoin="round" stroke-miterlimit="10"/><path fill="none" stroke="rgb(255,85,0)" paint-order="fill stroke markers" d=" M 222.73267383841213 126.10895700322476 L 231.5578999196304 124.3439117869811" stroke-opacity="0.6980392156862745" stroke-linecap="round" stroke-linejoin="round" stroke-miterlimit="10"/><path fill="none" stroke="rgb(255,85,0)" paint-order="fill stroke markers" d=" M 244.47698023102558 211.88490115512425 L 210.5000000000006 41.99999999999983" stroke-opacity="0.6980392156862745" stroke-linecap="round" stroke-linejoin="round" stroke-miterlimit="10"/><path fill="none" stroke="rgb(255,85,0)" paint-order="fill stroke markers" d=" M 170.69107480176118 117.09463650599994 L 162.97363847034828 112.46417470715218" stroke-opacity="0.6980392156862745" stroke-linecap="round" stroke-linejoin="round" stroke-miterlimit="10"/><path fill="none" stroke="rgb(255,85,0)" paint-order="fill stroke markers" d=" M 168.89033965776483 120.09586174599386 L 161.17290332635193 115.4653999471461" stroke-opacity="0.6980392156862745" stroke-linecap="round" stroke-linejoin="round" stroke-miterlimit="10"/><path fill="none" stroke="rgb(255,85,0)" paint-order="fill stroke markers" d=" M 210.5000000000006 41.99999999999983 L 121.36397812811252 190.5600364531462" stroke-opacity="0.6980392156862745" stroke-linecap="round" stroke-linejoin="round" stroke-miterlimit="10"/><path fill="none" stroke="rgb(0,100,0)" paint-order="fill stroke markers" d=" M 160.50000000000045 330.66068747318496 L 160.50000000000045 291.99999999999994" stroke-opacity="0.6980392156862745" stroke-linecap="round" stroke-linejoin="round" stroke-miterlimit="10"/><path fill="none" stroke="rgb(0,100,0)" paint-order="fill stroke markers" d=" M 160.50000000000045 330.66068747318496 L 260.50000000000074 291.99999999999994" stroke-opacity="0.6980392156862745" stroke-linecap="round" stroke-linejoin="round" stroke-miterlimit="10"/><path fill="none" stroke="rgb(255,85,0)" paint-order="fill stroke markers" d=" M 107.00000000000031 287.49999999999994 L 107.00000000000031 296.49999999999994" stroke-opacity="0.6980392156862745" stroke-linecap="round" stroke-linejoin="round" stroke-miterlimit="10"/><path fill="none" stroke="rgb(255,85,0)" paint-order="fill stroke markers" d=" M 110.50000000000031 287.49999999999994 L 110.50000000000031 296.49999999999994" stroke-opacity="0.6980392156862745" stroke-linecap="round" stroke-linejoin="round" stroke-miterlimit="10"/><path fill="none" stroke="rgb(255,85,0)" paint-order="fill stroke markers" d=" M 114.00000000000031 287.49999999999994 L 114.00000000000031 296.49999999999994" stroke-opacity="0.6980392156862745" stroke-linecap="round" stroke-linejoin="round" stroke-miterlimit="10"/><path fill="none" stroke="rgb(255,85,0)" paint-order="fill stroke markers" d=" M 60.500000000000156 291.99999999999994 L 160.50000000000045 291.99999999999994" stroke-opacity="0.6980392156862745" stroke-linecap="round" stroke-linejoin="round" stroke-miterlimit="10"/><path fill="none" stroke="rgb(255,85,0)" paint-order="fill stroke markers" d=" M 207.0000000000006 287.49999999999994 L 207.0000000000006 296.49999999999994" stroke-opacity="0.6980392156862745" stroke-linecap="round" stroke-linejoin="round" stroke-miterlimit="10"/><path fill="none" stroke="rgb(255,85,0)" paint-order="fill stroke markers" d=" M 210.5000000000006 287.49999999999994 L 210.5000000000006 296.49999999999994" stroke-opacity="0.6980392156862745" stroke-linecap="round" stroke-linejoin="round" stroke-miterlimit="10"/><path fill="none" stroke="rgb(255,85,0)" paint-order="fill stroke markers" d=" M 214.0000000000006 287.49999999999994 L 214.0000000000006 296.49999999999994" stroke-opacity="0.6980392156862745" stroke-linecap="round" stroke-linejoin="round" stroke-miterlimit="10"/><path fill="none" stroke="rgb(255,85,0)" paint-order="fill stroke markers" d=" M 160.50000000000045 291.99999999999994 L 260.50000000000074 291.99999999999994" stroke-opacity="0.6980392156862745" stroke-linecap="round" stroke-linejoin="round" stroke-miterlimit="10"/><path fill="none" stroke="rgb(0,100,0)" paint-order="fill stroke markers" d=" M 210.5000000000006 41.99999999999983 L 178.79830953131338 225.02063529506665" stroke-opacity="0.6980392156862745" stroke-linecap="round" stroke-linejoin="round" stroke-miterlimit="10"/><path fill="none" stroke="rgb(0,100,0)" paint-order="fill stroke markers" d=" M 178.79830953131338 225.02063529506665 L 160.50000000000045 330.66068747318496" stroke-opacity="0.6980392156862745" stroke-linecap="round" stroke-linejoin="round" stroke-miterlimit="10"/><path fill="rgb(0,0,255)" stroke="none" paint-order="stroke fill markers" d=" M 62.500000000000156 291.99999999999994 C 62.500000000000156 293.1045694996615 61.60456949966174 293.99999999999994 60.500000000000156 293.99999999999994 C 59.39543050033857 293.99999999999994 58.500000000000156 293.1045694996615 58.500000000000156 291.99999999999994 C 58.500000000000156 290.89543050033836 59.39543050033857 289.99999999999994 60.500000000000156 289.99999999999994 C 61.60456949966174 289.99999999999994 62.500000000000156 290.89543050033836 62.500000000000156 291.99999999999994 Z" fill-opacity="1"/><path fill="none" stroke="rgb(0,0,0)" paint-order="fill stroke markers" d=" M 62.500000000000156 291.99999999999994 C 62.500000000000156 293.1045694996615 61.60456949966174 293.99999999999994 60.500000000000156 293.99999999999994 C 59.39543050033857 293.99999999999994 58.500000000000156 293.1045694996615 58.500000000000156 291.99999999999994 C 58.500000000000156 290.89543050033836 59.39543050033857 289.99999999999994 60.500000000000156 289.99999999999994 C 61.60456949966174 289.99999999999994 62.500000000000156 290.89543050033836 62.500000000000156 291.99999999999994 Z" stroke-opacity="1" stroke-linecap="round" stroke-linejoin="round" stroke-miterlimit="10"/><text fill="rgb(0,0,255)" stroke="none" font-family="geogebra-sans-serif, sans-serif" font-size="16px" font-style="normal" font-weight="normal" text-decoration="normal" x="36" y="301" text-anchor="start" dominant-baseline="alphabetic" fill-opacity="1">A</text><text fill="none" stroke="rgb(255,255,255)" font-family="geogebra-sans-serif, sans-serif" font-size="16px" font-style="normal" font-weight="normal" text-decoration="normal" x="36" y="301" text-anchor="start" dominant-baseline="alphabetic" stroke-opacity="1" stroke-linejoin="bevel" stroke-miterlimit="10" stroke-width="3">A</text><text fill="rgb(0,0,255)" stroke="none" font-family="geogebra-sans-serif, sans-serif" font-size="16px" font-style="normal" font-weight="normal" text-decoration="normal" x="36" y="301" text-anchor="start" dominant-baseline="alphabetic" fill-opacity="1">A</text><path fill="rgb(0,0,255)" stroke="none" paint-order="stroke fill markers" d=" M 212.5000000000006 41.99999999999983 C 212.5000000000006 43.104569499661416 211.60456949966218 43.99999999999983 210.5000000000006 43.99999999999983 C 209.39543050033902 43.99999999999983 208.5000000000006 43.104569499661416 208.5000000000006 41.99999999999983 C 208.5000000000006 40.89543050033824 209.39543050033902 39.99999999999983 210.5000000000006 39.99999999999983 C 211.60456949966218 39.99999999999983 212.5000000000006 40.89543050033824 212.5000000000006 41.99999999999983 Z" fill-opacity="1"/><path fill="none" stroke="rgb(0,0,0)" paint-order="fill stroke markers" d=" M 212.5000000000006 41.99999999999983 C 212.5000000000006 43.104569499661416 211.60456949966218 43.99999999999983 210.5000000000006 43.99999999999983 C 209.39543050033902 43.99999999999983 208.5000000000006 43.104569499661416 208.5000000000006 41.99999999999983 C 208.5000000000006 40.89543050033824 209.39543050033902 39.99999999999983 210.5000000000006 39.99999999999983 C 211.60456949966218 39.99999999999983 212.5000000000006 40.89543050033824 212.5000000000006 41.99999999999983 Z" stroke-opacity="1" stroke-linecap="round" stroke-linejoin="round" stroke-miterlimit="10"/><text fill="rgb(0,0,255)" stroke="none" font-family="geogebra-sans-serif, sans-serif" font-size="16px" font-style="normal" font-weight="normal" text-decoration="normal" x="216" y="32" text-anchor="start" dominant-baseline="alphabetic" fill-opacity="1">B</text><text fill="none" stroke="rgb(255,255,255)" font-family="geogebra-sans-serif, sans-serif" font-size="16px" font-style="normal" font-weight="normal" text-decoration="normal" x="216" y="32" text-anchor="start" dominant-baseline="alphabetic" stroke-opacity="1" stroke-linejoin="bevel" stroke-miterlimit="10" stroke-width="3">B</text><text fill="rgb(0,0,255)" stroke="none" font-family="geogebra-sans-serif, sans-serif" font-size="16px" font-style="normal" font-weight="normal" text-decoration="normal" x="216" y="32" text-anchor="start" dominant-baseline="alphabetic" fill-opacity="1">B</text><path fill="rgb(0,0,255)" stroke="none" paint-order="stroke fill markers" d=" M 262.50000000000074 291.99999999999994 C 262.50000000000074 293.1045694996615 261.6045694996623 293.99999999999994 260.50000000000074 293.99999999999994 C 259.39543050033916 293.99999999999994 258.50000000000074 293.1045694996615 258.50000000000074 291.99999999999994 C 258.50000000000074 290.89543050033836 259.39543050033916 289.99999999999994 260.50000000000074 289.99999999999994 C 261.6045694996623 289.99999999999994 262.50000000000074 290.89543050033836 262.50000000000074 291.99999999999994 Z" fill-opacity="1"/><path fill="none" stroke="rgb(0,0,0)" paint-order="fill stroke markers" d=" M 262.50000000000074 291.99999999999994 C 262.50000000000074 293.1045694996615 261.6045694996623 293.99999999999994 260.50000000000074 293.99999999999994 C 259.39543050033916 293.99999999999994 258.50000000000074 293.1045694996615 258.50000000000074 291.99999999999994 C 258.50000000000074 290.89543050033836 259.39543050033916 289.99999999999994 260.50000000000074 289.99999999999994 C 261.6045694996623 289.99999999999994 262.50000000000074 290.89543050033836 262.50000000000074 291.99999999999994 Z" stroke-opacity="1" stroke-linecap="round" stroke-linejoin="round" stroke-miterlimit="10"/><text fill="rgb(0,0,255)" stroke="none" font-family="geogebra-sans-serif, sans-serif" font-size="16px" font-style="normal" font-weight="normal" text-decoration="normal" x="277" y="306" text-anchor="start" dominant-baseline="alphabetic" fill-opacity="1">C</text><text fill="none" stroke="rgb(255,255,255)" font-family="geogebra-sans-serif, sans-serif" font-size="16px" font-style="normal" font-weight="normal" text-decoration="normal" x="277" y="306" text-anchor="start" dominant-baseline="alphabetic" stroke-opacity="1" stroke-linejoin="bevel" stroke-miterlimit="10" stroke-width="3">C</text><text fill="rgb(0,0,255)" stroke="none" font-family="geogebra-sans-serif, sans-serif" font-size="16px" font-style="normal" font-weight="normal" text-decoration="normal" x="277" y="306" text-anchor="start" dominant-baseline="alphabetic" fill-opacity="1">C</text><path fill="rgb(0,0,255)" stroke="none" paint-order="stroke fill markers" d=" M 180.79830953131338 225.02063529506665 C 180.79830953131338 226.12520479472823 179.90287903097496 227.02063529506665 178.79830953131338 227.02063529506665 C 177.6937400316518 227.02063529506665 176.79830953131338 226.12520479472823 176.79830953131338 225.02063529506665 C 176.79830953131338 223.91606579540507 177.6937400316518 223.02063529506665 178.79830953131338 223.02063529506665 C 179.90287903097496 223.02063529506665 180.79830953131338 223.91606579540507 180.79830953131338 225.02063529506665 Z" fill-opacity="1"/><path fill="none" stroke="rgb(0,0,0)" paint-order="fill stroke markers" d=" M 180.79830953131338 225.02063529506665 C 180.79830953131338 226.12520479472823 179.90287903097496 227.02063529506665 178.79830953131338 227.02063529506665 C 177.6937400316518 227.02063529506665 176.79830953131338 226.12520479472823 176.79830953131338 225.02063529506665 C 176.79830953131338 223.91606579540507 177.6937400316518 223.02063529506665 178.79830953131338 223.02063529506665 C 179.90287903097496 223.02063529506665 180.79830953131338 223.91606579540507 180.79830953131338 225.02063529506665 Z" stroke-opacity="1" stroke-linecap="round" stroke-linejoin="round" stroke-miterlimit="10"/><text fill="rgb(0,0,255)" stroke="none" font-family="geogebra-sans-serif, sans-serif" font-size="16px" font-style="normal" font-weight="normal" text-decoration="normal" x="163" y="246" text-anchor="start" dominant-baseline="alphabetic" fill-opacity="1">I</text><text fill="none" stroke="rgb(255,255,255)" font-family="geogebra-sans-serif, sans-serif" font-size="16px" font-style="normal" font-weight="normal" text-decoration="normal" x="163" y="246" text-anchor="start" dominant-baseline="alphabetic" stroke-opacity="1" stroke-linejoin="bevel" stroke-miterlimit="10" stroke-width="3">I</text><text fill="rgb(0,0,255)" stroke="none" font-family="geogebra-sans-serif, sans-serif" font-size="16px" font-style="normal" font-weight="normal" text-decoration="normal" x="163" y="246" text-anchor="start" dominant-baseline="alphabetic" fill-opacity="1">I</text><path fill="rgb(0,0,255)" stroke="none" paint-order="stroke fill markers" d=" M 123.36397812811252 190.5600364531462 C 123.36397812811252 191.6646059528078 122.46854762777411 192.5600364531462 121.36397812811252 192.5600364531462 C 120.25940862845093 192.5600364531462 119.36397812811252 191.6646059528078 119.36397812811252 190.5600364531462 C 119.36397812811252 189.45546695348463 120.25940862845093 188.5600364531462 121.36397812811252 188.5600364531462 C 122.46854762777411 188.5600364531462 123.36397812811252 189.45546695348463 123.36397812811252 190.5600364531462 Z" fill-opacity="1"/><path fill="none" stroke="rgb(0,0,0)" paint-order="fill stroke markers" d=" M 123.36397812811252 190.5600364531462 C 123.36397812811252 191.6646059528078 122.46854762777411 192.5600364531462 121.36397812811252 192.5600364531462 C 120.25940862845093 192.5600364531462 119.36397812811252 191.6646059528078 119.36397812811252 190.5600364531462 C 119.36397812811252 189.45546695348463 120.25940862845093 188.5600364531462 121.36397812811252 188.5600364531462 C 122.46854762777411 188.5600364531462 123.36397812811252 189.45546695348463 123.36397812811252 190.5600364531462 Z" stroke-opacity="1" stroke-linecap="round" stroke-linejoin="round" stroke-miterlimit="10"/><text fill="rgb(0,0,255)" stroke="none" font-family="geogebra-sans-serif, sans-serif" font-size="16px" font-style="normal" font-weight="normal" text-decoration="normal" x="101" y="186" text-anchor="start" dominant-baseline="alphabetic" fill-opacity="1">D</text><text fill="none" stroke="rgb(255,255,255)" font-family="geogebra-sans-serif, sans-serif" font-size="16px" font-style="normal" font-weight="normal" text-decoration="normal" x="101" y="186" text-anchor="start" dominant-baseline="alphabetic" stroke-opacity="1" stroke-linejoin="bevel" stroke-miterlimit="10" stroke-width="3">D</text><text fill="rgb(0,0,255)" stroke="none" font-family="geogebra-sans-serif, sans-serif" font-size="16px" font-style="normal" font-weight="normal" text-decoration="normal" x="101" y="186" text-anchor="start" dominant-baseline="alphabetic" fill-opacity="1">D</text><path fill="rgb(0,0,255)" stroke="none" paint-order="stroke fill markers" d=" M 246.47698023102558 211.88490115512425 C 246.47698023102558 212.98947065478583 245.58154973068716 213.88490115512425 244.47698023102558 213.88490115512425 C 243.372410731364 213.88490115512425 242.47698023102558 212.98947065478583 242.47698023102558 211.88490115512425 C 242.47698023102558 210.78033165546267 243.372410731364 209.88490115512425 244.47698023102558 209.88490115512425 C 245.58154973068716 209.88490115512425 246.47698023102558 210.78033165546267 246.47698023102558 211.88490115512425 Z" fill-opacity="1"/><path fill="none" stroke="rgb(0,0,0)" paint-order="fill stroke markers" d=" M 246.47698023102558 211.88490115512425 C 246.47698023102558 212.98947065478583 245.58154973068716 213.88490115512425 244.47698023102558 213.88490115512425 C 243.372410731364 213.88490115512425 242.47698023102558 212.98947065478583 242.47698023102558 211.88490115512425 C 242.47698023102558 210.78033165546267 243.372410731364 209.88490115512425 244.47698023102558 209.88490115512425 C 245.58154973068716 209.88490115512425 246.47698023102558 210.78033165546267 246.47698023102558 211.88490115512425 Z" stroke-opacity="1" stroke-linecap="round" stroke-linejoin="round" stroke-miterlimit="10"/><text fill="rgb(0,0,255)" stroke="none" font-family="geogebra-sans-serif, sans-serif" font-size="16px" font-style="normal" font-weight="normal" text-decoration="normal" x="248" y="208" text-anchor="start" dominant-baseline="alphabetic" fill-opacity="1">E</text><text fill="none" stroke="rgb(255,255,255)" font-family="geogebra-sans-serif, sans-serif" font-size="16px" font-style="normal" font-weight="normal" text-decoration="normal" x="248" y="208" text-anchor="start" dominant-baseline="alphabetic" stroke-opacity="1" stroke-linejoin="bevel" stroke-miterlimit="10" stroke-width="3">E</text><text fill="rgb(0,0,255)" stroke="none" font-family="geogebra-sans-serif, sans-serif" font-size="16px" font-style="normal" font-weight="normal" text-decoration="normal" x="248" y="208" text-anchor="start" dominant-baseline="alphabetic" fill-opacity="1">E</text><path fill="rgb(0,0,255)" stroke="none" paint-order="stroke fill markers" d=" M 238.23264093451428 259.48123413698715 C 238.23264093451428 260.58580363664873 237.33721043417586 261.48123413698715 236.23264093451428 261.48123413698715 C 235.1280714348527 261.48123413698715 234.23264093451428 260.58580363664873 234.23264093451428 259.48123413698715 C 234.23264093451428 258.3766646373256 235.1280714348527 257.48123413698715 236.23264093451428 257.48123413698715 C 237.33721043417586 257.48123413698715 238.23264093451428 258.3766646373256 238.23264093451428 259.48123413698715 Z" fill-opacity="1"/><path fill="none" stroke="rgb(0,0,0)" paint-order="fill stroke markers" d=" M 238.23264093451428 259.48123413698715 C 238.23264093451428 260.58580363664873 237.33721043417586 261.48123413698715 236.23264093451428 261.48123413698715 C 235.1280714348527 261.48123413698715 234.23264093451428 260.58580363664873 234.23264093451428 259.48123413698715 C 234.23264093451428 258.3766646373256 235.1280714348527 257.48123413698715 236.23264093451428 257.48123413698715 C 237.33721043417586 257.48123413698715 238.23264093451428 258.3766646373256 238.23264093451428 259.48123413698715 Z" stroke-opacity="1" stroke-linecap="round" stroke-linejoin="round" stroke-miterlimit="10"/><text fill="rgb(0,0,255)" stroke="none" font-family="geogebra-sans-serif, sans-serif" font-size="16px" font-style="normal" font-weight="normal" text-decoration="normal" x="214" y="269" text-anchor="start" dominant-baseline="alphabetic" fill-opacity="1">K</text><text fill="none" stroke="rgb(255,255,255)" font-family="geogebra-sans-serif, sans-serif" font-size="16px" font-style="normal" font-weight="normal" text-decoration="normal" x="214" y="269" text-anchor="start" dominant-baseline="alphabetic" stroke-opacity="1" stroke-linejoin="bevel" stroke-miterlimit="10" stroke-width="3">K</text><text fill="rgb(0,0,255)" stroke="none" font-family="geogebra-sans-serif, sans-serif" font-size="16px" font-style="normal" font-weight="normal" text-decoration="normal" x="214" y="269" text-anchor="start" dominant-baseline="alphabetic" fill-opacity="1">K</text><path fill="rgb(0,0,255)" stroke="none" paint-order="stroke fill markers" d=" M 115.11963883160118 238.15636943500908 C 115.11963883160118 239.26093893467066 114.22420833126276 240.15636943500908 113.11963883160118 240.15636943500908 C 112.01506933193959 240.15636943500908 111.11963883160118 239.26093893467066 111.11963883160118 238.15636943500908 C 111.11963883160118 237.0517999353475 112.01506933193959 236.15636943500908 113.11963883160118 236.15636943500908 C 114.22420833126276 236.15636943500908 115.11963883160118 237.0517999353475 115.11963883160118 238.15636943500908 Z" fill-opacity="1"/><path fill="none" stroke="rgb(0,0,0)" paint-order="fill stroke markers" d=" M 115.11963883160118 238.15636943500908 C 115.11963883160118 239.26093893467066 114.22420833126276 240.15636943500908 113.11963883160118 240.15636943500908 C 112.01506933193959 240.15636943500908 111.11963883160118 239.26093893467066 111.11963883160118 238.15636943500908 C 111.11963883160118 237.0517999353475 112.01506933193959 236.15636943500908 113.11963883160118 236.15636943500908 C 114.22420833126276 236.15636943500908 115.11963883160118 237.0517999353475 115.11963883160118 238.15636943500908 Z" stroke-opacity="1" stroke-linecap="round" stroke-linejoin="round" stroke-miterlimit="10"/><text fill="rgb(0,0,255)" stroke="none" font-family="geogebra-sans-serif, sans-serif" font-size="16px" font-style="normal" font-weight="normal" text-decoration="normal" x="104" y="261" text-anchor="start" dominant-baseline="alphabetic" fill-opacity="1">L</text><text fill="none" stroke="rgb(255,255,255)" font-family="geogebra-sans-serif, sans-serif" font-size="16px" font-style="normal" font-weight="normal" text-decoration="normal" x="104" y="261" text-anchor="start" dominant-baseline="alphabetic" stroke-opacity="1" stroke-linejoin="bevel" stroke-miterlimit="10" stroke-width="3">L</text><text fill="rgb(0,0,255)" stroke="none" font-family="geogebra-sans-serif, sans-serif" font-size="16px" font-style="normal" font-weight="normal" text-decoration="normal" x="104" y="261" text-anchor="start" dominant-baseline="alphabetic" fill-opacity="1">L</text><path fill="rgb(0,0,255)" stroke="none" paint-order="stroke fill markers" d=" M 162.50000000000045 330.66068747318496 C 162.50000000000045 331.76525697284654 161.60456949966203 332.66068747318496 160.50000000000045 332.66068747318496 C 159.39543050033888 332.66068747318496 158.50000000000045 331.76525697284654 158.50000000000045 330.66068747318496 C 158.50000000000045 329.5561179735234 159.39543050033888 328.66068747318496 160.50000000000045 328.66068747318496 C 161.60456949966203 328.66068747318496 162.50000000000045 329.5561179735234 162.50000000000045 330.66068747318496 Z" fill-opacity="1"/><path fill="none" stroke="rgb(0,0,0)" paint-order="fill stroke markers" d=" M 162.50000000000045 330.66068747318496 C 162.50000000000045 331.76525697284654 161.60456949966203 332.66068747318496 160.50000000000045 332.66068747318496 C 159.39543050033888 332.66068747318496 158.50000000000045 331.76525697284654 158.50000000000045 330.66068747318496 C 158.50000000000045 329.5561179735234 159.39543050033888 328.66068747318496 160.50000000000045 328.66068747318496 C 161.60456949966203 328.66068747318496 162.50000000000045 329.5561179735234 162.50000000000045 330.66068747318496 Z" stroke-opacity="1" stroke-linecap="round" stroke-linejoin="round" stroke-miterlimit="10"/><text fill="rgb(0,0,255)" stroke="none" font-family="geogebra-sans-serif, sans-serif" font-size="16px" font-style="normal" font-weight="normal" text-decoration="normal" x="155" y="353" text-anchor="start" dominant-baseline="alphabetic" fill-opacity="1">P</text><text fill="none" stroke="rgb(255,255,255)" font-family="geogebra-sans-serif, sans-serif" font-size="16px" font-style="normal" font-weight="normal" text-decoration="normal" x="155" y="353" text-anchor="start" dominant-baseline="alphabetic" stroke-opacity="1" stroke-linejoin="bevel" stroke-miterlimit="10" stroke-width="3">P</text><text fill="rgb(0,0,255)" stroke="none" font-family="geogebra-sans-serif, sans-serif" font-size="16px" font-style="normal" font-weight="normal" text-decoration="normal" x="155" y="353" text-anchor="start" dominant-baseline="alphabetic" fill-opacity="1">P</text><path fill="rgb(0,0,255)" stroke="none" paint-order="stroke fill markers" d=" M 162.50000000000045 291.99999999999994 C 162.50000000000045 293.1045694996615 161.60456949966203 293.99999999999994 160.50000000000045 293.99999999999994 C 159.39543050033888 293.99999999999994 158.50000000000045 293.1045694996615 158.50000000000045 291.99999999999994 C 158.50000000000045 290.89543050033836 159.39543050033888 289.99999999999994 160.50000000000045 289.99999999999994 C 161.60456949966203 289.99999999999994 162.50000000000045 290.89543050033836 162.50000000000045 291.99999999999994 Z" fill-opacity="1"/><path fill="none" stroke="rgb(0,0,0)" paint-order="fill stroke markers" d=" M 162.50000000000045 291.99999999999994 C 162.50000000000045 293.1045694996615 161.60456949966203 293.99999999999994 160.50000000000045 293.99999999999994 C 159.39543050033888 293.99999999999994 158.50000000000045 293.1045694996615 158.50000000000045 291.99999999999994 C 158.50000000000045 290.89543050033836 159.39543050033888 289.99999999999994 160.50000000000045 289.99999999999994 C 161.60456949966203 289.99999999999994 162.50000000000045 290.89543050033836 162.50000000000045 291.99999999999994 Z" stroke-opacity="1" stroke-linecap="round" stroke-linejoin="round" stroke-miterlimit="10"/><text fill="rgb(0,0,255)" stroke="none" font-family="geogebra-sans-serif, sans-serif" font-size="16px" font-style="normal" font-weight="normal" text-decoration="normal" x="131" y="315" text-anchor="start" dominant-baseline="alphabetic" fill-opacity="1">M</text><text fill="none" stroke="rgb(255,255,255)" font-family="geogebra-sans-serif, sans-serif" font-size="16px" font-style="normal" font-weight="normal" text-decoration="normal" x="131" y="315" text-anchor="start" dominant-baseline="alphabetic" stroke-opacity="1" stroke-linejoin="bevel" stroke-miterlimit="10" stroke-width="3">M</text><text fill="rgb(0,0,255)" stroke="none" font-family="geogebra-sans-serif, sans-serif" font-size="16px" font-style="normal" font-weight="normal" text-decoration="normal" x="131" y="315" text-anchor="start" dominant-baseline="alphabetic" fill-opacity="1">M</text></g></g></svg>