<svg version="1.1" xmlns="http://www.w3.org/2000/svg" xmlns:xlink="http://www.w3.org/1999/xlink" width="254" height="267"><defs><clipPath id="qiefWeNTsKua"><path fill="none" stroke="none" d=" M 0 0 L 254 0 L 254 267 L 0 267 L 0 0 Z"/></clipPath></defs><g transform="scale(1,1)" clip-path="url(#qiefWeNTsKua)"><g><rect fill="rgb(255,255,255)" stroke="none" x="0" y="0" width="254" height="267" fill-opacity="1"/><path fill="rgb(255,85,0)" stroke="none" paint-order="stroke fill markers" fill-rule="evenodd" d=" M 78.7173828616894 115.75022212302724 L 31.047418529739346 191.85573734573475 L 124.8936590690724 236.68173635682433 Z" fill-opacity="0.047058823529411764"/><path fill="rgb(255,85,0)" stroke="none" paint-order="stroke fill markers" fill-rule="evenodd" d=" M 92.85952619754127 152.78722355716462 L 124.8936590690724 236.68173635682433 L 217.2044805174233 188.77349808573723 Z" fill-opacity="0.047058823529411764"/><path fill="none" stroke="rgb(255,85,0)" paint-order="fill stroke markers" d=" M 31.047418529739346 191.85573734573478 C 53.56642859702062 220.69105511481462 88.31204475164441 237.28742537361126 124.89365906907241 236.6817363568243" stroke-opacity="0.6980392156862745" stroke-linecap="round" stroke-linejoin="round" stroke-miterlimit="10"/><path fill="none" stroke="rgb(153,51,255)" paint-order="fill stroke markers" d=" M 124.89365906907231 236.6817363568243 C 161.47527338650036 236.0760473400374 195.65241623771686 218.33850934123205 217.20448051742324 188.77349808573723" stroke-opacity="0.6980392156862745" stroke-linecap="round" stroke-linejoin="round" stroke-miterlimit="10"/><path fill="rgb(255,0,255)" stroke="none" paint-order="stroke fill markers" d=" M 44.73803768537744 51.76088827481958 C 50.98259799184985 52.37113124604441 57.15160337489396 50.01556910579403 61.400224952088365 45.39862806232178 L 46.68324999015825 31.855709323367535 Z" fill-opacity="0.09803921568627451"/><path fill="none" stroke="rgb(255,0,255)" paint-order="fill stroke markers" d=" M 44.73803768537744 51.76088827481958 C 50.98259799184985 52.37113124604441 57.15160337489396 50.01556910579403 61.400224952088365 45.39862806232178 L 46.68324999015825 31.855709323367535 Z" stroke-opacity="0.6980392156862745" stroke-linecap="round" stroke-linejoin="round" stroke-miterlimit="10"/><path fill="none" stroke="rgb(255,0,255)" paint-order="fill stroke markers" d=" M 52.74745458940407 47.737315746474906 L 54.88776209502024 53.34258860168927" stroke-opacity="0.6980392156862745" stroke-linecap="round" stroke-linejoin="round" stroke-miterlimit="10"/><path fill="rgb(255,0,255)" stroke="none" paint-order="stroke fill markers" d=" M 99.31881823255091 138.53902519687176 C 105.11155695263997 145.95655648479072 114.04943989913227 150.22576886685496 123.4596108199144 150.0699628074682 L 122.96296296296282 120.07407407407364 Z" fill-opacity="0.09803921568627451"/><path fill="none" stroke="rgb(255,0,255)" paint-order="fill stroke markers" d=" M 99.31881823255091 138.53902519687176 C 105.11155695263997 145.95655648479072 114.04943989913227 150.22576886685496 123.4596108199144 150.0699628074682 L 122.96296296296282 120.07407407407364 Z" stroke-opacity="0.6980392156862745" stroke-linecap="round" stroke-linejoin="round" stroke-miterlimit="10"/><path fill="none" stroke="rgb(255,0,255)" paint-order="fill stroke markers" d=" M 111.32570600217176 144.43745336407602 L 108.73964889977374 149.85153765074324" stroke-opacity="0.6980392156862745" stroke-linecap="round" stroke-linejoin="round" stroke-miterlimit="10"/><path fill="rgb(255,0,255)" stroke="none" paint-order="stroke fill markers" d=" M 123.4596108199144 150.0699628074682 C 132.86978174069654 149.91415674808138 141.6614319129174 145.35139298281183 147.2054357069517 137.74615700894424 L 122.96296296296282 120.07407407407364 Z" fill-opacity="0.09803921568627451"/><path fill="none" stroke="rgb(255,0,255)" paint-order="fill stroke markers" d=" M 123.4596108199144 150.0699628074682 C 132.86978174069654 149.91415674808138 141.6614319129174 145.35139298281183 147.2054357069517 137.74615700894424 L 122.96296296296282 120.07407407407364 Z" stroke-opacity="0.6980392156862745" stroke-linecap="round" stroke-linejoin="round" stroke-miterlimit="10"/><path fill="none" stroke="rgb(255,0,255)" paint-order="fill stroke markers" d=" M 135.40039863866343 144.03884392093022 L 138.16427323326354 149.3643483313428" stroke-opacity="0.6980392156862745" stroke-linecap="round" stroke-linejoin="round" stroke-miterlimit="10"/><path fill="rgb(255,0,255)" stroke="none" paint-order="stroke fill markers" d=" M 101.0672661163658 117.93434053881472 C 100.39599884801848 124.80335687593444 102.98711720229387 131.58926279728303 108.0657523501133 136.2627465321969 L 122.96296296296282 120.07407407407364 Z" fill-opacity="0.09803921568627451"/><path fill="none" stroke="rgb(255,0,255)" paint-order="fill stroke markers" d=" M 101.0672661163658 117.93434053881472 C 100.39599884801848 124.80335687593444 102.98711720229387 131.58926279728303 108.0657523501133 136.2627465321969 L 122.96296296296282 120.07407407407364 Z" stroke-opacity="0.6980392156862745" stroke-linecap="round" stroke-linejoin="round" stroke-miterlimit="10"/><path fill="none" stroke="rgb(255,0,255)" paint-order="fill stroke markers" d=" M 105.21293225478416 126.8517145085249 L 99.60765939956985 128.9920220141411" stroke-opacity="0.6980392156862745" stroke-linecap="round" stroke-linejoin="round" stroke-miterlimit="10"/><path fill="none" stroke="rgb(0,100,0)" paint-order="fill stroke markers" d=" M 31.047418529739346 191.85573734573475 L 217.2044805174233 188.77349808573723" stroke-opacity="0.6980392156862745" stroke-linecap="round" stroke-linejoin="round" stroke-miterlimit="10"/><path fill="none" stroke="rgb(0,100,0)" paint-order="fill stroke markers" d=" M 122.96296296296282 120.07407407407364 L 124.8936590690724 236.68173635682433" stroke-opacity="0.6980392156862745" stroke-linecap="round" stroke-linejoin="round" stroke-miterlimit="10"/><path fill="none" stroke="rgb(255,85,0)" paint-order="fill stroke markers" d=" M 78.33097370925982 209.453906981413 L 74.45188805566274 217.5750334114138" stroke-opacity="0.6980392156862745" stroke-linecap="round" stroke-linejoin="round" stroke-miterlimit="10"/><path fill="none" stroke="rgb(255,85,0)" paint-order="fill stroke markers" d=" M 81.48918954314901 210.96244029114524 L 77.61010388955192 219.08356672114604" stroke-opacity="0.6980392156862745" stroke-linecap="round" stroke-linejoin="round" stroke-miterlimit="10"/><path fill="none" stroke="rgb(255,85,0)" paint-order="fill stroke markers" d=" M 31.047418529739346 191.85573734573475 L 124.8936590690724 236.68173635682433" stroke-opacity="0.6980392156862745" stroke-linecap="round" stroke-linejoin="round" stroke-miterlimit="10"/><path fill="none" stroke="rgb(255,85,0)" paint-order="fill stroke markers" d=" M 167.42289172759402 209.53961900356308 L 171.5687036194943 217.52787561918194" stroke-opacity="0.6980392156862745" stroke-linecap="round" stroke-linejoin="round" stroke-miterlimit="10"/><path fill="none" stroke="rgb(255,85,0)" paint-order="fill stroke markers" d=" M 170.52943596700138 207.92735882337962 L 174.67524785890166 215.9156154389985" stroke-opacity="0.6980392156862745" stroke-linecap="round" stroke-linejoin="round" stroke-miterlimit="10"/><path fill="none" stroke="rgb(255,85,0)" paint-order="fill stroke markers" d=" M 124.8936590690724 236.68173635682433 L 217.2044805174233 188.77349808573723" stroke-opacity="0.6980392156862745" stroke-linecap="round" stroke-linejoin="round" stroke-miterlimit="10"/><path fill="none" stroke="rgb(0,100,0)" paint-order="fill stroke markers" d=" M 124.8936590690724 236.68173635682433 L 131.94386525379076 110.31460370455238" stroke-opacity="0.6980392156862745" stroke-linecap="round" stroke-linejoin="round" stroke-miterlimit="10"/><path fill="none" stroke="rgb(0,100,0)" paint-order="fill stroke markers" d=" M 124.8936590690724 236.68173635682433 L 38.865334259948796 111.85572333455116" stroke-opacity="0.6980392156862745" stroke-linecap="round" stroke-linejoin="round" stroke-miterlimit="10"/><path fill="none" stroke="rgb(0,100,0)" paint-order="fill stroke markers" d=" M 38.865334259948796 111.85572333455116 L 78.7173828616894 115.75022212302724" stroke-opacity="0.6980392156862745" stroke-linecap="round" stroke-linejoin="round" stroke-miterlimit="10"/><path fill="none" stroke="rgb(255,85,0)" paint-order="fill stroke markers" d=" M 100.40250014375042 122.39081336262714 L 101.2778456809018 113.43348283447372" stroke-opacity="0.6980392156862745" stroke-linecap="round" stroke-linejoin="round" stroke-miterlimit="10"/><path fill="none" stroke="rgb(255,85,0)" paint-order="fill stroke markers" d=" M 122.96296296296282 120.07407407407364 L 78.7173828616894 115.75022212302724" stroke-opacity="0.6980392156862745" stroke-linecap="round" stroke-linejoin="round" stroke-miterlimit="10"/><path fill="none" stroke="rgb(255,85,0)" paint-order="fill stroke markers" d=" M 111.22256394668636 139.4778055318838 L 104.59992521381773 133.38349209935444" stroke-opacity="0.6980392156862745" stroke-linecap="round" stroke-linejoin="round" stroke-miterlimit="10"/><path fill="none" stroke="rgb(255,85,0)" paint-order="fill stroke markers" d=" M 122.96296296296282 120.07407407407364 L 92.85952619754127 152.78722355716462" stroke-opacity="0.6980392156862745" stroke-linecap="round" stroke-linejoin="round" stroke-miterlimit="10"/><path fill="none" stroke="rgb(255,85,0)" paint-order="fill stroke markers" d=" M 92.85952619754127 152.78722355716462 L 124.8936590690724 236.68173635682433" stroke-opacity="0.6980392156862745" stroke-linecap="round" stroke-linejoin="round" stroke-miterlimit="10"/><path fill="none" stroke="rgb(0,100,0)" paint-order="fill stroke markers" d=" M 38.29562686097681 71.41804356038367 L 47.25295738913023 72.29338909753503" stroke-opacity="0.6980392156862745" stroke-linecap="round" stroke-linejoin="round" stroke-miterlimit="10"/><path fill="none" stroke="rgb(0,100,0)" paint-order="fill stroke markers" d=" M 38.865334259948796 111.85572333455116 L 46.68324999015825 31.855709323367535" stroke-opacity="0.6980392156862745" stroke-linecap="round" stroke-linejoin="round" stroke-miterlimit="10"/><path fill="none" stroke="rgb(0,100,0)" paint-order="fill stroke markers" d=" M 91.07297902907034 66.58883175786717 L 84.97866559654089 73.21147049073575" stroke-opacity="0.6980392156862745" stroke-linecap="round" stroke-linejoin="round" stroke-miterlimit="10"/><path fill="none" stroke="rgb(0,100,0)" paint-order="fill stroke markers" d=" M 93.64844964740813 68.95884253718417 L 87.55413621487868 75.58148127005275" stroke-opacity="0.6980392156862745" stroke-linecap="round" stroke-linejoin="round" stroke-miterlimit="10"/><path fill="none" stroke="rgb(0,100,0)" paint-order="fill stroke markers" d=" M 46.68324999015825 31.855709323367535 L 131.94386525379076 110.31460370455238" stroke-opacity="0.6980392156862745" stroke-linecap="round" stroke-linejoin="round" stroke-miterlimit="10"/><path fill="none" stroke="rgb(0,100,0)" paint-order="fill stroke markers" d=" M 122.96296296296282 120.07407407407364 L 217.2044805174233 188.77349808573723" stroke-opacity="0.6980392156862745" stroke-linecap="round" stroke-linejoin="round" stroke-miterlimit="10"/><path fill="none" stroke="rgb(255,85,0)" paint-order="fill stroke markers" d=" M 31.047418529739346 191.85573734573475 L 78.7173828616894 115.75022212302724" stroke-opacity="0.6980392156862745" stroke-linecap="round" stroke-linejoin="round" stroke-miterlimit="10"/><path fill="none" stroke="rgb(255,85,0)" paint-order="fill stroke markers" d=" M 92.85952619754127 152.78722355716462 L 217.2044805174233 188.77349808573723" stroke-opacity="0.6980392156862745" stroke-linecap="round" stroke-linejoin="round" stroke-miterlimit="10"/><path fill="none" stroke="rgb(0,100,0)" paint-order="fill stroke markers" d=" M 39.43504165892078 152.29340310871862 L 30.47771113076736 151.41805757156726" stroke-opacity="0.6980392156862745" stroke-linecap="round" stroke-linejoin="round" stroke-miterlimit="10"/><path fill="none" stroke="rgb(0,100,0)" paint-order="fill stroke markers" d=" M 38.865334259948796 111.85572333455116 L 31.047418529739346 191.85573734573475" stroke-opacity="0.6980392156862745" stroke-linecap="round" stroke-linejoin="round" stroke-miterlimit="10"/><path fill="none" stroke="rgb(0,100,0)" paint-order="fill stroke markers" d=" M 176.33359429270286 145.047726139052 L 170.23928086017344 151.6703648719206" stroke-opacity="0.6980392156862745" stroke-linecap="round" stroke-linejoin="round" stroke-miterlimit="10"/><path fill="none" stroke="rgb(0,100,0)" paint-order="fill stroke markers" d=" M 178.90906491104062 147.417736918369 L 172.8147514785112 154.0403756512376" stroke-opacity="0.6980392156862745" stroke-linecap="round" stroke-linejoin="round" stroke-miterlimit="10"/><path fill="none" stroke="rgb(0,100,0)" paint-order="fill stroke markers" d=" M 131.94386525379076 110.31460370455238 L 217.2044805174233 188.77349808573723" stroke-opacity="0.6980392156862745" stroke-linecap="round" stroke-linejoin="round" stroke-miterlimit="10"/><path fill="none" stroke="rgb(0,100,0)" paint-order="fill stroke markers" d=" M 31.047418529739346 191.85573734573475 L 122.96296296296282 120.07407407407364" stroke-opacity="0.6980392156862745" stroke-linecap="round" stroke-linejoin="round" stroke-miterlimit="10"/><path fill="none" stroke="rgb(255,85,0)" paint-order="fill stroke markers" d=" M 78.7173828616894 115.75022212302724 L 92.85952619754127 152.78722355716462" stroke-opacity="0.6980392156862745" stroke-linecap="round" stroke-linejoin="round" stroke-miterlimit="10"/><path fill="rgb(0,0,255)" stroke="none" paint-order="stroke fill markers" d=" M 124.96296296296282 120.07407407407364 C 124.96296296296282 121.17864357373523 124.0675324626244 122.07407407407364 122.96296296296282 122.07407407407364 C 121.85839346330123 122.07407407407364 120.96296296296282 121.17864357373523 120.96296296296282 120.07407407407364 C 120.96296296296282 118.96950457441204 121.85839346330123 118.07407407407364 122.96296296296282 118.07407407407364 C 124.0675324626244 118.07407407407364 124.96296296296282 118.96950457441204 124.96296296296282 120.07407407407364 Z" fill-opacity="1"/><path fill="none" stroke="rgb(0,0,0)" paint-order="fill stroke markers" d=" M 124.96296296296282 120.07407407407364 C 124.96296296296282 121.17864357373523 124.0675324626244 122.07407407407364 122.96296296296282 122.07407407407364 C 121.85839346330123 122.07407407407364 120.96296296296282 121.17864357373523 120.96296296296282 120.07407407407364 C 120.96296296296282 118.96950457441204 121.85839346330123 118.07407407407364 122.96296296296282 118.07407407407364 C 124.0675324626244 118.07407407407364 124.96296296296282 118.96950457441204 124.96296296296282 120.07407407407364 Z" stroke-opacity="1" stroke-linecap="round" stroke-linejoin="round" stroke-miterlimit="10"/><text fill="rgb(0,0,255)" stroke="none" font-family="geogebra-sans-serif, sans-serif" font-size="16px" font-style="normal" font-weight="normal" text-decoration="normal" x="108" y="112" text-anchor="start" dominant-baseline="alphabetic" fill-opacity="1">O</text><text fill="none" stroke="rgb(255,255,255)" font-family="geogebra-sans-serif, sans-serif" font-size="16px" font-style="normal" font-weight="normal" text-decoration="normal" x="108" y="112" text-anchor="start" dominant-baseline="alphabetic" stroke-opacity="1" stroke-linejoin="bevel" stroke-miterlimit="10" stroke-width="3">O</text><text fill="rgb(0,0,255)" stroke="none" font-family="geogebra-sans-serif, sans-serif" font-size="16px" font-style="normal" font-weight="normal" text-decoration="normal" x="108" y="112" text-anchor="start" dominant-baseline="alphabetic" fill-opacity="1">O</text><path fill="rgb(0,0,255)" stroke="none" paint-order="stroke fill markers" d=" M 48.68324999015825 31.855709323367535 C 48.68324999015825 32.96027882302912 47.78781948981984 33.855709323367535 46.68324999015825 33.855709323367535 C 45.578680490496666 33.855709323367535 44.68324999015825 32.96027882302912 44.68324999015825 31.855709323367535 C 44.68324999015825 30.751139823705948 45.578680490496666 29.855709323367535 46.68324999015825 29.855709323367535 C 47.78781948981984 29.855709323367535 48.68324999015825 30.751139823705948 48.68324999015825 31.855709323367535 Z" fill-opacity="1"/><path fill="none" stroke="rgb(0,0,0)" paint-order="fill stroke markers" d=" M 48.68324999015825 31.855709323367535 C 48.68324999015825 32.96027882302912 47.78781948981984 33.855709323367535 46.68324999015825 33.855709323367535 C 45.578680490496666 33.855709323367535 44.68324999015825 32.96027882302912 44.68324999015825 31.855709323367535 C 44.68324999015825 30.751139823705948 45.578680490496666 29.855709323367535 46.68324999015825 29.855709323367535 C 47.78781948981984 29.855709323367535 48.68324999015825 30.751139823705948 48.68324999015825 31.855709323367535 Z" stroke-opacity="1" stroke-linecap="round" stroke-linejoin="round" stroke-miterlimit="10"/><text fill="rgb(0,0,255)" stroke="none" font-family="geogebra-sans-serif, sans-serif" font-size="16px" font-style="normal" font-weight="normal" text-decoration="normal" x="36" y="24" text-anchor="start" dominant-baseline="alphabetic" fill-opacity="1">C</text><text fill="none" stroke="rgb(255,255,255)" font-family="geogebra-sans-serif, sans-serif" font-size="16px" font-style="normal" font-weight="normal" text-decoration="normal" x="36" y="24" text-anchor="start" dominant-baseline="alphabetic" stroke-opacity="1" stroke-linejoin="bevel" stroke-miterlimit="10" stroke-width="3">C</text><text fill="rgb(0,0,255)" stroke="none" font-family="geogebra-sans-serif, sans-serif" font-size="16px" font-style="normal" font-weight="normal" text-decoration="normal" x="36" y="24" text-anchor="start" dominant-baseline="alphabetic" fill-opacity="1">C</text><path fill="rgb(0,0,255)" stroke="none" paint-order="stroke fill markers" d=" M 33.047418529739346 191.85573734573475 C 33.047418529739346 192.96030684539633 32.15198802940093 193.85573734573475 31.047418529739346 193.85573734573475 C 29.94284903007776 193.85573734573475 29.047418529739346 192.96030684539633 29.047418529739346 191.85573734573475 C 29.047418529739346 190.75116784607317 29.94284903007776 189.85573734573475 31.047418529739346 189.85573734573475 C 32.15198802940093 189.85573734573475 33.047418529739346 190.75116784607317 33.047418529739346 191.85573734573475 Z" fill-opacity="1"/><path fill="none" stroke="rgb(0,0,0)" paint-order="fill stroke markers" d=" M 33.047418529739346 191.85573734573475 C 33.047418529739346 192.96030684539633 32.15198802940093 193.85573734573475 31.047418529739346 193.85573734573475 C 29.94284903007776 193.85573734573475 29.047418529739346 192.96030684539633 29.047418529739346 191.85573734573475 C 29.047418529739346 190.75116784607317 29.94284903007776 189.85573734573475 31.047418529739346 189.85573734573475 C 32.15198802940093 189.85573734573475 33.047418529739346 190.75116784607317 33.047418529739346 191.85573734573475 Z" stroke-opacity="1" stroke-linecap="round" stroke-linejoin="round" stroke-miterlimit="10"/><text fill="rgb(0,0,255)" stroke="none" font-family="geogebra-sans-serif, sans-serif" font-size="16px" font-style="normal" font-weight="normal" text-decoration="normal" x="15" y="208" text-anchor="start" dominant-baseline="alphabetic" fill-opacity="1">A</text><text fill="none" stroke="rgb(255,255,255)" font-family="geogebra-sans-serif, sans-serif" font-size="16px" font-style="normal" font-weight="normal" text-decoration="normal" x="15" y="208" text-anchor="start" dominant-baseline="alphabetic" stroke-opacity="1" stroke-linejoin="bevel" stroke-miterlimit="10" stroke-width="3">A</text><text fill="rgb(0,0,255)" stroke="none" font-family="geogebra-sans-serif, sans-serif" font-size="16px" font-style="normal" font-weight="normal" text-decoration="normal" x="15" y="208" text-anchor="start" dominant-baseline="alphabetic" fill-opacity="1">A</text><path fill="rgb(0,0,255)" stroke="none" paint-order="stroke fill markers" d=" M 219.2044805174233 188.77349808573723 C 219.2044805174233 189.8780675853988 218.30905001708487 190.77349808573723 217.2044805174233 190.77349808573723 C 216.0999110177617 190.77349808573723 215.2044805174233 189.8780675853988 215.2044805174233 188.77349808573723 C 215.2044805174233 187.66892858607565 216.0999110177617 186.77349808573723 217.2044805174233 186.77349808573723 C 218.30905001708487 186.77349808573723 219.2044805174233 187.66892858607565 219.2044805174233 188.77349808573723 Z" fill-opacity="1"/><path fill="none" stroke="rgb(0,0,0)" paint-order="fill stroke markers" d=" M 219.2044805174233 188.77349808573723 C 219.2044805174233 189.8780675853988 218.30905001708487 190.77349808573723 217.2044805174233 190.77349808573723 C 216.0999110177617 190.77349808573723 215.2044805174233 189.8780675853988 215.2044805174233 188.77349808573723 C 215.2044805174233 187.66892858607565 216.0999110177617 186.77349808573723 217.2044805174233 186.77349808573723 C 218.30905001708487 186.77349808573723 219.2044805174233 187.66892858607565 219.2044805174233 188.77349808573723 Z" stroke-opacity="1" stroke-linecap="round" stroke-linejoin="round" stroke-miterlimit="10"/><text fill="rgb(0,0,255)" stroke="none" font-family="geogebra-sans-serif, sans-serif" font-size="16px" font-style="normal" font-weight="normal" text-decoration="normal" x="226" y="201" text-anchor="start" dominant-baseline="alphabetic" fill-opacity="1">B</text><text fill="none" stroke="rgb(255,255,255)" font-family="geogebra-sans-serif, sans-serif" font-size="16px" font-style="normal" font-weight="normal" text-decoration="normal" x="226" y="201" text-anchor="start" dominant-baseline="alphabetic" stroke-opacity="1" stroke-linejoin="bevel" stroke-miterlimit="10" stroke-width="3">B</text><text fill="rgb(0,0,255)" stroke="none" font-family="geogebra-sans-serif, sans-serif" font-size="16px" font-style="normal" font-weight="normal" text-decoration="normal" x="226" y="201" text-anchor="start" dominant-baseline="alphabetic" fill-opacity="1">B</text><path fill="rgb(0,0,255)" stroke="none" paint-order="stroke fill markers" d=" M 126.8936590690724 236.68173635682433 C 126.8936590690724 237.7863058564859 125.99822856873399 238.68173635682433 124.8936590690724 238.68173635682433 C 123.7890895694108 238.68173635682433 122.8936590690724 237.7863058564859 122.8936590690724 236.68173635682433 C 122.8936590690724 235.57716685716275 123.7890895694108 234.68173635682433 124.8936590690724 234.68173635682433 C 125.99822856873399 234.68173635682433 126.8936590690724 235.57716685716275 126.8936590690724 236.68173635682433 Z" fill-opacity="1"/><path fill="none" stroke="rgb(0,0,0)" paint-order="fill stroke markers" d=" M 126.8936590690724 236.68173635682433 C 126.8936590690724 237.7863058564859 125.99822856873399 238.68173635682433 124.8936590690724 238.68173635682433 C 123.7890895694108 238.68173635682433 122.8936590690724 237.7863058564859 122.8936590690724 236.68173635682433 C 122.8936590690724 235.57716685716275 123.7890895694108 234.68173635682433 124.8936590690724 234.68173635682433 C 125.99822856873399 234.68173635682433 126.8936590690724 235.57716685716275 126.8936590690724 236.68173635682433 Z" stroke-opacity="1" stroke-linecap="round" stroke-linejoin="round" stroke-miterlimit="10"/><text fill="rgb(0,0,255)" stroke="none" font-family="geogebra-sans-serif, sans-serif" font-size="16px" font-style="normal" font-weight="normal" text-decoration="normal" x="121" y="259" text-anchor="start" dominant-baseline="alphabetic" fill-opacity="1">R</text><text fill="none" stroke="rgb(255,255,255)" font-family="geogebra-sans-serif, sans-serif" font-size="16px" font-style="normal" font-weight="normal" text-decoration="normal" x="121" y="259" text-anchor="start" dominant-baseline="alphabetic" stroke-opacity="1" stroke-linejoin="bevel" stroke-miterlimit="10" stroke-width="3">R</text><text fill="rgb(0,0,255)" stroke="none" font-family="geogebra-sans-serif, sans-serif" font-size="16px" font-style="normal" font-weight="normal" text-decoration="normal" x="121" y="259" text-anchor="start" dominant-baseline="alphabetic" fill-opacity="1">R</text><path fill="rgb(0,0,255)" stroke="none" paint-order="stroke fill markers" d=" M 133.94386525379076 110.31460370455238 C 133.94386525379076 111.41917320421396 133.04843475345234 112.31460370455238 131.94386525379076 112.31460370455238 C 130.83929575412918 112.31460370455238 129.94386525379076 111.41917320421396 129.94386525379076 110.31460370455238 C 129.94386525379076 109.21003420489079 130.83929575412918 108.31460370455238 131.94386525379076 108.31460370455238 C 133.04843475345234 108.31460370455238 133.94386525379076 109.21003420489079 133.94386525379076 110.31460370455238 Z" fill-opacity="1"/><path fill="none" stroke="rgb(0,0,0)" paint-order="fill stroke markers" d=" M 133.94386525379076 110.31460370455238 C 133.94386525379076 111.41917320421396 133.04843475345234 112.31460370455238 131.94386525379076 112.31460370455238 C 130.83929575412918 112.31460370455238 129.94386525379076 111.41917320421396 129.94386525379076 110.31460370455238 C 129.94386525379076 109.21003420489079 130.83929575412918 108.31460370455238 131.94386525379076 108.31460370455238 C 133.04843475345234 108.31460370455238 133.94386525379076 109.21003420489079 133.94386525379076 110.31460370455238 Z" stroke-opacity="1" stroke-linecap="round" stroke-linejoin="round" stroke-miterlimit="10"/><text fill="rgb(0,0,255)" stroke="none" font-family="geogebra-sans-serif, sans-serif" font-size="16px" font-style="normal" font-weight="normal" text-decoration="normal" x="140" y="98" text-anchor="start" dominant-baseline="alphabetic" fill-opacity="1">K</text><text fill="none" stroke="rgb(255,255,255)" font-family="geogebra-sans-serif, sans-serif" font-size="16px" font-style="normal" font-weight="normal" text-decoration="normal" x="140" y="98" text-anchor="start" dominant-baseline="alphabetic" stroke-opacity="1" stroke-linejoin="bevel" stroke-miterlimit="10" stroke-width="3">K</text><text fill="rgb(0,0,255)" stroke="none" font-family="geogebra-sans-serif, sans-serif" font-size="16px" font-style="normal" font-weight="normal" text-decoration="normal" x="140" y="98" text-anchor="start" dominant-baseline="alphabetic" fill-opacity="1">K</text><path fill="rgb(0,0,255)" stroke="none" paint-order="stroke fill markers" d=" M 94.85952619754127 152.78722355716462 C 94.85952619754127 153.8917930568262 93.96409569720285 154.78722355716462 92.85952619754127 154.78722355716462 C 91.75495669787968 154.78722355716462 90.85952619754127 153.8917930568262 90.85952619754127 152.78722355716462 C 90.85952619754127 151.68265405750304 91.75495669787968 150.78722355716462 92.85952619754127 150.78722355716462 C 93.96409569720285 150.78722355716462 94.85952619754127 151.68265405750304 94.85952619754127 152.78722355716462 Z" fill-opacity="1"/><path fill="none" stroke="rgb(0,0,0)" paint-order="fill stroke markers" d=" M 94.85952619754127 152.78722355716462 C 94.85952619754127 153.8917930568262 93.96409569720285 154.78722355716462 92.85952619754127 154.78722355716462 C 91.75495669787968 154.78722355716462 90.85952619754127 153.8917930568262 90.85952619754127 152.78722355716462 C 90.85952619754127 151.68265405750304 91.75495669787968 150.78722355716462 92.85952619754127 150.78722355716462 C 93.96409569720285 150.78722355716462 94.85952619754127 151.68265405750304 94.85952619754127 152.78722355716462 Z" stroke-opacity="1" stroke-linecap="round" stroke-linejoin="round" stroke-miterlimit="10"/><text fill="rgb(0,0,255)" stroke="none" font-family="geogebra-sans-serif, sans-serif" font-size="16px" font-style="normal" font-weight="normal" text-decoration="normal" x="82" y="171" text-anchor="start" dominant-baseline="alphabetic" fill-opacity="1">P</text><text fill="none" stroke="rgb(255,255,255)" font-family="geogebra-sans-serif, sans-serif" font-size="16px" font-style="normal" font-weight="normal" text-decoration="normal" x="82" y="171" text-anchor="start" dominant-baseline="alphabetic" stroke-opacity="1" stroke-linejoin="bevel" stroke-miterlimit="10" stroke-width="3">P</text><text fill="rgb(0,0,255)" stroke="none" font-family="geogebra-sans-serif, sans-serif" font-size="16px" font-style="normal" font-weight="normal" text-decoration="normal" x="82" y="171" text-anchor="start" dominant-baseline="alphabetic" fill-opacity="1">P</text><path fill="rgb(0,0,255)" stroke="none" paint-order="stroke fill markers" d=" M 40.865334259948796 111.85572333455116 C 40.865334259948796 112.96029283421274 39.96990375961038 113.85572333455116 38.865334259948796 113.85572333455116 C 37.76076476028721 113.85572333455116 36.865334259948796 112.96029283421274 36.865334259948796 111.85572333455116 C 36.865334259948796 110.75115383488956 37.76076476028721 109.85572333455116 38.865334259948796 109.85572333455116 C 39.96990375961038 109.85572333455116 40.865334259948796 110.75115383488956 40.865334259948796 111.85572333455116 Z" fill-opacity="1"/><path fill="none" stroke="rgb(0,0,0)" paint-order="fill stroke markers" d=" M 40.865334259948796 111.85572333455116 C 40.865334259948796 112.96029283421274 39.96990375961038 113.85572333455116 38.865334259948796 113.85572333455116 C 37.76076476028721 113.85572333455116 36.865334259948796 112.96029283421274 36.865334259948796 111.85572333455116 C 36.865334259948796 110.75115383488956 37.76076476028721 109.85572333455116 38.865334259948796 109.85572333455116 C 39.96990375961038 109.85572333455116 40.865334259948796 110.75115383488956 40.865334259948796 111.85572333455116 Z" stroke-opacity="1" stroke-linecap="round" stroke-linejoin="round" stroke-miterlimit="10"/><text fill="rgb(0,0,255)" stroke="none" font-family="geogebra-sans-serif, sans-serif" font-size="16px" font-style="normal" font-weight="normal" text-decoration="normal" x="20" y="106" text-anchor="start" dominant-baseline="alphabetic" fill-opacity="1">L</text><text fill="none" stroke="rgb(255,255,255)" font-family="geogebra-sans-serif, sans-serif" font-size="16px" font-style="normal" font-weight="normal" text-decoration="normal" x="20" y="106" text-anchor="start" dominant-baseline="alphabetic" stroke-opacity="1" stroke-linejoin="bevel" stroke-miterlimit="10" stroke-width="3">L</text><text fill="rgb(0,0,255)" stroke="none" font-family="geogebra-sans-serif, sans-serif" font-size="16px" font-style="normal" font-weight="normal" text-decoration="normal" x="20" y="106" text-anchor="start" dominant-baseline="alphabetic" fill-opacity="1">L</text><path fill="rgb(0,0,255)" stroke="none" paint-order="stroke fill markers" d=" M 80.7173828616894 115.75022212302724 C 80.7173828616894 116.85479162268882 79.82195236135098 117.75022212302724 78.7173828616894 117.75022212302724 C 77.61281336202781 117.75022212302724 76.7173828616894 116.85479162268882 76.7173828616894 115.75022212302724 C 76.7173828616894 114.64565262336565 77.61281336202781 113.75022212302724 78.7173828616894 113.75022212302724 C 79.82195236135098 113.75022212302724 80.7173828616894 114.64565262336565 80.7173828616894 115.75022212302724 Z" fill-opacity="1"/><path fill="none" stroke="rgb(0,0,0)" paint-order="fill stroke markers" d=" M 80.7173828616894 115.75022212302724 C 80.7173828616894 116.85479162268882 79.82195236135098 117.75022212302724 78.7173828616894 117.75022212302724 C 77.61281336202781 117.75022212302724 76.7173828616894 116.85479162268882 76.7173828616894 115.75022212302724 C 76.7173828616894 114.64565262336565 77.61281336202781 113.75022212302724 78.7173828616894 113.75022212302724 C 79.82195236135098 113.75022212302724 80.7173828616894 114.64565262336565 80.7173828616894 115.75022212302724 Z" stroke-opacity="1" stroke-linecap="round" stroke-linejoin="round" stroke-miterlimit="10"/><text fill="rgb(0,0,255)" stroke="none" font-family="geogebra-sans-serif, sans-serif" font-size="16px" font-style="normal" font-weight="normal" text-decoration="normal" x="71" y="106" text-anchor="start" dominant-baseline="alphabetic" fill-opacity="1">Q</text><text fill="none" stroke="rgb(255,255,255)" font-family="geogebra-sans-serif, sans-serif" font-size="16px" font-style="normal" font-weight="normal" text-decoration="normal" x="71" y="106" text-anchor="start" dominant-baseline="alphabetic" stroke-opacity="1" stroke-linejoin="bevel" stroke-miterlimit="10" stroke-width="3">Q</text><text fill="rgb(0,0,255)" stroke="none" font-family="geogebra-sans-serif, sans-serif" font-size="16px" font-style="normal" font-weight="normal" text-decoration="normal" x="71" y="106" text-anchor="start" dominant-baseline="alphabetic" fill-opacity="1">Q</text></g></g></svg>