<svg version="1.1" xmlns="http://www.w3.org/2000/svg" xmlns:xlink="http://www.w3.org/1999/xlink" width="266" height="281"><defs><clipPath id="LXXcBpTvlsvp"><path fill="none" stroke="none" d=" M 0 0 L 266 0 L 266 281 L 0 281 L 0 0 Z"/></clipPath></defs><g transform="scale(1,1)" clip-path="url(#LXXcBpTvlsvp)"><g><rect fill="rgb(255,255,255)" stroke="none" x="0" y="0" width="266" height="281" fill-opacity="1"/><path fill="rgb(244,0,153)" stroke="none" paint-order="stroke fill markers" fill-rule="evenodd" d=" M 42.94423570897597 122.49795961233751 L 129.3213956221562 247.59514370705395 L 82.86713938649775 126.35315360293023 Z" fill-opacity="0.09803921568627451"/><path fill="rgb(244,0,153)" stroke="none" paint-order="stroke fill markers" fill-rule="evenodd" d=" M 97.13750622581682 163.59769942749247 L 136.2904921645046 120.95240719896702 L 129.3213956221562 247.59514370705395 Z" fill-opacity="0.09803921568627451"/><path fill="none" stroke="rgb(0,100,0)" paint-order="fill stroke markers" d=" M 244.34424002811107 130.65207819127625 C 244.34424002811107 195.24680207847717 191.9798700656426 247.61117204094558 127.38514617844163 247.61117204094558 C 62.79042229124066 247.61117204094558 10.426052328772187 195.24680207847717 10.426052328772187 130.65207819127625 C 10.426052328772187 66.05735430407533 62.79042229124066 13.692984341606902 127.38514617844163 13.692984341606902 C 191.9798700656426 13.692984341606902 244.34424002811107 66.05735430407533 244.34424002811107 130.65207819127625 Z" stroke-opacity="0.6980392156862745" stroke-linecap="round" stroke-linejoin="round" stroke-miterlimit="10"/><path fill="rgb(255,85,0)" stroke="none" paint-order="stroke fill markers" d=" M 47.79968424524302 72.21680522748363 C 52.420535540237275 72.6630222233159 57.081896926173926 72.0307610282274 61.4169304078159 70.36977908646443 L 50.68324999015837 42.35570932336873 Z" fill-opacity="0.09803921568627451"/><path fill="none" stroke="rgb(255,85,0)" paint-order="fill stroke markers" d=" M 47.79968424524302 72.21680522748363 C 52.420535540237275 72.6630222233159 57.081896926173926 72.0307610282274 61.4169304078159 70.36977908646443 L 50.68324999015837 42.35570932336873 Z" stroke-opacity="0.6980392156862745" stroke-linecap="round" stroke-linejoin="round" stroke-miterlimit="10"/><path fill="none" stroke="rgb(255,85,0)" paint-order="fill stroke markers" d=" M 54.31226510489874 69.11071351505191 L 55.11871290817438 75.05627000209262" stroke-opacity="0.6980392156862745" stroke-linecap="round" stroke-linejoin="round" stroke-miterlimit="10"/><path fill="rgb(255,85,0)" stroke="none" paint-order="stroke fill markers" d=" M 61.4169304078159 70.36977908646443 C 65.75196388945787 68.70879714470146 69.64237619394946 66.06441890205606 72.78200117533788 62.64475060322043 L 50.68324999015837 42.35570932336873 Z" fill-opacity="0.09803921568627451"/><path fill="none" stroke="rgb(255,85,0)" paint-order="fill stroke markers" d=" M 61.4169304078159 70.36977908646443 C 65.75196388945787 68.70879714470146 69.64237619394946 66.06441890205606 72.78200117533788 62.64475060322043 L 50.68324999015837 42.35570932336873 Z" stroke-opacity="0.6980392156862745" stroke-linecap="round" stroke-linejoin="round" stroke-miterlimit="10"/><path fill="none" stroke="rgb(255,85,0)" paint-order="fill stroke markers" d=" M 65.86129458027061 64.6856659382071 L 69.23419337807333 69.64787851928229" stroke-opacity="0.6980392156862745" stroke-linecap="round" stroke-linejoin="round" stroke-miterlimit="10"/><path fill="none" stroke="rgb(0,100,0)" paint-order="fill stroke markers" d=" M 35.20522142779357 202.6402099013063 L 221.89773433885082 199.54910507456532" stroke-opacity="0.6980392156862745" stroke-linecap="round" stroke-linejoin="round" stroke-miterlimit="10"/><path fill="none" stroke="rgb(0,100,0)" paint-order="fill stroke markers" d=" M 136.2904921645046 120.95240719896702 L 97.13750622581682 163.59769942749247" stroke-opacity="0.6980392156862745" stroke-linecap="round" stroke-linejoin="round" stroke-miterlimit="10"/><path fill="none" stroke="rgb(0,100,0)" paint-order="fill stroke markers" d=" M 129.3213956221562 247.59514370705395 L 136.2904921645046 120.95240719896702" stroke-opacity="0.6980392156862745" stroke-linecap="round" stroke-linejoin="round" stroke-miterlimit="10"/><path fill="none" stroke="rgb(0,100,0)" paint-order="fill stroke markers" d=" M 129.3213956221562 247.59514370705395 L 42.94423570897597 122.49795961233751" stroke-opacity="0.6980392156862745" stroke-linecap="round" stroke-linejoin="round" stroke-miterlimit="10"/><path fill="none" stroke="rgb(0,100,0)" paint-order="fill stroke markers" d=" M 129.3213956221562 247.59514370705395 L 82.86713938649775 126.35315360293023" stroke-opacity="0.6980392156862745" stroke-linecap="round" stroke-linejoin="round" stroke-miterlimit="10"/><path fill="none" stroke="rgb(0,100,0)" paint-order="fill stroke markers" d=" M 82.86713938649775 126.35315360293023 L 50.68324999015837 42.35570932336873" stroke-opacity="0.6980392156862745" stroke-linecap="round" stroke-linejoin="round" stroke-miterlimit="10"/><path fill="none" stroke="rgb(0,100,0)" paint-order="fill stroke markers" d=" M 42.94423570897597 122.49795961233751 L 82.86713938649775 126.35315360293023" stroke-opacity="0.6980392156862745" stroke-linecap="round" stroke-linejoin="round" stroke-miterlimit="10"/><path fill="none" stroke="rgb(0,100,0)" paint-order="fill stroke markers" d=" M 42.334578463949924 81.99429960611582 L 51.292907235184416 82.85936932959044" stroke-opacity="0.6980392156862745" stroke-linecap="round" stroke-linejoin="round" stroke-miterlimit="10"/><path fill="none" stroke="rgb(0,100,0)" paint-order="fill stroke markers" d=" M 42.94423570897597 122.49795961233751 L 50.68324999015837 42.35570932336873" stroke-opacity="0.6980392156862745" stroke-linecap="round" stroke-linejoin="round" stroke-miterlimit="10"/><path fill="none" stroke="rgb(0,100,0)" paint-order="fill stroke markers" d=" M 95.24113345017378 77.1557181753996 L 89.15442106621825 83.78534353095345" stroke-opacity="0.6980392156862745" stroke-linecap="round" stroke-linejoin="round" stroke-miterlimit="10"/><path fill="none" stroke="rgb(0,100,0)" paint-order="fill stroke markers" d=" M 97.81932108844472 79.5227729913823 L 91.7326087044892 86.15239834693615" stroke-opacity="0.6980392156862745" stroke-linecap="round" stroke-linejoin="round" stroke-miterlimit="10"/><path fill="none" stroke="rgb(0,100,0)" paint-order="fill stroke markers" d=" M 50.68324999015837 42.35570932336873 L 136.2904921645046 120.95240719896702" stroke-opacity="0.6980392156862745" stroke-linecap="round" stroke-linejoin="round" stroke-miterlimit="10"/><path fill="none" stroke="rgb(0,100,0)" paint-order="fill stroke markers" d=" M 43.55389295400201 163.0016196185592 L 34.59556418276753 162.13654989508458" stroke-opacity="0.6980392156862745" stroke-linecap="round" stroke-linejoin="round" stroke-miterlimit="10"/><path fill="none" stroke="rgb(0,100,0)" paint-order="fill stroke markers" d=" M 42.94423570897597 122.49795961233751 L 35.20522142779357 202.6402099013063" stroke-opacity="0.6980392156862745" stroke-linecap="round" stroke-linejoin="round" stroke-miterlimit="10"/><path fill="none" stroke="rgb(0,100,0)" paint-order="fill stroke markers" d=" M 180.84837562451997 155.75241605099788 L 174.76166324056447 162.38204140655174" stroke-opacity="0.6980392156862745" stroke-linecap="round" stroke-linejoin="round" stroke-miterlimit="10"/><path fill="none" stroke="rgb(0,100,0)" paint-order="fill stroke markers" d=" M 183.42656326279092 158.1194708669806 L 177.33985087883542 164.74909622253446" stroke-opacity="0.6980392156862745" stroke-linecap="round" stroke-linejoin="round" stroke-miterlimit="10"/><path fill="none" stroke="rgb(0,100,0)" paint-order="fill stroke markers" d=" M 136.2904921645046 120.95240719896702 L 221.89773433885082 199.54910507456532" stroke-opacity="0.6980392156862745" stroke-linecap="round" stroke-linejoin="round" stroke-miterlimit="10"/><path fill="rgb(0,0,255)" stroke="none" paint-order="stroke fill markers" d=" M 52.68324999015837 42.35570932336873 C 52.68324999015837 43.460278823030315 51.78781948981996 44.35570932336873 50.68324999015837 44.35570932336873 C 49.57868049049679 44.35570932336873 48.68324999015837 43.460278823030315 48.68324999015837 42.35570932336873 C 48.68324999015837 41.25113982370714 49.57868049049679 40.35570932336873 50.68324999015837 40.35570932336873 C 51.78781948981996 40.35570932336873 52.68324999015837 41.25113982370714 52.68324999015837 42.35570932336873 Z" fill-opacity="1"/><path fill="none" stroke="rgb(0,0,0)" paint-order="fill stroke markers" d=" M 52.68324999015837 42.35570932336873 C 52.68324999015837 43.460278823030315 51.78781948981996 44.35570932336873 50.68324999015837 44.35570932336873 C 49.57868049049679 44.35570932336873 48.68324999015837 43.460278823030315 48.68324999015837 42.35570932336873 C 48.68324999015837 41.25113982370714 49.57868049049679 40.35570932336873 50.68324999015837 40.35570932336873 C 51.78781948981996 40.35570932336873 52.68324999015837 41.25113982370714 52.68324999015837 42.35570932336873 Z" stroke-opacity="1" stroke-linecap="round" stroke-linejoin="round" stroke-miterlimit="10"/><text fill="rgb(0,0,255)" stroke="none" font-family="geogebra-sans-serif, sans-serif" font-size="16px" font-style="normal" font-weight="normal" text-decoration="normal" x="35" y="37" text-anchor="start" dominant-baseline="alphabetic" fill-opacity="1">C</text><text fill="none" stroke="rgb(255,255,255)" font-family="geogebra-sans-serif, sans-serif" font-size="16px" font-style="normal" font-weight="normal" text-decoration="normal" x="35" y="37" text-anchor="start" dominant-baseline="alphabetic" stroke-opacity="1" stroke-linejoin="bevel" stroke-miterlimit="10" stroke-width="3">C</text><text fill="rgb(0,0,255)" stroke="none" font-family="geogebra-sans-serif, sans-serif" font-size="16px" font-style="normal" font-weight="normal" text-decoration="normal" x="35" y="37" text-anchor="start" dominant-baseline="alphabetic" fill-opacity="1">C</text><path fill="rgb(0,0,255)" stroke="none" paint-order="stroke fill markers" d=" M 37.20522142779357 202.6402099013063 C 37.20522142779357 203.74477940096787 36.309790927455154 204.6402099013063 35.20522142779357 204.6402099013063 C 34.10065192813198 204.6402099013063 33.20522142779357 203.74477940096787 33.20522142779357 202.6402099013063 C 33.20522142779357 201.5356404016447 34.10065192813198 200.6402099013063 35.20522142779357 200.6402099013063 C 36.309790927455154 200.6402099013063 37.20522142779357 201.5356404016447 37.20522142779357 202.6402099013063 Z" fill-opacity="1"/><path fill="none" stroke="rgb(0,0,0)" paint-order="fill stroke markers" d=" M 37.20522142779357 202.6402099013063 C 37.20522142779357 203.74477940096787 36.309790927455154 204.6402099013063 35.20522142779357 204.6402099013063 C 34.10065192813198 204.6402099013063 33.20522142779357 203.74477940096787 33.20522142779357 202.6402099013063 C 33.20522142779357 201.5356404016447 34.10065192813198 200.6402099013063 35.20522142779357 200.6402099013063 C 36.309790927455154 200.6402099013063 37.20522142779357 201.5356404016447 37.20522142779357 202.6402099013063 Z" stroke-opacity="1" stroke-linecap="round" stroke-linejoin="round" stroke-miterlimit="10"/><text fill="rgb(0,0,255)" stroke="none" font-family="geogebra-sans-serif, sans-serif" font-size="16px" font-style="normal" font-weight="normal" text-decoration="normal" x="19" y="219" text-anchor="start" dominant-baseline="alphabetic" fill-opacity="1">A</text><text fill="none" stroke="rgb(255,255,255)" font-family="geogebra-sans-serif, sans-serif" font-size="16px" font-style="normal" font-weight="normal" text-decoration="normal" x="19" y="219" text-anchor="start" dominant-baseline="alphabetic" stroke-opacity="1" stroke-linejoin="bevel" stroke-miterlimit="10" stroke-width="3">A</text><text fill="rgb(0,0,255)" stroke="none" font-family="geogebra-sans-serif, sans-serif" font-size="16px" font-style="normal" font-weight="normal" text-decoration="normal" x="19" y="219" text-anchor="start" dominant-baseline="alphabetic" fill-opacity="1">A</text><path fill="rgb(0,0,255)" stroke="none" paint-order="stroke fill markers" d=" M 223.89773433885082 199.54910507456532 C 223.89773433885082 200.6536745742269 223.0023038385124 201.54910507456532 221.89773433885082 201.54910507456532 C 220.79316483918925 201.54910507456532 219.89773433885082 200.6536745742269 219.89773433885082 199.54910507456532 C 219.89773433885082 198.44453557490374 220.79316483918925 197.54910507456532 221.89773433885082 197.54910507456532 C 223.0023038385124 197.54910507456532 223.89773433885082 198.44453557490374 223.89773433885082 199.54910507456532 Z" fill-opacity="1"/><path fill="none" stroke="rgb(0,0,0)" paint-order="fill stroke markers" d=" M 223.89773433885082 199.54910507456532 C 223.89773433885082 200.6536745742269 223.0023038385124 201.54910507456532 221.89773433885082 201.54910507456532 C 220.79316483918925 201.54910507456532 219.89773433885082 200.6536745742269 219.89773433885082 199.54910507456532 C 219.89773433885082 198.44453557490374 220.79316483918925 197.54910507456532 221.89773433885082 197.54910507456532 C 223.0023038385124 197.54910507456532 223.89773433885082 198.44453557490374 223.89773433885082 199.54910507456532 Z" stroke-opacity="1" stroke-linecap="round" stroke-linejoin="round" stroke-miterlimit="10"/><text fill="rgb(0,0,255)" stroke="none" font-family="geogebra-sans-serif, sans-serif" font-size="16px" font-style="normal" font-weight="normal" text-decoration="normal" x="231" y="212" text-anchor="start" dominant-baseline="alphabetic" fill-opacity="1">B</text><text fill="none" stroke="rgb(255,255,255)" font-family="geogebra-sans-serif, sans-serif" font-size="16px" font-style="normal" font-weight="normal" text-decoration="normal" x="231" y="212" text-anchor="start" dominant-baseline="alphabetic" stroke-opacity="1" stroke-linejoin="bevel" stroke-miterlimit="10" stroke-width="3">B</text><text fill="rgb(0,0,255)" stroke="none" font-family="geogebra-sans-serif, sans-serif" font-size="16px" font-style="normal" font-weight="normal" text-decoration="normal" x="231" y="212" text-anchor="start" dominant-baseline="alphabetic" fill-opacity="1">B</text><path fill="rgb(0,0,255)" stroke="none" paint-order="stroke fill markers" d=" M 131.3213956221562 247.59514370705395 C 131.3213956221562 248.69971320671553 130.42596512181777 249.59514370705395 129.3213956221562 249.59514370705395 C 128.2168261224946 249.59514370705395 127.32139562215619 248.69971320671553 127.32139562215619 247.59514370705395 C 127.32139562215619 246.49057420739237 128.2168261224946 245.59514370705395 129.3213956221562 245.59514370705395 C 130.42596512181777 245.59514370705395 131.3213956221562 246.49057420739237 131.3213956221562 247.59514370705395 Z" fill-opacity="1"/><path fill="none" stroke="rgb(0,0,0)" paint-order="fill stroke markers" d=" M 131.3213956221562 247.59514370705395 C 131.3213956221562 248.69971320671553 130.42596512181777 249.59514370705395 129.3213956221562 249.59514370705395 C 128.2168261224946 249.59514370705395 127.32139562215619 248.69971320671553 127.32139562215619 247.59514370705395 C 127.32139562215619 246.49057420739237 128.2168261224946 245.59514370705395 129.3213956221562 245.59514370705395 C 130.42596512181777 245.59514370705395 131.3213956221562 246.49057420739237 131.3213956221562 247.59514370705395 Z" stroke-opacity="1" stroke-linecap="round" stroke-linejoin="round" stroke-miterlimit="10"/><text fill="rgb(0,0,255)" stroke="none" font-family="geogebra-sans-serif, sans-serif" font-size="16px" font-style="normal" font-weight="normal" text-decoration="normal" x="125" y="270" text-anchor="start" dominant-baseline="alphabetic" fill-opacity="1">R</text><text fill="none" stroke="rgb(255,255,255)" font-family="geogebra-sans-serif, sans-serif" font-size="16px" font-style="normal" font-weight="normal" text-decoration="normal" x="125" y="270" text-anchor="start" dominant-baseline="alphabetic" stroke-opacity="1" stroke-linejoin="bevel" stroke-miterlimit="10" stroke-width="3">R</text><text fill="rgb(0,0,255)" stroke="none" font-family="geogebra-sans-serif, sans-serif" font-size="16px" font-style="normal" font-weight="normal" text-decoration="normal" x="125" y="270" text-anchor="start" dominant-baseline="alphabetic" fill-opacity="1">R</text><path fill="rgb(0,0,255)" stroke="none" paint-order="stroke fill markers" d=" M 138.2904921645046 120.95240719896702 C 138.2904921645046 122.0569766986286 137.39506166416618 122.95240719896702 136.2904921645046 122.95240719896702 C 135.18592266484302 122.95240719896702 134.2904921645046 122.0569766986286 134.2904921645046 120.95240719896702 C 134.2904921645046 119.84783769930543 135.18592266484302 118.95240719896702 136.2904921645046 118.95240719896702 C 137.39506166416618 118.95240719896702 138.2904921645046 119.84783769930543 138.2904921645046 120.95240719896702 Z" fill-opacity="1"/><path fill="none" stroke="rgb(0,0,0)" paint-order="fill stroke markers" d=" M 138.2904921645046 120.95240719896702 C 138.2904921645046 122.0569766986286 137.39506166416618 122.95240719896702 136.2904921645046 122.95240719896702 C 135.18592266484302 122.95240719896702 134.2904921645046 122.0569766986286 134.2904921645046 120.95240719896702 C 134.2904921645046 119.84783769930543 135.18592266484302 118.95240719896702 136.2904921645046 118.95240719896702 C 137.39506166416618 118.95240719896702 138.2904921645046 119.84783769930543 138.2904921645046 120.95240719896702 Z" stroke-opacity="1" stroke-linecap="round" stroke-linejoin="round" stroke-miterlimit="10"/><text fill="rgb(0,0,255)" stroke="none" font-family="geogebra-sans-serif, sans-serif" font-size="16px" font-style="normal" font-weight="normal" text-decoration="normal" x="144" y="109" text-anchor="start" dominant-baseline="alphabetic" fill-opacity="1">K</text><text fill="none" stroke="rgb(255,255,255)" font-family="geogebra-sans-serif, sans-serif" font-size="16px" font-style="normal" font-weight="normal" text-decoration="normal" x="144" y="109" text-anchor="start" dominant-baseline="alphabetic" stroke-opacity="1" stroke-linejoin="bevel" stroke-miterlimit="10" stroke-width="3">K</text><text fill="rgb(0,0,255)" stroke="none" font-family="geogebra-sans-serif, sans-serif" font-size="16px" font-style="normal" font-weight="normal" text-decoration="normal" x="144" y="109" text-anchor="start" dominant-baseline="alphabetic" fill-opacity="1">K</text><path fill="rgb(0,0,255)" stroke="none" paint-order="stroke fill markers" d=" M 99.13750622581682 163.59769942749247 C 99.13750622581682 164.70226892715405 98.2420757254784 165.59769942749247 97.13750622581682 165.59769942749247 C 96.03293672615523 165.59769942749247 95.13750622581682 164.70226892715405 95.13750622581682 163.59769942749247 C 95.13750622581682 162.4931299278309 96.03293672615523 161.59769942749247 97.13750622581682 161.59769942749247 C 98.2420757254784 161.59769942749247 99.13750622581682 162.4931299278309 99.13750622581682 163.59769942749247 Z" fill-opacity="1"/><path fill="none" stroke="rgb(0,0,0)" paint-order="fill stroke markers" d=" M 99.13750622581682 163.59769942749247 C 99.13750622581682 164.70226892715405 98.2420757254784 165.59769942749247 97.13750622581682 165.59769942749247 C 96.03293672615523 165.59769942749247 95.13750622581682 164.70226892715405 95.13750622581682 163.59769942749247 C 95.13750622581682 162.4931299278309 96.03293672615523 161.59769942749247 97.13750622581682 161.59769942749247 C 98.2420757254784 161.59769942749247 99.13750622581682 162.4931299278309 99.13750622581682 163.59769942749247 Z" stroke-opacity="1" stroke-linecap="round" stroke-linejoin="round" stroke-miterlimit="10"/><text fill="rgb(0,0,255)" stroke="none" font-family="geogebra-sans-serif, sans-serif" font-size="16px" font-style="normal" font-weight="normal" text-decoration="normal" x="109" y="173" text-anchor="start" dominant-baseline="alphabetic" fill-opacity="1">P</text><text fill="none" stroke="rgb(255,255,255)" font-family="geogebra-sans-serif, sans-serif" font-size="16px" font-style="normal" font-weight="normal" text-decoration="normal" x="109" y="173" text-anchor="start" dominant-baseline="alphabetic" stroke-opacity="1" stroke-linejoin="bevel" stroke-miterlimit="10" stroke-width="3">P</text><text fill="rgb(0,0,255)" stroke="none" font-family="geogebra-sans-serif, sans-serif" font-size="16px" font-style="normal" font-weight="normal" text-decoration="normal" x="109" y="173" text-anchor="start" dominant-baseline="alphabetic" fill-opacity="1">P</text><path fill="rgb(0,0,255)" stroke="none" paint-order="stroke fill markers" d=" M 44.94423570897597 122.49795961233751 C 44.94423570897597 123.6025291119991 44.04880520863755 124.49795961233751 42.94423570897597 124.49795961233751 C 41.83966620931438 124.49795961233751 40.94423570897597 123.6025291119991 40.94423570897597 122.49795961233751 C 40.94423570897597 121.39339011267592 41.83966620931438 120.49795961233751 42.94423570897597 120.49795961233751 C 44.04880520863755 120.49795961233751 44.94423570897597 121.39339011267592 44.94423570897597 122.49795961233751 Z" fill-opacity="1"/><path fill="none" stroke="rgb(0,0,0)" paint-order="fill stroke markers" d=" M 44.94423570897597 122.49795961233751 C 44.94423570897597 123.6025291119991 44.04880520863755 124.49795961233751 42.94423570897597 124.49795961233751 C 41.83966620931438 124.49795961233751 40.94423570897597 123.6025291119991 40.94423570897597 122.49795961233751 C 40.94423570897597 121.39339011267592 41.83966620931438 120.49795961233751 42.94423570897597 120.49795961233751 C 44.04880520863755 120.49795961233751 44.94423570897597 121.39339011267592 44.94423570897597 122.49795961233751 Z" stroke-opacity="1" stroke-linecap="round" stroke-linejoin="round" stroke-miterlimit="10"/><text fill="rgb(0,0,255)" stroke="none" font-family="geogebra-sans-serif, sans-serif" font-size="16px" font-style="normal" font-weight="normal" text-decoration="normal" x="24" y="116" text-anchor="start" dominant-baseline="alphabetic" fill-opacity="1">L</text><text fill="none" stroke="rgb(255,255,255)" font-family="geogebra-sans-serif, sans-serif" font-size="16px" font-style="normal" font-weight="normal" text-decoration="normal" x="24" y="116" text-anchor="start" dominant-baseline="alphabetic" stroke-opacity="1" stroke-linejoin="bevel" stroke-miterlimit="10" stroke-width="3">L</text><text fill="rgb(0,0,255)" stroke="none" font-family="geogebra-sans-serif, sans-serif" font-size="16px" font-style="normal" font-weight="normal" text-decoration="normal" x="24" y="116" text-anchor="start" dominant-baseline="alphabetic" fill-opacity="1">L</text><path fill="rgb(0,0,255)" stroke="none" paint-order="stroke fill markers" d=" M 84.86713938649775 126.35315360293023 C 84.86713938649775 127.45772310259181 83.97170888615935 128.35315360293023 82.86713938649775 128.35315360293023 C 81.76256988683616 128.35315360293023 80.86713938649775 127.45772310259181 80.86713938649775 126.35315360293023 C 80.86713938649775 125.24858410326864 81.76256988683616 124.35315360293023 82.86713938649775 124.35315360293023 C 83.97170888615935 124.35315360293023 84.86713938649775 125.24858410326864 84.86713938649775 126.35315360293023 Z" fill-opacity="1"/><path fill="none" stroke="rgb(0,0,0)" paint-order="fill stroke markers" d=" M 84.86713938649775 126.35315360293023 C 84.86713938649775 127.45772310259181 83.97170888615935 128.35315360293023 82.86713938649775 128.35315360293023 C 81.76256988683616 128.35315360293023 80.86713938649775 127.45772310259181 80.86713938649775 126.35315360293023 C 80.86713938649775 125.24858410326864 81.76256988683616 124.35315360293023 82.86713938649775 124.35315360293023 C 83.97170888615935 124.35315360293023 84.86713938649775 125.24858410326864 84.86713938649775 126.35315360293023 Z" stroke-opacity="1" stroke-linecap="round" stroke-linejoin="round" stroke-miterlimit="10"/><text fill="rgb(0,0,255)" stroke="none" font-family="geogebra-sans-serif, sans-serif" font-size="16px" font-style="normal" font-weight="normal" text-decoration="normal" x="91" y="128" text-anchor="start" dominant-baseline="alphabetic" fill-opacity="1">Q</text><text fill="none" stroke="rgb(255,255,255)" font-family="geogebra-sans-serif, sans-serif" font-size="16px" font-style="normal" font-weight="normal" text-decoration="normal" x="91" y="128" text-anchor="start" dominant-baseline="alphabetic" stroke-opacity="1" stroke-linejoin="bevel" stroke-miterlimit="10" stroke-width="3">Q</text><text fill="rgb(0,0,255)" stroke="none" font-family="geogebra-sans-serif, sans-serif" font-size="16px" font-style="normal" font-weight="normal" text-decoration="normal" x="91" y="128" text-anchor="start" dominant-baseline="alphabetic" fill-opacity="1">Q</text></g></g></svg>