<svg version="1.1" xmlns="http://www.w3.org/2000/svg" xmlns:xlink="http://www.w3.org/1999/xlink" width="258" height="270"><defs><clipPath id="yQMQrkHlQEVK"><path fill="none" stroke="none" d=" M 0 0 L 258 0 L 258 270 L 0 270 L 0 0 Z"/></clipPath></defs><g transform="scale(1,1)" clip-path="url(#yQMQrkHlQEVK)"><g><rect fill="rgb(255,255,255)" stroke="none" x="0" y="0" width="258" height="270" fill-opacity="1"/><path fill="none" stroke="rgb(255,85,0)" paint-order="fill stroke markers" d=" M 33.04741852973946 187.85573734573472 C 55.56642859702073 216.6910551148145 90.31204475164458 233.28742537361114 126.89365906907261 232.68173635682422" stroke-opacity="0.6980392156862745" stroke-linecap="round" stroke-linejoin="round" stroke-miterlimit="10"/><path fill="none" stroke="rgb(153,51,255)" paint-order="fill stroke markers" d=" M 126.89365906907251 232.68173635682422 C 163.4752733865006 232.0760473400373 197.65241623771715 214.33850934123197 219.20448051742355 184.7734980857372" stroke-opacity="0.6980392156862745" stroke-linecap="round" stroke-linejoin="round" stroke-miterlimit="10"/><path fill="rgb(255,0,255)" stroke="none" paint-order="stroke fill markers" d=" M 46.73803768537755 47.76088827481966 C 52.98259799184997 48.3711312460445 59.15160337489409 46.015569105794114 63.40022495208851 41.398628062321876 L 48.683249990158366 27.85570932336762 Z" fill-opacity="0.09803921568627451"/><path fill="none" stroke="rgb(255,0,255)" paint-order="fill stroke markers" d=" M 46.73803768537755 47.76088827481966 C 52.98259799184997 48.3711312460445 59.15160337489409 46.015569105794114 63.40022495208851 41.398628062321876 L 48.683249990158366 27.85570932336762 Z" stroke-opacity="0.6980392156862745" stroke-linecap="round" stroke-linejoin="round" stroke-miterlimit="10"/><path fill="none" stroke="rgb(255,0,255)" paint-order="fill stroke markers" d=" M 54.7474545894042 43.73731574647499 L 56.88776209502038 49.34258860168936" stroke-opacity="0.6980392156862745" stroke-linecap="round" stroke-linejoin="round" stroke-miterlimit="10"/><path fill="rgb(255,0,255)" stroke="none" paint-order="stroke fill markers" d=" M 101.31881823255105 134.53902519687176 C 107.11155695264013 141.95655648479072 116.04943989913245 146.22576886685496 125.45961081991459 146.0699628074682 L 124.96296296296302 116.07407407407365 Z" fill-opacity="0.09803921568627451"/><path fill="none" stroke="rgb(255,0,255)" paint-order="fill stroke markers" d=" M 101.31881823255105 134.53902519687176 C 107.11155695264013 141.95655648479072 116.04943989913245 146.22576886685496 125.45961081991459 146.0699628074682 L 124.96296296296302 116.07407407407365 Z" stroke-opacity="0.6980392156862745" stroke-linecap="round" stroke-linejoin="round" stroke-miterlimit="10"/><path fill="none" stroke="rgb(255,0,255)" paint-order="fill stroke markers" d=" M 113.32570600217193 140.43745336407605 L 110.73964889977391 145.85153765074324" stroke-opacity="0.6980392156862745" stroke-linecap="round" stroke-linejoin="round" stroke-miterlimit="10"/><path fill="rgb(255,0,255)" stroke="none" paint-order="stroke fill markers" d=" M 125.45961081991459 146.0699628074682 C 134.86978174069674 145.9141567480814 143.66143191291764 141.35139298281186 149.20543570695196 133.74615700894424 L 124.96296296296302 116.07407407407365 Z" fill-opacity="0.09803921568627451"/><path fill="none" stroke="rgb(255,0,255)" paint-order="fill stroke markers" d=" M 125.45961081991459 146.0699628074682 C 134.86978174069674 145.9141567480814 143.66143191291764 141.35139298281186 149.20543570695196 133.74615700894424 L 124.96296296296302 116.07407407407365 Z" stroke-opacity="0.6980392156862745" stroke-linecap="round" stroke-linejoin="round" stroke-miterlimit="10"/><path fill="none" stroke="rgb(255,0,255)" paint-order="fill stroke markers" d=" M 137.40039863866366 140.03884392093025 L 140.1642732332638 145.36434833134282" stroke-opacity="0.6980392156862745" stroke-linecap="round" stroke-linejoin="round" stroke-miterlimit="10"/><path fill="none" stroke="rgb(0,100,0)" paint-order="fill stroke markers" d=" M 33.047418529739446 187.85573734573467 L 219.20448051742358 184.77349808573717" stroke-opacity="0.6980392156862745" stroke-linecap="round" stroke-linejoin="round" stroke-miterlimit="10"/><path fill="none" stroke="rgb(0,100,0)" paint-order="fill stroke markers" d=" M 124.96296296296302 116.07407407407365 L 126.89365906907258 232.68173635682422" stroke-opacity="0.6980392156862745" stroke-linecap="round" stroke-linejoin="round" stroke-miterlimit="10"/><path fill="none" stroke="rgb(0,100,0)" paint-order="fill stroke markers" d=" M 126.89365906907258 232.68173635682422 L 133.94386525379096 106.3146037045524" stroke-opacity="0.6980392156862745" stroke-linecap="round" stroke-linejoin="round" stroke-miterlimit="10"/><path fill="none" stroke="rgb(0,100,0)" paint-order="fill stroke markers" d=" M 126.89365906907258 232.68173635682422 L 40.8653342599489 107.85572333455117" stroke-opacity="0.6980392156862745" stroke-linecap="round" stroke-linejoin="round" stroke-miterlimit="10"/><path fill="none" stroke="rgb(0,100,0)" paint-order="fill stroke markers" d=" M 126.89365906907258 232.68173635682422 L 80.71738286168954 111.75022212302727" stroke-opacity="0.6980392156862745" stroke-linecap="round" stroke-linejoin="round" stroke-miterlimit="10"/><path fill="none" stroke="rgb(0,100,0)" paint-order="fill stroke markers" d=" M 80.71738286168954 111.75022212302727 L 48.683249990158366 27.85570932336762" stroke-opacity="0.6980392156862745" stroke-linecap="round" stroke-linejoin="round" stroke-miterlimit="10"/><path fill="none" stroke="rgb(0,100,0)" paint-order="fill stroke markers" d=" M 40.8653342599489 107.85572333455117 L 80.71738286168954 111.75022212302727" stroke-opacity="0.6980392156862745" stroke-linecap="round" stroke-linejoin="round" stroke-miterlimit="10"/><path fill="none" stroke="rgb(0,100,0)" paint-order="fill stroke markers" d=" M 40.295626860976924 67.41804356038372 L 49.252957389130344 68.29338909753508" stroke-opacity="0.6980392156862745" stroke-linecap="round" stroke-linejoin="round" stroke-miterlimit="10"/><path fill="none" stroke="rgb(0,100,0)" paint-order="fill stroke markers" d=" M 40.8653342599489 107.85572333455117 L 48.683249990158366 27.85570932336762" stroke-opacity="0.6980392156862745" stroke-linecap="round" stroke-linejoin="round" stroke-miterlimit="10"/><path fill="none" stroke="rgb(0,100,0)" paint-order="fill stroke markers" d=" M 93.0729790290705 62.58883175786722 L 86.97866559654105 69.2114704907358" stroke-opacity="0.6980392156862745" stroke-linecap="round" stroke-linejoin="round" stroke-miterlimit="10"/><path fill="none" stroke="rgb(0,100,0)" paint-order="fill stroke markers" d=" M 95.64844964740828 64.95884253718422 L 89.55413621487884 71.5814812700528" stroke-opacity="0.6980392156862745" stroke-linecap="round" stroke-linejoin="round" stroke-miterlimit="10"/><path fill="none" stroke="rgb(0,100,0)" paint-order="fill stroke markers" d=" M 48.683249990158366 27.85570932336762 L 133.94386525379096 106.3146037045524" stroke-opacity="0.6980392156862745" stroke-linecap="round" stroke-linejoin="round" stroke-miterlimit="10"/><path fill="none" stroke="rgb(0,100,0)" paint-order="fill stroke markers" d=" M 124.96296296296302 116.07407407407365 L 219.20448051742358 184.77349808573717" stroke-opacity="0.6980392156862745" stroke-linecap="round" stroke-linejoin="round" stroke-miterlimit="10"/><path fill="none" stroke="rgb(0,100,0)" paint-order="fill stroke markers" d=" M 41.43504165892088 148.2934031087186 L 32.47771113076746 147.41805757156723" stroke-opacity="0.6980392156862745" stroke-linecap="round" stroke-linejoin="round" stroke-miterlimit="10"/><path fill="none" stroke="rgb(0,100,0)" paint-order="fill stroke markers" d=" M 40.8653342599489 107.85572333455117 L 33.047418529739446 187.85573734573467" stroke-opacity="0.6980392156862745" stroke-linecap="round" stroke-linejoin="round" stroke-miterlimit="10"/><path fill="none" stroke="rgb(0,100,0)" paint-order="fill stroke markers" d=" M 178.33359429270308 141.04772613905197 L 172.23928086017366 147.67036487192058" stroke-opacity="0.6980392156862745" stroke-linecap="round" stroke-linejoin="round" stroke-miterlimit="10"/><path fill="none" stroke="rgb(0,100,0)" paint-order="fill stroke markers" d=" M 180.90906491104084 143.41773691836897 L 174.81475147851143 150.04037565123758" stroke-opacity="0.6980392156862745" stroke-linecap="round" stroke-linejoin="round" stroke-miterlimit="10"/><path fill="none" stroke="rgb(0,100,0)" paint-order="fill stroke markers" d=" M 133.94386525379096 106.3146037045524 L 219.20448051742358 184.77349808573717" stroke-opacity="0.6980392156862745" stroke-linecap="round" stroke-linejoin="round" stroke-miterlimit="10"/><path fill="none" stroke="rgb(0,100,0)" paint-order="fill stroke markers" d=" M 33.047418529739446 187.85573734573467 L 124.96296296296302 116.07407407407365" stroke-opacity="0.6980392156862745" stroke-linecap="round" stroke-linejoin="round" stroke-miterlimit="10"/><path fill="rgb(0,0,255)" stroke="none" paint-order="stroke fill markers" d=" M 126.96296296296302 116.07407407407365 C 126.96296296296302 117.17864357373523 126.0675324626246 118.07407407407365 124.96296296296302 118.07407407407365 C 123.85839346330143 118.07407407407365 122.96296296296302 117.17864357373523 122.96296296296302 116.07407407407365 C 122.96296296296302 114.96950457441206 123.85839346330143 114.07407407407365 124.96296296296302 114.07407407407365 C 126.0675324626246 114.07407407407365 126.96296296296302 114.96950457441206 126.96296296296302 116.07407407407365 Z" fill-opacity="1"/><path fill="none" stroke="rgb(0,0,0)" paint-order="fill stroke markers" d=" M 126.96296296296302 116.07407407407365 C 126.96296296296302 117.17864357373523 126.0675324626246 118.07407407407365 124.96296296296302 118.07407407407365 C 123.85839346330143 118.07407407407365 122.96296296296302 117.17864357373523 122.96296296296302 116.07407407407365 C 122.96296296296302 114.96950457441206 123.85839346330143 114.07407407407365 124.96296296296302 114.07407407407365 C 126.0675324626246 114.07407407407365 126.96296296296302 114.96950457441206 126.96296296296302 116.07407407407365 Z" stroke-opacity="1" stroke-linecap="round" stroke-linejoin="round" stroke-miterlimit="10"/><text fill="rgb(0,0,255)" stroke="none" font-family="geogebra-sans-serif, sans-serif" font-size="16px" font-style="normal" font-weight="normal" text-decoration="normal" x="110" y="108" text-anchor="start" dominant-baseline="alphabetic" fill-opacity="1">O</text><text fill="none" stroke="rgb(255,255,255)" font-family="geogebra-sans-serif, sans-serif" font-size="16px" font-style="normal" font-weight="normal" text-decoration="normal" x="110" y="108" text-anchor="start" dominant-baseline="alphabetic" stroke-opacity="1" stroke-linejoin="bevel" stroke-miterlimit="10" stroke-width="3">O</text><text fill="rgb(0,0,255)" stroke="none" font-family="geogebra-sans-serif, sans-serif" font-size="16px" font-style="normal" font-weight="normal" text-decoration="normal" x="110" y="108" text-anchor="start" dominant-baseline="alphabetic" fill-opacity="1">O</text><path fill="rgb(0,0,255)" stroke="none" paint-order="stroke fill markers" d=" M 50.683249990158366 27.85570932336762 C 50.683249990158366 28.960278823029206 49.78781948981995 29.85570932336762 48.683249990158366 29.85570932336762 C 47.57868049049678 29.85570932336762 46.683249990158366 28.960278823029206 46.683249990158366 27.85570932336762 C 46.683249990158366 26.751139823706033 47.57868049049678 25.85570932336762 48.683249990158366 25.85570932336762 C 49.78781948981995 25.85570932336762 50.683249990158366 26.751139823706033 50.683249990158366 27.85570932336762 Z" fill-opacity="1"/><path fill="none" stroke="rgb(0,0,0)" paint-order="fill stroke markers" d=" M 50.683249990158366 27.85570932336762 C 50.683249990158366 28.960278823029206 49.78781948981995 29.85570932336762 48.683249990158366 29.85570932336762 C 47.57868049049678 29.85570932336762 46.683249990158366 28.960278823029206 46.683249990158366 27.85570932336762 C 46.683249990158366 26.751139823706033 47.57868049049678 25.85570932336762 48.683249990158366 25.85570932336762 C 49.78781948981995 25.85570932336762 50.683249990158366 26.751139823706033 50.683249990158366 27.85570932336762 Z" stroke-opacity="1" stroke-linecap="round" stroke-linejoin="round" stroke-miterlimit="10"/><text fill="rgb(0,0,255)" stroke="none" font-family="geogebra-sans-serif, sans-serif" font-size="16px" font-style="normal" font-weight="normal" text-decoration="normal" x="33" y="24" text-anchor="start" dominant-baseline="alphabetic" fill-opacity="1">C</text><text fill="none" stroke="rgb(255,255,255)" font-family="geogebra-sans-serif, sans-serif" font-size="16px" font-style="normal" font-weight="normal" text-decoration="normal" x="33" y="24" text-anchor="start" dominant-baseline="alphabetic" stroke-opacity="1" stroke-linejoin="bevel" stroke-miterlimit="10" stroke-width="3">C</text><text fill="rgb(0,0,255)" stroke="none" font-family="geogebra-sans-serif, sans-serif" font-size="16px" font-style="normal" font-weight="normal" text-decoration="normal" x="33" y="24" text-anchor="start" dominant-baseline="alphabetic" fill-opacity="1">C</text><path fill="rgb(0,0,255)" stroke="none" paint-order="stroke fill markers" d=" M 35.047418529739446 187.85573734573467 C 35.047418529739446 188.96030684539625 34.15198802940103 189.85573734573467 33.047418529739446 189.85573734573467 C 31.94284903007786 189.85573734573467 31.047418529739446 188.96030684539625 31.047418529739446 187.85573734573467 C 31.047418529739446 186.7511678460731 31.94284903007786 185.85573734573467 33.047418529739446 185.85573734573467 C 34.15198802940103 185.85573734573467 35.047418529739446 186.7511678460731 35.047418529739446 187.85573734573467 Z" fill-opacity="1"/><path fill="none" stroke="rgb(0,0,0)" paint-order="fill stroke markers" d=" M 35.047418529739446 187.85573734573467 C 35.047418529739446 188.96030684539625 34.15198802940103 189.85573734573467 33.047418529739446 189.85573734573467 C 31.94284903007786 189.85573734573467 31.047418529739446 188.96030684539625 31.047418529739446 187.85573734573467 C 31.047418529739446 186.7511678460731 31.94284903007786 185.85573734573467 33.047418529739446 185.85573734573467 C 34.15198802940103 185.85573734573467 35.047418529739446 186.7511678460731 35.047418529739446 187.85573734573467 Z" stroke-opacity="1" stroke-linecap="round" stroke-linejoin="round" stroke-miterlimit="10"/><text fill="rgb(0,0,255)" stroke="none" font-family="geogebra-sans-serif, sans-serif" font-size="16px" font-style="normal" font-weight="normal" text-decoration="normal" x="17" y="204" text-anchor="start" dominant-baseline="alphabetic" fill-opacity="1">A</text><text fill="none" stroke="rgb(255,255,255)" font-family="geogebra-sans-serif, sans-serif" font-size="16px" font-style="normal" font-weight="normal" text-decoration="normal" x="17" y="204" text-anchor="start" dominant-baseline="alphabetic" stroke-opacity="1" stroke-linejoin="bevel" stroke-miterlimit="10" stroke-width="3">A</text><text fill="rgb(0,0,255)" stroke="none" font-family="geogebra-sans-serif, sans-serif" font-size="16px" font-style="normal" font-weight="normal" text-decoration="normal" x="17" y="204" text-anchor="start" dominant-baseline="alphabetic" fill-opacity="1">A</text><path fill="rgb(0,0,255)" stroke="none" paint-order="stroke fill markers" d=" M 221.20448051742358 184.77349808573717 C 221.20448051742358 185.87806758539875 220.30905001708516 186.77349808573717 219.20448051742358 186.77349808573717 C 218.099911017762 186.77349808573717 217.20448051742358 185.87806758539875 217.20448051742358 184.77349808573717 C 217.20448051742358 183.6689285860756 218.099911017762 182.77349808573717 219.20448051742358 182.77349808573717 C 220.30905001708516 182.77349808573717 221.20448051742358 183.6689285860756 221.20448051742358 184.77349808573717 Z" fill-opacity="1"/><path fill="none" stroke="rgb(0,0,0)" paint-order="fill stroke markers" d=" M 221.20448051742358 184.77349808573717 C 221.20448051742358 185.87806758539875 220.30905001708516 186.77349808573717 219.20448051742358 186.77349808573717 C 218.099911017762 186.77349808573717 217.20448051742358 185.87806758539875 217.20448051742358 184.77349808573717 C 217.20448051742358 183.6689285860756 218.099911017762 182.77349808573717 219.20448051742358 182.77349808573717 C 220.30905001708516 182.77349808573717 221.20448051742358 183.6689285860756 221.20448051742358 184.77349808573717 Z" stroke-opacity="1" stroke-linecap="round" stroke-linejoin="round" stroke-miterlimit="10"/><text fill="rgb(0,0,255)" stroke="none" font-family="geogebra-sans-serif, sans-serif" font-size="16px" font-style="normal" font-weight="normal" text-decoration="normal" x="228" y="197" text-anchor="start" dominant-baseline="alphabetic" fill-opacity="1">B</text><text fill="none" stroke="rgb(255,255,255)" font-family="geogebra-sans-serif, sans-serif" font-size="16px" font-style="normal" font-weight="normal" text-decoration="normal" x="228" y="197" text-anchor="start" dominant-baseline="alphabetic" stroke-opacity="1" stroke-linejoin="bevel" stroke-miterlimit="10" stroke-width="3">B</text><text fill="rgb(0,0,255)" stroke="none" font-family="geogebra-sans-serif, sans-serif" font-size="16px" font-style="normal" font-weight="normal" text-decoration="normal" x="228" y="197" text-anchor="start" dominant-baseline="alphabetic" fill-opacity="1">B</text><path fill="rgb(0,0,255)" stroke="none" paint-order="stroke fill markers" d=" M 128.89365906907258 232.68173635682422 C 128.89365906907258 233.7863058564858 127.99822856873416 234.68173635682422 126.89365906907258 234.68173635682422 C 125.78908956941099 234.68173635682422 124.89365906907258 233.7863058564858 124.89365906907258 232.68173635682422 C 124.89365906907258 231.57716685716264 125.78908956941099 230.68173635682422 126.89365906907258 230.68173635682422 C 127.99822856873416 230.68173635682422 128.89365906907258 231.57716685716264 128.89365906907258 232.68173635682422 Z" fill-opacity="1"/><path fill="none" stroke="rgb(0,0,0)" paint-order="fill stroke markers" d=" M 128.89365906907258 232.68173635682422 C 128.89365906907258 233.7863058564858 127.99822856873416 234.68173635682422 126.89365906907258 234.68173635682422 C 125.78908956941099 234.68173635682422 124.89365906907258 233.7863058564858 124.89365906907258 232.68173635682422 C 124.89365906907258 231.57716685716264 125.78908956941099 230.68173635682422 126.89365906907258 230.68173635682422 C 127.99822856873416 230.68173635682422 128.89365906907258 231.57716685716264 128.89365906907258 232.68173635682422 Z" stroke-opacity="1" stroke-linecap="round" stroke-linejoin="round" stroke-miterlimit="10"/><text fill="rgb(0,0,255)" stroke="none" font-family="geogebra-sans-serif, sans-serif" font-size="16px" font-style="normal" font-weight="normal" text-decoration="normal" x="123" y="255" text-anchor="start" dominant-baseline="alphabetic" fill-opacity="1">R</text><text fill="none" stroke="rgb(255,255,255)" font-family="geogebra-sans-serif, sans-serif" font-size="16px" font-style="normal" font-weight="normal" text-decoration="normal" x="123" y="255" text-anchor="start" dominant-baseline="alphabetic" stroke-opacity="1" stroke-linejoin="bevel" stroke-miterlimit="10" stroke-width="3">R</text><text fill="rgb(0,0,255)" stroke="none" font-family="geogebra-sans-serif, sans-serif" font-size="16px" font-style="normal" font-weight="normal" text-decoration="normal" x="123" y="255" text-anchor="start" dominant-baseline="alphabetic" fill-opacity="1">R</text><path fill="rgb(0,0,255)" stroke="none" paint-order="stroke fill markers" d=" M 135.94386525379096 106.3146037045524 C 135.94386525379096 107.41917320421399 135.04843475345254 108.3146037045524 133.94386525379096 108.3146037045524 C 132.83929575412938 108.3146037045524 131.94386525379096 107.41917320421399 131.94386525379096 106.3146037045524 C 131.94386525379096 105.2100342048908 132.83929575412938 104.3146037045524 133.94386525379096 104.3146037045524 C 135.04843475345254 104.3146037045524 135.94386525379096 105.2100342048908 135.94386525379096 106.3146037045524 Z" fill-opacity="1"/><path fill="none" stroke="rgb(0,0,0)" paint-order="fill stroke markers" d=" M 135.94386525379096 106.3146037045524 C 135.94386525379096 107.41917320421399 135.04843475345254 108.3146037045524 133.94386525379096 108.3146037045524 C 132.83929575412938 108.3146037045524 131.94386525379096 107.41917320421399 131.94386525379096 106.3146037045524 C 131.94386525379096 105.2100342048908 132.83929575412938 104.3146037045524 133.94386525379096 104.3146037045524 C 135.04843475345254 104.3146037045524 135.94386525379096 105.2100342048908 135.94386525379096 106.3146037045524 Z" stroke-opacity="1" stroke-linecap="round" stroke-linejoin="round" stroke-miterlimit="10"/><text fill="rgb(0,0,255)" stroke="none" font-family="geogebra-sans-serif, sans-serif" font-size="16px" font-style="normal" font-weight="normal" text-decoration="normal" x="142" y="94" text-anchor="start" dominant-baseline="alphabetic" fill-opacity="1">K</text><text fill="none" stroke="rgb(255,255,255)" font-family="geogebra-sans-serif, sans-serif" font-size="16px" font-style="normal" font-weight="normal" text-decoration="normal" x="142" y="94" text-anchor="start" dominant-baseline="alphabetic" stroke-opacity="1" stroke-linejoin="bevel" stroke-miterlimit="10" stroke-width="3">K</text><text fill="rgb(0,0,255)" stroke="none" font-family="geogebra-sans-serif, sans-serif" font-size="16px" font-style="normal" font-weight="normal" text-decoration="normal" x="142" y="94" text-anchor="start" dominant-baseline="alphabetic" fill-opacity="1">K</text><path fill="rgb(0,0,255)" stroke="none" paint-order="stroke fill markers" d=" M 96.85952619754141 148.7872235571646 C 96.85952619754141 149.89179305682617 95.96409569720299 150.7872235571646 94.85952619754141 150.7872235571646 C 93.75495669787982 150.7872235571646 92.85952619754141 149.89179305682617 92.85952619754141 148.7872235571646 C 92.85952619754141 147.68265405750302 93.75495669787982 146.7872235571646 94.85952619754141 146.7872235571646 C 95.96409569720299 146.7872235571646 96.85952619754141 147.68265405750302 96.85952619754141 148.7872235571646 Z" fill-opacity="1"/><path fill="none" stroke="rgb(0,0,0)" paint-order="fill stroke markers" d=" M 96.85952619754141 148.7872235571646 C 96.85952619754141 149.89179305682617 95.96409569720299 150.7872235571646 94.85952619754141 150.7872235571646 C 93.75495669787982 150.7872235571646 92.85952619754141 149.89179305682617 92.85952619754141 148.7872235571646 C 92.85952619754141 147.68265405750302 93.75495669787982 146.7872235571646 94.85952619754141 146.7872235571646 C 95.96409569720299 146.7872235571646 96.85952619754141 147.68265405750302 96.85952619754141 148.7872235571646 Z" stroke-opacity="1" stroke-linecap="round" stroke-linejoin="round" stroke-miterlimit="10"/><text fill="rgb(0,0,255)" stroke="none" font-family="geogebra-sans-serif, sans-serif" font-size="16px" font-style="normal" font-weight="normal" text-decoration="normal" x="85" y="168" text-anchor="start" dominant-baseline="alphabetic" fill-opacity="1">P</text><text fill="none" stroke="rgb(255,255,255)" font-family="geogebra-sans-serif, sans-serif" font-size="16px" font-style="normal" font-weight="normal" text-decoration="normal" x="85" y="168" text-anchor="start" dominant-baseline="alphabetic" stroke-opacity="1" stroke-linejoin="bevel" stroke-miterlimit="10" stroke-width="3">P</text><text fill="rgb(0,0,255)" stroke="none" font-family="geogebra-sans-serif, sans-serif" font-size="16px" font-style="normal" font-weight="normal" text-decoration="normal" x="85" y="168" text-anchor="start" dominant-baseline="alphabetic" fill-opacity="1">P</text><path fill="rgb(0,0,255)" stroke="none" paint-order="stroke fill markers" d=" M 42.8653342599489 107.85572333455117 C 42.8653342599489 108.96029283421277 41.96990375961049 109.85572333455117 40.8653342599489 109.85572333455117 C 39.760764760287316 109.85572333455117 38.8653342599489 108.96029283421277 38.8653342599489 107.85572333455117 C 38.8653342599489 106.75115383488958 39.760764760287316 105.85572333455117 40.8653342599489 105.85572333455117 C 41.96990375961049 105.85572333455117 42.8653342599489 106.75115383488958 42.8653342599489 107.85572333455117 Z" fill-opacity="1"/><path fill="none" stroke="rgb(0,0,0)" paint-order="fill stroke markers" d=" M 42.8653342599489 107.85572333455117 C 42.8653342599489 108.96029283421277 41.96990375961049 109.85572333455117 40.8653342599489 109.85572333455117 C 39.760764760287316 109.85572333455117 38.8653342599489 108.96029283421277 38.8653342599489 107.85572333455117 C 38.8653342599489 106.75115383488958 39.760764760287316 105.85572333455117 40.8653342599489 105.85572333455117 C 41.96990375961049 105.85572333455117 42.8653342599489 106.75115383488958 42.8653342599489 107.85572333455117 Z" stroke-opacity="1" stroke-linecap="round" stroke-linejoin="round" stroke-miterlimit="10"/><text fill="rgb(0,0,255)" stroke="none" font-family="geogebra-sans-serif, sans-serif" font-size="16px" font-style="normal" font-weight="normal" text-decoration="normal" x="22" y="102" text-anchor="start" dominant-baseline="alphabetic" fill-opacity="1">L</text><text fill="none" stroke="rgb(255,255,255)" font-family="geogebra-sans-serif, sans-serif" font-size="16px" font-style="normal" font-weight="normal" text-decoration="normal" x="22" y="102" text-anchor="start" dominant-baseline="alphabetic" stroke-opacity="1" stroke-linejoin="bevel" stroke-miterlimit="10" stroke-width="3">L</text><text fill="rgb(0,0,255)" stroke="none" font-family="geogebra-sans-serif, sans-serif" font-size="16px" font-style="normal" font-weight="normal" text-decoration="normal" x="22" y="102" text-anchor="start" dominant-baseline="alphabetic" fill-opacity="1">L</text><path fill="rgb(0,0,255)" stroke="none" paint-order="stroke fill markers" d=" M 82.71738286168954 111.75022212302727 C 82.71738286168954 112.85479162268885 81.82195236135112 113.75022212302727 80.71738286168954 113.75022212302727 C 79.61281336202795 113.75022212302727 78.71738286168954 112.85479162268885 78.71738286168954 111.75022212302727 C 78.71738286168954 110.64565262336568 79.61281336202795 109.75022212302727 80.71738286168954 109.75022212302727 C 81.82195236135112 109.75022212302727 82.71738286168954 110.64565262336568 82.71738286168954 111.75022212302727 Z" fill-opacity="1"/><path fill="none" stroke="rgb(0,0,0)" paint-order="fill stroke markers" d=" M 82.71738286168954 111.75022212302727 C 82.71738286168954 112.85479162268885 81.82195236135112 113.75022212302727 80.71738286168954 113.75022212302727 C 79.61281336202795 113.75022212302727 78.71738286168954 112.85479162268885 78.71738286168954 111.75022212302727 C 78.71738286168954 110.64565262336568 79.61281336202795 109.75022212302727 80.71738286168954 109.75022212302727 C 81.82195236135112 109.75022212302727 82.71738286168954 110.64565262336568 82.71738286168954 111.75022212302727 Z" stroke-opacity="1" stroke-linecap="round" stroke-linejoin="round" stroke-miterlimit="10"/><text fill="rgb(0,0,255)" stroke="none" font-family="geogebra-sans-serif, sans-serif" font-size="16px" font-style="normal" font-weight="normal" text-decoration="normal" x="64" y="129" text-anchor="start" dominant-baseline="alphabetic" fill-opacity="1">Q</text><text fill="none" stroke="rgb(255,255,255)" font-family="geogebra-sans-serif, sans-serif" font-size="16px" font-style="normal" font-weight="normal" text-decoration="normal" x="64" y="129" text-anchor="start" dominant-baseline="alphabetic" stroke-opacity="1" stroke-linejoin="bevel" stroke-miterlimit="10" stroke-width="3">Q</text><text fill="rgb(0,0,255)" stroke="none" font-family="geogebra-sans-serif, sans-serif" font-size="16px" font-style="normal" font-weight="normal" text-decoration="normal" x="64" y="129" text-anchor="start" dominant-baseline="alphabetic" fill-opacity="1">Q</text></g></g></svg>