<svg version="1.1" xmlns="http://www.w3.org/2000/svg" xmlns:xlink="http://www.w3.org/1999/xlink" width="330" height="364"><defs><clipPath id="CldhETNJqZmn"><path fill="none" stroke="none" d=" M 0 0 L 330 0 L 330 364 L 0 364 L 0 0 Z"/></clipPath></defs><g transform="scale(1,1)" clip-path="url(#CldhETNJqZmn)"><g><rect fill="rgb(255,255,255)" stroke="none" x="0" y="0" width="330" height="364" fill-opacity="1"/><path fill="rgb(153,51,255)" stroke="none" paint-order="stroke fill markers" fill-rule="evenodd" d=" M 160.50000000000045 328.66068747318496 L 211.94957554275325 242.91139490193052 L 178.79830953131338 223.02063529506665 Z" fill-opacity="0.047058823529411764"/><path fill="rgb(153,51,255)" stroke="none" paint-order="stroke fill markers" fill-rule="evenodd" d=" M 160.50000000000045 328.66068747318496 L 160.50000000000045 289.9999999999999 L 260.50000000000074 289.9999999999999 Z" fill-opacity="0.047058823529411764"/><path fill="none" stroke="rgb(0,153,255)" paint-order="fill stroke markers" d=" M 309.16068747318593 179.99999999999983 C 309.16068747318593 262.1030305908016 242.60303059080243 328.66068747318496 160.50000000000045 328.66068747318496 C 78.39696940919846 328.66068747318496 11.839312526814979 262.1030305908016 11.839312526814979 179.99999999999983 C 11.839312526814979 97.89696940919802 78.39696940919846 31.339312526814695 160.50000000000045 31.339312526814695 C 242.60303059080243 31.339312526814695 309.16068747318593 97.89696940919802 309.16068747318593 179.99999999999983 Z" stroke-opacity="0.6980392156862745" stroke-linejoin="round" stroke-miterlimit="10" stroke-dasharray="5,4"/><path fill="none" stroke="rgb(255,127,0)" paint-order="fill stroke markers" d=" M 245.7776742362468 223.02063529506665 C 245.7776742362468 260.0123169749562 215.789991211203 289.9999999999999 178.79830953131338 289.9999999999999 C 141.80662785142377 289.9999999999999 111.81894482637996 260.0123169749562 111.81894482637996 223.02063529506665 C 111.81894482637996 186.02895361517713 141.80662785142377 156.0412705901334 178.79830953131338 156.0412705901334 C 215.789991211203 156.0412705901334 245.7776742362468 186.02895361517713 245.7776742362468 223.02063529506665 Z" stroke-opacity="0.6980392156862745" stroke-linejoin="round" stroke-miterlimit="10" stroke-dasharray="5,4"/><path fill="rgb(204,0,0)" stroke="none" paint-order="stroke fill markers" fill-rule="evenodd" d=" M 211.94957554275325 242.91139490193052 L 202.85448960389138 237.4543433386134 L 197.39743804057326 246.5494292774755 L 206.49252397943613 252.00648084079236 L 211.94957554275325 242.91139490193052" fill-opacity="0.09803921568627451"/><path fill="none" stroke="rgb(204,0,0)" paint-order="fill stroke markers" d=" M 211.94957554275325 242.91139490193052 L 202.85448960389138 237.4543433386134 L 197.39743804057326 246.5494292774755 L 206.49252397943613 252.00648084079236 L 211.94957554275325 242.91139490193052" stroke-opacity="0.6980392156862745" stroke-linecap="round" stroke-linejoin="round" stroke-miterlimit="10" stroke-width="0.5"/><path fill="rgb(0,204,0)" stroke="none" paint-order="stroke fill markers" d=" M 195.0651273371748 65.72478777137604 C 198.23748288601908 67.62820110068259 201.73454026646232 68.92842093323048 205.379830102202 69.55983525356083 L 210.5000000000006 39.99999999999977 Z" fill-opacity="0.09803921568627451"/><path fill="none" stroke="rgb(0,204,0)" paint-order="fill stroke markers" d=" M 195.0651273371748 65.72478777137604 C 198.23748288601908 67.62820110068259 201.73454026646232 68.92842093323048 205.379830102202 69.55983525356083 L 210.5000000000006 39.99999999999977 Z" stroke-opacity="0.6980392156862745" stroke-linecap="round" stroke-linejoin="round" stroke-miterlimit="10"/><path fill="none" stroke="rgb(0,204,0)" paint-order="fill stroke markers" d=" M 197.63760611431243 61.43732314281334 C 200.28123573834935 63.023500917235424 203.19545022205205 64.10701744435869 206.23319175183508 64.63319604463402" stroke-opacity="0.6980392156862745" stroke-linecap="round" stroke-linejoin="round" stroke-miterlimit="10"/><path fill="rgb(0,204,0)" stroke="none" paint-order="stroke fill markers" d=" M 205.379830102202 69.55983525356083 C 209.0251199379416 70.19124957389124 212.7557566941418 70.14296574272817 216.38348405414612 69.41742027072735 L 210.5000000000006 39.99999999999977 Z" fill-opacity="0.09803921568627451"/><path fill="none" stroke="rgb(0,204,0)" paint-order="fill stroke markers" d=" M 205.379830102202 69.55983525356083 C 209.0251199379416 70.19124957389124 212.7557566941418 70.14296574272817 216.38348405414612 69.41742027072735 L 210.5000000000006 39.99999999999977 Z" stroke-opacity="0.6980392156862745" stroke-linecap="round" stroke-linejoin="round" stroke-miterlimit="10"/><path fill="none" stroke="rgb(0,204,0)" paint-order="fill stroke markers" d=" M 206.23319175183508 64.63319604463402 C 209.2709332816181 65.15937464490935 212.37979724511825 65.1191381189401 215.4029033784552 64.51451689227275" stroke-opacity="0.6980392156862745" stroke-linecap="round" stroke-linejoin="round" stroke-miterlimit="10"/><path fill="rgb(255,0,0)" stroke="none" paint-order="stroke fill markers" fill-rule="evenodd" d=" M 160.50000000000045 289.9999999999999 L 149.89339828220295 289.9999999999999 L 149.89339828220224 300.60660171779807 L 160.50000000000045 300.6066017177974 L 160.50000000000045 289.9999999999999" fill-opacity="0.09803921568627451"/><path fill="none" stroke="rgb(255,0,0)" paint-order="fill stroke markers" d=" M 160.50000000000045 289.9999999999999 L 149.89339828220295 289.9999999999999 L 149.89339828220224 300.60660171779807 L 160.50000000000045 300.6066017177974 L 160.50000000000045 289.9999999999999" stroke-opacity="0.6980392156862745" stroke-linecap="round" stroke-linejoin="round" stroke-miterlimit="10" stroke-width="0.5"/><path fill="rgb(0,204,0)" stroke="none" paint-order="stroke fill markers" d=" M 230.50000000000077 289.9999999999999 C 230.50000000000077 293.6995705197312 231.18429187044435 297.3672300692407 232.5183447053586 300.8179003032854 L 260.50000000000074 289.9999999999999 Z" fill-opacity="0.09803921568627451"/><path fill="none" stroke="rgb(0,204,0)" paint-order="fill stroke markers" d=" M 230.50000000000077 289.9999999999999 C 230.50000000000077 293.6995705197312 231.18429187044435 297.3672300692407 232.5183447053586 300.8179003032854 L 260.50000000000074 289.9999999999999 Z" stroke-opacity="0.6980392156862745" stroke-linecap="round" stroke-linejoin="round" stroke-miterlimit="10"/><path fill="none" stroke="rgb(0,204,0)" paint-order="fill stroke markers" d=" M 235.50000000000077 289.9999999999999 C 235.50000000000077 293.0829754331093 236.07024322537038 296.1393583910339 237.18195392113228 299.0149169194045" stroke-opacity="0.6980392156862745" stroke-linecap="round" stroke-linejoin="round" stroke-miterlimit="10"/><path fill="none" stroke="rgb(0,100,0)" paint-order="fill stroke markers" d=" M 60.500000000000156 289.9999999999999 L 210.5000000000006 39.99999999999977" stroke-opacity="0.6980392156862745" stroke-linecap="round" stroke-linejoin="round" stroke-miterlimit="10"/><path fill="none" stroke="rgb(0,100,0)" paint-order="fill stroke markers" d=" M 210.5000000000006 39.99999999999977 L 260.50000000000074 289.9999999999999" stroke-opacity="0.6980392156862745" stroke-linecap="round" stroke-linejoin="round" stroke-miterlimit="10"/><path fill="none" stroke="rgb(0,100,0)" paint-order="fill stroke markers" d=" M 152.39637472913682 201.93161770839995 L 147.76591293028906 209.64905403981285" stroke-opacity="0.6980392156862745" stroke-linecap="round" stroke-linejoin="round" stroke-miterlimit="10"/><path fill="none" stroke="rgb(0,100,0)" paint-order="fill stroke markers" d=" M 121.36397812811252 188.56003645314618 L 178.79830953131338 223.02063529506665" stroke-opacity="0.6980392156862745" stroke-linecap="round" stroke-linejoin="round" stroke-miterlimit="10"/><path fill="none" stroke="rgb(0,100,0)" paint-order="fill stroke markers" d=" M 209.8307061323377 236.39221655032043 L 205.20024433349 244.10965288173333" stroke-opacity="0.6980392156862745" stroke-linecap="round" stroke-linejoin="round" stroke-miterlimit="10"/><path fill="none" stroke="rgb(0,100,0)" paint-order="fill stroke markers" d=" M 178.79830953131338 223.02063529506665 L 236.23264093451428 257.4812341369871" stroke-opacity="0.6980392156862745" stroke-linecap="round" stroke-linejoin="round" stroke-miterlimit="10"/><path fill="none" stroke="rgb(0,100,0)" paint-order="fill stroke markers" d=" M 160.50000000000045 328.66068747318496 L 160.50000000000045 289.9999999999999" stroke-opacity="0.6980392156862745" stroke-linecap="round" stroke-linejoin="round" stroke-miterlimit="10"/><path fill="none" stroke="rgb(255,85,0)" paint-order="fill stroke markers" d=" M 207.24505172898697 305.76413962675446 L 210.49042181997262 314.15863621514706" stroke-opacity="0.6980392156862745" stroke-linecap="round" stroke-linejoin="round" stroke-miterlimit="10"/><path fill="none" stroke="rgb(255,85,0)" paint-order="fill stroke markers" d=" M 210.50957818002857 304.50205125803785 L 213.75494827101423 312.89654784643045" stroke-opacity="0.6980392156862745" stroke-linecap="round" stroke-linejoin="round" stroke-miterlimit="10"/><path fill="none" stroke="rgb(255,85,0)" paint-order="fill stroke markers" d=" M 160.50000000000045 328.66068747318496 L 260.50000000000074 289.9999999999999" stroke-opacity="0.6980392156862745" stroke-linecap="round" stroke-linejoin="round" stroke-miterlimit="10"/><path fill="none" stroke="rgb(255,85,0)" paint-order="fill stroke markers" d=" M 160.50000000000045 328.66068747318496 L 211.94957554275325 242.91139490193052" stroke-opacity="0.6980392156862745" stroke-linecap="round" stroke-linejoin="round" stroke-miterlimit="10"/><path fill="none" stroke="rgb(255,85,0)" paint-order="fill stroke markers" d=" M 107.00000000000031 285.4999999999999 L 107.00000000000031 294.4999999999999" stroke-opacity="0.6980392156862745" stroke-linecap="round" stroke-linejoin="round" stroke-miterlimit="10"/><path fill="none" stroke="rgb(255,85,0)" paint-order="fill stroke markers" d=" M 110.50000000000031 285.4999999999999 L 110.50000000000031 294.4999999999999" stroke-opacity="0.6980392156862745" stroke-linecap="round" stroke-linejoin="round" stroke-miterlimit="10"/><path fill="none" stroke="rgb(255,85,0)" paint-order="fill stroke markers" d=" M 114.00000000000031 285.4999999999999 L 114.00000000000031 294.4999999999999" stroke-opacity="0.6980392156862745" stroke-linecap="round" stroke-linejoin="round" stroke-miterlimit="10"/><path fill="none" stroke="rgb(255,85,0)" paint-order="fill stroke markers" d=" M 60.500000000000156 289.9999999999999 L 160.50000000000045 289.9999999999999" stroke-opacity="0.6980392156862745" stroke-linecap="round" stroke-linejoin="round" stroke-miterlimit="10"/><path fill="none" stroke="rgb(255,85,0)" paint-order="fill stroke markers" d=" M 207.0000000000006 285.4999999999999 L 207.0000000000006 294.4999999999999" stroke-opacity="0.6980392156862745" stroke-linecap="round" stroke-linejoin="round" stroke-miterlimit="10"/><path fill="none" stroke="rgb(255,85,0)" paint-order="fill stroke markers" d=" M 210.5000000000006 285.4999999999999 L 210.5000000000006 294.4999999999999" stroke-opacity="0.6980392156862745" stroke-linecap="round" stroke-linejoin="round" stroke-miterlimit="10"/><path fill="none" stroke="rgb(255,85,0)" paint-order="fill stroke markers" d=" M 214.0000000000006 285.4999999999999 L 214.0000000000006 294.4999999999999" stroke-opacity="0.6980392156862745" stroke-linecap="round" stroke-linejoin="round" stroke-miterlimit="10"/><path fill="none" stroke="rgb(255,85,0)" paint-order="fill stroke markers" d=" M 160.50000000000045 289.9999999999999 L 260.50000000000074 289.9999999999999" stroke-opacity="0.6980392156862745" stroke-linecap="round" stroke-linejoin="round" stroke-miterlimit="10"/><path fill="none" stroke="rgb(0,100,0)" paint-order="fill stroke markers" d=" M 210.5000000000006 39.99999999999977 L 178.79830953131338 223.02063529506665" stroke-opacity="0.6980392156862745" stroke-linecap="round" stroke-linejoin="round" stroke-miterlimit="10"/><path fill="none" stroke="rgb(255,85,0)" paint-order="fill stroke markers" d=" M 174.3818066310627 274.8843631456712 L 165.51385605499436 273.3483121763316" stroke-opacity="0.6980392156862745" stroke-linecap="round" stroke-linejoin="round" stroke-miterlimit="10"/><path fill="none" stroke="rgb(255,85,0)" paint-order="fill stroke markers" d=" M 173.7844534763195 278.3330105919201 L 164.91650290025117 276.79695962258046" stroke-opacity="0.6980392156862745" stroke-linecap="round" stroke-linejoin="round" stroke-miterlimit="10"/><path fill="none" stroke="rgb(255,85,0)" paint-order="fill stroke markers" d=" M 178.79830953131338 223.02063529506665 L 160.50000000000045 328.66068747318496" stroke-opacity="0.6980392156862745" stroke-linecap="round" stroke-linejoin="round" stroke-miterlimit="10"/><path fill="none" stroke="rgb(255,85,0)" paint-order="fill stroke markers" d=" M 110.50957818002827 314.15863621514706 L 113.75494827101393 305.76413962675446" stroke-opacity="0.6980392156862745" stroke-linecap="round" stroke-linejoin="round" stroke-miterlimit="10"/><path fill="none" stroke="rgb(255,85,0)" paint-order="fill stroke markers" d=" M 107.2450517289867 312.89654784643045 L 110.49042181997235 304.50205125803785" stroke-opacity="0.6980392156862745" stroke-linecap="round" stroke-linejoin="round" stroke-miterlimit="10"/><path fill="none" stroke="rgb(255,85,0)" paint-order="fill stroke markers" d=" M 160.50000000000045 328.66068747318496 L 60.500000000000156 289.9999999999999" stroke-opacity="0.6980392156862745" stroke-linecap="round" stroke-linejoin="round" stroke-miterlimit="10"/><path fill="rgb(0,0,255)" stroke="none" paint-order="stroke fill markers" d=" M 62.500000000000156 289.9999999999999 C 62.500000000000156 291.10456949966147 61.60456949966174 291.9999999999999 60.500000000000156 291.9999999999999 C 59.39543050033857 291.9999999999999 58.500000000000156 291.10456949966147 58.500000000000156 289.9999999999999 C 58.500000000000156 288.8954305003383 59.39543050033857 287.9999999999999 60.500000000000156 287.9999999999999 C 61.60456949966174 287.9999999999999 62.500000000000156 288.8954305003383 62.500000000000156 289.9999999999999 Z" fill-opacity="1"/><path fill="none" stroke="rgb(0,0,0)" paint-order="fill stroke markers" d=" M 62.500000000000156 289.9999999999999 C 62.500000000000156 291.10456949966147 61.60456949966174 291.9999999999999 60.500000000000156 291.9999999999999 C 59.39543050033857 291.9999999999999 58.500000000000156 291.10456949966147 58.500000000000156 289.9999999999999 C 58.500000000000156 288.8954305003383 59.39543050033857 287.9999999999999 60.500000000000156 287.9999999999999 C 61.60456949966174 287.9999999999999 62.500000000000156 288.8954305003383 62.500000000000156 289.9999999999999 Z" stroke-opacity="1" stroke-linecap="round" stroke-linejoin="round" stroke-miterlimit="10"/><text fill="rgb(0,0,255)" stroke="none" font-family="geogebra-sans-serif, sans-serif" font-size="16px" font-style="normal" font-weight="normal" text-decoration="normal" x="36" y="299" text-anchor="start" dominant-baseline="alphabetic" fill-opacity="1">A</text><text fill="none" stroke="rgb(255,255,255)" font-family="geogebra-sans-serif, sans-serif" font-size="16px" font-style="normal" font-weight="normal" text-decoration="normal" x="36" y="299" text-anchor="start" dominant-baseline="alphabetic" stroke-opacity="1" stroke-linejoin="bevel" stroke-miterlimit="10" stroke-width="3">A</text><text fill="rgb(0,0,255)" stroke="none" font-family="geogebra-sans-serif, sans-serif" font-size="16px" font-style="normal" font-weight="normal" text-decoration="normal" x="36" y="299" text-anchor="start" dominant-baseline="alphabetic" fill-opacity="1">A</text><path fill="rgb(0,0,255)" stroke="none" paint-order="stroke fill markers" d=" M 212.5000000000006 39.99999999999977 C 212.5000000000006 41.10456949966136 211.60456949966218 41.99999999999977 210.5000000000006 41.99999999999977 C 209.39543050033902 41.99999999999977 208.5000000000006 41.10456949966136 208.5000000000006 39.99999999999977 C 208.5000000000006 38.895430500338186 209.39543050033902 37.99999999999977 210.5000000000006 37.99999999999977 C 211.60456949966218 37.99999999999977 212.5000000000006 38.895430500338186 212.5000000000006 39.99999999999977 Z" fill-opacity="1"/><path fill="none" stroke="rgb(0,0,0)" paint-order="fill stroke markers" d=" M 212.5000000000006 39.99999999999977 C 212.5000000000006 41.10456949966136 211.60456949966218 41.99999999999977 210.5000000000006 41.99999999999977 C 209.39543050033902 41.99999999999977 208.5000000000006 41.10456949966136 208.5000000000006 39.99999999999977 C 208.5000000000006 38.895430500338186 209.39543050033902 37.99999999999977 210.5000000000006 37.99999999999977 C 211.60456949966218 37.99999999999977 212.5000000000006 38.895430500338186 212.5000000000006 39.99999999999977 Z" stroke-opacity="1" stroke-linecap="round" stroke-linejoin="round" stroke-miterlimit="10"/><text fill="rgb(0,0,255)" stroke="none" font-family="geogebra-sans-serif, sans-serif" font-size="16px" font-style="normal" font-weight="normal" text-decoration="normal" x="216" y="30" text-anchor="start" dominant-baseline="alphabetic" fill-opacity="1">B</text><text fill="none" stroke="rgb(255,255,255)" font-family="geogebra-sans-serif, sans-serif" font-size="16px" font-style="normal" font-weight="normal" text-decoration="normal" x="216" y="30" text-anchor="start" dominant-baseline="alphabetic" stroke-opacity="1" stroke-linejoin="bevel" stroke-miterlimit="10" stroke-width="3">B</text><text fill="rgb(0,0,255)" stroke="none" font-family="geogebra-sans-serif, sans-serif" font-size="16px" font-style="normal" font-weight="normal" text-decoration="normal" x="216" y="30" text-anchor="start" dominant-baseline="alphabetic" fill-opacity="1">B</text><path fill="rgb(0,0,255)" stroke="none" paint-order="stroke fill markers" d=" M 262.50000000000074 289.9999999999999 C 262.50000000000074 291.10456949966147 261.6045694996623 291.9999999999999 260.50000000000074 291.9999999999999 C 259.39543050033916 291.9999999999999 258.50000000000074 291.10456949966147 258.50000000000074 289.9999999999999 C 258.50000000000074 288.8954305003383 259.39543050033916 287.9999999999999 260.50000000000074 287.9999999999999 C 261.6045694996623 287.9999999999999 262.50000000000074 288.8954305003383 262.50000000000074 289.9999999999999 Z" fill-opacity="1"/><path fill="none" stroke="rgb(0,0,0)" paint-order="fill stroke markers" d=" M 262.50000000000074 289.9999999999999 C 262.50000000000074 291.10456949966147 261.6045694996623 291.9999999999999 260.50000000000074 291.9999999999999 C 259.39543050033916 291.9999999999999 258.50000000000074 291.10456949966147 258.50000000000074 289.9999999999999 C 258.50000000000074 288.8954305003383 259.39543050033916 287.9999999999999 260.50000000000074 287.9999999999999 C 261.6045694996623 287.9999999999999 262.50000000000074 288.8954305003383 262.50000000000074 289.9999999999999 Z" stroke-opacity="1" stroke-linecap="round" stroke-linejoin="round" stroke-miterlimit="10"/><text fill="rgb(0,0,255)" stroke="none" font-family="geogebra-sans-serif, sans-serif" font-size="16px" font-style="normal" font-weight="normal" text-decoration="normal" x="277" y="304" text-anchor="start" dominant-baseline="alphabetic" fill-opacity="1">C</text><text fill="none" stroke="rgb(255,255,255)" font-family="geogebra-sans-serif, sans-serif" font-size="16px" font-style="normal" font-weight="normal" text-decoration="normal" x="277" y="304" text-anchor="start" dominant-baseline="alphabetic" stroke-opacity="1" stroke-linejoin="bevel" stroke-miterlimit="10" stroke-width="3">C</text><text fill="rgb(0,0,255)" stroke="none" font-family="geogebra-sans-serif, sans-serif" font-size="16px" font-style="normal" font-weight="normal" text-decoration="normal" x="277" y="304" text-anchor="start" dominant-baseline="alphabetic" fill-opacity="1">C</text><path fill="rgb(0,0,255)" stroke="none" paint-order="stroke fill markers" d=" M 180.79830953131338 223.02063529506665 C 180.79830953131338 224.12520479472823 179.90287903097496 225.02063529506665 178.79830953131338 225.02063529506665 C 177.6937400316518 225.02063529506665 176.79830953131338 224.12520479472823 176.79830953131338 223.02063529506665 C 176.79830953131338 221.91606579540507 177.6937400316518 221.02063529506665 178.79830953131338 221.02063529506665 C 179.90287903097496 221.02063529506665 180.79830953131338 221.91606579540507 180.79830953131338 223.02063529506665 Z" fill-opacity="1"/><path fill="none" stroke="rgb(0,0,0)" paint-order="fill stroke markers" d=" M 180.79830953131338 223.02063529506665 C 180.79830953131338 224.12520479472823 179.90287903097496 225.02063529506665 178.79830953131338 225.02063529506665 C 177.6937400316518 225.02063529506665 176.79830953131338 224.12520479472823 176.79830953131338 223.02063529506665 C 176.79830953131338 221.91606579540507 177.6937400316518 221.02063529506665 178.79830953131338 221.02063529506665 C 179.90287903097496 221.02063529506665 180.79830953131338 221.91606579540507 180.79830953131338 223.02063529506665 Z" stroke-opacity="1" stroke-linecap="round" stroke-linejoin="round" stroke-miterlimit="10"/><text fill="rgb(0,0,255)" stroke="none" font-family="geogebra-sans-serif, sans-serif" font-size="16px" font-style="normal" font-weight="normal" text-decoration="normal" x="187" y="217" text-anchor="start" dominant-baseline="alphabetic" fill-opacity="1">I</text><text fill="none" stroke="rgb(255,255,255)" font-family="geogebra-sans-serif, sans-serif" font-size="16px" font-style="normal" font-weight="normal" text-decoration="normal" x="187" y="217" text-anchor="start" dominant-baseline="alphabetic" stroke-opacity="1" stroke-linejoin="bevel" stroke-miterlimit="10" stroke-width="3">I</text><text fill="rgb(0,0,255)" stroke="none" font-family="geogebra-sans-serif, sans-serif" font-size="16px" font-style="normal" font-weight="normal" text-decoration="normal" x="187" y="217" text-anchor="start" dominant-baseline="alphabetic" fill-opacity="1">I</text><path fill="rgb(0,0,255)" stroke="none" paint-order="stroke fill markers" d=" M 123.36397812811252 188.56003645314618 C 123.36397812811252 189.66460595280776 122.46854762777411 190.56003645314618 121.36397812811252 190.56003645314618 C 120.25940862845093 190.56003645314618 119.36397812811252 189.66460595280776 119.36397812811252 188.56003645314618 C 119.36397812811252 187.4554669534846 120.25940862845093 186.56003645314618 121.36397812811252 186.56003645314618 C 122.46854762777411 186.56003645314618 123.36397812811252 187.4554669534846 123.36397812811252 188.56003645314618 Z" fill-opacity="1"/><path fill="none" stroke="rgb(0,0,0)" paint-order="fill stroke markers" d=" M 123.36397812811252 188.56003645314618 C 123.36397812811252 189.66460595280776 122.46854762777411 190.56003645314618 121.36397812811252 190.56003645314618 C 120.25940862845093 190.56003645314618 119.36397812811252 189.66460595280776 119.36397812811252 188.56003645314618 C 119.36397812811252 187.4554669534846 120.25940862845093 186.56003645314618 121.36397812811252 186.56003645314618 C 122.46854762777411 186.56003645314618 123.36397812811252 187.4554669534846 123.36397812811252 188.56003645314618 Z" stroke-opacity="1" stroke-linecap="round" stroke-linejoin="round" stroke-miterlimit="10"/><text fill="rgb(0,0,255)" stroke="none" font-family="geogebra-sans-serif, sans-serif" font-size="16px" font-style="normal" font-weight="normal" text-decoration="normal" x="101" y="184" text-anchor="start" dominant-baseline="alphabetic" fill-opacity="1">D</text><text fill="none" stroke="rgb(255,255,255)" font-family="geogebra-sans-serif, sans-serif" font-size="16px" font-style="normal" font-weight="normal" text-decoration="normal" x="101" y="184" text-anchor="start" dominant-baseline="alphabetic" stroke-opacity="1" stroke-linejoin="bevel" stroke-miterlimit="10" stroke-width="3">D</text><text fill="rgb(0,0,255)" stroke="none" font-family="geogebra-sans-serif, sans-serif" font-size="16px" font-style="normal" font-weight="normal" text-decoration="normal" x="101" y="184" text-anchor="start" dominant-baseline="alphabetic" fill-opacity="1">D</text><path fill="rgb(0,0,255)" stroke="none" paint-order="stroke fill markers" d=" M 238.23264093451428 257.4812341369871 C 238.23264093451428 258.5858036366487 237.33721043417586 259.4812341369871 236.23264093451428 259.4812341369871 C 235.1280714348527 259.4812341369871 234.23264093451428 258.5858036366487 234.23264093451428 257.4812341369871 C 234.23264093451428 256.3766646373255 235.1280714348527 255.4812341369871 236.23264093451428 255.4812341369871 C 237.33721043417586 255.4812341369871 238.23264093451428 256.3766646373255 238.23264093451428 257.4812341369871 Z" fill-opacity="1"/><path fill="none" stroke="rgb(0,0,0)" paint-order="fill stroke markers" d=" M 238.23264093451428 257.4812341369871 C 238.23264093451428 258.5858036366487 237.33721043417586 259.4812341369871 236.23264093451428 259.4812341369871 C 235.1280714348527 259.4812341369871 234.23264093451428 258.5858036366487 234.23264093451428 257.4812341369871 C 234.23264093451428 256.3766646373255 235.1280714348527 255.4812341369871 236.23264093451428 255.4812341369871 C 237.33721043417586 255.4812341369871 238.23264093451428 256.3766646373255 238.23264093451428 257.4812341369871 Z" stroke-opacity="1" stroke-linecap="round" stroke-linejoin="round" stroke-miterlimit="10"/><text fill="rgb(0,0,255)" stroke="none" font-family="geogebra-sans-serif, sans-serif" font-size="16px" font-style="normal" font-weight="normal" text-decoration="normal" x="236" y="277" text-anchor="start" dominant-baseline="alphabetic" fill-opacity="1">K</text><text fill="none" stroke="rgb(255,255,255)" font-family="geogebra-sans-serif, sans-serif" font-size="16px" font-style="normal" font-weight="normal" text-decoration="normal" x="236" y="277" text-anchor="start" dominant-baseline="alphabetic" stroke-opacity="1" stroke-linejoin="bevel" stroke-miterlimit="10" stroke-width="3">K</text><text fill="rgb(0,0,255)" stroke="none" font-family="geogebra-sans-serif, sans-serif" font-size="16px" font-style="normal" font-weight="normal" text-decoration="normal" x="236" y="277" text-anchor="start" dominant-baseline="alphabetic" fill-opacity="1">K</text><path fill="rgb(0,0,255)" stroke="none" paint-order="stroke fill markers" d=" M 162.50000000000045 328.66068747318496 C 162.50000000000045 329.76525697284654 161.60456949966203 330.66068747318496 160.50000000000045 330.66068747318496 C 159.39543050033888 330.66068747318496 158.50000000000045 329.76525697284654 158.50000000000045 328.66068747318496 C 158.50000000000045 327.5561179735234 159.39543050033888 326.66068747318496 160.50000000000045 326.66068747318496 C 161.60456949966203 326.66068747318496 162.50000000000045 327.5561179735234 162.50000000000045 328.66068747318496 Z" fill-opacity="1"/><path fill="none" stroke="rgb(0,0,0)" paint-order="fill stroke markers" d=" M 162.50000000000045 328.66068747318496 C 162.50000000000045 329.76525697284654 161.60456949966203 330.66068747318496 160.50000000000045 330.66068747318496 C 159.39543050033888 330.66068747318496 158.50000000000045 329.76525697284654 158.50000000000045 328.66068747318496 C 158.50000000000045 327.5561179735234 159.39543050033888 326.66068747318496 160.50000000000045 326.66068747318496 C 161.60456949966203 326.66068747318496 162.50000000000045 327.5561179735234 162.50000000000045 328.66068747318496 Z" stroke-opacity="1" stroke-linecap="round" stroke-linejoin="round" stroke-miterlimit="10"/><text fill="rgb(0,0,255)" stroke="none" font-family="geogebra-sans-serif, sans-serif" font-size="16px" font-style="normal" font-weight="normal" text-decoration="normal" x="155" y="351" text-anchor="start" dominant-baseline="alphabetic" fill-opacity="1">P</text><text fill="none" stroke="rgb(255,255,255)" font-family="geogebra-sans-serif, sans-serif" font-size="16px" font-style="normal" font-weight="normal" text-decoration="normal" x="155" y="351" text-anchor="start" dominant-baseline="alphabetic" stroke-opacity="1" stroke-linejoin="bevel" stroke-miterlimit="10" stroke-width="3">P</text><text fill="rgb(0,0,255)" stroke="none" font-family="geogebra-sans-serif, sans-serif" font-size="16px" font-style="normal" font-weight="normal" text-decoration="normal" x="155" y="351" text-anchor="start" dominant-baseline="alphabetic" fill-opacity="1">P</text><path fill="rgb(0,0,255)" stroke="none" paint-order="stroke fill markers" d=" M 213.94957554275325 242.91139490193052 C 213.94957554275325 244.0159644015921 213.05414504241483 244.91139490193052 211.94957554275325 244.91139490193052 C 210.84500604309167 244.91139490193052 209.94957554275325 244.0159644015921 209.94957554275325 242.91139490193052 C 209.94957554275325 241.80682540226894 210.84500604309167 240.91139490193052 211.94957554275325 240.91139490193052 C 213.05414504241483 240.91139490193052 213.94957554275325 241.80682540226894 213.94957554275325 242.91139490193052 Z" fill-opacity="1"/><path fill="none" stroke="rgb(0,0,0)" paint-order="fill stroke markers" d=" M 213.94957554275325 242.91139490193052 C 213.94957554275325 244.0159644015921 213.05414504241483 244.91139490193052 211.94957554275325 244.91139490193052 C 210.84500604309167 244.91139490193052 209.94957554275325 244.0159644015921 209.94957554275325 242.91139490193052 C 209.94957554275325 241.80682540226894 210.84500604309167 240.91139490193052 211.94957554275325 240.91139490193052 C 213.05414504241483 240.91139490193052 213.94957554275325 241.80682540226894 213.94957554275325 242.91139490193052 Z" stroke-opacity="1" stroke-linecap="round" stroke-linejoin="round" stroke-miterlimit="10"/><text fill="rgb(0,0,255)" stroke="none" font-family="geogebra-sans-serif, sans-serif" font-size="16px" font-style="normal" font-weight="normal" text-decoration="normal" x="216" y="229" text-anchor="start" dominant-baseline="alphabetic" fill-opacity="1">N</text><text fill="none" stroke="rgb(255,255,255)" font-family="geogebra-sans-serif, sans-serif" font-size="16px" font-style="normal" font-weight="normal" text-decoration="normal" x="216" y="229" text-anchor="start" dominant-baseline="alphabetic" stroke-opacity="1" stroke-linejoin="bevel" stroke-miterlimit="10" stroke-width="3">N</text><text fill="rgb(0,0,255)" stroke="none" font-family="geogebra-sans-serif, sans-serif" font-size="16px" font-style="normal" font-weight="normal" text-decoration="normal" x="216" y="229" text-anchor="start" dominant-baseline="alphabetic" fill-opacity="1">N</text><path fill="rgb(0,0,255)" stroke="none" paint-order="stroke fill markers" d=" M 162.50000000000045 289.9999999999999 C 162.50000000000045 291.10456949966147 161.60456949966203 291.9999999999999 160.50000000000045 291.9999999999999 C 159.39543050033888 291.9999999999999 158.50000000000045 291.10456949966147 158.50000000000045 289.9999999999999 C 158.50000000000045 288.8954305003383 159.39543050033888 287.9999999999999 160.50000000000045 287.9999999999999 C 161.60456949966203 287.9999999999999 162.50000000000045 288.8954305003383 162.50000000000045 289.9999999999999 Z" fill-opacity="1"/><path fill="none" stroke="rgb(0,0,0)" paint-order="fill stroke markers" d=" M 162.50000000000045 289.9999999999999 C 162.50000000000045 291.10456949966147 161.60456949966203 291.9999999999999 160.50000000000045 291.9999999999999 C 159.39543050033888 291.9999999999999 158.50000000000045 291.10456949966147 158.50000000000045 289.9999999999999 C 158.50000000000045 288.8954305003383 159.39543050033888 287.9999999999999 160.50000000000045 287.9999999999999 C 161.60456949966203 287.9999999999999 162.50000000000045 288.8954305003383 162.50000000000045 289.9999999999999 Z" stroke-opacity="1" stroke-linecap="round" stroke-linejoin="round" stroke-miterlimit="10"/><text fill="rgb(0,0,255)" stroke="none" font-family="geogebra-sans-serif, sans-serif" font-size="16px" font-style="normal" font-weight="normal" text-decoration="normal" x="132" y="310" text-anchor="start" dominant-baseline="alphabetic" fill-opacity="1">M</text><text fill="none" stroke="rgb(255,255,255)" font-family="geogebra-sans-serif, sans-serif" font-size="16px" font-style="normal" font-weight="normal" text-decoration="normal" x="132" y="310" text-anchor="start" dominant-baseline="alphabetic" stroke-opacity="1" stroke-linejoin="bevel" stroke-miterlimit="10" stroke-width="3">M</text><text fill="rgb(0,0,255)" stroke="none" font-family="geogebra-sans-serif, sans-serif" font-size="16px" font-style="normal" font-weight="normal" text-decoration="normal" x="132" y="310" text-anchor="start" dominant-baseline="alphabetic" fill-opacity="1">M</text></g></g></svg>