<svg version="1.1" xmlns="http://www.w3.org/2000/svg" xmlns:xlink="http://www.w3.org/1999/xlink" width="259" height="271"><defs><clipPath id="yWDSlgSEnTwJ"><path fill="none" stroke="none" d=" M 0 0 L 259 0 L 259 271 L 0 271 L 0 0 Z"/></clipPath></defs><g transform="scale(1,1)" clip-path="url(#yWDSlgSEnTwJ)"><g><rect fill="rgb(255,255,255)" stroke="none" x="0" y="0" width="259" height="271" fill-opacity="1"/><path fill="rgb(255,85,0)" stroke="none" paint-order="stroke fill markers" fill-rule="evenodd" d=" M 80.21738286168949 118.75022212302737 L 32.547418529739474 194.85573734573484 L 126.39365906907244 239.68173635682444 Z" fill-opacity="0.047058823529411764"/><path fill="rgb(255,85,0)" stroke="none" paint-order="stroke fill markers" fill-rule="evenodd" d=" M 94.35952619754133 155.78722355716474 L 126.39365906907244 239.68173635682444 L 218.70448051742326 191.77349808573734 Z" fill-opacity="0.047058823529411764"/><path fill="rgb(153,51,255)" stroke="none" paint-order="stroke fill markers" fill-rule="evenodd" d=" M 80.21738286168949 118.75022212302737 L 40.36533425994892 114.85572333455127 L 126.39365906907244 239.68173635682444 Z" fill-opacity="0.047058823529411764"/><path fill="rgb(153,51,255)" stroke="none" paint-order="stroke fill markers" fill-rule="evenodd" d=" M 94.35952619754133 155.78722355716474 L 133.44386525379082 113.3146037045525 L 126.39365906907244 239.68173635682444 Z" fill-opacity="0.047058823529411764"/><path fill="rgb(255,0,255)" stroke="none" paint-order="stroke fill markers" d=" M 46.23803768537756 54.760888274819706 C 52.482597991849964 55.37113124604454 58.651603374894066 53.01556910579416 62.900224952088465 48.398628062321905 L 48.183249990158366 34.85570932336766 Z" fill-opacity="0.09803921568627451"/><path fill="none" stroke="rgb(255,0,255)" paint-order="fill stroke markers" d=" M 46.23803768537756 54.760888274819706 C 52.482597991849964 55.37113124604454 58.651603374894066 53.01556910579416 62.900224952088465 48.398628062321905 L 48.183249990158366 34.85570932336766 Z" stroke-opacity="0.6980392156862745" stroke-linecap="round" stroke-linejoin="round" stroke-miterlimit="10"/><path fill="none" stroke="rgb(255,0,255)" paint-order="fill stroke markers" d=" M 54.24745458940418 50.73731574647503 L 56.38776209502035 56.3425886016894" stroke-opacity="0.6980392156862745" stroke-linecap="round" stroke-linejoin="round" stroke-miterlimit="10"/><path fill="rgb(255,0,0)" stroke="none" paint-order="stroke fill markers" fill-rule="evenodd" d=" M 73.84845988381075 102.07058567304108 L 71.3260832987348 95.4647082625032 L 64.72020588819636 97.98708484757888 L 67.24258247327293 104.59296225811705 L 73.84845988381075 102.07058567304108" fill-opacity="0.09803921568627451"/><path fill="none" stroke="rgb(255,0,0)" paint-order="fill stroke markers" d=" M 73.84845988381075 102.07058567304108 L 71.3260832987348 95.4647082625032 L 64.72020588819636 97.98708484757888 L 67.24258247327293 104.59296225811705 L 73.84845988381075 102.07058567304108" stroke-opacity="0.6980392156862745" stroke-linecap="round" stroke-linejoin="round" stroke-miterlimit="10" stroke-width="0.5"/><path fill="rgb(255,0,0)" stroke="none" paint-order="stroke fill markers" fill-rule="evenodd" d=" M 99.51366977746312 169.28546202271443 L 96.99129319238718 162.67958461217654 L 90.38541578184874 165.20196119725225 L 92.9077923669253 171.80783860779042 L 99.51366977746312 169.28546202271443" fill-opacity="0.09803921568627451"/><path fill="none" stroke="rgb(255,0,0)" paint-order="fill stroke markers" d=" M 99.51366977746312 169.28546202271443 L 96.99129319238718 162.67958461217654 L 90.38541578184874 165.20196119725225 L 92.9077923669253 171.80783860779042 L 99.51366977746312 169.28546202271443" stroke-opacity="0.6980392156862745" stroke-linecap="round" stroke-linejoin="round" stroke-miterlimit="10" stroke-width="0.5"/><path fill="rgb(255,0,0)" stroke="none" paint-order="stroke fill markers" fill-rule="evenodd" d=" M 122.17456579836461 228.63231055148538 L 128.78044320890243 226.1099339664094 L 126.25806662382675 219.5040565558709 L 119.65218921328865 222.0264331409475 L 122.17456579836461 228.63231055148538" fill-opacity="0.09803921568627451"/><path fill="none" stroke="rgb(255,0,0)" paint-order="fill stroke markers" d=" M 122.17456579836461 228.63231055148538 L 128.78044320890243 226.1099339664094 L 126.25806662382675 219.5040565558709 L 119.65218921328865 222.0264331409475 L 122.17456579836461 228.63231055148538" stroke-opacity="0.6980392156862745" stroke-linecap="round" stroke-linejoin="round" stroke-miterlimit="10" stroke-width="0.5"/><path fill="rgb(255,0,0)" stroke="none" paint-order="stroke fill markers" fill-rule="evenodd" d=" M 85.1789078942615 131.7440099374265 L 87.70128447933746 138.3498873479644 L 94.30716188987589 135.8275107628887 L 91.78478530479931 129.22163335235052 L 85.1789078942615 131.7440099374265" fill-opacity="0.09803921568627451"/><path fill="none" stroke="rgb(255,0,0)" paint-order="fill stroke markers" d=" M 85.1789078942615 131.7440099374265 L 87.70128447933746 138.3498873479644 L 94.30716188987589 135.8275107628887 L 91.78478530479931 129.22163335235052 L 85.1789078942615 131.7440099374265" stroke-opacity="0.6980392156862745" stroke-linecap="round" stroke-linejoin="round" stroke-miterlimit="10" stroke-width="0.5"/><path fill="none" stroke="rgb(0,100,0)" paint-order="fill stroke markers" d=" M 32.547418529739474 194.85573734573484 L 218.70448051742326 191.77349808573734" stroke-opacity="0.6980392156862745" stroke-linecap="round" stroke-linejoin="round" stroke-miterlimit="10"/><path fill="none" stroke="rgb(255,85,0)" paint-order="fill stroke markers" d=" M 79.82089162251528 211.89498091159098 L 75.51079645185185 220.91845472270293" stroke-opacity="0.6980392156862745" stroke-linecap="round" stroke-linejoin="round" stroke-miterlimit="10" stroke-width="1.5"/><path fill="none" stroke="rgb(255,85,0)" paint-order="fill stroke markers" d=" M 83.43028114696007 213.61901897985635 L 79.12018597629664 222.6424927909683" stroke-opacity="0.6980392156862745" stroke-linecap="round" stroke-linejoin="round" stroke-miterlimit="10" stroke-width="1.5"/><path fill="none" stroke="rgb(255,85,0)" paint-order="fill stroke markers" d=" M 32.547418529739474 194.85573734573484 L 126.39365906907244 239.68173635682444" stroke-opacity="0.6980392156862745" stroke-linecap="round" stroke-linejoin="round" stroke-miterlimit="10" stroke-width="1.5"/><path fill="none" stroke="rgb(255,85,0)" paint-order="fill stroke markers" d=" M 168.47067282761017 212.21098841080382 L 173.07713048527714 221.08682909482476" stroke-opacity="0.6980392156862745" stroke-linecap="round" stroke-linejoin="round" stroke-miterlimit="10" stroke-width="1.5"/><path fill="none" stroke="rgb(255,85,0)" paint-order="fill stroke markers" d=" M 172.02100910121854 210.36840534773702 L 176.6274667588855 219.24424603175797" stroke-opacity="0.6980392156862745" stroke-linecap="round" stroke-linejoin="round" stroke-miterlimit="10" stroke-width="1.5"/><path fill="none" stroke="rgb(255,85,0)" paint-order="fill stroke markers" d=" M 126.39365906907244 239.68173635682444 L 218.70448051742326 191.77349808573734" stroke-opacity="0.6980392156862745" stroke-linecap="round" stroke-linejoin="round" stroke-miterlimit="10" stroke-width="1.5"/><path fill="none" stroke="rgb(0,100,0)" paint-order="fill stroke markers" d=" M 133.44386525379082 113.3146037045525 L 94.35952619754133 155.78722355716474" stroke-opacity="0.6980392156862745" stroke-linecap="round" stroke-linejoin="round" stroke-miterlimit="10" stroke-width="1.5"/><path fill="none" stroke="rgb(0,100,0)" paint-order="fill stroke markers" d=" M 126.39365906907244 239.68173635682444 L 133.44386525379082 113.3146037045525" stroke-opacity="0.6980392156862745" stroke-linecap="round" stroke-linejoin="round" stroke-miterlimit="10" stroke-width="1.5"/><path fill="none" stroke="rgb(0,100,0)" paint-order="fill stroke markers" d=" M 126.39365906907244 239.68173635682444 L 40.36533425994892 114.85572333455127" stroke-opacity="0.6980392156862745" stroke-linecap="round" stroke-linejoin="round" stroke-miterlimit="10" stroke-width="1.5"/><path fill="none" stroke="rgb(0,100,0)" paint-order="fill stroke markers" d=" M 80.21738286168949 118.75022212302737 L 48.183249990158366 34.85570932336766" stroke-opacity="0.6980392156862745" stroke-linecap="round" stroke-linejoin="round" stroke-miterlimit="10"/><path fill="none" stroke="rgb(0,100,0)" paint-order="fill stroke markers" d=" M 40.36533425994892 114.85572333455127 L 80.21738286168949 118.75022212302737" stroke-opacity="0.6980392156862745" stroke-linecap="round" stroke-linejoin="round" stroke-miterlimit="10" stroke-width="1.5"/><path fill="none" stroke="rgb(255,85,0)" paint-order="fill stroke markers" d=" M 94.35952619754133 155.78722355716474 L 126.39365906907244 239.68173635682444" stroke-opacity="0.6980392156862745" stroke-linecap="round" stroke-linejoin="round" stroke-miterlimit="10" stroke-width="1.5"/><path fill="none" stroke="rgb(0,100,0)" paint-order="fill stroke markers" d=" M 39.79562686097694 74.41804356038378 L 48.75295738913036 75.29338909753514" stroke-opacity="0.6980392156862745" stroke-linecap="round" stroke-linejoin="round" stroke-miterlimit="10"/><path fill="none" stroke="rgb(0,100,0)" paint-order="fill stroke markers" d=" M 40.36533425994892 114.85572333455127 L 48.183249990158366 34.85570932336766" stroke-opacity="0.6980392156862745" stroke-linecap="round" stroke-linejoin="round" stroke-miterlimit="10"/><path fill="none" stroke="rgb(0,100,0)" paint-order="fill stroke markers" d=" M 92.57297902907042 69.58883175786728 L 86.47866559654098 76.21147049073586" stroke-opacity="0.6980392156862745" stroke-linecap="round" stroke-linejoin="round" stroke-miterlimit="10"/><path fill="none" stroke="rgb(0,100,0)" paint-order="fill stroke markers" d=" M 95.14844964740821 71.95884253718428 L 89.05413621487877 78.58148127005286" stroke-opacity="0.6980392156862745" stroke-linecap="round" stroke-linejoin="round" stroke-miterlimit="10"/><path fill="none" stroke="rgb(0,100,0)" paint-order="fill stroke markers" d=" M 48.183249990158366 34.85570932336766 L 133.44386525379082 113.3146037045525" stroke-opacity="0.6980392156862745" stroke-linecap="round" stroke-linejoin="round" stroke-miterlimit="10"/><path fill="none" stroke="rgb(255,85,0)" paint-order="fill stroke markers" d=" M 32.547418529739474 194.85573734573484 L 80.21738286168949 118.75022212302737" stroke-opacity="0.6980392156862745" stroke-linecap="round" stroke-linejoin="round" stroke-miterlimit="10" stroke-width="1.5"/><path fill="none" stroke="rgb(255,85,0)" paint-order="fill stroke markers" d=" M 94.35952619754133 155.78722355716474 L 218.70448051742326 191.77349808573734" stroke-opacity="0.6980392156862745" stroke-linecap="round" stroke-linejoin="round" stroke-miterlimit="10" stroke-width="1.5"/><path fill="none" stroke="rgb(0,100,0)" paint-order="fill stroke markers" d=" M 40.93504165892091 155.29340310871873 L 31.97771113076749 154.41805757156737" stroke-opacity="0.6980392156862745" stroke-linecap="round" stroke-linejoin="round" stroke-miterlimit="10"/><path fill="none" stroke="rgb(0,100,0)" paint-order="fill stroke markers" d=" M 40.36533425994892 114.85572333455127 L 32.547418529739474 194.85573734573484" stroke-opacity="0.6980392156862745" stroke-linecap="round" stroke-linejoin="round" stroke-miterlimit="10"/><path fill="none" stroke="rgb(0,100,0)" paint-order="fill stroke markers" d=" M 177.83359429270286 148.04772613905212 L 171.73928086017344 154.67036487192073" stroke-opacity="0.6980392156862745" stroke-linecap="round" stroke-linejoin="round" stroke-miterlimit="10"/><path fill="none" stroke="rgb(0,100,0)" paint-order="fill stroke markers" d=" M 180.40906491104062 150.41773691836912 L 174.3147514785112 157.04037565123772" stroke-opacity="0.6980392156862745" stroke-linecap="round" stroke-linejoin="round" stroke-miterlimit="10"/><path fill="none" stroke="rgb(0,100,0)" paint-order="fill stroke markers" d=" M 133.44386525379082 113.3146037045525 L 218.70448051742326 191.77349808573734" stroke-opacity="0.6980392156862745" stroke-linecap="round" stroke-linejoin="round" stroke-miterlimit="10"/><path fill="none" stroke="rgb(255,85,0)" paint-order="fill stroke markers" d=" M 80.21738286168949 118.75022212302737 L 94.35952619754133 155.78722355716474" stroke-opacity="0.6980392156862745" stroke-linecap="round" stroke-linejoin="round" stroke-miterlimit="10" stroke-width="1.5"/><path fill="none" stroke="rgb(102,102,102)" paint-order="fill stroke markers" d=" M 40.36533425994892 114.85572333455127 L 73.84845988381075 102.07058567304108" stroke-opacity="0.6980392156862745" stroke-linejoin="round" stroke-miterlimit="10" stroke-dasharray="1,3"/><path fill="none" stroke="rgb(102,102,102)" paint-order="fill stroke markers" d=" M 32.547418529739474 194.85573734573484 L 99.51366977746312 169.28546202271443" stroke-opacity="0.6980392156862745" stroke-linejoin="round" stroke-miterlimit="10" stroke-dasharray="1,3"/><path fill="none" stroke="rgb(102,102,102)" paint-order="fill stroke markers" d=" M 133.44386525379082 113.3146037045525 L 85.1789078942615 131.7440099374265" stroke-opacity="0.6980392156862745" stroke-linejoin="round" stroke-miterlimit="10" stroke-dasharray="1,3"/><path fill="none" stroke="rgb(102,102,102)" paint-order="fill stroke markers" d=" M 218.70448051742326 191.77349808573734 L 122.17456579836461 228.63231055148538" stroke-opacity="0.6980392156862745" stroke-linejoin="round" stroke-miterlimit="10" stroke-dasharray="1,3"/><path fill="rgb(0,0,255)" stroke="none" paint-order="stroke fill markers" d=" M 50.183249990158366 34.85570932336766 C 50.183249990158366 35.96027882302925 49.28781948981995 36.85570932336766 48.183249990158366 36.85570932336766 C 47.07868049049678 36.85570932336766 46.183249990158366 35.96027882302925 46.183249990158366 34.85570932336766 C 46.183249990158366 33.751139823706076 47.07868049049678 32.85570932336766 48.183249990158366 32.85570932336766 C 49.28781948981995 32.85570932336766 50.183249990158366 33.751139823706076 50.183249990158366 34.85570932336766 Z" fill-opacity="1"/><path fill="none" stroke="rgb(0,0,0)" paint-order="fill stroke markers" d=" M 50.183249990158366 34.85570932336766 C 50.183249990158366 35.96027882302925 49.28781948981995 36.85570932336766 48.183249990158366 36.85570932336766 C 47.07868049049678 36.85570932336766 46.183249990158366 35.96027882302925 46.183249990158366 34.85570932336766 C 46.183249990158366 33.751139823706076 47.07868049049678 32.85570932336766 48.183249990158366 32.85570932336766 C 49.28781948981995 32.85570932336766 50.183249990158366 33.751139823706076 50.183249990158366 34.85570932336766 Z" stroke-opacity="1" stroke-linecap="round" stroke-linejoin="round" stroke-miterlimit="10"/><text fill="rgb(0,0,255)" stroke="none" font-family="geogebra-sans-serif, sans-serif" font-size="16px" font-style="normal" font-weight="normal" text-decoration="normal" x="37" y="26" text-anchor="start" dominant-baseline="alphabetic" fill-opacity="1">C</text><text fill="none" stroke="rgb(255,255,255)" font-family="geogebra-sans-serif, sans-serif" font-size="16px" font-style="normal" font-weight="normal" text-decoration="normal" x="37" y="26" text-anchor="start" dominant-baseline="alphabetic" stroke-opacity="1" stroke-linejoin="bevel" stroke-miterlimit="10" stroke-width="3">C</text><text fill="rgb(0,0,255)" stroke="none" font-family="geogebra-sans-serif, sans-serif" font-size="16px" font-style="normal" font-weight="normal" text-decoration="normal" x="37" y="26" text-anchor="start" dominant-baseline="alphabetic" fill-opacity="1">C</text><path fill="rgb(0,0,255)" stroke="none" paint-order="stroke fill markers" d=" M 34.547418529739474 194.85573734573484 C 34.547418529739474 195.96030684539642 33.65198802940106 196.85573734573484 32.547418529739474 196.85573734573484 C 31.442849030077888 196.85573734573484 30.547418529739474 195.96030684539642 30.547418529739474 194.85573734573484 C 30.547418529739474 193.75116784607326 31.442849030077888 192.85573734573484 32.547418529739474 192.85573734573484 C 33.65198802940106 192.85573734573484 34.547418529739474 193.75116784607326 34.547418529739474 194.85573734573484 Z" fill-opacity="1"/><path fill="none" stroke="rgb(0,0,0)" paint-order="fill stroke markers" d=" M 34.547418529739474 194.85573734573484 C 34.547418529739474 195.96030684539642 33.65198802940106 196.85573734573484 32.547418529739474 196.85573734573484 C 31.442849030077888 196.85573734573484 30.547418529739474 195.96030684539642 30.547418529739474 194.85573734573484 C 30.547418529739474 193.75116784607326 31.442849030077888 192.85573734573484 32.547418529739474 192.85573734573484 C 33.65198802940106 192.85573734573484 34.547418529739474 193.75116784607326 34.547418529739474 194.85573734573484 Z" stroke-opacity="1" stroke-linecap="round" stroke-linejoin="round" stroke-miterlimit="10"/><text fill="rgb(0,0,255)" stroke="none" font-family="geogebra-sans-serif, sans-serif" font-size="16px" font-style="normal" font-weight="normal" text-decoration="normal" x="17" y="211" text-anchor="start" dominant-baseline="alphabetic" fill-opacity="1">A</text><text fill="none" stroke="rgb(255,255,255)" font-family="geogebra-sans-serif, sans-serif" font-size="16px" font-style="normal" font-weight="normal" text-decoration="normal" x="17" y="211" text-anchor="start" dominant-baseline="alphabetic" stroke-opacity="1" stroke-linejoin="bevel" stroke-miterlimit="10" stroke-width="3">A</text><text fill="rgb(0,0,255)" stroke="none" font-family="geogebra-sans-serif, sans-serif" font-size="16px" font-style="normal" font-weight="normal" text-decoration="normal" x="17" y="211" text-anchor="start" dominant-baseline="alphabetic" fill-opacity="1">A</text><path fill="rgb(0,0,255)" stroke="none" paint-order="stroke fill markers" d=" M 220.70448051742326 191.77349808573734 C 220.70448051742326 192.87806758539892 219.80905001708484 193.77349808573734 218.70448051742326 193.77349808573734 C 217.59991101776168 193.77349808573734 216.70448051742326 192.87806758539892 216.70448051742326 191.77349808573734 C 216.70448051742326 190.66892858607576 217.59991101776168 189.77349808573734 218.70448051742326 189.77349808573734 C 219.80905001708484 189.77349808573734 220.70448051742326 190.66892858607576 220.70448051742326 191.77349808573734 Z" fill-opacity="1"/><path fill="none" stroke="rgb(0,0,0)" paint-order="fill stroke markers" d=" M 220.70448051742326 191.77349808573734 C 220.70448051742326 192.87806758539892 219.80905001708484 193.77349808573734 218.70448051742326 193.77349808573734 C 217.59991101776168 193.77349808573734 216.70448051742326 192.87806758539892 216.70448051742326 191.77349808573734 C 216.70448051742326 190.66892858607576 217.59991101776168 189.77349808573734 218.70448051742326 189.77349808573734 C 219.80905001708484 189.77349808573734 220.70448051742326 190.66892858607576 220.70448051742326 191.77349808573734 Z" stroke-opacity="1" stroke-linecap="round" stroke-linejoin="round" stroke-miterlimit="10"/><text fill="rgb(0,0,255)" stroke="none" font-family="geogebra-sans-serif, sans-serif" font-size="16px" font-style="normal" font-weight="normal" text-decoration="normal" x="228" y="204" text-anchor="start" dominant-baseline="alphabetic" fill-opacity="1">B</text><text fill="none" stroke="rgb(255,255,255)" font-family="geogebra-sans-serif, sans-serif" font-size="16px" font-style="normal" font-weight="normal" text-decoration="normal" x="228" y="204" text-anchor="start" dominant-baseline="alphabetic" stroke-opacity="1" stroke-linejoin="bevel" stroke-miterlimit="10" stroke-width="3">B</text><text fill="rgb(0,0,255)" stroke="none" font-family="geogebra-sans-serif, sans-serif" font-size="16px" font-style="normal" font-weight="normal" text-decoration="normal" x="228" y="204" text-anchor="start" dominant-baseline="alphabetic" fill-opacity="1">B</text><path fill="rgb(0,0,255)" stroke="none" paint-order="stroke fill markers" d=" M 128.39365906907244 239.68173635682444 C 128.39365906907244 240.78630585648602 127.49822856873402 241.68173635682444 126.39365906907244 241.68173635682444 C 125.28908956941085 241.68173635682444 124.39365906907244 240.78630585648602 124.39365906907244 239.68173635682444 C 124.39365906907244 238.57716685716287 125.28908956941085 237.68173635682444 126.39365906907244 237.68173635682444 C 127.49822856873402 237.68173635682444 128.39365906907244 238.57716685716287 128.39365906907244 239.68173635682444 Z" fill-opacity="1"/><path fill="none" stroke="rgb(0,0,0)" paint-order="fill stroke markers" d=" M 128.39365906907244 239.68173635682444 C 128.39365906907244 240.78630585648602 127.49822856873402 241.68173635682444 126.39365906907244 241.68173635682444 C 125.28908956941085 241.68173635682444 124.39365906907244 240.78630585648602 124.39365906907244 239.68173635682444 C 124.39365906907244 238.57716685716287 125.28908956941085 237.68173635682444 126.39365906907244 237.68173635682444 C 127.49822856873402 237.68173635682444 128.39365906907244 238.57716685716287 128.39365906907244 239.68173635682444 Z" stroke-opacity="1" stroke-linecap="round" stroke-linejoin="round" stroke-miterlimit="10"/><text fill="rgb(0,0,255)" stroke="none" font-family="geogebra-sans-serif, sans-serif" font-size="16px" font-style="normal" font-weight="normal" text-decoration="normal" x="122" y="262" text-anchor="start" dominant-baseline="alphabetic" fill-opacity="1">R</text><text fill="none" stroke="rgb(255,255,255)" font-family="geogebra-sans-serif, sans-serif" font-size="16px" font-style="normal" font-weight="normal" text-decoration="normal" x="122" y="262" text-anchor="start" dominant-baseline="alphabetic" stroke-opacity="1" stroke-linejoin="bevel" stroke-miterlimit="10" stroke-width="3">R</text><text fill="rgb(0,0,255)" stroke="none" font-family="geogebra-sans-serif, sans-serif" font-size="16px" font-style="normal" font-weight="normal" text-decoration="normal" x="122" y="262" text-anchor="start" dominant-baseline="alphabetic" fill-opacity="1">R</text><path fill="rgb(0,0,255)" stroke="none" paint-order="stroke fill markers" d=" M 135.44386525379082 113.3146037045525 C 135.44386525379082 114.41917320421408 134.5484347534524 115.3146037045525 133.44386525379082 115.3146037045525 C 132.33929575412924 115.3146037045525 131.44386525379082 114.41917320421408 131.44386525379082 113.3146037045525 C 131.44386525379082 112.2100342048909 132.33929575412924 111.3146037045525 133.44386525379082 111.3146037045525 C 134.5484347534524 111.3146037045525 135.44386525379082 112.2100342048909 135.44386525379082 113.3146037045525 Z" fill-opacity="1"/><path fill="none" stroke="rgb(0,0,0)" paint-order="fill stroke markers" d=" M 135.44386525379082 113.3146037045525 C 135.44386525379082 114.41917320421408 134.5484347534524 115.3146037045525 133.44386525379082 115.3146037045525 C 132.33929575412924 115.3146037045525 131.44386525379082 114.41917320421408 131.44386525379082 113.3146037045525 C 131.44386525379082 112.2100342048909 132.33929575412924 111.3146037045525 133.44386525379082 111.3146037045525 C 134.5484347534524 111.3146037045525 135.44386525379082 112.2100342048909 135.44386525379082 113.3146037045525 Z" stroke-opacity="1" stroke-linecap="round" stroke-linejoin="round" stroke-miterlimit="10"/><text fill="rgb(0,0,255)" stroke="none" font-family="geogebra-sans-serif, sans-serif" font-size="16px" font-style="normal" font-weight="normal" text-decoration="normal" x="141" y="101" text-anchor="start" dominant-baseline="alphabetic" fill-opacity="1">K</text><text fill="none" stroke="rgb(255,255,255)" font-family="geogebra-sans-serif, sans-serif" font-size="16px" font-style="normal" font-weight="normal" text-decoration="normal" x="141" y="101" text-anchor="start" dominant-baseline="alphabetic" stroke-opacity="1" stroke-linejoin="bevel" stroke-miterlimit="10" stroke-width="3">K</text><text fill="rgb(0,0,255)" stroke="none" font-family="geogebra-sans-serif, sans-serif" font-size="16px" font-style="normal" font-weight="normal" text-decoration="normal" x="141" y="101" text-anchor="start" dominant-baseline="alphabetic" fill-opacity="1">K</text><path fill="rgb(0,0,255)" stroke="none" paint-order="stroke fill markers" d=" M 96.35952619754133 155.78722355716474 C 96.35952619754133 156.89179305682632 95.46409569720291 157.78722355716474 94.35952619754133 157.78722355716474 C 93.25495669787973 157.78722355716474 92.35952619754133 156.89179305682632 92.35952619754133 155.78722355716474 C 92.35952619754133 154.68265405750316 93.25495669787973 153.78722355716474 94.35952619754133 153.78722355716474 C 95.46409569720291 153.78722355716474 96.35952619754133 154.68265405750316 96.35952619754133 155.78722355716474 Z" fill-opacity="1"/><path fill="none" stroke="rgb(0,0,0)" paint-order="fill stroke markers" d=" M 96.35952619754133 155.78722355716474 C 96.35952619754133 156.89179305682632 95.46409569720291 157.78722355716474 94.35952619754133 157.78722355716474 C 93.25495669787973 157.78722355716474 92.35952619754133 156.89179305682632 92.35952619754133 155.78722355716474 C 92.35952619754133 154.68265405750316 93.25495669787973 153.78722355716474 94.35952619754133 153.78722355716474 C 95.46409569720291 153.78722355716474 96.35952619754133 154.68265405750316 96.35952619754133 155.78722355716474 Z" stroke-opacity="1" stroke-linecap="round" stroke-linejoin="round" stroke-miterlimit="10"/><text fill="rgb(0,0,255)" stroke="none" font-family="geogebra-sans-serif, sans-serif" font-size="16px" font-style="normal" font-weight="normal" text-decoration="normal" x="78" y="162" text-anchor="start" dominant-baseline="alphabetic" fill-opacity="1">P</text><text fill="none" stroke="rgb(255,255,255)" font-family="geogebra-sans-serif, sans-serif" font-size="16px" font-style="normal" font-weight="normal" text-decoration="normal" x="78" y="162" text-anchor="start" dominant-baseline="alphabetic" stroke-opacity="1" stroke-linejoin="bevel" stroke-miterlimit="10" stroke-width="3">P</text><text fill="rgb(0,0,255)" stroke="none" font-family="geogebra-sans-serif, sans-serif" font-size="16px" font-style="normal" font-weight="normal" text-decoration="normal" x="78" y="162" text-anchor="start" dominant-baseline="alphabetic" fill-opacity="1">P</text><path fill="rgb(0,0,255)" stroke="none" paint-order="stroke fill markers" d=" M 42.36533425994892 114.85572333455127 C 42.36533425994892 115.96029283421285 41.46990375961051 116.85572333455127 40.36533425994892 116.85572333455127 C 39.26076476028734 116.85572333455127 38.36533425994892 115.96029283421285 38.36533425994892 114.85572333455127 C 38.36533425994892 113.75115383488968 39.26076476028734 112.85572333455127 40.36533425994892 112.85572333455127 C 41.46990375961051 112.85572333455127 42.36533425994892 113.75115383488968 42.36533425994892 114.85572333455127 Z" fill-opacity="1"/><path fill="none" stroke="rgb(0,0,0)" paint-order="fill stroke markers" d=" M 42.36533425994892 114.85572333455127 C 42.36533425994892 115.96029283421285 41.46990375961051 116.85572333455127 40.36533425994892 116.85572333455127 C 39.26076476028734 116.85572333455127 38.36533425994892 115.96029283421285 38.36533425994892 114.85572333455127 C 38.36533425994892 113.75115383488968 39.26076476028734 112.85572333455127 40.36533425994892 112.85572333455127 C 41.46990375961051 112.85572333455127 42.36533425994892 113.75115383488968 42.36533425994892 114.85572333455127 Z" stroke-opacity="1" stroke-linecap="round" stroke-linejoin="round" stroke-miterlimit="10"/><text fill="rgb(0,0,255)" stroke="none" font-family="geogebra-sans-serif, sans-serif" font-size="16px" font-style="normal" font-weight="normal" text-decoration="normal" x="21" y="109" text-anchor="start" dominant-baseline="alphabetic" fill-opacity="1">L</text><text fill="none" stroke="rgb(255,255,255)" font-family="geogebra-sans-serif, sans-serif" font-size="16px" font-style="normal" font-weight="normal" text-decoration="normal" x="21" y="109" text-anchor="start" dominant-baseline="alphabetic" stroke-opacity="1" stroke-linejoin="bevel" stroke-miterlimit="10" stroke-width="3">L</text><text fill="rgb(0,0,255)" stroke="none" font-family="geogebra-sans-serif, sans-serif" font-size="16px" font-style="normal" font-weight="normal" text-decoration="normal" x="21" y="109" text-anchor="start" dominant-baseline="alphabetic" fill-opacity="1">L</text><path fill="rgb(0,0,255)" stroke="none" paint-order="stroke fill markers" d=" M 82.21738286168949 118.75022212302737 C 82.21738286168949 119.85479162268896 81.32195236135107 120.75022212302737 80.21738286168949 120.75022212302737 C 79.1128133620279 120.75022212302737 78.21738286168949 119.85479162268896 78.21738286168949 118.75022212302737 C 78.21738286168949 117.64565262336578 79.1128133620279 116.75022212302737 80.21738286168949 116.75022212302737 C 81.32195236135107 116.75022212302737 82.21738286168949 117.64565262336578 82.21738286168949 118.75022212302737 Z" fill-opacity="1"/><path fill="none" stroke="rgb(0,0,0)" paint-order="fill stroke markers" d=" M 82.21738286168949 118.75022212302737 C 82.21738286168949 119.85479162268896 81.32195236135107 120.75022212302737 80.21738286168949 120.75022212302737 C 79.1128133620279 120.75022212302737 78.21738286168949 119.85479162268896 78.21738286168949 118.75022212302737 C 78.21738286168949 117.64565262336578 79.1128133620279 116.75022212302737 80.21738286168949 116.75022212302737 C 81.32195236135107 116.75022212302737 82.21738286168949 117.64565262336578 82.21738286168949 118.75022212302737 Z" stroke-opacity="1" stroke-linecap="round" stroke-linejoin="round" stroke-miterlimit="10"/><text fill="rgb(0,0,255)" stroke="none" font-family="geogebra-sans-serif, sans-serif" font-size="16px" font-style="normal" font-weight="normal" text-decoration="normal" x="85" y="109" text-anchor="start" dominant-baseline="alphabetic" fill-opacity="1">Q</text><text fill="none" stroke="rgb(255,255,255)" font-family="geogebra-sans-serif, sans-serif" font-size="16px" font-style="normal" font-weight="normal" text-decoration="normal" x="85" y="109" text-anchor="start" dominant-baseline="alphabetic" stroke-opacity="1" stroke-linejoin="bevel" stroke-miterlimit="10" stroke-width="3">Q</text><text fill="rgb(0,0,255)" stroke="none" font-family="geogebra-sans-serif, sans-serif" font-size="16px" font-style="normal" font-weight="normal" text-decoration="normal" x="85" y="109" text-anchor="start" dominant-baseline="alphabetic" fill-opacity="1">Q</text></g></g></svg>