<svg version="1.1" xmlns="http://www.w3.org/2000/svg" xmlns:xlink="http://www.w3.org/1999/xlink" width="277" height="286"><defs><clipPath id="ckJSMZIpwtxI"><path fill="none" stroke="none" d=" M 0 0 L 277 0 L 277 286 L 0 286 L 0 0 Z"/></clipPath></defs><g transform="scale(1,1)" clip-path="url(#ckJSMZIpwtxI)"><g><rect fill="rgb(255,255,255)" stroke="none" x="0" y="0" width="277" height="286" fill-opacity="1"/><path fill="none" stroke="rgb(0,100,0)" paint-order="fill stroke markers" d=" M 254.844240028111 135.6520781912763 C 254.844240028111 200.246802078477 202.47987006564253 252.61117204094535 137.8851461784416 252.61117204094535 C 73.29042229124067 252.61117204094535 20.926052328772215 200.246802078477 20.926052328772215 135.6520781912763 C 20.926052328772215 71.05735430407556 73.29042229124067 18.69298434160727 137.8851461784416 18.69298434160727 C 202.47987006564253 18.69298434160727 254.844240028111 71.05735430407556 254.844240028111 135.6520781912763 Z" stroke-opacity="0.6980392156862745" stroke-linecap="round" stroke-linejoin="round" stroke-miterlimit="10"/><path fill="rgb(255,85,0)" stroke="none" paint-order="stroke fill markers" d=" M 59.74146711770069 62.286257275426465 C 62.05189276519781 62.509365773342594 64.38257345816614 62.19323517579835 66.55009019898712 61.36274420491685 L 61.183249990158366 47.35570932336903 Z" fill-opacity="0.09803921568627451"/><path fill="none" stroke="rgb(255,85,0)" paint-order="fill stroke markers" d=" M 59.74146711770069 62.286257275426465 C 62.05189276519781 62.509365773342594 64.38257345816614 62.19323517579835 66.55009019898712 61.36274420491685 L 61.183249990158366 47.35570932336903 Z" stroke-opacity="0.6980392156862745" stroke-linecap="round" stroke-linejoin="round" stroke-miterlimit="10"/><path fill="none" stroke="rgb(255,85,0)" paint-order="fill stroke markers" d=" M 62.79614559670964 59.246822297450414 L 63.60259339998528 65.19237878449111" stroke-opacity="0.6980392156862745" stroke-linecap="round" stroke-linejoin="round" stroke-miterlimit="10"/><path fill="rgb(255,85,0)" stroke="none" paint-order="stroke fill markers" d=" M 66.55009019898712 61.36274420491685 C 68.71760693980812 60.53225323403538 70.66281309205391 59.21006411271267 72.23262558274811 57.500229963294856 L 61.183249990158366 47.35570932336903 Z" fill-opacity="0.09803921568627451"/><path fill="none" stroke="rgb(255,85,0)" paint-order="fill stroke markers" d=" M 66.55009019898712 61.36274420491685 C 68.71760693980812 60.53225323403538 70.66281309205391 59.21006411271267 72.23262558274811 57.500229963294856 L 61.183249990158366 47.35570932336903 Z" stroke-opacity="0.6980392156862745" stroke-linecap="round" stroke-linejoin="round" stroke-miterlimit="10"/><path fill="none" stroke="rgb(255,85,0)" paint-order="fill stroke markers" d=" M 67.92904758576381 57.28013448551939 L 71.30194638356653 62.242347066594576" stroke-opacity="0.6980392156862745" stroke-linecap="round" stroke-linejoin="round" stroke-miterlimit="10"/><path fill="rgb(255,0,0)" stroke="none" paint-order="stroke fill markers" fill-rule="evenodd" d=" M 53.44423570897597 127.49795961233761 L 52.4247412628626 138.05545131606763 L 62.98223296659329 139.07494576218178 L 64.00172741270602 128.517454058451 L 53.44423570897597 127.49795961233761" fill-opacity="0.09803921568627451"/><path fill="none" stroke="rgb(255,0,0)" paint-order="fill stroke markers" d=" M 53.44423570897597 127.49795961233761 L 52.4247412628626 138.05545131606763 L 62.98223296659329 139.07494576218178 L 64.00172741270602 128.517454058451 L 53.44423570897597 127.49795961233761" stroke-opacity="0.6980392156862745" stroke-linecap="round" stroke-linejoin="round" stroke-miterlimit="10" stroke-width="0.5"/><path fill="rgb(255,0,0)" stroke="none" paint-order="stroke fill markers" fill-rule="evenodd" d=" M 146.79049216450454 125.95240719896714 L 139.61723282812656 133.76549560836392 L 147.4303212375234 140.9387549447429 L 154.60358057390135 133.12566653534512 L 146.79049216450454 125.95240719896714" fill-opacity="0.09803921568627451"/><path fill="none" stroke="rgb(255,0,0)" paint-order="fill stroke markers" d=" M 146.79049216450454 125.95240719896714 L 139.61723282812656 133.76549560836392 L 147.4303212375234 140.9387549447429 L 154.60358057390135 133.12566653534512 L 146.79049216450454 125.95240719896714" stroke-opacity="0.6980392156862745" stroke-linecap="round" stroke-linejoin="round" stroke-miterlimit="10" stroke-width="0.5"/><path fill="rgb(127,0,255)" stroke="none" paint-order="stroke fill markers" d=" M 98.73397959532649 145.36018848447816 C 104.04692502936358 143.32451645082983 107.75081115855883 138.45817550066192 108.29768733855522 132.794936475388 L 93.36713938649774 131.35315360293032 Z" fill-opacity="0.09803921568627451"/><path fill="none" stroke="rgb(127,0,255)" paint-order="fill stroke markers" d=" M 98.73397959532649 145.36018848447816 C 104.04692502936358 143.32451645082983 107.75081115855883 138.45817550066192 108.29768733855522 132.794936475388 L 93.36713938649774 131.35315360293032 Z" stroke-opacity="0.6980392156862745" stroke-linecap="round" stroke-linejoin="round" stroke-miterlimit="10"/><path fill="rgb(127,0,255)" stroke="none" paint-order="stroke fill markers" d=" M 117.78202686574265 157.54832383490273 C 113.59093788081087 153.700451314403 107.58361145102512 152.5549925122963 102.27066601698803 154.5906645459446 L 107.6375062258168 168.59769942749244 Z" fill-opacity="0.09803921568627451"/><path fill="none" stroke="rgb(127,0,255)" paint-order="fill stroke markers" d=" M 117.78202686574265 157.54832383490273 C 113.59093788081087 153.700451314403 107.58361145102512 152.5549925122963 102.27066601698803 154.5906645459446 L 107.6375062258168 168.59769942749244 Z" stroke-opacity="0.6980392156862745" stroke-linecap="round" stroke-linejoin="round" stroke-miterlimit="10"/><path fill="none" stroke="rgb(0,100,0)" paint-order="fill stroke markers" d=" M 45.70522142779357 207.64020990130618 L 232.39773433885074 204.5491050745652" stroke-opacity="0.6980392156862745" stroke-linecap="round" stroke-linejoin="round" stroke-miterlimit="10"/><path fill="none" stroke="rgb(0,100,0)" paint-order="fill stroke markers" d=" M 139.82139562215616 252.5951437070537 L 146.79049216450454 125.95240719896714" stroke-opacity="0.6980392156862745" stroke-linecap="round" stroke-linejoin="round" stroke-miterlimit="10"/><path fill="none" stroke="rgb(0,100,0)" paint-order="fill stroke markers" d=" M 139.82139562215616 252.5951437070537 L 53.44423570897597 127.49795961233761" stroke-opacity="0.6980392156862745" stroke-linecap="round" stroke-linejoin="round" stroke-miterlimit="10"/><path fill="none" stroke="rgb(0,100,0)" paint-order="fill stroke markers" d=" M 139.82139562215616 252.5951437070537 L 93.36713938649774 131.35315360293032" stroke-opacity="0.6980392156862745" stroke-linecap="round" stroke-linejoin="round" stroke-miterlimit="10"/><path fill="none" stroke="rgb(0,100,0)" paint-order="fill stroke markers" d=" M 93.36713938649774 131.35315360293032 L 61.183249990158366 47.35570932336903" stroke-opacity="0.6980392156862745" stroke-linecap="round" stroke-linejoin="round" stroke-miterlimit="10"/><path fill="none" stroke="rgb(0,100,0)" paint-order="fill stroke markers" d=" M 53.44423570897597 127.49795961233761 L 93.36713938649774 131.35315360293032" stroke-opacity="0.6980392156862745" stroke-linecap="round" stroke-linejoin="round" stroke-miterlimit="10"/><path fill="none" stroke="rgb(255,85,0)" paint-order="fill stroke markers" d=" M 116.93550518180575 138.1499882845073 L 117.80057490528034 129.19165951327278" stroke-opacity="0.6980392156862745" stroke-linecap="round" stroke-linejoin="round" stroke-miterlimit="10"/><path fill="none" stroke="rgb(255,85,0)" paint-order="fill stroke markers" d=" M 113.451710659659 137.81357228093384 L 114.31678038313359 128.85524350969933" stroke-opacity="0.6980392156862745" stroke-linecap="round" stroke-linejoin="round" stroke-miterlimit="10"/><path fill="none" stroke="rgb(255,85,0)" paint-order="fill stroke markers" d=" M 137.8851461784416 135.6520781912763 L 93.36713938649774 131.35315360293032" stroke-opacity="0.6980392156862745" stroke-linecap="round" stroke-linejoin="round" stroke-miterlimit="10"/><path fill="none" stroke="rgb(153,51,255)" paint-order="fill stroke markers" d=" M 137.8851461784416 135.6520781912763 L 146.79049216450454 125.95240719896714" stroke-opacity="0.6980392156862745" stroke-linecap="round" stroke-linejoin="round" stroke-miterlimit="10"/><path fill="none" stroke="rgb(255,85,0)" paint-order="fill stroke markers" d=" M 127.25966628789747 153.87915118222665 L 120.63004093234362 147.79243879827115" stroke-opacity="0.6980392156862745" stroke-linecap="round" stroke-linejoin="round" stroke-miterlimit="10"/><path fill="none" stroke="rgb(255,85,0)" paint-order="fill stroke markers" d=" M 124.89261147191478 156.4573388204976 L 118.26298611636092 150.3706264365421" stroke-opacity="0.6980392156862745" stroke-linecap="round" stroke-linejoin="round" stroke-miterlimit="10"/><path fill="none" stroke="rgb(255,85,0)" paint-order="fill stroke markers" d=" M 137.8851461784416 135.6520781912763 L 107.6375062258168 168.59769942749244" stroke-opacity="0.6980392156862745" stroke-linecap="round" stroke-linejoin="round" stroke-miterlimit="10"/><path fill="none" stroke="rgb(0,100,0)" paint-order="fill stroke markers" d=" M 52.834578463949924 86.99429960611602 L 61.7929072351844 87.85936932959063" stroke-opacity="0.6980392156862745" stroke-linecap="round" stroke-linejoin="round" stroke-miterlimit="10"/><path fill="none" stroke="rgb(0,100,0)" paint-order="fill stroke markers" d=" M 53.44423570897597 127.49795961233761 L 61.183249990158366 47.35570932336903" stroke-opacity="0.6980392156862745" stroke-linecap="round" stroke-linejoin="round" stroke-miterlimit="10"/><path fill="none" stroke="rgb(0,100,0)" paint-order="fill stroke markers" d=" M 105.74113345017373 82.1557181753998 L 99.65442106621823 88.78534353095365" stroke-opacity="0.6980392156862745" stroke-linecap="round" stroke-linejoin="round" stroke-miterlimit="10"/><path fill="none" stroke="rgb(0,100,0)" paint-order="fill stroke markers" d=" M 108.31932108844468 84.5227729913825 L 102.23260870448918 91.15239834693635" stroke-opacity="0.6980392156862745" stroke-linecap="round" stroke-linejoin="round" stroke-miterlimit="10"/><path fill="none" stroke="rgb(0,100,0)" paint-order="fill stroke markers" d=" M 61.183249990158366 47.35570932336903 L 146.79049216450454 125.95240719896714" stroke-opacity="0.6980392156862745" stroke-linecap="round" stroke-linejoin="round" stroke-miterlimit="10"/><path fill="none" stroke="rgb(0,100,0)" paint-order="fill stroke markers" d=" M 54.053892954002016 168.0016196185592 L 45.095564182767525 167.13654989508458" stroke-opacity="0.6980392156862745" stroke-linecap="round" stroke-linejoin="round" stroke-miterlimit="10"/><path fill="none" stroke="rgb(0,100,0)" paint-order="fill stroke markers" d=" M 53.44423570897597 127.49795961233761 L 45.70522142779357 207.64020990130618" stroke-opacity="0.6980392156862745" stroke-linecap="round" stroke-linejoin="round" stroke-miterlimit="10"/><path fill="none" stroke="rgb(0,100,0)" paint-order="fill stroke markers" d=" M 191.34837562451992 160.7524160509979 L 185.26166324056442 167.38204140655176" stroke-opacity="0.6980392156862745" stroke-linecap="round" stroke-linejoin="round" stroke-miterlimit="10"/><path fill="none" stroke="rgb(0,100,0)" paint-order="fill stroke markers" d=" M 193.92656326279086 163.11947086698058 L 187.83985087883536 169.74909622253443" stroke-opacity="0.6980392156862745" stroke-linecap="round" stroke-linejoin="round" stroke-miterlimit="10"/><path fill="none" stroke="rgb(0,100,0)" paint-order="fill stroke markers" d=" M 146.79049216450454 125.95240719896714 L 232.39773433885074 204.5491050745652" stroke-opacity="0.6980392156862745" stroke-linecap="round" stroke-linejoin="round" stroke-miterlimit="10"/><path fill="rgb(0,0,255)" stroke="none" paint-order="stroke fill markers" d=" M 139.8851461784416 135.6520781912763 C 139.8851461784416 136.75664769093788 138.98971567810318 137.6520781912763 137.8851461784416 137.6520781912763 C 136.78057667878002 137.6520781912763 135.8851461784416 136.75664769093788 135.8851461784416 135.6520781912763 C 135.8851461784416 134.54750869161472 136.78057667878002 133.6520781912763 137.8851461784416 133.6520781912763 C 138.98971567810318 133.6520781912763 139.8851461784416 134.54750869161472 139.8851461784416 135.6520781912763 Z" fill-opacity="1"/><path fill="none" stroke="rgb(0,0,0)" paint-order="fill stroke markers" d=" M 139.8851461784416 135.6520781912763 C 139.8851461784416 136.75664769093788 138.98971567810318 137.6520781912763 137.8851461784416 137.6520781912763 C 136.78057667878002 137.6520781912763 135.8851461784416 136.75664769093788 135.8851461784416 135.6520781912763 C 135.8851461784416 134.54750869161472 136.78057667878002 133.6520781912763 137.8851461784416 133.6520781912763 C 138.98971567810318 133.6520781912763 139.8851461784416 134.54750869161472 139.8851461784416 135.6520781912763 Z" stroke-opacity="1" stroke-linecap="round" stroke-linejoin="round" stroke-miterlimit="10"/><text fill="rgb(0,0,255)" stroke="none" font-family="geogebra-sans-serif, sans-serif" font-size="16px" font-style="normal" font-weight="normal" text-decoration="normal" x="123" y="128" text-anchor="start" dominant-baseline="alphabetic" fill-opacity="1">O</text><text fill="none" stroke="rgb(255,255,255)" font-family="geogebra-sans-serif, sans-serif" font-size="16px" font-style="normal" font-weight="normal" text-decoration="normal" x="123" y="128" text-anchor="start" dominant-baseline="alphabetic" stroke-opacity="1" stroke-linejoin="bevel" stroke-miterlimit="10" stroke-width="3">O</text><text fill="rgb(0,0,255)" stroke="none" font-family="geogebra-sans-serif, sans-serif" font-size="16px" font-style="normal" font-weight="normal" text-decoration="normal" x="123" y="128" text-anchor="start" dominant-baseline="alphabetic" fill-opacity="1">O</text><path fill="rgb(0,0,255)" stroke="none" paint-order="stroke fill markers" d=" M 63.183249990158366 47.35570932336903 C 63.183249990158366 48.46027882303061 62.28781948981995 49.35570932336903 61.183249990158366 49.35570932336903 C 60.07868049049678 49.35570932336903 59.183249990158366 48.46027882303061 59.183249990158366 47.35570932336903 C 59.183249990158366 46.25113982370744 60.07868049049678 45.35570932336903 61.183249990158366 45.35570932336903 C 62.28781948981995 45.35570932336903 63.183249990158366 46.25113982370744 63.183249990158366 47.35570932336903 Z" fill-opacity="1"/><path fill="none" stroke="rgb(0,0,0)" paint-order="fill stroke markers" d=" M 63.183249990158366 47.35570932336903 C 63.183249990158366 48.46027882303061 62.28781948981995 49.35570932336903 61.183249990158366 49.35570932336903 C 60.07868049049678 49.35570932336903 59.183249990158366 48.46027882303061 59.183249990158366 47.35570932336903 C 59.183249990158366 46.25113982370744 60.07868049049678 45.35570932336903 61.183249990158366 45.35570932336903 C 62.28781948981995 45.35570932336903 63.183249990158366 46.25113982370744 63.183249990158366 47.35570932336903 Z" stroke-opacity="1" stroke-linecap="round" stroke-linejoin="round" stroke-miterlimit="10"/><text fill="rgb(0,0,255)" stroke="none" font-family="geogebra-sans-serif, sans-serif" font-size="16px" font-style="normal" font-weight="normal" text-decoration="normal" x="45" y="42" text-anchor="start" dominant-baseline="alphabetic" fill-opacity="1">C</text><text fill="none" stroke="rgb(255,255,255)" font-family="geogebra-sans-serif, sans-serif" font-size="16px" font-style="normal" font-weight="normal" text-decoration="normal" x="45" y="42" text-anchor="start" dominant-baseline="alphabetic" stroke-opacity="1" stroke-linejoin="bevel" stroke-miterlimit="10" stroke-width="3">C</text><text fill="rgb(0,0,255)" stroke="none" font-family="geogebra-sans-serif, sans-serif" font-size="16px" font-style="normal" font-weight="normal" text-decoration="normal" x="45" y="42" text-anchor="start" dominant-baseline="alphabetic" fill-opacity="1">C</text><path fill="rgb(0,0,255)" stroke="none" paint-order="stroke fill markers" d=" M 47.70522142779357 207.64020990130618 C 47.70522142779357 208.74477940096776 46.809790927455154 209.64020990130618 45.70522142779357 209.64020990130618 C 44.60065192813198 209.64020990130618 43.70522142779357 208.74477940096776 43.70522142779357 207.64020990130618 C 43.70522142779357 206.5356404016446 44.60065192813198 205.64020990130618 45.70522142779357 205.64020990130618 C 46.809790927455154 205.64020990130618 47.70522142779357 206.5356404016446 47.70522142779357 207.64020990130618 Z" fill-opacity="1"/><path fill="none" stroke="rgb(0,0,0)" paint-order="fill stroke markers" d=" M 47.70522142779357 207.64020990130618 C 47.70522142779357 208.74477940096776 46.809790927455154 209.64020990130618 45.70522142779357 209.64020990130618 C 44.60065192813198 209.64020990130618 43.70522142779357 208.74477940096776 43.70522142779357 207.64020990130618 C 43.70522142779357 206.5356404016446 44.60065192813198 205.64020990130618 45.70522142779357 205.64020990130618 C 46.809790927455154 205.64020990130618 47.70522142779357 206.5356404016446 47.70522142779357 207.64020990130618 Z" stroke-opacity="1" stroke-linecap="round" stroke-linejoin="round" stroke-miterlimit="10"/><text fill="rgb(0,0,255)" stroke="none" font-family="geogebra-sans-serif, sans-serif" font-size="16px" font-style="normal" font-weight="normal" text-decoration="normal" x="30" y="224" text-anchor="start" dominant-baseline="alphabetic" fill-opacity="1">A</text><text fill="none" stroke="rgb(255,255,255)" font-family="geogebra-sans-serif, sans-serif" font-size="16px" font-style="normal" font-weight="normal" text-decoration="normal" x="30" y="224" text-anchor="start" dominant-baseline="alphabetic" stroke-opacity="1" stroke-linejoin="bevel" stroke-miterlimit="10" stroke-width="3">A</text><text fill="rgb(0,0,255)" stroke="none" font-family="geogebra-sans-serif, sans-serif" font-size="16px" font-style="normal" font-weight="normal" text-decoration="normal" x="30" y="224" text-anchor="start" dominant-baseline="alphabetic" fill-opacity="1">A</text><path fill="rgb(0,0,255)" stroke="none" paint-order="stroke fill markers" d=" M 234.39773433885074 204.5491050745652 C 234.39773433885074 205.65367457422678 233.50230383851232 206.5491050745652 232.39773433885074 206.5491050745652 C 231.29316483918916 206.5491050745652 230.39773433885074 205.65367457422678 230.39773433885074 204.5491050745652 C 230.39773433885074 203.44453557490363 231.29316483918916 202.5491050745652 232.39773433885074 202.5491050745652 C 233.50230383851232 202.5491050745652 234.39773433885074 203.44453557490363 234.39773433885074 204.5491050745652 Z" fill-opacity="1"/><path fill="none" stroke="rgb(0,0,0)" paint-order="fill stroke markers" d=" M 234.39773433885074 204.5491050745652 C 234.39773433885074 205.65367457422678 233.50230383851232 206.5491050745652 232.39773433885074 206.5491050745652 C 231.29316483918916 206.5491050745652 230.39773433885074 205.65367457422678 230.39773433885074 204.5491050745652 C 230.39773433885074 203.44453557490363 231.29316483918916 202.5491050745652 232.39773433885074 202.5491050745652 C 233.50230383851232 202.5491050745652 234.39773433885074 203.44453557490363 234.39773433885074 204.5491050745652 Z" stroke-opacity="1" stroke-linecap="round" stroke-linejoin="round" stroke-miterlimit="10"/><text fill="rgb(0,0,255)" stroke="none" font-family="geogebra-sans-serif, sans-serif" font-size="16px" font-style="normal" font-weight="normal" text-decoration="normal" x="241" y="217" text-anchor="start" dominant-baseline="alphabetic" fill-opacity="1">B</text><text fill="none" stroke="rgb(255,255,255)" font-family="geogebra-sans-serif, sans-serif" font-size="16px" font-style="normal" font-weight="normal" text-decoration="normal" x="241" y="217" text-anchor="start" dominant-baseline="alphabetic" stroke-opacity="1" stroke-linejoin="bevel" stroke-miterlimit="10" stroke-width="3">B</text><text fill="rgb(0,0,255)" stroke="none" font-family="geogebra-sans-serif, sans-serif" font-size="16px" font-style="normal" font-weight="normal" text-decoration="normal" x="241" y="217" text-anchor="start" dominant-baseline="alphabetic" fill-opacity="1">B</text><path fill="rgb(0,0,255)" stroke="none" paint-order="stroke fill markers" d=" M 141.82139562215616 252.5951437070537 C 141.82139562215616 253.69971320671527 140.92596512181774 254.5951437070537 139.82139562215616 254.5951437070537 C 138.71682612249458 254.5951437070537 137.82139562215616 253.69971320671527 137.82139562215616 252.5951437070537 C 137.82139562215616 251.49057420739211 138.71682612249458 250.5951437070537 139.82139562215616 250.5951437070537 C 140.92596512181774 250.5951437070537 141.82139562215616 251.49057420739211 141.82139562215616 252.5951437070537 Z" fill-opacity="1"/><path fill="none" stroke="rgb(0,0,0)" paint-order="fill stroke markers" d=" M 141.82139562215616 252.5951437070537 C 141.82139562215616 253.69971320671527 140.92596512181774 254.5951437070537 139.82139562215616 254.5951437070537 C 138.71682612249458 254.5951437070537 137.82139562215616 253.69971320671527 137.82139562215616 252.5951437070537 C 137.82139562215616 251.49057420739211 138.71682612249458 250.5951437070537 139.82139562215616 250.5951437070537 C 140.92596512181774 250.5951437070537 141.82139562215616 251.49057420739211 141.82139562215616 252.5951437070537 Z" stroke-opacity="1" stroke-linecap="round" stroke-linejoin="round" stroke-miterlimit="10"/><text fill="rgb(0,0,255)" stroke="none" font-family="geogebra-sans-serif, sans-serif" font-size="16px" font-style="normal" font-weight="normal" text-decoration="normal" x="136" y="275" text-anchor="start" dominant-baseline="alphabetic" fill-opacity="1">R</text><text fill="none" stroke="rgb(255,255,255)" font-family="geogebra-sans-serif, sans-serif" font-size="16px" font-style="normal" font-weight="normal" text-decoration="normal" x="136" y="275" text-anchor="start" dominant-baseline="alphabetic" stroke-opacity="1" stroke-linejoin="bevel" stroke-miterlimit="10" stroke-width="3">R</text><text fill="rgb(0,0,255)" stroke="none" font-family="geogebra-sans-serif, sans-serif" font-size="16px" font-style="normal" font-weight="normal" text-decoration="normal" x="136" y="275" text-anchor="start" dominant-baseline="alphabetic" fill-opacity="1">R</text><path fill="rgb(0,0,255)" stroke="none" paint-order="stroke fill markers" d=" M 148.79049216450454 125.95240719896714 C 148.79049216450454 127.05697669862872 147.89506166416612 127.95240719896714 146.79049216450454 127.95240719896714 C 145.68592266484296 127.95240719896714 144.79049216450454 127.05697669862872 144.79049216450454 125.95240719896714 C 144.79049216450454 124.84783769930554 145.68592266484296 123.95240719896714 146.79049216450454 123.95240719896714 C 147.89506166416612 123.95240719896714 148.79049216450454 124.84783769930554 148.79049216450454 125.95240719896714 Z" fill-opacity="1"/><path fill="none" stroke="rgb(0,0,0)" paint-order="fill stroke markers" d=" M 148.79049216450454 125.95240719896714 C 148.79049216450454 127.05697669862872 147.89506166416612 127.95240719896714 146.79049216450454 127.95240719896714 C 145.68592266484296 127.95240719896714 144.79049216450454 127.05697669862872 144.79049216450454 125.95240719896714 C 144.79049216450454 124.84783769930554 145.68592266484296 123.95240719896714 146.79049216450454 123.95240719896714 C 147.89506166416612 123.95240719896714 148.79049216450454 124.84783769930554 148.79049216450454 125.95240719896714 Z" stroke-opacity="1" stroke-linecap="round" stroke-linejoin="round" stroke-miterlimit="10"/><text fill="rgb(0,0,255)" stroke="none" font-family="geogebra-sans-serif, sans-serif" font-size="16px" font-style="normal" font-weight="normal" text-decoration="normal" x="155" y="114" text-anchor="start" dominant-baseline="alphabetic" fill-opacity="1">K</text><text fill="none" stroke="rgb(255,255,255)" font-family="geogebra-sans-serif, sans-serif" font-size="16px" font-style="normal" font-weight="normal" text-decoration="normal" x="155" y="114" text-anchor="start" dominant-baseline="alphabetic" stroke-opacity="1" stroke-linejoin="bevel" stroke-miterlimit="10" stroke-width="3">K</text><text fill="rgb(0,0,255)" stroke="none" font-family="geogebra-sans-serif, sans-serif" font-size="16px" font-style="normal" font-weight="normal" text-decoration="normal" x="155" y="114" text-anchor="start" dominant-baseline="alphabetic" fill-opacity="1">K</text><path fill="rgb(0,0,255)" stroke="none" paint-order="stroke fill markers" d=" M 109.6375062258168 168.59769942749244 C 109.6375062258168 169.70226892715402 108.74207572547837 170.59769942749244 107.6375062258168 170.59769942749244 C 106.5329367261552 170.59769942749244 105.6375062258168 169.70226892715402 105.6375062258168 168.59769942749244 C 105.6375062258168 167.49312992783086 106.5329367261552 166.59769942749244 107.6375062258168 166.59769942749244 C 108.74207572547837 166.59769942749244 109.6375062258168 167.49312992783086 109.6375062258168 168.59769942749244 Z" fill-opacity="1"/><path fill="none" stroke="rgb(0,0,0)" paint-order="fill stroke markers" d=" M 109.6375062258168 168.59769942749244 C 109.6375062258168 169.70226892715402 108.74207572547837 170.59769942749244 107.6375062258168 170.59769942749244 C 106.5329367261552 170.59769942749244 105.6375062258168 169.70226892715402 105.6375062258168 168.59769942749244 C 105.6375062258168 167.49312992783086 106.5329367261552 166.59769942749244 107.6375062258168 166.59769942749244 C 108.74207572547837 166.59769942749244 109.6375062258168 167.49312992783086 109.6375062258168 168.59769942749244 Z" stroke-opacity="1" stroke-linecap="round" stroke-linejoin="round" stroke-miterlimit="10"/><text fill="rgb(0,0,255)" stroke="none" font-family="geogebra-sans-serif, sans-serif" font-size="16px" font-style="normal" font-weight="normal" text-decoration="normal" x="120" y="178" text-anchor="start" dominant-baseline="alphabetic" fill-opacity="1">P</text><text fill="none" stroke="rgb(255,255,255)" font-family="geogebra-sans-serif, sans-serif" font-size="16px" font-style="normal" font-weight="normal" text-decoration="normal" x="120" y="178" text-anchor="start" dominant-baseline="alphabetic" stroke-opacity="1" stroke-linejoin="bevel" stroke-miterlimit="10" stroke-width="3">P</text><text fill="rgb(0,0,255)" stroke="none" font-family="geogebra-sans-serif, sans-serif" font-size="16px" font-style="normal" font-weight="normal" text-decoration="normal" x="120" y="178" text-anchor="start" dominant-baseline="alphabetic" fill-opacity="1">P</text><path fill="rgb(0,0,255)" stroke="none" paint-order="stroke fill markers" d=" M 55.44423570897597 127.49795961233761 C 55.44423570897597 128.6025291119992 54.54880520863755 129.4979596123376 53.44423570897597 129.4979596123376 C 52.33966620931438 129.4979596123376 51.44423570897597 128.6025291119992 51.44423570897597 127.49795961233761 C 51.44423570897597 126.39339011267602 52.33966620931438 125.49795961233761 53.44423570897597 125.49795961233761 C 54.54880520863755 125.49795961233761 55.44423570897597 126.39339011267602 55.44423570897597 127.49795961233761 Z" fill-opacity="1"/><path fill="none" stroke="rgb(0,0,0)" paint-order="fill stroke markers" d=" M 55.44423570897597 127.49795961233761 C 55.44423570897597 128.6025291119992 54.54880520863755 129.4979596123376 53.44423570897597 129.4979596123376 C 52.33966620931438 129.4979596123376 51.44423570897597 128.6025291119992 51.44423570897597 127.49795961233761 C 51.44423570897597 126.39339011267602 52.33966620931438 125.49795961233761 53.44423570897597 125.49795961233761 C 54.54880520863755 125.49795961233761 55.44423570897597 126.39339011267602 55.44423570897597 127.49795961233761 Z" stroke-opacity="1" stroke-linecap="round" stroke-linejoin="round" stroke-miterlimit="10"/><text fill="rgb(0,0,255)" stroke="none" font-family="geogebra-sans-serif, sans-serif" font-size="16px" font-style="normal" font-weight="normal" text-decoration="normal" x="34" y="121" text-anchor="start" dominant-baseline="alphabetic" fill-opacity="1">L</text><text fill="none" stroke="rgb(255,255,255)" font-family="geogebra-sans-serif, sans-serif" font-size="16px" font-style="normal" font-weight="normal" text-decoration="normal" x="34" y="121" text-anchor="start" dominant-baseline="alphabetic" stroke-opacity="1" stroke-linejoin="bevel" stroke-miterlimit="10" stroke-width="3">L</text><text fill="rgb(0,0,255)" stroke="none" font-family="geogebra-sans-serif, sans-serif" font-size="16px" font-style="normal" font-weight="normal" text-decoration="normal" x="34" y="121" text-anchor="start" dominant-baseline="alphabetic" fill-opacity="1">L</text><path fill="rgb(0,0,255)" stroke="none" paint-order="stroke fill markers" d=" M 95.36713938649774 131.35315360293032 C 95.36713938649774 132.4577231025919 94.47170888615932 133.35315360293032 93.36713938649774 133.35315360293032 C 92.26256988683615 133.35315360293032 91.36713938649774 132.4577231025919 91.36713938649774 131.35315360293032 C 91.36713938649774 130.24858410326874 92.26256988683615 129.35315360293032 93.36713938649774 129.35315360293032 C 94.47170888615932 129.35315360293032 95.36713938649774 130.24858410326874 95.36713938649774 131.35315360293032 Z" fill-opacity="1"/><path fill="none" stroke="rgb(0,0,0)" paint-order="fill stroke markers" d=" M 95.36713938649774 131.35315360293032 C 95.36713938649774 132.4577231025919 94.47170888615932 133.35315360293032 93.36713938649774 133.35315360293032 C 92.26256988683615 133.35315360293032 91.36713938649774 132.4577231025919 91.36713938649774 131.35315360293032 C 91.36713938649774 130.24858410326874 92.26256988683615 129.35315360293032 93.36713938649774 129.35315360293032 C 94.47170888615932 129.35315360293032 95.36713938649774 130.24858410326874 95.36713938649774 131.35315360293032 Z" stroke-opacity="1" stroke-linecap="round" stroke-linejoin="round" stroke-miterlimit="10"/><text fill="rgb(0,0,255)" stroke="none" font-family="geogebra-sans-serif, sans-serif" font-size="16px" font-style="normal" font-weight="normal" text-decoration="normal" x="76" y="148" text-anchor="start" dominant-baseline="alphabetic" fill-opacity="1">Q</text><text fill="none" stroke="rgb(255,255,255)" font-family="geogebra-sans-serif, sans-serif" font-size="16px" font-style="normal" font-weight="normal" text-decoration="normal" x="76" y="148" text-anchor="start" dominant-baseline="alphabetic" stroke-opacity="1" stroke-linejoin="bevel" stroke-miterlimit="10" stroke-width="3">Q</text><text fill="rgb(0,0,255)" stroke="none" font-family="geogebra-sans-serif, sans-serif" font-size="16px" font-style="normal" font-weight="normal" text-decoration="normal" x="76" y="148" text-anchor="start" dominant-baseline="alphabetic" fill-opacity="1">Q</text></g></g></svg>