<svg version="1.1" xmlns="http://www.w3.org/2000/svg" xmlns:xlink="http://www.w3.org/1999/xlink" width="315" height="316"><defs><clipPath id="sdqfGZpxvwOq"><path fill="none" stroke="none" d=" M 0 0 L 315 0 L 315 316 L 0 316 L 0 0 Z"/></clipPath></defs><g transform="scale(1,1)" clip-path="url(#sdqfGZpxvwOq)"><g><rect fill="rgb(255,255,255)" stroke="none" x="0" y="0" width="315" height="316" fill-opacity="1"/><path fill="none" stroke="rgb(0,153,255)" paint-order="fill stroke markers" d=" M 274.66666666666663 171.66666666666669 C 274.66666666666663 240.70226039551582 218.7022603955158 296.66666666666663 149.6666666666666 296.66666666666663 C 80.63107293781741 296.66666666666663 24.666666666666544 240.70226039551582 24.666666666666544 171.66666666666669 C 24.666666666666544 102.63107293781755 80.63107293781741 46.66666666666674 149.6666666666666 46.66666666666674 C 218.7022603955158 46.66666666666674 274.66666666666663 102.63107293781755 274.66666666666663 171.66666666666669 Z" stroke-opacity="0.6980392156862745" stroke-linecap="round" stroke-linejoin="round" stroke-miterlimit="10" stroke-width="0.5"/><path fill="none" stroke="rgb(0,0,0)" paint-order="fill stroke markers" d=" M 226.9209152604035 219.41241807292982 C 226.9209152604035 262.07876143088765 192.33301002462449 296.66666666666663 149.6666666666666 296.66666666666663 C 107.0003233087087 296.66666666666663 72.41241807292971 262.07876143088765 72.41241807292971 219.41241807292982 C 72.41241807292971 176.746074714972 107.0003233087087 142.15816947919302 149.6666666666666 142.15816947919302 C 192.33301002462449 142.15816947919302 226.9209152604035 176.746074714972 226.9209152604035 219.41241807292982 Z" stroke-opacity="0.6980392156862745" stroke-linecap="round" stroke-linejoin="round" stroke-miterlimit="10"/><g transform="scale(19,19)"><g transform="translate(6.894736842105263,8.325736842105263)"><path fill="rgb(0,0,0)" stroke="none" paint-order="stroke fill markers" d=" M 0.264 -0.082 Q 0.201 0.011 0.11900000000000001 0.011 Q 0.032 0.011 0.016 -0.089 Q 0.013000000000000001 -0.109 0.013000000000000001 -0.131 Q 0.013000000000000001 -0.22 0.051000000000000004 -0.311 Q 0.082 -0.382 0.112 -0.419 Q 0.122 -0.431 0.127 -0.431 Q 0.139 -0.431 0.139 -0.419 Q 0.139 -0.41400000000000003 0.129 -0.4 Q 0.045 -0.28 0.045 -0.17500000000000002 Q 0.045 -0.08 0.109 -0.064 Q 0.12 -0.061 0.133 -0.061 Q 0.201 -0.061 0.257 -0.138 Q 0.264 -0.145 0.266 -0.165 Q 0.276 -0.23800000000000002 0.28700000000000003 -0.266 Q 0.3 -0.291 0.315 -0.291 Q 0.334 -0.291 0.336 -0.268 Q 0.336 -0.24 0.308 -0.168 Q 0.306 -0.161 0.303 -0.155 Q 0.297 -0.14400000000000002 0.297 -0.139 Q 0.297 -0.111 0.317 -0.084 Q 0.335 -0.061 0.372 -0.061 Q 0.449 -0.061 0.511 -0.14400000000000002 Q 0.562 -0.214 0.562 -0.28 Q 0.562 -0.331 0.527 -0.367 Q 0.512 -0.38 0.512 -0.394 Q 0.512 -0.419 0.539 -0.435 Q 0.55 -0.442 0.562 -0.442 Q 0.599 -0.442 0.604 -0.388 Q 0.605 -0.377 0.605 -0.371 Q 0.605 -0.307 0.5750000000000001 -0.213 Q 0.55 -0.136 0.511 -0.082 Q 0.443 0.011 0.358 0.011 Q 0.277 0.011 0.264 -0.082 Z"/></g></g><path fill="none" stroke="rgb(255,85,0)" paint-order="fill stroke markers" d=" M 211.47006554165608 184.8632677916772 C 211.47006554165608 218.9963424780435 183.7997413530329 246.66666666666666 149.6666666666666 246.66666666666666 C 115.53359198030029 246.66666666666666 87.86326779167709 218.9963424780435 87.86326779167709 184.8632677916772 C 87.86326779167709 150.73019310531092 115.53359198030029 123.05986891668775 149.6666666666666 123.05986891668775 C 183.7997413530329 123.05986891668775 211.47006554165608 150.73019310531092 211.47006554165608 184.8632677916772 Z" stroke-opacity="0.6980392156862745" stroke-linecap="round" stroke-linejoin="round" stroke-miterlimit="10" stroke-width="0.5"/><path fill="none" stroke="rgb(0,100,0)" paint-order="fill stroke markers" d=" M 149.6666666666666 46.66666666666674 L 49.66666666666656 246.66666666666666" stroke-opacity="0.6980392156862745" stroke-linecap="round" stroke-linejoin="round" stroke-miterlimit="10" stroke-width="0.5"/><path fill="none" stroke="rgb(0,100,0)" paint-order="fill stroke markers" d=" M 49.66666666666656 246.66666666666666 L 249.66666666666663 246.66666666666666" stroke-opacity="0.6980392156862745" stroke-linecap="round" stroke-linejoin="round" stroke-miterlimit="10" stroke-width="0.5"/><path fill="none" stroke="rgb(0,100,0)" paint-order="fill stroke markers" d=" M 249.66666666666663 246.66666666666666 L 149.6666666666666 46.66666666666674" stroke-opacity="0.6980392156862745" stroke-linecap="round" stroke-linejoin="round" stroke-miterlimit="10" stroke-width="0.5"/><path fill="none" stroke="rgb(0,100,0)" paint-order="fill stroke markers" d=" M 115.11751638541395 180.8632677916772 L 115.11751638541395 188.8632677916772" stroke-opacity="0.6980392156862745" stroke-linecap="round" stroke-linejoin="round" stroke-miterlimit="10" stroke-width="0.5"/><path fill="none" stroke="rgb(0,100,0)" paint-order="fill stroke markers" d=" M 80.56836610416131 184.8632677916772 L 149.6666666666666 184.8632677916772" stroke-opacity="0.6980392156862745" stroke-linecap="round" stroke-linejoin="round" stroke-miterlimit="10" stroke-width="0.5"/><path fill="none" stroke="rgb(0,100,0)" paint-order="fill stroke markers" d=" M 184.21581694791922 180.8632677916772 L 184.21581694791922 188.8632677916772" stroke-opacity="0.6980392156862745" stroke-linecap="round" stroke-linejoin="round" stroke-miterlimit="10" stroke-width="0.5"/><path fill="none" stroke="rgb(0,100,0)" paint-order="fill stroke markers" d=" M 149.6666666666666 184.8632677916772 L 218.76496722917187 184.8632677916772" stroke-opacity="0.6980392156862745" stroke-linecap="round" stroke-linejoin="round" stroke-miterlimit="10" stroke-width="0.5"/><path fill="rgb(0,0,255)" stroke="none" paint-order="stroke fill markers" d=" M 151.6666666666666 46.66666666666674 C 151.6666666666666 47.77123616632833 150.77123616632818 48.66666666666674 149.6666666666666 48.66666666666674 C 148.56209716700502 48.66666666666674 147.6666666666666 47.77123616632833 147.6666666666666 46.66666666666674 C 147.6666666666666 45.562097167005156 148.56209716700502 44.66666666666674 149.6666666666666 44.66666666666674 C 150.77123616632818 44.66666666666674 151.6666666666666 45.562097167005156 151.6666666666666 46.66666666666674 Z" fill-opacity="1"/><path fill="none" stroke="rgb(0,0,0)" paint-order="fill stroke markers" d=" M 151.6666666666666 46.66666666666674 C 151.6666666666666 47.77123616632833 150.77123616632818 48.66666666666674 149.6666666666666 48.66666666666674 C 148.56209716700502 48.66666666666674 147.6666666666666 47.77123616632833 147.6666666666666 46.66666666666674 C 147.6666666666666 45.562097167005156 148.56209716700502 44.66666666666674 149.6666666666666 44.66666666666674 C 150.77123616632818 44.66666666666674 151.6666666666666 45.562097167005156 151.6666666666666 46.66666666666674 Z" stroke-opacity="1" stroke-linecap="round" stroke-linejoin="round" stroke-miterlimit="10"/><text fill="rgb(0,0,255)" stroke="none" font-family="geogebra-sans-serif, sans-serif" font-size="16px" font-style="normal" font-weight="normal" text-decoration="normal" x="141" y="31" text-anchor="start" dominant-baseline="alphabetic" fill-opacity="1">A</text><text fill="none" stroke="rgb(255,255,255)" font-family="geogebra-sans-serif, sans-serif" font-size="16px" font-style="normal" font-weight="normal" text-decoration="normal" x="141" y="31" text-anchor="start" dominant-baseline="alphabetic" stroke-opacity="1" stroke-linejoin="bevel" stroke-miterlimit="10" stroke-width="3">A</text><text fill="rgb(0,0,255)" stroke="none" font-family="geogebra-sans-serif, sans-serif" font-size="16px" font-style="normal" font-weight="normal" text-decoration="normal" x="141" y="31" text-anchor="start" dominant-baseline="alphabetic" fill-opacity="1">A</text><path fill="rgb(0,0,255)" stroke="none" paint-order="stroke fill markers" d=" M 51.66666666666656 246.66666666666666 C 51.66666666666656 247.77123616632824 50.771236166328144 248.66666666666666 49.66666666666656 248.66666666666666 C 48.56209716700497 248.66666666666666 47.66666666666656 247.77123616632824 47.66666666666656 246.66666666666666 C 47.66666666666656 245.56209716700508 48.56209716700497 244.66666666666666 49.66666666666656 244.66666666666666 C 50.771236166328144 244.66666666666666 51.66666666666656 245.56209716700508 51.66666666666656 246.66666666666666 Z" fill-opacity="1"/><path fill="none" stroke="rgb(0,0,0)" paint-order="fill stroke markers" d=" M 51.66666666666656 246.66666666666666 C 51.66666666666656 247.77123616632824 50.771236166328144 248.66666666666666 49.66666666666656 248.66666666666666 C 48.56209716700497 248.66666666666666 47.66666666666656 247.77123616632824 47.66666666666656 246.66666666666666 C 47.66666666666656 245.56209716700508 48.56209716700497 244.66666666666666 49.66666666666656 244.66666666666666 C 50.771236166328144 244.66666666666666 51.66666666666656 245.56209716700508 51.66666666666656 246.66666666666666 Z" stroke-opacity="1" stroke-linecap="round" stroke-linejoin="round" stroke-miterlimit="10"/><text fill="rgb(0,0,255)" stroke="none" font-family="geogebra-sans-serif, sans-serif" font-size="16px" font-style="normal" font-weight="normal" text-decoration="normal" x="27" y="265" text-anchor="start" dominant-baseline="alphabetic" fill-opacity="1">B</text><text fill="none" stroke="rgb(255,255,255)" font-family="geogebra-sans-serif, sans-serif" font-size="16px" font-style="normal" font-weight="normal" text-decoration="normal" x="27" y="265" text-anchor="start" dominant-baseline="alphabetic" stroke-opacity="1" stroke-linejoin="bevel" stroke-miterlimit="10" stroke-width="3">B</text><text fill="rgb(0,0,255)" stroke="none" font-family="geogebra-sans-serif, sans-serif" font-size="16px" font-style="normal" font-weight="normal" text-decoration="normal" x="27" y="265" text-anchor="start" dominant-baseline="alphabetic" fill-opacity="1">B</text><path fill="rgb(0,0,255)" stroke="none" paint-order="stroke fill markers" d=" M 251.66666666666663 246.66666666666666 C 251.66666666666663 247.77123616632824 250.7712361663282 248.66666666666666 249.66666666666663 248.66666666666666 C 248.56209716700505 248.66666666666666 247.66666666666663 247.77123616632824 247.66666666666663 246.66666666666666 C 247.66666666666663 245.56209716700508 248.56209716700505 244.66666666666666 249.66666666666663 244.66666666666666 C 250.7712361663282 244.66666666666666 251.66666666666663 245.56209716700508 251.66666666666663 246.66666666666666 Z" fill-opacity="1"/><path fill="none" stroke="rgb(0,0,0)" paint-order="fill stroke markers" d=" M 251.66666666666663 246.66666666666666 C 251.66666666666663 247.77123616632824 250.7712361663282 248.66666666666666 249.66666666666663 248.66666666666666 C 248.56209716700505 248.66666666666666 247.66666666666663 247.77123616632824 247.66666666666663 246.66666666666666 C 247.66666666666663 245.56209716700508 248.56209716700505 244.66666666666666 249.66666666666663 244.66666666666666 C 250.7712361663282 244.66666666666666 251.66666666666663 245.56209716700508 251.66666666666663 246.66666666666666 Z" stroke-opacity="1" stroke-linecap="round" stroke-linejoin="round" stroke-miterlimit="10"/><text fill="rgb(0,0,255)" stroke="none" font-family="geogebra-sans-serif, sans-serif" font-size="16px" font-style="normal" font-weight="normal" text-decoration="normal" x="261" y="256" text-anchor="start" dominant-baseline="alphabetic" fill-opacity="1">C</text><text fill="none" stroke="rgb(255,255,255)" font-family="geogebra-sans-serif, sans-serif" font-size="16px" font-style="normal" font-weight="normal" text-decoration="normal" x="261" y="256" text-anchor="start" dominant-baseline="alphabetic" stroke-opacity="1" stroke-linejoin="bevel" stroke-miterlimit="10" stroke-width="3">C</text><text fill="rgb(0,0,255)" stroke="none" font-family="geogebra-sans-serif, sans-serif" font-size="16px" font-style="normal" font-weight="normal" text-decoration="normal" x="261" y="256" text-anchor="start" dominant-baseline="alphabetic" fill-opacity="1">C</text><path fill="rgb(0,0,255)" stroke="none" paint-order="stroke fill markers" d=" M 82.56836610416131 184.8632677916772 C 82.56836610416131 185.96783729133878 81.6729356038229 186.8632677916772 80.56836610416131 186.8632677916772 C 79.46379660449972 186.8632677916772 78.56836610416131 185.96783729133878 78.56836610416131 184.8632677916772 C 78.56836610416131 183.75869829201562 79.46379660449972 182.8632677916772 80.56836610416131 182.8632677916772 C 81.6729356038229 182.8632677916772 82.56836610416131 183.75869829201562 82.56836610416131 184.8632677916772 Z" fill-opacity="1"/><path fill="none" stroke="rgb(0,0,0)" paint-order="fill stroke markers" d=" M 82.56836610416131 184.8632677916772 C 82.56836610416131 185.96783729133878 81.6729356038229 186.8632677916772 80.56836610416131 186.8632677916772 C 79.46379660449972 186.8632677916772 78.56836610416131 185.96783729133878 78.56836610416131 184.8632677916772 C 78.56836610416131 183.75869829201562 79.46379660449972 182.8632677916772 80.56836610416131 182.8632677916772 C 81.6729356038229 182.8632677916772 82.56836610416131 183.75869829201562 82.56836610416131 184.8632677916772 Z" stroke-opacity="1" stroke-linecap="round" stroke-linejoin="round" stroke-miterlimit="10"/><text fill="rgb(0,0,255)" stroke="none" font-family="geogebra-sans-serif, sans-serif" font-size="16px" font-style="normal" font-weight="normal" text-decoration="normal" x="64" y="176" text-anchor="start" dominant-baseline="alphabetic" fill-opacity="1">P</text><text fill="none" stroke="rgb(255,255,255)" font-family="geogebra-sans-serif, sans-serif" font-size="16px" font-style="normal" font-weight="normal" text-decoration="normal" x="64" y="176" text-anchor="start" dominant-baseline="alphabetic" stroke-opacity="1" stroke-linejoin="bevel" stroke-miterlimit="10" stroke-width="3">P</text><text fill="rgb(0,0,255)" stroke="none" font-family="geogebra-sans-serif, sans-serif" font-size="16px" font-style="normal" font-weight="normal" text-decoration="normal" x="64" y="176" text-anchor="start" dominant-baseline="alphabetic" fill-opacity="1">P</text><path fill="rgb(0,0,255)" stroke="none" paint-order="stroke fill markers" d=" M 220.76496722917187 184.8632677916772 C 220.76496722917187 185.96783729133878 219.86953672883345 186.8632677916772 218.76496722917187 186.8632677916772 C 217.6603977295103 186.8632677916772 216.76496722917187 185.96783729133878 216.76496722917187 184.8632677916772 C 216.76496722917187 183.75869829201562 217.6603977295103 182.8632677916772 218.76496722917187 182.8632677916772 C 219.86953672883345 182.8632677916772 220.76496722917187 183.75869829201562 220.76496722917187 184.8632677916772 Z" fill-opacity="1"/><path fill="none" stroke="rgb(0,0,0)" paint-order="fill stroke markers" d=" M 220.76496722917187 184.8632677916772 C 220.76496722917187 185.96783729133878 219.86953672883345 186.8632677916772 218.76496722917187 186.8632677916772 C 217.6603977295103 186.8632677916772 216.76496722917187 185.96783729133878 216.76496722917187 184.8632677916772 C 216.76496722917187 183.75869829201562 217.6603977295103 182.8632677916772 218.76496722917187 182.8632677916772 C 219.86953672883345 182.8632677916772 220.76496722917187 183.75869829201562 220.76496722917187 184.8632677916772 Z" stroke-opacity="1" stroke-linecap="round" stroke-linejoin="round" stroke-miterlimit="10"/><text fill="rgb(0,0,255)" stroke="none" font-family="geogebra-sans-serif, sans-serif" font-size="16px" font-style="normal" font-weight="normal" text-decoration="normal" x="223" y="173" text-anchor="start" dominant-baseline="alphabetic" fill-opacity="1">Q</text><text fill="none" stroke="rgb(255,255,255)" font-family="geogebra-sans-serif, sans-serif" font-size="16px" font-style="normal" font-weight="normal" text-decoration="normal" x="223" y="173" text-anchor="start" dominant-baseline="alphabetic" stroke-opacity="1" stroke-linejoin="bevel" stroke-miterlimit="10" stroke-width="3">Q</text><text fill="rgb(0,0,255)" stroke="none" font-family="geogebra-sans-serif, sans-serif" font-size="16px" font-style="normal" font-weight="normal" text-decoration="normal" x="223" y="173" text-anchor="start" dominant-baseline="alphabetic" fill-opacity="1">Q</text></g></g></svg>