<svg version="1.1" xmlns="http://www.w3.org/2000/svg" xmlns:xlink="http://www.w3.org/1999/xlink" width="310" height="335"><defs><clipPath id="xTCOpIbBkUuJ"><path fill="none" stroke="none" d=" M 0 0 L 310 0 L 310 335 L 0 335 L 0 0 Z"/></clipPath></defs><g transform="scale(1,1)" clip-path="url(#xTCOpIbBkUuJ)"><g><rect fill="rgb(255,255,255)" stroke="none" x="0" y="0" width="310" height="335" fill-opacity="1"/><path fill="none" stroke="rgb(0,153,255)" paint-order="fill stroke markers" d=" M 276.9999999999999 170.00000000000006 C 276.9999999999999 239.03559372884916 221.0355937288491 294.99999999999994 151.99999999999997 294.99999999999994 C 82.96440627115084 294.99999999999994 27.00000000000003 239.03559372884916 27.00000000000003 170.00000000000006 C 27.00000000000003 100.96440627115095 82.96440627115084 45.000000000000185 151.99999999999997 45.000000000000185 C 221.0355937288491 45.000000000000185 276.9999999999999 100.96440627115095 276.9999999999999 170.00000000000006 Z" stroke-opacity="0.6980392156862745" stroke-linecap="round" stroke-linejoin="round" stroke-miterlimit="10" stroke-width="0.5"/><path fill="none" stroke="rgb(102,102,102)" paint-order="fill stroke markers" d=" M 229.2542485937368 217.74575140626317 C 229.2542485937368 260.412094764221 194.66634335795783 294.99999999999994 151.99999999999997 294.99999999999994 C 109.33365664204211 294.99999999999994 74.74575140626315 260.412094764221 74.74575140626315 217.74575140626317 C 74.74575140626315 175.07940804830534 109.33365664204211 140.4915028125264 151.99999999999997 140.4915028125264 C 194.66634335795783 140.4915028125264 229.2542485937368 175.07940804830534 229.2542485937368 217.74575140626317 Z" stroke-opacity="0.6980392156862745" stroke-linecap="round" stroke-linejoin="round" stroke-miterlimit="10" stroke-width="0.5"/><g transform="scale(19,19)"><g transform="translate(4.578947368421052,12.167842105263157)"><path fill="rgb(102,102,102)" stroke="none" paint-order="stroke fill markers" d=" M 0.264 -0.082 Q 0.201 0.011 0.11900000000000001 0.011 Q 0.032 0.011 0.016 -0.089 Q 0.013000000000000001 -0.109 0.013000000000000001 -0.131 Q 0.013000000000000001 -0.22 0.051000000000000004 -0.311 Q 0.082 -0.382 0.112 -0.419 Q 0.122 -0.431 0.127 -0.431 Q 0.139 -0.431 0.139 -0.419 Q 0.139 -0.41400000000000003 0.129 -0.4 Q 0.045 -0.28 0.045 -0.17500000000000002 Q 0.045 -0.08 0.109 -0.064 Q 0.12 -0.061 0.133 -0.061 Q 0.201 -0.061 0.257 -0.138 Q 0.264 -0.145 0.266 -0.165 Q 0.276 -0.23800000000000002 0.28700000000000003 -0.266 Q 0.3 -0.291 0.315 -0.291 Q 0.334 -0.291 0.336 -0.268 Q 0.336 -0.24 0.308 -0.168 Q 0.306 -0.161 0.303 -0.155 Q 0.297 -0.14400000000000002 0.297 -0.139 Q 0.297 -0.111 0.317 -0.084 Q 0.335 -0.061 0.372 -0.061 Q 0.449 -0.061 0.511 -0.14400000000000002 Q 0.562 -0.214 0.562 -0.28 Q 0.562 -0.331 0.527 -0.367 Q 0.512 -0.38 0.512 -0.394 Q 0.512 -0.419 0.539 -0.435 Q 0.55 -0.442 0.562 -0.442 Q 0.599 -0.442 0.604 -0.388 Q 0.605 -0.377 0.605 -0.371 Q 0.605 -0.307 0.5750000000000001 -0.213 Q 0.55 -0.136 0.511 -0.082 Q 0.443 0.011 0.358 0.011 Q 0.277 0.011 0.264 -0.082 Z"/></g></g><path fill="none" stroke="rgb(255,85,0)" paint-order="fill stroke markers" d=" M 213.80339887498943 183.19660112501057 C 213.80339887498943 217.32967581137683 186.13307468636626 245 151.99999999999997 245 C 117.86692531363369 245 90.19660112501052 217.32967581137683 90.19660112501052 183.19660112501057 C 90.19660112501052 149.0635264386443 117.86692531363369 121.39320225002115 151.99999999999997 121.39320225002115 C 186.13307468636626 121.39320225002115 213.80339887498943 149.0635264386443 213.80339887498943 183.19660112501057 Z" stroke-opacity="0.6980392156862745" stroke-linecap="round" stroke-linejoin="round" stroke-miterlimit="10" stroke-width="0.5"/><path fill="rgb(255,0,0)" stroke="none" paint-order="stroke fill markers" fill-rule="evenodd" d=" M 82.90169943749474 183.19660112501057 L 92.38853241799924 187.94001761526283 L 97.13194890825245 178.453184634758 L 87.645115927747 173.70976814450609 L 82.90169943749474 183.19660112501057" fill-opacity="0.09803921568627451"/><path fill="none" stroke="rgb(255,0,0)" paint-order="fill stroke markers" d=" M 82.90169943749474 183.19660112501057 L 92.38853241799924 187.94001761526283 L 97.13194890825245 178.453184634758 L 87.645115927747 173.70976814450609 L 82.90169943749474 183.19660112501057" stroke-opacity="0.6980392156862745" stroke-linecap="round" stroke-linejoin="round" stroke-miterlimit="10" stroke-width="0.5"/><path fill="rgb(255,0,0)" stroke="none" paint-order="stroke fill markers" fill-rule="evenodd" d=" M 221.0983005625052 183.19660112501057 L 216.35488407225293 173.70976814450609 L 206.86805109174747 178.453184634758 L 211.61146758200067 187.94001761526283 L 221.0983005625052 183.19660112501057" fill-opacity="0.09803921568627451"/><path fill="none" stroke="rgb(255,0,0)" paint-order="fill stroke markers" d=" M 221.0983005625052 183.19660112501057 L 216.35488407225293 173.70976814450609 L 206.86805109174747 178.453184634758 L 211.61146758200067 187.94001761526283 L 221.0983005625052 183.19660112501057" stroke-opacity="0.6980392156862745" stroke-linecap="round" stroke-linejoin="round" stroke-miterlimit="10" stroke-width="0.5"/><path fill="rgb(255,0,0)" stroke="none" paint-order="stroke fill markers" fill-rule="evenodd" d=" M 151.99999999999997 183.19660112501057 L 151.99999999999997 172.58999940721307 L 141.39339828220176 172.58999940721236 L 141.39339828220247 183.19660112501057 L 151.99999999999997 183.19660112501057" fill-opacity="0.09803921568627451"/><path fill="none" stroke="rgb(255,0,0)" paint-order="fill stroke markers" d=" M 151.99999999999997 183.19660112501057 L 151.99999999999997 172.58999940721307 L 141.39339828220176 172.58999940721236 L 141.39339828220247 183.19660112501057 L 151.99999999999997 183.19660112501057" stroke-opacity="0.6980392156862745" stroke-linecap="round" stroke-linejoin="round" stroke-miterlimit="10" stroke-width="0.5"/><path fill="rgb(255,0,0)" stroke="none" paint-order="stroke fill markers" fill-rule="evenodd" d=" M 52.000000000000014 245 L 61.486832980504516 249.74341649025226 L 66.23024947075773 240.25658350974743 L 56.743416490252265 235.5131670194955 L 52.000000000000014 245" fill-opacity="0.09803921568627451"/><path fill="none" stroke="rgb(255,0,0)" paint-order="fill stroke markers" d=" M 52.000000000000014 245 L 61.486832980504516 249.74341649025226 L 66.23024947075773 240.25658350974743 L 56.743416490252265 235.5131670194955 L 52.000000000000014 245" stroke-opacity="0.6980392156862745" stroke-linecap="round" stroke-linejoin="round" stroke-miterlimit="10" stroke-width="0.5"/><path fill="rgb(255,0,0)" stroke="none" paint-order="stroke fill markers" fill-rule="evenodd" d=" M 251.99999999999994 245 L 247.25658350974768 235.5131670194955 L 237.76975052924223 240.25658350974743 L 242.51316701949543 249.74341649025226 L 251.99999999999994 245" fill-opacity="0.09803921568627451"/><path fill="none" stroke="rgb(255,0,0)" paint-order="fill stroke markers" d=" M 251.99999999999994 245 L 247.25658350974768 235.5131670194955 L 237.76975052924223 240.25658350974743 L 242.51316701949543 249.74341649025226 L 251.99999999999994 245" stroke-opacity="0.6980392156862745" stroke-linecap="round" stroke-linejoin="round" stroke-miterlimit="10" stroke-width="0.5"/><path fill="rgb(255,0,0)" stroke="none" paint-order="stroke fill markers" fill-rule="evenodd" d=" M 151.99999999999997 245 L 162.60660171779747 245 L 162.60660171779818 234.3933982822018 L 151.99999999999997 234.3933982822025 L 151.99999999999997 245" fill-opacity="0.09803921568627451"/><path fill="none" stroke="rgb(255,0,0)" paint-order="fill stroke markers" d=" M 151.99999999999997 245 L 162.60660171779747 245 L 162.60660171779818 234.3933982822018 L 151.99999999999997 234.3933982822025 L 151.99999999999997 245" stroke-opacity="0.6980392156862745" stroke-linecap="round" stroke-linejoin="round" stroke-miterlimit="10" stroke-width="0.5"/><path fill="none" stroke="rgb(0,100,0)" paint-order="fill stroke markers" d=" M 151.99999999999997 45.0000000000002 L 52.000000000000014 245" stroke-opacity="0.6980392156862745" stroke-linecap="round" stroke-linejoin="round" stroke-miterlimit="10" stroke-width="0.5"/><path fill="none" stroke="rgb(0,100,0)" paint-order="fill stroke markers" d=" M 52.000000000000014 245 L 251.99999999999994 245" stroke-opacity="0.6980392156862745" stroke-linecap="round" stroke-linejoin="round" stroke-miterlimit="10" stroke-width="0.5"/><path fill="none" stroke="rgb(0,100,0)" paint-order="fill stroke markers" d=" M 251.99999999999994 245 L 151.99999999999997 45.0000000000002" stroke-opacity="0.6980392156862745" stroke-linecap="round" stroke-linejoin="round" stroke-miterlimit="10" stroke-width="0.5"/><path fill="none" stroke="rgb(255,85,0)" paint-order="fill stroke markers" d=" M 117.45084971874735 179.19660112501057 L 117.45084971874735 187.19660112501057" stroke-opacity="0.6980392156862745" stroke-linecap="round" stroke-linejoin="round" stroke-miterlimit="10" stroke-width="0.5"/><path fill="none" stroke="rgb(255,85,0)" paint-order="fill stroke markers" d=" M 82.90169943749474 183.19660112501057 L 151.99999999999997 183.19660112501057" stroke-opacity="0.6980392156862745" stroke-linecap="round" stroke-linejoin="round" stroke-miterlimit="10" stroke-width="0.5"/><path fill="none" stroke="rgb(255,85,0)" paint-order="fill stroke markers" d=" M 186.5491502812526 179.19660112501057 L 186.5491502812526 187.19660112501057" stroke-opacity="0.6980392156862745" stroke-linecap="round" stroke-linejoin="round" stroke-miterlimit="10" stroke-width="0.5"/><path fill="none" stroke="rgb(255,85,0)" paint-order="fill stroke markers" d=" M 151.99999999999997 183.19660112501057 L 221.0983005625052 183.19660112501057" stroke-opacity="0.6980392156862745" stroke-linecap="round" stroke-linejoin="round" stroke-miterlimit="10" stroke-width="0.5"/><path fill="none" stroke="rgb(102,102,102)" paint-order="fill stroke markers" d=" M 117.0036361232474 204.71970542288645 L 120.58134488724706 197.56428789488714" stroke-opacity="0.6980392156862745" stroke-linecap="round" stroke-linejoin="round" stroke-miterlimit="10" stroke-width="0.5"/><path fill="none" stroke="rgb(102,102,102)" paint-order="fill stroke markers" d=" M 114.32035455024764 203.3780646363866 L 117.8980633142473 196.2226471083873" stroke-opacity="0.6980392156862745" stroke-linecap="round" stroke-linejoin="round" stroke-miterlimit="10" stroke-width="0.5"/><path fill="none" stroke="rgb(102,102,102)" paint-order="fill stroke markers" d=" M 151.99999999999997 217.74575140626317 L 82.90169943749474 183.19660112501057" stroke-opacity="0.6980392156862745" stroke-linecap="round" stroke-linejoin="round" stroke-miterlimit="10" stroke-width="0.5"/><path fill="none" stroke="rgb(102,102,102)" paint-order="fill stroke markers" d=" M 183.41865511275287 197.56428789488714 L 186.99636387675255 204.71970542288645" stroke-opacity="0.6980392156862745" stroke-linecap="round" stroke-linejoin="round" stroke-miterlimit="10" stroke-width="0.5"/><path fill="none" stroke="rgb(102,102,102)" paint-order="fill stroke markers" d=" M 186.10193668575263 196.2226471083873 L 189.67964544975231 203.3780646363866" stroke-opacity="0.6980392156862745" stroke-linecap="round" stroke-linejoin="round" stroke-miterlimit="10" stroke-width="0.5"/><path fill="none" stroke="rgb(102,102,102)" paint-order="fill stroke markers" d=" M 151.99999999999997 217.74575140626317 L 221.0983005625052 183.19660112501057" stroke-opacity="0.6980392156862745" stroke-linecap="round" stroke-linejoin="round" stroke-miterlimit="10" stroke-width="0.5"/><path fill="none" stroke="rgb(0,100,0)" paint-order="fill stroke markers" d=" M 151.99999999999997 294.99999999999994 L 52.000000000000014 245" stroke-opacity="0.6980392156862745" stroke-linecap="round" stroke-linejoin="round" stroke-miterlimit="10" stroke-width="0.5"/><path fill="none" stroke="rgb(0,100,0)" paint-order="fill stroke markers" d=" M 151.99999999999997 294.99999999999994 L 251.99999999999994 245" stroke-opacity="0.6980392156862745" stroke-linecap="round" stroke-linejoin="round" stroke-miterlimit="10" stroke-width="0.5"/><path fill="none" stroke="rgb(0,100,0)" paint-order="fill stroke markers" d=" M 151.99999999999997 45.0000000000002 L 151.99999999999997 217.74575140626317" stroke-opacity="0.6980392156862745" stroke-linecap="round" stroke-linejoin="round" stroke-miterlimit="10" stroke-width="0.5"/><path fill="none" stroke="rgb(255,0,255)" paint-order="fill stroke markers" d=" M 155.99999999999997 254.87287570313157 L 147.99999999999997 254.87287570313157" stroke-opacity="0.6980392156862745" stroke-linecap="round" stroke-linejoin="round" stroke-miterlimit="10" stroke-width="0.5"/><path fill="none" stroke="rgb(255,0,255)" paint-order="fill stroke markers" d=" M 155.99999999999997 257.87287570313157 L 147.99999999999997 257.87287570313157" stroke-opacity="0.6980392156862745" stroke-linecap="round" stroke-linejoin="round" stroke-miterlimit="10" stroke-width="0.5"/><path fill="none" stroke="rgb(255,0,255)" paint-order="fill stroke markers" d=" M 151.99999999999997 217.74575140626317 L 151.99999999999997 294.99999999999994" stroke-opacity="0.6980392156862745" stroke-linecap="round" stroke-linejoin="round" stroke-miterlimit="10" stroke-width="0.5"/><path fill="none" stroke="rgb(0,100,0)" paint-order="fill stroke markers" d=" M 258.99999999999994 294.99999999999994 L 45.000000000000014 294.99999999999994" stroke-opacity="0.6980392156862745" stroke-linecap="round" stroke-linejoin="round" stroke-miterlimit="10" stroke-width="0.5"/><path fill="rgb(0,0,255)" stroke="none" paint-order="stroke fill markers" d=" M 153.99999999999997 45.0000000000002 C 153.99999999999997 46.104569499661785 153.10456949966155 47.0000000000002 151.99999999999997 47.0000000000002 C 150.8954305003384 47.0000000000002 149.99999999999997 46.104569499661785 149.99999999999997 45.0000000000002 C 149.99999999999997 43.89543050033861 150.8954305003384 43.0000000000002 151.99999999999997 43.0000000000002 C 153.10456949966155 43.0000000000002 153.99999999999997 43.89543050033861 153.99999999999997 45.0000000000002 Z" fill-opacity="1"/><path fill="none" stroke="rgb(0,0,0)" paint-order="fill stroke markers" d=" M 153.99999999999997 45.0000000000002 C 153.99999999999997 46.104569499661785 153.10456949966155 47.0000000000002 151.99999999999997 47.0000000000002 C 150.8954305003384 47.0000000000002 149.99999999999997 46.104569499661785 149.99999999999997 45.0000000000002 C 149.99999999999997 43.89543050033861 150.8954305003384 43.0000000000002 151.99999999999997 43.0000000000002 C 153.10456949966155 43.0000000000002 153.99999999999997 43.89543050033861 153.99999999999997 45.0000000000002 Z" stroke-opacity="1" stroke-linecap="round" stroke-linejoin="round" stroke-miterlimit="10"/><text fill="rgb(0,0,255)" stroke="none" font-family="geogebra-sans-serif, sans-serif" font-size="16px" font-style="normal" font-weight="normal" text-decoration="normal" x="147" y="31" text-anchor="start" dominant-baseline="alphabetic" fill-opacity="1">A</text><text fill="none" stroke="rgb(255,255,255)" font-family="geogebra-sans-serif, sans-serif" font-size="16px" font-style="normal" font-weight="normal" text-decoration="normal" x="147" y="31" text-anchor="start" dominant-baseline="alphabetic" stroke-opacity="1" stroke-linejoin="bevel" stroke-miterlimit="10" stroke-width="3">A</text><text fill="rgb(0,0,255)" stroke="none" font-family="geogebra-sans-serif, sans-serif" font-size="16px" font-style="normal" font-weight="normal" text-decoration="normal" x="147" y="31" text-anchor="start" dominant-baseline="alphabetic" fill-opacity="1">A</text><path fill="rgb(0,0,255)" stroke="none" paint-order="stroke fill markers" d=" M 54.000000000000014 245 C 54.000000000000014 246.10456949966158 53.1045694996616 247 52.000000000000014 247 C 50.89543050033843 247 50.000000000000014 246.10456949966158 50.000000000000014 245 C 50.000000000000014 243.89543050033842 50.89543050033843 243 52.000000000000014 243 C 53.1045694996616 243 54.000000000000014 243.89543050033842 54.000000000000014 245 Z" fill-opacity="1"/><path fill="none" stroke="rgb(0,0,0)" paint-order="fill stroke markers" d=" M 54.000000000000014 245 C 54.000000000000014 246.10456949966158 53.1045694996616 247 52.000000000000014 247 C 50.89543050033843 247 50.000000000000014 246.10456949966158 50.000000000000014 245 C 50.000000000000014 243.89543050033842 50.89543050033843 243 52.000000000000014 243 C 53.1045694996616 243 54.000000000000014 243.89543050033842 54.000000000000014 245 Z" stroke-opacity="1" stroke-linecap="round" stroke-linejoin="round" stroke-miterlimit="10"/><text fill="rgb(0,0,255)" stroke="none" font-family="geogebra-sans-serif, sans-serif" font-size="16px" font-style="normal" font-weight="normal" text-decoration="normal" x="29" y="263" text-anchor="start" dominant-baseline="alphabetic" fill-opacity="1">B</text><text fill="none" stroke="rgb(255,255,255)" font-family="geogebra-sans-serif, sans-serif" font-size="16px" font-style="normal" font-weight="normal" text-decoration="normal" x="29" y="263" text-anchor="start" dominant-baseline="alphabetic" stroke-opacity="1" stroke-linejoin="bevel" stroke-miterlimit="10" stroke-width="3">B</text><text fill="rgb(0,0,255)" stroke="none" font-family="geogebra-sans-serif, sans-serif" font-size="16px" font-style="normal" font-weight="normal" text-decoration="normal" x="29" y="263" text-anchor="start" dominant-baseline="alphabetic" fill-opacity="1">B</text><path fill="rgb(0,0,255)" stroke="none" paint-order="stroke fill markers" d=" M 253.99999999999994 245 C 253.99999999999994 246.10456949966158 253.10456949966152 247 251.99999999999994 247 C 250.89543050033836 247 249.99999999999994 246.10456949966158 249.99999999999994 245 C 249.99999999999994 243.89543050033842 250.89543050033836 243 251.99999999999994 243 C 253.10456949966152 243 253.99999999999994 243.89543050033842 253.99999999999994 245 Z" fill-opacity="1"/><path fill="none" stroke="rgb(0,0,0)" paint-order="fill stroke markers" d=" M 253.99999999999994 245 C 253.99999999999994 246.10456949966158 253.10456949966152 247 251.99999999999994 247 C 250.89543050033836 247 249.99999999999994 246.10456949966158 249.99999999999994 245 C 249.99999999999994 243.89543050033842 250.89543050033836 243 251.99999999999994 243 C 253.10456949966152 243 253.99999999999994 243.89543050033842 253.99999999999994 245 Z" stroke-opacity="1" stroke-linecap="round" stroke-linejoin="round" stroke-miterlimit="10"/><text fill="rgb(0,0,255)" stroke="none" font-family="geogebra-sans-serif, sans-serif" font-size="16px" font-style="normal" font-weight="normal" text-decoration="normal" x="263" y="254" text-anchor="start" dominant-baseline="alphabetic" fill-opacity="1">C</text><text fill="none" stroke="rgb(255,255,255)" font-family="geogebra-sans-serif, sans-serif" font-size="16px" font-style="normal" font-weight="normal" text-decoration="normal" x="263" y="254" text-anchor="start" dominant-baseline="alphabetic" stroke-opacity="1" stroke-linejoin="bevel" stroke-miterlimit="10" stroke-width="3">C</text><text fill="rgb(0,0,255)" stroke="none" font-family="geogebra-sans-serif, sans-serif" font-size="16px" font-style="normal" font-weight="normal" text-decoration="normal" x="263" y="254" text-anchor="start" dominant-baseline="alphabetic" fill-opacity="1">C</text><path fill="rgb(0,0,255)" stroke="none" paint-order="stroke fill markers" d=" M 153.99999999999997 294.99999999999994 C 153.99999999999997 296.1045694996615 153.10456949966155 296.99999999999994 151.99999999999997 296.99999999999994 C 150.8954305003384 296.99999999999994 149.99999999999997 296.1045694996615 149.99999999999997 294.99999999999994 C 149.99999999999997 293.89543050033836 150.8954305003384 292.99999999999994 151.99999999999997 292.99999999999994 C 153.10456949966155 292.99999999999994 153.99999999999997 293.89543050033836 153.99999999999997 294.99999999999994 Z" fill-opacity="1"/><path fill="none" stroke="rgb(0,0,0)" paint-order="fill stroke markers" d=" M 153.99999999999997 294.99999999999994 C 153.99999999999997 296.1045694996615 153.10456949966155 296.99999999999994 151.99999999999997 296.99999999999994 C 150.8954305003384 296.99999999999994 149.99999999999997 296.1045694996615 149.99999999999997 294.99999999999994 C 149.99999999999997 293.89543050033836 150.8954305003384 292.99999999999994 151.99999999999997 292.99999999999994 C 153.10456949966155 292.99999999999994 153.99999999999997 293.89543050033836 153.99999999999997 294.99999999999994 Z" stroke-opacity="1" stroke-linecap="round" stroke-linejoin="round" stroke-miterlimit="10"/><text fill="rgb(0,0,255)" stroke="none" font-family="geogebra-sans-serif, sans-serif" font-size="16px" font-style="normal" font-weight="normal" text-decoration="normal" x="150" y="319" text-anchor="start" dominant-baseline="alphabetic" fill-opacity="1">D</text><text fill="none" stroke="rgb(255,255,255)" font-family="geogebra-sans-serif, sans-serif" font-size="16px" font-style="normal" font-weight="normal" text-decoration="normal" x="150" y="319" text-anchor="start" dominant-baseline="alphabetic" stroke-opacity="1" stroke-linejoin="bevel" stroke-miterlimit="10" stroke-width="3">D</text><text fill="rgb(0,0,255)" stroke="none" font-family="geogebra-sans-serif, sans-serif" font-size="16px" font-style="normal" font-weight="normal" text-decoration="normal" x="150" y="319" text-anchor="start" dominant-baseline="alphabetic" fill-opacity="1">D</text><path fill="rgb(0,0,255)" stroke="none" paint-order="stroke fill markers" d=" M 153.99999999999997 183.19660112501057 C 153.99999999999997 184.30117062467215 153.10456949966155 185.19660112501057 151.99999999999997 185.19660112501057 C 150.8954305003384 185.19660112501057 149.99999999999997 184.30117062467215 149.99999999999997 183.19660112501057 C 149.99999999999997 182.092031625349 150.8954305003384 181.19660112501057 151.99999999999997 181.19660112501057 C 153.10456949966155 181.19660112501057 153.99999999999997 182.092031625349 153.99999999999997 183.19660112501057 Z" fill-opacity="1"/><path fill="none" stroke="rgb(0,0,0)" paint-order="fill stroke markers" d=" M 153.99999999999997 183.19660112501057 C 153.99999999999997 184.30117062467215 153.10456949966155 185.19660112501057 151.99999999999997 185.19660112501057 C 150.8954305003384 185.19660112501057 149.99999999999997 184.30117062467215 149.99999999999997 183.19660112501057 C 149.99999999999997 182.092031625349 150.8954305003384 181.19660112501057 151.99999999999997 181.19660112501057 C 153.10456949966155 181.19660112501057 153.99999999999997 182.092031625349 153.99999999999997 183.19660112501057 Z" stroke-opacity="1" stroke-linecap="round" stroke-linejoin="round" stroke-miterlimit="10"/><text fill="rgb(0,0,255)" stroke="none" font-family="geogebra-sans-serif, sans-serif" font-size="16px" font-style="normal" font-weight="normal" text-decoration="normal" x="162" y="170" text-anchor="start" dominant-baseline="alphabetic" fill-opacity="1">F</text><text fill="none" stroke="rgb(255,255,255)" font-family="geogebra-sans-serif, sans-serif" font-size="16px" font-style="normal" font-weight="normal" text-decoration="normal" x="162" y="170" text-anchor="start" dominant-baseline="alphabetic" stroke-opacity="1" stroke-linejoin="bevel" stroke-miterlimit="10" stroke-width="3">F</text><text fill="rgb(0,0,255)" stroke="none" font-family="geogebra-sans-serif, sans-serif" font-size="16px" font-style="normal" font-weight="normal" text-decoration="normal" x="162" y="170" text-anchor="start" dominant-baseline="alphabetic" fill-opacity="1">F</text><path fill="rgb(0,0,255)" stroke="none" paint-order="stroke fill markers" d=" M 84.90169943749474 183.19660112501057 C 84.90169943749474 184.30117062467215 84.00626893715634 185.19660112501057 82.90169943749474 185.19660112501057 C 81.79712993783315 185.19660112501057 80.90169943749474 184.30117062467215 80.90169943749474 183.19660112501057 C 80.90169943749474 182.092031625349 81.79712993783315 181.19660112501057 82.90169943749474 181.19660112501057 C 84.00626893715634 181.19660112501057 84.90169943749474 182.092031625349 84.90169943749474 183.19660112501057 Z" fill-opacity="1"/><path fill="none" stroke="rgb(0,0,0)" paint-order="fill stroke markers" d=" M 84.90169943749474 183.19660112501057 C 84.90169943749474 184.30117062467215 84.00626893715634 185.19660112501057 82.90169943749474 185.19660112501057 C 81.79712993783315 185.19660112501057 80.90169943749474 184.30117062467215 80.90169943749474 183.19660112501057 C 80.90169943749474 182.092031625349 81.79712993783315 181.19660112501057 82.90169943749474 181.19660112501057 C 84.00626893715634 181.19660112501057 84.90169943749474 182.092031625349 84.90169943749474 183.19660112501057 Z" stroke-opacity="1" stroke-linecap="round" stroke-linejoin="round" stroke-miterlimit="10"/><text fill="rgb(0,0,255)" stroke="none" font-family="geogebra-sans-serif, sans-serif" font-size="16px" font-style="normal" font-weight="normal" text-decoration="normal" x="66" y="174" text-anchor="start" dominant-baseline="alphabetic" fill-opacity="1">P</text><text fill="none" stroke="rgb(255,255,255)" font-family="geogebra-sans-serif, sans-serif" font-size="16px" font-style="normal" font-weight="normal" text-decoration="normal" x="66" y="174" text-anchor="start" dominant-baseline="alphabetic" stroke-opacity="1" stroke-linejoin="bevel" stroke-miterlimit="10" stroke-width="3">P</text><text fill="rgb(0,0,255)" stroke="none" font-family="geogebra-sans-serif, sans-serif" font-size="16px" font-style="normal" font-weight="normal" text-decoration="normal" x="66" y="174" text-anchor="start" dominant-baseline="alphabetic" fill-opacity="1">P</text><path fill="rgb(0,0,255)" stroke="none" paint-order="stroke fill markers" d=" M 223.0983005625052 183.19660112501057 C 223.0983005625052 184.30117062467215 222.20287006216677 185.19660112501057 221.0983005625052 185.19660112501057 C 219.9937310628436 185.19660112501057 219.0983005625052 184.30117062467215 219.0983005625052 183.19660112501057 C 219.0983005625052 182.092031625349 219.9937310628436 181.19660112501057 221.0983005625052 181.19660112501057 C 222.20287006216677 181.19660112501057 223.0983005625052 182.092031625349 223.0983005625052 183.19660112501057 Z" fill-opacity="1"/><path fill="none" stroke="rgb(0,0,0)" paint-order="fill stroke markers" d=" M 223.0983005625052 183.19660112501057 C 223.0983005625052 184.30117062467215 222.20287006216677 185.19660112501057 221.0983005625052 185.19660112501057 C 219.9937310628436 185.19660112501057 219.0983005625052 184.30117062467215 219.0983005625052 183.19660112501057 C 219.0983005625052 182.092031625349 219.9937310628436 181.19660112501057 221.0983005625052 181.19660112501057 C 222.20287006216677 181.19660112501057 223.0983005625052 182.092031625349 223.0983005625052 183.19660112501057 Z" stroke-opacity="1" stroke-linecap="round" stroke-linejoin="round" stroke-miterlimit="10"/><text fill="rgb(0,0,255)" stroke="none" font-family="geogebra-sans-serif, sans-serif" font-size="16px" font-style="normal" font-weight="normal" text-decoration="normal" x="225" y="171" text-anchor="start" dominant-baseline="alphabetic" fill-opacity="1">Q</text><text fill="none" stroke="rgb(255,255,255)" font-family="geogebra-sans-serif, sans-serif" font-size="16px" font-style="normal" font-weight="normal" text-decoration="normal" x="225" y="171" text-anchor="start" dominant-baseline="alphabetic" stroke-opacity="1" stroke-linejoin="bevel" stroke-miterlimit="10" stroke-width="3">Q</text><text fill="rgb(0,0,255)" stroke="none" font-family="geogebra-sans-serif, sans-serif" font-size="16px" font-style="normal" font-weight="normal" text-decoration="normal" x="225" y="171" text-anchor="start" dominant-baseline="alphabetic" fill-opacity="1">Q</text><path fill="rgb(0,0,255)" stroke="none" paint-order="stroke fill markers" d=" M 153.99999999999997 217.74575140626317 C 153.99999999999997 218.85032090592475 153.10456949966155 219.74575140626317 151.99999999999997 219.74575140626317 C 150.8954305003384 219.74575140626317 149.99999999999997 218.85032090592475 149.99999999999997 217.74575140626317 C 149.99999999999997 216.6411819066016 150.8954305003384 215.74575140626317 151.99999999999997 215.74575140626317 C 153.10456949966155 215.74575140626317 153.99999999999997 216.6411819066016 153.99999999999997 217.74575140626317 Z" fill-opacity="1"/><path fill="none" stroke="rgb(0,0,0)" paint-order="fill stroke markers" d=" M 153.99999999999997 217.74575140626317 C 153.99999999999997 218.85032090592475 153.10456949966155 219.74575140626317 151.99999999999997 219.74575140626317 C 150.8954305003384 219.74575140626317 149.99999999999997 218.85032090592475 149.99999999999997 217.74575140626317 C 149.99999999999997 216.6411819066016 150.8954305003384 215.74575140626317 151.99999999999997 215.74575140626317 C 153.10456949966155 215.74575140626317 153.99999999999997 216.6411819066016 153.99999999999997 217.74575140626317 Z" stroke-opacity="1" stroke-linecap="round" stroke-linejoin="round" stroke-miterlimit="10"/><text fill="rgb(0,0,255)" stroke="none" font-family="geogebra-sans-serif, sans-serif" font-size="16px" font-style="normal" font-weight="normal" text-decoration="normal" x="130" y="236" text-anchor="start" dominant-baseline="alphabetic" fill-opacity="1">E</text><text fill="none" stroke="rgb(255,255,255)" font-family="geogebra-sans-serif, sans-serif" font-size="16px" font-style="normal" font-weight="normal" text-decoration="normal" x="130" y="236" text-anchor="start" dominant-baseline="alphabetic" stroke-opacity="1" stroke-linejoin="bevel" stroke-miterlimit="10" stroke-width="3">E</text><text fill="rgb(0,0,255)" stroke="none" font-family="geogebra-sans-serif, sans-serif" font-size="16px" font-style="normal" font-weight="normal" text-decoration="normal" x="130" y="236" text-anchor="start" dominant-baseline="alphabetic" fill-opacity="1">E</text><path fill="rgb(0,0,255)" stroke="none" paint-order="stroke fill markers" d=" M 153.99999999999997 245 C 153.99999999999997 246.10456949966158 153.10456949966155 247 151.99999999999997 247 C 150.8954305003384 247 149.99999999999997 246.10456949966158 149.99999999999997 245 C 149.99999999999997 243.89543050033842 150.8954305003384 243 151.99999999999997 243 C 153.10456949966155 243 153.99999999999997 243.89543050033842 153.99999999999997 245 Z" fill-opacity="1"/><path fill="none" stroke="rgb(0,0,0)" paint-order="fill stroke markers" d=" M 153.99999999999997 245 C 153.99999999999997 246.10456949966158 153.10456949966155 247 151.99999999999997 247 C 150.8954305003384 247 149.99999999999997 246.10456949966158 149.99999999999997 245 C 149.99999999999997 243.89543050033842 150.8954305003384 243 151.99999999999997 243 C 153.10456949966155 243 153.99999999999997 243.89543050033842 153.99999999999997 245 Z" stroke-opacity="1" stroke-linecap="round" stroke-linejoin="round" stroke-miterlimit="10"/><text fill="rgb(0,0,255)" stroke="none" font-family="geogebra-sans-serif, sans-serif" font-size="16px" font-style="normal" font-weight="normal" text-decoration="normal" x="164" y="266" text-anchor="start" dominant-baseline="alphabetic" fill-opacity="1">M</text><text fill="none" stroke="rgb(255,255,255)" font-family="geogebra-sans-serif, sans-serif" font-size="16px" font-style="normal" font-weight="normal" text-decoration="normal" x="164" y="266" text-anchor="start" dominant-baseline="alphabetic" stroke-opacity="1" stroke-linejoin="bevel" stroke-miterlimit="10" stroke-width="3">M</text><text fill="rgb(0,0,255)" stroke="none" font-family="geogebra-sans-serif, sans-serif" font-size="16px" font-style="normal" font-weight="normal" text-decoration="normal" x="164" y="266" text-anchor="start" dominant-baseline="alphabetic" fill-opacity="1">M</text></g></g></svg>