<svg version="1.1" xmlns="http://www.w3.org/2000/svg" xmlns:xlink="http://www.w3.org/1999/xlink" width="709" height="397"><defs><clipPath id="vEApCbipAsPk"><path fill="none" stroke="none" d=" M 0 0 L 709 0 L 709 397 L 0 397 L 0 0 Z"/></clipPath></defs><g transform="scale(1,1)" clip-path="url(#vEApCbipAsPk)"><g><rect fill="rgb(255,255,255)" stroke="none" x="0" y="0" width="709" height="397" fill-opacity="1"/><path fill="none" stroke="rgb(0,153,255)" paint-order="fill stroke markers" d=" M 425.2500000000001 196.99999999999997 C 425.2500000000001 241.94217151748074 388.8171715174809 278.37499999999994 343.87500000000017 278.37499999999994 C 298.93282848251937 278.37499999999994 262.50000000000017 241.94217151748074 262.50000000000017 196.99999999999997 C 262.50000000000017 152.05782848251917 298.93282848251937 115.62499999999999 343.87500000000017 115.62499999999999 C 388.8171715174809 115.62499999999999 425.2500000000001 152.05782848251917 425.2500000000001 196.99999999999997 Z" stroke-opacity="0.6980392156862745" stroke-linecap="round" stroke-linejoin="round" stroke-miterlimit="10" stroke-width="0.5"/><path fill="rgb(0,153,204)" stroke="none" paint-order="stroke fill markers" d=" M 431.96416269690025 142.38489186293538 C 433.7463996600262 147.91496046456894 437.8453895203918 152.39664827328832 443.19484162321214 154.66411151028623 L 451.0000000000001 136.25 Z" fill-opacity="0.09803921568627451"/><path fill="none" stroke="rgb(0,153,204)" paint-order="fill stroke markers" d=" M 431.96416269690025 142.38489186293538 C 433.7463996600262 147.91496046456894 437.8453895203918 152.39664827328832 443.19484162321214 154.66411151028623 L 451.0000000000001 136.25 Z" stroke-opacity="0.6980392156862745" stroke-linecap="round" stroke-linejoin="round" stroke-miterlimit="10" stroke-width="0.5"/><path fill="none" stroke="rgb(0,100,0)" paint-order="fill stroke markers" d=" M 262.50000000000017 196.99999999999997 L 425.2500000000001 196.99999999999997" stroke-opacity="0.6980392156862745" stroke-linecap="round" stroke-linejoin="round" stroke-miterlimit="10" stroke-width="0.5"/><path fill="none" stroke="rgb(244,0,153)" paint-order="fill stroke markers" d=" M 468.2572610849862 108.28244424297144 L 464.95911336945665 100.99394497038132" stroke-opacity="0.6980392156862745" stroke-linecap="round" stroke-linejoin="round" stroke-miterlimit="10" stroke-width="0.5"/><path fill="none" stroke="rgb(244,0,153)" paint-order="fill stroke markers" d=" M 465.5240738577649 109.51924963629504 L 462.2259261422353 102.23075036370493" stroke-opacity="0.6980392156862745" stroke-linecap="round" stroke-linejoin="round" stroke-miterlimit="10" stroke-width="0.5"/><path fill="none" stroke="rgb(244,0,153)" paint-order="fill stroke markers" d=" M 462.7908866305436 110.75605502961865 L 459.492738915014 103.46755575702853" stroke-opacity="0.6980392156862745" stroke-linecap="round" stroke-linejoin="round" stroke-miterlimit="10" stroke-width="0.5"/><path fill="none" stroke="rgb(244,0,153)" paint-order="fill stroke markers" d=" M 665.2500000000001 14.75 L 262.50000000000017 196.99999999999997" stroke-opacity="0.6980392156862745" stroke-linecap="round" stroke-linejoin="round" stroke-miterlimit="10" stroke-width="0.5"/><path fill="none" stroke="rgb(127,0,255)" paint-order="fill stroke markers" d=" M 548.8636737141335 108.15345611934511 L 544.0255320472772 101.78224075558374" stroke-opacity="0.6980392156862745" stroke-linecap="round" stroke-linejoin="round" stroke-miterlimit="10" stroke-width="0.5"/><path fill="none" stroke="rgb(127,0,255)" paint-order="fill stroke markers" d=" M 546.474467952723 109.96775924441623 L 541.6363262858667 103.59654388065486" stroke-opacity="0.6980392156862745" stroke-linecap="round" stroke-linejoin="round" stroke-miterlimit="10" stroke-width="0.5"/><path fill="none" stroke="rgb(127,0,255)" paint-order="fill stroke markers" d=" M 665.2500000000001 14.75 L 425.2500000000001 196.99999999999997" stroke-opacity="0.6980392156862745" stroke-linecap="round" stroke-linejoin="round" stroke-miterlimit="10" stroke-width="0.5"/><path fill="none" stroke="rgb(0,100,0)" paint-order="fill stroke markers" d=" M 665.2500000000001 14.75 L 343.87500000000017 196.99999999999997" stroke-opacity="0.6980392156862745" stroke-linecap="round" stroke-linejoin="round" stroke-miterlimit="10" stroke-width="0.5"/><path fill="none" stroke="rgb(0,100,0)" paint-order="fill stroke markers" d=" M 262.50000000000017 196.99999999999997 L 451.0000000000001 136.25" stroke-opacity="0.6980392156862745" stroke-linecap="round" stroke-linejoin="round" stroke-miterlimit="10" stroke-width="0.5"/><path fill="none" stroke="rgb(0,100,0)" paint-order="fill stroke markers" d=" M 425.2500000000001 196.99999999999997 L 451.0000000000001 136.25" stroke-opacity="0.6980392156862745" stroke-linecap="round" stroke-linejoin="round" stroke-miterlimit="10" stroke-width="0.5"/><path fill="none" stroke="rgb(255,85,0)" paint-order="fill stroke markers" d=" M 262.50000000000017 196.99999999999997 L 414.660061321327 156.85817992746223" stroke-opacity="0.6980392156862745" stroke-linecap="round" stroke-linejoin="round" stroke-miterlimit="10" stroke-width="0.5"/><path fill="none" stroke="rgb(255,85,0)" paint-order="fill stroke markers" d=" M 414.660061321327 156.85817992746223 L 425.2500000000001 196.99999999999997" stroke-opacity="0.6980392156862745" stroke-linecap="round" stroke-linejoin="round" stroke-miterlimit="10" stroke-width="0.5"/><path fill="none" stroke="rgb(127,0,255)" paint-order="fill stroke markers" d=" M 146.11367371413357 290.4034561193451 L 141.27553204727727 284.0322407555837" stroke-opacity="0.6980392156862745" stroke-linecap="round" stroke-linejoin="round" stroke-miterlimit="10" stroke-width="0.5"/><path fill="none" stroke="rgb(127,0,255)" paint-order="fill stroke markers" d=" M 143.72446795272307 292.2177592444162 L 138.88632628586677 285.8465438806548" stroke-opacity="0.6980392156862745" stroke-linecap="round" stroke-linejoin="round" stroke-miterlimit="10" stroke-width="0.5"/><path fill="none" stroke="rgb(127,0,255)" paint-order="fill stroke markers" d=" M 262.50000000000017 196.99999999999997 L 22.5000000000002 379.24999999999994" stroke-opacity="0.6980392156862745" stroke-linecap="round" stroke-linejoin="round" stroke-miterlimit="10" stroke-width="0.5"/><path fill="none" stroke="rgb(244,0,153)" paint-order="fill stroke markers" d=" M 219.49273891501406 285.7175557570285 L 222.7908866305437 293.0060550296186" stroke-opacity="0.6980392156862745" stroke-linecap="round" stroke-linejoin="round" stroke-miterlimit="10" stroke-width="0.5"/><path fill="none" stroke="rgb(244,0,153)" paint-order="fill stroke markers" d=" M 222.22592614223535 284.4807503637049 L 225.524073857765 291.769249636295" stroke-opacity="0.6980392156862745" stroke-linecap="round" stroke-linejoin="round" stroke-miterlimit="10" stroke-width="0.5"/><path fill="none" stroke="rgb(244,0,153)" paint-order="fill stroke markers" d=" M 224.95911336945665 283.2439449703813 L 228.25726108498628 290.5324442429714" stroke-opacity="0.6980392156862745" stroke-linecap="round" stroke-linejoin="round" stroke-miterlimit="10" stroke-width="0.5"/><path fill="none" stroke="rgb(244,0,153)" paint-order="fill stroke markers" d=" M 22.5000000000002 379.24999999999994 L 425.2500000000001 196.99999999999997" stroke-opacity="0.6980392156862745" stroke-linecap="round" stroke-linejoin="round" stroke-miterlimit="10" stroke-width="0.5"/><path fill="rgb(0,0,255)" stroke="none" paint-order="stroke fill markers" d=" M 264.50000000000017 196.99999999999997 C 264.50000000000017 198.10456949966155 263.60456949966175 198.99999999999997 262.50000000000017 198.99999999999997 C 261.3954305003386 198.99999999999997 260.50000000000017 198.10456949966155 260.50000000000017 196.99999999999997 C 260.50000000000017 195.8954305003384 261.3954305003386 194.99999999999997 262.50000000000017 194.99999999999997 C 263.60456949966175 194.99999999999997 264.50000000000017 195.8954305003384 264.50000000000017 196.99999999999997 Z" fill-opacity="1"/><path fill="none" stroke="rgb(0,0,0)" paint-order="fill stroke markers" d=" M 264.50000000000017 196.99999999999997 C 264.50000000000017 198.10456949966155 263.60456949966175 198.99999999999997 262.50000000000017 198.99999999999997 C 261.3954305003386 198.99999999999997 260.50000000000017 198.10456949966155 260.50000000000017 196.99999999999997 C 260.50000000000017 195.8954305003384 261.3954305003386 194.99999999999997 262.50000000000017 194.99999999999997 C 263.60456949966175 194.99999999999997 264.50000000000017 195.8954305003384 264.50000000000017 196.99999999999997 Z" stroke-opacity="1" stroke-linecap="round" stroke-linejoin="round" stroke-miterlimit="10"/><text fill="rgb(0,0,255)" stroke="none" font-family="geogebra-sans-serif, sans-serif" font-size="16px" font-style="normal" font-weight="normal" text-decoration="normal" x="244" y="194" text-anchor="start" dominant-baseline="alphabetic" fill-opacity="1">A</text><text fill="none" stroke="rgb(255,255,255)" font-family="geogebra-sans-serif, sans-serif" font-size="16px" font-style="normal" font-weight="normal" text-decoration="normal" x="244" y="194" text-anchor="start" dominant-baseline="alphabetic" stroke-opacity="1" stroke-linejoin="bevel" stroke-miterlimit="10" stroke-width="3">A</text><text fill="rgb(0,0,255)" stroke="none" font-family="geogebra-sans-serif, sans-serif" font-size="16px" font-style="normal" font-weight="normal" text-decoration="normal" x="244" y="194" text-anchor="start" dominant-baseline="alphabetic" fill-opacity="1">A</text><path fill="rgb(0,0,255)" stroke="none" paint-order="stroke fill markers" d=" M 427.2500000000001 196.99999999999997 C 427.2500000000001 198.10456949966155 426.3545694996617 198.99999999999997 425.2500000000001 198.99999999999997 C 424.14543050033853 198.99999999999997 423.2500000000001 198.10456949966155 423.2500000000001 196.99999999999997 C 423.2500000000001 195.8954305003384 424.14543050033853 194.99999999999997 425.2500000000001 194.99999999999997 C 426.3545694996617 194.99999999999997 427.2500000000001 195.8954305003384 427.2500000000001 196.99999999999997 Z" fill-opacity="1"/><path fill="none" stroke="rgb(0,0,0)" paint-order="fill stroke markers" d=" M 427.2500000000001 196.99999999999997 C 427.2500000000001 198.10456949966155 426.3545694996617 198.99999999999997 425.2500000000001 198.99999999999997 C 424.14543050033853 198.99999999999997 423.2500000000001 198.10456949966155 423.2500000000001 196.99999999999997 C 423.2500000000001 195.8954305003384 424.14543050033853 194.99999999999997 425.2500000000001 194.99999999999997 C 426.3545694996617 194.99999999999997 427.2500000000001 195.8954305003384 427.2500000000001 196.99999999999997 Z" stroke-opacity="1" stroke-linecap="round" stroke-linejoin="round" stroke-miterlimit="10"/><text fill="rgb(0,0,255)" stroke="none" font-family="geogebra-sans-serif, sans-serif" font-size="16px" font-style="normal" font-weight="normal" text-decoration="normal" x="435" y="215" text-anchor="start" dominant-baseline="alphabetic" fill-opacity="1">B</text><text fill="none" stroke="rgb(255,255,255)" font-family="geogebra-sans-serif, sans-serif" font-size="16px" font-style="normal" font-weight="normal" text-decoration="normal" x="435" y="215" text-anchor="start" dominant-baseline="alphabetic" stroke-opacity="1" stroke-linejoin="bevel" stroke-miterlimit="10" stroke-width="3">B</text><text fill="rgb(0,0,255)" stroke="none" font-family="geogebra-sans-serif, sans-serif" font-size="16px" font-style="normal" font-weight="normal" text-decoration="normal" x="435" y="215" text-anchor="start" dominant-baseline="alphabetic" fill-opacity="1">B</text><path fill="rgb(0,0,255)" stroke="none" paint-order="stroke fill markers" d=" M 345.87500000000017 196.99999999999997 C 345.87500000000017 198.10456949966155 344.97956949966175 198.99999999999997 343.87500000000017 198.99999999999997 C 342.7704305003386 198.99999999999997 341.87500000000017 198.10456949966155 341.87500000000017 196.99999999999997 C 341.87500000000017 195.8954305003384 342.7704305003386 194.99999999999997 343.87500000000017 194.99999999999997 C 344.97956949966175 194.99999999999997 345.87500000000017 195.8954305003384 345.87500000000017 196.99999999999997 Z" fill-opacity="1"/><path fill="none" stroke="rgb(0,0,0)" paint-order="fill stroke markers" d=" M 345.87500000000017 196.99999999999997 C 345.87500000000017 198.10456949966155 344.97956949966175 198.99999999999997 343.87500000000017 198.99999999999997 C 342.7704305003386 198.99999999999997 341.87500000000017 198.10456949966155 341.87500000000017 196.99999999999997 C 341.87500000000017 195.8954305003384 342.7704305003386 194.99999999999997 343.87500000000017 194.99999999999997 C 344.97956949966175 194.99999999999997 345.87500000000017 195.8954305003384 345.87500000000017 196.99999999999997 Z" stroke-opacity="1" stroke-linecap="round" stroke-linejoin="round" stroke-miterlimit="10"/><text fill="rgb(0,0,255)" stroke="none" font-family="geogebra-sans-serif, sans-serif" font-size="16px" font-style="normal" font-weight="normal" text-decoration="normal" x="328" y="215" text-anchor="start" dominant-baseline="alphabetic" fill-opacity="1">M</text><text fill="none" stroke="rgb(255,255,255)" font-family="geogebra-sans-serif, sans-serif" font-size="16px" font-style="normal" font-weight="normal" text-decoration="normal" x="328" y="215" text-anchor="start" dominant-baseline="alphabetic" stroke-opacity="1" stroke-linejoin="bevel" stroke-miterlimit="10" stroke-width="3">M</text><text fill="rgb(0,0,255)" stroke="none" font-family="geogebra-sans-serif, sans-serif" font-size="16px" font-style="normal" font-weight="normal" text-decoration="normal" x="328" y="215" text-anchor="start" dominant-baseline="alphabetic" fill-opacity="1">M</text><path fill="rgb(0,0,255)" stroke="none" paint-order="stroke fill markers" d=" M 667.2500000000001 14.75 C 667.2500000000001 15.854569499661586 666.3545694996617 16.75 665.2500000000001 16.75 C 664.1454305003385 16.75 663.2500000000001 15.854569499661586 663.2500000000001 14.75 C 663.2500000000001 13.645430500338414 664.1454305003385 12.75 665.2500000000001 12.75 C 666.3545694996617 12.75 667.2500000000001 13.645430500338414 667.2500000000001 14.75 Z" fill-opacity="1"/><path fill="none" stroke="rgb(0,0,0)" paint-order="fill stroke markers" d=" M 667.2500000000001 14.75 C 667.2500000000001 15.854569499661586 666.3545694996617 16.75 665.2500000000001 16.75 C 664.1454305003385 16.75 663.2500000000001 15.854569499661586 663.2500000000001 14.75 C 663.2500000000001 13.645430500338414 664.1454305003385 12.75 665.2500000000001 12.75 C 666.3545694996617 12.75 667.2500000000001 13.645430500338414 667.2500000000001 14.75 Z" stroke-opacity="1" stroke-linecap="round" stroke-linejoin="round" stroke-miterlimit="10"/><text fill="rgb(0,0,255)" stroke="none" font-family="geogebra-sans-serif, sans-serif" font-size="16px" font-style="normal" font-weight="normal" text-decoration="normal" x="656" y="47" text-anchor="start" dominant-baseline="alphabetic" fill-opacity="1">C</text><text fill="none" stroke="rgb(255,255,255)" font-family="geogebra-sans-serif, sans-serif" font-size="16px" font-style="normal" font-weight="normal" text-decoration="normal" x="656" y="47" text-anchor="start" dominant-baseline="alphabetic" stroke-opacity="1" stroke-linejoin="bevel" stroke-miterlimit="10" stroke-width="3">C</text><text fill="rgb(0,0,255)" stroke="none" font-family="geogebra-sans-serif, sans-serif" font-size="16px" font-style="normal" font-weight="normal" text-decoration="normal" x="656" y="47" text-anchor="start" dominant-baseline="alphabetic" fill-opacity="1">C</text><path fill="rgb(0,0,255)" stroke="none" paint-order="stroke fill markers" d=" M 453.0000000000001 136.25 C 453.0000000000001 137.35456949966158 452.1045694996617 138.25 451.0000000000001 138.25 C 449.89543050033853 138.25 449.0000000000001 137.35456949966158 449.0000000000001 136.25 C 449.0000000000001 135.14543050033842 449.89543050033853 134.25 451.0000000000001 134.25 C 452.1045694996617 134.25 453.0000000000001 135.14543050033842 453.0000000000001 136.25 Z" fill-opacity="1"/><path fill="none" stroke="rgb(0,0,0)" paint-order="fill stroke markers" d=" M 453.0000000000001 136.25 C 453.0000000000001 137.35456949966158 452.1045694996617 138.25 451.0000000000001 138.25 C 449.89543050033853 138.25 449.0000000000001 137.35456949966158 449.0000000000001 136.25 C 449.0000000000001 135.14543050033842 449.89543050033853 134.25 451.0000000000001 134.25 C 452.1045694996617 134.25 453.0000000000001 135.14543050033842 453.0000000000001 136.25 Z" stroke-opacity="1" stroke-linecap="round" stroke-linejoin="round" stroke-miterlimit="10"/><text fill="rgb(0,0,255)" stroke="none" font-family="geogebra-sans-serif, sans-serif" font-size="16px" font-style="normal" font-weight="normal" text-decoration="normal" x="454" y="151" text-anchor="start" dominant-baseline="alphabetic" fill-opacity="1">G</text><text fill="none" stroke="rgb(255,255,255)" font-family="geogebra-sans-serif, sans-serif" font-size="16px" font-style="normal" font-weight="normal" text-decoration="normal" x="454" y="151" text-anchor="start" dominant-baseline="alphabetic" stroke-opacity="1" stroke-linejoin="bevel" stroke-miterlimit="10" stroke-width="3">G</text><text fill="rgb(0,0,255)" stroke="none" font-family="geogebra-sans-serif, sans-serif" font-size="16px" font-style="normal" font-weight="normal" text-decoration="normal" x="454" y="151" text-anchor="start" dominant-baseline="alphabetic" fill-opacity="1">G</text><path fill="rgb(0,0,255)" stroke="none" paint-order="stroke fill markers" d=" M 416.660061321327 156.85817992746223 C 416.660061321327 157.9627494271238 415.7646308209886 158.85817992746223 414.660061321327 158.85817992746223 C 413.55549182166544 158.85817992746223 412.660061321327 157.9627494271238 412.660061321327 156.85817992746223 C 412.660061321327 155.75361042780065 413.55549182166544 154.85817992746223 414.660061321327 154.85817992746223 C 415.7646308209886 154.85817992746223 416.660061321327 155.75361042780065 416.660061321327 156.85817992746223 Z" fill-opacity="1"/><path fill="none" stroke="rgb(0,0,0)" paint-order="fill stroke markers" d=" M 416.660061321327 156.85817992746223 C 416.660061321327 157.9627494271238 415.7646308209886 158.85817992746223 414.660061321327 158.85817992746223 C 413.55549182166544 158.85817992746223 412.660061321327 157.9627494271238 412.660061321327 156.85817992746223 C 412.660061321327 155.75361042780065 413.55549182166544 154.85817992746223 414.660061321327 154.85817992746223 C 415.7646308209886 154.85817992746223 416.660061321327 155.75361042780065 416.660061321327 156.85817992746223 Z" stroke-opacity="1" stroke-linecap="round" stroke-linejoin="round" stroke-miterlimit="10"/><text fill="rgb(0,0,255)" stroke="none" font-family="geogebra-sans-serif, sans-serif" font-size="16px" font-style="normal" font-weight="normal" text-decoration="normal" x="407" y="181" text-anchor="start" dominant-baseline="alphabetic" fill-opacity="1">F</text><text fill="none" stroke="rgb(255,255,255)" font-family="geogebra-sans-serif, sans-serif" font-size="16px" font-style="normal" font-weight="normal" text-decoration="normal" x="407" y="181" text-anchor="start" dominant-baseline="alphabetic" stroke-opacity="1" stroke-linejoin="bevel" stroke-miterlimit="10" stroke-width="3">F</text><text fill="rgb(0,0,255)" stroke="none" font-family="geogebra-sans-serif, sans-serif" font-size="16px" font-style="normal" font-weight="normal" text-decoration="normal" x="407" y="181" text-anchor="start" dominant-baseline="alphabetic" fill-opacity="1">F</text><path fill="rgb(0,0,255)" stroke="none" paint-order="stroke fill markers" d=" M 24.5000000000002 379.24999999999994 C 24.5000000000002 380.3545694996615 23.604569499661785 381.24999999999994 22.5000000000002 381.24999999999994 C 21.395430500338612 381.24999999999994 20.5000000000002 380.3545694996615 20.5000000000002 379.24999999999994 C 20.5000000000002 378.14543050033836 21.395430500338612 377.24999999999994 22.5000000000002 377.24999999999994 C 23.604569499661785 377.24999999999994 24.5000000000002 378.14543050033836 24.5000000000002 379.24999999999994 Z" fill-opacity="1"/><path fill="none" stroke="rgb(0,0,0)" paint-order="fill stroke markers" d=" M 24.5000000000002 379.24999999999994 C 24.5000000000002 380.3545694996615 23.604569499661785 381.24999999999994 22.5000000000002 381.24999999999994 C 21.395430500338612 381.24999999999994 20.5000000000002 380.3545694996615 20.5000000000002 379.24999999999994 C 20.5000000000002 378.14543050033836 21.395430500338612 377.24999999999994 22.5000000000002 377.24999999999994 C 23.604569499661785 377.24999999999994 24.5000000000002 378.14543050033836 24.5000000000002 379.24999999999994 Z" stroke-opacity="1" stroke-linecap="round" stroke-linejoin="round" stroke-miterlimit="10"/><text fill="rgb(0,0,255)" stroke="none" font-family="geogebra-sans-serif, sans-serif" font-size="16px" font-style="normal" font-weight="normal" text-decoration="normal" x="15" y="363" text-anchor="start" dominant-baseline="alphabetic" fill-opacity="1">D</text><text fill="none" stroke="rgb(255,255,255)" font-family="geogebra-sans-serif, sans-serif" font-size="16px" font-style="normal" font-weight="normal" text-decoration="normal" x="15" y="363" text-anchor="start" dominant-baseline="alphabetic" stroke-opacity="1" stroke-linejoin="bevel" stroke-miterlimit="10" stroke-width="3">D</text><text fill="rgb(0,0,255)" stroke="none" font-family="geogebra-sans-serif, sans-serif" font-size="16px" font-style="normal" font-weight="normal" text-decoration="normal" x="15" y="363" text-anchor="start" dominant-baseline="alphabetic" fill-opacity="1">D</text></g></g></svg>