<svg version="1.1" xmlns="http://www.w3.org/2000/svg" xmlns:xlink="http://www.w3.org/1999/xlink" width="431" height="403"><defs><clipPath id="rbXEAiEMnsSP"><path fill="none" stroke="none" d=" M 0 0 L 431 0 L 431 403 L 0 403 L 0 0 Z"/></clipPath></defs><g transform="scale(1,1)" clip-path="url(#rbXEAiEMnsSP)"><g><rect fill="rgb(255,255,255)" stroke="none" x="0" y="0" width="431" height="403" fill-opacity="1"/><path fill="none" stroke="rgb(0,153,255)" paint-order="fill stroke markers" d=" M 377.5800330475248 182.19756767997407 C 377.5800330475248 274.0983056367652 303.0797650287805 348.5985736555099 211.17902707198982 348.5985736555099 C 119.27828911519913 348.5985736555099 44.778021096454836 274.0983056367652 44.778021096454836 182.19756767997407 C 44.778021096454836 90.29682972318294 119.27828911519913 15.79656170443829 211.17902707198982 15.79656170443829 C 303.0797650287805 15.79656170443829 377.5800330475248 90.29682972318294 377.5800330475248 182.19756767997407 Z" stroke-opacity="0.6980392156862745" stroke-linecap="round" stroke-linejoin="round" stroke-miterlimit="10" stroke-width="0.5"/><path fill="rgb(127,0,255)" stroke="none" paint-order="stroke fill markers" d=" M 141.06953381770526 315.57218647291813 C 138.91921860844946 310.19639844977866 134.54476072677116 306.01628157900296 129.07686829625305 304.11231079740736 C 123.60897586573495 302.20834001581176 117.584299026696 302.76738187208747 112.56009383877131 305.6449354508272 L 122.50000000000017 323.0000000000002 Z" fill-opacity="0.09803921568627451"/><path fill="none" stroke="rgb(127,0,255)" paint-order="fill stroke markers" d=" M 141.06953381770526 315.57218647291813 C 138.91921860844946 310.19639844977866 134.54476072677116 306.01628157900296 129.07686829625305 304.11231079740736 C 123.60897586573495 302.20834001581176 117.584299026696 302.76738187208747 112.56009383877131 305.6449354508272 L 122.50000000000017 323.0000000000002 Z" stroke-opacity="0.6980392156862745" stroke-linecap="round" stroke-linejoin="round" stroke-miterlimit="10" stroke-width="0.5"/><text fill="rgb(127,0,255)" stroke="none" font-family="geogebra-sans-serif, sans-serif" font-size="16px" font-style="normal" font-weight="normal" text-decoration="normal" x="121" y="291" text-anchor="start" dominant-baseline="alphabetic" fill-opacity="1">98°</text><text fill="none" stroke="rgb(255,255,255)" font-family="geogebra-sans-serif, sans-serif" font-size="16px" font-style="normal" font-weight="normal" text-decoration="normal" x="121" y="291" text-anchor="start" dominant-baseline="alphabetic" stroke-opacity="1" stroke-linejoin="bevel" stroke-miterlimit="10" stroke-width="3">98°</text><text fill="rgb(127,0,255)" stroke="none" font-family="geogebra-sans-serif, sans-serif" font-size="16px" font-style="normal" font-weight="normal" text-decoration="normal" x="121" y="291" text-anchor="start" dominant-baseline="alphabetic" fill-opacity="1">98°</text><path fill="rgb(127,0,255)" stroke="none" paint-order="stroke fill markers" d=" M 352.6167536972769 220.8421036945095 C 351.7095775750802 229.20098833215098 356.1272603104155 237.2347221946614 363.6717700150725 240.9460958242517 L 372.4999999999999 222.9999999999999 Z" fill-opacity="0.09803921568627451"/><path fill="none" stroke="rgb(127,0,255)" paint-order="fill stroke markers" d=" M 352.6167536972769 220.8421036945095 C 351.7095775750802 229.20098833215098 356.1272603104155 237.2347221946614 363.6717700150725 240.9460958242517 L 372.4999999999999 222.9999999999999 Z" stroke-opacity="0.6980392156862745" stroke-linecap="round" stroke-linejoin="round" stroke-miterlimit="10"/><text fill="rgb(127,0,255)" stroke="none" font-family="geogebra-sans-serif, sans-serif" font-size="16px" font-style="normal" font-weight="normal" text-decoration="normal" x="331" y="257" text-anchor="start" dominant-baseline="alphabetic" fill-opacity="1">70°</text><text fill="none" stroke="rgb(255,255,255)" font-family="geogebra-sans-serif, sans-serif" font-size="16px" font-style="normal" font-weight="normal" text-decoration="normal" x="331" y="257" text-anchor="start" dominant-baseline="alphabetic" stroke-opacity="1" stroke-linejoin="bevel" stroke-miterlimit="10" stroke-width="3">70°</text><text fill="rgb(127,0,255)" stroke="none" font-family="geogebra-sans-serif, sans-serif" font-size="16px" font-style="normal" font-weight="normal" text-decoration="normal" x="331" y="257" text-anchor="start" dominant-baseline="alphabetic" fill-opacity="1">70°</text><path fill="rgb(127,0,255)" stroke="none" paint-order="stroke fill markers" d=" M 312.37206909196686 345.22853410387575 C 303.42519763828784 340.8272961069225 292.60315423960975 343.68825470475485 287.0002031425297 351.9359418786364 L 303.5438391070395 363.1746299281276 Z" fill-opacity="0.09803921568627451"/><path fill="none" stroke="rgb(127,0,255)" paint-order="fill stroke markers" d=" M 312.37206909196686 345.22853410387575 C 303.42519763828784 340.8272961069225 292.60315423960975 343.68825470475485 287.0002031425297 351.9359418786364 L 303.5438391070395 363.1746299281276 Z" stroke-opacity="0.6980392156862745" stroke-linecap="round" stroke-linejoin="round" stroke-miterlimit="10" stroke-width="0.5"/><text fill="rgb(127,0,255)" stroke="none" font-family="geogebra-sans-serif, sans-serif" font-size="16px" font-style="normal" font-weight="normal" text-decoration="normal" x="279" y="335" text-anchor="start" dominant-baseline="alphabetic" fill-opacity="1">82°</text><text fill="none" stroke="rgb(255,255,255)" font-family="geogebra-sans-serif, sans-serif" font-size="16px" font-style="normal" font-weight="normal" text-decoration="normal" x="279" y="335" text-anchor="start" dominant-baseline="alphabetic" stroke-opacity="1" stroke-linejoin="bevel" stroke-miterlimit="10" stroke-width="3">82°</text><text fill="rgb(127,0,255)" stroke="none" font-family="geogebra-sans-serif, sans-serif" font-size="16px" font-style="normal" font-weight="normal" text-decoration="normal" x="279" y="335" text-anchor="start" dominant-baseline="alphabetic" fill-opacity="1">82°</text><path fill="rgb(255,0,0)" stroke="none" paint-order="stroke fill markers" fill-rule="evenodd" d=" M 319.3824038338569 217.2352338859397 L 318.2380065008248 227.77991760543242 L 328.78269022031805 228.92431493846536 L 329.9270875533496 218.37963121897187 L 319.3824038338569 217.2352338859397" fill-opacity="0.09803921568627451"/><path fill="none" stroke="rgb(255,0,0)" paint-order="fill stroke markers" d=" M 319.3824038338569 217.2352338859397 L 318.2380065008248 227.77991760543242 L 328.78269022031805 228.92431493846536 L 329.9270875533496 218.37963121897187 L 319.3824038338569 217.2352338859397" stroke-opacity="0.6980392156862745" stroke-linecap="round" stroke-linejoin="round" stroke-miterlimit="10" stroke-width="0.5"/><path fill="rgb(255,0,0)" stroke="none" paint-order="stroke fill markers" d=" M 342.6751305459154 219.76315554176432 C 342.1453060696925 224.6450539588238 342.8219613109392 229.5823753843653 344.64569927344223 234.141720290623 L 372.4999999999999 222.9999999999999 Z" fill-opacity="0.09803921568627451"/><path fill="none" stroke="rgb(255,0,0)" paint-order="fill stroke markers" d=" M 342.6751305459154 219.76315554176432 C 342.1453060696925 224.6450539588238 342.8219613109392 229.5823753843653 344.64569927344223 234.141720290623 L 372.4999999999999 222.9999999999999 Z" stroke-opacity="0.6980392156862745" stroke-linecap="round" stroke-linejoin="round" stroke-miterlimit="10"/><path fill="none" stroke="rgb(255,0,0)" paint-order="fill stroke markers" d=" M 347.64594212159614 220.3026296181369 C 347.2044217247437 224.3708782990198 347.7683010924493 228.4853128203044 349.2880827278685 232.28476690885248" stroke-opacity="0.6980392156862745" stroke-linecap="round" stroke-linejoin="round" stroke-miterlimit="10"/><path fill="none" stroke="rgb(0,100,0)" paint-order="fill stroke markers" d=" M 44.86068048919732 187.44183880532023 L 372.4999999999999 222.9999999999999" stroke-opacity="0.6980392156862745" stroke-linecap="round" stroke-linejoin="round" stroke-miterlimit="10"/><path fill="none" stroke="rgb(0,100,0)" paint-order="fill stroke markers" d=" M 122.50000000000017 323.0000000000002 L 44.86068048919732 187.44183880532023" stroke-opacity="0.6980392156862745" stroke-linecap="round" stroke-linejoin="round" stroke-miterlimit="10"/><path fill="none" stroke="rgb(0,100,0)" paint-order="fill stroke markers" d=" M 122.50000000000017 323.0000000000002 L 372.4999999999999 222.9999999999999" stroke-opacity="0.6980392156862745" stroke-linecap="round" stroke-linejoin="round" stroke-miterlimit="10" stroke-width="0.5"/><path fill="none" stroke="rgb(0,100,0)" paint-order="fill stroke markers" d=" M 303.5438391070395 363.1746299281276 L 372.4999999999999 222.9999999999999" stroke-opacity="0.6980392156862745" stroke-linecap="round" stroke-linejoin="round" stroke-miterlimit="10"/><path fill="none" stroke="rgb(0,100,0)" paint-order="fill stroke markers" d=" M 303.5438391070395 363.1746299281276 L 122.50000000000017 323.0000000000002" stroke-opacity="0.6980392156862745" stroke-linecap="round" stroke-linejoin="round" stroke-miterlimit="10"/><path fill="none" stroke="rgb(255,85,0)" paint-order="fill stroke markers" d=" M 335.22096856067435 71.2958378437518 L 303.5438391070395 363.1746299281276" stroke-opacity="0.6980392156862745" stroke-linecap="round" stroke-linejoin="round" stroke-miterlimit="10"/><path fill="none" stroke="rgb(255,85,0)" paint-order="fill stroke markers" d=" M 335.22096856067435 71.2958378437518 L 372.4999999999999 222.9999999999999" stroke-opacity="0.6980392156862745" stroke-linecap="round" stroke-linejoin="round" stroke-miterlimit="10"/><path fill="none" stroke="rgb(255,85,0)" paint-order="fill stroke markers" d=" M 335.22096856067435 71.2958378437518 L 44.86068048919732 187.44183880532023" stroke-opacity="0.6980392156862745" stroke-linecap="round" stroke-linejoin="round" stroke-miterlimit="10"/><path fill="none" stroke="rgb(0,100,0)" paint-order="fill stroke markers" d=" M 303.5438391070395 363.1746299281276 L 44.86068048919732 187.44183880532023" stroke-opacity="0.6980392156862745" stroke-linecap="round" stroke-linejoin="round" stroke-miterlimit="10" stroke-width="0.5"/><path fill="rgb(0,0,255)" stroke="none" paint-order="stroke fill markers" d=" M 124.50000000000017 323.0000000000002 C 124.50000000000017 324.1045694996618 123.60456949966175 325.0000000000002 122.50000000000017 325.0000000000002 C 121.39543050033858 325.0000000000002 120.50000000000017 324.1045694996618 120.50000000000017 323.0000000000002 C 120.50000000000017 321.89543050033865 121.39543050033858 321.0000000000002 122.50000000000017 321.0000000000002 C 123.60456949966175 321.0000000000002 124.50000000000017 321.89543050033865 124.50000000000017 323.0000000000002 Z" fill-opacity="1"/><path fill="none" stroke="rgb(0,0,0)" paint-order="fill stroke markers" d=" M 124.50000000000017 323.0000000000002 C 124.50000000000017 324.1045694996618 123.60456949966175 325.0000000000002 122.50000000000017 325.0000000000002 C 121.39543050033858 325.0000000000002 120.50000000000017 324.1045694996618 120.50000000000017 323.0000000000002 C 120.50000000000017 321.89543050033865 121.39543050033858 321.0000000000002 122.50000000000017 321.0000000000002 C 123.60456949966175 321.0000000000002 124.50000000000017 321.89543050033865 124.50000000000017 323.0000000000002 Z" stroke-opacity="1" stroke-linecap="round" stroke-linejoin="round" stroke-miterlimit="10"/><text fill="rgb(0,0,255)" stroke="none" font-family="geogebra-sans-serif, sans-serif" font-size="16px" font-style="normal" font-weight="normal" text-decoration="normal" x="103" y="350" text-anchor="start" dominant-baseline="alphabetic" fill-opacity="1">A</text><text fill="none" stroke="rgb(255,255,255)" font-family="geogebra-sans-serif, sans-serif" font-size="16px" font-style="normal" font-weight="normal" text-decoration="normal" x="103" y="350" text-anchor="start" dominant-baseline="alphabetic" stroke-opacity="1" stroke-linejoin="bevel" stroke-miterlimit="10" stroke-width="3">A</text><text fill="rgb(0,0,255)" stroke="none" font-family="geogebra-sans-serif, sans-serif" font-size="16px" font-style="normal" font-weight="normal" text-decoration="normal" x="103" y="350" text-anchor="start" dominant-baseline="alphabetic" fill-opacity="1">A</text><path fill="rgb(0,0,255)" stroke="none" paint-order="stroke fill markers" d=" M 374.4999999999999 222.9999999999999 C 374.4999999999999 224.10456949966147 373.60456949966147 224.9999999999999 372.4999999999999 224.9999999999999 C 371.3954305003383 224.9999999999999 370.4999999999999 224.10456949966147 370.4999999999999 222.9999999999999 C 370.4999999999999 221.8954305003383 371.3954305003383 220.9999999999999 372.4999999999999 220.9999999999999 C 373.60456949966147 220.9999999999999 374.4999999999999 221.8954305003383 374.4999999999999 222.9999999999999 Z" fill-opacity="1"/><path fill="none" stroke="rgb(0,0,0)" paint-order="fill stroke markers" d=" M 374.4999999999999 222.9999999999999 C 374.4999999999999 224.10456949966147 373.60456949966147 224.9999999999999 372.4999999999999 224.9999999999999 C 371.3954305003383 224.9999999999999 370.4999999999999 224.10456949966147 370.4999999999999 222.9999999999999 C 370.4999999999999 221.8954305003383 371.3954305003383 220.9999999999999 372.4999999999999 220.9999999999999 C 373.60456949966147 220.9999999999999 374.4999999999999 221.8954305003383 374.4999999999999 222.9999999999999 Z" stroke-opacity="1" stroke-linecap="round" stroke-linejoin="round" stroke-miterlimit="10"/><text fill="rgb(0,0,255)" stroke="none" font-family="geogebra-sans-serif, sans-serif" font-size="16px" font-style="normal" font-weight="normal" text-decoration="normal" x="382" y="217" text-anchor="start" dominant-baseline="alphabetic" fill-opacity="1">C</text><text fill="none" stroke="rgb(255,255,255)" font-family="geogebra-sans-serif, sans-serif" font-size="16px" font-style="normal" font-weight="normal" text-decoration="normal" x="382" y="217" text-anchor="start" dominant-baseline="alphabetic" stroke-opacity="1" stroke-linejoin="bevel" stroke-miterlimit="10" stroke-width="3">C</text><text fill="rgb(0,0,255)" stroke="none" font-family="geogebra-sans-serif, sans-serif" font-size="16px" font-style="normal" font-weight="normal" text-decoration="normal" x="382" y="217" text-anchor="start" dominant-baseline="alphabetic" fill-opacity="1">C</text><path fill="rgb(0,0,255)" stroke="none" paint-order="stroke fill markers" d=" M 46.86068048919732 187.44183880532023 C 46.86068048919732 188.5464083049818 45.96524998885891 189.44183880532023 44.86068048919732 189.44183880532023 C 43.756110989535735 189.44183880532023 42.86068048919732 188.5464083049818 42.86068048919732 187.44183880532023 C 42.86068048919732 186.33726930565865 43.756110989535735 185.44183880532023 44.86068048919732 185.44183880532023 C 45.96524998885891 185.44183880532023 46.86068048919732 186.33726930565865 46.86068048919732 187.44183880532023 Z" fill-opacity="1"/><path fill="none" stroke="rgb(0,0,0)" paint-order="fill stroke markers" d=" M 46.86068048919732 187.44183880532023 C 46.86068048919732 188.5464083049818 45.96524998885891 189.44183880532023 44.86068048919732 189.44183880532023 C 43.756110989535735 189.44183880532023 42.86068048919732 188.5464083049818 42.86068048919732 187.44183880532023 C 42.86068048919732 186.33726930565865 43.756110989535735 185.44183880532023 44.86068048919732 185.44183880532023 C 45.96524998885891 185.44183880532023 46.86068048919732 186.33726930565865 46.86068048919732 187.44183880532023 Z" stroke-opacity="1" stroke-linecap="round" stroke-linejoin="round" stroke-miterlimit="10"/><text fill="rgb(0,0,255)" stroke="none" font-family="geogebra-sans-serif, sans-serif" font-size="16px" font-style="normal" font-weight="normal" text-decoration="normal" x="20" y="183" text-anchor="start" dominant-baseline="alphabetic" fill-opacity="1">D</text><text fill="none" stroke="rgb(255,255,255)" font-family="geogebra-sans-serif, sans-serif" font-size="16px" font-style="normal" font-weight="normal" text-decoration="normal" x="20" y="183" text-anchor="start" dominant-baseline="alphabetic" stroke-opacity="1" stroke-linejoin="bevel" stroke-miterlimit="10" stroke-width="3">D</text><text fill="rgb(0,0,255)" stroke="none" font-family="geogebra-sans-serif, sans-serif" font-size="16px" font-style="normal" font-weight="normal" text-decoration="normal" x="20" y="183" text-anchor="start" dominant-baseline="alphabetic" fill-opacity="1">D</text><path fill="rgb(0,0,255)" stroke="none" paint-order="stroke fill markers" d=" M 305.5438391070395 363.1746299281276 C 305.5438391070395 364.2791994277892 304.6484086067011 365.1746299281276 303.5438391070395 365.1746299281276 C 302.4392696073779 365.1746299281276 301.5438391070395 364.2791994277892 301.5438391070395 363.1746299281276 C 301.5438391070395 362.07006042846604 302.4392696073779 361.1746299281276 303.5438391070395 361.1746299281276 C 304.6484086067011 361.1746299281276 305.5438391070395 362.07006042846604 305.5438391070395 363.1746299281276 Z" fill-opacity="1"/><path fill="none" stroke="rgb(0,0,0)" paint-order="fill stroke markers" d=" M 305.5438391070395 363.1746299281276 C 305.5438391070395 364.2791994277892 304.6484086067011 365.1746299281276 303.5438391070395 365.1746299281276 C 302.4392696073779 365.1746299281276 301.5438391070395 364.2791994277892 301.5438391070395 363.1746299281276 C 301.5438391070395 362.07006042846604 302.4392696073779 361.1746299281276 303.5438391070395 361.1746299281276 C 304.6484086067011 361.1746299281276 305.5438391070395 362.07006042846604 305.5438391070395 363.1746299281276 Z" stroke-opacity="1" stroke-linecap="round" stroke-linejoin="round" stroke-miterlimit="10"/><text fill="rgb(0,0,255)" stroke="none" font-family="geogebra-sans-serif, sans-serif" font-size="16px" font-style="normal" font-weight="normal" text-decoration="normal" x="321" y="380" text-anchor="start" dominant-baseline="alphabetic" fill-opacity="1">B</text><text fill="none" stroke="rgb(255,255,255)" font-family="geogebra-sans-serif, sans-serif" font-size="16px" font-style="normal" font-weight="normal" text-decoration="normal" x="321" y="380" text-anchor="start" dominant-baseline="alphabetic" stroke-opacity="1" stroke-linejoin="bevel" stroke-miterlimit="10" stroke-width="3">B</text><text fill="rgb(0,0,255)" stroke="none" font-family="geogebra-sans-serif, sans-serif" font-size="16px" font-style="normal" font-weight="normal" text-decoration="normal" x="321" y="380" text-anchor="start" dominant-baseline="alphabetic" fill-opacity="1">B</text><path fill="rgb(0,0,255)" stroke="none" paint-order="stroke fill markers" d=" M 337.22096856067435 71.2958378437518 C 337.22096856067435 72.40040734341338 336.32553806033593 73.2958378437518 335.22096856067435 73.2958378437518 C 334.11639906101277 73.2958378437518 333.22096856067435 72.40040734341338 333.22096856067435 71.2958378437518 C 333.22096856067435 70.1912683440902 334.11639906101277 69.2958378437518 335.22096856067435 69.2958378437518 C 336.32553806033593 69.2958378437518 337.22096856067435 70.1912683440902 337.22096856067435 71.2958378437518 Z" fill-opacity="1"/><path fill="none" stroke="rgb(0,0,0)" paint-order="fill stroke markers" d=" M 337.22096856067435 71.2958378437518 C 337.22096856067435 72.40040734341338 336.32553806033593 73.2958378437518 335.22096856067435 73.2958378437518 C 334.11639906101277 73.2958378437518 333.22096856067435 72.40040734341338 333.22096856067435 71.2958378437518 C 333.22096856067435 70.1912683440902 334.11639906101277 69.2958378437518 335.22096856067435 69.2958378437518 C 336.32553806033593 69.2958378437518 337.22096856067435 70.1912683440902 337.22096856067435 71.2958378437518 Z" stroke-opacity="1" stroke-linecap="round" stroke-linejoin="round" stroke-miterlimit="10"/><text fill="rgb(0,0,255)" stroke="none" font-family="geogebra-sans-serif, sans-serif" font-size="16px" font-style="normal" font-weight="normal" text-decoration="normal" x="352" y="48" text-anchor="start" dominant-baseline="alphabetic" fill-opacity="1">B'</text><text fill="none" stroke="rgb(255,255,255)" font-family="geogebra-sans-serif, sans-serif" font-size="16px" font-style="normal" font-weight="normal" text-decoration="normal" x="352" y="48" text-anchor="start" dominant-baseline="alphabetic" stroke-opacity="1" stroke-linejoin="bevel" stroke-miterlimit="10" stroke-width="3">B'</text><text fill="rgb(0,0,255)" stroke="none" font-family="geogebra-sans-serif, sans-serif" font-size="16px" font-style="normal" font-weight="normal" text-decoration="normal" x="352" y="48" text-anchor="start" dominant-baseline="alphabetic" fill-opacity="1">B'</text></g></g></svg>