<svg version="1.1" xmlns="http://www.w3.org/2000/svg" xmlns:xlink="http://www.w3.org/1999/xlink" width="487" height="260"><defs><clipPath id="XrrzQrmQhJiR"><path fill="none" stroke="none" d=" M 0 0 L 487 0 L 487 260 L 0 260 L 0 0 Z"/></clipPath></defs><g transform="scale(1,1)" clip-path="url(#XrrzQrmQhJiR)"><g><rect fill="rgb(255,255,255)" stroke="none" x="0" y="0" width="487" height="260" fill-opacity="1"/><path fill="rgb(0,153,204)" stroke="none" paint-order="stroke fill markers" d=" M 210.21416269690005 158.63489186293512 C 211.99639966002593 164.16496046456868 216.09538952039162 168.64664827328806 221.4448416232119 170.91411151028598 L 229.2499999999999 152.49999999999974 Z" fill-opacity="0.09803921568627451"/><path fill="none" stroke="rgb(0,153,204)" paint-order="fill stroke markers" d=" M 210.21416269690005 158.63489186293512 C 211.99639966002593 164.16496046456868 216.09538952039162 168.64664827328806 221.4448416232119 170.91411151028598 L 229.2499999999999 152.49999999999974 Z" stroke-opacity="0.6980392156862745" stroke-linecap="round" stroke-linejoin="round" stroke-miterlimit="10" stroke-width="0.5"/><path fill="none" stroke="rgb(0,100,0)" paint-order="fill stroke markers" d=" M 40.75000000000003 213.2499999999998 L 203.49999999999986 213.2499999999998" stroke-opacity="0.6980392156862745" stroke-linecap="round" stroke-linejoin="round" stroke-miterlimit="10" stroke-width="0.5"/><path fill="none" stroke="rgb(244,0,153)" paint-order="fill stroke markers" d=" M 246.50726108498594 124.53244424297117 L 243.2091133694563 117.24394497038105" stroke-opacity="0.6980392156862745" stroke-linecap="round" stroke-linejoin="round" stroke-miterlimit="10" stroke-width="0.5"/><path fill="none" stroke="rgb(244,0,153)" paint-order="fill stroke markers" d=" M 243.77407385776465 125.76924963629477 L 240.475926142235 118.48075036370466" stroke-opacity="0.6980392156862745" stroke-linecap="round" stroke-linejoin="round" stroke-miterlimit="10" stroke-width="0.5"/><path fill="none" stroke="rgb(244,0,153)" paint-order="fill stroke markers" d=" M 241.04088663054335 127.00605502961838 L 237.74273891501372 119.71755575702826" stroke-opacity="0.6980392156862745" stroke-linecap="round" stroke-linejoin="round" stroke-miterlimit="10" stroke-width="0.5"/><path fill="none" stroke="rgb(244,0,153)" paint-order="fill stroke markers" d=" M 443.49999999999966 30.99999999999963 L 40.75000000000003 213.2499999999998" stroke-opacity="0.6980392156862745" stroke-linecap="round" stroke-linejoin="round" stroke-miterlimit="10" stroke-width="0.5"/><path fill="none" stroke="rgb(127,0,255)" paint-order="fill stroke markers" d=" M 327.11367371413314 124.40345611934484 L 322.2755320472769 118.03224075558347" stroke-opacity="0.6980392156862745" stroke-linecap="round" stroke-linejoin="round" stroke-miterlimit="10" stroke-width="0.5"/><path fill="none" stroke="rgb(127,0,255)" paint-order="fill stroke markers" d=" M 324.72446795272265 126.21775924441596 L 319.8863262858664 119.8465438806546" stroke-opacity="0.6980392156862745" stroke-linecap="round" stroke-linejoin="round" stroke-miterlimit="10" stroke-width="0.5"/><path fill="none" stroke="rgb(127,0,255)" paint-order="fill stroke markers" d=" M 443.49999999999966 30.99999999999963 L 203.49999999999986 213.2499999999998" stroke-opacity="0.6980392156862745" stroke-linecap="round" stroke-linejoin="round" stroke-miterlimit="10" stroke-width="0.5"/><path fill="none" stroke="rgb(0,100,0)" paint-order="fill stroke markers" d=" M 443.49999999999966 30.99999999999963 L 122.12499999999994 213.2499999999998" stroke-opacity="0.6980392156862745" stroke-linecap="round" stroke-linejoin="round" stroke-miterlimit="10" stroke-width="0.5"/><path fill="none" stroke="rgb(0,100,0)" paint-order="fill stroke markers" d=" M 40.75000000000003 213.2499999999998 L 229.24999999999983 152.49999999999974" stroke-opacity="0.6980392156862745" stroke-linecap="round" stroke-linejoin="round" stroke-miterlimit="10" stroke-width="0.5"/><path fill="none" stroke="rgb(0,100,0)" paint-order="fill stroke markers" d=" M 203.49999999999986 213.2499999999998 L 229.24999999999983 152.49999999999974" stroke-opacity="0.6980392156862745" stroke-linecap="round" stroke-linejoin="round" stroke-miterlimit="10" stroke-width="0.5"/><path fill="rgb(0,0,255)" stroke="none" paint-order="stroke fill markers" d=" M 42.75000000000003 213.2499999999998 C 42.75000000000003 214.35456949966138 41.854569499661615 215.2499999999998 40.75000000000003 215.2499999999998 C 39.64543050033844 215.2499999999998 38.75000000000003 214.35456949966138 38.75000000000003 213.2499999999998 C 38.75000000000003 212.14543050033822 39.64543050033844 211.2499999999998 40.75000000000003 211.2499999999998 C 41.854569499661615 211.2499999999998 42.75000000000003 212.14543050033822 42.75000000000003 213.2499999999998 Z" fill-opacity="1"/><path fill="none" stroke="rgb(0,0,0)" paint-order="fill stroke markers" d=" M 42.75000000000003 213.2499999999998 C 42.75000000000003 214.35456949966138 41.854569499661615 215.2499999999998 40.75000000000003 215.2499999999998 C 39.64543050033844 215.2499999999998 38.75000000000003 214.35456949966138 38.75000000000003 213.2499999999998 C 38.75000000000003 212.14543050033822 39.64543050033844 211.2499999999998 40.75000000000003 211.2499999999998 C 41.854569499661615 211.2499999999998 42.75000000000003 212.14543050033822 42.75000000000003 213.2499999999998 Z" stroke-opacity="1" stroke-linecap="round" stroke-linejoin="round" stroke-miterlimit="10"/><text fill="rgb(0,0,255)" stroke="none" font-family="geogebra-sans-serif, sans-serif" font-size="16px" font-style="normal" font-weight="normal" text-decoration="normal" x="22" y="210" text-anchor="start" dominant-baseline="alphabetic" fill-opacity="1">A</text><text fill="none" stroke="rgb(255,255,255)" font-family="geogebra-sans-serif, sans-serif" font-size="16px" font-style="normal" font-weight="normal" text-decoration="normal" x="22" y="210" text-anchor="start" dominant-baseline="alphabetic" stroke-opacity="1" stroke-linejoin="bevel" stroke-miterlimit="10" stroke-width="3">A</text><text fill="rgb(0,0,255)" stroke="none" font-family="geogebra-sans-serif, sans-serif" font-size="16px" font-style="normal" font-weight="normal" text-decoration="normal" x="22" y="210" text-anchor="start" dominant-baseline="alphabetic" fill-opacity="1">A</text><path fill="rgb(0,0,255)" stroke="none" paint-order="stroke fill markers" d=" M 205.49999999999986 213.2499999999998 C 205.49999999999986 214.35456949966138 204.60456949966144 215.2499999999998 203.49999999999986 215.2499999999998 C 202.39543050033828 215.2499999999998 201.49999999999986 214.35456949966138 201.49999999999986 213.2499999999998 C 201.49999999999986 212.14543050033822 202.39543050033828 211.2499999999998 203.49999999999986 211.2499999999998 C 204.60456949966144 211.2499999999998 205.49999999999986 212.14543050033822 205.49999999999986 213.2499999999998 Z" fill-opacity="1"/><path fill="none" stroke="rgb(0,0,0)" paint-order="fill stroke markers" d=" M 205.49999999999986 213.2499999999998 C 205.49999999999986 214.35456949966138 204.60456949966144 215.2499999999998 203.49999999999986 215.2499999999998 C 202.39543050033828 215.2499999999998 201.49999999999986 214.35456949966138 201.49999999999986 213.2499999999998 C 201.49999999999986 212.14543050033822 202.39543050033828 211.2499999999998 203.49999999999986 211.2499999999998 C 204.60456949966144 211.2499999999998 205.49999999999986 212.14543050033822 205.49999999999986 213.2499999999998 Z" stroke-opacity="1" stroke-linecap="round" stroke-linejoin="round" stroke-miterlimit="10"/><text fill="rgb(0,0,255)" stroke="none" font-family="geogebra-sans-serif, sans-serif" font-size="16px" font-style="normal" font-weight="normal" text-decoration="normal" x="205" y="236" text-anchor="start" dominant-baseline="alphabetic" fill-opacity="1">B</text><text fill="none" stroke="rgb(255,255,255)" font-family="geogebra-sans-serif, sans-serif" font-size="16px" font-style="normal" font-weight="normal" text-decoration="normal" x="205" y="236" text-anchor="start" dominant-baseline="alphabetic" stroke-opacity="1" stroke-linejoin="bevel" stroke-miterlimit="10" stroke-width="3">B</text><text fill="rgb(0,0,255)" stroke="none" font-family="geogebra-sans-serif, sans-serif" font-size="16px" font-style="normal" font-weight="normal" text-decoration="normal" x="205" y="236" text-anchor="start" dominant-baseline="alphabetic" fill-opacity="1">B</text><path fill="rgb(0,0,255)" stroke="none" paint-order="stroke fill markers" d=" M 124.12499999999994 213.2499999999998 C 124.12499999999994 214.35456949966138 123.22956949966152 215.2499999999998 122.12499999999994 215.2499999999998 C 121.02043050033835 215.2499999999998 120.12499999999994 214.35456949966138 120.12499999999994 213.2499999999998 C 120.12499999999994 212.14543050033822 121.02043050033835 211.2499999999998 122.12499999999994 211.2499999999998 C 123.22956949966152 211.2499999999998 124.12499999999994 212.14543050033822 124.12499999999994 213.2499999999998 Z" fill-opacity="1"/><path fill="none" stroke="rgb(0,0,0)" paint-order="fill stroke markers" d=" M 124.12499999999994 213.2499999999998 C 124.12499999999994 214.35456949966138 123.22956949966152 215.2499999999998 122.12499999999994 215.2499999999998 C 121.02043050033835 215.2499999999998 120.12499999999994 214.35456949966138 120.12499999999994 213.2499999999998 C 120.12499999999994 212.14543050033822 121.02043050033835 211.2499999999998 122.12499999999994 211.2499999999998 C 123.22956949966152 211.2499999999998 124.12499999999994 212.14543050033822 124.12499999999994 213.2499999999998 Z" stroke-opacity="1" stroke-linecap="round" stroke-linejoin="round" stroke-miterlimit="10"/><text fill="rgb(0,0,255)" stroke="none" font-family="geogebra-sans-serif, sans-serif" font-size="16px" font-style="normal" font-weight="normal" text-decoration="normal" x="117" y="236" text-anchor="start" dominant-baseline="alphabetic" fill-opacity="1">M</text><text fill="none" stroke="rgb(255,255,255)" font-family="geogebra-sans-serif, sans-serif" font-size="16px" font-style="normal" font-weight="normal" text-decoration="normal" x="117" y="236" text-anchor="start" dominant-baseline="alphabetic" stroke-opacity="1" stroke-linejoin="bevel" stroke-miterlimit="10" stroke-width="3">M</text><text fill="rgb(0,0,255)" stroke="none" font-family="geogebra-sans-serif, sans-serif" font-size="16px" font-style="normal" font-weight="normal" text-decoration="normal" x="117" y="236" text-anchor="start" dominant-baseline="alphabetic" fill-opacity="1">M</text><path fill="rgb(0,0,255)" stroke="none" paint-order="stroke fill markers" d=" M 445.49999999999966 30.99999999999963 C 445.49999999999966 32.10456949966122 444.60456949966124 32.99999999999963 443.49999999999966 32.99999999999963 C 442.3954305003381 32.99999999999963 441.49999999999966 32.10456949966122 441.49999999999966 30.99999999999963 C 441.49999999999966 29.895430500338044 442.3954305003381 28.99999999999963 443.49999999999966 28.99999999999963 C 444.60456949966124 28.99999999999963 445.49999999999966 29.895430500338044 445.49999999999966 30.99999999999963 Z" fill-opacity="1"/><path fill="none" stroke="rgb(0,0,0)" paint-order="fill stroke markers" d=" M 445.49999999999966 30.99999999999963 C 445.49999999999966 32.10456949966122 444.60456949966124 32.99999999999963 443.49999999999966 32.99999999999963 C 442.3954305003381 32.99999999999963 441.49999999999966 32.10456949966122 441.49999999999966 30.99999999999963 C 441.49999999999966 29.895430500338044 442.3954305003381 28.99999999999963 443.49999999999966 28.99999999999963 C 444.60456949966124 28.99999999999963 445.49999999999966 29.895430500338044 445.49999999999966 30.99999999999963 Z" stroke-opacity="1" stroke-linecap="round" stroke-linejoin="round" stroke-miterlimit="10"/><text fill="rgb(0,0,255)" stroke="none" font-family="geogebra-sans-serif, sans-serif" font-size="16px" font-style="normal" font-weight="normal" text-decoration="normal" x="452" y="26" text-anchor="start" dominant-baseline="alphabetic" fill-opacity="1">C</text><text fill="none" stroke="rgb(255,255,255)" font-family="geogebra-sans-serif, sans-serif" font-size="16px" font-style="normal" font-weight="normal" text-decoration="normal" x="452" y="26" text-anchor="start" dominant-baseline="alphabetic" stroke-opacity="1" stroke-linejoin="bevel" stroke-miterlimit="10" stroke-width="3">C</text><text fill="rgb(0,0,255)" stroke="none" font-family="geogebra-sans-serif, sans-serif" font-size="16px" font-style="normal" font-weight="normal" text-decoration="normal" x="452" y="26" text-anchor="start" dominant-baseline="alphabetic" fill-opacity="1">C</text><path fill="rgb(0,0,255)" stroke="none" paint-order="stroke fill markers" d=" M 231.24999999999983 152.49999999999974 C 231.24999999999983 153.60456949966132 230.3545694996614 154.49999999999974 229.24999999999983 154.49999999999974 C 228.14543050033825 154.49999999999974 227.24999999999983 153.60456949966132 227.24999999999983 152.49999999999974 C 227.24999999999983 151.39543050033816 228.14543050033825 150.49999999999974 229.24999999999983 150.49999999999974 C 230.3545694996614 150.49999999999974 231.24999999999983 151.39543050033816 231.24999999999983 152.49999999999974 Z" fill-opacity="1"/><path fill="none" stroke="rgb(0,0,0)" paint-order="fill stroke markers" d=" M 231.24999999999983 152.49999999999974 C 231.24999999999983 153.60456949966132 230.3545694996614 154.49999999999974 229.24999999999983 154.49999999999974 C 228.14543050033825 154.49999999999974 227.24999999999983 153.60456949966132 227.24999999999983 152.49999999999974 C 227.24999999999983 151.39543050033816 228.14543050033825 150.49999999999974 229.24999999999983 150.49999999999974 C 230.3545694996614 150.49999999999974 231.24999999999983 151.39543050033816 231.24999999999983 152.49999999999974 Z" stroke-opacity="1" stroke-linecap="round" stroke-linejoin="round" stroke-miterlimit="10"/><text fill="rgb(0,0,255)" stroke="none" font-family="geogebra-sans-serif, sans-serif" font-size="16px" font-style="normal" font-weight="normal" text-decoration="normal" x="234" y="170" text-anchor="start" dominant-baseline="alphabetic" fill-opacity="1">G</text><text fill="none" stroke="rgb(255,255,255)" font-family="geogebra-sans-serif, sans-serif" font-size="16px" font-style="normal" font-weight="normal" text-decoration="normal" x="234" y="170" text-anchor="start" dominant-baseline="alphabetic" stroke-opacity="1" stroke-linejoin="bevel" stroke-miterlimit="10" stroke-width="3">G</text><text fill="rgb(0,0,255)" stroke="none" font-family="geogebra-sans-serif, sans-serif" font-size="16px" font-style="normal" font-weight="normal" text-decoration="normal" x="234" y="170" text-anchor="start" dominant-baseline="alphabetic" fill-opacity="1">G</text></g></g></svg>