<svg version="1.1" xmlns="http://www.w3.org/2000/svg" xmlns:xlink="http://www.w3.org/1999/xlink" width="864" height="207"><defs><clipPath id="ybIdwiyIcExb"><path fill="none" stroke="none" d=" M 0 0 L 864 0 L 864 207 L 0 207 L 0 0 Z"/></clipPath></defs><g transform="scale(1,1)" clip-path="url(#ybIdwiyIcExb)"><g><rect fill="rgb(255,255,255)" stroke="none" x="0" y="0" width="864" height="207" fill-opacity="1"/><path fill="none" stroke="rgb(0,100,0)" paint-order="fill stroke markers" d=" M 25.61059385330563 135.95536236763962 L 236.69179284607307 135.95536236763962" stroke-opacity="0.6980392156862745" stroke-linecap="round" stroke-linejoin="round" stroke-miterlimit="10"/><path fill="none" stroke="rgb(0,100,0)" paint-order="fill stroke markers" d=" M 78.38089360149749 30.414762871255334 L 78.38089360149749 188.7256621158318" stroke-opacity="0.6980392156862745" stroke-linecap="round" stroke-linejoin="round" stroke-miterlimit="10"/><path fill="none" stroke="rgb(0,100,0)" paint-order="fill stroke markers" d=" M 342.2323923424568 30.414762871255334 L 342.2323923424568 188.7256621158318" stroke-opacity="0.6980392156862745" stroke-linecap="round" stroke-linejoin="round" stroke-miterlimit="10"/><path fill="none" stroke="rgb(0,100,0)" paint-order="fill stroke markers" d=" M 395.0026920906487 135.95536236763962 L 553.3135913352243 135.95536236763962" stroke-opacity="0.6980392156862745" stroke-linecap="round" stroke-linejoin="round" stroke-miterlimit="10"/><path fill="none" stroke="rgb(255,127,0)" paint-order="fill stroke markers" d=" M 289.46209259426496 135.95536236763962 L 395.0026920906487 135.95536236763962" stroke-opacity="0.6980392156862745" stroke-linecap="round" stroke-linejoin="round" stroke-miterlimit="10"/><path fill="none" stroke="rgb(0,100,0)" paint-order="fill stroke markers" d=" M 658.854190831608 30.414762871255334 L 658.854190831608 83.18506261944748" stroke-opacity="0.6980392156862745" stroke-linecap="round" stroke-linejoin="round" stroke-miterlimit="10"/><path fill="none" stroke="rgb(0,100,0)" paint-order="fill stroke markers" d=" M 711.6244905797998 135.95536236763962 L 817.1650900761836 135.95536236763962" stroke-opacity="0.6980392156862745" stroke-linecap="round" stroke-linejoin="round" stroke-miterlimit="10"/><path fill="none" stroke="rgb(255,85,0)" paint-order="fill stroke markers" d=" M 658.854190831608 83.18506261944748 L 658.854190831608 188.7256621158318" stroke-opacity="0.6980392156862745" stroke-linecap="round" stroke-linejoin="round" stroke-miterlimit="10"/><path fill="none" stroke="rgb(255,85,0)" paint-order="fill stroke markers" d=" M 711.6244905797998 135.95536236763962 L 606.0838910834161 135.95536236763962" stroke-opacity="0.6980392156862745" stroke-linecap="round" stroke-linejoin="round" stroke-miterlimit="10"/><path fill="none" stroke="rgb(102,102,102)" paint-order="fill stroke markers" d=" M 25.61059385330563 135.95536236763962 L 78.38089360149749 30.414762871255334" stroke-opacity="0.6980392156862745" stroke-linejoin="round" stroke-miterlimit="10" stroke-dasharray="9,8"/><path fill="none" stroke="rgb(102,102,102)" paint-order="fill stroke markers" d=" M 25.61059385330563 135.95536236763962 L 78.38089360149749 188.7256621158318" stroke-opacity="0.6980392156862745" stroke-linejoin="round" stroke-miterlimit="10" stroke-dasharray="9,8"/><path fill="none" stroke="rgb(102,102,102)" paint-order="fill stroke markers" d=" M 78.38089360149749 30.414762871255334 L 236.69179284607307 135.95536236763962" stroke-opacity="0.6980392156862745" stroke-linejoin="round" stroke-miterlimit="10" stroke-dasharray="9,8"/><path fill="none" stroke="rgb(102,102,102)" paint-order="fill stroke markers" d=" M 236.69179284607307 135.95536236763962 L 78.38089360149749 188.7256621158318" stroke-opacity="0.6980392156862745" stroke-linejoin="round" stroke-miterlimit="10" stroke-dasharray="9,8"/><path fill="none" stroke="rgb(102,102,102)" paint-order="fill stroke markers" d=" M 342.2323923424568 30.414762871255334 L 395.0026920906487 135.95536236763962" stroke-opacity="0.6980392156862745" stroke-linejoin="round" stroke-miterlimit="10" stroke-dasharray="9,8"/><path fill="none" stroke="rgb(102,102,102)" paint-order="fill stroke markers" d=" M 395.0026920906487 135.95536236763962 L 342.2323923424568 188.7256621158318" stroke-opacity="0.6980392156862745" stroke-linejoin="round" stroke-miterlimit="10" stroke-dasharray="9,8"/><path fill="none" stroke="rgb(102,102,102)" paint-order="fill stroke markers" d=" M 342.2323923424568 188.7256621158318 L 553.3135913352243 135.95536236763962" stroke-opacity="0.6980392156862745" stroke-linejoin="round" stroke-miterlimit="10" stroke-dasharray="9,8"/><path fill="none" stroke="rgb(102,102,102)" paint-order="fill stroke markers" d=" M 553.3135913352243 135.95536236763962 L 342.2323923424568 30.414762871255334" stroke-opacity="0.6980392156862745" stroke-linejoin="round" stroke-miterlimit="10" stroke-dasharray="9,8"/><path fill="none" stroke="rgb(102,102,102)" paint-order="fill stroke markers" d=" M 658.854190831608 83.18506261944748 L 711.6244905797998 135.95536236763962" stroke-opacity="0.6980392156862745" stroke-linejoin="round" stroke-miterlimit="10" stroke-dasharray="9,8"/><path fill="none" stroke="rgb(102,102,102)" paint-order="fill stroke markers" d=" M 658.854190831608 30.414762871255334 L 817.1650900761836 135.95536236763962" stroke-opacity="0.6980392156862745" stroke-linejoin="round" stroke-miterlimit="10" stroke-dasharray="9,8"/><path fill="none" stroke="rgb(102,102,102)" paint-order="fill stroke markers" d=" M 817.1650900761836 135.95536236763962 L 658.854190831608 83.18506261944748" stroke-opacity="0.6980392156862745" stroke-linejoin="round" stroke-miterlimit="10" stroke-dasharray="9,8"/><path fill="none" stroke="rgb(102,102,102)" paint-order="fill stroke markers" d=" M 658.854190831608 30.414762871255334 L 711.6244905797998 135.95536236763962" stroke-opacity="0.6980392156862745" stroke-linejoin="round" stroke-miterlimit="10" stroke-dasharray="9,8"/><path fill="rgb(0,0,255)" stroke="none" paint-order="stroke fill markers" d=" M 80.38089360149749 30.414762871255334 C 80.38089360149749 31.51933237091692 79.48546310115907 32.414762871255334 78.38089360149749 32.414762871255334 C 77.2763241018359 32.414762871255334 76.38089360149749 31.51933237091692 76.38089360149749 30.414762871255334 C 76.38089360149749 29.310193371593748 77.2763241018359 28.414762871255334 78.38089360149749 28.414762871255334 C 79.48546310115907 28.414762871255334 80.38089360149749 29.310193371593748 80.38089360149749 30.414762871255334 Z" fill-opacity="1"/><path fill="none" stroke="rgb(0,0,0)" paint-order="fill stroke markers" d=" M 80.38089360149749 30.414762871255334 C 80.38089360149749 31.51933237091692 79.48546310115907 32.414762871255334 78.38089360149749 32.414762871255334 C 77.2763241018359 32.414762871255334 76.38089360149749 31.51933237091692 76.38089360149749 30.414762871255334 C 76.38089360149749 29.310193371593748 77.2763241018359 28.414762871255334 78.38089360149749 28.414762871255334 C 79.48546310115907 28.414762871255334 80.38089360149749 29.310193371593748 80.38089360149749 30.414762871255334 Z" stroke-opacity="1" stroke-linecap="round" stroke-linejoin="round" stroke-miterlimit="10"/><text fill="rgb(0,0,255)" stroke="none" font-family="geogebra-sans-serif, sans-serif" font-size="16px" font-style="normal" font-weight="normal" text-decoration="normal" x="57" y="40" text-anchor="start" dominant-baseline="alphabetic" fill-opacity="1">A</text><text fill="none" stroke="rgb(255,255,255)" font-family="geogebra-sans-serif, sans-serif" font-size="16px" font-style="normal" font-weight="normal" text-decoration="normal" x="57" y="40" text-anchor="start" dominant-baseline="alphabetic" stroke-opacity="1" stroke-linejoin="bevel" stroke-miterlimit="10" stroke-width="3">A</text><text fill="rgb(0,0,255)" stroke="none" font-family="geogebra-sans-serif, sans-serif" font-size="16px" font-style="normal" font-weight="normal" text-decoration="normal" x="57" y="40" text-anchor="start" dominant-baseline="alphabetic" fill-opacity="1">A</text><path fill="rgb(0,0,255)" stroke="none" paint-order="stroke fill markers" d=" M 80.38089360149749 188.7256621158318 C 80.38089360149749 189.83023161549337 79.48546310115907 190.7256621158318 78.38089360149749 190.7256621158318 C 77.2763241018359 190.7256621158318 76.38089360149749 189.83023161549337 76.38089360149749 188.7256621158318 C 76.38089360149749 187.62109261617022 77.2763241018359 186.7256621158318 78.38089360149749 186.7256621158318 C 79.48546310115907 186.7256621158318 80.38089360149749 187.62109261617022 80.38089360149749 188.7256621158318 Z" fill-opacity="1"/><path fill="none" stroke="rgb(0,0,0)" paint-order="fill stroke markers" d=" M 80.38089360149749 188.7256621158318 C 80.38089360149749 189.83023161549337 79.48546310115907 190.7256621158318 78.38089360149749 190.7256621158318 C 77.2763241018359 190.7256621158318 76.38089360149749 189.83023161549337 76.38089360149749 188.7256621158318 C 76.38089360149749 187.62109261617022 77.2763241018359 186.7256621158318 78.38089360149749 186.7256621158318 C 79.48546310115907 186.7256621158318 80.38089360149749 187.62109261617022 80.38089360149749 188.7256621158318 Z" stroke-opacity="1" stroke-linecap="round" stroke-linejoin="round" stroke-miterlimit="10"/><text fill="rgb(0,0,255)" stroke="none" font-family="geogebra-sans-serif, sans-serif" font-size="16px" font-style="normal" font-weight="normal" text-decoration="normal" x="55" y="199" text-anchor="start" dominant-baseline="alphabetic" fill-opacity="1">B</text><text fill="none" stroke="rgb(255,255,255)" font-family="geogebra-sans-serif, sans-serif" font-size="16px" font-style="normal" font-weight="normal" text-decoration="normal" x="55" y="199" text-anchor="start" dominant-baseline="alphabetic" stroke-opacity="1" stroke-linejoin="bevel" stroke-miterlimit="10" stroke-width="3">B</text><text fill="rgb(0,0,255)" stroke="none" font-family="geogebra-sans-serif, sans-serif" font-size="16px" font-style="normal" font-weight="normal" text-decoration="normal" x="55" y="199" text-anchor="start" dominant-baseline="alphabetic" fill-opacity="1">B</text><path fill="rgb(0,0,255)" stroke="none" paint-order="stroke fill markers" d=" M 27.61059385330563 135.95536236763962 C 27.61059385330563 137.0599318673012 26.715163352967217 137.95536236763962 25.61059385330563 137.95536236763962 C 24.506024353644044 137.95536236763962 23.61059385330563 137.0599318673012 23.61059385330563 135.95536236763962 C 23.61059385330563 134.85079286797804 24.506024353644044 133.95536236763962 25.61059385330563 133.95536236763962 C 26.715163352967217 133.95536236763962 27.61059385330563 134.85079286797804 27.61059385330563 135.95536236763962 Z" fill-opacity="1"/><path fill="none" stroke="rgb(0,0,0)" paint-order="fill stroke markers" d=" M 27.61059385330563 135.95536236763962 C 27.61059385330563 137.0599318673012 26.715163352967217 137.95536236763962 25.61059385330563 137.95536236763962 C 24.506024353644044 137.95536236763962 23.61059385330563 137.0599318673012 23.61059385330563 135.95536236763962 C 23.61059385330563 134.85079286797804 24.506024353644044 133.95536236763962 25.61059385330563 133.95536236763962 C 26.715163352967217 133.95536236763962 27.61059385330563 134.85079286797804 27.61059385330563 135.95536236763962 Z" stroke-opacity="1" stroke-linecap="round" stroke-linejoin="round" stroke-miterlimit="10"/><text fill="rgb(0,0,255)" stroke="none" font-family="geogebra-sans-serif, sans-serif" font-size="16px" font-style="normal" font-weight="normal" text-decoration="normal" x="14" y="124" text-anchor="start" dominant-baseline="alphabetic" fill-opacity="1">C</text><text fill="none" stroke="rgb(255,255,255)" font-family="geogebra-sans-serif, sans-serif" font-size="16px" font-style="normal" font-weight="normal" text-decoration="normal" x="14" y="124" text-anchor="start" dominant-baseline="alphabetic" stroke-opacity="1" stroke-linejoin="bevel" stroke-miterlimit="10" stroke-width="3">C</text><text fill="rgb(0,0,255)" stroke="none" font-family="geogebra-sans-serif, sans-serif" font-size="16px" font-style="normal" font-weight="normal" text-decoration="normal" x="14" y="124" text-anchor="start" dominant-baseline="alphabetic" fill-opacity="1">C</text><path fill="rgb(0,0,255)" stroke="none" paint-order="stroke fill markers" d=" M 238.69179284607307 135.95536236763962 C 238.69179284607307 137.0599318673012 237.79636234573465 137.95536236763962 236.69179284607307 137.95536236763962 C 235.5872233464115 137.95536236763962 234.69179284607307 137.0599318673012 234.69179284607307 135.95536236763962 C 234.69179284607307 134.85079286797804 235.5872233464115 133.95536236763962 236.69179284607307 133.95536236763962 C 237.79636234573465 133.95536236763962 238.69179284607307 134.85079286797804 238.69179284607307 135.95536236763962 Z" fill-opacity="1"/><path fill="none" stroke="rgb(0,0,0)" paint-order="fill stroke markers" d=" M 238.69179284607307 135.95536236763962 C 238.69179284607307 137.0599318673012 237.79636234573465 137.95536236763962 236.69179284607307 137.95536236763962 C 235.5872233464115 137.95536236763962 234.69179284607307 137.0599318673012 234.69179284607307 135.95536236763962 C 234.69179284607307 134.85079286797804 235.5872233464115 133.95536236763962 236.69179284607307 133.95536236763962 C 237.79636234573465 133.95536236763962 238.69179284607307 134.85079286797804 238.69179284607307 135.95536236763962 Z" stroke-opacity="1" stroke-linecap="round" stroke-linejoin="round" stroke-miterlimit="10"/><text fill="rgb(0,0,255)" stroke="none" font-family="geogebra-sans-serif, sans-serif" font-size="16px" font-style="normal" font-weight="normal" text-decoration="normal" x="233" y="121" text-anchor="start" dominant-baseline="alphabetic" fill-opacity="1">D</text><text fill="none" stroke="rgb(255,255,255)" font-family="geogebra-sans-serif, sans-serif" font-size="16px" font-style="normal" font-weight="normal" text-decoration="normal" x="233" y="121" text-anchor="start" dominant-baseline="alphabetic" stroke-opacity="1" stroke-linejoin="bevel" stroke-miterlimit="10" stroke-width="3">D</text><text fill="rgb(0,0,255)" stroke="none" font-family="geogebra-sans-serif, sans-serif" font-size="16px" font-style="normal" font-weight="normal" text-decoration="normal" x="233" y="121" text-anchor="start" dominant-baseline="alphabetic" fill-opacity="1">D</text><path fill="rgb(0,0,255)" stroke="none" paint-order="stroke fill markers" d=" M 80.38089360149749 135.95536236763962 C 80.38089360149749 137.0599318673012 79.48546310115907 137.95536236763962 78.38089360149749 137.95536236763962 C 77.2763241018359 137.95536236763962 76.38089360149749 137.0599318673012 76.38089360149749 135.95536236763962 C 76.38089360149749 134.85079286797804 77.2763241018359 133.95536236763962 78.38089360149749 133.95536236763962 C 79.48546310115907 133.95536236763962 80.38089360149749 134.85079286797804 80.38089360149749 135.95536236763962 Z" fill-opacity="1"/><path fill="none" stroke="rgb(0,0,0)" paint-order="fill stroke markers" d=" M 80.38089360149749 135.95536236763962 C 80.38089360149749 137.0599318673012 79.48546310115907 137.95536236763962 78.38089360149749 137.95536236763962 C 77.2763241018359 137.95536236763962 76.38089360149749 137.0599318673012 76.38089360149749 135.95536236763962 C 76.38089360149749 134.85079286797804 77.2763241018359 133.95536236763962 78.38089360149749 133.95536236763962 C 79.48546310115907 133.95536236763962 80.38089360149749 134.85079286797804 80.38089360149749 135.95536236763962 Z" stroke-opacity="1" stroke-linecap="round" stroke-linejoin="round" stroke-miterlimit="10"/><text fill="rgb(0,0,255)" stroke="none" font-family="geogebra-sans-serif, sans-serif" font-size="16px" font-style="normal" font-weight="normal" text-decoration="normal" x="89" y="125" text-anchor="start" dominant-baseline="alphabetic" fill-opacity="1">O</text><text fill="none" stroke="rgb(255,255,255)" font-family="geogebra-sans-serif, sans-serif" font-size="16px" font-style="normal" font-weight="normal" text-decoration="normal" x="89" y="125" text-anchor="start" dominant-baseline="alphabetic" stroke-opacity="1" stroke-linejoin="bevel" stroke-miterlimit="10" stroke-width="3">O</text><text fill="rgb(0,0,255)" stroke="none" font-family="geogebra-sans-serif, sans-serif" font-size="16px" font-style="normal" font-weight="normal" text-decoration="normal" x="89" y="125" text-anchor="start" dominant-baseline="alphabetic" fill-opacity="1">O</text><path fill="rgb(0,0,255)" stroke="none" paint-order="stroke fill markers" d=" M 344.2323923424568 30.414762871255334 C 344.2323923424568 31.51933237091692 343.3369618421184 32.414762871255334 342.2323923424568 32.414762871255334 C 341.12782284279524 32.414762871255334 340.2323923424568 31.51933237091692 340.2323923424568 30.414762871255334 C 340.2323923424568 29.310193371593748 341.12782284279524 28.414762871255334 342.2323923424568 28.414762871255334 C 343.3369618421184 28.414762871255334 344.2323923424568 29.310193371593748 344.2323923424568 30.414762871255334 Z" fill-opacity="1"/><path fill="none" stroke="rgb(0,0,0)" paint-order="fill stroke markers" d=" M 344.2323923424568 30.414762871255334 C 344.2323923424568 31.51933237091692 343.3369618421184 32.414762871255334 342.2323923424568 32.414762871255334 C 341.12782284279524 32.414762871255334 340.2323923424568 31.51933237091692 340.2323923424568 30.414762871255334 C 340.2323923424568 29.310193371593748 341.12782284279524 28.414762871255334 342.2323923424568 28.414762871255334 C 343.3369618421184 28.414762871255334 344.2323923424568 29.310193371593748 344.2323923424568 30.414762871255334 Z" stroke-opacity="1" stroke-linecap="round" stroke-linejoin="round" stroke-miterlimit="10"/><text fill="rgb(0,0,255)" stroke="none" font-family="geogebra-sans-serif, sans-serif" font-size="16px" font-style="normal" font-weight="normal" text-decoration="normal" x="321" y="36" text-anchor="start" dominant-baseline="alphabetic" fill-opacity="1">A</text><text fill="none" stroke="rgb(255,255,255)" font-family="geogebra-sans-serif, sans-serif" font-size="16px" font-style="normal" font-weight="normal" text-decoration="normal" x="321" y="36" text-anchor="start" dominant-baseline="alphabetic" stroke-opacity="1" stroke-linejoin="bevel" stroke-miterlimit="10" stroke-width="3">A</text><text fill="rgb(0,0,255)" stroke="none" font-family="geogebra-sans-serif, sans-serif" font-size="16px" font-style="normal" font-weight="normal" text-decoration="normal" x="321" y="36" text-anchor="start" dominant-baseline="alphabetic" fill-opacity="1">A</text><path fill="rgb(0,0,255)" stroke="none" paint-order="stroke fill markers" d=" M 344.2323923424568 188.7256621158318 C 344.2323923424568 189.83023161549337 343.3369618421184 190.7256621158318 342.2323923424568 190.7256621158318 C 341.12782284279524 190.7256621158318 340.2323923424568 189.83023161549337 340.2323923424568 188.7256621158318 C 340.2323923424568 187.62109261617022 341.12782284279524 186.7256621158318 342.2323923424568 186.7256621158318 C 343.3369618421184 186.7256621158318 344.2323923424568 187.62109261617022 344.2323923424568 188.7256621158318 Z" fill-opacity="1"/><path fill="none" stroke="rgb(0,0,0)" paint-order="fill stroke markers" d=" M 344.2323923424568 188.7256621158318 C 344.2323923424568 189.83023161549337 343.3369618421184 190.7256621158318 342.2323923424568 190.7256621158318 C 341.12782284279524 190.7256621158318 340.2323923424568 189.83023161549337 340.2323923424568 188.7256621158318 C 340.2323923424568 187.62109261617022 341.12782284279524 186.7256621158318 342.2323923424568 186.7256621158318 C 343.3369618421184 186.7256621158318 344.2323923424568 187.62109261617022 344.2323923424568 188.7256621158318 Z" stroke-opacity="1" stroke-linecap="round" stroke-linejoin="round" stroke-miterlimit="10"/><text fill="rgb(0,0,255)" stroke="none" font-family="geogebra-sans-serif, sans-serif" font-size="16px" font-style="normal" font-weight="normal" text-decoration="normal" x="321" y="193" text-anchor="start" dominant-baseline="alphabetic" fill-opacity="1">B</text><text fill="none" stroke="rgb(255,255,255)" font-family="geogebra-sans-serif, sans-serif" font-size="16px" font-style="normal" font-weight="normal" text-decoration="normal" x="321" y="193" text-anchor="start" dominant-baseline="alphabetic" stroke-opacity="1" stroke-linejoin="bevel" stroke-miterlimit="10" stroke-width="3">B</text><text fill="rgb(0,0,255)" stroke="none" font-family="geogebra-sans-serif, sans-serif" font-size="16px" font-style="normal" font-weight="normal" text-decoration="normal" x="321" y="193" text-anchor="start" dominant-baseline="alphabetic" fill-opacity="1">B</text><path fill="rgb(0,0,255)" stroke="none" paint-order="stroke fill markers" d=" M 397.0026920906487 135.95536236763962 C 397.0026920906487 137.0599318673012 396.10726159031026 137.95536236763962 395.0026920906487 137.95536236763962 C 393.8981225909871 137.95536236763962 393.0026920906487 137.0599318673012 393.0026920906487 135.95536236763962 C 393.0026920906487 134.85079286797804 393.8981225909871 133.95536236763962 395.0026920906487 133.95536236763962 C 396.10726159031026 133.95536236763962 397.0026920906487 134.85079286797804 397.0026920906487 135.95536236763962 Z" fill-opacity="1"/><path fill="none" stroke="rgb(0,0,0)" paint-order="fill stroke markers" d=" M 397.0026920906487 135.95536236763962 C 397.0026920906487 137.0599318673012 396.10726159031026 137.95536236763962 395.0026920906487 137.95536236763962 C 393.8981225909871 137.95536236763962 393.0026920906487 137.0599318673012 393.0026920906487 135.95536236763962 C 393.0026920906487 134.85079286797804 393.8981225909871 133.95536236763962 395.0026920906487 133.95536236763962 C 396.10726159031026 133.95536236763962 397.0026920906487 134.85079286797804 397.0026920906487 135.95536236763962 Z" stroke-opacity="1" stroke-linecap="round" stroke-linejoin="round" stroke-miterlimit="10"/><text fill="rgb(0,0,255)" stroke="none" font-family="geogebra-sans-serif, sans-serif" font-size="16px" font-style="normal" font-weight="normal" text-decoration="normal" x="401" y="125" text-anchor="start" dominant-baseline="alphabetic" fill-opacity="1">C</text><text fill="none" stroke="rgb(255,255,255)" font-family="geogebra-sans-serif, sans-serif" font-size="16px" font-style="normal" font-weight="normal" text-decoration="normal" x="401" y="125" text-anchor="start" dominant-baseline="alphabetic" stroke-opacity="1" stroke-linejoin="bevel" stroke-miterlimit="10" stroke-width="3">C</text><text fill="rgb(0,0,255)" stroke="none" font-family="geogebra-sans-serif, sans-serif" font-size="16px" font-style="normal" font-weight="normal" text-decoration="normal" x="401" y="125" text-anchor="start" dominant-baseline="alphabetic" fill-opacity="1">C</text><path fill="rgb(0,0,255)" stroke="none" paint-order="stroke fill markers" d=" M 555.3135913352243 135.95536236763962 C 555.3135913352243 137.0599318673012 554.4181608348858 137.95536236763962 553.3135913352243 137.95536236763962 C 552.2090218355627 137.95536236763962 551.3135913352243 137.0599318673012 551.3135913352243 135.95536236763962 C 551.3135913352243 134.85079286797804 552.2090218355627 133.95536236763962 553.3135913352243 133.95536236763962 C 554.4181608348858 133.95536236763962 555.3135913352243 134.85079286797804 555.3135913352243 135.95536236763962 Z" fill-opacity="1"/><path fill="none" stroke="rgb(0,0,0)" paint-order="fill stroke markers" d=" M 555.3135913352243 135.95536236763962 C 555.3135913352243 137.0599318673012 554.4181608348858 137.95536236763962 553.3135913352243 137.95536236763962 C 552.2090218355627 137.95536236763962 551.3135913352243 137.0599318673012 551.3135913352243 135.95536236763962 C 551.3135913352243 134.85079286797804 552.2090218355627 133.95536236763962 553.3135913352243 133.95536236763962 C 554.4181608348858 133.95536236763962 555.3135913352243 134.85079286797804 555.3135913352243 135.95536236763962 Z" stroke-opacity="1" stroke-linecap="round" stroke-linejoin="round" stroke-miterlimit="10"/><text fill="rgb(0,0,255)" stroke="none" font-family="geogebra-sans-serif, sans-serif" font-size="16px" font-style="normal" font-weight="normal" text-decoration="normal" x="548" y="123" text-anchor="start" dominant-baseline="alphabetic" fill-opacity="1">D</text><text fill="none" stroke="rgb(255,255,255)" font-family="geogebra-sans-serif, sans-serif" font-size="16px" font-style="normal" font-weight="normal" text-decoration="normal" x="548" y="123" text-anchor="start" dominant-baseline="alphabetic" stroke-opacity="1" stroke-linejoin="bevel" stroke-miterlimit="10" stroke-width="3">D</text><text fill="rgb(0,0,255)" stroke="none" font-family="geogebra-sans-serif, sans-serif" font-size="16px" font-style="normal" font-weight="normal" text-decoration="normal" x="548" y="123" text-anchor="start" dominant-baseline="alphabetic" fill-opacity="1">D</text><path fill="rgb(0,0,255)" stroke="none" paint-order="stroke fill markers" d=" M 344.2323923424568 135.95536236763962 C 344.2323923424568 137.0599318673012 343.3369618421184 137.95536236763962 342.2323923424568 137.95536236763962 C 341.12782284279524 137.95536236763962 340.2323923424568 137.0599318673012 340.2323923424568 135.95536236763962 C 340.2323923424568 134.85079286797804 341.12782284279524 133.95536236763962 342.2323923424568 133.95536236763962 C 343.3369618421184 133.95536236763962 344.2323923424568 134.85079286797804 344.2323923424568 135.95536236763962 Z" fill-opacity="1"/><path fill="none" stroke="rgb(0,0,0)" paint-order="fill stroke markers" d=" M 344.2323923424568 135.95536236763962 C 344.2323923424568 137.0599318673012 343.3369618421184 137.95536236763962 342.2323923424568 137.95536236763962 C 341.12782284279524 137.95536236763962 340.2323923424568 137.0599318673012 340.2323923424568 135.95536236763962 C 340.2323923424568 134.85079286797804 341.12782284279524 133.95536236763962 342.2323923424568 133.95536236763962 C 343.3369618421184 133.95536236763962 344.2323923424568 134.85079286797804 344.2323923424568 135.95536236763962 Z" stroke-opacity="1" stroke-linecap="round" stroke-linejoin="round" stroke-miterlimit="10"/><text fill="rgb(0,0,255)" stroke="none" font-family="geogebra-sans-serif, sans-serif" font-size="16px" font-style="normal" font-weight="normal" text-decoration="normal" x="321" y="128" text-anchor="start" dominant-baseline="alphabetic" fill-opacity="1">O</text><text fill="none" stroke="rgb(255,255,255)" font-family="geogebra-sans-serif, sans-serif" font-size="16px" font-style="normal" font-weight="normal" text-decoration="normal" x="321" y="128" text-anchor="start" dominant-baseline="alphabetic" stroke-opacity="1" stroke-linejoin="bevel" stroke-miterlimit="10" stroke-width="3">O</text><text fill="rgb(0,0,255)" stroke="none" font-family="geogebra-sans-serif, sans-serif" font-size="16px" font-style="normal" font-weight="normal" text-decoration="normal" x="321" y="128" text-anchor="start" dominant-baseline="alphabetic" fill-opacity="1">O</text><path fill="rgb(0,0,255)" stroke="none" paint-order="stroke fill markers" d=" M 660.854190831608 30.414762871255334 C 660.854190831608 31.51933237091692 659.9587603312696 32.414762871255334 658.854190831608 32.414762871255334 C 657.7496213319464 32.414762871255334 656.854190831608 31.51933237091692 656.854190831608 30.414762871255334 C 656.854190831608 29.310193371593748 657.7496213319464 28.414762871255334 658.854190831608 28.414762871255334 C 659.9587603312696 28.414762871255334 660.854190831608 29.310193371593748 660.854190831608 30.414762871255334 Z" fill-opacity="1"/><path fill="none" stroke="rgb(0,0,0)" paint-order="fill stroke markers" d=" M 660.854190831608 30.414762871255334 C 660.854190831608 31.51933237091692 659.9587603312696 32.414762871255334 658.854190831608 32.414762871255334 C 657.7496213319464 32.414762871255334 656.854190831608 31.51933237091692 656.854190831608 30.414762871255334 C 656.854190831608 29.310193371593748 657.7496213319464 28.414762871255334 658.854190831608 28.414762871255334 C 659.9587603312696 28.414762871255334 660.854190831608 29.310193371593748 660.854190831608 30.414762871255334 Z" stroke-opacity="1" stroke-linecap="round" stroke-linejoin="round" stroke-miterlimit="10"/><text fill="rgb(0,0,255)" stroke="none" font-family="geogebra-sans-serif, sans-serif" font-size="16px" font-style="normal" font-weight="normal" text-decoration="normal" x="635" y="35" text-anchor="start" dominant-baseline="alphabetic" fill-opacity="1">A</text><text fill="none" stroke="rgb(255,255,255)" font-family="geogebra-sans-serif, sans-serif" font-size="16px" font-style="normal" font-weight="normal" text-decoration="normal" x="635" y="35" text-anchor="start" dominant-baseline="alphabetic" stroke-opacity="1" stroke-linejoin="bevel" stroke-miterlimit="10" stroke-width="3">A</text><text fill="rgb(0,0,255)" stroke="none" font-family="geogebra-sans-serif, sans-serif" font-size="16px" font-style="normal" font-weight="normal" text-decoration="normal" x="635" y="35" text-anchor="start" dominant-baseline="alphabetic" fill-opacity="1">A</text><path fill="rgb(0,0,255)" stroke="none" paint-order="stroke fill markers" d=" M 660.854190831608 83.18506261944748 C 660.854190831608 84.28963211910906 659.9587603312696 85.18506261944748 658.854190831608 85.18506261944748 C 657.7496213319464 85.18506261944748 656.854190831608 84.28963211910906 656.854190831608 83.18506261944748 C 656.854190831608 82.08049311978588 657.7496213319464 81.18506261944748 658.854190831608 81.18506261944748 C 659.9587603312696 81.18506261944748 660.854190831608 82.08049311978588 660.854190831608 83.18506261944748 Z" fill-opacity="1"/><path fill="none" stroke="rgb(0,0,0)" paint-order="fill stroke markers" d=" M 660.854190831608 83.18506261944748 C 660.854190831608 84.28963211910906 659.9587603312696 85.18506261944748 658.854190831608 85.18506261944748 C 657.7496213319464 85.18506261944748 656.854190831608 84.28963211910906 656.854190831608 83.18506261944748 C 656.854190831608 82.08049311978588 657.7496213319464 81.18506261944748 658.854190831608 81.18506261944748 C 659.9587603312696 81.18506261944748 660.854190831608 82.08049311978588 660.854190831608 83.18506261944748 Z" stroke-opacity="1" stroke-linecap="round" stroke-linejoin="round" stroke-miterlimit="10"/><text fill="rgb(0,0,255)" stroke="none" font-family="geogebra-sans-serif, sans-serif" font-size="16px" font-style="normal" font-weight="normal" text-decoration="normal" x="639" y="88" text-anchor="start" dominant-baseline="alphabetic" fill-opacity="1">B</text><text fill="none" stroke="rgb(255,255,255)" font-family="geogebra-sans-serif, sans-serif" font-size="16px" font-style="normal" font-weight="normal" text-decoration="normal" x="639" y="88" text-anchor="start" dominant-baseline="alphabetic" stroke-opacity="1" stroke-linejoin="bevel" stroke-miterlimit="10" stroke-width="3">B</text><text fill="rgb(0,0,255)" stroke="none" font-family="geogebra-sans-serif, sans-serif" font-size="16px" font-style="normal" font-weight="normal" text-decoration="normal" x="639" y="88" text-anchor="start" dominant-baseline="alphabetic" fill-opacity="1">B</text><path fill="rgb(0,0,255)" stroke="none" paint-order="stroke fill markers" d=" M 713.6244905797998 135.95536236763962 C 713.6244905797998 137.0599318673012 712.7290600794614 137.95536236763962 711.6244905797998 137.95536236763962 C 710.5199210801383 137.95536236763962 709.6244905797998 137.0599318673012 709.6244905797998 135.95536236763962 C 709.6244905797998 134.85079286797804 710.5199210801383 133.95536236763962 711.6244905797998 133.95536236763962 C 712.7290600794614 133.95536236763962 713.6244905797998 134.85079286797804 713.6244905797998 135.95536236763962 Z" fill-opacity="1"/><path fill="none" stroke="rgb(0,0,0)" paint-order="fill stroke markers" d=" M 713.6244905797998 135.95536236763962 C 713.6244905797998 137.0599318673012 712.7290600794614 137.95536236763962 711.6244905797998 137.95536236763962 C 710.5199210801383 137.95536236763962 709.6244905797998 137.0599318673012 709.6244905797998 135.95536236763962 C 709.6244905797998 134.85079286797804 710.5199210801383 133.95536236763962 711.6244905797998 133.95536236763962 C 712.7290600794614 133.95536236763962 713.6244905797998 134.85079286797804 713.6244905797998 135.95536236763962 Z" stroke-opacity="1" stroke-linecap="round" stroke-linejoin="round" stroke-miterlimit="10"/><text fill="rgb(0,0,255)" stroke="none" font-family="geogebra-sans-serif, sans-serif" font-size="16px" font-style="normal" font-weight="normal" text-decoration="normal" x="709" y="158" text-anchor="start" dominant-baseline="alphabetic" fill-opacity="1">C</text><text fill="none" stroke="rgb(255,255,255)" font-family="geogebra-sans-serif, sans-serif" font-size="16px" font-style="normal" font-weight="normal" text-decoration="normal" x="709" y="158" text-anchor="start" dominant-baseline="alphabetic" stroke-opacity="1" stroke-linejoin="bevel" stroke-miterlimit="10" stroke-width="3">C</text><text fill="rgb(0,0,255)" stroke="none" font-family="geogebra-sans-serif, sans-serif" font-size="16px" font-style="normal" font-weight="normal" text-decoration="normal" x="709" y="158" text-anchor="start" dominant-baseline="alphabetic" fill-opacity="1">C</text><path fill="rgb(0,0,255)" stroke="none" paint-order="stroke fill markers" d=" M 819.1650900761836 135.95536236763962 C 819.1650900761836 137.0599318673012 818.2696595758451 137.95536236763962 817.1650900761836 137.95536236763962 C 816.060520576522 137.95536236763962 815.1650900761836 137.0599318673012 815.1650900761836 135.95536236763962 C 815.1650900761836 134.85079286797804 816.060520576522 133.95536236763962 817.1650900761836 133.95536236763962 C 818.2696595758451 133.95536236763962 819.1650900761836 134.85079286797804 819.1650900761836 135.95536236763962 Z" fill-opacity="1"/><path fill="none" stroke="rgb(0,0,0)" paint-order="fill stroke markers" d=" M 819.1650900761836 135.95536236763962 C 819.1650900761836 137.0599318673012 818.2696595758451 137.95536236763962 817.1650900761836 137.95536236763962 C 816.060520576522 137.95536236763962 815.1650900761836 137.0599318673012 815.1650900761836 135.95536236763962 C 815.1650900761836 134.85079286797804 816.060520576522 133.95536236763962 817.1650900761836 133.95536236763962 C 818.2696595758451 133.95536236763962 819.1650900761836 134.85079286797804 819.1650900761836 135.95536236763962 Z" stroke-opacity="1" stroke-linecap="round" stroke-linejoin="round" stroke-miterlimit="10"/><text fill="rgb(0,0,255)" stroke="none" font-family="geogebra-sans-serif, sans-serif" font-size="16px" font-style="normal" font-weight="normal" text-decoration="normal" x="812" y="158" text-anchor="start" dominant-baseline="alphabetic" fill-opacity="1">D</text><text fill="none" stroke="rgb(255,255,255)" font-family="geogebra-sans-serif, sans-serif" font-size="16px" font-style="normal" font-weight="normal" text-decoration="normal" x="812" y="158" text-anchor="start" dominant-baseline="alphabetic" stroke-opacity="1" stroke-linejoin="bevel" stroke-miterlimit="10" stroke-width="3">D</text><text fill="rgb(0,0,255)" stroke="none" font-family="geogebra-sans-serif, sans-serif" font-size="16px" font-style="normal" font-weight="normal" text-decoration="normal" x="812" y="158" text-anchor="start" dominant-baseline="alphabetic" fill-opacity="1">D</text><path fill="rgb(0,0,255)" stroke="none" paint-order="stroke fill markers" d=" M 660.854190831608 135.95536236763962 C 660.854190831608 137.0599318673012 659.9587603312696 137.95536236763962 658.854190831608 137.95536236763962 C 657.7496213319464 137.95536236763962 656.854190831608 137.0599318673012 656.854190831608 135.95536236763962 C 656.854190831608 134.85079286797804 657.7496213319464 133.95536236763962 658.854190831608 133.95536236763962 C 659.9587603312696 133.95536236763962 660.854190831608 134.85079286797804 660.854190831608 135.95536236763962 Z" fill-opacity="1"/><path fill="none" stroke="rgb(0,0,0)" paint-order="fill stroke markers" d=" M 660.854190831608 135.95536236763962 C 660.854190831608 137.0599318673012 659.9587603312696 137.95536236763962 658.854190831608 137.95536236763962 C 657.7496213319464 137.95536236763962 656.854190831608 137.0599318673012 656.854190831608 135.95536236763962 C 656.854190831608 134.85079286797804 657.7496213319464 133.95536236763962 658.854190831608 133.95536236763962 C 659.9587603312696 133.95536236763962 660.854190831608 134.85079286797804 660.854190831608 135.95536236763962 Z" stroke-opacity="1" stroke-linecap="round" stroke-linejoin="round" stroke-miterlimit="10"/><text fill="rgb(0,0,255)" stroke="none" font-family="geogebra-sans-serif, sans-serif" font-size="16px" font-style="normal" font-weight="normal" text-decoration="normal" x="638" y="154" text-anchor="start" dominant-baseline="alphabetic" fill-opacity="1">O</text><text fill="none" stroke="rgb(255,255,255)" font-family="geogebra-sans-serif, sans-serif" font-size="16px" font-style="normal" font-weight="normal" text-decoration="normal" x="638" y="154" text-anchor="start" dominant-baseline="alphabetic" stroke-opacity="1" stroke-linejoin="bevel" stroke-miterlimit="10" stroke-width="3">O</text><text fill="rgb(0,0,255)" stroke="none" font-family="geogebra-sans-serif, sans-serif" font-size="16px" font-style="normal" font-weight="normal" text-decoration="normal" x="638" y="154" text-anchor="start" dominant-baseline="alphabetic" fill-opacity="1">O</text></g></g></svg>