<svg version="1.1" xmlns="http://www.w3.org/2000/svg" xmlns:xlink="http://www.w3.org/1999/xlink" width="287" height="143"><defs><clipPath id="TNtIwgGHAXFQ"><path fill="none" stroke="none" d=" M 0 0 L 287 0 L 287 143 L 0 143 L 0 0 Z"/></clipPath></defs><g transform="scale(1,1)" clip-path="url(#TNtIwgGHAXFQ)"><g><rect fill="rgb(255,255,255)" stroke="none" x="0" y="0" width="287" height="143" fill-opacity="1"/><path fill="rgb(255,0,0)" stroke="none" paint-order="stroke fill markers" fill-rule="evenodd" d=" M 86.96788722867856 86.51657779322159 L 97.57403006433871 86.4179159994015 L 97.47536827051933 75.81177316374057 L 86.86922543485848 75.91043495756138 L 86.96788722867856 86.51657779322159" fill-opacity="0.09803921568627451"/><path fill="none" stroke="rgb(255,0,0)" paint-order="fill stroke markers" d=" M 86.96788722867856 86.51657779322159 L 97.57403006433871 86.4179159994015 L 97.47536827051933 75.81177316374057 L 86.86922543485848 75.91043495756138 L 86.96788722867856 86.51657779322159" stroke-opacity="0.6980392156862745" stroke-linecap="round" stroke-linejoin="round" stroke-miterlimit="10" stroke-width="0.5"/><path fill="rgb(255,0,0)" stroke="none" paint-order="stroke fill markers" fill-rule="evenodd" d=" M 197.67894611607431 85.48670747799 L 187.07280328041418 85.5853692718101 L 187.17146507423357 96.19151210747103 L 197.7776079098944 96.0928503136502 L 197.67894611607431 85.48670747799" fill-opacity="0.09803921568627451"/><path fill="none" stroke="rgb(255,0,0)" paint-order="fill stroke markers" d=" M 197.67894611607431 85.48670747799 L 187.07280328041418 85.5853692718101 L 187.17146507423357 96.19151210747103 L 197.7776079098944 96.0928503136502 L 197.67894611607431 85.48670747799" stroke-opacity="0.6980392156862745" stroke-linecap="round" stroke-linejoin="round" stroke-miterlimit="10" stroke-width="0.5"/><path fill="none" stroke="rgb(0,100,0)" paint-order="fill stroke markers" d=" M 35 86.99999999999997 L 250.00000000000003 84.99999999999997" stroke-opacity="0.6980392156862745" stroke-linecap="round" stroke-linejoin="round" stroke-miterlimit="10"/><path fill="none" stroke="rgb(0,100,0)" paint-order="fill stroke markers" d=" M 86.38089360149746 23.414762871255164 L 198 119.99999999999997" stroke-opacity="0.6980392156862745" stroke-linecap="round" stroke-linejoin="round" stroke-miterlimit="10"/><path fill="none" stroke="rgb(102,102,102)" paint-order="fill stroke markers" d=" M 86.38089360149746 23.414762871255164 L 86.96788722867856 86.51657779322159" stroke-opacity="0.6980392156862745" stroke-linejoin="round" stroke-miterlimit="10" stroke-dasharray="9,8"/><path fill="none" stroke="rgb(102,102,102)" paint-order="fill stroke markers" d=" M 198 119.99999999999997 L 197.67894611607431 85.48670747799" stroke-opacity="0.6980392156862745" stroke-linejoin="round" stroke-miterlimit="10" stroke-dasharray="9,8"/><path fill="rgb(0,0,255)" stroke="none" paint-order="stroke fill markers" d=" M 88.38089360149746 23.414762871255164 C 88.38089360149746 24.51933237091675 87.48546310115904 25.414762871255164 86.38089360149746 25.414762871255164 C 85.27632410183587 25.414762871255164 84.38089360149746 24.51933237091675 84.38089360149746 23.414762871255164 C 84.38089360149746 22.310193371593577 85.27632410183587 21.414762871255164 86.38089360149746 21.414762871255164 C 87.48546310115904 21.414762871255164 88.38089360149746 22.310193371593577 88.38089360149746 23.414762871255164 Z" fill-opacity="1"/><path fill="none" stroke="rgb(0,0,0)" paint-order="fill stroke markers" d=" M 88.38089360149746 23.414762871255164 C 88.38089360149746 24.51933237091675 87.48546310115904 25.414762871255164 86.38089360149746 25.414762871255164 C 85.27632410183587 25.414762871255164 84.38089360149746 24.51933237091675 84.38089360149746 23.414762871255164 C 84.38089360149746 22.310193371593577 85.27632410183587 21.414762871255164 86.38089360149746 21.414762871255164 C 87.48546310115904 21.414762871255164 88.38089360149746 22.310193371593577 88.38089360149746 23.414762871255164 Z" stroke-opacity="1" stroke-linecap="round" stroke-linejoin="round" stroke-miterlimit="10"/><text fill="rgb(0,0,255)" stroke="none" font-family="geogebra-sans-serif, sans-serif" font-size="16px" font-style="normal" font-weight="normal" text-decoration="normal" x="65" y="33" text-anchor="start" dominant-baseline="alphabetic" fill-opacity="1">A</text><text fill="none" stroke="rgb(255,255,255)" font-family="geogebra-sans-serif, sans-serif" font-size="16px" font-style="normal" font-weight="normal" text-decoration="normal" x="65" y="33" text-anchor="start" dominant-baseline="alphabetic" stroke-opacity="1" stroke-linejoin="bevel" stroke-miterlimit="10" stroke-width="3">A</text><text fill="rgb(0,0,255)" stroke="none" font-family="geogebra-sans-serif, sans-serif" font-size="16px" font-style="normal" font-weight="normal" text-decoration="normal" x="65" y="33" text-anchor="start" dominant-baseline="alphabetic" fill-opacity="1">A</text><path fill="rgb(0,0,255)" stroke="none" paint-order="stroke fill markers" d=" M 200 119.99999999999997 C 200 121.10456949966155 199.10456949966158 121.99999999999997 198 121.99999999999997 C 196.89543050033842 121.99999999999997 196 121.10456949966155 196 119.99999999999997 C 196 118.89543050033838 196.89543050033842 117.99999999999997 198 117.99999999999997 C 199.10456949966158 117.99999999999997 200 118.89543050033838 200 119.99999999999997 Z" fill-opacity="1"/><path fill="none" stroke="rgb(0,0,0)" paint-order="fill stroke markers" d=" M 200 119.99999999999997 C 200 121.10456949966155 199.10456949966158 121.99999999999997 198 121.99999999999997 C 196.89543050033842 121.99999999999997 196 121.10456949966155 196 119.99999999999997 C 196 118.89543050033838 196.89543050033842 117.99999999999997 198 117.99999999999997 C 199.10456949966158 117.99999999999997 200 118.89543050033838 200 119.99999999999997 Z" stroke-opacity="1" stroke-linecap="round" stroke-linejoin="round" stroke-miterlimit="10"/><text fill="rgb(0,0,255)" stroke="none" font-family="geogebra-sans-serif, sans-serif" font-size="16px" font-style="normal" font-weight="normal" text-decoration="normal" x="209" y="124" text-anchor="start" dominant-baseline="alphabetic" fill-opacity="1">B</text><text fill="none" stroke="rgb(255,255,255)" font-family="geogebra-sans-serif, sans-serif" font-size="16px" font-style="normal" font-weight="normal" text-decoration="normal" x="209" y="124" text-anchor="start" dominant-baseline="alphabetic" stroke-opacity="1" stroke-linejoin="bevel" stroke-miterlimit="10" stroke-width="3">B</text><text fill="rgb(0,0,255)" stroke="none" font-family="geogebra-sans-serif, sans-serif" font-size="16px" font-style="normal" font-weight="normal" text-decoration="normal" x="209" y="124" text-anchor="start" dominant-baseline="alphabetic" fill-opacity="1">B</text><path fill="rgb(0,0,255)" stroke="none" paint-order="stroke fill markers" d=" M 37 86.99999999999997 C 37 88.10456949966155 36.10456949966159 88.99999999999997 35 88.99999999999997 C 33.89543050033841 88.99999999999997 33 88.10456949966155 33 86.99999999999997 C 33 85.89543050033838 33.89543050033841 84.99999999999997 35 84.99999999999997 C 36.10456949966159 84.99999999999997 37 85.89543050033838 37 86.99999999999997 Z" fill-opacity="1"/><path fill="none" stroke="rgb(0,0,0)" paint-order="fill stroke markers" d=" M 37 86.99999999999997 C 37 88.10456949966155 36.10456949966159 88.99999999999997 35 88.99999999999997 C 33.89543050033841 88.99999999999997 33 88.10456949966155 33 86.99999999999997 C 33 85.89543050033838 33.89543050033841 84.99999999999997 35 84.99999999999997 C 36.10456949966159 84.99999999999997 37 85.89543050033838 37 86.99999999999997 Z" stroke-opacity="1" stroke-linecap="round" stroke-linejoin="round" stroke-miterlimit="10"/><text fill="rgb(0,0,255)" stroke="none" font-family="geogebra-sans-serif, sans-serif" font-size="16px" font-style="normal" font-weight="normal" text-decoration="normal" x="23" y="75" text-anchor="start" dominant-baseline="alphabetic" fill-opacity="1">C</text><text fill="none" stroke="rgb(255,255,255)" font-family="geogebra-sans-serif, sans-serif" font-size="16px" font-style="normal" font-weight="normal" text-decoration="normal" x="23" y="75" text-anchor="start" dominant-baseline="alphabetic" stroke-opacity="1" stroke-linejoin="bevel" stroke-miterlimit="10" stroke-width="3">C</text><text fill="rgb(0,0,255)" stroke="none" font-family="geogebra-sans-serif, sans-serif" font-size="16px" font-style="normal" font-weight="normal" text-decoration="normal" x="23" y="75" text-anchor="start" dominant-baseline="alphabetic" fill-opacity="1">C</text><path fill="rgb(0,0,255)" stroke="none" paint-order="stroke fill markers" d=" M 252.00000000000003 84.99999999999997 C 252.00000000000003 86.10456949966155 251.1045694996616 86.99999999999997 250.00000000000003 86.99999999999997 C 248.89543050033845 86.99999999999997 248.00000000000003 86.10456949966155 248.00000000000003 84.99999999999997 C 248.00000000000003 83.89543050033838 248.89543050033845 82.99999999999997 250.00000000000003 82.99999999999997 C 251.1045694996616 82.99999999999997 252.00000000000003 83.89543050033838 252.00000000000003 84.99999999999997 Z" fill-opacity="1"/><path fill="none" stroke="rgb(0,0,0)" paint-order="fill stroke markers" d=" M 252.00000000000003 84.99999999999997 C 252.00000000000003 86.10456949966155 251.1045694996616 86.99999999999997 250.00000000000003 86.99999999999997 C 248.89543050033845 86.99999999999997 248.00000000000003 86.10456949966155 248.00000000000003 84.99999999999997 C 248.00000000000003 83.89543050033838 248.89543050033845 82.99999999999997 250.00000000000003 82.99999999999997 C 251.1045694996616 82.99999999999997 252.00000000000003 83.89543050033838 252.00000000000003 84.99999999999997 Z" stroke-opacity="1" stroke-linecap="round" stroke-linejoin="round" stroke-miterlimit="10"/><text fill="rgb(0,0,255)" stroke="none" font-family="geogebra-sans-serif, sans-serif" font-size="16px" font-style="normal" font-weight="normal" text-decoration="normal" x="246" y="70" text-anchor="start" dominant-baseline="alphabetic" fill-opacity="1">D</text><text fill="none" stroke="rgb(255,255,255)" font-family="geogebra-sans-serif, sans-serif" font-size="16px" font-style="normal" font-weight="normal" text-decoration="normal" x="246" y="70" text-anchor="start" dominant-baseline="alphabetic" stroke-opacity="1" stroke-linejoin="bevel" stroke-miterlimit="10" stroke-width="3">D</text><text fill="rgb(0,0,255)" stroke="none" font-family="geogebra-sans-serif, sans-serif" font-size="16px" font-style="normal" font-weight="normal" text-decoration="normal" x="246" y="70" text-anchor="start" dominant-baseline="alphabetic" fill-opacity="1">D</text><path fill="rgb(0,0,255)" stroke="none" paint-order="stroke fill markers" d=" M 88.96788722867856 86.51657779322159 C 88.96788722867856 87.62114729288317 88.07245672834014 88.51657779322159 86.96788722867856 88.51657779322159 C 85.86331772901697 88.51657779322159 84.96788722867856 87.62114729288317 84.96788722867856 86.51657779322159 C 84.96788722867856 85.41200829355999 85.86331772901697 84.51657779322159 86.96788722867856 84.51657779322159 C 88.07245672834014 84.51657779322159 88.96788722867856 85.41200829355999 88.96788722867856 86.51657779322159 Z" fill-opacity="1"/><path fill="none" stroke="rgb(0,0,0)" paint-order="fill stroke markers" d=" M 88.96788722867856 86.51657779322159 C 88.96788722867856 87.62114729288317 88.07245672834014 88.51657779322159 86.96788722867856 88.51657779322159 C 85.86331772901697 88.51657779322159 84.96788722867856 87.62114729288317 84.96788722867856 86.51657779322159 C 84.96788722867856 85.41200829355999 85.86331772901697 84.51657779322159 86.96788722867856 84.51657779322159 C 88.07245672834014 84.51657779322159 88.96788722867856 85.41200829355999 88.96788722867856 86.51657779322159 Z" stroke-opacity="1" stroke-linecap="round" stroke-linejoin="round" stroke-miterlimit="10"/><text fill="rgb(0,0,255)" stroke="none" font-family="geogebra-sans-serif, sans-serif" font-size="16px" font-style="normal" font-weight="normal" text-decoration="normal" x="78" y="111" text-anchor="start" dominant-baseline="alphabetic" fill-opacity="1">A</text><text fill="none" stroke="rgb(255,255,255)" font-family="geogebra-sans-serif, sans-serif" font-size="16px" font-style="normal" font-weight="normal" text-decoration="normal" x="78" y="111" text-anchor="start" dominant-baseline="alphabetic" stroke-opacity="1" stroke-linejoin="bevel" stroke-miterlimit="10" stroke-width="3">A</text><text fill="rgb(0,0,255)" stroke="none" font-family="geogebra-sans-serif, sans-serif" font-size="16px" font-style="normal" font-weight="normal" text-decoration="normal" x="78" y="111" text-anchor="start" dominant-baseline="alphabetic" fill-opacity="1">A</text><text fill="rgb(0,0,255)" stroke="none" font-family="geogebra-sans-serif, sans-serif" font-size="14px" font-style="normal" font-weight="normal" text-decoration="normal" x="89" y="118" text-anchor="start" dominant-baseline="alphabetic" fill-opacity="1">1</text><text fill="none" stroke="rgb(255,255,255)" font-family="geogebra-sans-serif, sans-serif" font-size="14px" font-style="normal" font-weight="normal" text-decoration="normal" x="89" y="118" text-anchor="start" dominant-baseline="alphabetic" stroke-opacity="1" stroke-linejoin="bevel" stroke-miterlimit="10" stroke-width="3">1</text><text fill="rgb(0,0,255)" stroke="none" font-family="geogebra-sans-serif, sans-serif" font-size="14px" font-style="normal" font-weight="normal" text-decoration="normal" x="89" y="118" text-anchor="start" dominant-baseline="alphabetic" fill-opacity="1">1</text><path fill="rgb(0,0,255)" stroke="none" paint-order="stroke fill markers" d=" M 199.67894611607431 85.48670747799 C 199.67894611607431 86.59127697765157 198.7835156157359 87.48670747799 197.67894611607431 87.48670747799 C 196.57437661641274 87.48670747799 195.67894611607431 86.59127697765157 195.67894611607431 85.48670747799 C 195.67894611607431 84.3821379783284 196.57437661641274 83.48670747799 197.67894611607431 83.48670747799 C 198.7835156157359 83.48670747799 199.67894611607431 84.3821379783284 199.67894611607431 85.48670747799 Z" fill-opacity="1"/><path fill="none" stroke="rgb(0,0,0)" paint-order="fill stroke markers" d=" M 199.67894611607431 85.48670747799 C 199.67894611607431 86.59127697765157 198.7835156157359 87.48670747799 197.67894611607431 87.48670747799 C 196.57437661641274 87.48670747799 195.67894611607431 86.59127697765157 195.67894611607431 85.48670747799 C 195.67894611607431 84.3821379783284 196.57437661641274 83.48670747799 197.67894611607431 83.48670747799 C 198.7835156157359 83.48670747799 199.67894611607431 84.3821379783284 199.67894611607431 85.48670747799 Z" stroke-opacity="1" stroke-linecap="round" stroke-linejoin="round" stroke-miterlimit="10"/><text fill="rgb(0,0,255)" stroke="none" font-family="geogebra-sans-serif, sans-serif" font-size="16px" font-style="normal" font-weight="normal" text-decoration="normal" x="194" y="72" text-anchor="start" dominant-baseline="alphabetic" fill-opacity="1">B</text><text fill="none" stroke="rgb(255,255,255)" font-family="geogebra-sans-serif, sans-serif" font-size="16px" font-style="normal" font-weight="normal" text-decoration="normal" x="194" y="72" text-anchor="start" dominant-baseline="alphabetic" stroke-opacity="1" stroke-linejoin="bevel" stroke-miterlimit="10" stroke-width="3">B</text><text fill="rgb(0,0,255)" stroke="none" font-family="geogebra-sans-serif, sans-serif" font-size="16px" font-style="normal" font-weight="normal" text-decoration="normal" x="194" y="72" text-anchor="start" dominant-baseline="alphabetic" fill-opacity="1">B</text><text fill="rgb(0,0,255)" stroke="none" font-family="geogebra-sans-serif, sans-serif" font-size="14px" font-style="normal" font-weight="normal" text-decoration="normal" x="205" y="79" text-anchor="start" dominant-baseline="alphabetic" fill-opacity="1">1</text><text fill="none" stroke="rgb(255,255,255)" font-family="geogebra-sans-serif, sans-serif" font-size="14px" font-style="normal" font-weight="normal" text-decoration="normal" x="205" y="79" text-anchor="start" dominant-baseline="alphabetic" stroke-opacity="1" stroke-linejoin="bevel" stroke-miterlimit="10" stroke-width="3">1</text><text fill="rgb(0,0,255)" stroke="none" font-family="geogebra-sans-serif, sans-serif" font-size="14px" font-style="normal" font-weight="normal" text-decoration="normal" x="205" y="79" text-anchor="start" dominant-baseline="alphabetic" fill-opacity="1">1</text><path fill="rgb(0,0,255)" stroke="none" paint-order="stroke fill markers" d=" M 160.53538257499918 85.85083365046509 C 160.53538257499918 86.95540315012667 159.63995207466075 87.85083365046509 158.53538257499918 87.85083365046509 C 157.4308130753376 87.85083365046509 156.53538257499918 86.95540315012667 156.53538257499918 85.85083365046509 C 156.53538257499918 84.7462641508035 157.4308130753376 83.85083365046509 158.53538257499918 83.85083365046509 C 159.63995207466075 83.85083365046509 160.53538257499918 84.7462641508035 160.53538257499918 85.85083365046509 Z" fill-opacity="1"/><path fill="none" stroke="rgb(0,0,0)" paint-order="fill stroke markers" d=" M 160.53538257499918 85.85083365046509 C 160.53538257499918 86.95540315012667 159.63995207466075 87.85083365046509 158.53538257499918 87.85083365046509 C 157.4308130753376 87.85083365046509 156.53538257499918 86.95540315012667 156.53538257499918 85.85083365046509 C 156.53538257499918 84.7462641508035 157.4308130753376 83.85083365046509 158.53538257499918 83.85083365046509 C 159.63995207466075 83.85083365046509 160.53538257499918 84.7462641508035 160.53538257499918 85.85083365046509 Z" stroke-opacity="1" stroke-linecap="round" stroke-linejoin="round" stroke-miterlimit="10"/><text fill="rgb(0,0,255)" stroke="none" font-family="geogebra-sans-serif, sans-serif" font-size="16px" font-style="normal" font-weight="normal" text-decoration="normal" x="144" y="109" text-anchor="start" dominant-baseline="alphabetic" fill-opacity="1">O</text><text fill="none" stroke="rgb(255,255,255)" font-family="geogebra-sans-serif, sans-serif" font-size="16px" font-style="normal" font-weight="normal" text-decoration="normal" x="144" y="109" text-anchor="start" dominant-baseline="alphabetic" stroke-opacity="1" stroke-linejoin="bevel" stroke-miterlimit="10" stroke-width="3">O</text><text fill="rgb(0,0,255)" stroke="none" font-family="geogebra-sans-serif, sans-serif" font-size="16px" font-style="normal" font-weight="normal" text-decoration="normal" x="144" y="109" text-anchor="start" dominant-baseline="alphabetic" fill-opacity="1">O</text></g></g></svg>