<svg version="1.1" xmlns="http://www.w3.org/2000/svg" xmlns:xlink="http://www.w3.org/1999/xlink" width="673" height="507"><defs><clipPath id="JdRByxsqlXTh"><path fill="none" stroke="none" d=" M 0 0 L 673 0 L 673 507 L 0 507 L 0 0 Z"/></clipPath></defs><g transform="scale(1,1)" clip-path="url(#JdRByxsqlXTh)"><g><rect fill="rgb(255,255,255)" stroke="none" x="0" y="0" width="673" height="507" fill-opacity="1"/><path fill="none" stroke="rgb(255,85,0)" paint-order="fill stroke markers" d=" M 440.9999999999999 280.49999999999983 C 440.9999999999999 390.9569499661585 351.45694996615856 480.4999999999999 240.99999999999994 480.4999999999999 C 130.54305003384133 480.4999999999999 41 390.9569499661585 41 280.49999999999983 C 41 170.0430500338411 130.54305003384133 80.49999999999974 240.99999999999994 80.49999999999974 C 351.45694996615856 80.49999999999974 440.9999999999999 170.0430500338411 440.9999999999999 280.49999999999983 Z" stroke-opacity="0.6980392156862745" stroke-linecap="round" stroke-linejoin="round" stroke-miterlimit="10" stroke-width="1.5"/><path fill="none" stroke="rgb(153,51,255)" paint-order="fill stroke markers" d=" M 640.9999999999998 280.49999999999983 C 640.9999999999998 363.34271247461885 573.8427124746188 430.4999999999999 490.9999999999999 430.4999999999999 C 408.1572875253809 430.4999999999999 340.99999999999994 363.34271247461885 340.99999999999994 280.49999999999983 C 340.99999999999994 197.6572875253808 408.1572875253809 130.49999999999977 490.9999999999999 130.49999999999977 C 573.8427124746188 130.49999999999977 640.9999999999998 197.6572875253808 640.9999999999998 280.49999999999983 Z" stroke-opacity="0.6980392156862745" stroke-linecap="round" stroke-linejoin="round" stroke-miterlimit="10" stroke-width="1.5"/><path fill="none" stroke="rgb(0,0,255)" paint-order="fill stroke markers" d=" M 340.9999999999999 130.49999999999977 C 340.9999999999999 185.72847498307914 296.22847498307925 230.49999999999983 240.99999999999994 230.49999999999983 C 185.77152501692063 230.49999999999983 140.99999999999997 185.72847498307914 140.99999999999997 130.49999999999977 C 140.99999999999997 75.2715250169204 185.77152501692063 30.49999999999973 240.99999999999994 30.49999999999973 C 296.22847498307925 30.49999999999973 340.9999999999999 75.2715250169204 340.9999999999999 130.49999999999977 Z" stroke-opacity="0.6980392156862745" stroke-linecap="round" stroke-linejoin="round" stroke-miterlimit="10" stroke-width="1.5"/><g transform="scale(35,35)"><g transform="translate(5.428571428571429,9.540142857142857)"><path fill="rgb(0,0,0)" stroke="none" paint-order="stroke fill markers" d=" M 0.179 -0.115 L 0.527 -0.6990000000000001 Q 0.537 -0.715 0.553 -0.716 Q 0.5680000000000001 -0.716 0.5700000000000001 -0.706 Q 0.5710000000000001 -0.7030000000000001 0.5720000000000001 -0.6920000000000001 L 0.633 -0.067 Q 0.636 -0.042 0.645 -0.037 L 0.646 -0.037 L 0.646 -0.037 L 0.646 -0.037 L 0.646 -0.037 L 0.646 -0.036000000000000004 Q 0.658 -0.031 0.6980000000000001 -0.031 Q 0.72 -0.031 0.721 -0.02 Q 0.721 0 0.7030000000000001 0 L 0.591 -0.003 L 0.59 -0.003 L 0.466 0 L 0.465 0 Q 0.451 0 0.451 -0.011 Q 0.459 -0.03 0.47500000000000003 -0.031 Q 0.547 -0.031 0.547 -0.064 Q 0.547 -0.063 0.531 -0.231 L 0.28 -0.231 L 0.20400000000000001 -0.10300000000000001 Q 0.19 -0.078 0.19 -0.066 Q 0.19 -0.035 0.23700000000000002 -0.031 Q 0.253 -0.031 0.253 -0.019 Q 0.253 0 0.234 0 L 0.138 -0.003 L 0.134 -0.003 L 0.05 0 L 0.048 0 Q 0.035 0 0.035 -0.011 Q 0.035 -0.029 0.05 -0.03 L 0.05 -0.031 L 0.056 -0.031 Q 0.11900000000000001 -0.035 0.159 -0.085 Q 0.169 -0.098 0.179 -0.115 M 0.299 -0.262 L 0.528 -0.262 L 0.496 -0.592 L 0.299 -0.262 Z"/></g></g><g transform="scale(35,35)"><g transform="translate(6.314285714285714,4.483)"><path fill="rgb(0,0,0)" stroke="none" paint-order="stroke fill markers" d=" M 0.16 -0.078 L 0.294 -0.615 Q 0.298 -0.631 0.298 -0.634 Q 0.298 -0.646 0.28200000000000003 -0.649 L 0.281 -0.649 L 0.28 -0.649 Q 0.277 -0.649 0.271 -0.65 Q 0.254 -0.652 0.233 -0.652 Q 0.20700000000000002 -0.652 0.20500000000000002 -0.663 Q 0.20500000000000002 -0.681 0.22 -0.683 L 0.221 -0.683 L 0.222 -0.683 L 0.234 -0.683 L 0.5700000000000001 -0.683 Q 0.685 -0.683 0.734 -0.615 Q 0.756 -0.583 0.756 -0.545 Q 0.756 -0.464 0.666 -0.404 Q 0.665 -0.404 0.664 -0.403 Q 0.611 -0.369 0.547 -0.357 Q 0.649 -0.34500000000000003 0.687 -0.277 Q 0.7020000000000001 -0.249 0.7020000000000001 -0.216 Q 0.7020000000000001 -0.14300000000000002 0.632 -0.079 L 0.631 -0.078 Q 0.545 0 0.426 0 L 0.069 0 Q 0.044 0 0.042 -0.011 Q 0.042 -0.029 0.057 -0.031 L 0.069 -0.031 Q 0.134 -0.031 0.147 -0.045 Q 0.153 -0.052000000000000005 0.159 -0.073 Q 0.159 -0.074 0.16 -0.078 M 0.311 -0.366 L 0.457 -0.366 Q 0.556 -0.366 0.62 -0.438 Q 0.665 -0.489 0.665 -0.549 Q 0.665 -0.622 0.605 -0.644 Q 0.584 -0.652 0.556 -0.652 L 0.427 -0.652 Q 0.391 -0.652 0.383 -0.642 L 0.383 -0.642 L 0.383 -0.641 L 0.382 -0.641 L 0.382 -0.64 Q 0.378 -0.634 0.373 -0.614 L 0.311 -0.366 M 0.266 -0.031 L 0.402 -0.031 Q 0.498 -0.031 0.561 -0.10300000000000001 Q 0.609 -0.159 0.609 -0.227 Q 0.609 -0.3 0.557 -0.33 Q 0.531 -0.34400000000000003 0.494 -0.34400000000000003 L 0.305 -0.34400000000000003 L 0.23600000000000002 -0.065 Q 0.231 -0.047 0.231 -0.042 Q 0.231 -0.034 0.24 -0.032 L 0.24 -0.032 L 0.24 -0.032 L 0.244 -0.032 Q 0.25 -0.031 0.266 -0.031 Z"/></g></g><g transform="scale(35,35)"><g transform="translate(10.914285714285715,8.083)"><path fill="rgb(0,0,0)" stroke="none" paint-order="stroke fill markers" d=" M 0.76 -0.6950000000000001 L 0.6970000000000001 -0.44 Q 0.6920000000000001 -0.422 0.687 -0.421 L 0.686 -0.42 L 0.679 -0.42 Q 0.664 -0.42 0.664 -0.43 L 0.667 -0.47900000000000004 L 0.667 -0.481 Q 0.667 -0.605 0.589 -0.652 L 0.588 -0.653 Q 0.553 -0.674 0.506 -0.674 Q 0.4 -0.674 0.305 -0.595 Q 0.281 -0.5760000000000001 0.262 -0.553 Q 0.167 -0.442 0.145 -0.271 Q 0.14100000000000001 -0.24 0.14100000000000001 -0.217 Q 0.14100000000000001 -0.077 0.247 -0.028 Q 0.28800000000000003 -0.009000000000000001 0.337 -0.009000000000000001 Q 0.431 -0.009000000000000001 0.521 -0.082 Q 0.591 -0.14100000000000001 0.622 -0.24 Q 0.624 -0.25 0.635 -0.25 Q 0.647 -0.25 0.647 -0.24 Q 0.647 -0.222 0.624 -0.176 Q 0.593 -0.113 0.537 -0.064 Q 0.438 0.022 0.321 0.022 Q 0.193 0.022 0.116 -0.066 Q 0.05 -0.14100000000000001 0.05 -0.252 Q 0.05 -0.401 0.159 -0.531 Q 0.26 -0.652 0.398 -0.6910000000000001 Q 0.449 -0.705 0.498 -0.705 Q 0.607 -0.705 0.664 -0.616 L 0.734 -0.6930000000000001 Q 0.746 -0.705 0.749 -0.705 Q 0.76 -0.705 0.76 -0.6950000000000001 Z"/></g></g></g></g></svg>