<svg version="1.1" xmlns="http://www.w3.org/2000/svg" xmlns:xlink="http://www.w3.org/1999/xlink" width="480" height="523"><defs><clipPath id="viliQwreomeH"><path fill="none" stroke="none" d=" M 0 0 L 480 0 L 480 523 L 0 523 L 0 0 Z"/></clipPath></defs><g transform="scale(1,1)" clip-path="url(#viliQwreomeH)"><g><rect fill="rgb(255,255,255)" stroke="none" x="0" y="0" width="480" height="523" fill-opacity="1"/><path fill="none" stroke="rgb(0,153,255)" paint-order="fill stroke markers" d=" M 464.6638330264453 264.21428571428544 C 464.6638330264453 387.7404097834922 364.5261240692067 487.87811874073094 241.00000000000009 487.87811874073094 C 117.47387593079347 487.87811874073094 17.336166973554896 387.7404097834922 17.336166973554896 264.21428571428544 C 17.336166973554896 140.68816164507865 117.47387593079347 40.550452687839936 241.00000000000009 40.550452687839936 C 364.5261240692067 40.550452687839936 464.6638330264453 140.68816164507865 464.6638330264453 264.21428571428544 Z" stroke-opacity="0.6980392156862745" stroke-linecap="round" stroke-linejoin="round" stroke-miterlimit="10" stroke-width="0.5"/><path fill="none" stroke="rgb(255,127,0)" paint-order="fill stroke markers" d=" M 315.3319165132227 298.1428571428569 C 315.3319165132227 359.9059191774603 265.2630620346034 409.9747736560796 203.5000000000001 409.9747736560796 C 141.7369379653968 409.9747736560796 91.66808348677752 359.9059191774603 91.66808348677752 298.1428571428569 C 91.66808348677752 236.3797951082535 141.7369379653968 186.31094062963413 203.5000000000001 186.31094062963413 C 265.2630620346034 186.31094062963413 315.3319165132227 236.3797951082535 315.3319165132227 298.1428571428569 Z" stroke-opacity="0.6980392156862745" stroke-linejoin="round" stroke-miterlimit="10" stroke-dasharray="9,8"/><path fill="rgb(255,0,0)" stroke="none" paint-order="stroke fill markers" fill-rule="evenodd" d=" M 180.14703222225177 51.0573644921505 L 183.15476621881893 68.4772822935023 L 200.57468402017207 65.4695482969361 L 197.56695002360354 48.04963049558334 L 180.14703222225177 51.0573644921505" fill-opacity="0.09803921568627451"/><path fill="none" stroke="rgb(255,0,0)" paint-order="fill stroke markers" d=" M 180.14703222225177 51.0573644921505 L 183.15476621881893 68.4772822935023 L 200.57468402017207 65.4695482969361 L 197.56695002360354 48.04963049558334 L 180.14703222225177 51.0573644921505" stroke-opacity="0.6980392156862745" stroke-linejoin="round" stroke-miterlimit="10" stroke-dasharray="9,8"/><path fill="none" stroke="rgb(0,100,0)" paint-order="fill stroke markers" d=" M 166.0000000000001 53.4999999999996 L 66.00000000000023 403.4999999999998" stroke-opacity="0.6980392156862745" stroke-linecap="round" stroke-linejoin="round" stroke-miterlimit="10" stroke-width="0.5"/><path fill="none" stroke="rgb(0,100,0)" paint-order="fill stroke markers" d=" M 66.00000000000023 403.4999999999998 L 415.99999999999994 403.4999999999998" stroke-opacity="0.6980392156862745" stroke-linecap="round" stroke-linejoin="round" stroke-miterlimit="10" stroke-width="0.5"/><path fill="none" stroke="rgb(0,100,0)" paint-order="fill stroke markers" d=" M 415.99999999999994 403.4999999999998 L 166.0000000000001 53.4999999999996" stroke-opacity="0.6980392156862745" stroke-linecap="round" stroke-linejoin="round" stroke-miterlimit="10" stroke-width="0.5"/><path fill="none" stroke="rgb(0,100,0)" paint-order="fill stroke markers" d=" M 241.00000000000009 319.12188125926866 L 166.0000000000001 53.4999999999996" stroke-opacity="0.6980392156862745" stroke-linecap="round" stroke-linejoin="round" stroke-miterlimit="10" stroke-width="0.5"/><path fill="none" stroke="rgb(153,51,255)" paint-order="fill stroke markers" d=" M 166.0000000000001 53.4999999999996 L 241.00000000000009 40.550452687839936" stroke-opacity="0.6980392156862745" stroke-linecap="round" stroke-linejoin="round" stroke-miterlimit="10" stroke-width="0.5"/><path fill="none" stroke="rgb(153,51,255)" paint-order="fill stroke markers" d=" M 176.6930652606295 31.052995545722638 L 259.2673497893534 509.29916047837577" stroke-opacity="0.6980392156862745" stroke-linecap="round" stroke-linejoin="round" stroke-miterlimit="10" stroke-width="0.5"/><path fill="none" stroke="rgb(0,100,0)" paint-order="fill stroke markers" d=" M 241.00000000000009 40.550452687839936 L 241.00000000000009 487.87811874073094" stroke-opacity="0.6980392156862745" stroke-linecap="round" stroke-linejoin="round" stroke-miterlimit="10" stroke-width="0.5"/><path fill="rgb(0,0,255)" stroke="none" paint-order="stroke fill markers" d=" M 168.0000000000001 53.4999999999996 C 168.0000000000001 54.60456949966119 167.1045694996617 55.4999999999996 166.0000000000001 55.4999999999996 C 164.89543050033853 55.4999999999996 164.0000000000001 54.60456949966119 164.0000000000001 53.4999999999996 C 164.0000000000001 52.395430500338016 164.89543050033853 51.4999999999996 166.0000000000001 51.4999999999996 C 167.1045694996617 51.4999999999996 168.0000000000001 52.395430500338016 168.0000000000001 53.4999999999996 Z" fill-opacity="1"/><path fill="none" stroke="rgb(0,0,0)" paint-order="fill stroke markers" d=" M 168.0000000000001 53.4999999999996 C 168.0000000000001 54.60456949966119 167.1045694996617 55.4999999999996 166.0000000000001 55.4999999999996 C 164.89543050033853 55.4999999999996 164.0000000000001 54.60456949966119 164.0000000000001 53.4999999999996 C 164.0000000000001 52.395430500338016 164.89543050033853 51.4999999999996 166.0000000000001 51.4999999999996 C 167.1045694996617 51.4999999999996 168.0000000000001 52.395430500338016 168.0000000000001 53.4999999999996 Z" stroke-opacity="1" stroke-linecap="round" stroke-linejoin="round" stroke-miterlimit="10"/><text fill="rgb(0,0,255)" stroke="none" font-family="geogebra-sans-serif, sans-serif" font-size="16px" font-style="normal" font-weight="normal" text-decoration="normal" x="149" y="44" text-anchor="start" dominant-baseline="alphabetic" fill-opacity="1">A</text><text fill="none" stroke="rgb(255,255,255)" font-family="geogebra-sans-serif, sans-serif" font-size="16px" font-style="normal" font-weight="normal" text-decoration="normal" x="149" y="44" text-anchor="start" dominant-baseline="alphabetic" stroke-opacity="1" stroke-linejoin="bevel" stroke-miterlimit="10" stroke-width="3">A</text><text fill="rgb(0,0,255)" stroke="none" font-family="geogebra-sans-serif, sans-serif" font-size="16px" font-style="normal" font-weight="normal" text-decoration="normal" x="149" y="44" text-anchor="start" dominant-baseline="alphabetic" fill-opacity="1">A</text><path fill="rgb(0,0,255)" stroke="none" paint-order="stroke fill markers" d=" M 68.00000000000023 403.4999999999998 C 68.00000000000023 404.60456949966135 67.1045694996618 405.4999999999998 66.00000000000023 405.4999999999998 C 64.89543050033863 405.4999999999998 64.00000000000023 404.60456949966135 64.00000000000023 403.4999999999998 C 64.00000000000023 402.3954305003382 64.89543050033863 401.4999999999998 66.00000000000023 401.4999999999998 C 67.1045694996618 401.4999999999998 68.00000000000023 402.3954305003382 68.00000000000023 403.4999999999998 Z" fill-opacity="1"/><path fill="none" stroke="rgb(0,0,0)" paint-order="fill stroke markers" d=" M 68.00000000000023 403.4999999999998 C 68.00000000000023 404.60456949966135 67.1045694996618 405.4999999999998 66.00000000000023 405.4999999999998 C 64.89543050033863 405.4999999999998 64.00000000000023 404.60456949966135 64.00000000000023 403.4999999999998 C 64.00000000000023 402.3954305003382 64.89543050033863 401.4999999999998 66.00000000000023 401.4999999999998 C 67.1045694996618 401.4999999999998 68.00000000000023 402.3954305003382 68.00000000000023 403.4999999999998 Z" stroke-opacity="1" stroke-linecap="round" stroke-linejoin="round" stroke-miterlimit="10"/><text fill="rgb(0,0,255)" stroke="none" font-family="geogebra-sans-serif, sans-serif" font-size="16px" font-style="normal" font-weight="normal" text-decoration="normal" x="39" y="415" text-anchor="start" dominant-baseline="alphabetic" fill-opacity="1">B</text><text fill="none" stroke="rgb(255,255,255)" font-family="geogebra-sans-serif, sans-serif" font-size="16px" font-style="normal" font-weight="normal" text-decoration="normal" x="39" y="415" text-anchor="start" dominant-baseline="alphabetic" stroke-opacity="1" stroke-linejoin="bevel" stroke-miterlimit="10" stroke-width="3">B</text><text fill="rgb(0,0,255)" stroke="none" font-family="geogebra-sans-serif, sans-serif" font-size="16px" font-style="normal" font-weight="normal" text-decoration="normal" x="39" y="415" text-anchor="start" dominant-baseline="alphabetic" fill-opacity="1">B</text><path fill="rgb(0,0,255)" stroke="none" paint-order="stroke fill markers" d=" M 417.99999999999994 403.4999999999998 C 417.99999999999994 404.60456949966135 417.1045694996615 405.4999999999998 415.99999999999994 405.4999999999998 C 414.89543050033836 405.4999999999998 413.99999999999994 404.60456949966135 413.99999999999994 403.4999999999998 C 413.99999999999994 402.3954305003382 414.89543050033836 401.4999999999998 415.99999999999994 401.4999999999998 C 417.1045694996615 401.4999999999998 417.99999999999994 402.3954305003382 417.99999999999994 403.4999999999998 Z" fill-opacity="1"/><path fill="none" stroke="rgb(0,0,0)" paint-order="fill stroke markers" d=" M 417.99999999999994 403.4999999999998 C 417.99999999999994 404.60456949966135 417.1045694996615 405.4999999999998 415.99999999999994 405.4999999999998 C 414.89543050033836 405.4999999999998 413.99999999999994 404.60456949966135 413.99999999999994 403.4999999999998 C 413.99999999999994 402.3954305003382 414.89543050033836 401.4999999999998 415.99999999999994 401.4999999999998 C 417.1045694996615 401.4999999999998 417.99999999999994 402.3954305003382 417.99999999999994 403.4999999999998 Z" stroke-opacity="1" stroke-linecap="round" stroke-linejoin="round" stroke-miterlimit="10"/><text fill="rgb(0,0,255)" stroke="none" font-family="geogebra-sans-serif, sans-serif" font-size="16px" font-style="normal" font-weight="normal" text-decoration="normal" x="426" y="420" text-anchor="start" dominant-baseline="alphabetic" fill-opacity="1">C</text><text fill="none" stroke="rgb(255,255,255)" font-family="geogebra-sans-serif, sans-serif" font-size="16px" font-style="normal" font-weight="normal" text-decoration="normal" x="426" y="420" text-anchor="start" dominant-baseline="alphabetic" stroke-opacity="1" stroke-linejoin="bevel" stroke-miterlimit="10" stroke-width="3">C</text><text fill="rgb(0,0,255)" stroke="none" font-family="geogebra-sans-serif, sans-serif" font-size="16px" font-style="normal" font-weight="normal" text-decoration="normal" x="426" y="420" text-anchor="start" dominant-baseline="alphabetic" fill-opacity="1">C</text><path fill="rgb(0,0,255)" stroke="none" paint-order="stroke fill markers" d=" M 243.00000000000009 487.87811874073094 C 243.00000000000009 488.9826882403925 242.10456949966166 489.87811874073094 241.00000000000009 489.87811874073094 C 239.8954305003385 489.87811874073094 239.00000000000009 488.9826882403925 239.00000000000009 487.87811874073094 C 239.00000000000009 486.77354924106936 239.8954305003385 485.87811874073094 241.00000000000009 485.87811874073094 C 242.10456949966166 485.87811874073094 243.00000000000009 486.77354924106936 243.00000000000009 487.87811874073094 Z" fill-opacity="1"/><path fill="none" stroke="rgb(0,0,0)" paint-order="fill stroke markers" d=" M 243.00000000000009 487.87811874073094 C 243.00000000000009 488.9826882403925 242.10456949966166 489.87811874073094 241.00000000000009 489.87811874073094 C 239.8954305003385 489.87811874073094 239.00000000000009 488.9826882403925 239.00000000000009 487.87811874073094 C 239.00000000000009 486.77354924106936 239.8954305003385 485.87811874073094 241.00000000000009 485.87811874073094 C 242.10456949966166 485.87811874073094 243.00000000000009 486.77354924106936 243.00000000000009 487.87811874073094 Z" stroke-opacity="1" stroke-linecap="round" stroke-linejoin="round" stroke-miterlimit="10"/><text fill="rgb(0,0,255)" stroke="none" font-family="geogebra-sans-serif, sans-serif" font-size="16px" font-style="normal" font-weight="normal" text-decoration="normal" x="236" y="512" text-anchor="start" dominant-baseline="alphabetic" fill-opacity="1">D</text><text fill="none" stroke="rgb(255,255,255)" font-family="geogebra-sans-serif, sans-serif" font-size="16px" font-style="normal" font-weight="normal" text-decoration="normal" x="236" y="512" text-anchor="start" dominant-baseline="alphabetic" stroke-opacity="1" stroke-linejoin="bevel" stroke-miterlimit="10" stroke-width="3">D</text><text fill="rgb(0,0,255)" stroke="none" font-family="geogebra-sans-serif, sans-serif" font-size="16px" font-style="normal" font-weight="normal" text-decoration="normal" x="236" y="512" text-anchor="start" dominant-baseline="alphabetic" fill-opacity="1">D</text><path fill="rgb(0,0,255)" stroke="none" paint-order="stroke fill markers" d=" M 243.00000000000009 319.12188125926866 C 243.00000000000009 320.22645075893024 242.10456949966166 321.12188125926866 241.00000000000009 321.12188125926866 C 239.8954305003385 321.12188125926866 239.00000000000009 320.22645075893024 239.00000000000009 319.12188125926866 C 239.00000000000009 318.0173117596071 239.8954305003385 317.12188125926866 241.00000000000009 317.12188125926866 C 242.10456949966166 317.12188125926866 243.00000000000009 318.0173117596071 243.00000000000009 319.12188125926866 Z" fill-opacity="1"/><path fill="none" stroke="rgb(0,0,0)" paint-order="fill stroke markers" d=" M 243.00000000000009 319.12188125926866 C 243.00000000000009 320.22645075893024 242.10456949966166 321.12188125926866 241.00000000000009 321.12188125926866 C 239.8954305003385 321.12188125926866 239.00000000000009 320.22645075893024 239.00000000000009 319.12188125926866 C 239.00000000000009 318.0173117596071 239.8954305003385 317.12188125926866 241.00000000000009 317.12188125926866 C 242.10456949966166 317.12188125926866 243.00000000000009 318.0173117596071 243.00000000000009 319.12188125926866 Z" stroke-opacity="1" stroke-linecap="round" stroke-linejoin="round" stroke-miterlimit="10"/><text fill="rgb(0,0,255)" stroke="none" font-family="geogebra-sans-serif, sans-serif" font-size="16px" font-style="normal" font-weight="normal" text-decoration="normal" x="253" y="326" text-anchor="start" dominant-baseline="alphabetic" fill-opacity="1">E</text><text fill="none" stroke="rgb(255,255,255)" font-family="geogebra-sans-serif, sans-serif" font-size="16px" font-style="normal" font-weight="normal" text-decoration="normal" x="253" y="326" text-anchor="start" dominant-baseline="alphabetic" stroke-opacity="1" stroke-linejoin="bevel" stroke-miterlimit="10" stroke-width="3">E</text><text fill="rgb(0,0,255)" stroke="none" font-family="geogebra-sans-serif, sans-serif" font-size="16px" font-style="normal" font-weight="normal" text-decoration="normal" x="253" y="326" text-anchor="start" dominant-baseline="alphabetic" fill-opacity="1">E</text><path fill="rgb(0,0,255)" stroke="none" paint-order="stroke fill markers" d=" M 243.00000000000009 40.550452687839936 C 243.00000000000009 41.65502218750152 242.10456949966166 42.550452687839936 241.00000000000009 42.550452687839936 C 239.8954305003385 42.550452687839936 239.00000000000009 41.65502218750152 239.00000000000009 40.550452687839936 C 239.00000000000009 39.44588318817835 239.8954305003385 38.550452687839936 241.00000000000009 38.550452687839936 C 242.10456949966166 38.550452687839936 243.00000000000009 39.44588318817835 243.00000000000009 40.550452687839936 Z" fill-opacity="1"/><path fill="none" stroke="rgb(0,0,0)" paint-order="fill stroke markers" d=" M 243.00000000000009 40.550452687839936 C 243.00000000000009 41.65502218750152 242.10456949966166 42.550452687839936 241.00000000000009 42.550452687839936 C 239.8954305003385 42.550452687839936 239.00000000000009 41.65502218750152 239.00000000000009 40.550452687839936 C 239.00000000000009 39.44588318817835 239.8954305003385 38.550452687839936 241.00000000000009 38.550452687839936 C 242.10456949966166 38.550452687839936 243.00000000000009 39.44588318817835 243.00000000000009 40.550452687839936 Z" stroke-opacity="1" stroke-linecap="round" stroke-linejoin="round" stroke-miterlimit="10"/><text fill="rgb(0,0,255)" stroke="none" font-family="geogebra-sans-serif, sans-serif" font-size="16px" font-style="normal" font-weight="normal" text-decoration="normal" x="238" y="29" text-anchor="start" dominant-baseline="alphabetic" fill-opacity="1">F</text><text fill="none" stroke="rgb(255,255,255)" font-family="geogebra-sans-serif, sans-serif" font-size="16px" font-style="normal" font-weight="normal" text-decoration="normal" x="238" y="29" text-anchor="start" dominant-baseline="alphabetic" stroke-opacity="1" stroke-linejoin="bevel" stroke-miterlimit="10" stroke-width="3">F</text><text fill="rgb(0,0,255)" stroke="none" font-family="geogebra-sans-serif, sans-serif" font-size="16px" font-style="normal" font-weight="normal" text-decoration="normal" x="238" y="29" text-anchor="start" dominant-baseline="alphabetic" fill-opacity="1">F</text><path fill="rgb(0,0,255)" stroke="none" paint-order="stroke fill markers" d=" M 205.5000000000001 186.31094062963416 C 205.5000000000001 187.41551012929574 204.6045694996617 188.31094062963416 203.5000000000001 188.31094062963416 C 202.39543050033853 188.31094062963416 201.5000000000001 187.41551012929574 201.5000000000001 186.31094062963416 C 201.5000000000001 185.20637112997258 202.39543050033853 184.31094062963416 203.5000000000001 184.31094062963416 C 204.6045694996617 184.31094062963416 205.5000000000001 185.20637112997258 205.5000000000001 186.31094062963416 Z" fill-opacity="1"/><path fill="none" stroke="rgb(0,0,0)" paint-order="fill stroke markers" d=" M 205.5000000000001 186.31094062963416 C 205.5000000000001 187.41551012929574 204.6045694996617 188.31094062963416 203.5000000000001 188.31094062963416 C 202.39543050033853 188.31094062963416 201.5000000000001 187.41551012929574 201.5000000000001 186.31094062963416 C 201.5000000000001 185.20637112997258 202.39543050033853 184.31094062963416 203.5000000000001 184.31094062963416 C 204.6045694996617 184.31094062963416 205.5000000000001 185.20637112997258 205.5000000000001 186.31094062963416 Z" stroke-opacity="1" stroke-linecap="round" stroke-linejoin="round" stroke-miterlimit="10"/><text fill="rgb(0,0,255)" stroke="none" font-family="geogebra-sans-serif, sans-serif" font-size="16px" font-style="normal" font-weight="normal" text-decoration="normal" x="175" y="177" text-anchor="start" dominant-baseline="alphabetic" fill-opacity="1">K</text><text fill="none" stroke="rgb(255,255,255)" font-family="geogebra-sans-serif, sans-serif" font-size="16px" font-style="normal" font-weight="normal" text-decoration="normal" x="175" y="177" text-anchor="start" dominant-baseline="alphabetic" stroke-opacity="1" stroke-linejoin="bevel" stroke-miterlimit="10" stroke-width="3">K</text><text fill="rgb(0,0,255)" stroke="none" font-family="geogebra-sans-serif, sans-serif" font-size="16px" font-style="normal" font-weight="normal" text-decoration="normal" x="175" y="177" text-anchor="start" dominant-baseline="alphabetic" fill-opacity="1">K</text><path fill="rgb(0,0,255)" stroke="none" paint-order="stroke fill markers" d=" M 243.00000000000009 403.4999999999998 C 243.00000000000009 404.60456949966135 242.10456949966166 405.4999999999998 241.00000000000009 405.4999999999998 C 239.8954305003385 405.4999999999998 239.00000000000009 404.60456949966135 239.00000000000009 403.4999999999998 C 239.00000000000009 402.3954305003382 239.8954305003385 401.4999999999998 241.00000000000009 401.4999999999998 C 242.10456949966166 401.4999999999998 243.00000000000009 402.3954305003382 243.00000000000009 403.4999999999998 Z" fill-opacity="1"/><path fill="none" stroke="rgb(0,0,0)" paint-order="fill stroke markers" d=" M 243.00000000000009 403.4999999999998 C 243.00000000000009 404.60456949966135 242.10456949966166 405.4999999999998 241.00000000000009 405.4999999999998 C 239.8954305003385 405.4999999999998 239.00000000000009 404.60456949966135 239.00000000000009 403.4999999999998 C 239.00000000000009 402.3954305003382 239.8954305003385 401.4999999999998 241.00000000000009 401.4999999999998 C 242.10456949966166 401.4999999999998 243.00000000000009 402.3954305003382 243.00000000000009 403.4999999999998 Z" stroke-opacity="1" stroke-linecap="round" stroke-linejoin="round" stroke-miterlimit="10"/><text fill="rgb(0,0,255)" stroke="none" font-family="geogebra-sans-serif, sans-serif" font-size="16px" font-style="normal" font-weight="normal" text-decoration="normal" x="255" y="423" text-anchor="start" dominant-baseline="alphabetic" fill-opacity="1">M</text><text fill="none" stroke="rgb(255,255,255)" font-family="geogebra-sans-serif, sans-serif" font-size="16px" font-style="normal" font-weight="normal" text-decoration="normal" x="255" y="423" text-anchor="start" dominant-baseline="alphabetic" stroke-opacity="1" stroke-linejoin="bevel" stroke-miterlimit="10" stroke-width="3">M</text><text fill="rgb(0,0,255)" stroke="none" font-family="geogebra-sans-serif, sans-serif" font-size="16px" font-style="normal" font-weight="normal" text-decoration="normal" x="255" y="423" text-anchor="start" dominant-baseline="alphabetic" fill-opacity="1">M</text><path fill="rgb(0,0,255)" stroke="none" paint-order="stroke fill markers" d=" M 293 228.49999999999972 C 293 229.6045694996613 292.1045694996616 230.49999999999972 291 230.49999999999972 C 289.8954305003384 230.49999999999972 289 229.6045694996613 289 228.49999999999972 C 289 227.39543050033814 289.8954305003384 226.49999999999972 291 226.49999999999972 C 292.1045694996616 226.49999999999972 293 227.39543050033814 293 228.49999999999972 Z" fill-opacity="1"/><path fill="none" stroke="rgb(0,0,0)" paint-order="fill stroke markers" d=" M 293 228.49999999999972 C 293 229.6045694996613 292.1045694996616 230.49999999999972 291 230.49999999999972 C 289.8954305003384 230.49999999999972 289 229.6045694996613 289 228.49999999999972 C 289 227.39543050033814 289.8954305003384 226.49999999999972 291 226.49999999999972 C 292.1045694996616 226.49999999999972 293 227.39543050033814 293 228.49999999999972 Z" stroke-opacity="1" stroke-linecap="round" stroke-linejoin="round" stroke-miterlimit="10"/><text fill="rgb(0,0,255)" stroke="none" font-family="geogebra-sans-serif, sans-serif" font-size="16px" font-style="normal" font-weight="normal" text-decoration="normal" x="300" y="222" text-anchor="start" dominant-baseline="alphabetic" fill-opacity="1">N</text><text fill="none" stroke="rgb(255,255,255)" font-family="geogebra-sans-serif, sans-serif" font-size="16px" font-style="normal" font-weight="normal" text-decoration="normal" x="300" y="222" text-anchor="start" dominant-baseline="alphabetic" stroke-opacity="1" stroke-linejoin="bevel" stroke-miterlimit="10" stroke-width="3">N</text><text fill="rgb(0,0,255)" stroke="none" font-family="geogebra-sans-serif, sans-serif" font-size="16px" font-style="normal" font-weight="normal" text-decoration="normal" x="300" y="222" text-anchor="start" dominant-baseline="alphabetic" fill-opacity="1">N</text><path fill="rgb(0,0,255)" stroke="none" paint-order="stroke fill markers" d=" M 118.00000000000017 228.49999999999972 C 118.00000000000017 229.6045694996613 117.10456949966175 230.49999999999972 116.00000000000017 230.49999999999972 C 114.89543050033858 230.49999999999972 114.00000000000017 229.6045694996613 114.00000000000017 228.49999999999972 C 114.00000000000017 227.39543050033814 114.89543050033858 226.49999999999972 116.00000000000017 226.49999999999972 C 117.10456949966175 226.49999999999972 118.00000000000017 227.39543050033814 118.00000000000017 228.49999999999972 Z" fill-opacity="1"/><path fill="none" stroke="rgb(0,0,0)" paint-order="fill stroke markers" d=" M 118.00000000000017 228.49999999999972 C 118.00000000000017 229.6045694996613 117.10456949966175 230.49999999999972 116.00000000000017 230.49999999999972 C 114.89543050033858 230.49999999999972 114.00000000000017 229.6045694996613 114.00000000000017 228.49999999999972 C 114.00000000000017 227.39543050033814 114.89543050033858 226.49999999999972 116.00000000000017 226.49999999999972 C 117.10456949966175 226.49999999999972 118.00000000000017 227.39543050033814 118.00000000000017 228.49999999999972 Z" stroke-opacity="1" stroke-linecap="round" stroke-linejoin="round" stroke-miterlimit="10"/><text fill="rgb(0,0,255)" stroke="none" font-family="geogebra-sans-serif, sans-serif" font-size="16px" font-style="normal" font-weight="normal" text-decoration="normal" x="99" y="221" text-anchor="start" dominant-baseline="alphabetic" fill-opacity="1">L</text><text fill="none" stroke="rgb(255,255,255)" font-family="geogebra-sans-serif, sans-serif" font-size="16px" font-style="normal" font-weight="normal" text-decoration="normal" x="99" y="221" text-anchor="start" dominant-baseline="alphabetic" stroke-opacity="1" stroke-linejoin="bevel" stroke-miterlimit="10" stroke-width="3">L</text><text fill="rgb(0,0,255)" stroke="none" font-family="geogebra-sans-serif, sans-serif" font-size="16px" font-style="normal" font-weight="normal" text-decoration="normal" x="99" y="221" text-anchor="start" dominant-baseline="alphabetic" fill-opacity="1">L</text></g></g></svg>