<svg version="1.1" xmlns="http://www.w3.org/2000/svg" xmlns:xlink="http://www.w3.org/1999/xlink" width="575" height="504"><defs><clipPath id="NVdkOTvCsQpA"><path fill="none" stroke="none" d=" M 0 0 L 575 0 L 575 504 L 0 504 L 0 0 Z"/></clipPath></defs><g transform="scale(1,1)" clip-path="url(#NVdkOTvCsQpA)"><g><rect fill="rgb(255,255,255)" stroke="none" x="0" y="0" width="575" height="504" fill-opacity="1"/><path fill="rgb(255,85,0)" stroke="none" paint-order="stroke fill markers" fill-rule="evenodd" d=" M 81.02055103485324 288.5493804433602 L 287.1755641559533 437.9145220254402 L 508 263 L 490 190.99999999999997 L 198.49001134159326 108.06650103168022 L 91.13381582947324 197.52999729178018 Z" fill-opacity="0.047058823529411764"/><path fill="none" stroke="rgb(255,127,0)" paint-order="fill stroke markers" d=" M 344.2490861022524 317.7222596586102 C 344.2490861022524 403.37852941412496 274.810959748228 472.81665576814936 189.15468999271326 472.81665576814936 C 103.49842023719846 472.81665576814936 34.0602938831741 403.37852941412496 34.0602938831741 317.7222596586102 C 34.0602938831741 232.06598990309539 103.49842023719846 162.62786354907104 189.15468999271326 162.62786354907104 C 274.810959748228 162.62786354907104 344.2490861022524 232.06598990309539 344.2490861022524 317.7222596586102 Z" stroke-opacity="0.6980392156862745" stroke-linejoin="round" stroke-miterlimit="10" stroke-width="1.5" stroke-dasharray="1.5,3"/><path fill="none" stroke="rgb(255,127,0)" paint-order="fill stroke markers" d=" M 526.3062825223019 185.5332505158401 C 526.3062825223019 281.11235450717135 448.8241096621279 358.5945273673454 353.2450056707967 358.5945273673454 C 257.6659016794654 358.5945273673454 180.1837288192914 281.11235450717135 180.1837288192914 185.5332505158401 C 180.1837288192914 89.95414652450884 257.6659016794654 12.471973664334826 353.2450056707967 12.471973664334826 C 448.8241096621279 12.471973664334826 526.3062825223019 89.95414652450884 526.3062825223019 185.5332505158401 Z" stroke-opacity="0.6980392156862745" stroke-linejoin="round" stroke-miterlimit="10" stroke-width="1.5" stroke-dasharray="1.5,3"/><path fill="none" stroke="rgb(255,85,0)" paint-order="fill stroke markers" d=" M 81.02055103485324 288.5493804433602 L 287.1755641559533 437.9145220254402" stroke-opacity="0.6980392156862745" stroke-linecap="round" stroke-linejoin="round" stroke-miterlimit="10" stroke-width="1.5"/><path fill="none" stroke="rgb(255,85,0)" paint-order="fill stroke markers" d=" M 287.1755641559533 437.9145220254402 L 508 263" stroke-opacity="0.6980392156862745" stroke-linecap="round" stroke-linejoin="round" stroke-miterlimit="10" stroke-width="1.5"/><path fill="none" stroke="rgb(255,85,0)" paint-order="fill stroke markers" d=" M 508 263 L 490 190.99999999999997" stroke-opacity="0.6980392156862745" stroke-linecap="round" stroke-linejoin="round" stroke-miterlimit="10" stroke-width="1.5"/><path fill="none" stroke="rgb(255,85,0)" paint-order="fill stroke markers" d=" M 490 190.99999999999997 L 198.49001134159326 108.06650103168022" stroke-opacity="0.6980392156862745" stroke-linecap="round" stroke-linejoin="round" stroke-miterlimit="10" stroke-width="1.5"/><path fill="none" stroke="rgb(255,85,0)" paint-order="fill stroke markers" d=" M 198.49001134159326 108.06650103168022 L 91.13381582947324 197.52999729178018" stroke-opacity="0.6980392156862745" stroke-linecap="round" stroke-linejoin="round" stroke-miterlimit="10" stroke-width="1.5"/><path fill="none" stroke="rgb(255,85,0)" paint-order="fill stroke markers" d=" M 91.13381582947324 197.52999729178018 L 81.02055103485324 288.5493804433602" stroke-opacity="0.6980392156862745" stroke-linecap="round" stroke-linejoin="round" stroke-miterlimit="10" stroke-width="1.5"/><path fill="none" stroke="rgb(0,100,0)" paint-order="fill stroke markers" d=" M 287.1755641559533 437.9145220254402 L 91.13381582947324 197.52999729178018" stroke-opacity="0.6980392156862745" stroke-linecap="round" stroke-linejoin="round" stroke-miterlimit="10" stroke-width="2.5"/><path fill="none" stroke="rgb(0,100,0)" paint-order="fill stroke markers" d=" M 508 263 L 198.49001134159326 108.06650103168022" stroke-opacity="0.6980392156862745" stroke-linecap="round" stroke-linejoin="round" stroke-miterlimit="10" stroke-width="2.5"/><path fill="none" stroke="rgb(0,100,0)" paint-order="fill stroke markers" d=" M 81.02055103485324 288.5493804433602 L 490 190.99999999999997" stroke-opacity="0.6980392156862745" stroke-linecap="round" stroke-linejoin="round" stroke-miterlimit="10" stroke-width="2.5"/><path fill="none" stroke="rgb(0,100,0)" paint-order="fill stroke markers" d=" M 287.1755641559533 437.9145220254402 L 198.49001134159326 108.06650103168022" stroke-opacity="0.6980392156862745" stroke-linecap="round" stroke-linejoin="round" stroke-miterlimit="10" stroke-width="2.5"/><path fill="none" stroke="rgb(255,127,0)" paint-order="fill stroke markers" d=" M 81.02055103485324 288.5493804433602 L 189.15468999271326 317.7222596586102" stroke-opacity="0.6980392156862745" stroke-linejoin="round" stroke-miterlimit="10" stroke-width="2.5" stroke-dasharray="6.5,4"/><path fill="none" stroke="rgb(255,127,0)" paint-order="fill stroke markers" d=" M 189.15468999271326 317.7222596586102 L 242.83278774877328 272.9905115285602" stroke-opacity="0.6980392156862745" stroke-linejoin="round" stroke-miterlimit="10" stroke-width="2.5" stroke-dasharray="6.5,4"/><path fill="none" stroke="rgb(255,127,0)" paint-order="fill stroke markers" d=" M 242.83278774877328 272.9905115285602 L 353.2450056707967 185.5332505158401" stroke-opacity="0.6980392156862745" stroke-linejoin="round" stroke-miterlimit="10" stroke-width="2.5" stroke-dasharray="6.5,4"/><path fill="none" stroke="rgb(255,127,0)" paint-order="fill stroke markers" d=" M 353.2450056707967 185.5332505158401 L 490 190.99999999999997" stroke-opacity="0.6980392156862745" stroke-linejoin="round" stroke-miterlimit="10" stroke-width="2.5" stroke-dasharray="6.5,4"/><path fill="rgb(77,77,255)" stroke="none" paint-order="stroke fill markers" d=" M 86.02055103485324 288.5493804433602 C 86.02055103485324 291.3108041925141 83.7819747840072 293.5493804433602 81.02055103485324 293.5493804433602 C 78.25912728569928 293.5493804433602 76.02055103485324 291.3108041925141 76.02055103485324 288.5493804433602 C 76.02055103485324 285.78795669420623 78.25912728569928 283.5493804433602 81.02055103485324 283.5493804433602 C 83.7819747840072 283.5493804433602 86.02055103485324 285.78795669420623 86.02055103485324 288.5493804433602 Z" fill-opacity="1"/><path fill="none" stroke="rgb(0,0,0)" paint-order="fill stroke markers" d=" M 86.02055103485324 288.5493804433602 C 86.02055103485324 291.3108041925141 83.7819747840072 293.5493804433602 81.02055103485324 293.5493804433602 C 78.25912728569928 293.5493804433602 76.02055103485324 291.3108041925141 76.02055103485324 288.5493804433602 C 76.02055103485324 285.78795669420623 78.25912728569928 283.5493804433602 81.02055103485324 283.5493804433602 C 83.7819747840072 283.5493804433602 86.02055103485324 285.78795669420623 86.02055103485324 288.5493804433602 Z" stroke-opacity="1" stroke-linecap="round" stroke-linejoin="round" stroke-miterlimit="10"/><text fill="rgb(77,77,255)" stroke="none" font-family="geogebra-sans-serif, sans-serif" font-size="16px" font-style="normal" font-weight="normal" text-decoration="normal" x="52" y="303" text-anchor="start" dominant-baseline="alphabetic" fill-opacity="1">A</text><text fill="none" stroke="rgb(255,255,255)" font-family="geogebra-sans-serif, sans-serif" font-size="16px" font-style="normal" font-weight="normal" text-decoration="normal" x="52" y="303" text-anchor="start" dominant-baseline="alphabetic" stroke-opacity="1" stroke-linejoin="bevel" stroke-miterlimit="10" stroke-width="3">A</text><text fill="rgb(77,77,255)" stroke="none" font-family="geogebra-sans-serif, sans-serif" font-size="16px" font-style="normal" font-weight="normal" text-decoration="normal" x="52" y="303" text-anchor="start" dominant-baseline="alphabetic" fill-opacity="1">A</text><path fill="rgb(77,77,255)" stroke="none" paint-order="stroke fill markers" d=" M 292.1755641559533 437.9145220254402 C 292.1755641559533 440.67594577459414 289.93698790510723 442.9145220254402 287.1755641559533 442.9145220254402 C 284.41414040679933 442.9145220254402 282.1755641559533 440.67594577459414 282.1755641559533 437.9145220254402 C 282.1755641559533 435.15309827628624 284.41414040679933 432.9145220254402 287.1755641559533 432.9145220254402 C 289.93698790510723 432.9145220254402 292.1755641559533 435.15309827628624 292.1755641559533 437.9145220254402 Z" fill-opacity="1"/><path fill="none" stroke="rgb(0,0,0)" paint-order="fill stroke markers" d=" M 292.1755641559533 437.9145220254402 C 292.1755641559533 440.67594577459414 289.93698790510723 442.9145220254402 287.1755641559533 442.9145220254402 C 284.41414040679933 442.9145220254402 282.1755641559533 440.67594577459414 282.1755641559533 437.9145220254402 C 282.1755641559533 435.15309827628624 284.41414040679933 432.9145220254402 287.1755641559533 432.9145220254402 C 289.93698790510723 432.9145220254402 292.1755641559533 435.15309827628624 292.1755641559533 437.9145220254402 Z" stroke-opacity="1" stroke-linecap="round" stroke-linejoin="round" stroke-miterlimit="10"/><text fill="rgb(77,77,255)" stroke="none" font-family="geogebra-sans-serif, sans-serif" font-size="16px" font-style="normal" font-weight="normal" text-decoration="normal" x="294" y="467" text-anchor="start" dominant-baseline="alphabetic" fill-opacity="1">B</text><text fill="none" stroke="rgb(255,255,255)" font-family="geogebra-sans-serif, sans-serif" font-size="16px" font-style="normal" font-weight="normal" text-decoration="normal" x="294" y="467" text-anchor="start" dominant-baseline="alphabetic" stroke-opacity="1" stroke-linejoin="bevel" stroke-miterlimit="10" stroke-width="3">B</text><text fill="rgb(77,77,255)" stroke="none" font-family="geogebra-sans-serif, sans-serif" font-size="16px" font-style="normal" font-weight="normal" text-decoration="normal" x="294" y="467" text-anchor="start" dominant-baseline="alphabetic" fill-opacity="1">B</text><path fill="rgb(77,77,255)" stroke="none" paint-order="stroke fill markers" d=" M 513 263 C 513 265.76142374915395 510.76142374915395 268 508 268 C 505.23857625084605 268 503 265.76142374915395 503 263 C 503 260.23857625084605 505.23857625084605 258 508 258 C 510.76142374915395 258 513 260.23857625084605 513 263 Z" fill-opacity="1"/><path fill="none" stroke="rgb(0,0,0)" paint-order="fill stroke markers" d=" M 513 263 C 513 265.76142374915395 510.76142374915395 268 508 268 C 505.23857625084605 268 503 265.76142374915395 503 263 C 503 260.23857625084605 505.23857625084605 258 508 258 C 510.76142374915395 258 513 260.23857625084605 513 263 Z" stroke-opacity="1" stroke-linecap="round" stroke-linejoin="round" stroke-miterlimit="10"/><text fill="rgb(77,77,255)" stroke="none" font-family="geogebra-sans-serif, sans-serif" font-size="16px" font-style="normal" font-weight="normal" text-decoration="normal" x="521" y="283" text-anchor="start" dominant-baseline="alphabetic" fill-opacity="1">C</text><text fill="none" stroke="rgb(255,255,255)" font-family="geogebra-sans-serif, sans-serif" font-size="16px" font-style="normal" font-weight="normal" text-decoration="normal" x="521" y="283" text-anchor="start" dominant-baseline="alphabetic" stroke-opacity="1" stroke-linejoin="bevel" stroke-miterlimit="10" stroke-width="3">C</text><text fill="rgb(77,77,255)" stroke="none" font-family="geogebra-sans-serif, sans-serif" font-size="16px" font-style="normal" font-weight="normal" text-decoration="normal" x="521" y="283" text-anchor="start" dominant-baseline="alphabetic" fill-opacity="1">C</text><path fill="rgb(77,77,255)" stroke="none" paint-order="stroke fill markers" d=" M 495 190.99999999999997 C 495 193.76142374915395 492.76142374915395 195.99999999999997 490 195.99999999999997 C 487.23857625084605 195.99999999999997 485 193.76142374915395 485 190.99999999999997 C 485 188.238576250846 487.23857625084605 185.99999999999997 490 185.99999999999997 C 492.76142374915395 185.99999999999997 495 188.238576250846 495 190.99999999999997 Z" fill-opacity="1"/><path fill="none" stroke="rgb(0,0,0)" paint-order="fill stroke markers" d=" M 495 190.99999999999997 C 495 193.76142374915395 492.76142374915395 195.99999999999997 490 195.99999999999997 C 487.23857625084605 195.99999999999997 485 193.76142374915395 485 190.99999999999997 C 485 188.238576250846 487.23857625084605 185.99999999999997 490 185.99999999999997 C 492.76142374915395 185.99999999999997 495 188.238576250846 495 190.99999999999997 Z" stroke-opacity="1" stroke-linecap="round" stroke-linejoin="round" stroke-miterlimit="10"/><text fill="rgb(77,77,255)" stroke="none" font-family="geogebra-sans-serif, sans-serif" font-size="16px" font-style="normal" font-weight="normal" text-decoration="normal" x="505" y="176" text-anchor="start" dominant-baseline="alphabetic" fill-opacity="1">D</text><text fill="none" stroke="rgb(255,255,255)" font-family="geogebra-sans-serif, sans-serif" font-size="16px" font-style="normal" font-weight="normal" text-decoration="normal" x="505" y="176" text-anchor="start" dominant-baseline="alphabetic" stroke-opacity="1" stroke-linejoin="bevel" stroke-miterlimit="10" stroke-width="3">D</text><text fill="rgb(77,77,255)" stroke="none" font-family="geogebra-sans-serif, sans-serif" font-size="16px" font-style="normal" font-weight="normal" text-decoration="normal" x="505" y="176" text-anchor="start" dominant-baseline="alphabetic" fill-opacity="1">D</text><path fill="rgb(77,77,255)" stroke="none" paint-order="stroke fill markers" d=" M 203.49001134159326 108.06650103168022 C 203.49001134159326 110.82792478083418 201.25143509074724 113.06650103168022 198.49001134159326 113.06650103168022 C 195.72858759243928 113.06650103168022 193.49001134159326 110.82792478083418 193.49001134159326 108.06650103168022 C 193.49001134159326 105.30507728252626 195.72858759243928 103.06650103168022 198.49001134159326 103.06650103168022 C 201.25143509074724 103.06650103168022 203.49001134159326 105.30507728252626 203.49001134159326 108.06650103168022 Z" fill-opacity="1"/><path fill="none" stroke="rgb(0,0,0)" paint-order="fill stroke markers" d=" M 203.49001134159326 108.06650103168022 C 203.49001134159326 110.82792478083418 201.25143509074724 113.06650103168022 198.49001134159326 113.06650103168022 C 195.72858759243928 113.06650103168022 193.49001134159326 110.82792478083418 193.49001134159326 108.06650103168022 C 193.49001134159326 105.30507728252626 195.72858759243928 103.06650103168022 198.49001134159326 103.06650103168022 C 201.25143509074724 103.06650103168022 203.49001134159326 105.30507728252626 203.49001134159326 108.06650103168022 Z" stroke-opacity="1" stroke-linecap="round" stroke-linejoin="round" stroke-miterlimit="10"/><text fill="rgb(77,77,255)" stroke="none" font-family="geogebra-sans-serif, sans-serif" font-size="16px" font-style="normal" font-weight="normal" text-decoration="normal" x="174" y="87" text-anchor="start" dominant-baseline="alphabetic" fill-opacity="1">E</text><text fill="none" stroke="rgb(255,255,255)" font-family="geogebra-sans-serif, sans-serif" font-size="16px" font-style="normal" font-weight="normal" text-decoration="normal" x="174" y="87" text-anchor="start" dominant-baseline="alphabetic" stroke-opacity="1" stroke-linejoin="bevel" stroke-miterlimit="10" stroke-width="3">E</text><text fill="rgb(77,77,255)" stroke="none" font-family="geogebra-sans-serif, sans-serif" font-size="16px" font-style="normal" font-weight="normal" text-decoration="normal" x="174" y="87" text-anchor="start" dominant-baseline="alphabetic" fill-opacity="1">E</text><path fill="rgb(77,77,255)" stroke="none" paint-order="stroke fill markers" d=" M 96.13381582947324 197.52999729178018 C 96.13381582947324 200.29142104093415 93.8952395786272 202.52999729178018 91.13381582947324 202.52999729178018 C 88.37239208031927 202.52999729178018 86.13381582947324 200.29142104093415 86.13381582947324 197.52999729178018 C 86.13381582947324 194.7685735426262 88.37239208031927 192.52999729178018 91.13381582947324 192.52999729178018 C 93.8952395786272 192.52999729178018 96.13381582947324 194.7685735426262 96.13381582947324 197.52999729178018 Z" fill-opacity="1"/><path fill="none" stroke="rgb(0,0,0)" paint-order="fill stroke markers" d=" M 96.13381582947324 197.52999729178018 C 96.13381582947324 200.29142104093415 93.8952395786272 202.52999729178018 91.13381582947324 202.52999729178018 C 88.37239208031927 202.52999729178018 86.13381582947324 200.29142104093415 86.13381582947324 197.52999729178018 C 86.13381582947324 194.7685735426262 88.37239208031927 192.52999729178018 91.13381582947324 192.52999729178018 C 93.8952395786272 192.52999729178018 96.13381582947324 194.7685735426262 96.13381582947324 197.52999729178018 Z" stroke-opacity="1" stroke-linecap="round" stroke-linejoin="round" stroke-miterlimit="10"/><text fill="rgb(77,77,255)" stroke="none" font-family="geogebra-sans-serif, sans-serif" font-size="16px" font-style="normal" font-weight="normal" text-decoration="normal" x="63" y="185" text-anchor="start" dominant-baseline="alphabetic" fill-opacity="1">F</text><text fill="none" stroke="rgb(255,255,255)" font-family="geogebra-sans-serif, sans-serif" font-size="16px" font-style="normal" font-weight="normal" text-decoration="normal" x="63" y="185" text-anchor="start" dominant-baseline="alphabetic" stroke-opacity="1" stroke-linejoin="bevel" stroke-miterlimit="10" stroke-width="3">F</text><text fill="rgb(77,77,255)" stroke="none" font-family="geogebra-sans-serif, sans-serif" font-size="16px" font-style="normal" font-weight="normal" text-decoration="normal" x="63" y="185" text-anchor="start" dominant-baseline="alphabetic" fill-opacity="1">F</text><path fill="rgb(0,0,255)" stroke="none" paint-order="stroke fill markers" d=" M 193.15468999271326 317.7222596586102 C 193.15468999271326 319.93139865793336 191.36382899203642 321.7222596586102 189.15468999271326 321.7222596586102 C 186.94555099339007 321.7222596586102 185.15468999271326 319.93139865793336 185.15468999271326 317.7222596586102 C 185.15468999271326 315.51312065928704 186.94555099339007 313.7222596586102 189.15468999271326 313.7222596586102 C 191.36382899203642 313.7222596586102 193.15468999271326 315.51312065928704 193.15468999271326 317.7222596586102 Z" fill-opacity="1"/><path fill="none" stroke="rgb(0,0,0)" paint-order="fill stroke markers" d=" M 193.15468999271326 317.7222596586102 C 193.15468999271326 319.93139865793336 191.36382899203642 321.7222596586102 189.15468999271326 321.7222596586102 C 186.94555099339007 321.7222596586102 185.15468999271326 319.93139865793336 185.15468999271326 317.7222596586102 C 185.15468999271326 315.51312065928704 186.94555099339007 313.7222596586102 189.15468999271326 313.7222596586102 C 191.36382899203642 313.7222596586102 193.15468999271326 315.51312065928704 193.15468999271326 317.7222596586102 Z" stroke-opacity="1" stroke-linecap="round" stroke-linejoin="round" stroke-miterlimit="10"/><text fill="rgb(0,0,255)" stroke="none" font-family="geogebra-sans-serif, sans-serif" font-size="16px" font-style="normal" font-weight="normal" text-decoration="normal" x="164" y="341" text-anchor="start" dominant-baseline="alphabetic" fill-opacity="1">M</text><text fill="none" stroke="rgb(255,255,255)" font-family="geogebra-sans-serif, sans-serif" font-size="16px" font-style="normal" font-weight="normal" text-decoration="normal" x="164" y="341" text-anchor="start" dominant-baseline="alphabetic" stroke-opacity="1" stroke-linejoin="bevel" stroke-miterlimit="10" stroke-width="3">M</text><text fill="rgb(0,0,255)" stroke="none" font-family="geogebra-sans-serif, sans-serif" font-size="16px" font-style="normal" font-weight="normal" text-decoration="normal" x="164" y="341" text-anchor="start" dominant-baseline="alphabetic" fill-opacity="1">M</text><path fill="rgb(0,0,255)" stroke="none" paint-order="stroke fill markers" d=" M 357.2450056707967 185.5332505158401 C 357.2450056707967 187.74238951516327 355.45414467011983 189.5332505158401 353.2450056707967 189.5332505158401 C 351.0358666714735 189.5332505158401 349.2450056707967 187.74238951516327 349.2450056707967 185.5332505158401 C 349.2450056707967 183.32411151651692 351.0358666714735 181.5332505158401 353.2450056707967 181.5332505158401 C 355.45414467011983 181.5332505158401 357.2450056707967 183.32411151651692 357.2450056707967 185.5332505158401 Z" fill-opacity="1"/><path fill="none" stroke="rgb(0,0,0)" paint-order="fill stroke markers" d=" M 357.2450056707967 185.5332505158401 C 357.2450056707967 187.74238951516327 355.45414467011983 189.5332505158401 353.2450056707967 189.5332505158401 C 351.0358666714735 189.5332505158401 349.2450056707967 187.74238951516327 349.2450056707967 185.5332505158401 C 349.2450056707967 183.32411151651692 351.0358666714735 181.5332505158401 353.2450056707967 181.5332505158401 C 355.45414467011983 181.5332505158401 357.2450056707967 183.32411151651692 357.2450056707967 185.5332505158401 Z" stroke-opacity="1" stroke-linecap="round" stroke-linejoin="round" stroke-miterlimit="10"/><text fill="rgb(0,0,255)" stroke="none" font-family="geogebra-sans-serif, sans-serif" font-size="16px" font-style="normal" font-weight="normal" text-decoration="normal" x="348" y="173" text-anchor="start" dominant-baseline="alphabetic" fill-opacity="1">P</text><text fill="none" stroke="rgb(255,255,255)" font-family="geogebra-sans-serif, sans-serif" font-size="16px" font-style="normal" font-weight="normal" text-decoration="normal" x="348" y="173" text-anchor="start" dominant-baseline="alphabetic" stroke-opacity="1" stroke-linejoin="bevel" stroke-miterlimit="10" stroke-width="3">P</text><text fill="rgb(0,0,255)" stroke="none" font-family="geogebra-sans-serif, sans-serif" font-size="16px" font-style="normal" font-weight="normal" text-decoration="normal" x="348" y="173" text-anchor="start" dominant-baseline="alphabetic" fill-opacity="1">P</text><path fill="rgb(0,0,255)" stroke="none" paint-order="stroke fill markers" d=" M 246.83278774877328 272.9905115285602 C 246.83278774877328 275.19965052788336 245.04192674809644 276.9905115285602 242.83278774877328 276.9905115285602 C 240.6236487494501 276.9905115285602 238.83278774877328 275.19965052788336 238.83278774877328 272.9905115285602 C 238.83278774877328 270.78137252923705 240.6236487494501 268.9905115285602 242.83278774877328 268.9905115285602 C 245.04192674809644 268.9905115285602 246.83278774877328 270.78137252923705 246.83278774877328 272.9905115285602 Z" fill-opacity="1"/><path fill="none" stroke="rgb(0,0,0)" paint-order="fill stroke markers" d=" M 246.83278774877328 272.9905115285602 C 246.83278774877328 275.19965052788336 245.04192674809644 276.9905115285602 242.83278774877328 276.9905115285602 C 240.6236487494501 276.9905115285602 238.83278774877328 275.19965052788336 238.83278774877328 272.9905115285602 C 238.83278774877328 270.78137252923705 240.6236487494501 268.9905115285602 242.83278774877328 268.9905115285602 C 245.04192674809644 268.9905115285602 246.83278774877328 270.78137252923705 246.83278774877328 272.9905115285602 Z" stroke-opacity="1" stroke-linecap="round" stroke-linejoin="round" stroke-miterlimit="10"/><text fill="rgb(0,0,255)" stroke="none" font-family="geogebra-sans-serif, sans-serif" font-size="16px" font-style="normal" font-weight="normal" text-decoration="normal" x="263" y="285" text-anchor="start" dominant-baseline="alphabetic" fill-opacity="1">N</text><text fill="none" stroke="rgb(255,255,255)" font-family="geogebra-sans-serif, sans-serif" font-size="16px" font-style="normal" font-weight="normal" text-decoration="normal" x="263" y="285" text-anchor="start" dominant-baseline="alphabetic" stroke-opacity="1" stroke-linejoin="bevel" stroke-miterlimit="10" stroke-width="3">N</text><text fill="rgb(0,0,255)" stroke="none" font-family="geogebra-sans-serif, sans-serif" font-size="16px" font-style="normal" font-weight="normal" text-decoration="normal" x="263" y="285" text-anchor="start" dominant-baseline="alphabetic" fill-opacity="1">N</text></g></g></svg>