<svg version="1.1" xmlns="http://www.w3.org/2000/svg" xmlns:xlink="http://www.w3.org/1999/xlink" width="688" height="843"><defs><clipPath id="kWQMTHFnMPsA"><path fill="none" stroke="none" d=" M 0 0 L 688 0 L 688 843 L 0 843 L 0 0 Z"/></clipPath></defs><g transform="scale(1,1)" clip-path="url(#kWQMTHFnMPsA)"><g><rect fill="rgb(255,255,255)" stroke="none" x="0" y="0" width="688" height="843" fill-opacity="1"/><path fill="none" stroke="rgb(153,51,0)" paint-order="fill stroke markers" d=" M 37.500000000000114 827.4999999999995 L 237.50000000000028 827.4999999999995" stroke-opacity="0.6980392156862745" stroke-linecap="round" stroke-linejoin="round" stroke-miterlimit="10" stroke-width="1.5"/><path fill="none" stroke="rgb(153,51,0)" paint-order="fill stroke markers" d=" M 237.50000000000028 827.4999999999995 L 237.50000000000028 627.4999999999989" stroke-opacity="0.6980392156862745" stroke-linecap="round" stroke-linejoin="round" stroke-miterlimit="10" stroke-width="1.5"/><path fill="none" stroke="rgb(153,51,0)" paint-order="fill stroke markers" d=" M 237.50000000000028 627.4999999999989 L 37.500000000000114 627.4999999999989" stroke-opacity="0.6980392156862745" stroke-linecap="round" stroke-linejoin="round" stroke-miterlimit="10" stroke-width="1.5"/><path fill="none" stroke="rgb(153,51,0)" paint-order="fill stroke markers" d=" M 37.500000000000114 627.4999999999989 L 37.500000000000114 827.4999999999995" stroke-opacity="0.6980392156862745" stroke-linecap="round" stroke-linejoin="round" stroke-miterlimit="10" stroke-width="1.5"/><path fill="none" stroke="rgb(153,51,0)" paint-order="fill stroke markers" d=" M 37.500000000000114 627.4999999999989 L 37.500000000000114 427.4999999999981" stroke-opacity="0.6980392156862745" stroke-linecap="round" stroke-linejoin="round" stroke-miterlimit="10" stroke-width="1.5"/><path fill="none" stroke="rgb(153,51,0)" paint-order="fill stroke markers" d=" M 37.500000000000114 427.4999999999981 L 237.50000000000028 427.4999999999981" stroke-opacity="0.6980392156862745" stroke-linecap="round" stroke-linejoin="round" stroke-miterlimit="10" stroke-width="1.5"/><path fill="none" stroke="rgb(153,51,0)" paint-order="fill stroke markers" d=" M 237.50000000000028 427.4999999999981 L 237.50000000000028 627.4999999999989" stroke-opacity="0.6980392156862745" stroke-linecap="round" stroke-linejoin="round" stroke-miterlimit="10" stroke-width="1.5"/><path fill="none" stroke="rgb(153,51,0)" paint-order="fill stroke markers" d=" M 237.50000000000028 627.4999999999989 L 37.500000000000114 627.4999999999989" stroke-opacity="0.6980392156862745" stroke-linecap="round" stroke-linejoin="round" stroke-miterlimit="10" stroke-width="1.5"/><path fill="none" stroke="rgb(153,51,0)" paint-order="fill stroke markers" d=" M 237.50000000000028 427.4999999999981 L 437.5000000000003 427.4999999999981" stroke-opacity="0.6980392156862745" stroke-linecap="round" stroke-linejoin="round" stroke-miterlimit="10" stroke-width="1.5"/><path fill="none" stroke="rgb(153,51,0)" paint-order="fill stroke markers" d=" M 437.5000000000003 427.4999999999981 L 437.5000000000003 627.4999999999989" stroke-opacity="0.6980392156862745" stroke-linecap="round" stroke-linejoin="round" stroke-miterlimit="10" stroke-width="1.5"/><path fill="none" stroke="rgb(153,51,0)" paint-order="fill stroke markers" d=" M 437.5000000000003 627.4999999999989 L 237.50000000000028 627.4999999999989" stroke-opacity="0.6980392156862745" stroke-linecap="round" stroke-linejoin="round" stroke-miterlimit="10" stroke-width="1.5"/><path fill="none" stroke="rgb(153,51,0)" paint-order="fill stroke markers" d=" M 237.50000000000028 627.4999999999989 L 237.50000000000028 427.4999999999981" stroke-opacity="0.6980392156862745" stroke-linecap="round" stroke-linejoin="round" stroke-miterlimit="10" stroke-width="1.5"/><path fill="none" stroke="rgb(153,51,0)" paint-order="fill stroke markers" d=" M 237.50000000000028 427.4999999999981 L 237.50000000000028 227.49999999999739" stroke-opacity="0.6980392156862745" stroke-linecap="round" stroke-linejoin="round" stroke-miterlimit="10" stroke-width="1.5"/><path fill="none" stroke="rgb(153,51,0)" paint-order="fill stroke markers" d=" M 237.50000000000028 227.49999999999739 L 437.5000000000003 227.49999999999739" stroke-opacity="0.6980392156862745" stroke-linecap="round" stroke-linejoin="round" stroke-miterlimit="10" stroke-width="1.5"/><path fill="none" stroke="rgb(153,51,0)" paint-order="fill stroke markers" d=" M 437.5000000000003 227.49999999999739 L 437.5000000000003 427.4999999999981" stroke-opacity="0.6980392156862745" stroke-linecap="round" stroke-linejoin="round" stroke-miterlimit="10" stroke-width="1.5"/><path fill="none" stroke="rgb(153,51,0)" paint-order="fill stroke markers" d=" M 437.5000000000003 427.4999999999981 L 237.50000000000028 427.4999999999981" stroke-opacity="0.6980392156862745" stroke-linecap="round" stroke-linejoin="round" stroke-miterlimit="10" stroke-width="1.5"/><path fill="none" stroke="rgb(153,51,0)" paint-order="fill stroke markers" d=" M 437.5000000000003 227.49999999999739 L 437.5000000000003 27.499999999996703" stroke-opacity="0.6980392156862745" stroke-linecap="round" stroke-linejoin="round" stroke-miterlimit="10" stroke-width="1.5"/><path fill="none" stroke="rgb(153,51,0)" paint-order="fill stroke markers" d=" M 437.5000000000003 27.499999999996703 L 637.5000000000005 27.499999999996703" stroke-opacity="0.6980392156862745" stroke-linecap="round" stroke-linejoin="round" stroke-miterlimit="10" stroke-width="1.5"/><path fill="none" stroke="rgb(153,51,0)" paint-order="fill stroke markers" d=" M 637.5000000000005 27.499999999996703 L 637.5000000000005 427.4999999999981" stroke-opacity="0.6980392156862745" stroke-linecap="round" stroke-linejoin="round" stroke-miterlimit="10" stroke-width="1.5"/><path fill="none" stroke="rgb(153,51,0)" paint-order="fill stroke markers" d=" M 637.5000000000005 427.4999999999981 L 437.5000000000003 427.4999999999981" stroke-opacity="0.6980392156862745" stroke-linecap="round" stroke-linejoin="round" stroke-miterlimit="10" stroke-width="1.5"/><path fill="none" stroke="rgb(153,51,0)" paint-order="fill stroke markers" d=" M 437.5000000000003 427.4999999999981 L 437.5000000000003 227.49999999999739" stroke-opacity="0.6980392156862745" stroke-linecap="round" stroke-linejoin="round" stroke-miterlimit="10" stroke-width="1.5"/><path fill="none" stroke="rgb(0,100,0)" paint-order="fill stroke markers" d=" M 437.5000000000003 227.49999999999739 L 637.5000000000005 227.49999999999739" stroke-opacity="0.6980392156862745" stroke-linecap="round" stroke-linejoin="round" stroke-miterlimit="10" stroke-width="1.5"/><path fill="none" stroke="rgb(0,100,0)" paint-order="fill stroke markers" d=" M 37.500000000000114 777.4999999999993 L 158.14981042728147 627.4999999999989" stroke-opacity="0.6980392156862745" stroke-linecap="round" stroke-linejoin="round" stroke-miterlimit="10" stroke-width="1.5"/><path fill="none" stroke="rgb(0,100,0)" paint-order="fill stroke markers" d=" M 158.14981042728147 627.4999999999989 L 237.50000000000028 477.4999999999983" stroke-opacity="0.6980392156862745" stroke-linecap="round" stroke-linejoin="round" stroke-miterlimit="10" stroke-width="1.5"/><path fill="none" stroke="rgb(0,100,0)" paint-order="fill stroke markers" d=" M 237.50000000000028 477.4999999999983 L 365.1653134099544 427.4999999999981" stroke-opacity="0.6980392156862745" stroke-linecap="round" stroke-linejoin="round" stroke-miterlimit="10" stroke-width="1.5"/><path fill="none" stroke="rgb(0,100,0)" paint-order="fill stroke markers" d=" M 365.1653134099544 427.4999999999981 L 437.5000000000003 351.82151178626975" stroke-opacity="0.6980392156862745" stroke-linecap="round" stroke-linejoin="round" stroke-miterlimit="10" stroke-width="1.5"/><path fill="none" stroke="rgb(0,100,0)" paint-order="fill stroke markers" d=" M 437.5000000000003 351.82151178626975 L 517.8247904698026 227.49999999999739" stroke-opacity="0.6980392156862745" stroke-linecap="round" stroke-linejoin="round" stroke-miterlimit="10" stroke-width="1.5"/><path fill="none" stroke="rgb(0,100,0)" paint-order="fill stroke markers" d=" M 517.8247904698026 227.49999999999739 L 637.5000000000005 177.49999999999727" stroke-opacity="0.6980392156862745" stroke-linecap="round" stroke-linejoin="round" stroke-miterlimit="10" stroke-width="1.5"/><path fill="none" stroke="rgb(255,0,0)" paint-order="fill stroke markers" d=" M 37.500000000000114 777.4999999999993 L 637.5000000000005 177.49999999999727" stroke-opacity="0.6980392156862745" stroke-linejoin="round" stroke-miterlimit="10" stroke-width="1.5" stroke-dasharray="1.5,3"/><path fill="none" stroke="rgb(255,0,0)" paint-order="fill stroke markers" d=" M 37.500000000000114 627.4999999999989 L 637.5000000000005 27.499999999996703" stroke-opacity="0.6980392156862745" stroke-linecap="round" stroke-linejoin="round" stroke-miterlimit="10" stroke-width="1.5"/><path fill="rgb(0,0,255)" stroke="none" paint-order="stroke fill markers" d=" M 39.500000000000114 827.4999999999995 C 39.500000000000114 828.6045694996611 38.6045694996617 829.4999999999995 37.500000000000114 829.4999999999995 C 36.39543050033853 829.4999999999995 35.500000000000114 828.6045694996611 35.500000000000114 827.4999999999995 C 35.500000000000114 826.395430500338 36.39543050033853 825.4999999999995 37.500000000000114 825.4999999999995 C 38.6045694996617 825.4999999999995 39.500000000000114 826.395430500338 39.500000000000114 827.4999999999995 Z" fill-opacity="1"/><path fill="none" stroke="rgb(0,0,0)" paint-order="fill stroke markers" d=" M 39.500000000000114 827.4999999999995 C 39.500000000000114 828.6045694996611 38.6045694996617 829.4999999999995 37.500000000000114 829.4999999999995 C 36.39543050033853 829.4999999999995 35.500000000000114 828.6045694996611 35.500000000000114 827.4999999999995 C 35.500000000000114 826.395430500338 36.39543050033853 825.4999999999995 37.500000000000114 825.4999999999995 C 38.6045694996617 825.4999999999995 39.500000000000114 826.395430500338 39.500000000000114 827.4999999999995 Z" stroke-opacity="1" stroke-linecap="round" stroke-linejoin="round" stroke-miterlimit="10"/><path fill="rgb(0,0,255)" stroke="none" paint-order="stroke fill markers" d=" M 239.50000000000028 827.4999999999995 C 239.50000000000028 828.6045694996611 238.60456949966186 829.4999999999995 237.50000000000028 829.4999999999995 C 236.3954305003387 829.4999999999995 235.50000000000028 828.6045694996611 235.50000000000028 827.4999999999995 C 235.50000000000028 826.395430500338 236.3954305003387 825.4999999999995 237.50000000000028 825.4999999999995 C 238.60456949966186 825.4999999999995 239.50000000000028 826.395430500338 239.50000000000028 827.4999999999995 Z" fill-opacity="1"/><path fill="none" stroke="rgb(0,0,0)" paint-order="fill stroke markers" d=" M 239.50000000000028 827.4999999999995 C 239.50000000000028 828.6045694996611 238.60456949966186 829.4999999999995 237.50000000000028 829.4999999999995 C 236.3954305003387 829.4999999999995 235.50000000000028 828.6045694996611 235.50000000000028 827.4999999999995 C 235.50000000000028 826.395430500338 236.3954305003387 825.4999999999995 237.50000000000028 825.4999999999995 C 238.60456949966186 825.4999999999995 239.50000000000028 826.395430500338 239.50000000000028 827.4999999999995 Z" stroke-opacity="1" stroke-linecap="round" stroke-linejoin="round" stroke-miterlimit="10"/><path fill="rgb(0,0,255)" stroke="none" paint-order="stroke fill markers" d=" M 239.50000000000028 627.4999999999989 C 239.50000000000028 628.6045694996604 238.60456949966186 629.4999999999989 237.50000000000028 629.4999999999989 C 236.3954305003387 629.4999999999989 235.50000000000028 628.6045694996604 235.50000000000028 627.4999999999989 C 235.50000000000028 626.3954305003373 236.3954305003387 625.4999999999989 237.50000000000028 625.4999999999989 C 238.60456949966186 625.4999999999989 239.50000000000028 626.3954305003373 239.50000000000028 627.4999999999989 Z" fill-opacity="1"/><path fill="none" stroke="rgb(0,0,0)" paint-order="fill stroke markers" d=" M 239.50000000000028 627.4999999999989 C 239.50000000000028 628.6045694996604 238.60456949966186 629.4999999999989 237.50000000000028 629.4999999999989 C 236.3954305003387 629.4999999999989 235.50000000000028 628.6045694996604 235.50000000000028 627.4999999999989 C 235.50000000000028 626.3954305003373 236.3954305003387 625.4999999999989 237.50000000000028 625.4999999999989 C 238.60456949966186 625.4999999999989 239.50000000000028 626.3954305003373 239.50000000000028 627.4999999999989 Z" stroke-opacity="1" stroke-linecap="round" stroke-linejoin="round" stroke-miterlimit="10"/><path fill="rgb(0,0,255)" stroke="none" paint-order="stroke fill markers" d=" M 39.500000000000114 627.4999999999989 C 39.500000000000114 628.6045694996604 38.6045694996617 629.4999999999989 37.500000000000114 629.4999999999989 C 36.39543050033853 629.4999999999989 35.500000000000114 628.6045694996604 35.500000000000114 627.4999999999989 C 35.500000000000114 626.3954305003373 36.39543050033853 625.4999999999989 37.500000000000114 625.4999999999989 C 38.6045694996617 625.4999999999989 39.500000000000114 626.3954305003373 39.500000000000114 627.4999999999989 Z" fill-opacity="1"/><path fill="none" stroke="rgb(0,0,0)" paint-order="fill stroke markers" d=" M 39.500000000000114 627.4999999999989 C 39.500000000000114 628.6045694996604 38.6045694996617 629.4999999999989 37.500000000000114 629.4999999999989 C 36.39543050033853 629.4999999999989 35.500000000000114 628.6045694996604 35.500000000000114 627.4999999999989 C 35.500000000000114 626.3954305003373 36.39543050033853 625.4999999999989 37.500000000000114 625.4999999999989 C 38.6045694996617 625.4999999999989 39.500000000000114 626.3954305003373 39.500000000000114 627.4999999999989 Z" stroke-opacity="1" stroke-linecap="round" stroke-linejoin="round" stroke-miterlimit="10"/><path fill="rgb(0,0,255)" stroke="none" paint-order="stroke fill markers" d=" M 39.500000000000114 427.4999999999981 C 39.500000000000114 428.6045694996597 38.6045694996617 429.4999999999981 37.500000000000114 429.4999999999981 C 36.39543050033853 429.4999999999981 35.500000000000114 428.6045694996597 35.500000000000114 427.4999999999981 C 35.500000000000114 426.39543050033654 36.39543050033853 425.4999999999981 37.500000000000114 425.4999999999981 C 38.6045694996617 425.4999999999981 39.500000000000114 426.39543050033654 39.500000000000114 427.4999999999981 Z" fill-opacity="1"/><path fill="none" stroke="rgb(0,0,0)" paint-order="fill stroke markers" d=" M 39.500000000000114 427.4999999999981 C 39.500000000000114 428.6045694996597 38.6045694996617 429.4999999999981 37.500000000000114 429.4999999999981 C 36.39543050033853 429.4999999999981 35.500000000000114 428.6045694996597 35.500000000000114 427.4999999999981 C 35.500000000000114 426.39543050033654 36.39543050033853 425.4999999999981 37.500000000000114 425.4999999999981 C 38.6045694996617 425.4999999999981 39.500000000000114 426.39543050033654 39.500000000000114 427.4999999999981 Z" stroke-opacity="1" stroke-linecap="round" stroke-linejoin="round" stroke-miterlimit="10"/><path fill="rgb(0,0,255)" stroke="none" paint-order="stroke fill markers" d=" M 239.50000000000028 427.4999999999981 C 239.50000000000028 428.6045694996597 238.60456949966186 429.4999999999981 237.50000000000028 429.4999999999981 C 236.3954305003387 429.4999999999981 235.50000000000028 428.6045694996597 235.50000000000028 427.4999999999981 C 235.50000000000028 426.39543050033654 236.3954305003387 425.4999999999981 237.50000000000028 425.4999999999981 C 238.60456949966186 425.4999999999981 239.50000000000028 426.39543050033654 239.50000000000028 427.4999999999981 Z" fill-opacity="1"/><path fill="none" stroke="rgb(0,0,0)" paint-order="fill stroke markers" d=" M 239.50000000000028 427.4999999999981 C 239.50000000000028 428.6045694996597 238.60456949966186 429.4999999999981 237.50000000000028 429.4999999999981 C 236.3954305003387 429.4999999999981 235.50000000000028 428.6045694996597 235.50000000000028 427.4999999999981 C 235.50000000000028 426.39543050033654 236.3954305003387 425.4999999999981 237.50000000000028 425.4999999999981 C 238.60456949966186 425.4999999999981 239.50000000000028 426.39543050033654 239.50000000000028 427.4999999999981 Z" stroke-opacity="1" stroke-linecap="round" stroke-linejoin="round" stroke-miterlimit="10"/><path fill="rgb(77,77,255)" stroke="none" paint-order="stroke fill markers" d=" M 439.5000000000003 427.4999999999981 C 439.5000000000003 428.6045694996597 438.60456949966186 429.4999999999981 437.5000000000003 429.4999999999981 C 436.3954305003387 429.4999999999981 435.5000000000003 428.6045694996597 435.5000000000003 427.4999999999981 C 435.5000000000003 426.39543050033654 436.3954305003387 425.4999999999981 437.5000000000003 425.4999999999981 C 438.60456949966186 425.4999999999981 439.5000000000003 426.39543050033654 439.5000000000003 427.4999999999981 Z" fill-opacity="1"/><path fill="none" stroke="rgb(0,0,0)" paint-order="fill stroke markers" d=" M 439.5000000000003 427.4999999999981 C 439.5000000000003 428.6045694996597 438.60456949966186 429.4999999999981 437.5000000000003 429.4999999999981 C 436.3954305003387 429.4999999999981 435.5000000000003 428.6045694996597 435.5000000000003 427.4999999999981 C 435.5000000000003 426.39543050033654 436.3954305003387 425.4999999999981 437.5000000000003 425.4999999999981 C 438.60456949966186 425.4999999999981 439.5000000000003 426.39543050033654 439.5000000000003 427.4999999999981 Z" stroke-opacity="1" stroke-linecap="round" stroke-linejoin="round" stroke-miterlimit="10"/><path fill="rgb(77,77,255)" stroke="none" paint-order="stroke fill markers" d=" M 439.5000000000003 627.4999999999989 C 439.5000000000003 628.6045694996604 438.60456949966186 629.4999999999989 437.5000000000003 629.4999999999989 C 436.3954305003387 629.4999999999989 435.5000000000003 628.6045694996604 435.5000000000003 627.4999999999989 C 435.5000000000003 626.3954305003373 436.3954305003387 625.4999999999989 437.5000000000003 625.4999999999989 C 438.60456949966186 625.4999999999989 439.5000000000003 626.3954305003373 439.5000000000003 627.4999999999989 Z" fill-opacity="1"/><path fill="none" stroke="rgb(0,0,0)" paint-order="fill stroke markers" d=" M 439.5000000000003 627.4999999999989 C 439.5000000000003 628.6045694996604 438.60456949966186 629.4999999999989 437.5000000000003 629.4999999999989 C 436.3954305003387 629.4999999999989 435.5000000000003 628.6045694996604 435.5000000000003 627.4999999999989 C 435.5000000000003 626.3954305003373 436.3954305003387 625.4999999999989 437.5000000000003 625.4999999999989 C 438.60456949966186 625.4999999999989 439.5000000000003 626.3954305003373 439.5000000000003 627.4999999999989 Z" stroke-opacity="1" stroke-linecap="round" stroke-linejoin="round" stroke-miterlimit="10"/><path fill="rgb(0,0,255)" stroke="none" paint-order="stroke fill markers" d=" M 239.50000000000028 227.49999999999739 C 239.50000000000028 228.60456949965896 238.60456949966186 229.49999999999739 237.50000000000028 229.49999999999739 C 236.3954305003387 229.49999999999739 235.50000000000028 228.60456949965896 235.50000000000028 227.49999999999739 C 235.50000000000028 226.3954305003358 236.3954305003387 225.49999999999739 237.50000000000028 225.49999999999739 C 238.60456949966186 225.49999999999739 239.50000000000028 226.3954305003358 239.50000000000028 227.49999999999739 Z" fill-opacity="1"/><path fill="none" stroke="rgb(0,0,0)" paint-order="fill stroke markers" d=" M 239.50000000000028 227.49999999999739 C 239.50000000000028 228.60456949965896 238.60456949966186 229.49999999999739 237.50000000000028 229.49999999999739 C 236.3954305003387 229.49999999999739 235.50000000000028 228.60456949965896 235.50000000000028 227.49999999999739 C 235.50000000000028 226.3954305003358 236.3954305003387 225.49999999999739 237.50000000000028 225.49999999999739 C 238.60456949966186 225.49999999999739 239.50000000000028 226.3954305003358 239.50000000000028 227.49999999999739 Z" stroke-opacity="1" stroke-linecap="round" stroke-linejoin="round" stroke-miterlimit="10"/><path fill="rgb(0,0,255)" stroke="none" paint-order="stroke fill markers" d=" M 439.5000000000003 227.49999999999739 C 439.5000000000003 228.60456949965896 438.60456949966186 229.49999999999739 437.5000000000003 229.49999999999739 C 436.3954305003387 229.49999999999739 435.5000000000003 228.60456949965896 435.5000000000003 227.49999999999739 C 435.5000000000003 226.3954305003358 436.3954305003387 225.49999999999739 437.5000000000003 225.49999999999739 C 438.60456949966186 225.49999999999739 439.5000000000003 226.3954305003358 439.5000000000003 227.49999999999739 Z" fill-opacity="1"/><path fill="none" stroke="rgb(0,0,0)" paint-order="fill stroke markers" d=" M 439.5000000000003 227.49999999999739 C 439.5000000000003 228.60456949965896 438.60456949966186 229.49999999999739 437.5000000000003 229.49999999999739 C 436.3954305003387 229.49999999999739 435.5000000000003 228.60456949965896 435.5000000000003 227.49999999999739 C 435.5000000000003 226.3954305003358 436.3954305003387 225.49999999999739 437.5000000000003 225.49999999999739 C 438.60456949966186 225.49999999999739 439.5000000000003 226.3954305003358 439.5000000000003 227.49999999999739 Z" stroke-opacity="1" stroke-linecap="round" stroke-linejoin="round" stroke-miterlimit="10"/><path fill="rgb(0,0,255)" stroke="none" paint-order="stroke fill markers" d=" M 439.5000000000003 27.499999999996703 C 439.5000000000003 28.60456949965829 438.60456949966186 29.499999999996703 437.5000000000003 29.499999999996703 C 436.3954305003387 29.499999999996703 435.5000000000003 28.60456949965829 435.5000000000003 27.499999999996703 C 435.5000000000003 26.395430500335117 436.3954305003387 25.499999999996703 437.5000000000003 25.499999999996703 C 438.60456949966186 25.499999999996703 439.5000000000003 26.395430500335117 439.5000000000003 27.499999999996703 Z" fill-opacity="1"/><path fill="none" stroke="rgb(0,0,0)" paint-order="fill stroke markers" d=" M 439.5000000000003 27.499999999996703 C 439.5000000000003 28.60456949965829 438.60456949966186 29.499999999996703 437.5000000000003 29.499999999996703 C 436.3954305003387 29.499999999996703 435.5000000000003 28.60456949965829 435.5000000000003 27.499999999996703 C 435.5000000000003 26.395430500335117 436.3954305003387 25.499999999996703 437.5000000000003 25.499999999996703 C 438.60456949966186 25.499999999996703 439.5000000000003 26.395430500335117 439.5000000000003 27.499999999996703 Z" stroke-opacity="1" stroke-linecap="round" stroke-linejoin="round" stroke-miterlimit="10"/><path fill="rgb(0,0,255)" stroke="none" paint-order="stroke fill markers" d=" M 639.5000000000005 27.499999999996703 C 639.5000000000005 28.60456949965829 638.604569499662 29.499999999996703 637.5000000000005 29.499999999996703 C 636.3954305003389 29.499999999996703 635.5000000000005 28.60456949965829 635.5000000000005 27.499999999996703 C 635.5000000000005 26.395430500335117 636.3954305003389 25.499999999996703 637.5000000000005 25.499999999996703 C 638.604569499662 25.499999999996703 639.5000000000005 26.395430500335117 639.5000000000005 27.499999999996703 Z" fill-opacity="1"/><path fill="none" stroke="rgb(0,0,0)" paint-order="fill stroke markers" d=" M 639.5000000000005 27.499999999996703 C 639.5000000000005 28.60456949965829 638.604569499662 29.499999999996703 637.5000000000005 29.499999999996703 C 636.3954305003389 29.499999999996703 635.5000000000005 28.60456949965829 635.5000000000005 27.499999999996703 C 635.5000000000005 26.395430500335117 636.3954305003389 25.499999999996703 637.5000000000005 25.499999999996703 C 638.604569499662 25.499999999996703 639.5000000000005 26.395430500335117 639.5000000000005 27.499999999996703 Z" stroke-opacity="1" stroke-linecap="round" stroke-linejoin="round" stroke-miterlimit="10"/><path fill="rgb(0,0,255)" stroke="none" paint-order="stroke fill markers" d=" M 639.5000000000005 427.4999999999981 C 639.5000000000005 428.6045694996597 638.604569499662 429.4999999999981 637.5000000000005 429.4999999999981 C 636.3954305003389 429.4999999999981 635.5000000000005 428.6045694996597 635.5000000000005 427.4999999999981 C 635.5000000000005 426.39543050033654 636.3954305003389 425.4999999999981 637.5000000000005 425.4999999999981 C 638.604569499662 425.4999999999981 639.5000000000005 426.39543050033654 639.5000000000005 427.4999999999981 Z" fill-opacity="1"/><path fill="none" stroke="rgb(0,0,0)" paint-order="fill stroke markers" d=" M 639.5000000000005 427.4999999999981 C 639.5000000000005 428.6045694996597 638.604569499662 429.4999999999981 637.5000000000005 429.4999999999981 C 636.3954305003389 429.4999999999981 635.5000000000005 428.6045694996597 635.5000000000005 427.4999999999981 C 635.5000000000005 426.39543050033654 636.3954305003389 425.4999999999981 637.5000000000005 425.4999999999981 C 638.604569499662 425.4999999999981 639.5000000000005 426.39543050033654 639.5000000000005 427.4999999999981 Z" stroke-opacity="1" stroke-linecap="round" stroke-linejoin="round" stroke-miterlimit="10"/><path fill="rgb(0,0,255)" stroke="none" paint-order="stroke fill markers" d=" M 639.5000000000005 227.49999999999739 C 639.5000000000005 228.60456949965896 638.604569499662 229.49999999999739 637.5000000000005 229.49999999999739 C 636.3954305003389 229.49999999999739 635.5000000000005 228.60456949965896 635.5000000000005 227.49999999999739 C 635.5000000000005 226.3954305003358 636.3954305003389 225.49999999999739 637.5000000000005 225.49999999999739 C 638.604569499662 225.49999999999739 639.5000000000005 226.3954305003358 639.5000000000005 227.49999999999739 Z" fill-opacity="1"/><path fill="none" stroke="rgb(0,0,0)" paint-order="fill stroke markers" d=" M 639.5000000000005 227.49999999999739 C 639.5000000000005 228.60456949965896 638.604569499662 229.49999999999739 637.5000000000005 229.49999999999739 C 636.3954305003389 229.49999999999739 635.5000000000005 228.60456949965896 635.5000000000005 227.49999999999739 C 635.5000000000005 226.3954305003358 636.3954305003389 225.49999999999739 637.5000000000005 225.49999999999739 C 638.604569499662 225.49999999999739 639.5000000000005 226.3954305003358 639.5000000000005 227.49999999999739 Z" stroke-opacity="1" stroke-linecap="round" stroke-linejoin="round" stroke-miterlimit="10"/><path fill="rgb(0,100,0)" stroke="none" paint-order="stroke fill markers" d=" M 39.500000000000114 777.4999999999993 C 39.500000000000114 778.6045694996609 38.6045694996617 779.4999999999993 37.500000000000114 779.4999999999993 C 36.39543050033853 779.4999999999993 35.500000000000114 778.6045694996609 35.500000000000114 777.4999999999993 C 35.500000000000114 776.3954305003377 36.39543050033853 775.4999999999993 37.500000000000114 775.4999999999993 C 38.6045694996617 775.4999999999993 39.500000000000114 776.3954305003377 39.500000000000114 777.4999999999993 Z" fill-opacity="1"/><path fill="none" stroke="rgb(0,0,0)" paint-order="fill stroke markers" d=" M 39.500000000000114 777.4999999999993 C 39.500000000000114 778.6045694996609 38.6045694996617 779.4999999999993 37.500000000000114 779.4999999999993 C 36.39543050033853 779.4999999999993 35.500000000000114 778.6045694996609 35.500000000000114 777.4999999999993 C 35.500000000000114 776.3954305003377 36.39543050033853 775.4999999999993 37.500000000000114 775.4999999999993 C 38.6045694996617 775.4999999999993 39.500000000000114 776.3954305003377 39.500000000000114 777.4999999999993 Z" stroke-opacity="1" stroke-linecap="round" stroke-linejoin="round" stroke-miterlimit="10"/><text fill="rgb(0,100,0)" stroke="none" font-family="geogebra-sans-serif, sans-serif" font-size="16px" font-style="normal" font-weight="normal" text-decoration="normal" x="16" y="790" text-anchor="start" dominant-baseline="alphabetic" fill-opacity="1">A</text><text fill="none" stroke="rgb(255,255,255)" font-family="geogebra-sans-serif, sans-serif" font-size="16px" font-style="normal" font-weight="normal" text-decoration="normal" x="16" y="790" text-anchor="start" dominant-baseline="alphabetic" stroke-opacity="1" stroke-linejoin="bevel" stroke-miterlimit="10" stroke-width="3">A</text><text fill="rgb(0,100,0)" stroke="none" font-family="geogebra-sans-serif, sans-serif" font-size="16px" font-style="normal" font-weight="normal" text-decoration="normal" x="16" y="790" text-anchor="start" dominant-baseline="alphabetic" fill-opacity="1">A</text><path fill="rgb(0,100,0)" stroke="none" paint-order="stroke fill markers" d=" M 160.14981042728147 627.4999999999989 C 160.14981042728147 628.6045694996604 159.25437992694305 629.4999999999989 158.14981042728147 629.4999999999989 C 157.0452409276199 629.4999999999989 156.14981042728147 628.6045694996604 156.14981042728147 627.4999999999989 C 156.14981042728147 626.3954305003373 157.0452409276199 625.4999999999989 158.14981042728147 625.4999999999989 C 159.25437992694305 625.4999999999989 160.14981042728147 626.3954305003373 160.14981042728147 627.4999999999989 Z" fill-opacity="1"/><path fill="none" stroke="rgb(0,0,0)" paint-order="fill stroke markers" d=" M 160.14981042728147 627.4999999999989 C 160.14981042728147 628.6045694996604 159.25437992694305 629.4999999999989 158.14981042728147 629.4999999999989 C 157.0452409276199 629.4999999999989 156.14981042728147 628.6045694996604 156.14981042728147 627.4999999999989 C 156.14981042728147 626.3954305003373 157.0452409276199 625.4999999999989 158.14981042728147 625.4999999999989 C 159.25437992694305 625.4999999999989 160.14981042728147 626.3954305003373 160.14981042728147 627.4999999999989 Z" stroke-opacity="1" stroke-linecap="round" stroke-linejoin="round" stroke-miterlimit="10"/><text fill="rgb(0,100,0)" stroke="none" font-family="geogebra-sans-serif, sans-serif" font-size="16px" font-style="normal" font-weight="normal" text-decoration="normal" x="137" y="612" text-anchor="start" dominant-baseline="alphabetic" fill-opacity="1">B</text><text fill="none" stroke="rgb(255,255,255)" font-family="geogebra-sans-serif, sans-serif" font-size="16px" font-style="normal" font-weight="normal" text-decoration="normal" x="137" y="612" text-anchor="start" dominant-baseline="alphabetic" stroke-opacity="1" stroke-linejoin="bevel" stroke-miterlimit="10" stroke-width="3">B</text><text fill="rgb(0,100,0)" stroke="none" font-family="geogebra-sans-serif, sans-serif" font-size="16px" font-style="normal" font-weight="normal" text-decoration="normal" x="137" y="612" text-anchor="start" dominant-baseline="alphabetic" fill-opacity="1">B</text><path fill="rgb(0,100,0)" stroke="none" paint-order="stroke fill markers" d=" M 239.50000000000028 477.4999999999983 C 239.50000000000028 478.6045694996599 238.60456949966186 479.4999999999983 237.50000000000028 479.4999999999983 C 236.3954305003387 479.4999999999983 235.50000000000028 478.6045694996599 235.50000000000028 477.4999999999983 C 235.50000000000028 476.3954305003367 236.3954305003387 475.4999999999983 237.50000000000028 475.4999999999983 C 238.60456949966186 475.4999999999983 239.50000000000028 476.3954305003367 239.50000000000028 477.4999999999983 Z" fill-opacity="1"/><path fill="none" stroke="rgb(0,0,0)" paint-order="fill stroke markers" d=" M 239.50000000000028 477.4999999999983 C 239.50000000000028 478.6045694996599 238.60456949966186 479.4999999999983 237.50000000000028 479.4999999999983 C 236.3954305003387 479.4999999999983 235.50000000000028 478.6045694996599 235.50000000000028 477.4999999999983 C 235.50000000000028 476.3954305003367 236.3954305003387 475.4999999999983 237.50000000000028 475.4999999999983 C 238.60456949966186 475.4999999999983 239.50000000000028 476.3954305003367 239.50000000000028 477.4999999999983 Z" stroke-opacity="1" stroke-linecap="round" stroke-linejoin="round" stroke-miterlimit="10"/><text fill="rgb(0,100,0)" stroke="none" font-family="geogebra-sans-serif, sans-serif" font-size="16px" font-style="normal" font-weight="normal" text-decoration="normal" x="253" y="495" text-anchor="start" dominant-baseline="alphabetic" fill-opacity="1">C</text><text fill="none" stroke="rgb(255,255,255)" font-family="geogebra-sans-serif, sans-serif" font-size="16px" font-style="normal" font-weight="normal" text-decoration="normal" x="253" y="495" text-anchor="start" dominant-baseline="alphabetic" stroke-opacity="1" stroke-linejoin="bevel" stroke-miterlimit="10" stroke-width="3">C</text><text fill="rgb(0,100,0)" stroke="none" font-family="geogebra-sans-serif, sans-serif" font-size="16px" font-style="normal" font-weight="normal" text-decoration="normal" x="253" y="495" text-anchor="start" dominant-baseline="alphabetic" fill-opacity="1">C</text><path fill="rgb(0,100,0)" stroke="none" paint-order="stroke fill markers" d=" M 367.1653134099544 427.4999999999981 C 367.1653134099544 428.6045694996597 366.269882909616 429.4999999999981 365.1653134099544 429.4999999999981 C 364.06074391029284 429.4999999999981 363.1653134099544 428.6045694996597 363.1653134099544 427.4999999999981 C 363.1653134099544 426.39543050033654 364.06074391029284 425.4999999999981 365.1653134099544 425.4999999999981 C 366.269882909616 425.4999999999981 367.1653134099544 426.39543050033654 367.1653134099544 427.4999999999981 Z" fill-opacity="1"/><path fill="none" stroke="rgb(0,0,0)" paint-order="fill stroke markers" d=" M 367.1653134099544 427.4999999999981 C 367.1653134099544 428.6045694996597 366.269882909616 429.4999999999981 365.1653134099544 429.4999999999981 C 364.06074391029284 429.4999999999981 363.1653134099544 428.6045694996597 363.1653134099544 427.4999999999981 C 363.1653134099544 426.39543050033654 364.06074391029284 425.4999999999981 365.1653134099544 425.4999999999981 C 366.269882909616 425.4999999999981 367.1653134099544 426.39543050033654 367.1653134099544 427.4999999999981 Z" stroke-opacity="1" stroke-linecap="round" stroke-linejoin="round" stroke-miterlimit="10"/><text fill="rgb(0,100,0)" stroke="none" font-family="geogebra-sans-serif, sans-serif" font-size="16px" font-style="normal" font-weight="normal" text-decoration="normal" x="349" y="407" text-anchor="start" dominant-baseline="alphabetic" fill-opacity="1">D</text><text fill="none" stroke="rgb(255,255,255)" font-family="geogebra-sans-serif, sans-serif" font-size="16px" font-style="normal" font-weight="normal" text-decoration="normal" x="349" y="407" text-anchor="start" dominant-baseline="alphabetic" stroke-opacity="1" stroke-linejoin="bevel" stroke-miterlimit="10" stroke-width="3">D</text><text fill="rgb(0,100,0)" stroke="none" font-family="geogebra-sans-serif, sans-serif" font-size="16px" font-style="normal" font-weight="normal" text-decoration="normal" x="349" y="407" text-anchor="start" dominant-baseline="alphabetic" fill-opacity="1">D</text><path fill="rgb(0,100,0)" stroke="none" paint-order="stroke fill markers" d=" M 439.5000000000003 351.82151178626975 C 439.5000000000003 352.92608128593133 438.60456949966186 353.82151178626975 437.5000000000003 353.82151178626975 C 436.3954305003387 353.82151178626975 435.5000000000003 352.92608128593133 435.5000000000003 351.82151178626975 C 435.5000000000003 350.7169422866082 436.3954305003387 349.82151178626975 437.5000000000003 349.82151178626975 C 438.60456949966186 349.82151178626975 439.5000000000003 350.7169422866082 439.5000000000003 351.82151178626975 Z" fill-opacity="1"/><path fill="none" stroke="rgb(0,0,0)" paint-order="fill stroke markers" d=" M 439.5000000000003 351.82151178626975 C 439.5000000000003 352.92608128593133 438.60456949966186 353.82151178626975 437.5000000000003 353.82151178626975 C 436.3954305003387 353.82151178626975 435.5000000000003 352.92608128593133 435.5000000000003 351.82151178626975 C 435.5000000000003 350.7169422866082 436.3954305003387 349.82151178626975 437.5000000000003 349.82151178626975 C 438.60456949966186 349.82151178626975 439.5000000000003 350.7169422866082 439.5000000000003 351.82151178626975 Z" stroke-opacity="1" stroke-linecap="round" stroke-linejoin="round" stroke-miterlimit="10"/><text fill="rgb(0,100,0)" stroke="none" font-family="geogebra-sans-serif, sans-serif" font-size="16px" font-style="normal" font-weight="normal" text-decoration="normal" x="412" y="345" text-anchor="start" dominant-baseline="alphabetic" fill-opacity="1">E</text><text fill="none" stroke="rgb(255,255,255)" font-family="geogebra-sans-serif, sans-serif" font-size="16px" font-style="normal" font-weight="normal" text-decoration="normal" x="412" y="345" text-anchor="start" dominant-baseline="alphabetic" stroke-opacity="1" stroke-linejoin="bevel" stroke-miterlimit="10" stroke-width="3">E</text><text fill="rgb(0,100,0)" stroke="none" font-family="geogebra-sans-serif, sans-serif" font-size="16px" font-style="normal" font-weight="normal" text-decoration="normal" x="412" y="345" text-anchor="start" dominant-baseline="alphabetic" fill-opacity="1">E</text><path fill="rgb(0,100,0)" stroke="none" paint-order="stroke fill markers" d=" M 519.8247904698026 227.49999999999739 C 519.8247904698026 228.60456949965896 518.9293599694641 229.49999999999739 517.8247904698026 229.49999999999739 C 516.720220970141 229.49999999999739 515.8247904698026 228.60456949965896 515.8247904698026 227.49999999999739 C 515.8247904698026 226.3954305003358 516.720220970141 225.49999999999739 517.8247904698026 225.49999999999739 C 518.9293599694641 225.49999999999739 519.8247904698026 226.3954305003358 519.8247904698026 227.49999999999739 Z" fill-opacity="1"/><path fill="none" stroke="rgb(0,0,0)" paint-order="fill stroke markers" d=" M 519.8247904698026 227.49999999999739 C 519.8247904698026 228.60456949965896 518.9293599694641 229.49999999999739 517.8247904698026 229.49999999999739 C 516.720220970141 229.49999999999739 515.8247904698026 228.60456949965896 515.8247904698026 227.49999999999739 C 515.8247904698026 226.3954305003358 516.720220970141 225.49999999999739 517.8247904698026 225.49999999999739 C 518.9293599694641 225.49999999999739 519.8247904698026 226.3954305003358 519.8247904698026 227.49999999999739 Z" stroke-opacity="1" stroke-linecap="round" stroke-linejoin="round" stroke-miterlimit="10"/><text fill="rgb(0,100,0)" stroke="none" font-family="geogebra-sans-serif, sans-serif" font-size="16px" font-style="normal" font-weight="normal" text-decoration="normal" x="499" y="216" text-anchor="start" dominant-baseline="alphabetic" fill-opacity="1">F</text><text fill="none" stroke="rgb(255,255,255)" font-family="geogebra-sans-serif, sans-serif" font-size="16px" font-style="normal" font-weight="normal" text-decoration="normal" x="499" y="216" text-anchor="start" dominant-baseline="alphabetic" stroke-opacity="1" stroke-linejoin="bevel" stroke-miterlimit="10" stroke-width="3">F</text><text fill="rgb(0,100,0)" stroke="none" font-family="geogebra-sans-serif, sans-serif" font-size="16px" font-style="normal" font-weight="normal" text-decoration="normal" x="499" y="216" text-anchor="start" dominant-baseline="alphabetic" fill-opacity="1">F</text><path fill="rgb(0,100,0)" stroke="none" paint-order="stroke fill markers" d=" M 639.5000000000005 177.49999999999727 C 639.5000000000005 178.60456949965885 638.604569499662 179.49999999999727 637.5000000000005 179.49999999999727 C 636.3954305003389 179.49999999999727 635.5000000000005 178.60456949965885 635.5000000000005 177.49999999999727 C 635.5000000000005 176.3954305003357 636.3954305003389 175.49999999999727 637.5000000000005 175.49999999999727 C 638.604569499662 175.49999999999727 639.5000000000005 176.3954305003357 639.5000000000005 177.49999999999727 Z" fill-opacity="1"/><path fill="none" stroke="rgb(0,0,0)" paint-order="fill stroke markers" d=" M 639.5000000000005 177.49999999999727 C 639.5000000000005 178.60456949965885 638.604569499662 179.49999999999727 637.5000000000005 179.49999999999727 C 636.3954305003389 179.49999999999727 635.5000000000005 178.60456949965885 635.5000000000005 177.49999999999727 C 635.5000000000005 176.3954305003357 636.3954305003389 175.49999999999727 637.5000000000005 175.49999999999727 C 638.604569499662 175.49999999999727 639.5000000000005 176.3954305003357 639.5000000000005 177.49999999999727 Z" stroke-opacity="1" stroke-linecap="round" stroke-linejoin="round" stroke-miterlimit="10"/><text fill="rgb(0,100,0)" stroke="none" font-family="geogebra-sans-serif, sans-serif" font-size="16px" font-style="normal" font-weight="normal" text-decoration="normal" x="650" y="174" text-anchor="start" dominant-baseline="alphabetic" fill-opacity="1">A'</text><text fill="none" stroke="rgb(255,255,255)" font-family="geogebra-sans-serif, sans-serif" font-size="16px" font-style="normal" font-weight="normal" text-decoration="normal" x="650" y="174" text-anchor="start" dominant-baseline="alphabetic" stroke-opacity="1" stroke-linejoin="bevel" stroke-miterlimit="10" stroke-width="3">A'</text><text fill="rgb(0,100,0)" stroke="none" font-family="geogebra-sans-serif, sans-serif" font-size="16px" font-style="normal" font-weight="normal" text-decoration="normal" x="650" y="174" text-anchor="start" dominant-baseline="alphabetic" fill-opacity="1">A'</text></g></g></svg>