<svg version="1.1" xmlns="http://www.w3.org/2000/svg" xmlns:xlink="http://www.w3.org/1999/xlink" width="458" height="379"><defs><clipPath id="eqwaRutfAHTg"><path fill="none" stroke="none" d=" M 0 0 L 458 0 L 458 379 L 0 379 L 0 0 Z"/></clipPath></defs><g transform="scale(1,1)" clip-path="url(#eqwaRutfAHTg)"><g><rect fill="rgb(255,255,255)" stroke="none" x="0" y="0" width="458" height="379" fill-opacity="1"/><path fill="none" stroke="rgb(153,51,0)" paint-order="fill stroke markers" d=" M 49.50000000000003 333.49999999999983 L 249.50000000000014 333.49999999999983" stroke-opacity="0.6980392156862745" stroke-linecap="round" stroke-linejoin="round" stroke-miterlimit="10" stroke-width="1.5"/><path fill="none" stroke="rgb(153,51,0)" paint-order="fill stroke markers" d=" M 249.50000000000014 133.49999999999912 L 49.50000000000003 133.49999999999912" stroke-opacity="0.6980392156862745" stroke-linecap="round" stroke-linejoin="round" stroke-miterlimit="10" stroke-width="1.5"/><path fill="none" stroke="rgb(153,51,0)" paint-order="fill stroke markers" d=" M 49.50000000000003 133.49999999999912 L 49.50000000000003 333.49999999999983" stroke-opacity="0.6980392156862745" stroke-linecap="round" stroke-linejoin="round" stroke-miterlimit="10" stroke-width="1.5"/><path fill="none" stroke="rgb(153,51,0)" paint-order="fill stroke markers" d=" M 249.50000000000014 133.49999999999912 L 249.50000000000014 333.49999999999983" stroke-opacity="0.6980392156862745" stroke-linecap="round" stroke-linejoin="round" stroke-miterlimit="10" stroke-width="1.5"/><path fill="none" stroke="rgb(153,51,0)" paint-order="fill stroke markers" d=" M 249.50000000000014 333.49999999999983 L 399.5000000000002 233.49999999999946" stroke-opacity="0.6980392156862745" stroke-linecap="round" stroke-linejoin="round" stroke-miterlimit="10" stroke-width="1.5"/><path fill="none" stroke="rgb(153,51,0)" paint-order="fill stroke markers" d=" M 399.5000000000002 233.49999999999946 L 399.5000000000002 33.49999999999875" stroke-opacity="0.6980392156862745" stroke-linecap="round" stroke-linejoin="round" stroke-miterlimit="10" stroke-width="1.5"/><path fill="none" stroke="rgb(153,51,0)" paint-order="fill stroke markers" d=" M 399.5000000000002 33.49999999999875 L 199.5000000000001 33.49999999999875" stroke-opacity="0.6980392156862745" stroke-linecap="round" stroke-linejoin="round" stroke-miterlimit="10" stroke-width="1.5"/><path fill="none" stroke="rgb(153,51,0)" paint-order="fill stroke markers" d=" M 199.5000000000001 33.49999999999875 L 49.50000000000003 133.49999999999912" stroke-opacity="0.6980392156862745" stroke-linecap="round" stroke-linejoin="round" stroke-miterlimit="10" stroke-width="1.5"/><path fill="none" stroke="rgb(153,51,0)" paint-order="fill stroke markers" d=" M 399.5000000000002 33.49999999999875 L 249.50000000000014 133.49999999999912" stroke-opacity="0.6980392156862745" stroke-linecap="round" stroke-linejoin="round" stroke-miterlimit="10" stroke-width="1.5"/><path fill="none" stroke="rgb(153,51,0)" paint-order="fill stroke markers" d=" M 199.5000000000001 33.49999999999875 L 199.5000000000001 233.49999999999946" stroke-opacity="0.6980392156862745" stroke-linejoin="round" stroke-miterlimit="10" stroke-width="1.5" stroke-dasharray="5.5,4"/><path fill="none" stroke="rgb(153,51,0)" paint-order="fill stroke markers" d=" M 199.5000000000001 233.49999999999946 L 399.5000000000002 233.49999999999946" stroke-opacity="0.6980392156862745" stroke-linejoin="round" stroke-miterlimit="10" stroke-width="1.5" stroke-dasharray="5.5,4"/><path fill="none" stroke="rgb(153,51,0)" paint-order="fill stroke markers" d=" M 199.5000000000001 233.49999999999946 L 49.50000000000003 333.49999999999983" stroke-opacity="0.6980392156862745" stroke-linejoin="round" stroke-miterlimit="10" stroke-width="1.5" stroke-dasharray="5.5,4"/><path fill="none" stroke="rgb(0,100,0)" paint-order="fill stroke markers" d=" M 97.73076923076927 101.34615384615284 L 324.082945826364 33.49999999999875" stroke-opacity="0.6980392156862745" stroke-linecap="round" stroke-linejoin="round" stroke-miterlimit="10" stroke-width="1.5"/><path fill="none" stroke="rgb(0,100,0)" paint-order="fill stroke markers" d=" M 293.82414673915025 303.95056884056635 L 210.74484922132515 333.49999999999983" stroke-opacity="0.6980392156862745" stroke-linejoin="round" stroke-miterlimit="10" stroke-width="1.5" stroke-dasharray="1.5,3"/><path fill="none" stroke="rgb(0,100,0)" paint-order="fill stroke markers" d=" M 399.5000000000002 183.4999999999993 L 293.82414673915025 303.95056884056635" stroke-opacity="0.6980392156862745" stroke-linecap="round" stroke-linejoin="round" stroke-miterlimit="10" stroke-width="1.5"/><path fill="none" stroke="rgb(0,100,0)" paint-order="fill stroke markers" d=" M 399.5000000000002 183.4999999999993 L 324.082945826364 33.49999999999875" stroke-opacity="0.6980392156862745" stroke-linejoin="round" stroke-miterlimit="10" stroke-width="1.5" stroke-dasharray="1.5,3"/><path fill="none" stroke="rgb(0,100,0)" paint-order="fill stroke markers" d=" M 97.73076923076927 101.34615384615284 L 49.50000000000003 283.49999999999966" stroke-opacity="0.6980392156862745" stroke-linejoin="round" stroke-miterlimit="10" stroke-width="1.5" stroke-dasharray="1.5,3"/><path fill="none" stroke="rgb(0,100,0)" paint-order="fill stroke markers" d=" M 49.50000000000003 283.49999999999966 L 210.74484922132515 333.49999999999983" stroke-opacity="0.6980392156862745" stroke-linecap="round" stroke-linejoin="round" stroke-miterlimit="10" stroke-width="1.5"/><path fill="rgb(77,77,255)" stroke="none" paint-order="stroke fill markers" d=" M 51.50000000000003 333.49999999999983 C 51.50000000000003 334.6045694996614 50.604569499661615 335.49999999999983 49.50000000000003 335.49999999999983 C 48.39543050033844 335.49999999999983 47.50000000000003 334.6045694996614 47.50000000000003 333.49999999999983 C 47.50000000000003 332.39543050033825 48.39543050033844 331.49999999999983 49.50000000000003 331.49999999999983 C 50.604569499661615 331.49999999999983 51.50000000000003 332.39543050033825 51.50000000000003 333.49999999999983 Z" fill-opacity="1"/><path fill="none" stroke="rgb(0,0,0)" paint-order="fill stroke markers" d=" M 51.50000000000003 333.49999999999983 C 51.50000000000003 334.6045694996614 50.604569499661615 335.49999999999983 49.50000000000003 335.49999999999983 C 48.39543050033844 335.49999999999983 47.50000000000003 334.6045694996614 47.50000000000003 333.49999999999983 C 47.50000000000003 332.39543050033825 48.39543050033844 331.49999999999983 49.50000000000003 331.49999999999983 C 50.604569499661615 331.49999999999983 51.50000000000003 332.39543050033825 51.50000000000003 333.49999999999983 Z" stroke-opacity="1" stroke-linecap="round" stroke-linejoin="round" stroke-miterlimit="10"/><path fill="rgb(77,77,255)" stroke="none" paint-order="stroke fill markers" d=" M 251.50000000000014 333.49999999999983 C 251.50000000000014 334.6045694996614 250.60456949966172 335.49999999999983 249.50000000000014 335.49999999999983 C 248.39543050033856 335.49999999999983 247.50000000000014 334.6045694996614 247.50000000000014 333.49999999999983 C 247.50000000000014 332.39543050033825 248.39543050033856 331.49999999999983 249.50000000000014 331.49999999999983 C 250.60456949966172 331.49999999999983 251.50000000000014 332.39543050033825 251.50000000000014 333.49999999999983 Z" fill-opacity="1"/><path fill="none" stroke="rgb(0,0,0)" paint-order="fill stroke markers" d=" M 251.50000000000014 333.49999999999983 C 251.50000000000014 334.6045694996614 250.60456949966172 335.49999999999983 249.50000000000014 335.49999999999983 C 248.39543050033856 335.49999999999983 247.50000000000014 334.6045694996614 247.50000000000014 333.49999999999983 C 247.50000000000014 332.39543050033825 248.39543050033856 331.49999999999983 249.50000000000014 331.49999999999983 C 250.60456949966172 331.49999999999983 251.50000000000014 332.39543050033825 251.50000000000014 333.49999999999983 Z" stroke-opacity="1" stroke-linecap="round" stroke-linejoin="round" stroke-miterlimit="10"/><path fill="rgb(77,77,255)" stroke="none" paint-order="stroke fill markers" d=" M 401.5000000000002 233.49999999999946 C 401.5000000000002 234.60456949966104 400.6045694996618 235.49999999999946 399.5000000000002 235.49999999999946 C 398.39543050033865 235.49999999999946 397.5000000000002 234.60456949966104 397.5000000000002 233.49999999999946 C 397.5000000000002 232.39543050033788 398.39543050033865 231.49999999999946 399.5000000000002 231.49999999999946 C 400.6045694996618 231.49999999999946 401.5000000000002 232.39543050033788 401.5000000000002 233.49999999999946 Z" fill-opacity="1"/><path fill="none" stroke="rgb(0,0,0)" paint-order="fill stroke markers" d=" M 401.5000000000002 233.49999999999946 C 401.5000000000002 234.60456949966104 400.6045694996618 235.49999999999946 399.5000000000002 235.49999999999946 C 398.39543050033865 235.49999999999946 397.5000000000002 234.60456949966104 397.5000000000002 233.49999999999946 C 397.5000000000002 232.39543050033788 398.39543050033865 231.49999999999946 399.5000000000002 231.49999999999946 C 400.6045694996618 231.49999999999946 401.5000000000002 232.39543050033788 401.5000000000002 233.49999999999946 Z" stroke-opacity="1" stroke-linecap="round" stroke-linejoin="round" stroke-miterlimit="10"/><path fill="rgb(77,77,255)" stroke="none" paint-order="stroke fill markers" d=" M 401.5000000000002 33.49999999999875 C 401.5000000000002 34.604569499660336 400.6045694996618 35.49999999999875 399.5000000000002 35.49999999999875 C 398.39543050033865 35.49999999999875 397.5000000000002 34.604569499660336 397.5000000000002 33.49999999999875 C 397.5000000000002 32.39543050033716 398.39543050033865 31.49999999999875 399.5000000000002 31.49999999999875 C 400.6045694996618 31.49999999999875 401.5000000000002 32.39543050033716 401.5000000000002 33.49999999999875 Z" fill-opacity="1"/><path fill="none" stroke="rgb(0,0,0)" paint-order="fill stroke markers" d=" M 401.5000000000002 33.49999999999875 C 401.5000000000002 34.604569499660336 400.6045694996618 35.49999999999875 399.5000000000002 35.49999999999875 C 398.39543050033865 35.49999999999875 397.5000000000002 34.604569499660336 397.5000000000002 33.49999999999875 C 397.5000000000002 32.39543050033716 398.39543050033865 31.49999999999875 399.5000000000002 31.49999999999875 C 400.6045694996618 31.49999999999875 401.5000000000002 32.39543050033716 401.5000000000002 33.49999999999875 Z" stroke-opacity="1" stroke-linecap="round" stroke-linejoin="round" stroke-miterlimit="10"/><path fill="rgb(77,77,255)" stroke="none" paint-order="stroke fill markers" d=" M 251.50000000000014 133.49999999999912 C 251.50000000000014 134.6045694996607 250.60456949966172 135.49999999999912 249.50000000000014 135.49999999999912 C 248.39543050033856 135.49999999999912 247.50000000000014 134.6045694996607 247.50000000000014 133.49999999999912 C 247.50000000000014 132.39543050033754 248.39543050033856 131.49999999999912 249.50000000000014 131.49999999999912 C 250.60456949966172 131.49999999999912 251.50000000000014 132.39543050033754 251.50000000000014 133.49999999999912 Z" fill-opacity="1"/><path fill="none" stroke="rgb(0,0,0)" paint-order="fill stroke markers" d=" M 251.50000000000014 133.49999999999912 C 251.50000000000014 134.6045694996607 250.60456949966172 135.49999999999912 249.50000000000014 135.49999999999912 C 248.39543050033856 135.49999999999912 247.50000000000014 134.6045694996607 247.50000000000014 133.49999999999912 C 247.50000000000014 132.39543050033754 248.39543050033856 131.49999999999912 249.50000000000014 131.49999999999912 C 250.60456949966172 131.49999999999912 251.50000000000014 132.39543050033754 251.50000000000014 133.49999999999912 Z" stroke-opacity="1" stroke-linecap="round" stroke-linejoin="round" stroke-miterlimit="10"/><path fill="rgb(77,77,255)" stroke="none" paint-order="stroke fill markers" d=" M 51.50000000000003 133.49999999999912 C 51.50000000000003 134.6045694996607 50.604569499661615 135.49999999999912 49.50000000000003 135.49999999999912 C 48.39543050033844 135.49999999999912 47.50000000000003 134.6045694996607 47.50000000000003 133.49999999999912 C 47.50000000000003 132.39543050033754 48.39543050033844 131.49999999999912 49.50000000000003 131.49999999999912 C 50.604569499661615 131.49999999999912 51.50000000000003 132.39543050033754 51.50000000000003 133.49999999999912 Z" fill-opacity="1"/><path fill="none" stroke="rgb(0,0,0)" paint-order="fill stroke markers" d=" M 51.50000000000003 133.49999999999912 C 51.50000000000003 134.6045694996607 50.604569499661615 135.49999999999912 49.50000000000003 135.49999999999912 C 48.39543050033844 135.49999999999912 47.50000000000003 134.6045694996607 47.50000000000003 133.49999999999912 C 47.50000000000003 132.39543050033754 48.39543050033844 131.49999999999912 49.50000000000003 131.49999999999912 C 50.604569499661615 131.49999999999912 51.50000000000003 132.39543050033754 51.50000000000003 133.49999999999912 Z" stroke-opacity="1" stroke-linecap="round" stroke-linejoin="round" stroke-miterlimit="10"/><path fill="rgb(77,77,255)" stroke="none" paint-order="stroke fill markers" d=" M 201.5000000000001 33.49999999999875 C 201.5000000000001 34.604569499660336 200.6045694996617 35.49999999999875 199.5000000000001 35.49999999999875 C 198.39543050033853 35.49999999999875 197.5000000000001 34.604569499660336 197.5000000000001 33.49999999999875 C 197.5000000000001 32.39543050033716 198.39543050033853 31.49999999999875 199.5000000000001 31.49999999999875 C 200.6045694996617 31.49999999999875 201.5000000000001 32.39543050033716 201.5000000000001 33.49999999999875 Z" fill-opacity="1"/><path fill="none" stroke="rgb(0,0,0)" paint-order="fill stroke markers" d=" M 201.5000000000001 33.49999999999875 C 201.5000000000001 34.604569499660336 200.6045694996617 35.49999999999875 199.5000000000001 35.49999999999875 C 198.39543050033853 35.49999999999875 197.5000000000001 34.604569499660336 197.5000000000001 33.49999999999875 C 197.5000000000001 32.39543050033716 198.39543050033853 31.49999999999875 199.5000000000001 31.49999999999875 C 200.6045694996617 31.49999999999875 201.5000000000001 32.39543050033716 201.5000000000001 33.49999999999875 Z" stroke-opacity="1" stroke-linecap="round" stroke-linejoin="round" stroke-miterlimit="10"/><path fill="rgb(77,77,255)" stroke="none" paint-order="stroke fill markers" d=" M 201.5000000000001 233.49999999999946 C 201.5000000000001 234.60456949966104 200.6045694996617 235.49999999999946 199.5000000000001 235.49999999999946 C 198.39543050033853 235.49999999999946 197.5000000000001 234.60456949966104 197.5000000000001 233.49999999999946 C 197.5000000000001 232.39543050033788 198.39543050033853 231.49999999999946 199.5000000000001 231.49999999999946 C 200.6045694996617 231.49999999999946 201.5000000000001 232.39543050033788 201.5000000000001 233.49999999999946 Z" fill-opacity="1"/><path fill="none" stroke="rgb(0,0,0)" paint-order="fill stroke markers" d=" M 201.5000000000001 233.49999999999946 C 201.5000000000001 234.60456949966104 200.6045694996617 235.49999999999946 199.5000000000001 235.49999999999946 C 198.39543050033853 235.49999999999946 197.5000000000001 234.60456949966104 197.5000000000001 233.49999999999946 C 197.5000000000001 232.39543050033788 198.39543050033853 231.49999999999946 199.5000000000001 231.49999999999946 C 200.6045694996617 231.49999999999946 201.5000000000001 232.39543050033788 201.5000000000001 233.49999999999946 Z" stroke-opacity="1" stroke-linecap="round" stroke-linejoin="round" stroke-miterlimit="10"/><path fill="rgb(0,100,0)" stroke="none" paint-order="stroke fill markers" d=" M 99.73076923076927 101.34615384615284 C 99.73076923076927 102.45072334581442 98.83533873043086 103.34615384615284 97.73076923076927 103.34615384615284 C 96.62619973110768 103.34615384615284 95.73076923076927 102.45072334581442 95.73076923076927 101.34615384615284 C 95.73076923076927 100.24158434649125 96.62619973110768 99.34615384615284 97.73076923076927 99.34615384615284 C 98.83533873043086 99.34615384615284 99.73076923076927 100.24158434649125 99.73076923076927 101.34615384615284 Z" fill-opacity="1"/><path fill="none" stroke="rgb(0,0,0)" paint-order="fill stroke markers" d=" M 99.73076923076927 101.34615384615284 C 99.73076923076927 102.45072334581442 98.83533873043086 103.34615384615284 97.73076923076927 103.34615384615284 C 96.62619973110768 103.34615384615284 95.73076923076927 102.45072334581442 95.73076923076927 101.34615384615284 C 95.73076923076927 100.24158434649125 96.62619973110768 99.34615384615284 97.73076923076927 99.34615384615284 C 98.83533873043086 99.34615384615284 99.73076923076927 100.24158434649125 99.73076923076927 101.34615384615284 Z" stroke-opacity="1" stroke-linecap="round" stroke-linejoin="round" stroke-miterlimit="10"/><text fill="rgb(0,100,0)" stroke="none" font-family="geogebra-sans-serif, sans-serif" font-size="16px" font-style="normal" font-weight="normal" text-decoration="normal" x="70" y="89" text-anchor="start" dominant-baseline="alphabetic" fill-opacity="1">A</text><text fill="none" stroke="rgb(255,255,255)" font-family="geogebra-sans-serif, sans-serif" font-size="16px" font-style="normal" font-weight="normal" text-decoration="normal" x="70" y="89" text-anchor="start" dominant-baseline="alphabetic" stroke-opacity="1" stroke-linejoin="bevel" stroke-miterlimit="10" stroke-width="3">A</text><text fill="rgb(0,100,0)" stroke="none" font-family="geogebra-sans-serif, sans-serif" font-size="16px" font-style="normal" font-weight="normal" text-decoration="normal" x="70" y="89" text-anchor="start" dominant-baseline="alphabetic" fill-opacity="1">A</text><path fill="rgb(0,100,0)" stroke="none" paint-order="stroke fill markers" d=" M 326.082945826364 33.49999999999875 C 326.082945826364 34.604569499660336 325.18751532602556 35.49999999999875 324.082945826364 35.49999999999875 C 322.9783763267024 35.49999999999875 322.082945826364 34.604569499660336 322.082945826364 33.49999999999875 C 322.082945826364 32.39543050033716 322.9783763267024 31.49999999999875 324.082945826364 31.49999999999875 C 325.18751532602556 31.49999999999875 326.082945826364 32.39543050033716 326.082945826364 33.49999999999875 Z" fill-opacity="1"/><path fill="none" stroke="rgb(0,0,0)" paint-order="fill stroke markers" d=" M 326.082945826364 33.49999999999875 C 326.082945826364 34.604569499660336 325.18751532602556 35.49999999999875 324.082945826364 35.49999999999875 C 322.9783763267024 35.49999999999875 322.082945826364 34.604569499660336 322.082945826364 33.49999999999875 C 322.082945826364 32.39543050033716 322.9783763267024 31.49999999999875 324.082945826364 31.49999999999875 C 325.18751532602556 31.49999999999875 326.082945826364 32.39543050033716 326.082945826364 33.49999999999875 Z" stroke-opacity="1" stroke-linecap="round" stroke-linejoin="round" stroke-miterlimit="10"/><text fill="rgb(0,100,0)" stroke="none" font-family="geogebra-sans-serif, sans-serif" font-size="16px" font-style="normal" font-weight="normal" text-decoration="normal" x="319" y="24" text-anchor="start" dominant-baseline="alphabetic" fill-opacity="1">B</text><text fill="none" stroke="rgb(255,255,255)" font-family="geogebra-sans-serif, sans-serif" font-size="16px" font-style="normal" font-weight="normal" text-decoration="normal" x="319" y="24" text-anchor="start" dominant-baseline="alphabetic" stroke-opacity="1" stroke-linejoin="bevel" stroke-miterlimit="10" stroke-width="3">B</text><text fill="rgb(0,100,0)" stroke="none" font-family="geogebra-sans-serif, sans-serif" font-size="16px" font-style="normal" font-weight="normal" text-decoration="normal" x="319" y="24" text-anchor="start" dominant-baseline="alphabetic" fill-opacity="1">B</text><path fill="rgb(0,100,0)" stroke="none" paint-order="stroke fill markers" d=" M 295.82414673915025 303.95056884056635 C 295.82414673915025 305.0551383402279 294.92871623881183 305.95056884056635 293.82414673915025 305.95056884056635 C 292.7195772394887 305.95056884056635 291.82414673915025 305.0551383402279 291.82414673915025 303.95056884056635 C 291.82414673915025 302.84599934090477 292.7195772394887 301.95056884056635 293.82414673915025 301.95056884056635 C 294.92871623881183 301.95056884056635 295.82414673915025 302.84599934090477 295.82414673915025 303.95056884056635 Z" fill-opacity="1"/><path fill="none" stroke="rgb(0,0,0)" paint-order="fill stroke markers" d=" M 295.82414673915025 303.95056884056635 C 295.82414673915025 305.0551383402279 294.92871623881183 305.95056884056635 293.82414673915025 305.95056884056635 C 292.7195772394887 305.95056884056635 291.82414673915025 305.0551383402279 291.82414673915025 303.95056884056635 C 291.82414673915025 302.84599934090477 292.7195772394887 301.95056884056635 293.82414673915025 301.95056884056635 C 294.92871623881183 301.95056884056635 295.82414673915025 302.84599934090477 295.82414673915025 303.95056884056635 Z" stroke-opacity="1" stroke-linecap="round" stroke-linejoin="round" stroke-miterlimit="10"/><text fill="rgb(0,100,0)" stroke="none" font-family="geogebra-sans-serif, sans-serif" font-size="16px" font-style="normal" font-weight="normal" text-decoration="normal" x="309" y="324" text-anchor="start" dominant-baseline="alphabetic" fill-opacity="1">D</text><text fill="none" stroke="rgb(255,255,255)" font-family="geogebra-sans-serif, sans-serif" font-size="16px" font-style="normal" font-weight="normal" text-decoration="normal" x="309" y="324" text-anchor="start" dominant-baseline="alphabetic" stroke-opacity="1" stroke-linejoin="bevel" stroke-miterlimit="10" stroke-width="3">D</text><text fill="rgb(0,100,0)" stroke="none" font-family="geogebra-sans-serif, sans-serif" font-size="16px" font-style="normal" font-weight="normal" text-decoration="normal" x="309" y="324" text-anchor="start" dominant-baseline="alphabetic" fill-opacity="1">D</text><path fill="rgb(0,100,0)" stroke="none" paint-order="stroke fill markers" d=" M 212.74484922132515 333.49999999999983 C 212.74484922132515 334.6045694996614 211.84941872098673 335.49999999999983 210.74484922132515 335.49999999999983 C 209.64027972166357 335.49999999999983 208.74484922132515 334.6045694996614 208.74484922132515 333.49999999999983 C 208.74484922132515 332.39543050033825 209.64027972166357 331.49999999999983 210.74484922132515 331.49999999999983 C 211.84941872098673 331.49999999999983 212.74484922132515 332.39543050033825 212.74484922132515 333.49999999999983 Z" fill-opacity="1"/><path fill="none" stroke="rgb(0,0,0)" paint-order="fill stroke markers" d=" M 212.74484922132515 333.49999999999983 C 212.74484922132515 334.6045694996614 211.84941872098673 335.49999999999983 210.74484922132515 335.49999999999983 C 209.64027972166357 335.49999999999983 208.74484922132515 334.6045694996614 208.74484922132515 333.49999999999983 C 208.74484922132515 332.39543050033825 209.64027972166357 331.49999999999983 210.74484922132515 331.49999999999983 C 211.84941872098673 331.49999999999983 212.74484922132515 332.39543050033825 212.74484922132515 333.49999999999983 Z" stroke-opacity="1" stroke-linecap="round" stroke-linejoin="round" stroke-miterlimit="10"/><text fill="rgb(0,100,0)" stroke="none" font-family="geogebra-sans-serif, sans-serif" font-size="16px" font-style="normal" font-weight="normal" text-decoration="normal" x="198" y="366" text-anchor="start" dominant-baseline="alphabetic" fill-opacity="1">E</text><text fill="none" stroke="rgb(255,255,255)" font-family="geogebra-sans-serif, sans-serif" font-size="16px" font-style="normal" font-weight="normal" text-decoration="normal" x="198" y="366" text-anchor="start" dominant-baseline="alphabetic" stroke-opacity="1" stroke-linejoin="bevel" stroke-miterlimit="10" stroke-width="3">E</text><text fill="rgb(0,100,0)" stroke="none" font-family="geogebra-sans-serif, sans-serif" font-size="16px" font-style="normal" font-weight="normal" text-decoration="normal" x="198" y="366" text-anchor="start" dominant-baseline="alphabetic" fill-opacity="1">E</text><path fill="rgb(0,100,0)" stroke="none" paint-order="stroke fill markers" d=" M 51.50000000000003 283.49999999999966 C 51.50000000000003 284.60456949966124 50.604569499661615 285.49999999999966 49.50000000000003 285.49999999999966 C 48.39543050033844 285.49999999999966 47.50000000000003 284.60456949966124 47.50000000000003 283.49999999999966 C 47.50000000000003 282.3954305003381 48.39543050033844 281.49999999999966 49.50000000000003 281.49999999999966 C 50.604569499661615 281.49999999999966 51.50000000000003 282.3954305003381 51.50000000000003 283.49999999999966 Z" fill-opacity="1"/><path fill="none" stroke="rgb(0,0,0)" paint-order="fill stroke markers" d=" M 51.50000000000003 283.49999999999966 C 51.50000000000003 284.60456949966124 50.604569499661615 285.49999999999966 49.50000000000003 285.49999999999966 C 48.39543050033844 285.49999999999966 47.50000000000003 284.60456949966124 47.50000000000003 283.49999999999966 C 47.50000000000003 282.3954305003381 48.39543050033844 281.49999999999966 49.50000000000003 281.49999999999966 C 50.604569499661615 281.49999999999966 51.50000000000003 282.3954305003381 51.50000000000003 283.49999999999966 Z" stroke-opacity="1" stroke-linecap="round" stroke-linejoin="round" stroke-miterlimit="10"/><text fill="rgb(0,100,0)" stroke="none" font-family="geogebra-sans-serif, sans-serif" font-size="16px" font-style="normal" font-weight="normal" text-decoration="normal" x="24" y="298" text-anchor="start" dominant-baseline="alphabetic" fill-opacity="1">F</text><text fill="none" stroke="rgb(255,255,255)" font-family="geogebra-sans-serif, sans-serif" font-size="16px" font-style="normal" font-weight="normal" text-decoration="normal" x="24" y="298" text-anchor="start" dominant-baseline="alphabetic" stroke-opacity="1" stroke-linejoin="bevel" stroke-miterlimit="10" stroke-width="3">F</text><text fill="rgb(0,100,0)" stroke="none" font-family="geogebra-sans-serif, sans-serif" font-size="16px" font-style="normal" font-weight="normal" text-decoration="normal" x="24" y="298" text-anchor="start" dominant-baseline="alphabetic" fill-opacity="1">F</text><path fill="rgb(0,100,0)" stroke="none" paint-order="stroke fill markers" d=" M 401.5000000000002 183.4999999999993 C 401.5000000000002 184.60456949966087 400.6045694996618 185.4999999999993 399.5000000000002 185.4999999999993 C 398.39543050033865 185.4999999999993 397.5000000000002 184.60456949966087 397.5000000000002 183.4999999999993 C 397.5000000000002 182.3954305003377 398.39543050033865 181.4999999999993 399.5000000000002 181.4999999999993 C 400.6045694996618 181.4999999999993 401.5000000000002 182.3954305003377 401.5000000000002 183.4999999999993 Z" fill-opacity="1"/><path fill="none" stroke="rgb(0,0,0)" paint-order="fill stroke markers" d=" M 401.5000000000002 183.4999999999993 C 401.5000000000002 184.60456949966087 400.6045694996618 185.4999999999993 399.5000000000002 185.4999999999993 C 398.39543050033865 185.4999999999993 397.5000000000002 184.60456949966087 397.5000000000002 183.4999999999993 C 397.5000000000002 182.3954305003377 398.39543050033865 181.4999999999993 399.5000000000002 181.4999999999993 C 400.6045694996618 181.4999999999993 401.5000000000002 182.3954305003377 401.5000000000002 183.4999999999993 Z" stroke-opacity="1" stroke-linecap="round" stroke-linejoin="round" stroke-miterlimit="10"/><text fill="rgb(0,100,0)" stroke="none" font-family="geogebra-sans-serif, sans-serif" font-size="16px" font-style="normal" font-weight="normal" text-decoration="normal" x="415" y="190" text-anchor="start" dominant-baseline="alphabetic" fill-opacity="1">C</text><text fill="none" stroke="rgb(255,255,255)" font-family="geogebra-sans-serif, sans-serif" font-size="16px" font-style="normal" font-weight="normal" text-decoration="normal" x="415" y="190" text-anchor="start" dominant-baseline="alphabetic" stroke-opacity="1" stroke-linejoin="bevel" stroke-miterlimit="10" stroke-width="3">C</text><text fill="rgb(0,100,0)" stroke="none" font-family="geogebra-sans-serif, sans-serif" font-size="16px" font-style="normal" font-weight="normal" text-decoration="normal" x="415" y="190" text-anchor="start" dominant-baseline="alphabetic" fill-opacity="1">C</text></g></g></svg>