<svg version="1.1" xmlns="http://www.w3.org/2000/svg" xmlns:xlink="http://www.w3.org/1999/xlink" width="383" height="214"><defs><clipPath id="sBpDVeIZfOIQ"><path fill="none" stroke="none" d=" M 0 0 L 383 0 L 383 214 L 0 214 L 0 0 Z"/></clipPath></defs><g transform="scale(1,1)" clip-path="url(#sBpDVeIZfOIQ)"><g><rect fill="rgb(255,255,255)" stroke="none" x="0" y="0" width="383" height="214" fill-opacity="1"/><path fill="rgb(153,51,0)" stroke="none" paint-order="stroke fill markers" fill-rule="evenodd" d=" M 17.999999999999545 43.499999999999204 L 17.999999999999545 93.49999999999937 L 61.301270189221505 118.49999999999946 L 104.60254037844348 93.49999999999937 L 104.60254037844349 43.49999999999922 L 61.30127018922155 18.49999999999912 Z" fill-opacity="0.09803921568627451"/><path fill="none" stroke="rgb(153,51,0)" paint-order="fill stroke markers" d=" M 17.999999999999545 43.499999999999204 L 17.999999999999545 93.49999999999937 L 61.301270189221505 118.49999999999946 L 104.60254037844348 93.49999999999937 L 104.60254037844349 43.49999999999922 L 61.30127018922155 18.49999999999912 Z" stroke-opacity="0.6980392156862745" stroke-linecap="round" stroke-linejoin="round" stroke-miterlimit="10" stroke-width="2.5"/><path fill="rgb(153,51,0)" stroke="none" paint-order="stroke fill markers" fill-rule="evenodd" d=" M 104.60254037844342 193.49999999999974 L 61.301270189221476 168.49999999999963 L 61.30127018922151 118.49999999999946 L 104.60254037844348 93.49999999999939 L 147.90381056766543 118.49999999999949 L 147.90381056766543 168.49999999999966 Z" fill-opacity="0.09803921568627451"/><path fill="none" stroke="rgb(153,51,0)" paint-order="fill stroke markers" d=" M 104.60254037844342 193.49999999999974 L 61.301270189221476 168.49999999999963 L 61.30127018922151 118.49999999999946 L 104.60254037844348 93.49999999999939 L 147.90381056766543 118.49999999999949 L 147.90381056766543 168.49999999999966 Z" stroke-opacity="0.6980392156862745" stroke-linecap="round" stroke-linejoin="round" stroke-miterlimit="10" stroke-width="2.5"/><path fill="rgb(153,51,0)" stroke="none" paint-order="stroke fill markers" fill-rule="evenodd" d=" M 191.20508075688744 193.49999999999974 L 234.5063509461094 168.4999999999996 L 234.5063509461093 118.49999999999946 L 191.20508075688736 93.49999999999937 L 147.90381056766543 118.49999999999949 L 147.90381056766543 168.49999999999966 Z" fill-opacity="0.09803921568627451"/><path fill="none" stroke="rgb(153,51,0)" paint-order="fill stroke markers" d=" M 191.20508075688744 193.49999999999974 L 234.5063509461094 168.4999999999996 L 234.5063509461093 118.49999999999946 L 191.20508075688736 93.49999999999937 L 147.90381056766543 118.49999999999949 L 147.90381056766543 168.49999999999966 Z" stroke-opacity="0.6980392156862745" stroke-linecap="round" stroke-linejoin="round" stroke-miterlimit="10" stroke-width="2.5"/><path fill="none" stroke="rgb(153,51,0)" paint-order="fill stroke markers" d=" M 321.1088913245532 118.49999999999945 L 277.8076211353313 93.49999999999936 L 234.5063509461093 118.49999999999945 L 234.5063509461093 168.49999999999963 L 277.8076211353313 193.49999999999972 L 321.1088913245532 168.49999999999966 Z" stroke-opacity="0.6980392156862745" stroke-linecap="round" stroke-linejoin="round" stroke-miterlimit="10" stroke-width="2.5"/><path fill="rgb(153,51,0)" stroke="none" paint-order="stroke fill markers" fill-rule="evenodd" d=" M 364.41016151377534 43.49999999999957 L 364.4101615137753 93.49999999999974 L 321.10889132455327 118.49999999999973 L 277.8076211353313 93.49999999999956 L 277.80762113533143 43.4999999999994 L 321.10889132455344 18.499999999999403 Z" fill-opacity="0.09803921568627451"/><path fill="none" stroke="rgb(153,51,0)" paint-order="fill stroke markers" d=" M 364.41016151377534 43.49999999999957 L 364.4101615137753 93.49999999999974 L 321.10889132455327 118.49999999999973 L 277.8076211353313 93.49999999999956 L 277.80762113533143 43.4999999999994 L 321.10889132455344 18.499999999999403 Z" stroke-opacity="0.6980392156862745" stroke-linecap="round" stroke-linejoin="round" stroke-miterlimit="10" stroke-width="2.5"/><path fill="rgb(153,51,0)" stroke="none" paint-order="stroke fill markers" fill-rule="evenodd" d=" M 191.20508075688747 43.499999999999254 L 191.2050807568874 93.49999999999942 L 234.50635094610936 118.49999999999957 L 277.8076211353313 93.49999999999956 L 277.80762113533143 43.4999999999994 L 234.50635094610948 18.499999999999233 Z" fill-opacity="0.09803921568627451"/><path fill="none" stroke="rgb(153,51,0)" paint-order="fill stroke markers" d=" M 191.20508075688747 43.499999999999254 L 191.2050807568874 93.49999999999942 L 234.50635094610936 118.49999999999957 L 277.8076211353313 93.49999999999956 L 277.80762113533143 43.4999999999994 L 234.50635094610948 18.499999999999233 Z" stroke-opacity="0.6980392156862745" stroke-linecap="round" stroke-linejoin="round" stroke-miterlimit="10" stroke-width="2.5"/><path fill="none" stroke="rgb(153,51,0)" paint-order="fill stroke markers" d=" M 17.999999999999545 43.499999999999204 L 17.999999999999545 93.49999999999937" stroke-opacity="0.6980392156862745" stroke-linecap="round" stroke-linejoin="round" stroke-miterlimit="10" stroke-width="2.5"/><path fill="none" stroke="rgb(153,51,0)" paint-order="fill stroke markers" d=" M 17.999999999999545 93.49999999999937 L 61.301270189221505 118.49999999999946" stroke-opacity="0.6980392156862745" stroke-linecap="round" stroke-linejoin="round" stroke-miterlimit="10" stroke-width="2.5"/><path fill="none" stroke="rgb(153,51,0)" paint-order="fill stroke markers" d=" M 61.301270189221505 118.49999999999946 L 104.60254037844348 93.49999999999937" stroke-opacity="0.6980392156862745" stroke-linecap="round" stroke-linejoin="round" stroke-miterlimit="10" stroke-width="2.5"/><path fill="none" stroke="rgb(153,51,0)" paint-order="fill stroke markers" d=" M 104.60254037844348 93.49999999999937 L 104.60254037844349 43.49999999999922" stroke-opacity="0.6980392156862745" stroke-linecap="round" stroke-linejoin="round" stroke-miterlimit="10" stroke-width="2.5"/><path fill="none" stroke="rgb(153,51,0)" paint-order="fill stroke markers" d=" M 104.60254037844349 43.49999999999922 L 61.30127018922155 18.49999999999912" stroke-opacity="0.6980392156862745" stroke-linecap="round" stroke-linejoin="round" stroke-miterlimit="10" stroke-width="2.5"/><path fill="none" stroke="rgb(153,51,0)" paint-order="fill stroke markers" d=" M 61.30127018922155 18.49999999999912 L 17.999999999999545 43.499999999999204" stroke-opacity="0.6980392156862745" stroke-linecap="round" stroke-linejoin="round" stroke-miterlimit="10" stroke-width="2.5"/></g></g></svg>