<svg version="1.1" xmlns="http://www.w3.org/2000/svg" xmlns:xlink="http://www.w3.org/1999/xlink" width="394" height="209"><defs><clipPath id="xTJwINIbMuGN"><path fill="none" stroke="none" d=" M 0 0 L 394 0 L 394 209 L 0 209 L 0 0 Z"/></clipPath></defs><g transform="scale(1,1)" clip-path="url(#xTJwINIbMuGN)"><g><rect fill="rgb(255,255,255)" stroke="none" x="0" y="0" width="394" height="209" fill-opacity="1"/><path fill="rgb(153,51,0)" stroke="none" paint-order="stroke fill markers" fill-rule="evenodd" d=" M 21.99999999999954 43.499999999999204 L 21.99999999999954 93.49999999999937 L 65.3012701892215 118.49999999999946 L 108.60254037844346 93.49999999999937 L 108.60254037844348 43.49999999999922 L 65.30127018922154 18.49999999999912 Z" fill-opacity="0.09803921568627451"/><path fill="none" stroke="rgb(153,51,0)" paint-order="fill stroke markers" d=" M 21.99999999999954 43.499999999999204 L 21.99999999999954 93.49999999999937 L 65.3012701892215 118.49999999999946 L 108.60254037844346 93.49999999999937 L 108.60254037844348 43.49999999999922 L 65.30127018922154 18.49999999999912 Z" stroke-opacity="0.6980392156862745" stroke-linecap="round" stroke-linejoin="round" stroke-miterlimit="10" stroke-width="2.5"/><path fill="rgb(153,51,0)" stroke="none" paint-order="stroke fill markers" fill-rule="evenodd" d=" M 195.20508075688744 43.499999999999254 L 195.20508075688738 93.49999999999942 L 151.9038105676654 118.49999999999949 L 108.60254037844346 93.49999999999937 L 108.60254037844349 43.49999999999922 L 151.90381056766546 18.499999999999147 Z" fill-opacity="0.09803921568627451"/><path fill="none" stroke="rgb(153,51,0)" paint-order="fill stroke markers" d=" M 195.20508075688744 43.499999999999254 L 195.20508075688738 93.49999999999942 L 151.9038105676654 118.49999999999949 L 108.60254037844346 93.49999999999937 L 108.60254037844349 43.49999999999922 L 151.90381056766546 18.499999999999147 Z" stroke-opacity="0.6980392156862745" stroke-linecap="round" stroke-linejoin="round" stroke-miterlimit="10" stroke-width="2.5"/><path fill="rgb(153,51,0)" stroke="none" paint-order="stroke fill markers" fill-rule="evenodd" d=" M 108.60254037844341 193.49999999999974 L 65.30127018922147 168.49999999999963 L 65.3012701892215 118.49999999999946 L 108.60254037844346 93.49999999999939 L 151.9038105676654 118.49999999999949 L 151.9038105676654 168.49999999999966 Z" fill-opacity="0.09803921568627451"/><path fill="none" stroke="rgb(153,51,0)" paint-order="fill stroke markers" d=" M 108.60254037844341 193.49999999999974 L 65.30127018922147 168.49999999999963 L 65.3012701892215 118.49999999999946 L 108.60254037844346 93.49999999999939 L 151.9038105676654 118.49999999999949 L 151.9038105676654 168.49999999999966 Z" stroke-opacity="0.6980392156862745" stroke-linecap="round" stroke-linejoin="round" stroke-miterlimit="10" stroke-width="2.5"/><path fill="rgb(153,51,0)" stroke="none" paint-order="stroke fill markers" fill-rule="evenodd" d=" M 195.2050807568874 193.49999999999974 L 238.50635094610936 168.4999999999996 L 238.50635094610928 118.49999999999946 L 195.20508075688733 93.49999999999937 L 151.9038105676654 118.49999999999949 L 151.9038105676654 168.49999999999966 Z" fill-opacity="0.09803921568627451"/><path fill="none" stroke="rgb(153,51,0)" paint-order="fill stroke markers" d=" M 195.2050807568874 193.49999999999974 L 238.50635094610936 168.4999999999996 L 238.50635094610928 118.49999999999946 L 195.20508075688733 93.49999999999937 L 151.9038105676654 118.49999999999949 L 151.9038105676654 168.49999999999966 Z" stroke-opacity="0.6980392156862745" stroke-linecap="round" stroke-linejoin="round" stroke-miterlimit="10" stroke-width="2.5"/><path fill="rgb(153,51,0)" stroke="none" paint-order="stroke fill markers" fill-rule="evenodd" d=" M 325.1088913245532 118.49999999999945 L 281.80762113533126 93.49999999999936 L 238.50635094610928 118.49999999999945 L 238.50635094610928 168.49999999999963 L 281.80762113533126 193.49999999999972 L 325.1088913245532 168.49999999999966 Z" fill-opacity="0.09803921568627451"/><path fill="none" stroke="rgb(153,51,0)" paint-order="fill stroke markers" d=" M 325.1088913245532 118.49999999999945 L 281.80762113533126 93.49999999999936 L 238.50635094610928 118.49999999999945 L 238.50635094610928 168.49999999999963 L 281.80762113533126 193.49999999999972 L 325.1088913245532 168.49999999999966 Z" stroke-opacity="0.6980392156862745" stroke-linecap="round" stroke-linejoin="round" stroke-miterlimit="10" stroke-width="2.5"/><path fill="rgb(153,51,0)" stroke="none" paint-order="stroke fill markers" fill-rule="evenodd" d=" M 368.41016151377534 43.49999999999957 L 368.4101615137752 93.49999999999974 L 325.1088913245532 118.49999999999973 L 281.8076211353313 93.49999999999956 L 281.8076211353314 43.4999999999994 L 325.10889132455344 18.499999999999403 Z" fill-opacity="0.09803921568627451"/><path fill="none" stroke="rgb(153,51,0)" paint-order="fill stroke markers" d=" M 368.41016151377534 43.49999999999957 L 368.4101615137752 93.49999999999974 L 325.1088913245532 118.49999999999973 L 281.8076211353313 93.49999999999956 L 281.8076211353314 43.4999999999994 L 325.10889132455344 18.499999999999403 Z" stroke-opacity="0.6980392156862745" stroke-linecap="round" stroke-linejoin="round" stroke-miterlimit="10" stroke-width="2.5"/><path fill="none" stroke="rgb(153,51,0)" paint-order="fill stroke markers" d=" M 21.99999999999954 43.499999999999204 L 21.99999999999954 93.49999999999937" stroke-opacity="0.6980392156862745" stroke-linecap="round" stroke-linejoin="round" stroke-miterlimit="10" stroke-width="2.5"/><path fill="none" stroke="rgb(153,51,0)" paint-order="fill stroke markers" d=" M 21.99999999999954 93.49999999999937 L 65.3012701892215 118.49999999999946" stroke-opacity="0.6980392156862745" stroke-linecap="round" stroke-linejoin="round" stroke-miterlimit="10" stroke-width="2.5"/><path fill="none" stroke="rgb(153,51,0)" paint-order="fill stroke markers" d=" M 65.3012701892215 118.49999999999946 L 108.60254037844346 93.49999999999937" stroke-opacity="0.6980392156862745" stroke-linecap="round" stroke-linejoin="round" stroke-miterlimit="10" stroke-width="2.5"/><path fill="none" stroke="rgb(153,51,0)" paint-order="fill stroke markers" d=" M 108.60254037844346 93.49999999999937 L 108.60254037844348 43.49999999999922" stroke-opacity="0.6980392156862745" stroke-linecap="round" stroke-linejoin="round" stroke-miterlimit="10" stroke-width="2.5"/><path fill="none" stroke="rgb(153,51,0)" paint-order="fill stroke markers" d=" M 108.60254037844348 43.49999999999922 L 65.30127018922154 18.49999999999912" stroke-opacity="0.6980392156862745" stroke-linecap="round" stroke-linejoin="round" stroke-miterlimit="10" stroke-width="2.5"/><path fill="none" stroke="rgb(153,51,0)" paint-order="fill stroke markers" d=" M 65.30127018922154 18.49999999999912 L 21.99999999999954 43.499999999999204" stroke-opacity="0.6980392156862745" stroke-linecap="round" stroke-linejoin="round" stroke-miterlimit="10" stroke-width="2.5"/></g></g></svg>