<svg version="1.1" xmlns="http://www.w3.org/2000/svg" xmlns:xlink="http://www.w3.org/1999/xlink" width="544" height="123"><defs><clipPath id="AZwozFxdizLv"><path fill="none" stroke="none" d=" M 0 0 L 544 0 L 544 123 L 0 123 L 0 0 Z"/></clipPath></defs><g transform="scale(1,1)" clip-path="url(#AZwozFxdizLv)"><g><rect fill="rgb(255,255,255)" stroke="none" x="0" y="0" width="544" height="123" fill-opacity="1"/><path fill="rgb(153,51,0)" stroke="none" paint-order="stroke fill markers" fill-rule="evenodd" d=" M 10.000000000000012 41.99999999999972 L 10.000000000000012 91.99999999999999 L 53.301270189221974 117.00000000000011 L 96.60254037844395 91.99999999999999 L 96.60254037844396 41.99999999999974 L 53.301270189222016 16.999999999999588 Z" fill-opacity="0.09803921568627451"/><path fill="none" stroke="rgb(153,51,0)" paint-order="fill stroke markers" d=" M 10.000000000000012 41.99999999999972 L 10.000000000000012 91.99999999999999 L 53.301270189221974 117.00000000000011 L 96.60254037844395 91.99999999999999 L 96.60254037844396 41.99999999999974 L 53.301270189222016 16.999999999999588 Z" stroke-opacity="0.6980392156862745" stroke-linecap="round" stroke-linejoin="round" stroke-miterlimit="10" stroke-width="2.5"/><path fill="rgb(153,51,0)" stroke="none" paint-order="stroke fill markers" fill-rule="evenodd" d=" M 183.2050807568879 41.99999999999977 L 183.20508075688787 92.00000000000003 L 139.9038105676659 117.00000000000014 L 96.60254037844395 91.99999999999999 L 96.60254037844396 41.99999999999974 L 139.90381056766591 16.999999999999616 Z" fill-opacity="0.09803921568627451"/><path fill="none" stroke="rgb(153,51,0)" paint-order="fill stroke markers" d=" M 183.2050807568879 41.99999999999977 L 183.20508075688787 92.00000000000003 L 139.9038105676659 117.00000000000014 L 96.60254037844395 91.99999999999999 L 96.60254037844396 41.99999999999974 L 139.90381056766591 16.999999999999616 Z" stroke-opacity="0.6980392156862745" stroke-linecap="round" stroke-linejoin="round" stroke-miterlimit="10" stroke-width="2.5"/><path fill="rgb(153,51,0)" stroke="none" paint-order="stroke fill markers" fill-rule="evenodd" d=" M 356.41016151377585 42.00000000000011 L 356.41016151377573 92.00000000000037 L 399.7114317029977 117.00000000000065 L 443.0127018922197 92.00000000000061 L 443.01270189221987 42.00000000000031 L 399.7114317029979 17.000000000000043 Z" fill-opacity="0.09803921568627451"/><path fill="none" stroke="rgb(153,51,0)" paint-order="fill stroke markers" d=" M 356.41016151377585 42.00000000000011 L 356.41016151377573 92.00000000000037 L 399.7114317029977 117.00000000000065 L 443.0127018922197 92.00000000000061 L 443.01270189221987 42.00000000000031 L 399.7114317029979 17.000000000000043 Z" stroke-opacity="0.6980392156862745" stroke-linecap="round" stroke-linejoin="round" stroke-miterlimit="10" stroke-width="2.5"/><path fill="none" stroke="rgb(153,51,0)" paint-order="fill stroke markers" d=" M 443.01270189221987 42.00000000000041 L 443.0127018922197 92.00000000000067 L 486.3139720814416 117.00000000000097 L 529.6152422706637 92.00000000000097 L 529.6152422706639 42.0000000000007 L 486.31397208144193 17.000000000000398 Z" stroke-opacity="0.6980392156862745" stroke-linecap="round" stroke-linejoin="round" stroke-miterlimit="10" stroke-width="2.5"/><path fill="none" stroke="rgb(153,51,0)" paint-order="fill stroke markers" d=" M 443.0127018922197 92.00000000000067 L 486.3139720814416 117.00000000000097" stroke-opacity="0.6980392156862745" stroke-linecap="round" stroke-linejoin="round" stroke-miterlimit="10" stroke-width="2.5"/><path fill="none" stroke="rgb(153,51,0)" paint-order="fill stroke markers" d=" M 486.3139720814416 117.00000000000097 L 529.6152422706637 92.00000000000097" stroke-opacity="0.6980392156862745" stroke-linecap="round" stroke-linejoin="round" stroke-miterlimit="10" stroke-width="2.5"/><path fill="none" stroke="rgb(153,51,0)" paint-order="fill stroke markers" d=" M 529.6152422706637 92.00000000000097 L 529.6152422706639 42.0000000000007" stroke-opacity="0.6980392156862745" stroke-linecap="round" stroke-linejoin="round" stroke-miterlimit="10" stroke-width="2.5"/><path fill="none" stroke="rgb(153,51,0)" paint-order="fill stroke markers" d=" M 529.6152422706639 42.0000000000007 L 486.31397208144193 17.000000000000398" stroke-opacity="0.6980392156862745" stroke-linecap="round" stroke-linejoin="round" stroke-miterlimit="10" stroke-width="2.5"/><path fill="none" stroke="rgb(153,51,0)" paint-order="fill stroke markers" d=" M 486.31397208144193 17.000000000000398 L 443.01270189221987 42.00000000000041" stroke-opacity="0.6980392156862745" stroke-linecap="round" stroke-linejoin="round" stroke-miterlimit="10" stroke-width="2.5"/></g></g></svg>