<svg version="1.1" xmlns="http://www.w3.org/2000/svg" xmlns:xlink="http://www.w3.org/1999/xlink" width="637" height="267"><defs><clipPath id="AAWMTkddlFKq"><path fill="none" stroke="none" d=" M 0 0 L 637 0 L 637 267 L 0 267 L 0 0 Z"/></clipPath></defs><g transform="scale(1,1)" clip-path="url(#AAWMTkddlFKq)"><g><rect fill="rgb(255,255,255)" stroke="none" x="0" y="0" width="637" height="267" fill-opacity="1"/><path fill="rgb(153,51,0)" stroke="none" paint-order="stroke fill markers" fill-rule="evenodd" d=" M 12.999999999999996 35.999999999999744 L 12.999999999999996 86 L 56.30127018922195 111.00000000000013 L 99.60254037844393 86 L 99.60254037844395 35.99999999999976 L 56.301270189221995 10.999999999999616 Z" fill-opacity="0.09803921568627451"/><path fill="none" stroke="rgb(153,51,0)" paint-order="fill stroke markers" d=" M 12.999999999999996 35.999999999999744 L 12.999999999999996 86 L 56.30127018922195 111.00000000000013 L 99.60254037844393 86 L 99.60254037844395 35.99999999999976 L 56.301270189221995 10.999999999999616 Z" stroke-opacity="0.6980392156862745" stroke-linecap="round" stroke-linejoin="round" stroke-miterlimit="10" stroke-width="2.5"/><path fill="rgb(153,51,0)" stroke="none" paint-order="stroke fill markers" fill-rule="evenodd" d=" M 186.2050807568879 35.999999999999794 L 186.20508075688787 86.00000000000004 L 142.9038105676659 111.00000000000014 L 99.60254037844393 86 L 99.60254037844395 35.99999999999976 L 142.90381056766591 10.999999999999645 Z" fill-opacity="0.09803921568627451"/><path fill="none" stroke="rgb(153,51,0)" paint-order="fill stroke markers" d=" M 186.2050807568879 35.999999999999794 L 186.20508075688787 86.00000000000004 L 142.9038105676659 111.00000000000014 L 99.60254037844393 86 L 99.60254037844395 35.99999999999976 L 142.90381056766591 10.999999999999645 Z" stroke-opacity="0.6980392156862745" stroke-linecap="round" stroke-linejoin="round" stroke-miterlimit="10" stroke-width="2.5"/><path fill="none" stroke="rgb(153,51,0)" paint-order="fill stroke markers" d=" M 186.20508075688792 35.999999999999794 L 186.20508075688787 86.00000000000004 L 229.50635094610982 111.00000000000024 L 272.8076211353318 86.00000000000018 L 272.8076211353319 35.99999999999994 L 229.50635094610993 10.99999999999973 Z" stroke-opacity="0.6980392156862745" stroke-linecap="round" stroke-linejoin="round" stroke-miterlimit="10" stroke-width="2.5"/><path fill="rgb(153,51,0)" stroke="none" paint-order="stroke fill markers" fill-rule="evenodd" d=" M 359.41016151377585 36.00000000000013 L 359.41016151377573 86.00000000000038 L 402.7114317029977 111.00000000000067 L 446.0127018922197 86.00000000000063 L 446.01270189221987 36.000000000000334 L 402.7114317029979 11.000000000000071 Z" fill-opacity="0.09803921568627451"/><path fill="none" stroke="rgb(153,51,0)" paint-order="fill stroke markers" d=" M 359.41016151377585 36.00000000000013 L 359.41016151377573 86.00000000000038 L 402.7114317029977 111.00000000000067 L 446.0127018922197 86.00000000000063 L 446.01270189221987 36.000000000000334 L 402.7114317029979 11.000000000000071 Z" stroke-opacity="0.6980392156862745" stroke-linecap="round" stroke-linejoin="round" stroke-miterlimit="10" stroke-width="2.5"/><path fill="none" stroke="rgb(153,51,0)" paint-order="fill stroke markers" d=" M 446.01270189221987 36.00000000000043 L 446.0127018922197 86.00000000000068 L 489.3139720814416 111.00000000000098 L 532.6152422706637 86.00000000000098 L 532.6152422706639 36.000000000000725 L 489.31397208144193 11.000000000000426 Z" stroke-opacity="0.6980392156862745" stroke-linecap="round" stroke-linejoin="round" stroke-miterlimit="10" stroke-width="2.5"/><path fill="rgb(153,51,0)" stroke="none" paint-order="stroke fill markers" fill-rule="evenodd" d=" M 532.6152422706641 36.00000000000075 L 532.6152422706639 86.00000000000101 L 575.9165124598858 111.00000000000144 L 619.2177826491079 86.00000000000148 L 619.2177826491081 36.00000000000118 L 575.9165124598862 11.000000000000796 Z" fill-opacity="0.09803921568627451"/><path fill="none" stroke="rgb(153,51,0)" paint-order="fill stroke markers" d=" M 532.6152422706641 36.00000000000075 L 532.6152422706639 86.00000000000101 L 575.9165124598858 111.00000000000144 L 619.2177826491079 86.00000000000148 L 619.2177826491081 36.00000000000118 L 575.9165124598862 11.000000000000796 Z" stroke-opacity="0.6980392156862745" stroke-linecap="round" stroke-linejoin="round" stroke-miterlimit="10" stroke-width="2.5"/><path fill="none" stroke="rgb(153,51,0)" paint-order="fill stroke markers" d=" M 532.6152422706633 186.0000000000016 L 532.6152422706631 236.0000000000018 L 575.9165124598851 261.00000000000216 L 619.2177826491071 236.00000000000213 L 619.2177826491073 186.00000000000188 L 575.9165124598854 161.00000000000165 Z" stroke-opacity="0.6980392156862745" stroke-linecap="round" stroke-linejoin="round" stroke-miterlimit="10" stroke-width="2.5"/><path fill="rgb(153,51,0)" stroke="none" paint-order="stroke fill markers" fill-rule="evenodd" d=" M 532.6152422706635 186.00000000000153 L 489.31397208144205 161.0000000000004 L 446.0127018922195 185.99999999999957 L 446.01270189221844 235.99999999999983 L 489.31397208143983 261.0000000000009 L 532.6152422706624 236.0000000000017 Z" fill-opacity="0.09803921568627451"/><path fill="none" stroke="rgb(153,51,0)" paint-order="fill stroke markers" d=" M 532.6152422706635 186.00000000000153 L 489.31397208144205 161.0000000000004 L 446.0127018922195 185.99999999999957 L 446.01270189221844 235.99999999999983 L 489.31397208143983 261.0000000000009 L 532.6152422706624 236.0000000000017 Z" stroke-opacity="0.6980392156862745" stroke-linecap="round" stroke-linejoin="round" stroke-miterlimit="10" stroke-width="2.5"/><path fill="rgb(153,51,0)" stroke="none" paint-order="stroke fill markers" fill-rule="evenodd" d=" M 446.0127018922195 186.0000000000013 L 402.7114317029977 161.0000000000009 L 359.4101615137755 186.00000000000063 L 359.4101615137751 236.00000000000094 L 402.7114317029969 261.0000000000016 L 446.01270189221907 236.00000000000165 Z" fill-opacity="0.09803921568627451"/><path fill="none" stroke="rgb(153,51,0)" paint-order="fill stroke markers" d=" M 446.0127018922195 186.0000000000013 L 402.7114317029977 161.0000000000009 L 359.4101615137755 186.00000000000063 L 359.4101615137751 236.00000000000094 L 402.7114317029969 261.0000000000016 L 446.01270189221907 236.00000000000165 Z" stroke-opacity="0.6980392156862745" stroke-linecap="round" stroke-linejoin="round" stroke-miterlimit="10" stroke-width="2.5"/><path fill="none" stroke="rgb(153,51,0)" paint-order="fill stroke markers" d=" M 446.0127018922197 86.00000000000068 L 489.3139720814416 111.00000000000098" stroke-opacity="0.6980392156862745" stroke-linecap="round" stroke-linejoin="round" stroke-miterlimit="10" stroke-width="2.5"/><path fill="none" stroke="rgb(153,51,0)" paint-order="fill stroke markers" d=" M 489.3139720814416 111.00000000000098 L 532.6152422706637 86.00000000000098" stroke-opacity="0.6980392156862745" stroke-linecap="round" stroke-linejoin="round" stroke-miterlimit="10" stroke-width="2.5"/><path fill="none" stroke="rgb(153,51,0)" paint-order="fill stroke markers" d=" M 532.6152422706637 86.00000000000098 L 532.6152422706639 36.000000000000725" stroke-opacity="0.6980392156862745" stroke-linecap="round" stroke-linejoin="round" stroke-miterlimit="10" stroke-width="2.5"/><path fill="none" stroke="rgb(153,51,0)" paint-order="fill stroke markers" d=" M 532.6152422706639 36.000000000000725 L 489.31397208144193 11.000000000000426" stroke-opacity="0.6980392156862745" stroke-linecap="round" stroke-linejoin="round" stroke-miterlimit="10" stroke-width="2.5"/><path fill="none" stroke="rgb(153,51,0)" paint-order="fill stroke markers" d=" M 489.31397208144193 11.000000000000426 L 446.01270189221987 36.00000000000043" stroke-opacity="0.6980392156862745" stroke-linecap="round" stroke-linejoin="round" stroke-miterlimit="10" stroke-width="2.5"/><path fill="none" stroke="rgb(153,51,0)" paint-order="fill stroke markers" d=" M 532.6152422706641 36.00000000000075 L 532.6152422706639 86.00000000000101" stroke-opacity="0.6980392156862745" stroke-linecap="round" stroke-linejoin="round" stroke-miterlimit="10" stroke-width="2.5"/><path fill="none" stroke="rgb(153,51,0)" paint-order="fill stroke markers" d=" M 532.6152422706639 86.00000000000101 L 575.9165124598858 111.00000000000144" stroke-opacity="0.6980392156862745" stroke-linecap="round" stroke-linejoin="round" stroke-miterlimit="10" stroke-width="2.5"/><path fill="none" stroke="rgb(153,51,0)" paint-order="fill stroke markers" d=" M 575.9165124598858 111.00000000000144 L 619.2177826491079 86.00000000000148" stroke-opacity="0.6980392156862745" stroke-linecap="round" stroke-linejoin="round" stroke-miterlimit="10" stroke-width="2.5"/><path fill="none" stroke="rgb(153,51,0)" paint-order="fill stroke markers" d=" M 619.2177826491079 86.00000000000148 L 619.2177826491081 36.00000000000118" stroke-opacity="0.6980392156862745" stroke-linecap="round" stroke-linejoin="round" stroke-miterlimit="10" stroke-width="2.5"/></g></g></svg>