<svg version="1.1" xmlns="http://www.w3.org/2000/svg" xmlns:xlink="http://www.w3.org/1999/xlink" width="342" height="197"><defs><clipPath id="nUvUBtsTKrlR"><path fill="none" stroke="none" d=" M 0 0 L 342 0 L 342 197 L 0 197 L 0 0 Z"/></clipPath></defs><g transform="scale(1,1)" clip-path="url(#nUvUBtsTKrlR)"><g><rect fill="rgb(255,255,255)" stroke="none" x="0" y="0" width="342" height="197" fill-opacity="1"/><path fill="rgb(153,51,0)" stroke="none" paint-order="stroke fill markers" fill-rule="evenodd" d=" M 144.2050807568879 36.99999999999977 L 144.20508075688787 87.00000000000003 L 100.90381056766589 112.00000000000014 L 57.60254037844393 86.99999999999999 L 57.60254037844395 36.99999999999974 L 100.90381056766591 11.999999999999616 Z" fill-opacity="0.09803921568627451"/><path fill="none" stroke="rgb(153,51,0)" paint-order="fill stroke markers" d=" M 144.2050807568879 36.99999999999977 L 144.20508075688787 87.00000000000003 L 100.90381056766589 112.00000000000014 L 57.60254037844393 86.99999999999999 L 57.60254037844395 36.99999999999974 L 100.90381056766591 11.999999999999616 Z" stroke-opacity="0.6980392156862745" stroke-linecap="round" stroke-linejoin="round" stroke-miterlimit="10" stroke-width="2.5"/><path fill="rgb(153,51,0)" stroke="none" paint-order="stroke fill markers" fill-rule="evenodd" d=" M 57.60254037844388 187.00000000000054 L 14.301270189221928 162.0000000000004 L 14.301270189221963 112.00000000000013 L 57.60254037844393 87 L 100.90381056766589 112.00000000000014 L 100.90381056766589 162.0000000000004 Z" fill-opacity="0.047058823529411764"/><path fill="none" stroke="rgb(153,51,0)" paint-order="fill stroke markers" d=" M 57.60254037844388 187.00000000000054 L 14.301270189221928 162.0000000000004 L 14.301270189221963 112.00000000000013 L 57.60254037844393 87 L 100.90381056766589 112.00000000000014 L 100.90381056766589 162.0000000000004 Z" stroke-opacity="0.6980392156862745" stroke-linecap="round" stroke-linejoin="round" stroke-miterlimit="10" stroke-width="2.5"/><path fill="rgb(153,51,0)" stroke="none" paint-order="stroke fill markers" fill-rule="evenodd" d=" M 144.2050807568879 187.00000000000054 L 187.50635094610985 162.00000000000037 L 187.50635094610976 112.00000000000011 L 144.2050807568878 86.99999999999999 L 100.90381056766589 112.00000000000014 L 100.90381056766589 162.0000000000004 Z" fill-opacity="0.047058823529411764"/><path fill="none" stroke="rgb(153,51,0)" paint-order="fill stroke markers" d=" M 144.2050807568879 187.00000000000054 L 187.50635094610985 162.00000000000037 L 187.50635094610976 112.00000000000011 L 144.2050807568878 86.99999999999999 L 100.90381056766589 112.00000000000014 L 100.90381056766589 162.0000000000004 Z" stroke-opacity="0.6980392156862745" stroke-linecap="round" stroke-linejoin="round" stroke-miterlimit="10" stroke-width="2.5"/><path fill="rgb(153,51,0)" stroke="none" paint-order="stroke fill markers" fill-rule="evenodd" d=" M 274.10889132455367 112.0000000000001 L 230.80762113533177 86.99999999999997 L 187.50635094610976 112.0000000000001 L 187.50635094610976 162.0000000000004 L 230.80762113533177 187.0000000000005 L 274.10889132455367 162.0000000000004 Z" fill-opacity="0.09803921568627451"/><path fill="none" stroke="rgb(153,51,0)" paint-order="fill stroke markers" d=" M 274.10889132455367 112.0000000000001 L 230.80762113533177 86.99999999999997 L 187.50635094610976 112.0000000000001 L 187.50635094610976 162.0000000000004 L 230.80762113533177 187.0000000000005 L 274.10889132455367 162.0000000000004 Z" stroke-opacity="0.6980392156862745" stroke-linecap="round" stroke-linejoin="round" stroke-miterlimit="10" stroke-width="2.5"/><path fill="rgb(153,51,0)" stroke="none" paint-order="stroke fill markers" fill-rule="evenodd" d=" M 317.4101615137758 37.000000000000085 L 317.41016151377573 87.00000000000036 L 274.1088913245537 112.0000000000004 L 230.80762113533177 87.00000000000017 L 230.80762113533189 36.99999999999992 L 274.1088913245539 11.999999999999872 Z" fill-opacity="0.09803921568627451"/><path fill="none" stroke="rgb(153,51,0)" paint-order="fill stroke markers" d=" M 317.4101615137758 37.000000000000085 L 317.41016151377573 87.00000000000036 L 274.1088913245537 112.0000000000004 L 230.80762113533177 87.00000000000017 L 230.80762113533189 36.99999999999992 L 274.1088913245539 11.999999999999872 Z" stroke-opacity="0.6980392156862745" stroke-linecap="round" stroke-linejoin="round" stroke-miterlimit="10" stroke-width="2.5"/><path fill="rgb(153,51,0)" stroke="none" paint-order="stroke fill markers" fill-rule="evenodd" d=" M 144.20508075688792 36.99999999999977 L 144.20508075688787 87.00000000000003 L 187.50635094610982 112.00000000000023 L 230.80762113533177 87.00000000000017 L 230.80762113533189 36.99999999999992 L 187.50635094610993 11.999999999999702 Z" fill-opacity="0.047058823529411764"/><path fill="none" stroke="rgb(153,51,0)" paint-order="fill stroke markers" d=" M 144.20508075688792 36.99999999999977 L 144.20508075688787 87.00000000000003 L 187.50635094610982 112.00000000000023 L 230.80762113533177 87.00000000000017 L 230.80762113533189 36.99999999999992 L 187.50635094610993 11.999999999999702 Z" stroke-opacity="0.6980392156862745" stroke-linecap="round" stroke-linejoin="round" stroke-miterlimit="10" stroke-width="2.5"/></g></g></svg>