<svg version="1.1" xmlns="http://www.w3.org/2000/svg" xmlns:xlink="http://www.w3.org/1999/xlink" width="291" height="196"><defs><clipPath id="KnqmhLIDXPUk"><path fill="none" stroke="none" d=" M 0 0 L 291 0 L 291 196 L 0 196 L 0 0 Z"/></clipPath></defs><g transform="scale(1,1)" clip-path="url(#KnqmhLIDXPUk)"><g><rect fill="rgb(255,255,255)" stroke="none" x="0" y="0" width="291" height="196" fill-opacity="1"/><path fill="rgb(153,51,0)" stroke="none" paint-order="stroke fill markers" fill-rule="evenodd" d=" M 101.20508075688785 38.99999999999979 L 101.20508075688782 89.00000000000004 L 57.90381056766584 114.00000000000016 L 14.60254037844389 89 L 14.602540378443905 38.99999999999975 L 57.90381056766587 13.99999999999963 Z" fill-opacity="0.09803921568627451"/><path fill="none" stroke="rgb(153,51,0)" paint-order="fill stroke markers" d=" M 101.20508075688785 38.99999999999979 L 101.20508075688782 89.00000000000004 L 57.90381056766584 114.00000000000016 L 14.60254037844389 89 L 14.602540378443905 38.99999999999975 L 57.90381056766587 13.99999999999963 Z" stroke-opacity="0.6980392156862745" stroke-linecap="round" stroke-linejoin="round" stroke-miterlimit="10" stroke-width="2.5"/><path fill="rgb(153,51,0)" stroke="none" paint-order="stroke fill markers" fill-rule="evenodd" d=" M 101.20508075688785 189.00000000000057 L 144.50635094610982 164.0000000000004 L 144.5063509461097 114.00000000000013 L 101.20508075688777 89 L 57.90381056766584 114.00000000000016 L 57.90381056766584 164.0000000000004 Z" fill-opacity="0.047058823529411764"/><path fill="none" stroke="rgb(153,51,0)" paint-order="fill stroke markers" d=" M 101.20508075688785 189.00000000000057 L 144.50635094610982 164.0000000000004 L 144.5063509461097 114.00000000000013 L 101.20508075688777 89 L 57.90381056766584 114.00000000000016 L 57.90381056766584 164.0000000000004 Z" stroke-opacity="0.6980392156862745" stroke-linecap="round" stroke-linejoin="round" stroke-miterlimit="10" stroke-width="2.5"/><path fill="rgb(153,51,0)" stroke="none" paint-order="stroke fill markers" fill-rule="evenodd" d=" M 231.1088913245536 114.00000000000011 L 187.80762113533171 88.99999999999999 L 144.5063509461097 114.00000000000011 L 144.5063509461097 164.0000000000004 L 187.80762113533171 189.0000000000005 L 231.1088913245536 164.0000000000004 Z" fill-opacity="0.09803921568627451"/><path fill="none" stroke="rgb(153,51,0)" paint-order="fill stroke markers" d=" M 231.1088913245536 114.00000000000011 L 187.80762113533171 88.99999999999999 L 144.5063509461097 114.00000000000011 L 144.5063509461097 164.0000000000004 L 187.80762113533171 189.0000000000005 L 231.1088913245536 164.0000000000004 Z" stroke-opacity="0.6980392156862745" stroke-linecap="round" stroke-linejoin="round" stroke-miterlimit="10" stroke-width="2.5"/><path fill="rgb(153,51,0)" stroke="none" paint-order="stroke fill markers" fill-rule="evenodd" d=" M 274.41016151377573 39.0000000000001 L 274.4101615137757 89.00000000000037 L 231.10889132455367 114.0000000000004 L 187.80762113533171 89.00000000000018 L 187.80762113533183 38.999999999999936 L 231.10889132455384 13.999999999999886 Z" fill-opacity="0.09803921568627451"/><path fill="none" stroke="rgb(153,51,0)" paint-order="fill stroke markers" d=" M 274.41016151377573 39.0000000000001 L 274.4101615137757 89.00000000000037 L 231.10889132455367 114.0000000000004 L 187.80762113533171 89.00000000000018 L 187.80762113533183 38.999999999999936 L 231.10889132455384 13.999999999999886 Z" stroke-opacity="0.6980392156862745" stroke-linecap="round" stroke-linejoin="round" stroke-miterlimit="10" stroke-width="2.5"/></g></g></svg>