<svg version="1.1" xmlns="http://www.w3.org/2000/svg" xmlns:xlink="http://www.w3.org/1999/xlink" width="384" height="199"><defs><clipPath id="IDlCfRepcawF"><path fill="none" stroke="none" d=" M 0 0 L 384 0 L 384 199 L 0 199 L 0 0 Z"/></clipPath></defs><g transform="scale(1,1)" clip-path="url(#IDlCfRepcawF)"><g><rect fill="rgb(255,255,255)" stroke="none" x="0" y="0" width="384" height="199" fill-opacity="1"/><path fill="rgb(153,51,0)" stroke="none" paint-order="stroke fill markers" fill-rule="evenodd" d=" M 17.99999999999955 40.49999999999936 L 17.99999999999955 90.49999999999955 L 61.30127018922151 115.49999999999963 L 104.60254037844348 90.49999999999955 L 104.60254037844349 40.499999999999375 L 61.301270189221555 15.499999999999261 Z" fill-opacity="0.047058823529411764"/><path fill="none" stroke="rgb(153,51,0)" paint-order="fill stroke markers" d=" M 17.99999999999955 40.49999999999936 L 17.99999999999955 90.49999999999955 L 61.30127018922151 115.49999999999963 L 104.60254037844348 90.49999999999955 L 104.60254037844349 40.499999999999375 L 61.301270189221555 15.499999999999261 Z" stroke-opacity="0.6980392156862745" stroke-linecap="round" stroke-linejoin="round" stroke-miterlimit="10" stroke-width="2.5"/><path fill="rgb(153,51,0)" stroke="none" paint-order="stroke fill markers" fill-rule="evenodd" d=" M 104.60254037844342 190.49999999999994 L 61.30127018922148 165.49999999999983 L 61.30127018922151 115.49999999999964 L 104.60254037844348 90.49999999999956 L 147.90381056766543 115.49999999999966 L 147.90381056766543 165.49999999999983 Z" fill-opacity="0.047058823529411764"/><path fill="none" stroke="rgb(153,51,0)" paint-order="fill stroke markers" d=" M 104.60254037844342 190.49999999999994 L 61.30127018922148 165.49999999999983 L 61.30127018922151 115.49999999999964 L 104.60254037844348 90.49999999999956 L 147.90381056766543 115.49999999999966 L 147.90381056766543 165.49999999999983 Z" stroke-opacity="0.6980392156862745" stroke-linecap="round" stroke-linejoin="round" stroke-miterlimit="10" stroke-width="2.5"/><path fill="none" stroke="rgb(153,51,0)" paint-order="fill stroke markers" d=" M 191.20508075688744 190.49999999999994 L 234.5063509461094 165.49999999999983 L 234.5063509461093 115.49999999999963 L 191.20508075688736 90.49999999999955 L 147.90381056766543 115.49999999999966 L 147.90381056766543 165.49999999999983 Z" stroke-opacity="0.6980392156862745" stroke-linecap="round" stroke-linejoin="round" stroke-miterlimit="10" stroke-width="2.5"/><path fill="rgb(153,51,0)" stroke="none" paint-order="stroke fill markers" fill-rule="evenodd" d=" M 321.1088913245532 115.49999999999962 L 277.8076211353313 90.49999999999953 L 234.5063509461093 115.49999999999963 L 234.5063509461093 165.49999999999983 L 277.8076211353313 190.49999999999991 L 321.1088913245532 165.49999999999983 Z" fill-opacity="0.09803921568627451"/><path fill="none" stroke="rgb(153,51,0)" paint-order="fill stroke markers" d=" M 321.1088913245532 115.49999999999962 L 277.8076211353313 90.49999999999953 L 234.5063509461093 115.49999999999963 L 234.5063509461093 165.49999999999983 L 277.8076211353313 190.49999999999991 L 321.1088913245532 165.49999999999983 Z" stroke-opacity="0.6980392156862745" stroke-linecap="round" stroke-linejoin="round" stroke-miterlimit="10" stroke-width="2.5"/><path fill="rgb(153,51,0)" stroke="none" paint-order="stroke fill markers" fill-rule="evenodd" d=" M 364.41016151377534 40.49999999999972 L 364.4101615137753 90.49999999999991 L 321.10889132455327 115.49999999999991 L 277.8076211353313 90.49999999999973 L 277.80762113533143 40.49999999999956 L 321.10889132455344 15.499999999999545 Z" fill-opacity="0.09803921568627451"/><path fill="none" stroke="rgb(153,51,0)" paint-order="fill stroke markers" d=" M 364.41016151377534 40.49999999999972 L 364.4101615137753 90.49999999999991 L 321.10889132455327 115.49999999999991 L 277.8076211353313 90.49999999999973 L 277.80762113533143 40.49999999999956 L 321.10889132455344 15.499999999999545 Z" stroke-opacity="0.6980392156862745" stroke-linecap="round" stroke-linejoin="round" stroke-miterlimit="10" stroke-width="2.5"/><path fill="rgb(153,51,0)" stroke="none" paint-order="stroke fill markers" fill-rule="evenodd" d=" M 191.20508075688747 40.49999999999941 L 191.2050807568874 90.49999999999959 L 234.50635094610936 115.49999999999974 L 277.8076211353313 90.49999999999973 L 277.80762113533143 40.49999999999956 L 234.50635094610948 15.499999999999375 Z" fill-opacity="0.047058823529411764"/><path fill="none" stroke="rgb(153,51,0)" paint-order="fill stroke markers" d=" M 191.20508075688747 40.49999999999941 L 191.2050807568874 90.49999999999959 L 234.50635094610936 115.49999999999974 L 277.8076211353313 90.49999999999973 L 277.80762113533143 40.49999999999956 L 234.50635094610948 15.499999999999375 Z" stroke-opacity="0.6980392156862745" stroke-linecap="round" stroke-linejoin="round" stroke-miterlimit="10" stroke-width="2.5"/><path fill="none" stroke="rgb(153,51,0)" paint-order="fill stroke markers" d=" M 17.99999999999955 40.49999999999936 L 17.99999999999955 90.49999999999955" stroke-opacity="0.6980392156862745" stroke-linecap="round" stroke-linejoin="round" stroke-miterlimit="10" stroke-width="2.5"/><path fill="none" stroke="rgb(153,51,0)" paint-order="fill stroke markers" d=" M 17.99999999999955 90.49999999999955 L 61.30127018922151 115.49999999999963" stroke-opacity="0.6980392156862745" stroke-linecap="round" stroke-linejoin="round" stroke-miterlimit="10" stroke-width="2.5"/><path fill="none" stroke="rgb(153,51,0)" paint-order="fill stroke markers" d=" M 61.30127018922151 115.49999999999963 L 104.60254037844348 90.49999999999955" stroke-opacity="0.6980392156862745" stroke-linecap="round" stroke-linejoin="round" stroke-miterlimit="10" stroke-width="2.5"/><path fill="none" stroke="rgb(153,51,0)" paint-order="fill stroke markers" d=" M 104.60254037844348 90.49999999999955 L 104.60254037844349 40.499999999999375" stroke-opacity="0.6980392156862745" stroke-linecap="round" stroke-linejoin="round" stroke-miterlimit="10" stroke-width="2.5"/><path fill="none" stroke="rgb(153,51,0)" paint-order="fill stroke markers" d=" M 104.60254037844349 40.499999999999375 L 61.301270189221555 15.499999999999261" stroke-opacity="0.6980392156862745" stroke-linecap="round" stroke-linejoin="round" stroke-miterlimit="10" stroke-width="2.5"/><path fill="none" stroke="rgb(153,51,0)" paint-order="fill stroke markers" d=" M 61.301270189221555 15.499999999999261 L 17.99999999999955 40.49999999999936" stroke-opacity="0.6980392156862745" stroke-linecap="round" stroke-linejoin="round" stroke-miterlimit="10" stroke-width="2.5"/></g></g></svg>