<svg version="1.1" xmlns="http://www.w3.org/2000/svg" xmlns:xlink="http://www.w3.org/1999/xlink" width="654" height="204"><defs><clipPath id="QyZTyTkWuAsk"><path fill="none" stroke="none" d=" M 0 0 L 654 0 L 654 204 L 0 204 L 0 0 Z"/></clipPath></defs><g transform="scale(1,1)" clip-path="url(#QyZTyTkWuAsk)"><g><rect fill="rgb(255,255,255)" stroke="none" x="0" y="0" width="654" height="204" fill-opacity="1"/><path fill="rgb(153,51,0)" stroke="none" paint-order="stroke fill markers" fill-rule="evenodd" d=" M 12.999999999999996 41.9999999999998 L 12.999999999999996 92.00000000000003 L 56.30127018922195 117.00000000000014 L 99.60254037844393 92.00000000000003 L 99.60254037844395 41.999999999999815 L 56.301270189221995 16.999999999999687 Z" fill-opacity="0.047058823529411764"/><path fill="none" stroke="rgb(153,51,0)" paint-order="fill stroke markers" d=" M 12.999999999999996 41.9999999999998 L 12.999999999999996 92.00000000000003 L 56.30127018922195 117.00000000000014 L 99.60254037844393 92.00000000000003 L 99.60254037844395 41.999999999999815 L 56.301270189221995 16.999999999999687 Z" stroke-opacity="0.6980392156862745" stroke-linecap="round" stroke-linejoin="round" stroke-miterlimit="10" stroke-width="2.5"/><path fill="rgb(153,51,0)" stroke="none" paint-order="stroke fill markers" fill-rule="evenodd" d=" M 186.2050807568879 41.99999999999985 L 186.20508075688787 92.00000000000007 L 142.9038105676659 117.00000000000017 L 99.60254037844393 92.00000000000003 L 99.60254037844395 41.999999999999815 L 142.90381056766591 16.999999999999716 Z" fill-opacity="0.09803921568627451"/><path fill="none" stroke="rgb(153,51,0)" paint-order="fill stroke markers" d=" M 186.2050807568879 41.99999999999985 L 186.20508075688787 92.00000000000007 L 142.9038105676659 117.00000000000017 L 99.60254037844393 92.00000000000003 L 99.60254037844395 41.999999999999815 L 142.90381056766591 16.999999999999716 Z" stroke-opacity="0.6980392156862745" stroke-linecap="round" stroke-linejoin="round" stroke-miterlimit="10" stroke-width="2.5"/><path fill="rgb(153,51,0)" stroke="none" paint-order="stroke fill markers" fill-rule="evenodd" d=" M 99.60254037844388 192.0000000000005 L 56.301270189221924 167.00000000000037 L 56.30127018922197 117.00000000000014 L 99.60254037844393 92.00000000000004 L 142.9038105676659 117.00000000000017 L 142.9038105676659 167.0000000000004 Z" fill-opacity="0.047058823529411764"/><path fill="none" stroke="rgb(153,51,0)" paint-order="fill stroke markers" d=" M 99.60254037844388 192.0000000000005 L 56.301270189221924 167.00000000000037 L 56.30127018922197 117.00000000000014 L 99.60254037844393 92.00000000000004 L 142.9038105676659 117.00000000000017 L 142.9038105676659 167.0000000000004 Z" stroke-opacity="0.6980392156862745" stroke-linecap="round" stroke-linejoin="round" stroke-miterlimit="10" stroke-width="2.5"/><path fill="rgb(153,51,0)" stroke="none" paint-order="stroke fill markers" fill-rule="evenodd" d=" M 186.2050807568879 192.0000000000005 L 229.50635094610985 167.00000000000034 L 229.50635094610976 117.00000000000014 L 186.2050807568878 92.00000000000003 L 142.9038105676659 117.00000000000017 L 142.9038105676659 167.0000000000004 Z" fill-opacity="0.047058823529411764"/><path fill="none" stroke="rgb(153,51,0)" paint-order="fill stroke markers" d=" M 186.2050807568879 192.0000000000005 L 229.50635094610985 167.00000000000034 L 229.50635094610976 117.00000000000014 L 186.2050807568878 92.00000000000003 L 142.9038105676659 117.00000000000017 L 142.9038105676659 167.0000000000004 Z" stroke-opacity="0.6980392156862745" stroke-linecap="round" stroke-linejoin="round" stroke-miterlimit="10" stroke-width="2.5"/><path fill="rgb(153,51,0)" stroke="none" paint-order="stroke fill markers" fill-rule="evenodd" d=" M 186.20508075688792 41.99999999999985 L 186.20508075688787 92.00000000000007 L 229.50635094610982 117.00000000000026 L 272.8076211353318 92.00000000000021 L 272.8076211353319 42 L 229.50635094610993 16.9999999999998 Z" fill-opacity="0.047058823529411764"/><path fill="none" stroke="rgb(153,51,0)" paint-order="fill stroke markers" d=" M 186.20508075688792 41.99999999999985 L 186.20508075688787 92.00000000000007 L 229.50635094610982 117.00000000000026 L 272.8076211353318 92.00000000000021 L 272.8076211353319 42 L 229.50635094610993 16.9999999999998 Z" stroke-opacity="0.6980392156862745" stroke-linecap="round" stroke-linejoin="round" stroke-miterlimit="10" stroke-width="2.5"/><path fill="none" stroke="rgb(153,51,0)" paint-order="fill stroke markers" d=" M 359.41016151377585 42.000000000000185 L 359.41016151377573 92.00000000000041 L 402.7114317029977 117.00000000000068 L 446.0127018922197 92.00000000000065 L 446.01270189221987 42.00000000000039 L 402.7114317029979 17.000000000000142 Z" stroke-opacity="0.6980392156862745" stroke-linecap="round" stroke-linejoin="round" stroke-miterlimit="10" stroke-width="2.5"/><path fill="rgb(153,51,0)" stroke="none" paint-order="stroke fill markers" fill-rule="evenodd" d=" M 446.01270189221987 42.00000000000049 L 446.0127018922197 92.00000000000071 L 489.3139720814416 117.000000000001 L 532.6152422706637 92.00000000000101 L 532.6152422706639 42.00000000000078 L 489.31397208144193 17.000000000000497 Z" fill-opacity="0.09803921568627451"/><path fill="none" stroke="rgb(153,51,0)" paint-order="fill stroke markers" d=" M 446.01270189221987 42.00000000000049 L 446.0127018922197 92.00000000000071 L 489.3139720814416 117.000000000001 L 532.6152422706637 92.00000000000101 L 532.6152422706639 42.00000000000078 L 489.31397208144193 17.000000000000497 Z" stroke-opacity="0.6980392156862745" stroke-linecap="round" stroke-linejoin="round" stroke-miterlimit="10" stroke-width="2.5"/><path fill="rgb(153,51,0)" stroke="none" paint-order="stroke fill markers" fill-rule="evenodd" d=" M 532.6152422706641 42.00000000000081 L 532.6152422706639 92.00000000000104 L 575.9165124598858 117.00000000000145 L 619.2177826491079 92.0000000000015 L 619.2177826491081 42.000000000001236 L 575.9165124598862 17.000000000000867 Z" fill-opacity="0.09803921568627451"/><path fill="none" stroke="rgb(153,51,0)" paint-order="fill stroke markers" d=" M 532.6152422706641 42.00000000000081 L 532.6152422706639 92.00000000000104 L 575.9165124598858 117.00000000000145 L 619.2177826491079 92.0000000000015 L 619.2177826491081 42.000000000001236 L 575.9165124598862 17.000000000000867 Z" stroke-opacity="0.6980392156862745" stroke-linecap="round" stroke-linejoin="round" stroke-miterlimit="10" stroke-width="2.5"/><path fill="rgb(153,51,0)" stroke="none" paint-order="stroke fill markers" fill-rule="evenodd" d=" M 446.0127018922195 192.0000000000012 L 402.71143170299763 167.00000000000102 L 402.7114317029977 117.00000000000072 L 446.0127018922197 92.0000000000007 L 489.31397208144176 117.00000000000085 L 489.3139720814416 167.00000000000114 Z" fill-opacity="0.09803921568627451"/><path fill="none" stroke="rgb(153,51,0)" paint-order="fill stroke markers" d=" M 446.0127018922195 192.0000000000012 L 402.71143170299763 167.00000000000102 L 402.7114317029977 117.00000000000072 L 446.0127018922197 92.0000000000007 L 489.31397208144176 117.00000000000085 L 489.3139720814416 167.00000000000114 Z" stroke-opacity="0.6980392156862745" stroke-linecap="round" stroke-linejoin="round" stroke-miterlimit="10" stroke-width="2.5"/><path fill="rgb(153,51,0)" stroke="none" paint-order="stroke fill markers" fill-rule="evenodd" d=" M 532.6152422706634 192.0000000000016 L 489.31397208144153 167.00000000000136 L 489.3139720814416 117.00000000000108 L 532.6152422706637 92.00000000000114 L 575.9165124598856 117.00000000000134 L 575.9165124598854 167.00000000000165 Z" fill-opacity="0.09803921568627451"/><path fill="none" stroke="rgb(153,51,0)" paint-order="fill stroke markers" d=" M 532.6152422706634 192.0000000000016 L 489.31397208144153 167.00000000000136 L 489.3139720814416 117.00000000000108 L 532.6152422706637 92.00000000000114 L 575.9165124598856 117.00000000000134 L 575.9165124598854 167.00000000000165 Z" stroke-opacity="0.6980392156862745" stroke-linecap="round" stroke-linejoin="round" stroke-miterlimit="10" stroke-width="2.5"/><path fill="none" stroke="rgb(153,51,0)" paint-order="fill stroke markers" d=" M 446.0127018922197 92.00000000000071 L 489.3139720814416 117.000000000001" stroke-opacity="0.6980392156862745" stroke-linecap="round" stroke-linejoin="round" stroke-miterlimit="10" stroke-width="2.5"/><path fill="none" stroke="rgb(153,51,0)" paint-order="fill stroke markers" d=" M 489.3139720814416 117.000000000001 L 532.6152422706637 92.00000000000101" stroke-opacity="0.6980392156862745" stroke-linecap="round" stroke-linejoin="round" stroke-miterlimit="10" stroke-width="2.5"/><path fill="none" stroke="rgb(153,51,0)" paint-order="fill stroke markers" d=" M 532.6152422706637 92.00000000000101 L 532.6152422706639 42.00000000000078" stroke-opacity="0.6980392156862745" stroke-linecap="round" stroke-linejoin="round" stroke-miterlimit="10" stroke-width="2.5"/><path fill="none" stroke="rgb(153,51,0)" paint-order="fill stroke markers" d=" M 532.6152422706639 42.00000000000078 L 489.31397208144193 17.000000000000497" stroke-opacity="0.6980392156862745" stroke-linecap="round" stroke-linejoin="round" stroke-miterlimit="10" stroke-width="2.5"/><path fill="none" stroke="rgb(153,51,0)" paint-order="fill stroke markers" d=" M 489.31397208144193 17.000000000000497 L 446.01270189221987 42.00000000000049" stroke-opacity="0.6980392156862745" stroke-linecap="round" stroke-linejoin="round" stroke-miterlimit="10" stroke-width="2.5"/><path fill="none" stroke="rgb(153,51,0)" paint-order="fill stroke markers" d=" M 532.6152422706641 42.00000000000081 L 532.6152422706639 92.00000000000104" stroke-opacity="0.6980392156862745" stroke-linecap="round" stroke-linejoin="round" stroke-miterlimit="10" stroke-width="2.5"/><path fill="none" stroke="rgb(153,51,0)" paint-order="fill stroke markers" d=" M 532.6152422706639 92.00000000000104 L 575.9165124598858 117.00000000000145" stroke-opacity="0.6980392156862745" stroke-linecap="round" stroke-linejoin="round" stroke-miterlimit="10" stroke-width="2.5"/><path fill="none" stroke="rgb(153,51,0)" paint-order="fill stroke markers" d=" M 575.9165124598858 117.00000000000145 L 619.2177826491079 92.0000000000015" stroke-opacity="0.6980392156862745" stroke-linecap="round" stroke-linejoin="round" stroke-miterlimit="10" stroke-width="2.5"/><path fill="none" stroke="rgb(153,51,0)" paint-order="fill stroke markers" d=" M 619.2177826491079 92.0000000000015 L 619.2177826491081 42.000000000001236" stroke-opacity="0.6980392156862745" stroke-linecap="round" stroke-linejoin="round" stroke-miterlimit="10" stroke-width="2.5"/></g></g></svg>