<svg version="1.1" xmlns="http://www.w3.org/2000/svg" xmlns:xlink="http://www.w3.org/1999/xlink" width="623" height="458"><defs><clipPath id="yTVBTWmaFfif"><path fill="none" stroke="none" d=" M 0 0 L 623 0 L 623 458 L 0 458 L 0 0 Z"/></clipPath></defs><g transform="scale(1,1)" clip-path="url(#yTVBTWmaFfif)"><g><rect fill="rgb(255,255,255)" stroke="none" x="0" y="0" width="623" height="458" fill-opacity="1"/><path fill="none" stroke="rgb(0,0,255)" paint-order="fill stroke markers" d=" M 463.391657141799 260.97132590779364 C 483.49859128990744 153.12504274975808 403.8120675689473 47.80258414064713 285.4068248385797 25.727030411256493 C 167.00158210821206 3.6514766818658586 54.71527700630958 73.18239093417185 34.60834285820113 181.02867409220744 C 14.501408710092647 288.874957250243 94.18793243105279 394.19741585935395 212.59317516142042 416.27296958874456 C 330.99841789178805 438.3485233181352 443.2847229936905 368.8176090658293 463.391657141799 260.97132590779364 Z" stroke-opacity="0.6980392156862745" stroke-linecap="round" stroke-linejoin="round" stroke-miterlimit="10" stroke-width="2.5"/><path fill="none" stroke="rgb(255,0,0)" paint-order="fill stroke markers" d=" M 320.0985425498809 82.69659454546853 C 265.90654961009153 47.670062523409484 188.4644253519105 71.1223987010776 147.12671675455007 135.07885351208776 C 105.78900815718964 199.03530832309792 116.20946451032978 279.2768734324736 170.40145745011918 314.30340545453265 C 224.59345038990858 349.3299374765917 302.0355746480896 325.8776012989236 343.37328324545 261.92114648791346 C 384.7109918428105 197.96469167690327 374.29053548967033 117.72312656752757 320.0985425498809 82.69659454546853 Z" stroke-opacity="0.6980392156862745" stroke-linecap="round" stroke-linejoin="round" stroke-miterlimit="10" stroke-width="2.5"/><path fill="none" stroke="rgb(0,100,0)" paint-order="fill stroke markers" d=" M 588.8031968533201 197.7098401573347 C 585.6437249895962 134.52040288285514 508.8498472277777 87.00687379515725 417.27927013249604 91.5854026499213 C 325.70869303721435 96.16393150468537 254.0373312829559 151.1007225681871 257.1968031466799 214.2901598426666 C 260.35627501040386 277.47959711714617 337.15015277222227 324.9931262048441 428.72072986750396 320.41459735008 C 520.2913069627856 315.83606849531594 591.9626687170442 260.8992774318142 588.8031968533201 197.7098401573347 Z" stroke-opacity="0.6980392156862745" stroke-linecap="round" stroke-linejoin="round" stroke-miterlimit="10" stroke-width="2.5"/><text fill="rgb(255,0,0)" stroke="none" font-family="geogebra-sans-serif, sans-serif" font-size="22px" font-style="normal" font-weight="normal" text-decoration="normal" x="156" y="222" text-anchor="start" dominant-baseline="alphabetic" fill-opacity="1">Alligators</text><text fill="rgb(0,153,0)" stroke="none" font-family="geogebra-sans-serif, sans-serif" font-size="22px" font-style="normal" font-weight="normal" text-decoration="normal" x="392" y="225" text-anchor="start" dominant-baseline="alphabetic" fill-opacity="1">Creepy creatures</text><text fill="rgb(0,0,255)" stroke="none" font-family="geogebra-sans-serif, sans-serif" font-size="22px" font-style="normal" font-weight="normal" text-decoration="normal" x="144" y="374" text-anchor="start" dominant-baseline="alphabetic" fill-opacity="1">Ferocious creatures</text></g></g></svg>