<svg version="1.1" xmlns="http://www.w3.org/2000/svg" xmlns:xlink="http://www.w3.org/1999/xlink" width="343" height="274"><defs><clipPath id="LQQOCDbbsbWp"><path fill="none" stroke="none" d=" M 0 0 L 343 0 L 343 274 L 0 274 L 0 0 Z"/></clipPath></defs><g transform="scale(1,1)" clip-path="url(#LQQOCDbbsbWp)"><g><rect fill="rgb(255,255,255)" stroke="none" x="0" y="0" width="343" height="274" fill-opacity="1"/><path fill="none" stroke="rgb(153,51,0)" paint-order="fill stroke markers" d=" M 50.084803847998394 89.64452736223828 L 50.084803847998394 127.46599380084866 L 82.83915459221551 146.37672702015385 L 115.59350533643263 127.46599380084866 L 115.59350533643263 89.64452736223828 L 82.83915459221554 70.73379414293308 Z" stroke-opacity="0.6980392156862745" stroke-linecap="round" stroke-linejoin="round" stroke-miterlimit="10" stroke-width="2.5"/><path fill="rgb(153,51,0)" stroke="none" paint-order="stroke fill markers" fill-rule="evenodd" d=" M 181.1022068248669 89.6445273622383 L 181.10220682486687 127.46599380084871 L 148.34785608064973 146.37672702015388 L 115.59350533643263 127.46599380084866 L 115.59350533643266 89.64452736223828 L 148.34785608064976 70.73379414293309 Z" fill-opacity="0.09803921568627451"/><path fill="none" stroke="rgb(153,51,0)" paint-order="fill stroke markers" d=" M 181.1022068248669 89.6445273622383 L 181.10220682486687 127.46599380084871 L 148.34785608064973 146.37672702015388 L 115.59350533643263 127.46599380084866 L 115.59350533643266 89.64452736223828 L 148.34785608064976 70.73379414293309 Z" stroke-opacity="0.6980392156862745" stroke-linecap="round" stroke-linejoin="round" stroke-miterlimit="10" stroke-width="2.5"/><path fill="none" stroke="rgb(153,51,0)" paint-order="fill stroke markers" d=" M 82.83915459221555 32.91232770432265 L 115.59350533643268 14.001594485017492 L 148.34785608064976 32.91232770432272 L 148.34785608064973 70.7337941429331 L 115.59350533643266 89.64452736223828 L 82.83915459221554 70.73379414293308 Z" stroke-opacity="0.6980392156862745" stroke-linecap="round" stroke-linejoin="round" stroke-miterlimit="10" stroke-width="2.5"/><path fill="rgb(153,51,0)" stroke="none" paint-order="stroke fill markers" fill-rule="evenodd" d=" M 50.084803847998394 89.64452736223828 L 17.330453103781302 70.73379414293305 L 17.330453103781345 32.91232770432265 L 50.08480384799848 14.001594485017492 L 82.83915459221556 32.91232770432268 L 82.83915459221555 70.73379414293308 Z" fill-opacity="0.09803921568627451"/><path fill="none" stroke="rgb(153,51,0)" paint-order="fill stroke markers" d=" M 50.084803847998394 89.64452736223828 L 17.330453103781302 70.73379414293305 L 17.330453103781345 32.91232770432265 L 50.08480384799848 14.001594485017492 L 82.83915459221556 32.91232770432268 L 82.83915459221555 70.73379414293308 Z" stroke-opacity="0.6980392156862745" stroke-linecap="round" stroke-linejoin="round" stroke-miterlimit="10" stroke-width="2.5"/><path fill="rgb(153,51,0)" stroke="none" paint-order="stroke fill markers" fill-rule="evenodd" d=" M 17.330453103781288 146.37672702015385 L 50.084803847998394 127.46599380084866 L 82.83915459221552 146.37672702015385 L 82.83915459221552 184.19819345876425 L 50.08480384799843 203.10892667806945 L 17.330453103781302 184.19819345876428 Z" fill-opacity="0.09803921568627451"/><path fill="none" stroke="rgb(153,51,0)" paint-order="fill stroke markers" d=" M 17.330453103781288 146.37672702015385 L 50.084803847998394 127.46599380084866 L 82.83915459221552 146.37672702015385 L 82.83915459221552 184.19819345876425 L 50.08480384799843 203.10892667806945 L 17.330453103781302 184.19819345876428 Z" stroke-opacity="0.6980392156862745" stroke-linecap="round" stroke-linejoin="round" stroke-miterlimit="10" stroke-width="2.5"/><path fill="none" stroke="rgb(153,51,0)" paint-order="fill stroke markers" d=" M 115.5935053364326 203.10892667806945 L 82.8391545922155 184.19819345876425 L 82.83915459221552 146.37672702015385 L 115.59350533643263 127.46599380084868 L 148.34785608064973 146.37672702015388 L 148.34785608064973 184.19819345876428 Z" stroke-opacity="0.6980392156862745" stroke-linecap="round" stroke-linejoin="round" stroke-miterlimit="10" stroke-width="2.5"/><path fill="none" stroke="rgb(153,51,0)" paint-order="fill stroke markers" d=" M 115.5935053364326 203.10892667806945 L 82.8391545922155 184.19819345876422 L 50.08480384799839 203.10892667806942 L 50.084803847998366 240.9303931166798 L 82.83915459221546 259.84112633598505 L 115.5935053364326 240.93039311667985 Z" stroke-opacity="0.6980392156862745" stroke-linecap="round" stroke-linejoin="round" stroke-miterlimit="10" stroke-width="2.5"/><path fill="rgb(153,51,0)" stroke="none" paint-order="stroke fill markers" fill-rule="evenodd" d=" M 115.59350533643257 203.10892667806945 L 115.59350533643257 240.93039311667985 L 148.34785608064968 259.84112633598505 L 181.10220682486678 240.93039311667985 L 181.1022068248668 203.10892667806945 L 148.3478560806497 184.19819345876425 Z" fill-opacity="0.09803921568627451"/><path fill="none" stroke="rgb(153,51,0)" paint-order="fill stroke markers" d=" M 115.59350533643257 203.10892667806945 L 115.59350533643257 240.93039311667985 L 148.34785608064968 259.84112633598505 L 181.10220682486678 240.93039311667985 L 181.1022068248668 203.10892667806945 L 148.3478560806497 184.19819345876425 Z" stroke-opacity="0.6980392156862745" stroke-linecap="round" stroke-linejoin="round" stroke-miterlimit="10" stroke-width="2.5"/><path fill="none" stroke="rgb(153,51,0)" paint-order="fill stroke markers" d=" M 181.10220682486687 203.10892667806945 L 213.856557569084 184.19819345876425 L 213.85655756908392 146.37672702015385 L 181.1022068248668 127.46599380084866 L 148.34785608064973 146.37672702015388 L 148.34785608064973 184.19819345876428 Z" stroke-opacity="0.6980392156862745" stroke-linecap="round" stroke-linejoin="round" stroke-miterlimit="10" stroke-width="2.5"/><path fill="rgb(153,51,0)" stroke="none" paint-order="stroke fill markers" fill-rule="evenodd" d=" M 279.3652590575182 146.37672702015385 L 246.61090831330105 127.46599380084865 L 213.85655756908392 146.37672702015385 L 213.85655756908392 184.19819345876425 L 246.61090831330105 203.10892667806945 L 279.3652590575182 184.19819345876428 Z" fill-opacity="0.09803921568627451"/><path fill="none" stroke="rgb(153,51,0)" paint-order="fill stroke markers" d=" M 279.3652590575182 146.37672702015385 L 246.61090831330105 127.46599380084865 L 213.85655756908392 146.37672702015385 L 213.85655756908392 184.19819345876425 L 246.61090831330105 203.10892667806945 L 279.3652590575182 184.19819345876428 Z" stroke-opacity="0.6980392156862745" stroke-linecap="round" stroke-linejoin="round" stroke-miterlimit="10" stroke-width="2.5"/><path fill="none" stroke="rgb(153,51,0)" paint-order="fill stroke markers" d=" M 312.1196098017354 89.64452736223853 L 312.11960980173535 127.46599380084893 L 279.3652590575182 146.37672702015408 L 246.61090831330108 127.4659938008488 L 246.61090831330117 89.64452736223842 L 279.36525905751836 70.73379414293328 Z" stroke-opacity="0.6980392156862745" stroke-linecap="round" stroke-linejoin="round" stroke-miterlimit="10" stroke-width="2.5"/><path fill="none" stroke="rgb(153,51,0)" paint-order="fill stroke markers" d=" M 181.1022068248669 89.6445273622383 L 181.10220682486687 127.46599380084871 L 213.85655756908395 146.37672702015394 L 246.61090831330108 127.4659938008488 L 246.61090831330117 89.64452736223842 L 213.85655756908406 70.73379414293316 Z" stroke-opacity="0.6980392156862745" stroke-linecap="round" stroke-linejoin="round" stroke-miterlimit="10" stroke-width="2.5"/><path fill="none" stroke="rgb(153,51,0)" paint-order="fill stroke markers" d=" M 181.10220682486687 203.10892667806945 L 213.856557569084 184.19819345876425 L 246.61090831330105 203.10892667806945 L 246.61090831330114 240.93039311667985 L 213.856557569084 259.84112633598505 L 181.10220682486687 240.93039311667988 Z" stroke-opacity="0.6980392156862745" stroke-linecap="round" stroke-linejoin="round" stroke-miterlimit="10" stroke-width="2.5"/><path fill="rgb(153,51,0)" stroke="none" paint-order="stroke fill markers" fill-rule="evenodd" d=" M 246.61090831330117 89.64452736223826 L 279.3652590575183 70.73379414293302 L 279.3652590575182 32.912327704322635 L 246.61090831330105 14.001594485017463 L 213.856557569084 32.91232770432268 L 213.856557569084 70.73379414293306 Z" fill-opacity="0.09803921568627451"/><path fill="none" stroke="rgb(153,51,0)" paint-order="fill stroke markers" d=" M 246.61090831330117 89.64452736223826 L 279.3652590575183 70.73379414293302 L 279.3652590575182 32.912327704322635 L 246.61090831330105 14.001594485017463 L 213.856557569084 32.91232770432268 L 213.856557569084 70.73379414293306 Z" stroke-opacity="0.6980392156862745" stroke-linecap="round" stroke-linejoin="round" stroke-miterlimit="10" stroke-width="2.5"/><path fill="none" stroke="rgb(153,51,0)" paint-order="fill stroke markers" d=" M 213.856557569084 32.91232770432265 L 181.10220682486687 14.001594485017492 L 148.3478560806498 32.91232770432272 L 148.34785608064982 70.7337941429331 L 181.1022068248669 89.64452736223828 L 213.856557569084 70.73379414293306 Z" stroke-opacity="0.6980392156862745" stroke-linecap="round" stroke-linejoin="round" stroke-miterlimit="10" stroke-width="2.5"/><path fill="none" stroke="rgb(153,51,0)" paint-order="fill stroke markers" d=" M 312.1196098017352 203.10892667806934 L 279.365259057518 184.1981934587642 L 246.610908313301 203.10892667806945 L 246.610908313301 240.93039311667985 L 279.3652590575182 259.841126335985 L 312.11960980173524 240.93039311667977 Z" stroke-opacity="0.6980392156862745" stroke-linecap="round" stroke-linejoin="round" stroke-miterlimit="10" stroke-width="2.5"/></g></g></svg>