<svg version="1.1" xmlns="http://www.w3.org/2000/svg" xmlns:xlink="http://www.w3.org/1999/xlink" width="641" height="203"><defs><clipPath id="nrDAELAqoHlb"><path fill="none" stroke="none" d=" M 0 0 L 641 0 L 641 203 L 0 203 L 0 0 Z"/></clipPath></defs><g transform="scale(1,1)" clip-path="url(#nrDAELAqoHlb)"><g><rect fill="rgb(255,255,255)" stroke="none" x="0" y="0" width="641" height="203" fill-opacity="1"/><path fill="rgb(153,51,0)" stroke="none" paint-order="stroke fill markers" fill-rule="evenodd" d=" M 12.999999999999996 44.99999999999977 L 12.999999999999996 95.00000000000003 L 56.30127018922195 120.00000000000016 L 99.60254037844393 95.00000000000003 L 99.60254037844395 44.99999999999979 L 56.301270189221995 19.999999999999645 Z" fill-opacity="0.047058823529411764"/><path fill="none" stroke="rgb(153,51,0)" paint-order="fill stroke markers" d=" M 12.999999999999996 44.99999999999977 L 12.999999999999996 95.00000000000003 L 56.30127018922195 120.00000000000016 L 99.60254037844393 95.00000000000003 L 99.60254037844395 44.99999999999979 L 56.301270189221995 19.999999999999645 Z" stroke-opacity="0.6980392156862745" stroke-linecap="round" stroke-linejoin="round" stroke-miterlimit="10" stroke-width="2.5"/><path fill="none" stroke="rgb(153,51,0)" paint-order="fill stroke markers" d=" M 186.2050807568879 44.99999999999982 L 186.20508075688787 95.00000000000007 L 142.9038105676659 120.00000000000017 L 99.60254037844393 95.00000000000003 L 99.60254037844395 44.99999999999979 L 142.90381056766591 19.999999999999673 Z" stroke-opacity="0.6980392156862745" stroke-linecap="round" stroke-linejoin="round" stroke-miterlimit="10" stroke-width="2.5"/><path fill="rgb(153,51,0)" stroke="none" paint-order="stroke fill markers" fill-rule="evenodd" d=" M 99.60254037844388 195.00000000000057 L 56.301270189221924 170.0000000000004 L 56.30127018922197 120.00000000000017 L 99.60254037844393 95.00000000000004 L 142.9038105676659 120.00000000000017 L 142.9038105676659 170.00000000000045 Z" fill-opacity="0.047058823529411764"/><path fill="none" stroke="rgb(153,51,0)" paint-order="fill stroke markers" d=" M 99.60254037844388 195.00000000000057 L 56.301270189221924 170.0000000000004 L 56.30127018922197 120.00000000000017 L 99.60254037844393 95.00000000000004 L 142.9038105676659 120.00000000000017 L 142.9038105676659 170.00000000000045 Z" stroke-opacity="0.6980392156862745" stroke-linecap="round" stroke-linejoin="round" stroke-miterlimit="10" stroke-width="2.5"/><path fill="rgb(153,51,0)" stroke="none" paint-order="stroke fill markers" fill-rule="evenodd" d=" M 186.20508075688792 44.99999999999982 L 186.20508075688787 95.00000000000007 L 229.50635094610982 120.00000000000027 L 272.8076211353318 95.00000000000021 L 272.8076211353319 44.99999999999997 L 229.50635094610993 19.99999999999976 Z" fill-opacity="0.047058823529411764"/><path fill="none" stroke="rgb(153,51,0)" paint-order="fill stroke markers" d=" M 186.20508075688792 44.99999999999982 L 186.20508075688787 95.00000000000007 L 229.50635094610982 120.00000000000027 L 272.8076211353318 95.00000000000021 L 272.8076211353319 44.99999999999997 L 229.50635094610993 19.99999999999976 Z" stroke-opacity="0.6980392156862745" stroke-linecap="round" stroke-linejoin="round" stroke-miterlimit="10" stroke-width="2.5"/><path fill="none" stroke="rgb(153,51,0)" paint-order="fill stroke markers" d=" M 359.41016151377585 45.000000000000156 L 359.41016151377573 95.00000000000041 L 402.7114317029977 120.0000000000007 L 446.0127018922197 95.00000000000065 L 446.01270189221987 45.00000000000036 L 402.7114317029979 20.0000000000001 Z" stroke-opacity="0.6980392156862745" stroke-linecap="round" stroke-linejoin="round" stroke-miterlimit="10" stroke-width="2.5"/><path fill="rgb(153,51,0)" stroke="none" paint-order="stroke fill markers" fill-rule="evenodd" d=" M 446.01270189221987 45.00000000000046 L 446.0127018922197 95.00000000000071 L 489.3139720814416 120.00000000000101 L 532.6152422706637 95.00000000000101 L 532.6152422706639 45.00000000000075 L 489.31397208144193 20.000000000000455 Z" fill-opacity="0.09803921568627451"/><path fill="none" stroke="rgb(153,51,0)" paint-order="fill stroke markers" d=" M 446.01270189221987 45.00000000000046 L 446.0127018922197 95.00000000000071 L 489.3139720814416 120.00000000000101 L 532.6152422706637 95.00000000000101 L 532.6152422706639 45.00000000000075 L 489.31397208144193 20.000000000000455 Z" stroke-opacity="0.6980392156862745" stroke-linecap="round" stroke-linejoin="round" stroke-miterlimit="10" stroke-width="2.5"/><path fill="rgb(153,51,0)" stroke="none" paint-order="stroke fill markers" fill-rule="evenodd" d=" M 532.6152422706641 45.00000000000078 L 532.6152422706639 95.00000000000104 L 575.9165124598858 120.00000000000146 L 619.2177826491079 95.0000000000015 L 619.2177826491081 45.00000000000121 L 575.9165124598862 20.000000000000824 Z" fill-opacity="0.09803921568627451"/><path fill="none" stroke="rgb(153,51,0)" paint-order="fill stroke markers" d=" M 532.6152422706641 45.00000000000078 L 532.6152422706639 95.00000000000104 L 575.9165124598858 120.00000000000146 L 619.2177826491079 95.0000000000015 L 619.2177826491081 45.00000000000121 L 575.9165124598862 20.000000000000824 Z" stroke-opacity="0.6980392156862745" stroke-linecap="round" stroke-linejoin="round" stroke-miterlimit="10" stroke-width="2.5"/><path fill="rgb(153,51,0)" stroke="none" paint-order="stroke fill markers" fill-rule="evenodd" d=" M 446.0127018922195 195.00000000000125 L 402.71143170299763 170.00000000000105 L 402.7114317029977 120.00000000000074 L 446.0127018922197 95.0000000000007 L 489.31397208144176 120.00000000000087 L 489.3139720814416 170.0000000000012 Z" fill-opacity="0.09803921568627451"/><path fill="none" stroke="rgb(153,51,0)" paint-order="fill stroke markers" d=" M 446.0127018922195 195.00000000000125 L 402.71143170299763 170.00000000000105 L 402.7114317029977 120.00000000000074 L 446.0127018922197 95.0000000000007 L 489.31397208144176 120.00000000000087 L 489.3139720814416 170.0000000000012 Z" stroke-opacity="0.6980392156862745" stroke-linecap="round" stroke-linejoin="round" stroke-miterlimit="10" stroke-width="2.5"/><path fill="none" stroke="rgb(153,51,0)" paint-order="fill stroke markers" d=" M 446.0127018922197 95.00000000000071 L 489.3139720814416 120.00000000000101" stroke-opacity="0.6980392156862745" stroke-linecap="round" stroke-linejoin="round" stroke-miterlimit="10" stroke-width="2.5"/><path fill="none" stroke="rgb(153,51,0)" paint-order="fill stroke markers" d=" M 489.3139720814416 120.00000000000101 L 532.6152422706637 95.00000000000101" stroke-opacity="0.6980392156862745" stroke-linecap="round" stroke-linejoin="round" stroke-miterlimit="10" stroke-width="2.5"/><path fill="none" stroke="rgb(153,51,0)" paint-order="fill stroke markers" d=" M 532.6152422706637 95.00000000000101 L 532.6152422706639 45.00000000000075" stroke-opacity="0.6980392156862745" stroke-linecap="round" stroke-linejoin="round" stroke-miterlimit="10" stroke-width="2.5"/><path fill="none" stroke="rgb(153,51,0)" paint-order="fill stroke markers" d=" M 532.6152422706639 45.00000000000075 L 489.31397208144193 20.000000000000455" stroke-opacity="0.6980392156862745" stroke-linecap="round" stroke-linejoin="round" stroke-miterlimit="10" stroke-width="2.5"/><path fill="none" stroke="rgb(153,51,0)" paint-order="fill stroke markers" d=" M 489.31397208144193 20.000000000000455 L 446.01270189221987 45.00000000000046" stroke-opacity="0.6980392156862745" stroke-linecap="round" stroke-linejoin="round" stroke-miterlimit="10" stroke-width="2.5"/><path fill="none" stroke="rgb(153,51,0)" paint-order="fill stroke markers" d=" M 532.6152422706641 45.00000000000078 L 532.6152422706639 95.00000000000104" stroke-opacity="0.6980392156862745" stroke-linecap="round" stroke-linejoin="round" stroke-miterlimit="10" stroke-width="2.5"/><path fill="none" stroke="rgb(153,51,0)" paint-order="fill stroke markers" d=" M 532.6152422706639 95.00000000000104 L 575.9165124598858 120.00000000000146" stroke-opacity="0.6980392156862745" stroke-linecap="round" stroke-linejoin="round" stroke-miterlimit="10" stroke-width="2.5"/><path fill="none" stroke="rgb(153,51,0)" paint-order="fill stroke markers" d=" M 575.9165124598858 120.00000000000146 L 619.2177826491079 95.0000000000015" stroke-opacity="0.6980392156862745" stroke-linecap="round" stroke-linejoin="round" stroke-miterlimit="10" stroke-width="2.5"/><path fill="none" stroke="rgb(153,51,0)" paint-order="fill stroke markers" d=" M 619.2177826491079 95.0000000000015 L 619.2177826491081 45.00000000000121" stroke-opacity="0.6980392156862745" stroke-linecap="round" stroke-linejoin="round" stroke-miterlimit="10" stroke-width="2.5"/></g></g></svg>