<svg version="1.1" xmlns="http://www.w3.org/2000/svg" xmlns:xlink="http://www.w3.org/1999/xlink" width="386" height="198"><defs><clipPath id="WOTJFGmrlOBi"><path fill="none" stroke="none" d=" M 0 0 L 386 0 L 386 198 L 0 198 L 0 0 Z"/></clipPath></defs><g transform="scale(1,1)" clip-path="url(#WOTJFGmrlOBi)"><g><rect fill="rgb(255,255,255)" stroke="none" x="0" y="0" width="386" height="198" fill-opacity="1"/><path fill="rgb(153,51,0)" stroke="none" paint-order="stroke fill markers" fill-rule="evenodd" d=" M 17.999999999999545 43.499999999999325 L 17.999999999999545 93.4999999999995 L 61.3012701892215 118.49999999999959 L 104.60254037844346 93.4999999999995 L 104.60254037844348 43.49999999999934 L 61.30127018922154 18.499999999999233 Z" fill-opacity="0.09803921568627451"/><path fill="none" stroke="rgb(153,51,0)" paint-order="fill stroke markers" d=" M 17.999999999999545 43.499999999999325 L 17.999999999999545 93.4999999999995 L 61.3012701892215 118.49999999999959 L 104.60254037844346 93.4999999999995 L 104.60254037844348 43.49999999999934 L 61.30127018922154 18.499999999999233 Z" stroke-opacity="0.6980392156862745" stroke-linecap="round" stroke-linejoin="round" stroke-miterlimit="10" stroke-width="2.5"/><path fill="rgb(153,51,0)" stroke="none" paint-order="stroke fill markers" fill-rule="evenodd" d=" M 191.20508075688744 43.499999999999375 L 191.20508075688738 93.49999999999955 L 147.9038105676654 118.49999999999962 L 104.60254037844346 93.4999999999995 L 104.60254037844349 43.49999999999934 L 147.90381056766546 18.49999999999926 Z" fill-opacity="0.09803921568627451"/><path fill="none" stroke="rgb(153,51,0)" paint-order="fill stroke markers" d=" M 191.20508075688744 43.499999999999375 L 191.20508075688738 93.49999999999955 L 147.9038105676654 118.49999999999962 L 104.60254037844346 93.4999999999995 L 104.60254037844349 43.49999999999934 L 147.90381056766546 18.49999999999926 Z" stroke-opacity="0.6980392156862745" stroke-linecap="round" stroke-linejoin="round" stroke-miterlimit="10" stroke-width="2.5"/><path fill="rgb(153,51,0)" stroke="none" paint-order="stroke fill markers" fill-rule="evenodd" d=" M 104.60254037844341 193.4999999999999 L 61.30127018922147 168.49999999999977 L 61.301270189221505 118.4999999999996 L 104.60254037844346 93.49999999999952 L 147.9038105676654 118.49999999999962 L 147.9038105676654 168.49999999999977 Z" fill-opacity="0.09803921568627451"/><path fill="none" stroke="rgb(153,51,0)" paint-order="fill stroke markers" d=" M 104.60254037844341 193.4999999999999 L 61.30127018922147 168.49999999999977 L 61.301270189221505 118.4999999999996 L 104.60254037844346 93.49999999999952 L 147.9038105676654 118.49999999999962 L 147.9038105676654 168.49999999999977 Z" stroke-opacity="0.6980392156862745" stroke-linecap="round" stroke-linejoin="round" stroke-miterlimit="10" stroke-width="2.5"/><path fill="rgb(153,51,0)" stroke="none" paint-order="stroke fill markers" fill-rule="evenodd" d=" M 191.2050807568874 193.4999999999999 L 234.50635094610936 168.49999999999977 L 234.50635094610928 118.49999999999959 L 191.20508075688733 93.4999999999995 L 147.9038105676654 118.49999999999962 L 147.9038105676654 168.49999999999977 Z" fill-opacity="0.09803921568627451"/><path fill="none" stroke="rgb(153,51,0)" paint-order="fill stroke markers" d=" M 191.2050807568874 193.4999999999999 L 234.50635094610936 168.49999999999977 L 234.50635094610928 118.49999999999959 L 191.20508075688733 93.4999999999995 L 147.9038105676654 118.49999999999962 L 147.9038105676654 168.49999999999977 Z" stroke-opacity="0.6980392156862745" stroke-linecap="round" stroke-linejoin="round" stroke-miterlimit="10" stroke-width="2.5"/><path fill="rgb(153,51,0)" stroke="none" paint-order="stroke fill markers" fill-rule="evenodd" d=" M 321.1088913245532 118.49999999999957 L 277.80762113533126 93.49999999999949 L 234.50635094610928 118.49999999999957 L 234.50635094610928 168.49999999999977 L 277.80762113533126 193.49999999999986 L 321.1088913245532 168.49999999999977 Z" fill-opacity="0.09803921568627451"/><path fill="none" stroke="rgb(153,51,0)" paint-order="fill stroke markers" d=" M 321.1088913245532 118.49999999999957 L 277.80762113533126 93.49999999999949 L 234.50635094610928 118.49999999999957 L 234.50635094610928 168.49999999999977 L 277.80762113533126 193.49999999999986 L 321.1088913245532 168.49999999999977 Z" stroke-opacity="0.6980392156862745" stroke-linecap="round" stroke-linejoin="round" stroke-miterlimit="10" stroke-width="2.5"/><path fill="rgb(153,51,0)" stroke="none" paint-order="stroke fill markers" fill-rule="evenodd" d=" M 364.41016151377534 43.49999999999969 L 364.4101615137752 93.49999999999987 L 321.1088913245532 118.49999999999986 L 277.8076211353313 93.49999999999969 L 277.8076211353314 43.499999999999524 L 321.10889132455344 18.499999999999517 Z" fill-opacity="0.09803921568627451"/><path fill="none" stroke="rgb(153,51,0)" paint-order="fill stroke markers" d=" M 364.41016151377534 43.49999999999969 L 364.4101615137752 93.49999999999987 L 321.1088913245532 118.49999999999986 L 277.8076211353313 93.49999999999969 L 277.8076211353314 43.499999999999524 L 321.10889132455344 18.499999999999517 Z" stroke-opacity="0.6980392156862745" stroke-linecap="round" stroke-linejoin="round" stroke-miterlimit="10" stroke-width="2.5"/><path fill="rgb(153,51,0)" stroke="none" paint-order="stroke fill markers" fill-rule="evenodd" d=" M 191.20508075688744 43.499999999999375 L 191.20508075688738 93.49999999999955 L 234.5063509461093 118.4999999999997 L 277.8076211353313 93.49999999999969 L 277.8076211353314 43.499999999999524 L 234.50635094610945 18.499999999999346 Z" fill-opacity="0.09803921568627451"/><path fill="none" stroke="rgb(153,51,0)" paint-order="fill stroke markers" d=" M 191.20508075688744 43.499999999999375 L 191.20508075688738 93.49999999999955 L 234.5063509461093 118.4999999999997 L 277.8076211353313 93.49999999999969 L 277.8076211353314 43.499999999999524 L 234.50635094610945 18.499999999999346 Z" stroke-opacity="0.6980392156862745" stroke-linecap="round" stroke-linejoin="round" stroke-miterlimit="10" stroke-width="2.5"/><path fill="none" stroke="rgb(153,51,0)" paint-order="fill stroke markers" d=" M 17.999999999999545 43.499999999999325 L 17.999999999999545 93.4999999999995" stroke-opacity="0.6980392156862745" stroke-linecap="round" stroke-linejoin="round" stroke-miterlimit="10" stroke-width="2.5"/><path fill="none" stroke="rgb(153,51,0)" paint-order="fill stroke markers" d=" M 17.999999999999545 93.4999999999995 L 61.3012701892215 118.49999999999959" stroke-opacity="0.6980392156862745" stroke-linecap="round" stroke-linejoin="round" stroke-miterlimit="10" stroke-width="2.5"/><path fill="none" stroke="rgb(153,51,0)" paint-order="fill stroke markers" d=" M 61.3012701892215 118.49999999999959 L 104.60254037844346 93.4999999999995" stroke-opacity="0.6980392156862745" stroke-linecap="round" stroke-linejoin="round" stroke-miterlimit="10" stroke-width="2.5"/><path fill="none" stroke="rgb(153,51,0)" paint-order="fill stroke markers" d=" M 104.60254037844346 93.4999999999995 L 104.60254037844348 43.49999999999934" stroke-opacity="0.6980392156862745" stroke-linecap="round" stroke-linejoin="round" stroke-miterlimit="10" stroke-width="2.5"/><path fill="none" stroke="rgb(153,51,0)" paint-order="fill stroke markers" d=" M 104.60254037844348 43.49999999999934 L 61.30127018922154 18.499999999999233" stroke-opacity="0.6980392156862745" stroke-linecap="round" stroke-linejoin="round" stroke-miterlimit="10" stroke-width="2.5"/><path fill="none" stroke="rgb(153,51,0)" paint-order="fill stroke markers" d=" M 61.30127018922154 18.499999999999233 L 17.999999999999545 43.499999999999325" stroke-opacity="0.6980392156862745" stroke-linecap="round" stroke-linejoin="round" stroke-miterlimit="10" stroke-width="2.5"/></g></g></svg>