<svg version="1.1" xmlns="http://www.w3.org/2000/svg" xmlns:xlink="http://www.w3.org/1999/xlink" width="426" height="379"><defs><clipPath id="votdTzqbFavh"><path fill="none" stroke="none" d=" M 0 0 L 426 0 L 426 379 L 0 379 L 0 0 Z"/></clipPath></defs><g transform="scale(1,1)" clip-path="url(#votdTzqbFavh)"><g><rect fill="rgb(255,255,255)" stroke="none" x="0" y="0" width="426" height="379" fill-opacity="1"/><path fill="none" stroke="rgb(0,153,255)" paint-order="fill stroke markers" d=" M 246.55511786928432 125.07632330247124 C 246.55511786928432 184.82603788118465 198.11840398510924 233.26275176535978 138.36868940639587 233.26275176535978 C 78.61897482768251 233.26275176535978 30.18226094350743 184.82603788118465 30.18226094350743 125.07632330247124 C 30.18226094350743 65.32660872375783 78.61897482768251 16.889894839582695 138.36868940639587 16.889894839582695 C 198.11840398510924 16.889894839582695 246.55511786928432 65.32660872375783 246.55511786928432 125.07632330247124 Z" stroke-opacity="0.6980392156862745" stroke-linecap="round" stroke-linejoin="round" stroke-miterlimit="10" stroke-width="2.5"/><path fill="none" stroke="rgb(0,153,255)" paint-order="fill stroke markers" d=" M 390.80368915313556 125.07632330247124 C 390.80368915313556 184.82603788118465 342.36697526896046 233.26275176535978 282.6172606902471 233.26275176535978 C 222.86754611153376 233.26275176535978 174.43083222735868 184.82603788118465 174.43083222735868 125.07632330247124 C 174.43083222735868 65.32660872375783 222.86754611153376 16.889894839582695 282.6172606902471 16.889894839582695 C 342.36697526896046 16.889894839582695 390.80368915313556 65.32660872375783 390.80368915313556 125.07632330247124 Z" stroke-opacity="0.6980392156862745" stroke-linecap="round" stroke-linejoin="round" stroke-miterlimit="10" stroke-width="2.5"/><path fill="none" stroke="rgb(0,153,255)" paint-order="fill stroke markers" d=" M 268.18642846288844 249.9999999999999 C 268.18642846288844 309.7497145787133 219.74971457871337 358.18642846288844 160 358.18642846288844 C 100.25028542128663 358.18642846288844 51.81357153711156 309.7497145787133 51.81357153711156 249.9999999999999 C 51.81357153711156 190.25028542128646 100.25028542128663 141.81357153711133 160 141.81357153711133 C 219.74971457871337 141.81357153711133 268.18642846288844 190.25028542128646 268.18642846288844 249.9999999999999 Z" stroke-opacity="0.6980392156862745" stroke-linecap="round" stroke-linejoin="round" stroke-miterlimit="10" stroke-width="2.5"/><path fill="none" stroke="rgb(0,153,255)" paint-order="fill stroke markers" d=" M 390.80368915313556 233.26275176535978 C 390.80368915313556 293.0124663440732 342.36697526896046 341.44918022824834 282.6172606902471 341.44918022824834 C 222.86754611153376 341.44918022824834 174.43083222735868 293.0124663440732 174.43083222735868 233.26275176535978 C 174.43083222735868 173.51303718664636 222.86754611153376 125.07632330247124 282.6172606902471 125.07632330247124 C 342.36697526896046 125.07632330247124 390.80368915313556 173.51303718664636 390.80368915313556 233.26275176535978 Z" stroke-opacity="0.6980392156862745" stroke-linecap="round" stroke-linejoin="round" stroke-miterlimit="10" stroke-width="2.5"/></g></g></svg>