<svg version="1.1" xmlns="http://www.w3.org/2000/svg" xmlns:xlink="http://www.w3.org/1999/xlink" width="368" height="227"><defs><clipPath id="ASghZClnIuwT"><path fill="none" stroke="none" d=" M 0 0 L 368 0 L 368 227 L 0 227 L 0 0 Z"/></clipPath></defs><g transform="scale(1,1)" clip-path="url(#ASghZClnIuwT)"><g><rect fill="rgb(255,255,255)" stroke="none" x="0" y="0" width="368" height="227" fill-opacity="1"/><path fill="none" stroke="rgb(0,100,0)" paint-order="fill stroke markers" d=" M 177.86751345948142 187.99999999999997 L 149.0000000000001 38.00000000000006 L 33.52994616207477 137.99999999999994 Z" stroke-opacity="0.6980392156862745" stroke-linecap="round" stroke-linejoin="round" stroke-miterlimit="10"/><path fill="none" stroke="rgb(0,100,0)" paint-order="fill stroke markers" d=" M 138.9851555475383 113.85042006427078 L 130.1473309929806 112.14957993572925" stroke-opacity="0.6980392156862745" stroke-linecap="round" stroke-linejoin="round" stroke-miterlimit="10"/><path fill="none" stroke="rgb(0,100,0)" paint-order="fill stroke markers" d=" M 149.0000000000001 38.00000000000006 L 120.13248654051883 187.99999999999997" stroke-opacity="0.6980392156862745" stroke-linecap="round" stroke-linejoin="round" stroke-miterlimit="10"/><path fill="none" stroke="rgb(0,100,0)" paint-order="fill stroke markers" d=" M 209.68096843714866 84.59831974291697 L 203.78908540077688 91.40168025708306" stroke-opacity="0.6980392156862745" stroke-linecap="round" stroke-linejoin="round" stroke-miterlimit="10"/><path fill="none" stroke="rgb(0,100,0)" paint-order="fill stroke markers" d=" M 149.0000000000001 38.00000000000006 L 264.47005383792543 137.99999999999997" stroke-opacity="0.6980392156862745" stroke-linecap="round" stroke-linejoin="round" stroke-miterlimit="10"/><path fill="none" stroke="rgb(0,100,0)" paint-order="fill stroke markers" d=" M 193.77424094831508 167.25210032135377 L 190.82829943012916 158.74789967864618" stroke-opacity="0.6980392156862745" stroke-linecap="round" stroke-linejoin="round" stroke-miterlimit="10"/><path fill="none" stroke="rgb(0,100,0)" paint-order="fill stroke markers" d=" M 264.47005383792543 137.99999999999997 L 120.13248654051883 187.99999999999997" stroke-opacity="0.6980392156862745" stroke-linecap="round" stroke-linejoin="round" stroke-miterlimit="10"/><g transform="scale(19,19)"><g transform="translate(10.736842105263158,1.220315789473684)"><path fill="rgb(102,102,102)" stroke="none" paint-order="stroke fill markers" d=" M 0.016 -0.099 L 0.016 -0.099 L 0.093 -0.17200000000000001 Q 0.093 -0.338 0.17200000000000001 -0.517 Q 0.223 -0.634 0.28300000000000003 -0.682 Q 0.312 -0.705 0.339 -0.705 Q 0.398 -0.705 0.398 -0.627 Q 0.398 -0.47300000000000003 0.226 -0.277 Q 0.201 -0.248 0.17500000000000002 -0.222 Q 0.159 -0.20600000000000002 0.153 -0.197 Q 0.148 -0.189 0.148 -0.14 Q 0.148 -0.01 0.209 -0.01 Q 0.26 -0.01 0.339 -0.088 Q 0.34900000000000003 -0.097 0.352 -0.097 Q 0.362 -0.097 0.364 -0.085 Q 0.364 -0.073 0.31 -0.031 L 0.31 -0.031 Q 0.306 -0.028 0.303 -0.026000000000000002 Q 0.25 0.012 0.20700000000000002 0.012 Q 0.114 0.012 0.095 -0.14100000000000001 Q 0.075 -0.121 0.059000000000000004 -0.107 Q 0.028 -0.076 0.023 -0.076 Q 0.015 -0.076 0.011 -0.089 Q 0.011 -0.092 0.016 -0.099 M 0.158 -0.23900000000000002 Q 0.374 -0.464 0.374 -0.631 Q 0.374 -0.683 0.34 -0.683 Q 0.31 -0.683 0.279 -0.626 L 0.278 -0.625 L 0.26 -0.589 Q 0.20400000000000001 -0.47400000000000003 0.159 -0.244 L 0.159 -0.243 Q 0.158 -0.24 0.158 -0.23900000000000002 Z"/></g><g transform="translate(11.153842105263157,1.370315789473684) scale(0.7,0.7)"><path fill="rgb(102,102,102)" stroke="none" paint-order="stroke fill markers" d=" M 0.294 -0.64 L 0.294 -0.079 Q 0.294 -0.049 0.306 -0.041 Q 0.323 -0.031 0.387 -0.031 L 0.419 -0.031 L 0.419 0 Q 0.384 -0.003 0.257 -0.003 Q 0.13 -0.003 0.095 0 L 0.095 -0.031 L 0.127 -0.031 Q 0.20400000000000001 -0.031 0.215 -0.049 L 0.216 -0.05 Q 0.22 -0.058 0.22 -0.079 L 0.22 -0.597 Q 0.168 -0.5710000000000001 0.089 -0.5710000000000001 L 0.089 -0.602 Q 0.209 -0.602 0.271 -0.666 Q 0.29 -0.666 0.293 -0.659 L 0.293 -0.659 L 0.293 -0.658 Q 0.294 -0.655 0.294 -0.64 Z"/></g></g><path fill="none" stroke="rgb(102,102,102)" paint-order="fill stroke markers" d=" M 27.999999999999964 38.00000000000006 L 349.0000000000004 38.00000000000006" stroke-opacity="0.6980392156862745" stroke-linecap="round" stroke-linejoin="round" stroke-miterlimit="10"/><g transform="scale(19,19)"><g transform="translate(9.052631578947368,6.851894736842105)"><path fill="rgb(102,102,102)" stroke="none" paint-order="stroke fill markers" d=" M 0.016 -0.099 L 0.016 -0.099 L 0.093 -0.17200000000000001 Q 0.093 -0.338 0.17200000000000001 -0.517 Q 0.223 -0.634 0.28300000000000003 -0.682 Q 0.312 -0.705 0.339 -0.705 Q 0.398 -0.705 0.398 -0.627 Q 0.398 -0.47300000000000003 0.226 -0.277 Q 0.201 -0.248 0.17500000000000002 -0.222 Q 0.159 -0.20600000000000002 0.153 -0.197 Q 0.148 -0.189 0.148 -0.14 Q 0.148 -0.01 0.209 -0.01 Q 0.26 -0.01 0.339 -0.088 Q 0.34900000000000003 -0.097 0.352 -0.097 Q 0.362 -0.097 0.364 -0.085 Q 0.364 -0.073 0.31 -0.031 L 0.31 -0.031 Q 0.306 -0.028 0.303 -0.026000000000000002 Q 0.25 0.012 0.20700000000000002 0.012 Q 0.114 0.012 0.095 -0.14100000000000001 Q 0.075 -0.121 0.059000000000000004 -0.107 Q 0.028 -0.076 0.023 -0.076 Q 0.015 -0.076 0.011 -0.089 Q 0.011 -0.092 0.016 -0.099 M 0.158 -0.23900000000000002 Q 0.374 -0.464 0.374 -0.631 Q 0.374 -0.683 0.34 -0.683 Q 0.31 -0.683 0.279 -0.626 L 0.278 -0.625 L 0.26 -0.589 Q 0.20400000000000001 -0.47400000000000003 0.159 -0.244 L 0.159 -0.243 Q 0.158 -0.24 0.158 -0.23900000000000002 Z"/></g><g transform="translate(9.469631578947368,7.001894736842106) scale(0.7,0.7)"><path fill="rgb(102,102,102)" stroke="none" paint-order="stroke fill markers" d=" M 0.449 -0.17400000000000002 L 0.449 -0.17400000000000002 L 0.421 0 L 0.05 0 Q 0.05 -0.025 0.056 -0.032 L 0.061 -0.037 L 0.253 -0.251 Q 0.358 -0.369 0.358 -0.47200000000000003 Q 0.358 -0.561 0.304 -0.607 L 0.303 -0.608 L 0.302 -0.608 Q 0.27 -0.635 0.224 -0.635 Q 0.152 -0.635 0.109 -0.5730000000000001 Q 0.097 -0.555 0.089 -0.533 Q 0.092 -0.534 0.10200000000000001 -0.534 Q 0.14200000000000002 -0.534 0.153 -0.498 L 0.153 -0.497 Q 0.155 -0.49 0.155 -0.482 Q 0.155 -0.442 0.117 -0.431 Q 0.109 -0.429 0.10300000000000001 -0.429 Q 0.066 -0.429 0.054 -0.46 Q 0.05 -0.47100000000000003 0.05 -0.485 Q 0.05 -0.562 0.109 -0.617 Q 0.162 -0.666 0.23700000000000002 -0.666 Q 0.34700000000000003 -0.666 0.40800000000000003 -0.592 Q 0.443 -0.549 0.448 -0.49 Q 0.449 -0.481 0.449 -0.47200000000000003 Q 0.449 -0.399 0.394 -0.333 Q 0.365 -0.299 0.304 -0.243 L 0.243 -0.189 L 0.233 -0.18 L 0.127 -0.077 L 0.307 -0.077 Q 0.395 -0.077 0.402 -0.085 Q 0.41200000000000003 -0.099 0.424 -0.17400000000000002 L 0.449 -0.17400000000000002 Z"/></g></g><path fill="none" stroke="rgb(102,102,102)" paint-order="fill stroke markers" d=" M 25.999999999999964 138 L 349.0000000000004 138" stroke-opacity="0.6980392156862745" stroke-linecap="round" stroke-linejoin="round" stroke-miterlimit="10"/><g transform="scale(19,19)"><g transform="translate(12.368421052631579,9.430842105263157)"><path fill="rgb(102,102,102)" stroke="none" paint-order="stroke fill markers" d=" M 0.016 -0.099 L 0.016 -0.099 L 0.093 -0.17200000000000001 Q 0.093 -0.338 0.17200000000000001 -0.517 Q 0.223 -0.634 0.28300000000000003 -0.682 Q 0.312 -0.705 0.339 -0.705 Q 0.398 -0.705 0.398 -0.627 Q 0.398 -0.47300000000000003 0.226 -0.277 Q 0.201 -0.248 0.17500000000000002 -0.222 Q 0.159 -0.20600000000000002 0.153 -0.197 Q 0.148 -0.189 0.148 -0.14 Q 0.148 -0.01 0.209 -0.01 Q 0.26 -0.01 0.339 -0.088 Q 0.34900000000000003 -0.097 0.352 -0.097 Q 0.362 -0.097 0.364 -0.085 Q 0.364 -0.073 0.31 -0.031 L 0.31 -0.031 Q 0.306 -0.028 0.303 -0.026000000000000002 Q 0.25 0.012 0.20700000000000002 0.012 Q 0.114 0.012 0.095 -0.14100000000000001 Q 0.075 -0.121 0.059000000000000004 -0.107 Q 0.028 -0.076 0.023 -0.076 Q 0.015 -0.076 0.011 -0.089 Q 0.011 -0.092 0.016 -0.099 M 0.158 -0.23900000000000002 Q 0.374 -0.464 0.374 -0.631 Q 0.374 -0.683 0.34 -0.683 Q 0.31 -0.683 0.279 -0.626 L 0.278 -0.625 L 0.26 -0.589 Q 0.20400000000000001 -0.47400000000000003 0.159 -0.244 L 0.159 -0.243 Q 0.158 -0.24 0.158 -0.23900000000000002 Z"/></g><g transform="translate(12.785421052631579,9.580842105263157) scale(0.7,0.7)"><path fill="rgb(102,102,102)" stroke="none" paint-order="stroke fill markers" d=" M 0.29 -0.352 L 0.29 -0.352 Q 0.39 -0.332 0.434 -0.254 Q 0.457 -0.215 0.457 -0.171 Q 0.457 -0.08600000000000001 0.387 -0.028 Q 0.326 0.022 0.244 0.022 Q 0.145 0.022 0.085 -0.037 Q 0.042 -0.079 0.042 -0.135 Q 0.042 -0.182 0.084 -0.191 Q 0.091 -0.193 0.098 -0.193 Q 0.136 -0.193 0.149 -0.161 Q 0.153 -0.148 0.154 -0.137 Q 0.154 -0.097 0.11800000000000001 -0.085 Q 0.10400000000000001 -0.08 0.088 -0.082 Q 0.125 -0.02 0.216 -0.008 Q 0.229 -0.006 0.241 -0.006 Q 0.305 -0.006 0.335 -0.069 Q 0.354 -0.109 0.354 -0.171 Q 0.354 -0.304 0.274 -0.331 Q 0.256 -0.337 0.23500000000000001 -0.337 L 0.191 -0.337 Q 0.169 -0.337 0.167 -0.34800000000000003 Q 0.167 -0.358 0.182 -0.36 Q 0.197 -0.36 0.221 -0.363 Q 0.272 -0.365 0.301 -0.402 L 0.301 -0.403 L 0.302 -0.404 L 0.303 -0.405 L 0.304 -0.405 L 0.31 -0.41500000000000004 Q 0.338 -0.462 0.338 -0.529 Q 0.338 -0.622 0.266 -0.638 Q 0.254 -0.641 0.242 -0.641 Q 0.17200000000000001 -0.641 0.128 -0.601 Q 0.117 -0.591 0.109 -0.579 Q 0.171 -0.579 0.171 -0.529 Q 0.171 -0.493 0.14 -0.481 Q 0.131 -0.47800000000000004 0.12 -0.47800000000000004 Q 0.081 -0.47800000000000004 0.07100000000000001 -0.513 L 0.07100000000000001 -0.513 L 0.07100000000000001 -0.514 Q 0.069 -0.522 0.069 -0.53 Q 0.069 -0.597 0.135 -0.637 Q 0.183 -0.666 0.246 -0.666 Q 0.337 -0.666 0.393 -0.612 L 0.395 -0.61 Q 0.43 -0.5740000000000001 0.43 -0.528 Q 0.43 -0.445 0.359 -0.389 Q 0.328 -0.365 0.29 -0.352 Z"/></g></g><path fill="none" stroke="rgb(102,102,102)" paint-order="fill stroke markers" d=" M 24.999999999999964 187.99999999999997 L 349.0000000000004 187.99999999999997" stroke-opacity="0.6980392156862745" stroke-linecap="round" stroke-linejoin="round" stroke-miterlimit="10"/><g transform="scale(19,19)"><g transform="translate(2.9473684210526314,3.6550296631578947)"><path fill="rgb(102,102,102)" stroke="none" paint-order="stroke fill markers" d=" M 0.016 -0.099 L 0.016 -0.099 L 0.093 -0.17200000000000001 Q 0.093 -0.338 0.17200000000000001 -0.517 Q 0.223 -0.634 0.28300000000000003 -0.682 Q 0.312 -0.705 0.339 -0.705 Q 0.398 -0.705 0.398 -0.627 Q 0.398 -0.47300000000000003 0.226 -0.277 Q 0.201 -0.248 0.17500000000000002 -0.222 Q 0.159 -0.20600000000000002 0.153 -0.197 Q 0.148 -0.189 0.148 -0.14 Q 0.148 -0.01 0.209 -0.01 Q 0.26 -0.01 0.339 -0.088 Q 0.34900000000000003 -0.097 0.352 -0.097 Q 0.362 -0.097 0.364 -0.085 Q 0.364 -0.073 0.31 -0.031 L 0.31 -0.031 Q 0.306 -0.028 0.303 -0.026000000000000002 Q 0.25 0.012 0.20700000000000002 0.012 Q 0.114 0.012 0.095 -0.14100000000000001 Q 0.075 -0.121 0.059000000000000004 -0.107 Q 0.028 -0.076 0.023 -0.076 Q 0.015 -0.076 0.011 -0.089 Q 0.011 -0.092 0.016 -0.099 M 0.158 -0.23900000000000002 Q 0.374 -0.464 0.374 -0.631 Q 0.374 -0.683 0.34 -0.683 Q 0.31 -0.683 0.279 -0.626 L 0.278 -0.625 L 0.26 -0.589 Q 0.20400000000000001 -0.47400000000000003 0.159 -0.244 L 0.159 -0.243 Q 0.158 -0.24 0.158 -0.23900000000000002 Z"/></g><g transform="translate(3.3643684210526312,3.2313052631578945) scale(0.7,0.7)"><path fill="rgb(102,102,102)" stroke="none" paint-order="stroke fill markers" d=" M 0.255 -0.47900000000000004 L 0.076 -0.059000000000000004 Q 0.07 -0.045 0.063 -0.045 Q 0.045 -0.045 0.033 -0.056 Q 0.029 -0.059000000000000004 0.029 -0.063 Q 0.029 -0.065 0.032 -0.077 L 0.153 -0.513 Q 0.166 -0.554 0.197 -0.558 Q 0.202 -0.559 0.20600000000000002 -0.559 Q 0.24 -0.559 0.256 -0.53 Q 0.262 -0.519 0.262 -0.507 Q 0.262 -0.494 0.255 -0.47900000000000004 Z"/></g><g transform="translate(3.3643684210526312,3.9022466631578947) scale(0.7,0.7)"><path fill="rgb(102,102,102)" stroke="none" paint-order="stroke fill markers" d=" M 0.449 -0.17400000000000002 L 0.449 -0.17400000000000002 L 0.421 0 L 0.05 0 Q 0.05 -0.025 0.056 -0.032 L 0.061 -0.037 L 0.253 -0.251 Q 0.358 -0.369 0.358 -0.47200000000000003 Q 0.358 -0.561 0.304 -0.607 L 0.303 -0.608 L 0.302 -0.608 Q 0.27 -0.635 0.224 -0.635 Q 0.152 -0.635 0.109 -0.5730000000000001 Q 0.097 -0.555 0.089 -0.533 Q 0.092 -0.534 0.10200000000000001 -0.534 Q 0.14200000000000002 -0.534 0.153 -0.498 L 0.153 -0.497 Q 0.155 -0.49 0.155 -0.482 Q 0.155 -0.442 0.117 -0.431 Q 0.109 -0.429 0.10300000000000001 -0.429 Q 0.066 -0.429 0.054 -0.46 Q 0.05 -0.47100000000000003 0.05 -0.485 Q 0.05 -0.562 0.109 -0.617 Q 0.162 -0.666 0.23700000000000002 -0.666 Q 0.34700000000000003 -0.666 0.40800000000000003 -0.592 Q 0.443 -0.549 0.448 -0.49 Q 0.449 -0.481 0.449 -0.47200000000000003 Q 0.449 -0.399 0.394 -0.333 Q 0.365 -0.299 0.304 -0.243 L 0.243 -0.189 L 0.233 -0.18 L 0.127 -0.077 L 0.307 -0.077 Q 0.395 -0.077 0.402 -0.085 Q 0.41200000000000003 -0.099 0.424 -0.17400000000000002 L 0.449 -0.17400000000000002 Z"/></g></g><path fill="none" stroke="rgb(102,102,102)" paint-order="fill stroke markers" d=" M 21.48720558371168 17.141361455903763 L 137.4067332602635 217.91987298107776" stroke-opacity="0.6980392156862745" stroke-linecap="round" stroke-linejoin="round" stroke-miterlimit="10"/><g transform="scale(19,19)"><g transform="translate(13.31578947368421,4.233977031578947)"><path fill="rgb(102,102,102)" stroke="none" paint-order="stroke fill markers" d=" M 0.016 -0.099 L 0.016 -0.099 L 0.093 -0.17200000000000001 Q 0.093 -0.338 0.17200000000000001 -0.517 Q 0.223 -0.634 0.28300000000000003 -0.682 Q 0.312 -0.705 0.339 -0.705 Q 0.398 -0.705 0.398 -0.627 Q 0.398 -0.47300000000000003 0.226 -0.277 Q 0.201 -0.248 0.17500000000000002 -0.222 Q 0.159 -0.20600000000000002 0.153 -0.197 Q 0.148 -0.189 0.148 -0.14 Q 0.148 -0.01 0.209 -0.01 Q 0.26 -0.01 0.339 -0.088 Q 0.34900000000000003 -0.097 0.352 -0.097 Q 0.362 -0.097 0.364 -0.085 Q 0.364 -0.073 0.31 -0.031 L 0.31 -0.031 Q 0.306 -0.028 0.303 -0.026000000000000002 Q 0.25 0.012 0.20700000000000002 0.012 Q 0.114 0.012 0.095 -0.14100000000000001 Q 0.075 -0.121 0.059000000000000004 -0.107 Q 0.028 -0.076 0.023 -0.076 Q 0.015 -0.076 0.011 -0.089 Q 0.011 -0.092 0.016 -0.099 M 0.158 -0.23900000000000002 Q 0.374 -0.464 0.374 -0.631 Q 0.374 -0.683 0.34 -0.683 Q 0.31 -0.683 0.279 -0.626 L 0.278 -0.625 L 0.26 -0.589 Q 0.20400000000000001 -0.47400000000000003 0.159 -0.244 L 0.159 -0.243 Q 0.158 -0.24 0.158 -0.23900000000000002 Z"/></g><g transform="translate(13.73278947368421,3.8102526315789467) scale(0.7,0.7)"><path fill="rgb(102,102,102)" stroke="none" paint-order="stroke fill markers" d=" M 0.255 -0.47900000000000004 L 0.076 -0.059000000000000004 Q 0.07 -0.045 0.063 -0.045 Q 0.045 -0.045 0.033 -0.056 Q 0.029 -0.059000000000000004 0.029 -0.063 Q 0.029 -0.065 0.032 -0.077 L 0.153 -0.513 Q 0.166 -0.554 0.197 -0.558 Q 0.202 -0.559 0.20600000000000002 -0.559 Q 0.24 -0.559 0.256 -0.53 Q 0.262 -0.519 0.262 -0.507 Q 0.262 -0.494 0.255 -0.47900000000000004 Z"/></g><g transform="translate(13.925289473684211,3.8102526315789467) scale(0.7,0.7)"><path fill="rgb(102,102,102)" stroke="none" paint-order="stroke fill markers" d=" M 0.255 -0.47900000000000004 L 0.076 -0.059000000000000004 Q 0.07 -0.045 0.063 -0.045 Q 0.045 -0.045 0.033 -0.056 Q 0.029 -0.059000000000000004 0.029 -0.063 Q 0.029 -0.065 0.032 -0.077 L 0.153 -0.513 Q 0.166 -0.554 0.197 -0.558 Q 0.202 -0.559 0.20600000000000002 -0.559 Q 0.24 -0.559 0.256 -0.53 Q 0.262 -0.519 0.262 -0.507 Q 0.262 -0.494 0.255 -0.47900000000000004 Z"/></g><g transform="translate(13.73278947368421,4.481194031578947) scale(0.7,0.7)"><path fill="rgb(102,102,102)" stroke="none" paint-order="stroke fill markers" d=" M 0.449 -0.17400000000000002 L 0.449 -0.17400000000000002 L 0.421 0 L 0.05 0 Q 0.05 -0.025 0.056 -0.032 L 0.061 -0.037 L 0.253 -0.251 Q 0.358 -0.369 0.358 -0.47200000000000003 Q 0.358 -0.561 0.304 -0.607 L 0.303 -0.608 L 0.302 -0.608 Q 0.27 -0.635 0.224 -0.635 Q 0.152 -0.635 0.109 -0.5730000000000001 Q 0.097 -0.555 0.089 -0.533 Q 0.092 -0.534 0.10200000000000001 -0.534 Q 0.14200000000000002 -0.534 0.153 -0.498 L 0.153 -0.497 Q 0.155 -0.49 0.155 -0.482 Q 0.155 -0.442 0.117 -0.431 Q 0.109 -0.429 0.10300000000000001 -0.429 Q 0.066 -0.429 0.054 -0.46 Q 0.05 -0.47100000000000003 0.05 -0.485 Q 0.05 -0.562 0.109 -0.617 Q 0.162 -0.666 0.23700000000000002 -0.666 Q 0.34700000000000003 -0.666 0.40800000000000003 -0.592 Q 0.443 -0.549 0.448 -0.49 Q 0.449 -0.481 0.449 -0.47200000000000003 Q 0.449 -0.399 0.394 -0.333 Q 0.365 -0.299 0.304 -0.243 L 0.243 -0.189 L 0.233 -0.18 L 0.127 -0.077 L 0.307 -0.077 Q 0.395 -0.077 0.402 -0.085 Q 0.41200000000000003 -0.099 0.424 -0.17400000000000002 L 0.449 -0.17400000000000002 Z"/></g></g><path fill="none" stroke="rgb(102,102,102)" paint-order="fill stroke markers" d=" M 276.878819820073 16.507386859688182 L 159.54422863406003 219.73686027918552" stroke-opacity="0.6980392156862745" stroke-linecap="round" stroke-linejoin="round" stroke-miterlimit="10"/><path fill="none" stroke="rgb(0,100,0)" paint-order="fill stroke markers" d=" M 177.86751345948142 187.99999999999997 L 149.0000000000001 38.00000000000006" stroke-opacity="0.6980392156862745" stroke-linecap="round" stroke-linejoin="round" stroke-miterlimit="10"/><path fill="rgb(0,0,255)" stroke="none" paint-order="stroke fill markers" d=" M 151.0000000000001 38.00000000000006 C 151.0000000000001 39.10456949966164 150.1045694996617 40.00000000000006 149.0000000000001 40.00000000000006 C 147.89543050033853 40.00000000000006 147.0000000000001 39.10456949966164 147.0000000000001 38.00000000000006 C 147.0000000000001 36.89543050033847 147.89543050033853 36.00000000000006 149.0000000000001 36.00000000000006 C 150.1045694996617 36.00000000000006 151.0000000000001 36.89543050033847 151.0000000000001 38.00000000000006 Z" fill-opacity="1"/><path fill="none" stroke="rgb(0,0,0)" paint-order="fill stroke markers" d=" M 151.0000000000001 38.00000000000006 C 151.0000000000001 39.10456949966164 150.1045694996617 40.00000000000006 149.0000000000001 40.00000000000006 C 147.89543050033853 40.00000000000006 147.0000000000001 39.10456949966164 147.0000000000001 38.00000000000006 C 147.0000000000001 36.89543050033847 147.89543050033853 36.00000000000006 149.0000000000001 36.00000000000006 C 150.1045694996617 36.00000000000006 151.0000000000001 36.89543050033847 151.0000000000001 38.00000000000006 Z" stroke-opacity="1" stroke-linecap="round" stroke-linejoin="round" stroke-miterlimit="10"/><text fill="rgb(0,0,255)" stroke="none" font-family="geogebra-sans-serif, sans-serif" font-size="16px" font-style="normal" font-weight="normal" text-decoration="normal" x="140" y="25" text-anchor="start" dominant-baseline="alphabetic" fill-opacity="1">A</text><text fill="none" stroke="rgb(255,255,255)" font-family="geogebra-sans-serif, sans-serif" font-size="16px" font-style="normal" font-weight="normal" text-decoration="normal" x="140" y="25" text-anchor="start" dominant-baseline="alphabetic" stroke-opacity="1" stroke-linejoin="bevel" stroke-miterlimit="10" stroke-width="3">A</text><text fill="rgb(0,0,255)" stroke="none" font-family="geogebra-sans-serif, sans-serif" font-size="16px" font-style="normal" font-weight="normal" text-decoration="normal" x="140" y="25" text-anchor="start" dominant-baseline="alphabetic" fill-opacity="1">A</text><path fill="rgb(0,0,255)" stroke="none" paint-order="stroke fill markers" d=" M 122.13248654051883 187.99999999999997 C 122.13248654051883 189.10456949966155 121.23705604018042 189.99999999999997 120.13248654051883 189.99999999999997 C 119.02791704085723 189.99999999999997 118.13248654051883 189.10456949966155 118.13248654051883 187.99999999999997 C 118.13248654051883 186.8954305003384 119.02791704085723 185.99999999999997 120.13248654051883 185.99999999999997 C 121.23705604018042 185.99999999999997 122.13248654051883 186.8954305003384 122.13248654051883 187.99999999999997 Z" fill-opacity="1"/><path fill="none" stroke="rgb(0,0,0)" paint-order="fill stroke markers" d=" M 122.13248654051883 187.99999999999997 C 122.13248654051883 189.10456949966155 121.23705604018042 189.99999999999997 120.13248654051883 189.99999999999997 C 119.02791704085723 189.99999999999997 118.13248654051883 189.10456949966155 118.13248654051883 187.99999999999997 C 118.13248654051883 186.8954305003384 119.02791704085723 185.99999999999997 120.13248654051883 185.99999999999997 C 121.23705604018042 185.99999999999997 122.13248654051883 186.8954305003384 122.13248654051883 187.99999999999997 Z" stroke-opacity="1" stroke-linecap="round" stroke-linejoin="round" stroke-miterlimit="10"/><text fill="rgb(0,0,255)" stroke="none" font-family="geogebra-sans-serif, sans-serif" font-size="16px" font-style="normal" font-weight="normal" text-decoration="normal" x="102" y="208" text-anchor="start" dominant-baseline="alphabetic" fill-opacity="1">C</text><text fill="none" stroke="rgb(255,255,255)" font-family="geogebra-sans-serif, sans-serif" font-size="16px" font-style="normal" font-weight="normal" text-decoration="normal" x="102" y="208" text-anchor="start" dominant-baseline="alphabetic" stroke-opacity="1" stroke-linejoin="bevel" stroke-miterlimit="10" stroke-width="3">C</text><text fill="rgb(0,0,255)" stroke="none" font-family="geogebra-sans-serif, sans-serif" font-size="16px" font-style="normal" font-weight="normal" text-decoration="normal" x="102" y="208" text-anchor="start" dominant-baseline="alphabetic" fill-opacity="1">C</text><text fill="rgb(0,0,255)" stroke="none" font-family="geogebra-sans-serif, sans-serif" font-size="14px" font-style="normal" font-weight="normal" text-decoration="normal" x="114" y="215" text-anchor="start" dominant-baseline="alphabetic" fill-opacity="1">1</text><text fill="none" stroke="rgb(255,255,255)" font-family="geogebra-sans-serif, sans-serif" font-size="14px" font-style="normal" font-weight="normal" text-decoration="normal" x="114" y="215" text-anchor="start" dominant-baseline="alphabetic" stroke-opacity="1" stroke-linejoin="bevel" stroke-miterlimit="10" stroke-width="3">1</text><text fill="rgb(0,0,255)" stroke="none" font-family="geogebra-sans-serif, sans-serif" font-size="14px" font-style="normal" font-weight="normal" text-decoration="normal" x="114" y="215" text-anchor="start" dominant-baseline="alphabetic" fill-opacity="1">1</text><path fill="rgb(0,0,255)" stroke="none" paint-order="stroke fill markers" d=" M 266.47005383792543 137.99999999999997 C 266.47005383792543 139.10456949966155 265.574623337587 139.99999999999997 264.47005383792543 139.99999999999997 C 263.36548433826385 139.99999999999997 262.47005383792543 139.10456949966155 262.47005383792543 137.99999999999997 C 262.47005383792543 136.8954305003384 263.36548433826385 135.99999999999997 264.47005383792543 135.99999999999997 C 265.574623337587 135.99999999999997 266.47005383792543 136.8954305003384 266.47005383792543 137.99999999999997 Z" fill-opacity="1"/><path fill="none" stroke="rgb(0,0,0)" paint-order="fill stroke markers" d=" M 266.47005383792543 137.99999999999997 C 266.47005383792543 139.10456949966155 265.574623337587 139.99999999999997 264.47005383792543 139.99999999999997 C 263.36548433826385 139.99999999999997 262.47005383792543 139.10456949966155 262.47005383792543 137.99999999999997 C 262.47005383792543 136.8954305003384 263.36548433826385 135.99999999999997 264.47005383792543 135.99999999999997 C 265.574623337587 135.99999999999997 266.47005383792543 136.8954305003384 266.47005383792543 137.99999999999997 Z" stroke-opacity="1" stroke-linecap="round" stroke-linejoin="round" stroke-miterlimit="10"/><text fill="rgb(0,0,255)" stroke="none" font-family="geogebra-sans-serif, sans-serif" font-size="16px" font-style="normal" font-weight="normal" text-decoration="normal" x="267" y="124" text-anchor="start" dominant-baseline="alphabetic" fill-opacity="1">B</text><text fill="none" stroke="rgb(255,255,255)" font-family="geogebra-sans-serif, sans-serif" font-size="16px" font-style="normal" font-weight="normal" text-decoration="normal" x="267" y="124" text-anchor="start" dominant-baseline="alphabetic" stroke-opacity="1" stroke-linejoin="bevel" stroke-miterlimit="10" stroke-width="3">B</text><text fill="rgb(0,0,255)" stroke="none" font-family="geogebra-sans-serif, sans-serif" font-size="16px" font-style="normal" font-weight="normal" text-decoration="normal" x="267" y="124" text-anchor="start" dominant-baseline="alphabetic" fill-opacity="1">B</text><text fill="rgb(0,0,255)" stroke="none" font-family="geogebra-sans-serif, sans-serif" font-size="14px" font-style="normal" font-weight="normal" text-decoration="normal" x="278" y="131" text-anchor="start" dominant-baseline="alphabetic" fill-opacity="1">1</text><text fill="none" stroke="rgb(255,255,255)" font-family="geogebra-sans-serif, sans-serif" font-size="14px" font-style="normal" font-weight="normal" text-decoration="normal" x="278" y="131" text-anchor="start" dominant-baseline="alphabetic" stroke-opacity="1" stroke-linejoin="bevel" stroke-miterlimit="10" stroke-width="3">1</text><text fill="rgb(0,0,255)" stroke="none" font-family="geogebra-sans-serif, sans-serif" font-size="14px" font-style="normal" font-weight="normal" text-decoration="normal" x="278" y="131" text-anchor="start" dominant-baseline="alphabetic" fill-opacity="1">1</text><path fill="rgb(0,0,255)" stroke="none" paint-order="stroke fill markers" d=" M 179.86751345948142 187.99999999999997 C 179.86751345948142 189.10456949966155 178.972082959143 189.99999999999997 177.86751345948142 189.99999999999997 C 176.76294395981984 189.99999999999997 175.86751345948142 189.10456949966155 175.86751345948142 187.99999999999997 C 175.86751345948142 186.8954305003384 176.76294395981984 185.99999999999997 177.86751345948142 185.99999999999997 C 178.972082959143 185.99999999999997 179.86751345948142 186.8954305003384 179.86751345948142 187.99999999999997 Z" fill-opacity="1"/><path fill="none" stroke="rgb(0,0,0)" paint-order="fill stroke markers" d=" M 179.86751345948142 187.99999999999997 C 179.86751345948142 189.10456949966155 178.972082959143 189.99999999999997 177.86751345948142 189.99999999999997 C 176.76294395981984 189.99999999999997 175.86751345948142 189.10456949966155 175.86751345948142 187.99999999999997 C 175.86751345948142 186.8954305003384 176.76294395981984 185.99999999999997 177.86751345948142 185.99999999999997 C 178.972082959143 185.99999999999997 179.86751345948142 186.8954305003384 179.86751345948142 187.99999999999997 Z" stroke-opacity="1" stroke-linecap="round" stroke-linejoin="round" stroke-miterlimit="10"/><text fill="rgb(0,0,255)" stroke="none" font-family="geogebra-sans-serif, sans-serif" font-size="16px" font-style="normal" font-weight="normal" text-decoration="normal" x="184" y="208" text-anchor="start" dominant-baseline="alphabetic" fill-opacity="1">C</text><text fill="none" stroke="rgb(255,255,255)" font-family="geogebra-sans-serif, sans-serif" font-size="16px" font-style="normal" font-weight="normal" text-decoration="normal" x="184" y="208" text-anchor="start" dominant-baseline="alphabetic" stroke-opacity="1" stroke-linejoin="bevel" stroke-miterlimit="10" stroke-width="3">C</text><text fill="rgb(0,0,255)" stroke="none" font-family="geogebra-sans-serif, sans-serif" font-size="16px" font-style="normal" font-weight="normal" text-decoration="normal" x="184" y="208" text-anchor="start" dominant-baseline="alphabetic" fill-opacity="1">C</text><text fill="rgb(0,0,255)" stroke="none" font-family="geogebra-sans-serif, sans-serif" font-size="14px" font-style="normal" font-weight="normal" text-decoration="normal" x="196" y="215" text-anchor="start" dominant-baseline="alphabetic" fill-opacity="1">2</text><text fill="none" stroke="rgb(255,255,255)" font-family="geogebra-sans-serif, sans-serif" font-size="14px" font-style="normal" font-weight="normal" text-decoration="normal" x="196" y="215" text-anchor="start" dominant-baseline="alphabetic" stroke-opacity="1" stroke-linejoin="bevel" stroke-miterlimit="10" stroke-width="3">2</text><text fill="rgb(0,0,255)" stroke="none" font-family="geogebra-sans-serif, sans-serif" font-size="14px" font-style="normal" font-weight="normal" text-decoration="normal" x="196" y="215" text-anchor="start" dominant-baseline="alphabetic" fill-opacity="1">2</text><path fill="rgb(0,0,255)" stroke="none" paint-order="stroke fill markers" d=" M 35.52994616207477 137.99999999999994 C 35.52994616207477 139.10456949966152 34.63451566173636 139.99999999999994 33.52994616207477 139.99999999999994 C 32.425376662413186 139.99999999999994 31.529946162074772 139.10456949966152 31.529946162074772 137.99999999999994 C 31.529946162074772 136.89543050033836 32.425376662413186 135.99999999999994 33.52994616207477 135.99999999999994 C 34.63451566173636 135.99999999999994 35.52994616207477 136.89543050033836 35.52994616207477 137.99999999999994 Z" fill-opacity="1"/><path fill="none" stroke="rgb(0,0,0)" paint-order="fill stroke markers" d=" M 35.52994616207477 137.99999999999994 C 35.52994616207477 139.10456949966152 34.63451566173636 139.99999999999994 33.52994616207477 139.99999999999994 C 32.425376662413186 139.99999999999994 31.529946162074772 139.10456949966152 31.529946162074772 137.99999999999994 C 31.529946162074772 136.89543050033836 32.425376662413186 135.99999999999994 33.52994616207477 135.99999999999994 C 34.63451566173636 135.99999999999994 35.52994616207477 136.89543050033836 35.52994616207477 137.99999999999994 Z" stroke-opacity="1" stroke-linecap="round" stroke-linejoin="round" stroke-miterlimit="10"/><text fill="rgb(0,0,255)" stroke="none" font-family="geogebra-sans-serif, sans-serif" font-size="16px" font-style="normal" font-weight="normal" text-decoration="normal" x="32" y="160" text-anchor="start" dominant-baseline="alphabetic" fill-opacity="1">B</text><text fill="none" stroke="rgb(255,255,255)" font-family="geogebra-sans-serif, sans-serif" font-size="16px" font-style="normal" font-weight="normal" text-decoration="normal" x="32" y="160" text-anchor="start" dominant-baseline="alphabetic" stroke-opacity="1" stroke-linejoin="bevel" stroke-miterlimit="10" stroke-width="3">B</text><text fill="rgb(0,0,255)" stroke="none" font-family="geogebra-sans-serif, sans-serif" font-size="16px" font-style="normal" font-weight="normal" text-decoration="normal" x="32" y="160" text-anchor="start" dominant-baseline="alphabetic" fill-opacity="1">B</text><text fill="rgb(0,0,255)" stroke="none" font-family="geogebra-sans-serif, sans-serif" font-size="14px" font-style="normal" font-weight="normal" text-decoration="normal" x="43" y="167" text-anchor="start" dominant-baseline="alphabetic" fill-opacity="1">2</text><text fill="none" stroke="rgb(255,255,255)" font-family="geogebra-sans-serif, sans-serif" font-size="14px" font-style="normal" font-weight="normal" text-decoration="normal" x="43" y="167" text-anchor="start" dominant-baseline="alphabetic" stroke-opacity="1" stroke-linejoin="bevel" stroke-miterlimit="10" stroke-width="3">2</text><text fill="rgb(0,0,255)" stroke="none" font-family="geogebra-sans-serif, sans-serif" font-size="14px" font-style="normal" font-weight="normal" text-decoration="normal" x="43" y="167" text-anchor="start" dominant-baseline="alphabetic" fill-opacity="1">2</text></g></g></svg>