<svg version="1.1" xmlns="http://www.w3.org/2000/svg" xmlns:xlink="http://www.w3.org/1999/xlink" width="398" height="304"><defs><clipPath id="ONWFHNsNDxug"><path fill="none" stroke="none" d=" M 0 0 L 398 0 L 398 304 L 0 304 L 0 0 Z"/></clipPath></defs><g transform="scale(1,1)" clip-path="url(#ONWFHNsNDxug)"><g><rect fill="rgb(255,255,255)" stroke="none" x="0" y="0" width="398" height="304" fill-opacity="1"/><path fill="none" stroke="rgb(0,153,255)" paint-order="fill stroke markers" d=" M 279.9999999999998 159.833333333333 C 279.9999999999998 233.47129997743923 220.30463331077226 293.1666666666672 146.66666666666657 293.1666666666672 C 73.02870002256088 293.1666666666672 13.3333333333334 233.47129997743923 13.3333333333334 159.833333333333 C 13.3333333333334 86.19536668922676 73.02870002256088 26.499999999998835 146.66666666666657 26.499999999998835 C 220.30463331077226 26.499999999998835 279.9999999999998 86.19536668922676 279.9999999999998 159.833333333333 Z" stroke-opacity="0.6980392156862745" stroke-linecap="round" stroke-linejoin="round" stroke-miterlimit="10"/><g transform="scale(19,19)"><g transform="translate(1.5263157894736843,3.167842105263158)"><path fill="rgb(0,153,255)" stroke="none" paint-order="stroke fill markers" d=" M 0.264 -0.082 Q 0.201 0.011 0.11900000000000001 0.011 Q 0.032 0.011 0.016 -0.089 Q 0.013000000000000001 -0.109 0.013000000000000001 -0.131 Q 0.013000000000000001 -0.22 0.051000000000000004 -0.311 Q 0.082 -0.382 0.112 -0.419 Q 0.122 -0.431 0.127 -0.431 Q 0.139 -0.431 0.139 -0.419 Q 0.139 -0.41400000000000003 0.129 -0.4 Q 0.045 -0.28 0.045 -0.17500000000000002 Q 0.045 -0.08 0.109 -0.064 Q 0.12 -0.061 0.133 -0.061 Q 0.201 -0.061 0.257 -0.138 Q 0.264 -0.145 0.266 -0.165 Q 0.276 -0.23800000000000002 0.28700000000000003 -0.266 Q 0.3 -0.291 0.315 -0.291 Q 0.334 -0.291 0.336 -0.268 Q 0.336 -0.24 0.308 -0.168 Q 0.306 -0.161 0.303 -0.155 Q 0.297 -0.14400000000000002 0.297 -0.139 Q 0.297 -0.111 0.317 -0.084 Q 0.335 -0.061 0.372 -0.061 Q 0.449 -0.061 0.511 -0.14400000000000002 Q 0.562 -0.214 0.562 -0.28 Q 0.562 -0.331 0.527 -0.367 Q 0.512 -0.38 0.512 -0.394 Q 0.512 -0.419 0.539 -0.435 Q 0.55 -0.442 0.562 -0.442 Q 0.599 -0.442 0.604 -0.388 Q 0.605 -0.377 0.605 -0.371 Q 0.605 -0.307 0.5750000000000001 -0.213 Q 0.55 -0.136 0.511 -0.082 Q 0.443 0.011 0.358 0.011 Q 0.277 0.011 0.264 -0.082 Z"/></g><g transform="translate(2.1483157894736844,3.317842105263158) scale(0.7,0.7)"><path fill="rgb(0,153,255)" stroke="none" paint-order="stroke fill markers" d=" M 0.294 -0.64 L 0.294 -0.079 Q 0.294 -0.049 0.306 -0.041 Q 0.323 -0.031 0.387 -0.031 L 0.419 -0.031 L 0.419 0 Q 0.384 -0.003 0.257 -0.003 Q 0.13 -0.003 0.095 0 L 0.095 -0.031 L 0.127 -0.031 Q 0.20400000000000001 -0.031 0.215 -0.049 L 0.216 -0.05 Q 0.22 -0.058 0.22 -0.079 L 0.22 -0.597 Q 0.168 -0.5710000000000001 0.089 -0.5710000000000001 L 0.089 -0.602 Q 0.209 -0.602 0.271 -0.666 Q 0.29 -0.666 0.293 -0.659 L 0.293 -0.659 L 0.293 -0.658 Q 0.294 -0.655 0.294 -0.64 Z"/></g></g><path fill="none" stroke="rgb(0,153,255)" paint-order="fill stroke markers" d=" M 368.8888888888886 159.833333333333 C 368.8888888888886 196.65231665538613 339.0412055442748 226.50000000000009 302.22222222222194 226.50000000000009 C 265.40323890016913 226.50000000000009 235.55555555555537 196.65231665538613 235.55555555555537 159.833333333333 C 235.55555555555537 123.01435001127987 265.40323890016913 93.16666666666592 302.22222222222194 93.16666666666592 C 339.0412055442748 93.16666666666592 368.8888888888886 123.01435001127987 368.8888888888886 159.833333333333 Z" stroke-opacity="0.6980392156862745" stroke-linecap="round" stroke-linejoin="round" stroke-miterlimit="10"/><g transform="scale(19,19)"><g transform="translate(17.63157894736842,4.799421052631579)"><path fill="rgb(0,153,255)" stroke="none" paint-order="stroke fill markers" d=" M 0.264 -0.082 Q 0.201 0.011 0.11900000000000001 0.011 Q 0.032 0.011 0.016 -0.089 Q 0.013000000000000001 -0.109 0.013000000000000001 -0.131 Q 0.013000000000000001 -0.22 0.051000000000000004 -0.311 Q 0.082 -0.382 0.112 -0.419 Q 0.122 -0.431 0.127 -0.431 Q 0.139 -0.431 0.139 -0.419 Q 0.139 -0.41400000000000003 0.129 -0.4 Q 0.045 -0.28 0.045 -0.17500000000000002 Q 0.045 -0.08 0.109 -0.064 Q 0.12 -0.061 0.133 -0.061 Q 0.201 -0.061 0.257 -0.138 Q 0.264 -0.145 0.266 -0.165 Q 0.276 -0.23800000000000002 0.28700000000000003 -0.266 Q 0.3 -0.291 0.315 -0.291 Q 0.334 -0.291 0.336 -0.268 Q 0.336 -0.24 0.308 -0.168 Q 0.306 -0.161 0.303 -0.155 Q 0.297 -0.14400000000000002 0.297 -0.139 Q 0.297 -0.111 0.317 -0.084 Q 0.335 -0.061 0.372 -0.061 Q 0.449 -0.061 0.511 -0.14400000000000002 Q 0.562 -0.214 0.562 -0.28 Q 0.562 -0.331 0.527 -0.367 Q 0.512 -0.38 0.512 -0.394 Q 0.512 -0.419 0.539 -0.435 Q 0.55 -0.442 0.562 -0.442 Q 0.599 -0.442 0.604 -0.388 Q 0.605 -0.377 0.605 -0.371 Q 0.605 -0.307 0.5750000000000001 -0.213 Q 0.55 -0.136 0.511 -0.082 Q 0.443 0.011 0.358 0.011 Q 0.277 0.011 0.264 -0.082 Z"/></g><g transform="translate(18.25357894736842,4.949421052631579) scale(0.7,0.7)"><path fill="rgb(0,153,255)" stroke="none" paint-order="stroke fill markers" d=" M 0.449 -0.17400000000000002 L 0.449 -0.17400000000000002 L 0.421 0 L 0.05 0 Q 0.05 -0.025 0.056 -0.032 L 0.061 -0.037 L 0.253 -0.251 Q 0.358 -0.369 0.358 -0.47200000000000003 Q 0.358 -0.561 0.304 -0.607 L 0.303 -0.608 L 0.302 -0.608 Q 0.27 -0.635 0.224 -0.635 Q 0.152 -0.635 0.109 -0.5730000000000001 Q 0.097 -0.555 0.089 -0.533 Q 0.092 -0.534 0.10200000000000001 -0.534 Q 0.14200000000000002 -0.534 0.153 -0.498 L 0.153 -0.497 Q 0.155 -0.49 0.155 -0.482 Q 0.155 -0.442 0.117 -0.431 Q 0.109 -0.429 0.10300000000000001 -0.429 Q 0.066 -0.429 0.054 -0.46 Q 0.05 -0.47100000000000003 0.05 -0.485 Q 0.05 -0.562 0.109 -0.617 Q 0.162 -0.666 0.23700000000000002 -0.666 Q 0.34700000000000003 -0.666 0.40800000000000003 -0.592 Q 0.443 -0.549 0.448 -0.49 Q 0.449 -0.481 0.449 -0.47200000000000003 Q 0.449 -0.399 0.394 -0.333 Q 0.365 -0.299 0.304 -0.243 L 0.243 -0.189 L 0.233 -0.18 L 0.127 -0.077 L 0.307 -0.077 Q 0.395 -0.077 0.402 -0.085 Q 0.41200000000000003 -0.099 0.424 -0.17400000000000002 L 0.449 -0.17400000000000002 Z"/></g></g><path fill="none" stroke="rgb(255,85,0)" paint-order="fill stroke markers" d=" M 76.8253968253967 46.25527733334306 L 172.06349206349194 74.64979133334054" stroke-opacity="0.6980392156862745" stroke-linecap="round" stroke-linejoin="round" stroke-miterlimit="10" stroke-width="1.5"/><path fill="none" stroke="rgb(255,85,0)" paint-order="fill stroke markers" d=" M 172.06349206349194 74.64979133334054 L 267.3015873015871 103.04430533333803" stroke-opacity="0.6980392156862745" stroke-linecap="round" stroke-linejoin="round" stroke-miterlimit="10" stroke-width="1.5"/><path fill="none" stroke="rgb(255,85,0)" paint-order="fill stroke markers" d=" M 267.3015873015871 103.04430533333803 L 362.53968253968213 131.43881933333552" stroke-opacity="0.6980392156862745" stroke-linecap="round" stroke-linejoin="round" stroke-miterlimit="10" stroke-width="1.5"/><path fill="none" stroke="rgb(255,85,0)" paint-order="fill stroke markers" d=" M 58.85966512818899 40.89893102127911 L 76.8253968253967 46.25527733334306" stroke-opacity="0.6980392156862745" stroke-linejoin="round" stroke-miterlimit="10" stroke-width="1.5" stroke-dasharray="9.5,8"/><path fill="none" stroke="rgb(255,85,0)" paint-order="fill stroke markers" d=" M 362.53968253968213 131.43881933333552 L 381.6716935922678 137.14288296798335" stroke-opacity="0.6980392156862745" stroke-linejoin="round" stroke-miterlimit="10" stroke-width="1.5" stroke-dasharray="9.5,8"/><path fill="rgb(0,0,255)" stroke="none" paint-order="stroke fill markers" d=" M 148.66666666666657 159.833333333333 C 148.66666666666657 160.93790283299458 147.77123616632815 161.833333333333 146.66666666666657 161.833333333333 C 145.562097167005 161.833333333333 144.66666666666657 160.93790283299458 144.66666666666657 159.833333333333 C 144.66666666666657 158.72876383367142 145.562097167005 157.833333333333 146.66666666666657 157.833333333333 C 147.77123616632815 157.833333333333 148.66666666666657 158.72876383367142 148.66666666666657 159.833333333333 Z" fill-opacity="1"/><path fill="none" stroke="rgb(0,0,0)" paint-order="fill stroke markers" d=" M 148.66666666666657 159.833333333333 C 148.66666666666657 160.93790283299458 147.77123616632815 161.833333333333 146.66666666666657 161.833333333333 C 145.562097167005 161.833333333333 144.66666666666657 160.93790283299458 144.66666666666657 159.833333333333 C 144.66666666666657 158.72876383367142 145.562097167005 157.833333333333 146.66666666666657 157.833333333333 C 147.77123616632815 157.833333333333 148.66666666666657 158.72876383367142 148.66666666666657 159.833333333333 Z" stroke-opacity="1" stroke-linecap="round" stroke-linejoin="round" stroke-miterlimit="10"/><text fill="rgb(0,0,255)" stroke="none" font-family="geogebra-sans-serif, sans-serif" font-size="16px" font-style="normal" font-weight="normal" text-decoration="normal" x="128" y="179" text-anchor="start" dominant-baseline="alphabetic" fill-opacity="1">O</text><text fill="none" stroke="rgb(255,255,255)" font-family="geogebra-sans-serif, sans-serif" font-size="16px" font-style="normal" font-weight="normal" text-decoration="normal" x="128" y="179" text-anchor="start" dominant-baseline="alphabetic" stroke-opacity="1" stroke-linejoin="bevel" stroke-miterlimit="10" stroke-width="3">O</text><text fill="rgb(0,0,255)" stroke="none" font-family="geogebra-sans-serif, sans-serif" font-size="16px" font-style="normal" font-weight="normal" text-decoration="normal" x="128" y="179" text-anchor="start" dominant-baseline="alphabetic" fill-opacity="1">O</text><text fill="rgb(0,0,255)" stroke="none" font-family="geogebra-sans-serif, sans-serif" font-size="14px" font-style="normal" font-weight="normal" text-decoration="normal" x="140" y="186" text-anchor="start" dominant-baseline="alphabetic" fill-opacity="1">1</text><text fill="none" stroke="rgb(255,255,255)" font-family="geogebra-sans-serif, sans-serif" font-size="14px" font-style="normal" font-weight="normal" text-decoration="normal" x="140" y="186" text-anchor="start" dominant-baseline="alphabetic" stroke-opacity="1" stroke-linejoin="bevel" stroke-miterlimit="10" stroke-width="3">1</text><text fill="rgb(0,0,255)" stroke="none" font-family="geogebra-sans-serif, sans-serif" font-size="14px" font-style="normal" font-weight="normal" text-decoration="normal" x="140" y="186" text-anchor="start" dominant-baseline="alphabetic" fill-opacity="1">1</text><path fill="rgb(0,0,255)" stroke="none" paint-order="stroke fill markers" d=" M 304.22222222222194 159.833333333333 C 304.22222222222194 160.93790283299458 303.3267917218835 161.833333333333 302.22222222222194 161.833333333333 C 301.11765272256036 161.833333333333 300.22222222222194 160.93790283299458 300.22222222222194 159.833333333333 C 300.22222222222194 158.72876383367142 301.11765272256036 157.833333333333 302.22222222222194 157.833333333333 C 303.3267917218835 157.833333333333 304.22222222222194 158.72876383367142 304.22222222222194 159.833333333333 Z" fill-opacity="1"/><path fill="none" stroke="rgb(0,0,0)" paint-order="fill stroke markers" d=" M 304.22222222222194 159.833333333333 C 304.22222222222194 160.93790283299458 303.3267917218835 161.833333333333 302.22222222222194 161.833333333333 C 301.11765272256036 161.833333333333 300.22222222222194 160.93790283299458 300.22222222222194 159.833333333333 C 300.22222222222194 158.72876383367142 301.11765272256036 157.833333333333 302.22222222222194 157.833333333333 C 303.3267917218835 157.833333333333 304.22222222222194 158.72876383367142 304.22222222222194 159.833333333333 Z" stroke-opacity="1" stroke-linecap="round" stroke-linejoin="round" stroke-miterlimit="10"/><text fill="rgb(0,0,255)" stroke="none" font-family="geogebra-sans-serif, sans-serif" font-size="16px" font-style="normal" font-weight="normal" text-decoration="normal" x="296" y="182" text-anchor="start" dominant-baseline="alphabetic" fill-opacity="1">O</text><text fill="none" stroke="rgb(255,255,255)" font-family="geogebra-sans-serif, sans-serif" font-size="16px" font-style="normal" font-weight="normal" text-decoration="normal" x="296" y="182" text-anchor="start" dominant-baseline="alphabetic" stroke-opacity="1" stroke-linejoin="bevel" stroke-miterlimit="10" stroke-width="3">O</text><text fill="rgb(0,0,255)" stroke="none" font-family="geogebra-sans-serif, sans-serif" font-size="16px" font-style="normal" font-weight="normal" text-decoration="normal" x="296" y="182" text-anchor="start" dominant-baseline="alphabetic" fill-opacity="1">O</text><text fill="rgb(0,0,255)" stroke="none" font-family="geogebra-sans-serif, sans-serif" font-size="14px" font-style="normal" font-weight="normal" text-decoration="normal" x="308" y="189" text-anchor="start" dominant-baseline="alphabetic" fill-opacity="1">2</text><text fill="none" stroke="rgb(255,255,255)" font-family="geogebra-sans-serif, sans-serif" font-size="14px" font-style="normal" font-weight="normal" text-decoration="normal" x="308" y="189" text-anchor="start" dominant-baseline="alphabetic" stroke-opacity="1" stroke-linejoin="bevel" stroke-miterlimit="10" stroke-width="3">2</text><text fill="rgb(0,0,255)" stroke="none" font-family="geogebra-sans-serif, sans-serif" font-size="14px" font-style="normal" font-weight="normal" text-decoration="normal" x="308" y="189" text-anchor="start" dominant-baseline="alphabetic" fill-opacity="1">2</text><path fill="rgb(0,0,255)" stroke="none" paint-order="stroke fill markers" d=" M 269.3015873015871 103.04430533333803 C 269.3015873015871 104.14887483299961 268.4061568012487 105.04430533333803 267.3015873015871 105.04430533333803 C 266.19701780192554 105.04430533333803 265.3015873015871 104.14887483299961 265.3015873015871 103.04430533333803 C 265.3015873015871 101.93973583367644 266.19701780192554 101.04430533333803 267.3015873015871 101.04430533333803 C 268.4061568012487 101.04430533333803 269.3015873015871 101.93973583367644 269.3015873015871 103.04430533333803 Z" fill-opacity="1"/><path fill="none" stroke="rgb(0,0,0)" paint-order="fill stroke markers" d=" M 269.3015873015871 103.04430533333803 C 269.3015873015871 104.14887483299961 268.4061568012487 105.04430533333803 267.3015873015871 105.04430533333803 C 266.19701780192554 105.04430533333803 265.3015873015871 104.14887483299961 265.3015873015871 103.04430533333803 C 265.3015873015871 101.93973583367644 266.19701780192554 101.04430533333803 267.3015873015871 101.04430533333803 C 268.4061568012487 101.04430533333803 269.3015873015871 101.93973583367644 269.3015873015871 103.04430533333803 Z" stroke-opacity="1" stroke-linecap="round" stroke-linejoin="round" stroke-miterlimit="10"/><text fill="rgb(0,0,255)" stroke="none" font-family="geogebra-sans-serif, sans-serif" font-size="16px" font-style="normal" font-weight="normal" text-decoration="normal" x="261" y="87" text-anchor="start" dominant-baseline="alphabetic" fill-opacity="1">P</text><text fill="none" stroke="rgb(255,255,255)" font-family="geogebra-sans-serif, sans-serif" font-size="16px" font-style="normal" font-weight="normal" text-decoration="normal" x="261" y="87" text-anchor="start" dominant-baseline="alphabetic" stroke-opacity="1" stroke-linejoin="bevel" stroke-miterlimit="10" stroke-width="3">P</text><text fill="rgb(0,0,255)" stroke="none" font-family="geogebra-sans-serif, sans-serif" font-size="16px" font-style="normal" font-weight="normal" text-decoration="normal" x="261" y="87" text-anchor="start" dominant-baseline="alphabetic" fill-opacity="1">P</text><path fill="rgb(0,0,255)" stroke="none" paint-order="stroke fill markers" d=" M 78.8253968253967 46.25527733334306 C 78.8253968253967 47.359846833004646 77.92996632505827 48.25527733334306 76.8253968253967 48.25527733334306 C 75.7208273257351 48.25527733334306 74.8253968253967 47.359846833004646 74.8253968253967 46.25527733334306 C 74.8253968253967 45.15070783368147 75.7208273257351 44.25527733334306 76.8253968253967 44.25527733334306 C 77.92996632505827 44.25527733334306 78.8253968253967 45.15070783368147 78.8253968253967 46.25527733334306 Z" fill-opacity="1"/><path fill="none" stroke="rgb(0,0,0)" paint-order="fill stroke markers" d=" M 78.8253968253967 46.25527733334306 C 78.8253968253967 47.359846833004646 77.92996632505827 48.25527733334306 76.8253968253967 48.25527733334306 C 75.7208273257351 48.25527733334306 74.8253968253967 47.359846833004646 74.8253968253967 46.25527733334306 C 74.8253968253967 45.15070783368147 75.7208273257351 44.25527733334306 76.8253968253967 44.25527733334306 C 77.92996632505827 44.25527733334306 78.8253968253967 45.15070783368147 78.8253968253967 46.25527733334306 Z" stroke-opacity="1" stroke-linecap="round" stroke-linejoin="round" stroke-miterlimit="10"/><text fill="rgb(0,0,255)" stroke="none" font-family="geogebra-sans-serif, sans-serif" font-size="16px" font-style="normal" font-weight="normal" text-decoration="normal" x="71" y="28" text-anchor="start" dominant-baseline="alphabetic" fill-opacity="1">A</text><text fill="none" stroke="rgb(255,255,255)" font-family="geogebra-sans-serif, sans-serif" font-size="16px" font-style="normal" font-weight="normal" text-decoration="normal" x="71" y="28" text-anchor="start" dominant-baseline="alphabetic" stroke-opacity="1" stroke-linejoin="bevel" stroke-miterlimit="10" stroke-width="3">A</text><text fill="rgb(0,0,255)" stroke="none" font-family="geogebra-sans-serif, sans-serif" font-size="16px" font-style="normal" font-weight="normal" text-decoration="normal" x="71" y="28" text-anchor="start" dominant-baseline="alphabetic" fill-opacity="1">A</text><path fill="rgb(0,0,255)" stroke="none" paint-order="stroke fill markers" d=" M 364.53968253968213 131.43881933333552 C 364.53968253968213 132.5433888329971 363.6442520393437 133.43881933333552 362.53968253968213 133.43881933333552 C 361.43511304002055 133.43881933333552 360.53968253968213 132.5433888329971 360.53968253968213 131.43881933333552 C 360.53968253968213 130.33424983367394 361.43511304002055 129.43881933333552 362.53968253968213 129.43881933333552 C 363.6442520393437 129.43881933333552 364.53968253968213 130.33424983367394 364.53968253968213 131.43881933333552 Z" fill-opacity="1"/><path fill="none" stroke="rgb(0,0,0)" paint-order="fill stroke markers" d=" M 364.53968253968213 131.43881933333552 C 364.53968253968213 132.5433888329971 363.6442520393437 133.43881933333552 362.53968253968213 133.43881933333552 C 361.43511304002055 133.43881933333552 360.53968253968213 132.5433888329971 360.53968253968213 131.43881933333552 C 360.53968253968213 130.33424983367394 361.43511304002055 129.43881933333552 362.53968253968213 129.43881933333552 C 363.6442520393437 129.43881933333552 364.53968253968213 130.33424983367394 364.53968253968213 131.43881933333552 Z" stroke-opacity="1" stroke-linecap="round" stroke-linejoin="round" stroke-miterlimit="10"/><text fill="rgb(0,0,255)" stroke="none" font-family="geogebra-sans-serif, sans-serif" font-size="16px" font-style="normal" font-weight="normal" text-decoration="normal" x="372" y="122" text-anchor="start" dominant-baseline="alphabetic" fill-opacity="1">B</text><text fill="none" stroke="rgb(255,255,255)" font-family="geogebra-sans-serif, sans-serif" font-size="16px" font-style="normal" font-weight="normal" text-decoration="normal" x="372" y="122" text-anchor="start" dominant-baseline="alphabetic" stroke-opacity="1" stroke-linejoin="bevel" stroke-miterlimit="10" stroke-width="3">B</text><text fill="rgb(0,0,255)" stroke="none" font-family="geogebra-sans-serif, sans-serif" font-size="16px" font-style="normal" font-weight="normal" text-decoration="normal" x="372" y="122" text-anchor="start" dominant-baseline="alphabetic" fill-opacity="1">B</text></g></g></svg>