<svg version="1.1" xmlns="http://www.w3.org/2000/svg" xmlns:xlink="http://www.w3.org/1999/xlink" width="320" height="326"><defs><clipPath id="LUgTKiZTCVVn"><path fill="none" stroke="none" d=" M 0 0 L 320 0 L 320 326 L 0 326 L 0 0 Z"/></clipPath></defs><g transform="scale(1,1)" clip-path="url(#LUgTKiZTCVVn)"><g><rect fill="rgb(255,255,255)" stroke="none" x="0" y="0" width="320" height="326" fill-opacity="1"/><path fill="rgb(153,51,255)" stroke="none" paint-order="stroke fill markers" fill-rule="evenodd" d=" M 91.548925627583 42.982103909710986 L 123.50020652527726 163.4128448386432 L 81.63604169592008 270.168624285239 Z" fill-opacity="0.047058823529411764"/><path fill="rgb(153,51,255)" stroke="none" paint-order="stroke fill markers" fill-rule="evenodd" d=" M 165.36437135463447 56.6570653920474 L 123.50020652527726 163.4128448386432 L 155.45148742297152 283.84358576757546 Z" fill-opacity="0.047058823529411764"/><path fill="none" stroke="rgb(0,153,255)" paint-order="fill stroke markers" d=" M 289.50000000000034 159.6111111111094 C 289.50000000000034 233.24907775521564 229.80463331077272 292.9444444444436 156.16666666666688 292.9444444444436 C 82.52870002256105 292.9444444444436 22.833333333333456 233.24907775521564 22.833333333333456 159.6111111111094 C 22.833333333333456 85.97314446700315 82.52870002256105 26.277777777775214 156.16666666666688 26.277777777775214 C 229.80463331077272 26.277777777775214 289.50000000000034 85.97314446700315 289.50000000000034 159.6111111111094 Z" stroke-opacity="0.6980392156862745" stroke-linecap="round" stroke-linejoin="round" stroke-miterlimit="10"/><g transform="scale(19,19)"><g transform="translate(2.0526315789473686,3.167842105263158)"><path fill="rgb(0,153,255)" stroke="none" paint-order="stroke fill markers" d=" M 0.264 -0.082 Q 0.201 0.011 0.11900000000000001 0.011 Q 0.032 0.011 0.016 -0.089 Q 0.013000000000000001 -0.109 0.013000000000000001 -0.131 Q 0.013000000000000001 -0.22 0.051000000000000004 -0.311 Q 0.082 -0.382 0.112 -0.419 Q 0.122 -0.431 0.127 -0.431 Q 0.139 -0.431 0.139 -0.419 Q 0.139 -0.41400000000000003 0.129 -0.4 Q 0.045 -0.28 0.045 -0.17500000000000002 Q 0.045 -0.08 0.109 -0.064 Q 0.12 -0.061 0.133 -0.061 Q 0.201 -0.061 0.257 -0.138 Q 0.264 -0.145 0.266 -0.165 Q 0.276 -0.23800000000000002 0.28700000000000003 -0.266 Q 0.3 -0.291 0.315 -0.291 Q 0.334 -0.291 0.336 -0.268 Q 0.336 -0.24 0.308 -0.168 Q 0.306 -0.161 0.303 -0.155 Q 0.297 -0.14400000000000002 0.297 -0.139 Q 0.297 -0.111 0.317 -0.084 Q 0.335 -0.061 0.372 -0.061 Q 0.449 -0.061 0.511 -0.14400000000000002 Q 0.562 -0.214 0.562 -0.28 Q 0.562 -0.331 0.527 -0.367 Q 0.512 -0.38 0.512 -0.394 Q 0.512 -0.419 0.539 -0.435 Q 0.55 -0.442 0.562 -0.442 Q 0.599 -0.442 0.604 -0.388 Q 0.605 -0.377 0.605 -0.371 Q 0.605 -0.307 0.5750000000000001 -0.213 Q 0.55 -0.136 0.511 -0.082 Q 0.443 0.011 0.358 0.011 Q 0.277 0.011 0.264 -0.082 Z"/></g><g transform="translate(2.6746315789473685,3.317842105263158) scale(0.7,0.7)"><path fill="rgb(0,153,255)" stroke="none" paint-order="stroke fill markers" d=" M 0.294 -0.64 L 0.294 -0.079 Q 0.294 -0.049 0.306 -0.041 Q 0.323 -0.031 0.387 -0.031 L 0.419 -0.031 L 0.419 0 Q 0.384 -0.003 0.257 -0.003 Q 0.13 -0.003 0.095 0 L 0.095 -0.031 L 0.127 -0.031 Q 0.20400000000000001 -0.031 0.215 -0.049 L 0.216 -0.05 Q 0.22 -0.058 0.22 -0.079 L 0.22 -0.597 Q 0.168 -0.5710000000000001 0.089 -0.5710000000000001 L 0.089 -0.602 Q 0.209 -0.602 0.271 -0.666 Q 0.29 -0.666 0.293 -0.659 L 0.293 -0.659 L 0.293 -0.658 Q 0.294 -0.655 0.294 -0.64 Z"/></g></g><path fill="none" stroke="rgb(0,100,0)" paint-order="fill stroke markers" d=" M 81.63604169592008 270.168624285239 L 230.58469738543556 270.24444461289966" stroke-opacity="0.6980392156862745" stroke-linecap="round" stroke-linejoin="round" stroke-miterlimit="10"/><path fill="none" stroke="rgb(102,102,102)" paint-order="fill stroke markers" d=" M 149.26057160257926 110.04861270702467 L 140.88179022918314 106.76288254512299" stroke-opacity="0.6980392156862745" stroke-linecap="round" stroke-linejoin="round" stroke-miterlimit="10"/><path fill="none" stroke="rgb(102,102,102)" paint-order="fill stroke markers" d=" M 147.9827876507286 113.3070276855676 L 139.60400627733247 110.02129752366592" stroke-opacity="0.6980392156862745" stroke-linecap="round" stroke-linejoin="round" stroke-miterlimit="10"/><path fill="none" stroke="rgb(102,102,102)" paint-order="fill stroke markers" d=" M 165.36437135463447 56.6570653920474 L 123.50020652527726 163.4128448386432" stroke-opacity="0.6980392156862745" stroke-linejoin="round" stroke-miterlimit="10" stroke-dasharray="9,8"/><path fill="none" stroke="rgb(102,102,102)" paint-order="fill stroke markers" d=" M 107.39640677322205 216.80439215362046 L 99.01762539982593 213.5186619917188" stroke-opacity="0.6980392156862745" stroke-linecap="round" stroke-linejoin="round" stroke-miterlimit="10"/><path fill="none" stroke="rgb(102,102,102)" paint-order="fill stroke markers" d=" M 106.11862282137142 220.06280713216339 L 97.7398414479753 216.77707697026173" stroke-opacity="0.6980392156862745" stroke-linecap="round" stroke-linejoin="round" stroke-miterlimit="10"/><path fill="none" stroke="rgb(102,102,102)" paint-order="fill stroke markers" d=" M 123.50020652527726 163.4128448386432 L 81.63604169592008 270.168624285239" stroke-opacity="0.6980392156862745" stroke-linejoin="round" stroke-miterlimit="10" stroke-dasharray="9,8"/><path fill="none" stroke="rgb(0,100,0)" paint-order="fill stroke markers" d=" M 91.548925627583 42.982103909710986 L 81.63604169592008 270.168624285239" stroke-opacity="0.6980392156862745" stroke-linecap="round" stroke-linejoin="round" stroke-miterlimit="10"/><path fill="none" stroke="rgb(0,100,0)" paint-order="fill stroke markers" d=" M 91.548925627583 42.982103909710986 L 230.58469738543556 270.24444461289966" stroke-opacity="0.6980392156862745" stroke-linecap="round" stroke-linejoin="round" stroke-miterlimit="10"/><path fill="none" stroke="rgb(255,85,0)" paint-order="fill stroke markers" d=" M 105.55846585196106 171.27624023819698 L 103.93593690487573 162.4237038888861" stroke-opacity="0.6980392156862745" stroke-linecap="round" stroke-linejoin="round" stroke-miterlimit="10"/><path fill="none" stroke="rgb(255,85,0)" paint-order="fill stroke markers" d=" M 123.50020652527726 163.4128448386432 L 85.99419623155954 170.28709928843992" stroke-opacity="0.6980392156862745" stroke-linecap="round" stroke-linejoin="round" stroke-miterlimit="10"/><path fill="none" stroke="rgb(255,85,0)" paint-order="fill stroke markers" d=" M 141.44864793556445 155.54822130070363 L 143.07117688264975 164.4007576500145" stroke-opacity="0.6980392156862745" stroke-linecap="round" stroke-linejoin="round" stroke-miterlimit="10"/><path fill="none" stroke="rgb(255,85,0)" paint-order="fill stroke markers" d=" M 123.50020652527726 163.4128448386432 L 161.01961829293694 156.53613411207496" stroke-opacity="0.6980392156862745" stroke-linecap="round" stroke-linejoin="round" stroke-miterlimit="10"/><path fill="none" stroke="rgb(0,100,0)" paint-order="fill stroke markers" d=" M 24.647476822380955 181.53097608515722 L 85.99419623155954 170.28709928843992" stroke-opacity="0.6980392156862745" stroke-linecap="round" stroke-linejoin="round" stroke-miterlimit="10"/><path fill="none" stroke="rgb(0,100,0)" paint-order="fill stroke markers" d=" M 161.01961829293694 156.53613411207496 L 286.91075675878966 133.4622930926847" stroke-opacity="0.6980392156862745" stroke-linecap="round" stroke-linejoin="round" stroke-miterlimit="10"/><path fill="none" stroke="rgb(102,102,102)" paint-order="fill stroke markers" d=" M 91.548925627583 42.982103909710986 L 155.45148742297152 283.84358576757546" stroke-opacity="0.6980392156862745" stroke-linejoin="round" stroke-miterlimit="10" stroke-dasharray="9,8"/><path fill="none" stroke="rgb(102,102,102)" paint-order="fill stroke markers" d=" M 155.45148742297152 283.84358576757546 L 165.36437135463447 56.6570653920474" stroke-opacity="0.6980392156862745" stroke-linejoin="round" stroke-miterlimit="10" stroke-dasharray="9,8"/><path fill="rgb(0,0,255)" stroke="none" paint-order="stroke fill markers" d=" M 83.63604169592008 270.168624285239 C 83.63604169592008 271.27319378490057 82.74061119558166 272.168624285239 81.63604169592008 272.168624285239 C 80.53147219625849 272.168624285239 79.63604169592008 271.27319378490057 79.63604169592008 270.168624285239 C 79.63604169592008 269.0640547855774 80.53147219625849 268.168624285239 81.63604169592008 268.168624285239 C 82.74061119558166 268.168624285239 83.63604169592008 269.0640547855774 83.63604169592008 270.168624285239 Z" fill-opacity="1"/><path fill="none" stroke="rgb(0,0,0)" paint-order="fill stroke markers" d=" M 83.63604169592008 270.168624285239 C 83.63604169592008 271.27319378490057 82.74061119558166 272.168624285239 81.63604169592008 272.168624285239 C 80.53147219625849 272.168624285239 79.63604169592008 271.27319378490057 79.63604169592008 270.168624285239 C 79.63604169592008 269.0640547855774 80.53147219625849 268.168624285239 81.63604169592008 268.168624285239 C 82.74061119558166 268.168624285239 83.63604169592008 269.0640547855774 83.63604169592008 270.168624285239 Z" stroke-opacity="1" stroke-linecap="round" stroke-linejoin="round" stroke-miterlimit="10"/><text fill="rgb(0,0,255)" stroke="none" font-family="geogebra-sans-serif, sans-serif" font-size="16px" font-style="normal" font-weight="normal" text-decoration="normal" x="68" y="293" text-anchor="start" dominant-baseline="alphabetic" fill-opacity="1">A</text><text fill="none" stroke="rgb(255,255,255)" font-family="geogebra-sans-serif, sans-serif" font-size="16px" font-style="normal" font-weight="normal" text-decoration="normal" x="68" y="293" text-anchor="start" dominant-baseline="alphabetic" stroke-opacity="1" stroke-linejoin="bevel" stroke-miterlimit="10" stroke-width="3">A</text><text fill="rgb(0,0,255)" stroke="none" font-family="geogebra-sans-serif, sans-serif" font-size="16px" font-style="normal" font-weight="normal" text-decoration="normal" x="68" y="293" text-anchor="start" dominant-baseline="alphabetic" fill-opacity="1">A</text><path fill="rgb(0,0,255)" stroke="none" paint-order="stroke fill markers" d=" M 232.58469738543556 270.24444461289966 C 232.58469738543556 271.34901411256124 231.68926688509714 272.24444461289966 230.58469738543556 272.24444461289966 C 229.48012788577398 272.24444461289966 228.58469738543556 271.34901411256124 228.58469738543556 270.24444461289966 C 228.58469738543556 269.1398751132381 229.48012788577398 268.24444461289966 230.58469738543556 268.24444461289966 C 231.68926688509714 268.24444461289966 232.58469738543556 269.1398751132381 232.58469738543556 270.24444461289966 Z" fill-opacity="1"/><path fill="none" stroke="rgb(0,0,0)" paint-order="fill stroke markers" d=" M 232.58469738543556 270.24444461289966 C 232.58469738543556 271.34901411256124 231.68926688509714 272.24444461289966 230.58469738543556 272.24444461289966 C 229.48012788577398 272.24444461289966 228.58469738543556 271.34901411256124 228.58469738543556 270.24444461289966 C 228.58469738543556 269.1398751132381 229.48012788577398 268.24444461289966 230.58469738543556 268.24444461289966 C 231.68926688509714 268.24444461289966 232.58469738543556 269.1398751132381 232.58469738543556 270.24444461289966 Z" stroke-opacity="1" stroke-linecap="round" stroke-linejoin="round" stroke-miterlimit="10"/><text fill="rgb(0,0,255)" stroke="none" font-family="geogebra-sans-serif, sans-serif" font-size="16px" font-style="normal" font-weight="normal" text-decoration="normal" x="236" y="289" text-anchor="start" dominant-baseline="alphabetic" fill-opacity="1">B</text><text fill="none" stroke="rgb(255,255,255)" font-family="geogebra-sans-serif, sans-serif" font-size="16px" font-style="normal" font-weight="normal" text-decoration="normal" x="236" y="289" text-anchor="start" dominant-baseline="alphabetic" stroke-opacity="1" stroke-linejoin="bevel" stroke-miterlimit="10" stroke-width="3">B</text><text fill="rgb(0,0,255)" stroke="none" font-family="geogebra-sans-serif, sans-serif" font-size="16px" font-style="normal" font-weight="normal" text-decoration="normal" x="236" y="289" text-anchor="start" dominant-baseline="alphabetic" fill-opacity="1">B</text><path fill="rgb(0,0,255)" stroke="none" paint-order="stroke fill markers" d=" M 26.647476822380955 181.53097608515722 C 26.647476822380955 182.6355455848188 25.752046322042542 183.53097608515722 24.647476822380955 183.53097608515722 C 23.54290732271937 183.53097608515722 22.647476822380955 182.6355455848188 22.647476822380955 181.53097608515722 C 22.647476822380955 180.42640658549564 23.54290732271937 179.53097608515722 24.647476822380955 179.53097608515722 C 25.752046322042542 179.53097608515722 26.647476822380955 180.42640658549564 26.647476822380955 181.53097608515722 Z" fill-opacity="1"/><path fill="none" stroke="rgb(0,0,0)" paint-order="fill stroke markers" d=" M 26.647476822380955 181.53097608515722 C 26.647476822380955 182.6355455848188 25.752046322042542 183.53097608515722 24.647476822380955 183.53097608515722 C 23.54290732271937 183.53097608515722 22.647476822380955 182.6355455848188 22.647476822380955 181.53097608515722 C 22.647476822380955 180.42640658549564 23.54290732271937 179.53097608515722 24.647476822380955 179.53097608515722 C 25.752046322042542 179.53097608515722 26.647476822380955 180.42640658549564 26.647476822380955 181.53097608515722 Z" stroke-opacity="1" stroke-linecap="round" stroke-linejoin="round" stroke-miterlimit="10"/><text fill="rgb(0,0,255)" stroke="none" font-family="geogebra-sans-serif, sans-serif" font-size="16px" font-style="normal" font-weight="normal" text-decoration="normal" x="8" y="190" text-anchor="start" dominant-baseline="alphabetic" fill-opacity="1">C</text><text fill="none" stroke="rgb(255,255,255)" font-family="geogebra-sans-serif, sans-serif" font-size="16px" font-style="normal" font-weight="normal" text-decoration="normal" x="8" y="190" text-anchor="start" dominant-baseline="alphabetic" stroke-opacity="1" stroke-linejoin="bevel" stroke-miterlimit="10" stroke-width="3">C</text><text fill="rgb(0,0,255)" stroke="none" font-family="geogebra-sans-serif, sans-serif" font-size="16px" font-style="normal" font-weight="normal" text-decoration="normal" x="8" y="190" text-anchor="start" dominant-baseline="alphabetic" fill-opacity="1">C</text><path fill="rgb(0,0,255)" stroke="none" paint-order="stroke fill markers" d=" M 288.91075675878966 133.4622930926847 C 288.91075675878966 134.56686259234627 288.01532625845124 135.4622930926847 286.91075675878966 135.4622930926847 C 285.8061872591281 135.4622930926847 284.91075675878966 134.56686259234627 284.91075675878966 133.4622930926847 C 284.91075675878966 132.3577235930231 285.8061872591281 131.4622930926847 286.91075675878966 131.4622930926847 C 288.01532625845124 131.4622930926847 288.91075675878966 132.3577235930231 288.91075675878966 133.4622930926847 Z" fill-opacity="1"/><path fill="none" stroke="rgb(0,0,0)" paint-order="fill stroke markers" d=" M 288.91075675878966 133.4622930926847 C 288.91075675878966 134.56686259234627 288.01532625845124 135.4622930926847 286.91075675878966 135.4622930926847 C 285.8061872591281 135.4622930926847 284.91075675878966 134.56686259234627 284.91075675878966 133.4622930926847 C 284.91075675878966 132.3577235930231 285.8061872591281 131.4622930926847 286.91075675878966 131.4622930926847 C 288.01532625845124 131.4622930926847 288.91075675878966 132.3577235930231 288.91075675878966 133.4622930926847 Z" stroke-opacity="1" stroke-linecap="round" stroke-linejoin="round" stroke-miterlimit="10"/><text fill="rgb(0,0,255)" stroke="none" font-family="geogebra-sans-serif, sans-serif" font-size="16px" font-style="normal" font-weight="normal" text-decoration="normal" x="294" y="135" text-anchor="start" dominant-baseline="alphabetic" fill-opacity="1">D</text><text fill="none" stroke="rgb(255,255,255)" font-family="geogebra-sans-serif, sans-serif" font-size="16px" font-style="normal" font-weight="normal" text-decoration="normal" x="294" y="135" text-anchor="start" dominant-baseline="alphabetic" stroke-opacity="1" stroke-linejoin="bevel" stroke-miterlimit="10" stroke-width="3">D</text><text fill="rgb(0,0,255)" stroke="none" font-family="geogebra-sans-serif, sans-serif" font-size="16px" font-style="normal" font-weight="normal" text-decoration="normal" x="294" y="135" text-anchor="start" dominant-baseline="alphabetic" fill-opacity="1">D</text><path fill="rgb(0,0,255)" stroke="none" paint-order="stroke fill markers" d=" M 125.50020652527726 163.4128448386432 C 125.50020652527726 164.51741433830477 124.60477602493884 165.4128448386432 123.50020652527726 165.4128448386432 C 122.39563702561567 165.4128448386432 121.50020652527726 164.51741433830477 121.50020652527726 163.4128448386432 C 121.50020652527726 162.30827533898162 122.39563702561567 161.4128448386432 123.50020652527726 161.4128448386432 C 124.60477602493884 161.4128448386432 125.50020652527726 162.30827533898162 125.50020652527726 163.4128448386432 Z" fill-opacity="1"/><path fill="none" stroke="rgb(0,0,0)" paint-order="fill stroke markers" d=" M 125.50020652527726 163.4128448386432 C 125.50020652527726 164.51741433830477 124.60477602493884 165.4128448386432 123.50020652527726 165.4128448386432 C 122.39563702561567 165.4128448386432 121.50020652527726 164.51741433830477 121.50020652527726 163.4128448386432 C 121.50020652527726 162.30827533898162 122.39563702561567 161.4128448386432 123.50020652527726 161.4128448386432 C 124.60477602493884 161.4128448386432 125.50020652527726 162.30827533898162 125.50020652527726 163.4128448386432 Z" stroke-opacity="1" stroke-linecap="round" stroke-linejoin="round" stroke-miterlimit="10"/><text fill="rgb(0,0,255)" stroke="none" font-family="geogebra-sans-serif, sans-serif" font-size="16px" font-style="normal" font-weight="normal" text-decoration="normal" x="132" y="180" text-anchor="start" dominant-baseline="alphabetic" fill-opacity="1">J</text><text fill="none" stroke="rgb(255,255,255)" font-family="geogebra-sans-serif, sans-serif" font-size="16px" font-style="normal" font-weight="normal" text-decoration="normal" x="132" y="180" text-anchor="start" dominant-baseline="alphabetic" stroke-opacity="1" stroke-linejoin="bevel" stroke-miterlimit="10" stroke-width="3">J</text><text fill="rgb(0,0,255)" stroke="none" font-family="geogebra-sans-serif, sans-serif" font-size="16px" font-style="normal" font-weight="normal" text-decoration="normal" x="132" y="180" text-anchor="start" dominant-baseline="alphabetic" fill-opacity="1">J</text><path fill="rgb(0,0,255)" stroke="none" paint-order="stroke fill markers" d=" M 167.36437135463447 56.6570653920474 C 167.36437135463447 57.76163489170899 166.46894085429605 58.6570653920474 165.36437135463447 58.6570653920474 C 164.2598018549729 58.6570653920474 163.36437135463447 57.76163489170899 163.36437135463447 56.6570653920474 C 163.36437135463447 55.552495892385814 164.2598018549729 54.6570653920474 165.36437135463447 54.6570653920474 C 166.46894085429605 54.6570653920474 167.36437135463447 55.552495892385814 167.36437135463447 56.6570653920474 Z" fill-opacity="1"/><path fill="none" stroke="rgb(0,0,0)" paint-order="fill stroke markers" d=" M 167.36437135463447 56.6570653920474 C 167.36437135463447 57.76163489170899 166.46894085429605 58.6570653920474 165.36437135463447 58.6570653920474 C 164.2598018549729 58.6570653920474 163.36437135463447 57.76163489170899 163.36437135463447 56.6570653920474 C 163.36437135463447 55.552495892385814 164.2598018549729 54.6570653920474 165.36437135463447 54.6570653920474 C 166.46894085429605 54.6570653920474 167.36437135463447 55.552495892385814 167.36437135463447 56.6570653920474 Z" stroke-opacity="1" stroke-linecap="round" stroke-linejoin="round" stroke-miterlimit="10"/><text fill="rgb(0,0,255)" stroke="none" font-family="geogebra-sans-serif, sans-serif" font-size="16px" font-style="normal" font-weight="normal" text-decoration="normal" x="176" y="55" text-anchor="start" dominant-baseline="alphabetic" fill-opacity="1">A'</text><text fill="none" stroke="rgb(255,255,255)" font-family="geogebra-sans-serif, sans-serif" font-size="16px" font-style="normal" font-weight="normal" text-decoration="normal" x="176" y="55" text-anchor="start" dominant-baseline="alphabetic" stroke-opacity="1" stroke-linejoin="bevel" stroke-miterlimit="10" stroke-width="3">A'</text><text fill="rgb(0,0,255)" stroke="none" font-family="geogebra-sans-serif, sans-serif" font-size="16px" font-style="normal" font-weight="normal" text-decoration="normal" x="176" y="55" text-anchor="start" dominant-baseline="alphabetic" fill-opacity="1">A'</text><path fill="rgb(0,0,255)" stroke="none" paint-order="stroke fill markers" d=" M 163.01961829293694 156.53613411207496 C 163.01961829293694 157.64070361173654 162.12418779259852 158.53613411207496 161.01961829293694 158.53613411207496 C 159.91504879327536 158.53613411207496 159.01961829293694 157.64070361173654 159.01961829293694 156.53613411207496 C 159.01961829293694 155.43156461241338 159.91504879327536 154.53613411207496 161.01961829293694 154.53613411207496 C 162.12418779259852 154.53613411207496 163.01961829293694 155.43156461241338 163.01961829293694 156.53613411207496 Z" fill-opacity="1"/><path fill="none" stroke="rgb(0,0,0)" paint-order="fill stroke markers" d=" M 163.01961829293694 156.53613411207496 C 163.01961829293694 157.64070361173654 162.12418779259852 158.53613411207496 161.01961829293694 158.53613411207496 C 159.91504879327536 158.53613411207496 159.01961829293694 157.64070361173654 159.01961829293694 156.53613411207496 C 159.01961829293694 155.43156461241338 159.91504879327536 154.53613411207496 161.01961829293694 154.53613411207496 C 162.12418779259852 154.53613411207496 163.01961829293694 155.43156461241338 163.01961829293694 156.53613411207496 Z" stroke-opacity="1" stroke-linecap="round" stroke-linejoin="round" stroke-miterlimit="10"/><text fill="rgb(0,0,255)" stroke="none" font-family="geogebra-sans-serif, sans-serif" font-size="16px" font-style="normal" font-weight="normal" text-decoration="normal" x="167" y="146" text-anchor="start" dominant-baseline="alphabetic" fill-opacity="1">F</text><text fill="none" stroke="rgb(255,255,255)" font-family="geogebra-sans-serif, sans-serif" font-size="16px" font-style="normal" font-weight="normal" text-decoration="normal" x="167" y="146" text-anchor="start" dominant-baseline="alphabetic" stroke-opacity="1" stroke-linejoin="bevel" stroke-miterlimit="10" stroke-width="3">F</text><text fill="rgb(0,0,255)" stroke="none" font-family="geogebra-sans-serif, sans-serif" font-size="16px" font-style="normal" font-weight="normal" text-decoration="normal" x="167" y="146" text-anchor="start" dominant-baseline="alphabetic" fill-opacity="1">F</text><path fill="rgb(0,0,255)" stroke="none" paint-order="stroke fill markers" d=" M 93.548925627583 42.982103909710986 C 93.548925627583 44.08667340937257 92.65349512724458 44.982103909710986 91.548925627583 44.982103909710986 C 90.44435612792141 44.982103909710986 89.548925627583 44.08667340937257 89.548925627583 42.982103909710986 C 89.548925627583 41.8775344100494 90.44435612792141 40.982103909710986 91.548925627583 40.982103909710986 C 92.65349512724458 40.982103909710986 93.548925627583 41.8775344100494 93.548925627583 42.982103909710986 Z" fill-opacity="1"/><path fill="none" stroke="rgb(0,0,0)" paint-order="fill stroke markers" d=" M 93.548925627583 42.982103909710986 C 93.548925627583 44.08667340937257 92.65349512724458 44.982103909710986 91.548925627583 44.982103909710986 C 90.44435612792141 44.982103909710986 89.548925627583 44.08667340937257 89.548925627583 42.982103909710986 C 89.548925627583 41.8775344100494 90.44435612792141 40.982103909710986 91.548925627583 40.982103909710986 C 92.65349512724458 40.982103909710986 93.548925627583 41.8775344100494 93.548925627583 42.982103909710986 Z" stroke-opacity="1" stroke-linecap="round" stroke-linejoin="round" stroke-miterlimit="10"/><text fill="rgb(0,0,255)" stroke="none" font-family="geogebra-sans-serif, sans-serif" font-size="16px" font-style="normal" font-weight="normal" text-decoration="normal" x="77" y="32" text-anchor="start" dominant-baseline="alphabetic" fill-opacity="1">X</text><text fill="none" stroke="rgb(255,255,255)" font-family="geogebra-sans-serif, sans-serif" font-size="16px" font-style="normal" font-weight="normal" text-decoration="normal" x="77" y="32" text-anchor="start" dominant-baseline="alphabetic" stroke-opacity="1" stroke-linejoin="bevel" stroke-miterlimit="10" stroke-width="3">X</text><text fill="rgb(0,0,255)" stroke="none" font-family="geogebra-sans-serif, sans-serif" font-size="16px" font-style="normal" font-weight="normal" text-decoration="normal" x="77" y="32" text-anchor="start" dominant-baseline="alphabetic" fill-opacity="1">X</text><path fill="rgb(0,0,255)" stroke="none" paint-order="stroke fill markers" d=" M 87.99419623155954 170.28709928843992 C 87.99419623155954 171.3916687881015 87.09876573122114 172.28709928843992 85.99419623155954 172.28709928843992 C 84.88962673189795 172.28709928843992 83.99419623155954 171.3916687881015 83.99419623155954 170.28709928843992 C 83.99419623155954 169.18252978877834 84.88962673189795 168.28709928843992 85.99419623155954 168.28709928843992 C 87.09876573122114 168.28709928843992 87.99419623155954 169.18252978877834 87.99419623155954 170.28709928843992 Z" fill-opacity="1"/><path fill="none" stroke="rgb(0,0,0)" paint-order="fill stroke markers" d=" M 87.99419623155954 170.28709928843992 C 87.99419623155954 171.3916687881015 87.09876573122114 172.28709928843992 85.99419623155954 172.28709928843992 C 84.88962673189795 172.28709928843992 83.99419623155954 171.3916687881015 83.99419623155954 170.28709928843992 C 83.99419623155954 169.18252978877834 84.88962673189795 168.28709928843992 85.99419623155954 168.28709928843992 C 87.09876573122114 168.28709928843992 87.99419623155954 169.18252978877834 87.99419623155954 170.28709928843992 Z" stroke-opacity="1" stroke-linecap="round" stroke-linejoin="round" stroke-miterlimit="10"/><text fill="rgb(0,0,255)" stroke="none" font-family="geogebra-sans-serif, sans-serif" font-size="16px" font-style="normal" font-weight="normal" text-decoration="normal" x="69" y="164" text-anchor="start" dominant-baseline="alphabetic" fill-opacity="1">G</text><text fill="none" stroke="rgb(255,255,255)" font-family="geogebra-sans-serif, sans-serif" font-size="16px" font-style="normal" font-weight="normal" text-decoration="normal" x="69" y="164" text-anchor="start" dominant-baseline="alphabetic" stroke-opacity="1" stroke-linejoin="bevel" stroke-miterlimit="10" stroke-width="3">G</text><text fill="rgb(0,0,255)" stroke="none" font-family="geogebra-sans-serif, sans-serif" font-size="16px" font-style="normal" font-weight="normal" text-decoration="normal" x="69" y="164" text-anchor="start" dominant-baseline="alphabetic" fill-opacity="1">G</text><path fill="rgb(0,0,255)" stroke="none" paint-order="stroke fill markers" d=" M 157.45148742297152 283.84358576757546 C 157.45148742297152 284.94815526723704 156.5560569226331 285.84358576757546 155.45148742297152 285.84358576757546 C 154.34691792330995 285.84358576757546 153.45148742297152 284.94815526723704 153.45148742297152 283.84358576757546 C 153.45148742297152 282.7390162679139 154.34691792330995 281.84358576757546 155.45148742297152 281.84358576757546 C 156.5560569226331 281.84358576757546 157.45148742297152 282.7390162679139 157.45148742297152 283.84358576757546 Z" fill-opacity="1"/><path fill="none" stroke="rgb(0,0,0)" paint-order="fill stroke markers" d=" M 157.45148742297152 283.84358576757546 C 157.45148742297152 284.94815526723704 156.5560569226331 285.84358576757546 155.45148742297152 285.84358576757546 C 154.34691792330995 285.84358576757546 153.45148742297152 284.94815526723704 153.45148742297152 283.84358576757546 C 153.45148742297152 282.7390162679139 154.34691792330995 281.84358576757546 155.45148742297152 281.84358576757546 C 156.5560569226331 281.84358576757546 157.45148742297152 282.7390162679139 157.45148742297152 283.84358576757546 Z" stroke-opacity="1" stroke-linecap="round" stroke-linejoin="round" stroke-miterlimit="10"/><text fill="rgb(0,0,255)" stroke="none" font-family="geogebra-sans-serif, sans-serif" font-size="16px" font-style="normal" font-weight="normal" text-decoration="normal" x="148" y="313" text-anchor="start" dominant-baseline="alphabetic" fill-opacity="1">X'</text><text fill="none" stroke="rgb(255,255,255)" font-family="geogebra-sans-serif, sans-serif" font-size="16px" font-style="normal" font-weight="normal" text-decoration="normal" x="148" y="313" text-anchor="start" dominant-baseline="alphabetic" stroke-opacity="1" stroke-linejoin="bevel" stroke-miterlimit="10" stroke-width="3">X'</text><text fill="rgb(0,0,255)" stroke="none" font-family="geogebra-sans-serif, sans-serif" font-size="16px" font-style="normal" font-weight="normal" text-decoration="normal" x="148" y="313" text-anchor="start" dominant-baseline="alphabetic" fill-opacity="1">X'</text></g></g></svg>