<svg version="1.1" xmlns="http://www.w3.org/2000/svg" xmlns:xlink="http://www.w3.org/1999/xlink" width="510" height="382"><defs><clipPath id="fvxuMMTmdVBI"><path fill="none" stroke="none" d=" M 0 0 L 510 0 L 510 382 L 0 382 L 0 0 Z"/></clipPath></defs><g transform="scale(1,1)" clip-path="url(#fvxuMMTmdVBI)"><g><rect fill="rgb(255,255,255)" stroke="none" x="0" y="0" width="510" height="382" fill-opacity="1"/><path fill="rgb(244,0,153)" stroke="none" paint-order="stroke fill markers" fill-rule="evenodd" d=" M 239.33333333333331 128.16666666666583 L 339.33333333333326 262.1666666666662 L 473.3333333333332 162.1666666666659 L 373.33333333333326 28.16666666666555 Z" fill-opacity="0.09803921568627451"/><path fill="none" stroke="rgb(244,0,153)" paint-order="fill stroke markers" d=" M 239.33333333333331 128.16666666666583 L 339.33333333333326 262.1666666666662 L 473.3333333333332 162.1666666666659 L 373.33333333333326 28.16666666666555 Z" stroke-opacity="0.6980392156862745" stroke-linecap="round" stroke-linejoin="round" stroke-miterlimit="10" stroke-width="1.5"/><path fill="rgb(153,51,255)" stroke="none" paint-order="stroke fill markers" fill-rule="evenodd" d=" M 172.33333333333331 261.99999999999955 L 239.33333333333331 128.16666666666583 L 105.49999999999994 61.166666666665606 L 38.5 194.99999999999937 Z" fill-opacity="0.09803921568627451"/><path fill="none" stroke="rgb(153,51,255)" paint-order="fill stroke markers" d=" M 172.33333333333331 261.99999999999955 L 239.33333333333331 128.16666666666583 L 105.49999999999994 61.166666666665606 L 38.5 194.99999999999937 Z" stroke-opacity="0.6980392156862745" stroke-linecap="round" stroke-linejoin="round" stroke-miterlimit="10" stroke-width="1.5"/><path fill="rgb(255,0,0)" stroke="none" paint-order="stroke fill markers" fill-rule="evenodd" d=" M 255.91666666666663 178.58333333333263 L 245.90669161177337 188.57334831832583 L 255.89670659676653 198.58332337322045 L 265.90668165165977 188.59330838822592 L 255.91666666666663 178.58333333333263" fill-opacity="0.09803921568627451"/><path fill="none" stroke="rgb(255,0,0)" paint-order="fill stroke markers" d=" M 255.91666666666663 178.58333333333263 L 245.90669161177337 188.57334831832583 L 255.89670659676653 198.58332337322045 L 265.90668165165977 188.59330838822592 L 255.91666666666663 178.58333333333263" stroke-opacity="0.6980392156862745" stroke-linecap="round" stroke-linejoin="round" stroke-miterlimit="10" stroke-width="1.5"/><path fill="rgb(0,153,255)" stroke="none" paint-order="stroke fill markers" d=" M 309.33334827350177 262.1367265618161 C 309.32540766398796 270.0932172946234 312.4784959180803 277.7269852763494 318.0989696108623 283.3586886867993 L 339.3333333333333 262.1666666666662 Z" fill-opacity="0.09803921568627451"/><path fill="none" stroke="rgb(0,153,255)" paint-order="fill stroke markers" d=" M 309.33334827350177 262.1367265618161 C 309.32540766398796 270.0932172946234 312.4784959180803 277.7269852763494 318.0989696108623 283.3586886867993 L 339.3333333333333 262.1666666666662 Z" stroke-opacity="0.6980392156862745" stroke-linecap="round" stroke-linejoin="round" stroke-miterlimit="10"/><text fill="rgb(0,153,255)" stroke="none" font-family="geogebra-sans-serif, sans-serif" font-size="16px" font-style="normal" font-weight="normal" text-decoration="normal" x="294" y="279" text-anchor="start" dominant-baseline="alphabetic" fill-opacity="1">45°</text><text fill="none" stroke="rgb(255,255,255)" font-family="geogebra-sans-serif, sans-serif" font-size="16px" font-style="normal" font-weight="normal" text-decoration="normal" x="294" y="279" text-anchor="start" dominant-baseline="alphabetic" stroke-opacity="1" stroke-linejoin="bevel" stroke-miterlimit="10" stroke-width="3">45°</text><text fill="rgb(0,153,255)" stroke="none" font-family="geogebra-sans-serif, sans-serif" font-size="16px" font-style="normal" font-weight="normal" text-decoration="normal" x="294" y="279" text-anchor="start" dominant-baseline="alphabetic" fill-opacity="1">45°</text><path fill="rgb(0,153,255)" stroke="none" paint-order="stroke fill markers" d=" M 193.5253553534664 283.23436372247056 C 199.15705876391627 277.61389002968855 202.3253777836511 269.986430837657 202.33331839316486 262.0299401048497 L 172.33333333333331 261.99999999999955 Z" fill-opacity="0.09803921568627451"/><path fill="none" stroke="rgb(0,153,255)" paint-order="fill stroke markers" d=" M 193.5253553534664 283.23436372247056 C 199.15705876391627 277.61389002968855 202.3253777836511 269.986430837657 202.33331839316486 262.0299401048497 L 172.33333333333331 261.99999999999955 Z" stroke-opacity="0.6980392156862745" stroke-linecap="round" stroke-linejoin="round" stroke-miterlimit="10"/><text fill="rgb(0,153,255)" stroke="none" font-family="geogebra-sans-serif, sans-serif" font-size="16px" font-style="normal" font-weight="normal" text-decoration="normal" x="195" y="280" text-anchor="start" dominant-baseline="alphabetic" fill-opacity="1">45°</text><text fill="none" stroke="rgb(255,255,255)" font-family="geogebra-sans-serif, sans-serif" font-size="16px" font-style="normal" font-weight="normal" text-decoration="normal" x="195" y="280" text-anchor="start" dominant-baseline="alphabetic" stroke-opacity="1" stroke-linejoin="bevel" stroke-miterlimit="10" stroke-width="3">45°</text><text fill="rgb(0,153,255)" stroke="none" font-family="geogebra-sans-serif, sans-serif" font-size="16px" font-style="normal" font-weight="normal" text-decoration="normal" x="195" y="280" text-anchor="start" dominant-baseline="alphabetic" fill-opacity="1">45°</text><path fill="none" stroke="rgb(0,100,0)" paint-order="fill stroke markers" d=" M 239.33333333333331 128.16666666666583 L 172.33333333333331 261.99999999999955" stroke-opacity="0.6980392156862745" stroke-linecap="round" stroke-linejoin="round" stroke-miterlimit="10"/><path fill="none" stroke="rgb(0,100,0)" paint-order="fill stroke markers" d=" M 172.33333333333331 261.99999999999955 L 339.33333333333326 262.1666666666662" stroke-opacity="0.6980392156862745" stroke-linecap="round" stroke-linejoin="round" stroke-miterlimit="10"/><path fill="none" stroke="rgb(0,100,0)" paint-order="fill stroke markers" d=" M 339.33333333333326 262.1666666666662 L 239.33333333333331 128.16666666666583" stroke-opacity="0.6980392156862745" stroke-linecap="round" stroke-linejoin="round" stroke-miterlimit="10"/><path fill="none" stroke="rgb(244,0,153)" paint-order="fill stroke markers" d=" M 239.33333333333331 128.16666666666583 L 339.33333333333326 262.1666666666662" stroke-opacity="0.6980392156862745" stroke-linecap="round" stroke-linejoin="round" stroke-miterlimit="10" stroke-width="1.5"/><path fill="none" stroke="rgb(244,0,153)" paint-order="fill stroke markers" d=" M 339.33333333333326 262.1666666666662 L 473.3333333333332 162.1666666666659" stroke-opacity="0.6980392156862745" stroke-linecap="round" stroke-linejoin="round" stroke-miterlimit="10" stroke-width="1.5"/><path fill="none" stroke="rgb(244,0,153)" paint-order="fill stroke markers" d=" M 473.3333333333332 162.1666666666659 L 373.33333333333326 28.16666666666555" stroke-opacity="0.6980392156862745" stroke-linecap="round" stroke-linejoin="round" stroke-miterlimit="10" stroke-width="1.5"/><path fill="none" stroke="rgb(244,0,153)" paint-order="fill stroke markers" d=" M 373.33333333333326 28.16666666666555 L 239.33333333333331 128.16666666666583" stroke-opacity="0.6980392156862745" stroke-linecap="round" stroke-linejoin="round" stroke-miterlimit="10" stroke-width="1.5"/><path fill="none" stroke="rgb(153,51,255)" paint-order="fill stroke markers" d=" M 172.33333333333331 261.99999999999955 L 239.33333333333331 128.16666666666583" stroke-opacity="0.6980392156862745" stroke-linecap="round" stroke-linejoin="round" stroke-miterlimit="10" stroke-width="1.5"/><path fill="none" stroke="rgb(153,51,255)" paint-order="fill stroke markers" d=" M 239.33333333333331 128.16666666666583 L 105.49999999999994 61.166666666665606" stroke-opacity="0.6980392156862745" stroke-linecap="round" stroke-linejoin="round" stroke-miterlimit="10" stroke-width="1.5"/><path fill="none" stroke="rgb(153,51,255)" paint-order="fill stroke markers" d=" M 105.49999999999994 61.166666666665606 L 38.5 194.99999999999937" stroke-opacity="0.6980392156862745" stroke-linecap="round" stroke-linejoin="round" stroke-miterlimit="10" stroke-width="1.5"/><path fill="none" stroke="rgb(153,51,255)" paint-order="fill stroke markers" d=" M 38.5 194.99999999999937 L 172.33333333333331 261.99999999999955" stroke-opacity="0.6980392156862745" stroke-linecap="round" stroke-linejoin="round" stroke-miterlimit="10" stroke-width="1.5"/><path fill="none" stroke="rgb(102,102,102)" paint-order="fill stroke markers" d=" M 38.5 194.99999999999937 L 473.3333333333332 162.1666666666659" stroke-opacity="0.6980392156862745" stroke-linejoin="round" stroke-miterlimit="10" stroke-dasharray="5,4"/><path fill="none" stroke="rgb(102,102,102)" paint-order="fill stroke markers" d=" M 255.91666666666663 178.58333333333263 L 172.33333333333331 261.99999999999955" stroke-opacity="0.6980392156862745" stroke-linejoin="round" stroke-miterlimit="10" stroke-dasharray="5,4"/><path fill="none" stroke="rgb(102,102,102)" paint-order="fill stroke markers" d=" M 255.91666666666663 178.58333333333263 L 339.33333333333326 262.1666666666662" stroke-opacity="0.6980392156862745" stroke-linejoin="round" stroke-miterlimit="10" stroke-dasharray="5,4"/><path fill="none" stroke="rgb(102,102,102)" paint-order="fill stroke markers" d=" M 172.33333333333331 261.99999999999955 L 290.30231466128896 380.20468358835103" stroke-opacity="0.6980392156862745" stroke-linejoin="round" stroke-miterlimit="10" stroke-dasharray="5,4"/><path fill="none" stroke="rgb(102,102,102)" paint-order="fill stroke markers" d=" M 339.33333333333326 262.1666666666662 L 221.1286497449821 380.1356479946222" stroke-opacity="0.6980392156862745" stroke-linejoin="round" stroke-miterlimit="10" stroke-dasharray="5,4"/><path fill="rgb(0,0,255)" stroke="none" paint-order="stroke fill markers" d=" M 241.33333333333331 128.16666666666583 C 241.33333333333331 129.2712361663274 240.4379028329949 130.16666666666583 239.33333333333331 130.16666666666583 C 238.22876383367174 130.16666666666583 237.33333333333331 129.2712361663274 237.33333333333331 128.16666666666583 C 237.33333333333331 127.06209716700424 238.22876383367174 126.16666666666583 239.33333333333331 126.16666666666583 C 240.4379028329949 126.16666666666583 241.33333333333331 127.06209716700424 241.33333333333331 128.16666666666583 Z" fill-opacity="1"/><path fill="none" stroke="rgb(0,0,0)" paint-order="fill stroke markers" d=" M 241.33333333333331 128.16666666666583 C 241.33333333333331 129.2712361663274 240.4379028329949 130.16666666666583 239.33333333333331 130.16666666666583 C 238.22876383367174 130.16666666666583 237.33333333333331 129.2712361663274 237.33333333333331 128.16666666666583 C 237.33333333333331 127.06209716700424 238.22876383367174 126.16666666666583 239.33333333333331 126.16666666666583 C 240.4379028329949 126.16666666666583 241.33333333333331 127.06209716700424 241.33333333333331 128.16666666666583 Z" stroke-opacity="1" stroke-linecap="round" stroke-linejoin="round" stroke-miterlimit="10"/><text fill="rgb(0,0,255)" stroke="none" font-family="geogebra-sans-serif, sans-serif" font-size="16px" font-style="normal" font-weight="normal" text-decoration="normal" x="233" y="109" text-anchor="start" dominant-baseline="alphabetic" fill-opacity="1">A</text><text fill="none" stroke="rgb(255,255,255)" font-family="geogebra-sans-serif, sans-serif" font-size="16px" font-style="normal" font-weight="normal" text-decoration="normal" x="233" y="109" text-anchor="start" dominant-baseline="alphabetic" stroke-opacity="1" stroke-linejoin="bevel" stroke-miterlimit="10" stroke-width="3">A</text><text fill="rgb(0,0,255)" stroke="none" font-family="geogebra-sans-serif, sans-serif" font-size="16px" font-style="normal" font-weight="normal" text-decoration="normal" x="233" y="109" text-anchor="start" dominant-baseline="alphabetic" fill-opacity="1">A</text><path fill="rgb(0,0,255)" stroke="none" paint-order="stroke fill markers" d=" M 174.33333333333331 261.99999999999955 C 174.33333333333331 263.1045694996611 173.4379028329949 263.99999999999955 172.33333333333331 263.99999999999955 C 171.22876383367174 263.99999999999955 170.33333333333331 263.1045694996611 170.33333333333331 261.99999999999955 C 170.33333333333331 260.89543050033797 171.22876383367174 259.99999999999955 172.33333333333331 259.99999999999955 C 173.4379028329949 259.99999999999955 174.33333333333331 260.89543050033797 174.33333333333331 261.99999999999955 Z" fill-opacity="1"/><path fill="none" stroke="rgb(0,0,0)" paint-order="fill stroke markers" d=" M 174.33333333333331 261.99999999999955 C 174.33333333333331 263.1045694996611 173.4379028329949 263.99999999999955 172.33333333333331 263.99999999999955 C 171.22876383367174 263.99999999999955 170.33333333333331 263.1045694996611 170.33333333333331 261.99999999999955 C 170.33333333333331 260.89543050033797 171.22876383367174 259.99999999999955 172.33333333333331 259.99999999999955 C 173.4379028329949 259.99999999999955 174.33333333333331 260.89543050033797 174.33333333333331 261.99999999999955 Z" stroke-opacity="1" stroke-linecap="round" stroke-linejoin="round" stroke-miterlimit="10"/><text fill="rgb(0,0,255)" stroke="none" font-family="geogebra-sans-serif, sans-serif" font-size="16px" font-style="normal" font-weight="normal" text-decoration="normal" x="161" y="282" text-anchor="start" dominant-baseline="alphabetic" fill-opacity="1">B</text><text fill="none" stroke="rgb(255,255,255)" font-family="geogebra-sans-serif, sans-serif" font-size="16px" font-style="normal" font-weight="normal" text-decoration="normal" x="161" y="282" text-anchor="start" dominant-baseline="alphabetic" stroke-opacity="1" stroke-linejoin="bevel" stroke-miterlimit="10" stroke-width="3">B</text><text fill="rgb(0,0,255)" stroke="none" font-family="geogebra-sans-serif, sans-serif" font-size="16px" font-style="normal" font-weight="normal" text-decoration="normal" x="161" y="282" text-anchor="start" dominant-baseline="alphabetic" fill-opacity="1">B</text><path fill="rgb(0,0,255)" stroke="none" paint-order="stroke fill markers" d=" M 341.33333333333326 262.1666666666662 C 341.33333333333326 263.27123616632775 340.43790283299484 264.1666666666662 339.33333333333326 264.1666666666662 C 338.2287638336717 264.1666666666662 337.33333333333326 263.27123616632775 337.33333333333326 262.1666666666662 C 337.33333333333326 261.0620971670046 338.2287638336717 260.1666666666662 339.33333333333326 260.1666666666662 C 340.43790283299484 260.1666666666662 341.33333333333326 261.0620971670046 341.33333333333326 262.1666666666662 Z" fill-opacity="1"/><path fill="none" stroke="rgb(0,0,0)" paint-order="fill stroke markers" d=" M 341.33333333333326 262.1666666666662 C 341.33333333333326 263.27123616632775 340.43790283299484 264.1666666666662 339.33333333333326 264.1666666666662 C 338.2287638336717 264.1666666666662 337.33333333333326 263.27123616632775 337.33333333333326 262.1666666666662 C 337.33333333333326 261.0620971670046 338.2287638336717 260.1666666666662 339.33333333333326 260.1666666666662 C 340.43790283299484 260.1666666666662 341.33333333333326 261.0620971670046 341.33333333333326 262.1666666666662 Z" stroke-opacity="1" stroke-linecap="round" stroke-linejoin="round" stroke-miterlimit="10"/><text fill="rgb(0,0,255)" stroke="none" font-family="geogebra-sans-serif, sans-serif" font-size="16px" font-style="normal" font-weight="normal" text-decoration="normal" x="337" y="280" text-anchor="start" dominant-baseline="alphabetic" fill-opacity="1">C</text><text fill="none" stroke="rgb(255,255,255)" font-family="geogebra-sans-serif, sans-serif" font-size="16px" font-style="normal" font-weight="normal" text-decoration="normal" x="337" y="280" text-anchor="start" dominant-baseline="alphabetic" stroke-opacity="1" stroke-linejoin="bevel" stroke-miterlimit="10" stroke-width="3">C</text><text fill="rgb(0,0,255)" stroke="none" font-family="geogebra-sans-serif, sans-serif" font-size="16px" font-style="normal" font-weight="normal" text-decoration="normal" x="337" y="280" text-anchor="start" dominant-baseline="alphabetic" fill-opacity="1">C</text><path fill="rgb(0,0,255)" stroke="none" paint-order="stroke fill markers" d=" M 475.3333333333332 162.1666666666659 C 475.3333333333332 163.27123616632747 474.4379028329948 164.1666666666659 473.3333333333332 164.1666666666659 C 472.2287638336716 164.1666666666659 471.3333333333332 163.27123616632747 471.3333333333332 162.1666666666659 C 471.3333333333332 161.0620971670043 472.2287638336716 160.1666666666659 473.3333333333332 160.1666666666659 C 474.4379028329948 160.1666666666659 475.3333333333332 161.0620971670043 475.3333333333332 162.1666666666659 Z" fill-opacity="1"/><path fill="none" stroke="rgb(0,0,0)" paint-order="fill stroke markers" d=" M 475.3333333333332 162.1666666666659 C 475.3333333333332 163.27123616632747 474.4379028329948 164.1666666666659 473.3333333333332 164.1666666666659 C 472.2287638336716 164.1666666666659 471.3333333333332 163.27123616632747 471.3333333333332 162.1666666666659 C 471.3333333333332 161.0620971670043 472.2287638336716 160.1666666666659 473.3333333333332 160.1666666666659 C 474.4379028329948 160.1666666666659 475.3333333333332 161.0620971670043 475.3333333333332 162.1666666666659 Z" stroke-opacity="1" stroke-linecap="round" stroke-linejoin="round" stroke-miterlimit="10"/><text fill="rgb(0,0,255)" stroke="none" font-family="geogebra-sans-serif, sans-serif" font-size="16px" font-style="normal" font-weight="normal" text-decoration="normal" x="484" y="165" text-anchor="start" dominant-baseline="alphabetic" fill-opacity="1">D</text><text fill="none" stroke="rgb(255,255,255)" font-family="geogebra-sans-serif, sans-serif" font-size="16px" font-style="normal" font-weight="normal" text-decoration="normal" x="484" y="165" text-anchor="start" dominant-baseline="alphabetic" stroke-opacity="1" stroke-linejoin="bevel" stroke-miterlimit="10" stroke-width="3">D</text><text fill="rgb(0,0,255)" stroke="none" font-family="geogebra-sans-serif, sans-serif" font-size="16px" font-style="normal" font-weight="normal" text-decoration="normal" x="484" y="165" text-anchor="start" dominant-baseline="alphabetic" fill-opacity="1">D</text><path fill="rgb(0,0,255)" stroke="none" paint-order="stroke fill markers" d=" M 375.33333333333326 28.16666666666555 C 375.33333333333326 29.271236166327135 374.43790283299484 30.16666666666555 373.33333333333326 30.16666666666555 C 372.2287638336717 30.16666666666555 371.33333333333326 29.271236166327135 371.33333333333326 28.16666666666555 C 371.33333333333326 27.062097167003962 372.2287638336717 26.16666666666555 373.33333333333326 26.16666666666555 C 374.43790283299484 26.16666666666555 375.33333333333326 27.062097167003962 375.33333333333326 28.16666666666555 Z" fill-opacity="1"/><path fill="none" stroke="rgb(0,0,0)" paint-order="fill stroke markers" d=" M 375.33333333333326 28.16666666666555 C 375.33333333333326 29.271236166327135 374.43790283299484 30.16666666666555 373.33333333333326 30.16666666666555 C 372.2287638336717 30.16666666666555 371.33333333333326 29.271236166327135 371.33333333333326 28.16666666666555 C 371.33333333333326 27.062097167003962 372.2287638336717 26.16666666666555 373.33333333333326 26.16666666666555 C 374.43790283299484 26.16666666666555 375.33333333333326 27.062097167003962 375.33333333333326 28.16666666666555 Z" stroke-opacity="1" stroke-linecap="round" stroke-linejoin="round" stroke-miterlimit="10"/><text fill="rgb(0,0,255)" stroke="none" font-family="geogebra-sans-serif, sans-serif" font-size="16px" font-style="normal" font-weight="normal" text-decoration="normal" x="385" y="26" text-anchor="start" dominant-baseline="alphabetic" fill-opacity="1">E</text><text fill="none" stroke="rgb(255,255,255)" font-family="geogebra-sans-serif, sans-serif" font-size="16px" font-style="normal" font-weight="normal" text-decoration="normal" x="385" y="26" text-anchor="start" dominant-baseline="alphabetic" stroke-opacity="1" stroke-linejoin="bevel" stroke-miterlimit="10" stroke-width="3">E</text><text fill="rgb(0,0,255)" stroke="none" font-family="geogebra-sans-serif, sans-serif" font-size="16px" font-style="normal" font-weight="normal" text-decoration="normal" x="385" y="26" text-anchor="start" dominant-baseline="alphabetic" fill-opacity="1">E</text><path fill="rgb(0,0,255)" stroke="none" paint-order="stroke fill markers" d=" M 107.49999999999994 61.166666666665606 C 107.49999999999994 62.27123616632719 106.60456949966152 63.166666666665606 105.49999999999994 63.166666666665606 C 104.39543050033835 63.166666666665606 103.49999999999994 62.27123616632719 103.49999999999994 61.166666666665606 C 103.49999999999994 60.06209716700402 104.39543050033835 59.166666666665606 105.49999999999994 59.166666666665606 C 106.60456949966152 59.166666666665606 107.49999999999994 60.06209716700402 107.49999999999994 61.166666666665606 Z" fill-opacity="1"/><path fill="none" stroke="rgb(0,0,0)" paint-order="fill stroke markers" d=" M 107.49999999999994 61.166666666665606 C 107.49999999999994 62.27123616632719 106.60456949966152 63.166666666665606 105.49999999999994 63.166666666665606 C 104.39543050033835 63.166666666665606 103.49999999999994 62.27123616632719 103.49999999999994 61.166666666665606 C 103.49999999999994 60.06209716700402 104.39543050033835 59.166666666665606 105.49999999999994 59.166666666665606 C 106.60456949966152 59.166666666665606 107.49999999999994 60.06209716700402 107.49999999999994 61.166666666665606 Z" stroke-opacity="1" stroke-linecap="round" stroke-linejoin="round" stroke-miterlimit="10"/><text fill="rgb(0,0,255)" stroke="none" font-family="geogebra-sans-serif, sans-serif" font-size="16px" font-style="normal" font-weight="normal" text-decoration="normal" x="95" y="54" text-anchor="start" dominant-baseline="alphabetic" fill-opacity="1">F</text><text fill="none" stroke="rgb(255,255,255)" font-family="geogebra-sans-serif, sans-serif" font-size="16px" font-style="normal" font-weight="normal" text-decoration="normal" x="95" y="54" text-anchor="start" dominant-baseline="alphabetic" stroke-opacity="1" stroke-linejoin="bevel" stroke-miterlimit="10" stroke-width="3">F</text><text fill="rgb(0,0,255)" stroke="none" font-family="geogebra-sans-serif, sans-serif" font-size="16px" font-style="normal" font-weight="normal" text-decoration="normal" x="95" y="54" text-anchor="start" dominant-baseline="alphabetic" fill-opacity="1">F</text><path fill="rgb(0,0,255)" stroke="none" paint-order="stroke fill markers" d=" M 40.5 194.99999999999937 C 40.5 196.10456949966095 39.60456949966159 196.99999999999937 38.5 196.99999999999937 C 37.39543050033841 196.99999999999937 36.5 196.10456949966095 36.5 194.99999999999937 C 36.5 193.8954305003378 37.39543050033841 192.99999999999937 38.5 192.99999999999937 C 39.60456949966159 192.99999999999937 40.5 193.8954305003378 40.5 194.99999999999937 Z" fill-opacity="1"/><path fill="none" stroke="rgb(0,0,0)" paint-order="fill stroke markers" d=" M 40.5 194.99999999999937 C 40.5 196.10456949966095 39.60456949966159 196.99999999999937 38.5 196.99999999999937 C 37.39543050033841 196.99999999999937 36.5 196.10456949966095 36.5 194.99999999999937 C 36.5 193.8954305003378 37.39543050033841 192.99999999999937 38.5 192.99999999999937 C 39.60456949966159 192.99999999999937 40.5 193.8954305003378 40.5 194.99999999999937 Z" stroke-opacity="1" stroke-linecap="round" stroke-linejoin="round" stroke-miterlimit="10"/><text fill="rgb(0,0,255)" stroke="none" font-family="geogebra-sans-serif, sans-serif" font-size="16px" font-style="normal" font-weight="normal" text-decoration="normal" x="16" y="203" text-anchor="start" dominant-baseline="alphabetic" fill-opacity="1">G</text><text fill="none" stroke="rgb(255,255,255)" font-family="geogebra-sans-serif, sans-serif" font-size="16px" font-style="normal" font-weight="normal" text-decoration="normal" x="16" y="203" text-anchor="start" dominant-baseline="alphabetic" stroke-opacity="1" stroke-linejoin="bevel" stroke-miterlimit="10" stroke-width="3">G</text><text fill="rgb(0,0,255)" stroke="none" font-family="geogebra-sans-serif, sans-serif" font-size="16px" font-style="normal" font-weight="normal" text-decoration="normal" x="16" y="203" text-anchor="start" dominant-baseline="alphabetic" fill-opacity="1">G</text><path fill="rgb(0,0,255)" stroke="none" paint-order="stroke fill markers" d=" M 257.91666666666663 178.58333333333263 C 257.91666666666663 179.6879028329942 257.0212361663282 180.58333333333263 255.91666666666663 180.58333333333263 C 254.81209716700505 180.58333333333263 253.91666666666663 179.6879028329942 253.91666666666663 178.58333333333263 C 253.91666666666663 177.47876383367105 254.81209716700505 176.58333333333263 255.91666666666663 176.58333333333263 C 257.0212361663282 176.58333333333263 257.91666666666663 177.47876383367105 257.91666666666663 178.58333333333263 Z" fill-opacity="1"/><path fill="none" stroke="rgb(0,0,0)" paint-order="fill stroke markers" d=" M 257.91666666666663 178.58333333333263 C 257.91666666666663 179.6879028329942 257.0212361663282 180.58333333333263 255.91666666666663 180.58333333333263 C 254.81209716700505 180.58333333333263 253.91666666666663 179.6879028329942 253.91666666666663 178.58333333333263 C 253.91666666666663 177.47876383367105 254.81209716700505 176.58333333333263 255.91666666666663 176.58333333333263 C 257.0212361663282 176.58333333333263 257.91666666666663 177.47876383367105 257.91666666666663 178.58333333333263 Z" stroke-opacity="1" stroke-linecap="round" stroke-linejoin="round" stroke-miterlimit="10"/><text fill="rgb(0,0,255)" stroke="none" font-family="geogebra-sans-serif, sans-serif" font-size="16px" font-style="normal" font-weight="normal" text-decoration="normal" x="250" y="222" text-anchor="start" dominant-baseline="alphabetic" fill-opacity="1">H</text><text fill="none" stroke="rgb(255,255,255)" font-family="geogebra-sans-serif, sans-serif" font-size="16px" font-style="normal" font-weight="normal" text-decoration="normal" x="250" y="222" text-anchor="start" dominant-baseline="alphabetic" stroke-opacity="1" stroke-linejoin="bevel" stroke-miterlimit="10" stroke-width="3">H</text><text fill="rgb(0,0,255)" stroke="none" font-family="geogebra-sans-serif, sans-serif" font-size="16px" font-style="normal" font-weight="normal" text-decoration="normal" x="250" y="222" text-anchor="start" dominant-baseline="alphabetic" fill-opacity="1">H</text><path fill="rgb(68,68,68)" stroke="none" paint-order="stroke fill markers" d=" M 259.75 345.5833333333331 C 259.75 347.79247233265625 257.95913899932316 349.5833333333331 255.75 349.5833333333331 C 253.5408610006768 349.5833333333331 251.75 347.79247233265625 251.75 345.5833333333331 C 251.75 343.3741943340099 253.5408610006768 341.5833333333331 255.75 341.5833333333331 C 257.95913899932316 341.5833333333331 259.75 343.3741943340099 259.75 345.5833333333331 Z" fill-opacity="1"/><path fill="none" stroke="rgb(0,0,0)" paint-order="fill stroke markers" d=" M 259.75 345.5833333333331 C 259.75 347.79247233265625 257.95913899932316 349.5833333333331 255.75 349.5833333333331 C 253.5408610006768 349.5833333333331 251.75 347.79247233265625 251.75 345.5833333333331 C 251.75 343.3741943340099 253.5408610006768 341.5833333333331 255.75 341.5833333333331 C 257.95913899932316 341.5833333333331 259.75 343.3741943340099 259.75 345.5833333333331 Z" stroke-opacity="1" stroke-linecap="round" stroke-linejoin="round" stroke-miterlimit="10"/><text fill="rgb(68,68,68)" stroke="none" font-family="geogebra-sans-serif, sans-serif" font-size="16px" font-style="normal" font-weight="normal" text-decoration="normal" x="270" y="349" text-anchor="start" dominant-baseline="alphabetic" fill-opacity="1">O</text><text fill="none" stroke="rgb(255,255,255)" font-family="geogebra-sans-serif, sans-serif" font-size="16px" font-style="normal" font-weight="normal" text-decoration="normal" x="270" y="349" text-anchor="start" dominant-baseline="alphabetic" stroke-opacity="1" stroke-linejoin="bevel" stroke-miterlimit="10" stroke-width="3">O</text><text fill="rgb(68,68,68)" stroke="none" font-family="geogebra-sans-serif, sans-serif" font-size="16px" font-style="normal" font-weight="normal" text-decoration="normal" x="270" y="349" text-anchor="start" dominant-baseline="alphabetic" fill-opacity="1">O</text></g></g></svg>