<svg version="1.1" xmlns="http://www.w3.org/2000/svg" xmlns:xlink="http://www.w3.org/1999/xlink" width="400" height="146"><defs><clipPath id="RdggralhEPWX"><path fill="none" stroke="none" d=" M 0 0 L 400 0 L 400 146 L 0 146 L 0 0 Z"/></clipPath></defs><g transform="scale(1,1)" clip-path="url(#RdggralhEPWX)"><g><rect fill="rgb(255,255,255)" stroke="none" x="0" y="0" width="400" height="146" fill-opacity="1"/><path fill="none" stroke="rgb(0,100,0)" paint-order="fill stroke markers" d=" M 24.99999999999989 22.99999999999997 L 374.9999999999989 22.99999999999997" stroke-opacity="0.6980392156862745" stroke-linecap="round" stroke-linejoin="round" stroke-miterlimit="10"/><path fill="none" stroke="rgb(0,100,0)" paint-order="fill stroke markers" d=" M 24.99999999999989 123.00000000000003 L 374.9999999999989 123.00000000000003" stroke-opacity="0.6980392156862745" stroke-linecap="round" stroke-linejoin="round" stroke-miterlimit="10"/><path fill="none" stroke="rgb(0,0,0)" paint-order="fill stroke markers" d=" M 24.99999999999989 73 L 374.9999999999989 73" stroke-opacity="0.6980392156862745" stroke-linejoin="round" stroke-miterlimit="10" stroke-dasharray="1,3"/><path fill="rgb(0,0,255)" stroke="none" paint-order="stroke fill markers" d=" M 26.99999999999989 73 C 26.99999999999989 74.10456949966158 26.104569499661476 75 24.99999999999989 75 C 23.895430500338303 75 22.99999999999989 74.10456949966158 22.99999999999989 73 C 22.99999999999989 71.8954305003384 23.895430500338303 71 24.99999999999989 71 C 26.104569499661476 71 26.99999999999989 71.8954305003384 26.99999999999989 73 Z" fill-opacity="1"/><path fill="none" stroke="rgb(0,0,0)" paint-order="fill stroke markers" d=" M 26.99999999999989 73 C 26.99999999999989 74.10456949966158 26.104569499661476 75 24.99999999999989 75 C 23.895430500338303 75 22.99999999999989 74.10456949966158 22.99999999999989 73 C 22.99999999999989 71.8954305003384 23.895430500338303 71 24.99999999999989 71 C 26.104569499661476 71 26.99999999999989 71.8954305003384 26.99999999999989 73 Z" stroke-opacity="1" stroke-linecap="round" stroke-linejoin="round" stroke-miterlimit="10"/><path fill="rgb(0,0,255)" stroke="none" paint-order="stroke fill markers" d=" M 376.9999999999989 73 C 376.9999999999989 74.10456949966158 376.1045694996605 75 374.9999999999989 75 C 373.89543050033734 75 372.9999999999989 74.10456949966158 372.9999999999989 73 C 372.9999999999989 71.8954305003384 373.89543050033734 71 374.9999999999989 71 C 376.1045694996605 71 376.9999999999989 71.8954305003384 376.9999999999989 73 Z" fill-opacity="1"/><path fill="none" stroke="rgb(0,0,0)" paint-order="fill stroke markers" d=" M 376.9999999999989 73 C 376.9999999999989 74.10456949966158 376.1045694996605 75 374.9999999999989 75 C 373.89543050033734 75 372.9999999999989 74.10456949966158 372.9999999999989 73 C 372.9999999999989 71.8954305003384 373.89543050033734 71 374.9999999999989 71 C 376.1045694996605 71 376.9999999999989 71.8954305003384 376.9999999999989 73 Z" stroke-opacity="1" stroke-linecap="round" stroke-linejoin="round" stroke-miterlimit="10"/><path fill="rgb(0,0,255)" stroke="none" paint-order="stroke fill markers" d=" M 76.99999999999974 73 C 76.99999999999974 74.10456949966158 76.10456949966132 75 74.99999999999974 75 C 73.89543050033815 75 72.99999999999974 74.10456949966158 72.99999999999974 73 C 72.99999999999974 71.8954305003384 73.89543050033815 71 74.99999999999974 71 C 76.10456949966132 71 76.99999999999974 71.8954305003384 76.99999999999974 73 Z" fill-opacity="1"/><path fill="none" stroke="rgb(0,0,0)" paint-order="fill stroke markers" d=" M 76.99999999999974 73 C 76.99999999999974 74.10456949966158 76.10456949966132 75 74.99999999999974 75 C 73.89543050033815 75 72.99999999999974 74.10456949966158 72.99999999999974 73 C 72.99999999999974 71.8954305003384 73.89543050033815 71 74.99999999999974 71 C 76.10456949966132 71 76.99999999999974 71.8954305003384 76.99999999999974 73 Z" stroke-opacity="1" stroke-linecap="round" stroke-linejoin="round" stroke-miterlimit="10"/><path fill="rgb(0,0,255)" stroke="none" paint-order="stroke fill markers" d=" M 126.9999999999996 73 C 126.9999999999996 74.10456949966158 126.10456949966118 75 124.9999999999996 75 C 123.89543050033801 75 122.9999999999996 74.10456949966158 122.9999999999996 73 C 122.9999999999996 71.8954305003384 123.89543050033801 71 124.9999999999996 71 C 126.10456949966118 71 126.9999999999996 71.8954305003384 126.9999999999996 73 Z" fill-opacity="1"/><path fill="none" stroke="rgb(0,0,0)" paint-order="fill stroke markers" d=" M 126.9999999999996 73 C 126.9999999999996 74.10456949966158 126.10456949966118 75 124.9999999999996 75 C 123.89543050033801 75 122.9999999999996 74.10456949966158 122.9999999999996 73 C 122.9999999999996 71.8954305003384 123.89543050033801 71 124.9999999999996 71 C 126.10456949966118 71 126.9999999999996 71.8954305003384 126.9999999999996 73 Z" stroke-opacity="1" stroke-linecap="round" stroke-linejoin="round" stroke-miterlimit="10"/><path fill="rgb(0,0,255)" stroke="none" paint-order="stroke fill markers" d=" M 176.99999999999946 73 C 176.99999999999946 74.10456949966158 176.10456949966104 75 174.99999999999946 75 C 173.89543050033788 75 172.99999999999946 74.10456949966158 172.99999999999946 73 C 172.99999999999946 71.8954305003384 173.89543050033788 71 174.99999999999946 71 C 176.10456949966104 71 176.99999999999946 71.8954305003384 176.99999999999946 73 Z" fill-opacity="1"/><path fill="none" stroke="rgb(0,0,0)" paint-order="fill stroke markers" d=" M 176.99999999999946 73 C 176.99999999999946 74.10456949966158 176.10456949966104 75 174.99999999999946 75 C 173.89543050033788 75 172.99999999999946 74.10456949966158 172.99999999999946 73 C 172.99999999999946 71.8954305003384 173.89543050033788 71 174.99999999999946 71 C 176.10456949966104 71 176.99999999999946 71.8954305003384 176.99999999999946 73 Z" stroke-opacity="1" stroke-linecap="round" stroke-linejoin="round" stroke-miterlimit="10"/><path fill="rgb(0,0,255)" stroke="none" paint-order="stroke fill markers" d=" M 226.99999999999932 73 C 226.99999999999932 74.10456949966158 226.1045694996609 75 224.99999999999932 75 C 223.89543050033774 75 222.99999999999932 74.10456949966158 222.99999999999932 73 C 222.99999999999932 71.8954305003384 223.89543050033774 71 224.99999999999932 71 C 226.1045694996609 71 226.99999999999932 71.8954305003384 226.99999999999932 73 Z" fill-opacity="1"/><path fill="none" stroke="rgb(0,0,0)" paint-order="fill stroke markers" d=" M 226.99999999999932 73 C 226.99999999999932 74.10456949966158 226.1045694996609 75 224.99999999999932 75 C 223.89543050033774 75 222.99999999999932 74.10456949966158 222.99999999999932 73 C 222.99999999999932 71.8954305003384 223.89543050033774 71 224.99999999999932 71 C 226.1045694996609 71 226.99999999999932 71.8954305003384 226.99999999999932 73 Z" stroke-opacity="1" stroke-linecap="round" stroke-linejoin="round" stroke-miterlimit="10"/><path fill="rgb(0,0,255)" stroke="none" paint-order="stroke fill markers" d=" M 276.9999999999992 73 C 276.9999999999992 74.10456949966158 276.1045694996608 75 274.9999999999992 75 C 273.8954305003376 75 272.9999999999992 74.10456949966158 272.9999999999992 73 C 272.9999999999992 71.8954305003384 273.8954305003376 71 274.9999999999992 71 C 276.1045694996608 71 276.9999999999992 71.8954305003384 276.9999999999992 73 Z" fill-opacity="1"/><path fill="none" stroke="rgb(0,0,0)" paint-order="fill stroke markers" d=" M 276.9999999999992 73 C 276.9999999999992 74.10456949966158 276.1045694996608 75 274.9999999999992 75 C 273.8954305003376 75 272.9999999999992 74.10456949966158 272.9999999999992 73 C 272.9999999999992 71.8954305003384 273.8954305003376 71 274.9999999999992 71 C 276.1045694996608 71 276.9999999999992 71.8954305003384 276.9999999999992 73 Z" stroke-opacity="1" stroke-linecap="round" stroke-linejoin="round" stroke-miterlimit="10"/><path fill="rgb(0,0,255)" stroke="none" paint-order="stroke fill markers" d=" M 326.99999999999903 73 C 326.99999999999903 74.10456949966158 326.1045694996606 75 324.99999999999903 75 C 323.89543050033745 75 322.99999999999903 74.10456949966158 322.99999999999903 73 C 322.99999999999903 71.8954305003384 323.89543050033745 71 324.99999999999903 71 C 326.1045694996606 71 326.99999999999903 71.8954305003384 326.99999999999903 73 Z" fill-opacity="1"/><path fill="none" stroke="rgb(0,0,0)" paint-order="fill stroke markers" d=" M 326.99999999999903 73 C 326.99999999999903 74.10456949966158 326.1045694996606 75 324.99999999999903 75 C 323.89543050033745 75 322.99999999999903 74.10456949966158 322.99999999999903 73 C 322.99999999999903 71.8954305003384 323.89543050033745 71 324.99999999999903 71 C 326.1045694996606 71 326.99999999999903 71.8954305003384 326.99999999999903 73 Z" stroke-opacity="1" stroke-linecap="round" stroke-linejoin="round" stroke-miterlimit="10"/></g></g></svg>