<svg version="1.1" xmlns="http://www.w3.org/2000/svg" xmlns:xlink="http://www.w3.org/1999/xlink" width="357" height="322"><defs><clipPath id="TwfOaPiLTnKw"><path fill="none" stroke="none" d=" M 0 0 L 357 0 L 357 322 L 0 322 L 0 0 Z"/></clipPath></defs><g transform="scale(1,1)" clip-path="url(#TwfOaPiLTnKw)"><g><rect fill="rgb(255,255,255)" stroke="none" x="0" y="0" width="357" height="322" fill-opacity="1"/><path fill="none" stroke="rgb(255,85,0)" paint-order="fill stroke markers" d=" M 73.74288726935791 237.95097501614163 C 115.92639012239756 227.87425202822735 151.49050553029184 199.6511436914256 170.88632084766152 160.85951305668613 C 190.28213616503118 122.06788242194662 191.52215358973592 76.68272509355006 174.2734302682435 36.88988901836973" stroke-opacity="0.6980392156862745" stroke-linejoin="round" stroke-miterlimit="10" stroke-width="1.5" stroke-dasharray="1.5,3"/><path fill="none" stroke="rgb(244,0,153)" paint-order="fill stroke markers" d=" M 325.0692447665722 237.95097501614163 C 305.8412077871168 185.1223775946494 255.62508514499515 149.96066998097245 199.40606601796497 149.96066998097248 C 143.1870468909348 149.9606699809725 92.97092424881316 185.1223775946495 73.74288726935785 237.95097501614174" stroke-opacity="0.6980392156862745" stroke-linejoin="round" stroke-miterlimit="10" stroke-width="1.5" stroke-dasharray="1.5,3"/><path fill="none" stroke="rgb(153,51,255)" paint-order="fill stroke markers" d=" M 174.2734302682436 36.889889018369715 C 153.90945564544478 84.56313899689833 160.52574320424975 139.47908972926547 191.630001455222 180.9514340638952 C 222.73425970619422 222.42377839852492 273.6010118928012 244.15188066004046 325.0692447665722 237.95097501614157" stroke-opacity="0.6980392156862745" stroke-linejoin="round" stroke-miterlimit="10" stroke-width="1.5" stroke-dasharray="1.5,3"/><path fill="rgb(255,127,0)" stroke="none" paint-order="stroke fill markers" d=" M 44.299841744813705 114.69554799126223 C 50.04991751359722 113.32197972967404 54.897697911483704 109.47485940084383 57.541561036382404 104.18713315104651 C 60.18542416128099 98.8994069012492 60.354452185613354 92.71291038564189 58.00326133361369 87.28870881366211 L 39.653017216384114 95.24286124104736 Z" fill-opacity="0.09803921568627451"/><path fill="none" stroke="rgb(255,127,0)" paint-order="fill stroke markers" d=" M 44.299841744813705 114.69554799126223 C 50.04991751359722 113.32197972967404 54.897697911483704 109.47485940084383 57.541561036382404 104.18713315104651 C 60.18542416128099 98.8994069012492 60.354452185613354 92.71291038564189 58.00326133361369 87.28870881366211 L 39.653017216384114 95.24286124104736 Z" stroke-opacity="0.6980392156862745" stroke-linecap="round" stroke-linejoin="round" stroke-miterlimit="10"/><path fill="none" stroke="rgb(255,127,0)" paint-order="fill stroke markers" d=" M 43.13813561270632 109.83237630370851 C 47.450692439294016 108.80220010751736 51.08652773770882 105.9168598608947 53.06942508138286 101.95106517354674 C 55.052322425056786 97.98527048619874 55.17909344330599 93.34539809949322 53.41570030430637 89.27724692050839" stroke-opacity="0.6980392156862745" stroke-linecap="round" stroke-linejoin="round" stroke-miterlimit="10"/><g transform="scale(19,19)"><g transform="translate(1.5789473684210527,6.588894736842105)"><path fill="rgb(255,127,0)" stroke="none" paint-order="stroke fill markers" d=" M 0.041 -0.254 L 0.041 -0.254 L 0.037 -0.249 Q 0.018000000000000002 -0.249 0.018000000000000002 -0.259 Q 0.018000000000000002 -0.28700000000000003 0.052000000000000005 -0.339 Q 0.122 -0.44 0.213 -0.442 Q 0.303 -0.442 0.34600000000000003 -0.332 Q 0.383 -0.23900000000000002 0.387 -0.128 Q 0.466 -0.326 0.519 -0.424 Q 0.522 -0.431 0.531 -0.431 Q 0.543 -0.431 0.543 -0.421 Q 0.543 -0.41600000000000004 0.524 -0.383 Q 0.45 -0.23600000000000002 0.395 -0.078 Q 0.391 -0.066 0.388 -0.056 Q 0.384 -0.043000000000000003 0.38 -0.017 Q 0.371 0.053 0.343 0.155 Q 0.326 0.212 0.311 0.215 Q 0.298 0.215 0.298 0.197 Q 0.298 0.156 0.34800000000000003 -0.013000000000000001 Q 0.34900000000000003 -0.015 0.35000000000000003 -0.018000000000000002 Q 0.362 -0.052000000000000005 0.362 -0.116 Q 0.362 -0.35100000000000003 0.222 -0.369 Q 0.211 -0.37 0.2 -0.37 Q 0.129 -0.37 0.081 -0.321 L 0.08 -0.32 Q 0.054 -0.293 0.041 -0.254 Z"/></g></g><path fill="rgb(255,0,255)" stroke="none" paint-order="stroke fill markers" d=" M 218.19991843368314 276.8482287573945 C 215.32422411467513 268.9473235506661 207.81403372140454 263.6886316239079 199.40606601796503 263.6886316239079 C 190.99809831452546 263.6886316239079 183.48790792125487 268.94732355066617 180.61221360224687 276.84822875739457 L 199.40606601796503 283.6886316239079 Z" fill-opacity="0.09803921568627451"/><path fill="none" stroke="rgb(255,0,255)" paint-order="fill stroke markers" d=" M 218.19991843368314 276.8482287573945 C 215.32422411467513 268.9473235506661 207.81403372140454 263.6886316239079 199.40606601796503 263.6886316239079 C 190.99809831452546 263.6886316239079 183.48790792125487 268.94732355066617 180.61221360224687 276.84822875739457 L 199.40606601796503 283.6886316239079 Z" stroke-opacity="0.6980392156862745" stroke-linecap="round" stroke-linejoin="round" stroke-miterlimit="10"/><path fill="none" stroke="rgb(255,0,255)" paint-order="fill stroke markers" d=" M 197.18712075022415 266.8340689805531 L 196.40396359690385 260.88539981231025" stroke-opacity="0.6980392156862745" stroke-linecap="round" stroke-linejoin="round" stroke-miterlimit="10"/><path fill="none" stroke="rgb(255,0,255)" paint-order="fill stroke markers" d=" M 201.6250112857059 266.8340689805531 L 202.4081684390262 260.88539981231025" stroke-opacity="0.6980392156862745" stroke-linecap="round" stroke-linejoin="round" stroke-miterlimit="10"/><g transform="scale(19,19)"><g transform="translate(8.789473684210526,15.115210526315789)"><path fill="rgb(255,0,255)" stroke="none" paint-order="stroke fill markers" d=" M 0.47700000000000004 -0.23600000000000002 L 0.47700000000000004 -0.23600000000000002 L 0.47700000000000004 -0.17400000000000002 Q 0.542 -0.255 0.5750000000000001 -0.372 Q 0.585 -0.392 0.59 -0.393 Q 0.602 -0.393 0.602 -0.383 Q 0.602 -0.366 0.579 -0.307 Q 0.545 -0.221 0.487 -0.148 Q 0.47700000000000004 -0.128 0.47700000000000004 -0.113 Q 0.47700000000000004 -0.011 0.508 -0.011 Q 0.539 -0.011 0.558 -0.046 Q 0.561 -0.052000000000000005 0.5640000000000001 -0.06 Q 0.5680000000000001 -0.07 0.577 -0.07 Q 0.589 -0.07 0.589 -0.06 Q 0.589 -0.041 0.5640000000000001 -0.015 Q 0.538 0.011 0.505 0.011 Q 0.442 0.011 0.418 -0.058 Q 0.41600000000000004 -0.065 0.41400000000000003 -0.073 Q 0.309 0.011 0.203 0.011 Q 0.109 0.011 0.065 -0.064 Q 0.041 -0.105 0.041 -0.158 Q 0.041 -0.26 0.11900000000000001 -0.34700000000000003 Q 0.196 -0.433 0.293 -0.441 Q 0.302 -0.442 0.31 -0.442 Q 0.394 -0.442 0.44 -0.376 Q 0.44 -0.375 0.441 -0.375 Q 0.47700000000000004 -0.322 0.47700000000000004 -0.23600000000000002 M 0.41000000000000003 -0.099 L 0.41000000000000003 -0.099 Q 0.40800000000000003 -0.116 0.40800000000000003 -0.211 Q 0.40800000000000003 -0.334 0.381 -0.379 Q 0.369 -0.399 0.352 -0.40900000000000003 L 0.35100000000000003 -0.41000000000000003 L 0.35100000000000003 -0.41000000000000003 L 0.35000000000000003 -0.41000000000000003 Q 0.332 -0.42 0.309 -0.42 Q 0.23800000000000002 -0.42 0.181 -0.34 L 0.17300000000000001 -0.328 Q 0.137 -0.27 0.12 -0.166 Q 0.115 -0.138 0.115 -0.12 Q 0.115 -0.036000000000000004 0.17400000000000002 -0.016 Q 0.188 -0.011 0.20500000000000002 -0.011 Q 0.309 -0.011 0.41000000000000003 -0.099 Z"/></g></g><path fill="rgb(127,0,255)" stroke="none" paint-order="stroke fill markers" d=" M 289.3203687341806 86.03302351006508 C 286.5135450454935 92.60396115043247 287.4254865006959 100.1731805320855 291.7126735795938 105.8894299706161 C 295.9998606584918 111.60567940914672 303.01096765742204 114.60052463300386 310.10497842500706 113.7458364311671 L 307.7126735795938 93.8894299706161 Z" fill-opacity="0.09803921568627451"/><path fill="none" stroke="rgb(127,0,255)" paint-order="fill stroke markers" d=" M 289.3203687341806 86.03302351006508 C 286.5135450454935 92.60396115043247 287.4254865006959 100.1731805320855 291.7126735795938 105.8894299706161 C 295.9998606584918 111.60567940914672 303.01096765742204 114.60052463300386 310.10497842500706 113.7458364311671 L 307.7126735795938 93.8894299706161 Z" stroke-opacity="0.6980392156862745" stroke-linecap="round" stroke-linejoin="round" stroke-miterlimit="10"/><path fill="none" stroke="rgb(127,0,255)" paint-order="fill stroke markers" d=" M 294.11267357959383 104.08942997061611 L 289.3126735795938 107.68942997061612" stroke-opacity="0.6980392156862745" stroke-linecap="round" stroke-linejoin="round" stroke-miterlimit="10"/><g transform="scale(19,19)"><g transform="translate(14.842105263157896,3.904526315789474)"><path fill="rgb(127,0,255)" stroke="none" paint-order="stroke fill markers" d=" M 0.028 0.169 L 0.18 -0.437 Q 0.209 -0.551 0.292 -0.631 Q 0.37 -0.705 0.456 -0.705 Q 0.539 -0.705 0.5750000000000001 -0.639 Q 0.59 -0.611 0.59 -0.577 Q 0.59 -0.502 0.528 -0.439 Q 0.507 -0.418 0.482 -0.403 Q 0.549 -0.357 0.549 -0.264 Q 0.549 -0.161 0.46900000000000003 -0.076 Q 0.392 0.005 0.296 0.012 L 0.28300000000000003 0.012 Q 0.186 0.012 0.14100000000000001 -0.063 Q 0.129 -0.083 0.123 -0.105 L 0.048 0.188 L 0.047 0.19 Q 0.043000000000000003 0.194 0.037 0.194 Q 0.025 0.194 0.025 0.184 Q 0.025 0.181 0.028 0.169 M 0.328 -0.401 Q 0.34500000000000003 -0.395 0.371 -0.395 Q 0.401 -0.395 0.419 -0.403 Q 0.406 -0.40900000000000003 0.379 -0.40900000000000003 Q 0.34400000000000003 -0.40900000000000003 0.328 -0.401 M 0.45 -0.421 Q 0.511 -0.467 0.525 -0.577 L 0.525 -0.578 L 0.525 -0.58 Q 0.527 -0.594 0.527 -0.602 Q 0.527 -0.673 0.46900000000000003 -0.682 Q 0.462 -0.683 0.455 -0.683 Q 0.372 -0.683 0.299 -0.606 Q 0.23 -0.534 0.2 -0.41600000000000004 L 0.154 -0.231 Q 0.14100000000000001 -0.179 0.14100000000000001 -0.156 Q 0.14100000000000001 -0.074 0.2 -0.034 Q 0.234 -0.01 0.281 -0.01 Q 0.359 -0.01 0.41500000000000004 -0.094 Q 0.422 -0.10300000000000001 0.427 -0.113 Q 0.462 -0.179 0.47400000000000003 -0.274 Q 0.47600000000000003 -0.291 0.47600000000000003 -0.302 Q 0.47600000000000003 -0.355 0.446 -0.386 Q 0.41400000000000003 -0.373 0.371 -0.373 Q 0.303 -0.373 0.303 -0.399 Q 0.303 -0.431 0.381 -0.431 Q 0.422 -0.431 0.45 -0.421 Z"/></g></g><path fill="rgb(102,102,102)" stroke="none" paint-order="stroke fill markers" d=" M 277.713055957205 94.04089782348879 C 277.76717020901367 104.7587289103709 283.535068656229 114.63354363519258 292.84403977684383 119.94559486186054 L 307.7126735795938 93.8894299706161 Z" fill-opacity="0.09803921568627451"/><path fill="none" stroke="rgb(102,102,102)" paint-order="fill stroke markers" d=" M 277.713055957205 94.04089782348879 C 277.76717020901367 104.7587289103709 283.535068656229 114.63354363519258 292.84403977684383 119.94559486186054 L 307.7126735795938 93.8894299706161 Z" stroke-opacity="0.6980392156862745" stroke-linejoin="round" stroke-miterlimit="10" stroke-width="2.5" stroke-dasharray="10.5,8"/><g transform="scale(19,19)"><g transform="translate(13.273448253256843,6.065052631578948)"><path fill="rgb(102,102,102)" stroke="none" paint-order="stroke fill markers" d=" M 0.294 -0.64 L 0.294 -0.079 Q 0.294 -0.049 0.306 -0.041 Q 0.323 -0.031 0.387 -0.031 L 0.419 -0.031 L 0.419 0 Q 0.384 -0.003 0.257 -0.003 Q 0.13 -0.003 0.095 0 L 0.095 -0.031 L 0.127 -0.031 Q 0.20400000000000001 -0.031 0.215 -0.049 L 0.216 -0.05 Q 0.22 -0.058 0.22 -0.079 L 0.22 -0.597 Q 0.168 -0.5710000000000001 0.089 -0.5710000000000001 L 0.089 -0.602 Q 0.209 -0.602 0.271 -0.666 Q 0.29 -0.666 0.293 -0.659 L 0.293 -0.659 L 0.293 -0.658 Q 0.294 -0.655 0.294 -0.64 Z"/></g><rect fill="rgb(102,102,102)" stroke="none" x="13.273448253256843" y="6.471561131578948" width="0.5" height="0.039999"/><g transform="translate(13.273448253256843,7.427511631578948)"><path fill="rgb(102,102,102)" stroke="none" paint-order="stroke fill markers" d=" M 0.449 -0.17400000000000002 L 0.449 -0.17400000000000002 L 0.421 0 L 0.05 0 Q 0.05 -0.025 0.056 -0.032 L 0.061 -0.037 L 0.253 -0.251 Q 0.358 -0.369 0.358 -0.47200000000000003 Q 0.358 -0.561 0.304 -0.607 L 0.303 -0.608 L 0.302 -0.608 Q 0.27 -0.635 0.224 -0.635 Q 0.152 -0.635 0.109 -0.5730000000000001 Q 0.097 -0.555 0.089 -0.533 Q 0.092 -0.534 0.10200000000000001 -0.534 Q 0.14200000000000002 -0.534 0.153 -0.498 L 0.153 -0.497 Q 0.155 -0.49 0.155 -0.482 Q 0.155 -0.442 0.117 -0.431 Q 0.109 -0.429 0.10300000000000001 -0.429 Q 0.066 -0.429 0.054 -0.46 Q 0.05 -0.47100000000000003 0.05 -0.485 Q 0.05 -0.562 0.109 -0.617 Q 0.162 -0.666 0.23700000000000002 -0.666 Q 0.34700000000000003 -0.666 0.40800000000000003 -0.592 Q 0.443 -0.549 0.448 -0.49 Q 0.449 -0.481 0.449 -0.47200000000000003 Q 0.449 -0.399 0.394 -0.333 Q 0.365 -0.299 0.304 -0.243 L 0.243 -0.189 L 0.233 -0.18 L 0.127 -0.077 L 0.307 -0.077 Q 0.395 -0.077 0.402 -0.085 Q 0.41200000000000003 -0.099 0.424 -0.17400000000000002 L 0.449 -0.17400000000000002 Z"/></g><g transform="translate(14.003036857390876,6.741560631578948)"><path fill="rgb(102,102,102)" stroke="none" paint-order="stroke fill markers" d=" M 0.028 0.169 L 0.18 -0.437 Q 0.209 -0.551 0.292 -0.631 Q 0.37 -0.705 0.456 -0.705 Q 0.539 -0.705 0.5750000000000001 -0.639 Q 0.59 -0.611 0.59 -0.577 Q 0.59 -0.502 0.528 -0.439 Q 0.507 -0.418 0.482 -0.403 Q 0.549 -0.357 0.549 -0.264 Q 0.549 -0.161 0.46900000000000003 -0.076 Q 0.392 0.005 0.296 0.012 L 0.28300000000000003 0.012 Q 0.186 0.012 0.14100000000000001 -0.063 Q 0.129 -0.083 0.123 -0.105 L 0.048 0.188 L 0.047 0.19 Q 0.043000000000000003 0.194 0.037 0.194 Q 0.025 0.194 0.025 0.184 Q 0.025 0.181 0.028 0.169 M 0.328 -0.401 Q 0.34500000000000003 -0.395 0.371 -0.395 Q 0.401 -0.395 0.419 -0.403 Q 0.406 -0.40900000000000003 0.379 -0.40900000000000003 Q 0.34400000000000003 -0.40900000000000003 0.328 -0.401 M 0.45 -0.421 Q 0.511 -0.467 0.525 -0.577 L 0.525 -0.578 L 0.525 -0.58 Q 0.527 -0.594 0.527 -0.602 Q 0.527 -0.673 0.46900000000000003 -0.682 Q 0.462 -0.683 0.455 -0.683 Q 0.372 -0.683 0.299 -0.606 Q 0.23 -0.534 0.2 -0.41600000000000004 L 0.154 -0.231 Q 0.14100000000000001 -0.179 0.14100000000000001 -0.156 Q 0.14100000000000001 -0.074 0.2 -0.034 Q 0.234 -0.01 0.281 -0.01 Q 0.359 -0.01 0.41500000000000004 -0.094 Q 0.422 -0.10300000000000001 0.427 -0.113 Q 0.462 -0.179 0.47400000000000003 -0.274 Q 0.47600000000000003 -0.291 0.47600000000000003 -0.302 Q 0.47600000000000003 -0.355 0.446 -0.386 Q 0.41400000000000003 -0.373 0.371 -0.373 Q 0.303 -0.373 0.303 -0.399 Q 0.303 -0.431 0.381 -0.431 Q 0.422 -0.431 0.45 -0.421 Z"/></g></g><path fill="rgb(102,102,102)" stroke="none" paint-order="stroke fill markers" d=" M 214.27469982071506 257.6324667326635 C 203.32073017666113 251.38171709227387 189.62691398705385 252.6494707527437 180.00665240795524 260.8049529076751 L 199.40606601796503 283.6886316239079 Z" fill-opacity="0.09803921568627451"/><path fill="none" stroke="rgb(102,102,102)" paint-order="fill stroke markers" d=" M 214.27469982071506 257.6324667326635 C 203.32073017666113 251.38171709227387 189.62691398705385 252.6494707527437 180.00665240795524 260.8049529076751 L 199.40606601796503 283.6886316239079 Z" stroke-opacity="0.6980392156862745" stroke-linejoin="round" stroke-miterlimit="10" stroke-width="2.5" stroke-dasharray="10.5,8"/><g transform="scale(19,19)"><g transform="translate(9.799764042730526,11.486105263157896)"><path fill="rgb(102,102,102)" stroke="none" paint-order="stroke fill markers" d=" M 0.294 -0.64 L 0.294 -0.079 Q 0.294 -0.049 0.306 -0.041 Q 0.323 -0.031 0.387 -0.031 L 0.419 -0.031 L 0.419 0 Q 0.384 -0.003 0.257 -0.003 Q 0.13 -0.003 0.095 0 L 0.095 -0.031 L 0.127 -0.031 Q 0.20400000000000001 -0.031 0.215 -0.049 L 0.216 -0.05 Q 0.22 -0.058 0.22 -0.079 L 0.22 -0.597 Q 0.168 -0.5710000000000001 0.089 -0.5710000000000001 L 0.089 -0.602 Q 0.209 -0.602 0.271 -0.666 Q 0.29 -0.666 0.293 -0.659 L 0.293 -0.659 L 0.293 -0.658 Q 0.294 -0.655 0.294 -0.64 Z"/></g><rect fill="rgb(102,102,102)" stroke="none" x="9.799764042730526" y="11.892613763157895" width="0.5" height="0.039999"/><g transform="translate(9.799764042730526,12.848564263157895)"><path fill="rgb(102,102,102)" stroke="none" paint-order="stroke fill markers" d=" M 0.449 -0.17400000000000002 L 0.449 -0.17400000000000002 L 0.421 0 L 0.05 0 Q 0.05 -0.025 0.056 -0.032 L 0.061 -0.037 L 0.253 -0.251 Q 0.358 -0.369 0.358 -0.47200000000000003 Q 0.358 -0.561 0.304 -0.607 L 0.303 -0.608 L 0.302 -0.608 Q 0.27 -0.635 0.224 -0.635 Q 0.152 -0.635 0.109 -0.5730000000000001 Q 0.097 -0.555 0.089 -0.533 Q 0.092 -0.534 0.10200000000000001 -0.534 Q 0.14200000000000002 -0.534 0.153 -0.498 L 0.153 -0.497 Q 0.155 -0.49 0.155 -0.482 Q 0.155 -0.442 0.117 -0.431 Q 0.109 -0.429 0.10300000000000001 -0.429 Q 0.066 -0.429 0.054 -0.46 Q 0.05 -0.47100000000000003 0.05 -0.485 Q 0.05 -0.562 0.109 -0.617 Q 0.162 -0.666 0.23700000000000002 -0.666 Q 0.34700000000000003 -0.666 0.40800000000000003 -0.592 Q 0.443 -0.549 0.448 -0.49 Q 0.449 -0.481 0.449 -0.47200000000000003 Q 0.449 -0.399 0.394 -0.333 Q 0.365 -0.299 0.304 -0.243 L 0.243 -0.189 L 0.233 -0.18 L 0.127 -0.077 L 0.307 -0.077 Q 0.395 -0.077 0.402 -0.085 Q 0.41200000000000003 -0.099 0.424 -0.17400000000000002 L 0.449 -0.17400000000000002 Z"/></g><g transform="translate(10.529352646864561,12.162613263157896)"><path fill="rgb(102,102,102)" stroke="none" paint-order="stroke fill markers" d=" M 0.47700000000000004 -0.23600000000000002 L 0.47700000000000004 -0.23600000000000002 L 0.47700000000000004 -0.17400000000000002 Q 0.542 -0.255 0.5750000000000001 -0.372 Q 0.585 -0.392 0.59 -0.393 Q 0.602 -0.393 0.602 -0.383 Q 0.602 -0.366 0.579 -0.307 Q 0.545 -0.221 0.487 -0.148 Q 0.47700000000000004 -0.128 0.47700000000000004 -0.113 Q 0.47700000000000004 -0.011 0.508 -0.011 Q 0.539 -0.011 0.558 -0.046 Q 0.561 -0.052000000000000005 0.5640000000000001 -0.06 Q 0.5680000000000001 -0.07 0.577 -0.07 Q 0.589 -0.07 0.589 -0.06 Q 0.589 -0.041 0.5640000000000001 -0.015 Q 0.538 0.011 0.505 0.011 Q 0.442 0.011 0.418 -0.058 Q 0.41600000000000004 -0.065 0.41400000000000003 -0.073 Q 0.309 0.011 0.203 0.011 Q 0.109 0.011 0.065 -0.064 Q 0.041 -0.105 0.041 -0.158 Q 0.041 -0.26 0.11900000000000001 -0.34700000000000003 Q 0.196 -0.433 0.293 -0.441 Q 0.302 -0.442 0.31 -0.442 Q 0.394 -0.442 0.44 -0.376 Q 0.44 -0.375 0.441 -0.375 Q 0.47700000000000004 -0.322 0.47700000000000004 -0.23600000000000002 M 0.41000000000000003 -0.099 L 0.41000000000000003 -0.099 Q 0.40800000000000003 -0.116 0.40800000000000003 -0.211 Q 0.40800000000000003 -0.334 0.381 -0.379 Q 0.369 -0.399 0.352 -0.40900000000000003 L 0.35100000000000003 -0.41000000000000003 L 0.35100000000000003 -0.41000000000000003 L 0.35000000000000003 -0.41000000000000003 Q 0.332 -0.42 0.309 -0.42 Q 0.23800000000000002 -0.42 0.181 -0.34 L 0.17300000000000001 -0.328 Q 0.137 -0.27 0.12 -0.166 Q 0.115 -0.138 0.115 -0.12 Q 0.115 -0.036000000000000004 0.17400000000000002 -0.016 Q 0.188 -0.011 0.20500000000000002 -0.011 Q 0.309 -0.011 0.41000000000000003 -0.099 Z"/></g></g><path fill="none" stroke="rgb(0,100,0)" paint-order="fill stroke markers" d=" M 174.2734302682436 36.88988901836973 L 73.74288726935788 237.95097501614163" stroke-opacity="0.6980392156862745" stroke-linecap="round" stroke-linejoin="round" stroke-miterlimit="10"/><path fill="none" stroke="rgb(0,100,0)" paint-order="fill stroke markers" d=" M 73.74288726935788 237.95097501614163 L 325.0692447665722 237.95097501614163" stroke-opacity="0.6980392156862745" stroke-linecap="round" stroke-linejoin="round" stroke-miterlimit="10"/><path fill="none" stroke="rgb(0,100,0)" paint-order="fill stroke markers" d=" M 325.0692447665722 237.95097501614163 L 174.2734302682436 36.88988901836973" stroke-opacity="0.6980392156862745" stroke-linecap="round" stroke-linejoin="round" stroke-miterlimit="10"/><path fill="none" stroke="rgb(255,85,0)" paint-order="fill stroke markers" d=" M 105.17353944615218 61.93757020333188 L 108.75290803847554 70.19518005608522" stroke-opacity="0.6980392156862745" stroke-linecap="round" stroke-linejoin="round" stroke-miterlimit="10"/><path fill="none" stroke="rgb(255,85,0)" paint-order="fill stroke markers" d=" M 39.653017216384114 95.24286124104736 L 174.2734302682436 36.88988901836973" stroke-opacity="0.6980392156862745" stroke-linecap="round" stroke-linejoin="round" stroke-miterlimit="10"/><path fill="none" stroke="rgb(255,85,0)" paint-order="fill stroke markers" d=" M 61.07480676166934 165.55138260969784 L 52.32109772407265 167.64245364749115" stroke-opacity="0.6980392156862745" stroke-linecap="round" stroke-linejoin="round" stroke-miterlimit="10"/><path fill="none" stroke="rgb(255,85,0)" paint-order="fill stroke markers" d=" M 39.653017216384114 95.24286124104736 L 73.74288726935788 237.95097501614163" stroke-opacity="0.6980392156862745" stroke-linecap="round" stroke-linejoin="round" stroke-miterlimit="10"/><path fill="none" stroke="rgb(244,0,153)" paint-order="fill stroke markers" d=" M 136.46910520225163 255.9926512756683 L 133.3909239123206 264.44988486274144" stroke-opacity="0.6980392156862745" stroke-linecap="round" stroke-linejoin="round" stroke-miterlimit="10"/><path fill="none" stroke="rgb(244,0,153)" paint-order="fill stroke markers" d=" M 139.7580293750023 257.18972177730814 L 136.67984808507128 265.64695536438126" stroke-opacity="0.6980392156862745" stroke-linecap="round" stroke-linejoin="round" stroke-miterlimit="10"/><path fill="none" stroke="rgb(244,0,153)" paint-order="fill stroke markers" d=" M 73.74288726935788 237.95097501614163 L 199.40606601796503 283.6886316239079" stroke-opacity="0.6980392156862745" stroke-linecap="round" stroke-linejoin="round" stroke-miterlimit="10"/><path fill="none" stroke="rgb(244,0,153)" paint-order="fill stroke markers" d=" M 259.0541026609278 257.18972177730814 L 262.1322839508588 265.64695536438126" stroke-opacity="0.6980392156862745" stroke-linecap="round" stroke-linejoin="round" stroke-miterlimit="10"/><path fill="none" stroke="rgb(244,0,153)" paint-order="fill stroke markers" d=" M 262.34302683367844 255.9926512756683 L 265.4212081236094 264.44988486274144" stroke-opacity="0.6980392156862745" stroke-linecap="round" stroke-linejoin="round" stroke-miterlimit="10"/><path fill="none" stroke="rgb(244,0,153)" paint-order="fill stroke markers" d=" M 199.40606601796503 283.6886316239079 L 325.0692447665722 237.95097501614163" stroke-opacity="0.6980392156862745" stroke-linecap="round" stroke-linejoin="round" stroke-miterlimit="10"/><path fill="none" stroke="rgb(153,51,255)" paint-order="fill stroke markers" d=" M 312.34192106740636 169.9333422141933 L 321.2773039746543 168.8568050337573" stroke-opacity="0.6980392156862745" stroke-linecap="round" stroke-linejoin="round" stroke-miterlimit="10"/><path fill="none" stroke="rgb(153,51,255)" paint-order="fill stroke markers" d=" M 311.92326771945903 166.45847108359686 L 320.85865062670695 165.38193390316087" stroke-opacity="0.6980392156862745" stroke-linecap="round" stroke-linejoin="round" stroke-miterlimit="10"/><path fill="none" stroke="rgb(153,51,255)" paint-order="fill stroke markers" d=" M 311.5046143715117 162.98359995300044 L 320.4399972787596 161.90706277256444" stroke-opacity="0.6980392156862745" stroke-linecap="round" stroke-linejoin="round" stroke-miterlimit="10"/><path fill="none" stroke="rgb(153,51,255)" paint-order="fill stroke markers" d=" M 325.0692447665722 237.95097501614163 L 307.7126735795938 93.8894299706161" stroke-opacity="0.6980392156862745" stroke-linecap="round" stroke-linejoin="round" stroke-miterlimit="10"/><path fill="none" stroke="rgb(153,51,255)" paint-order="fill stroke markers" d=" M 242.44401381824204 70.90279921530734 L 245.97939672548998 62.62626203487137" stroke-opacity="0.6980392156862745" stroke-linecap="round" stroke-linejoin="round" stroke-miterlimit="10"/><path fill="none" stroke="rgb(153,51,255)" paint-order="fill stroke markers" d=" M 239.22536047029473 69.52792808471091 L 242.76074337754267 61.251390904274935" stroke-opacity="0.6980392156862745" stroke-linecap="round" stroke-linejoin="round" stroke-miterlimit="10"/><path fill="none" stroke="rgb(153,51,255)" paint-order="fill stroke markers" d=" M 236.00670712234742 68.15305695411448 L 239.54209002959536 59.8765197736785" stroke-opacity="0.6980392156862745" stroke-linecap="round" stroke-linejoin="round" stroke-miterlimit="10"/><path fill="none" stroke="rgb(153,51,255)" paint-order="fill stroke markers" d=" M 307.7126735795938 93.8894299706161 L 174.2734302682436 36.88988901836973" stroke-opacity="0.6980392156862745" stroke-linecap="round" stroke-linejoin="round" stroke-miterlimit="10"/><path fill="none" stroke="rgb(102,102,102)" paint-order="fill stroke markers" d=" M 39.653017216384114 95.24286124104736 L 307.7126735795938 93.8894299706161" stroke-opacity="0.6980392156862745" stroke-linejoin="round" stroke-miterlimit="10" stroke-width="1.5" stroke-dasharray="9.5,8"/><path fill="none" stroke="rgb(102,102,102)" paint-order="fill stroke markers" d=" M 307.7126735795938 93.8894299706161 L 199.40606601796503 283.6886316239079" stroke-opacity="0.6980392156862745" stroke-linejoin="round" stroke-miterlimit="10" stroke-width="1.5" stroke-dasharray="9.5,8"/><path fill="none" stroke="rgb(102,102,102)" paint-order="fill stroke markers" d=" M 199.40606601796503 283.6886316239079 L 39.653017216384114 95.24286124104736" stroke-opacity="0.6980392156862745" stroke-linejoin="round" stroke-miterlimit="10" stroke-width="1.5" stroke-dasharray="9.5,8"/><path fill="rgb(0,0,255)" stroke="none" paint-order="stroke fill markers" d=" M 176.2734302682436 36.88988901836973 C 176.2734302682436 37.994458518031315 175.37799976790518 38.88988901836973 174.2734302682436 38.88988901836973 C 173.16886076858202 38.88988901836973 172.2734302682436 37.994458518031315 172.2734302682436 36.88988901836973 C 172.2734302682436 35.78531951870814 173.16886076858202 34.88988901836973 174.2734302682436 34.88988901836973 C 175.37799976790518 34.88988901836973 176.2734302682436 35.78531951870814 176.2734302682436 36.88988901836973 Z" fill-opacity="1"/><path fill="none" stroke="rgb(0,0,0)" paint-order="fill stroke markers" d=" M 176.2734302682436 36.88988901836973 C 176.2734302682436 37.994458518031315 175.37799976790518 38.88988901836973 174.2734302682436 38.88988901836973 C 173.16886076858202 38.88988901836973 172.2734302682436 37.994458518031315 172.2734302682436 36.88988901836973 C 172.2734302682436 35.78531951870814 173.16886076858202 34.88988901836973 174.2734302682436 34.88988901836973 C 175.37799976790518 34.88988901836973 176.2734302682436 35.78531951870814 176.2734302682436 36.88988901836973 Z" stroke-opacity="1" stroke-linecap="round" stroke-linejoin="round" stroke-miterlimit="10"/><text fill="rgb(0,0,255)" stroke="none" font-family="geogebra-sans-serif, sans-serif" font-size="16px" font-style="normal" font-weight="normal" text-decoration="normal" x="167" y="26" text-anchor="start" dominant-baseline="alphabetic" fill-opacity="1">A</text><text fill="none" stroke="rgb(255,255,255)" font-family="geogebra-sans-serif, sans-serif" font-size="16px" font-style="normal" font-weight="normal" text-decoration="normal" x="167" y="26" text-anchor="start" dominant-baseline="alphabetic" stroke-opacity="1" stroke-linejoin="bevel" stroke-miterlimit="10" stroke-width="3">A</text><text fill="rgb(0,0,255)" stroke="none" font-family="geogebra-sans-serif, sans-serif" font-size="16px" font-style="normal" font-weight="normal" text-decoration="normal" x="167" y="26" text-anchor="start" dominant-baseline="alphabetic" fill-opacity="1">A</text><path fill="rgb(0,0,255)" stroke="none" paint-order="stroke fill markers" d=" M 75.74288726935788 237.95097501614163 C 75.74288726935788 239.0555445158032 74.84745676901946 239.95097501614163 73.74288726935788 239.95097501614163 C 72.63831776969629 239.95097501614163 71.74288726935788 239.0555445158032 71.74288726935788 237.95097501614163 C 71.74288726935788 236.84640551648005 72.63831776969629 235.95097501614163 73.74288726935788 235.95097501614163 C 74.84745676901946 235.95097501614163 75.74288726935788 236.84640551648005 75.74288726935788 237.95097501614163 Z" fill-opacity="1"/><path fill="none" stroke="rgb(0,0,0)" paint-order="fill stroke markers" d=" M 75.74288726935788 237.95097501614163 C 75.74288726935788 239.0555445158032 74.84745676901946 239.95097501614163 73.74288726935788 239.95097501614163 C 72.63831776969629 239.95097501614163 71.74288726935788 239.0555445158032 71.74288726935788 237.95097501614163 C 71.74288726935788 236.84640551648005 72.63831776969629 235.95097501614163 73.74288726935788 235.95097501614163 C 74.84745676901946 235.95097501614163 75.74288726935788 236.84640551648005 75.74288726935788 237.95097501614163 Z" stroke-opacity="1" stroke-linecap="round" stroke-linejoin="round" stroke-miterlimit="10"/><text fill="rgb(0,0,255)" stroke="none" font-family="geogebra-sans-serif, sans-serif" font-size="16px" font-style="normal" font-weight="normal" text-decoration="normal" x="55" y="256" text-anchor="start" dominant-baseline="alphabetic" fill-opacity="1">B</text><text fill="none" stroke="rgb(255,255,255)" font-family="geogebra-sans-serif, sans-serif" font-size="16px" font-style="normal" font-weight="normal" text-decoration="normal" x="55" y="256" text-anchor="start" dominant-baseline="alphabetic" stroke-opacity="1" stroke-linejoin="bevel" stroke-miterlimit="10" stroke-width="3">B</text><text fill="rgb(0,0,255)" stroke="none" font-family="geogebra-sans-serif, sans-serif" font-size="16px" font-style="normal" font-weight="normal" text-decoration="normal" x="55" y="256" text-anchor="start" dominant-baseline="alphabetic" fill-opacity="1">B</text><path fill="rgb(0,0,255)" stroke="none" paint-order="stroke fill markers" d=" M 327.0692447665722 237.95097501614163 C 327.0692447665722 239.0555445158032 326.17381426623376 239.95097501614163 325.0692447665722 239.95097501614163 C 323.9646752669106 239.95097501614163 323.0692447665722 239.0555445158032 323.0692447665722 237.95097501614163 C 323.0692447665722 236.84640551648005 323.9646752669106 235.95097501614163 325.0692447665722 235.95097501614163 C 326.17381426623376 235.95097501614163 327.0692447665722 236.84640551648005 327.0692447665722 237.95097501614163 Z" fill-opacity="1"/><path fill="none" stroke="rgb(0,0,0)" paint-order="fill stroke markers" d=" M 327.0692447665722 237.95097501614163 C 327.0692447665722 239.0555445158032 326.17381426623376 239.95097501614163 325.0692447665722 239.95097501614163 C 323.9646752669106 239.95097501614163 323.0692447665722 239.0555445158032 323.0692447665722 237.95097501614163 C 323.0692447665722 236.84640551648005 323.9646752669106 235.95097501614163 325.0692447665722 235.95097501614163 C 326.17381426623376 235.95097501614163 327.0692447665722 236.84640551648005 327.0692447665722 237.95097501614163 Z" stroke-opacity="1" stroke-linecap="round" stroke-linejoin="round" stroke-miterlimit="10"/><text fill="rgb(0,0,255)" stroke="none" font-family="geogebra-sans-serif, sans-serif" font-size="16px" font-style="normal" font-weight="normal" text-decoration="normal" x="331" y="256" text-anchor="start" dominant-baseline="alphabetic" fill-opacity="1">C</text><text fill="none" stroke="rgb(255,255,255)" font-family="geogebra-sans-serif, sans-serif" font-size="16px" font-style="normal" font-weight="normal" text-decoration="normal" x="331" y="256" text-anchor="start" dominant-baseline="alphabetic" stroke-opacity="1" stroke-linejoin="bevel" stroke-miterlimit="10" stroke-width="3">C</text><text fill="rgb(0,0,255)" stroke="none" font-family="geogebra-sans-serif, sans-serif" font-size="16px" font-style="normal" font-weight="normal" text-decoration="normal" x="331" y="256" text-anchor="start" dominant-baseline="alphabetic" fill-opacity="1">C</text><path fill="rgb(0,0,255)" stroke="none" paint-order="stroke fill markers" d=" M 41.653017216384114 95.24286124104736 C 41.653017216384114 96.34743074070894 40.7575867160457 97.24286124104736 39.653017216384114 97.24286124104736 C 38.54844771672253 97.24286124104736 37.653017216384114 96.34743074070894 37.653017216384114 95.24286124104736 C 37.653017216384114 94.13829174138577 38.54844771672253 93.24286124104736 39.653017216384114 93.24286124104736 C 40.7575867160457 93.24286124104736 41.653017216384114 94.13829174138577 41.653017216384114 95.24286124104736 Z" fill-opacity="1"/><path fill="none" stroke="rgb(0,0,0)" paint-order="fill stroke markers" d=" M 41.653017216384114 95.24286124104736 C 41.653017216384114 96.34743074070894 40.7575867160457 97.24286124104736 39.653017216384114 97.24286124104736 C 38.54844771672253 97.24286124104736 37.653017216384114 96.34743074070894 37.653017216384114 95.24286124104736 C 37.653017216384114 94.13829174138577 38.54844771672253 93.24286124104736 39.653017216384114 93.24286124104736 C 40.7575867160457 93.24286124104736 41.653017216384114 94.13829174138577 41.653017216384114 95.24286124104736 Z" stroke-opacity="1" stroke-linecap="round" stroke-linejoin="round" stroke-miterlimit="10"/><g transform="scale(19,19)"><g transform="translate(0.631578947368421,3.9599867368421053)"><path fill="rgb(0,0,255)" stroke="none" paint-order="stroke fill markers" d=" M 0.76 -0.6950000000000001 L 0.6970000000000001 -0.44 Q 0.6920000000000001 -0.422 0.687 -0.421 L 0.686 -0.42 L 0.679 -0.42 Q 0.664 -0.42 0.664 -0.43 L 0.667 -0.47900000000000004 L 0.667 -0.481 Q 0.667 -0.605 0.589 -0.652 L 0.588 -0.653 Q 0.553 -0.674 0.506 -0.674 Q 0.4 -0.674 0.305 -0.595 Q 0.281 -0.5760000000000001 0.262 -0.553 Q 0.167 -0.442 0.145 -0.271 Q 0.14100000000000001 -0.24 0.14100000000000001 -0.217 Q 0.14100000000000001 -0.077 0.247 -0.028 Q 0.28800000000000003 -0.009000000000000001 0.337 -0.009000000000000001 Q 0.431 -0.009000000000000001 0.521 -0.082 Q 0.591 -0.14100000000000001 0.622 -0.24 Q 0.624 -0.25 0.635 -0.25 Q 0.647 -0.25 0.647 -0.24 Q 0.647 -0.222 0.624 -0.176 Q 0.593 -0.113 0.537 -0.064 Q 0.438 0.022 0.321 0.022 Q 0.193 0.022 0.116 -0.066 Q 0.05 -0.14100000000000001 0.05 -0.252 Q 0.05 -0.401 0.159 -0.531 Q 0.26 -0.652 0.398 -0.6910000000000001 Q 0.449 -0.705 0.498 -0.705 Q 0.607 -0.705 0.664 -0.616 L 0.734 -0.6930000000000001 Q 0.746 -0.705 0.749 -0.705 Q 0.76 -0.705 0.76 -0.6950000000000001 Z"/></g><g transform="translate(1.346578947368421,4.109986736842106) scale(0.7,0.7)"><path fill="rgb(0,0,255)" stroke="none" paint-order="stroke fill markers" d=" M 0.294 -0.64 L 0.294 -0.079 Q 0.294 -0.049 0.306 -0.041 Q 0.323 -0.031 0.387 -0.031 L 0.419 -0.031 L 0.419 0 Q 0.384 -0.003 0.257 -0.003 Q 0.13 -0.003 0.095 0 L 0.095 -0.031 L 0.127 -0.031 Q 0.20400000000000001 -0.031 0.215 -0.049 L 0.216 -0.05 Q 0.22 -0.058 0.22 -0.079 L 0.22 -0.597 Q 0.168 -0.5710000000000001 0.089 -0.5710000000000001 L 0.089 -0.602 Q 0.209 -0.602 0.271 -0.666 Q 0.29 -0.666 0.293 -0.659 L 0.293 -0.659 L 0.293 -0.658 Q 0.294 -0.655 0.294 -0.64 Z"/></g><g transform="translate(1.9743567251461989,3.9599867368421053)"><path fill="rgb(0,0,255)" stroke="none" paint-order="stroke fill markers" d=" M 0.687 -0.424 L 0.09 -0.424 Q 0.058 -0.424 0.056 -0.444 Q 0.056 -0.464 0.089 -0.464 L 0.6880000000000001 -0.464 Q 0.72 -0.464 0.721 -0.444 Q 0.721 -0.424 0.687 -0.424 M 0.6880000000000001 -0.036000000000000004 L 0.089 -0.036000000000000004 Q 0.057 -0.036000000000000004 0.056 -0.056 Q 0.056 -0.076 0.09 -0.076 L 0.687 -0.076 Q 0.719 -0.076 0.721 -0.056 Q 0.721 -0.036000000000000004 0.6880000000000001 -0.036000000000000004 M 0.6880000000000001 -0.23 L 0.089 -0.23 Q 0.057 -0.23 0.056 -0.25 Q 0.056 -0.27 0.089 -0.27 L 0.6880000000000001 -0.27 Q 0.72 -0.27 0.721 -0.25 Q 0.721 -0.23 0.6880000000000001 -0.23 Z"/></g><g transform="translate(3.0301345029239766,3.9599867368421053)"><path fill="rgb(0,0,255)" stroke="none" paint-order="stroke fill markers" d=" M 0.76 -0.6950000000000001 L 0.6970000000000001 -0.44 Q 0.6920000000000001 -0.422 0.687 -0.421 L 0.686 -0.42 L 0.679 -0.42 Q 0.664 -0.42 0.664 -0.43 L 0.667 -0.47900000000000004 L 0.667 -0.481 Q 0.667 -0.605 0.589 -0.652 L 0.588 -0.653 Q 0.553 -0.674 0.506 -0.674 Q 0.4 -0.674 0.305 -0.595 Q 0.281 -0.5760000000000001 0.262 -0.553 Q 0.167 -0.442 0.145 -0.271 Q 0.14100000000000001 -0.24 0.14100000000000001 -0.217 Q 0.14100000000000001 -0.077 0.247 -0.028 Q 0.28800000000000003 -0.009000000000000001 0.337 -0.009000000000000001 Q 0.431 -0.009000000000000001 0.521 -0.082 Q 0.591 -0.14100000000000001 0.622 -0.24 Q 0.624 -0.25 0.635 -0.25 Q 0.647 -0.25 0.647 -0.24 Q 0.647 -0.222 0.624 -0.176 Q 0.593 -0.113 0.537 -0.064 Q 0.438 0.022 0.321 0.022 Q 0.193 0.022 0.116 -0.066 Q 0.05 -0.14100000000000001 0.05 -0.252 Q 0.05 -0.401 0.159 -0.531 Q 0.26 -0.652 0.398 -0.6910000000000001 Q 0.449 -0.705 0.498 -0.705 Q 0.607 -0.705 0.664 -0.616 L 0.734 -0.6930000000000001 Q 0.746 -0.705 0.749 -0.705 Q 0.76 -0.705 0.76 -0.6950000000000001 Z"/></g><g transform="translate(3.8171345029239765,3.5470947368421055) scale(0.7,0.7)"><path fill="rgb(0,0,255)" stroke="none" paint-order="stroke fill markers" d=" M 0.255 -0.47900000000000004 L 0.076 -0.059000000000000004 Q 0.07 -0.045 0.063 -0.045 Q 0.045 -0.045 0.033 -0.056 Q 0.029 -0.059000000000000004 0.029 -0.063 Q 0.029 -0.065 0.032 -0.077 L 0.153 -0.513 Q 0.166 -0.554 0.197 -0.558 Q 0.202 -0.559 0.20600000000000002 -0.559 Q 0.24 -0.559 0.256 -0.53 Q 0.262 -0.519 0.262 -0.507 Q 0.262 -0.494 0.255 -0.47900000000000004 Z"/></g></g><path fill="rgb(0,0,255)" stroke="none" paint-order="stroke fill markers" d=" M 201.40606601796503 283.6886316239079 C 201.40606601796503 284.7932011235695 200.5106355176266 285.6886316239079 199.40606601796503 285.6886316239079 C 198.30149651830345 285.6886316239079 197.40606601796503 284.7932011235695 197.40606601796503 283.6886316239079 C 197.40606601796503 282.5840621242463 198.30149651830345 281.6886316239079 199.40606601796503 281.6886316239079 C 200.5106355176266 281.6886316239079 201.40606601796503 282.5840621242463 201.40606601796503 283.6886316239079 Z" fill-opacity="1"/><path fill="none" stroke="rgb(0,0,0)" paint-order="fill stroke markers" d=" M 201.40606601796503 283.6886316239079 C 201.40606601796503 284.7932011235695 200.5106355176266 285.6886316239079 199.40606601796503 285.6886316239079 C 198.30149651830345 285.6886316239079 197.40606601796503 284.7932011235695 197.40606601796503 283.6886316239079 C 197.40606601796503 282.5840621242463 198.30149651830345 281.6886316239079 199.40606601796503 281.6886316239079 C 200.5106355176266 281.6886316239079 201.40606601796503 282.5840621242463 201.40606601796503 283.6886316239079 Z" stroke-opacity="1" stroke-linecap="round" stroke-linejoin="round" stroke-miterlimit="10"/><text fill="rgb(0,0,255)" stroke="none" font-family="geogebra-sans-serif, sans-serif" font-size="16px" font-style="normal" font-weight="normal" text-decoration="normal" x="195" y="308" text-anchor="start" dominant-baseline="alphabetic" fill-opacity="1">A</text><text fill="none" stroke="rgb(255,255,255)" font-family="geogebra-sans-serif, sans-serif" font-size="16px" font-style="normal" font-weight="normal" text-decoration="normal" x="195" y="308" text-anchor="start" dominant-baseline="alphabetic" stroke-opacity="1" stroke-linejoin="bevel" stroke-miterlimit="10" stroke-width="3">A</text><text fill="rgb(0,0,255)" stroke="none" font-family="geogebra-sans-serif, sans-serif" font-size="16px" font-style="normal" font-weight="normal" text-decoration="normal" x="195" y="308" text-anchor="start" dominant-baseline="alphabetic" fill-opacity="1">A</text><text fill="rgb(0,0,255)" stroke="none" font-family="geogebra-sans-serif, sans-serif" font-size="14px" font-style="normal" font-weight="normal" text-decoration="normal" x="206" y="315" text-anchor="start" dominant-baseline="alphabetic" fill-opacity="1">1</text><text fill="none" stroke="rgb(255,255,255)" font-family="geogebra-sans-serif, sans-serif" font-size="14px" font-style="normal" font-weight="normal" text-decoration="normal" x="206" y="315" text-anchor="start" dominant-baseline="alphabetic" stroke-opacity="1" stroke-linejoin="bevel" stroke-miterlimit="10" stroke-width="3">1</text><text fill="rgb(0,0,255)" stroke="none" font-family="geogebra-sans-serif, sans-serif" font-size="14px" font-style="normal" font-weight="normal" text-decoration="normal" x="206" y="315" text-anchor="start" dominant-baseline="alphabetic" fill-opacity="1">1</text><path fill="rgb(0,0,255)" stroke="none" paint-order="stroke fill markers" d=" M 309.7126735795938 93.8894299706161 C 309.7126735795938 94.99399947027769 308.8172430792554 95.8894299706161 307.7126735795938 95.8894299706161 C 306.6081040799322 95.8894299706161 305.7126735795938 94.99399947027769 305.7126735795938 93.8894299706161 C 305.7126735795938 92.78486047095451 306.6081040799322 91.8894299706161 307.7126735795938 91.8894299706161 C 308.8172430792554 91.8894299706161 309.7126735795938 92.78486047095451 309.7126735795938 93.8894299706161 Z" fill-opacity="1"/><path fill="none" stroke="rgb(0,0,0)" paint-order="fill stroke markers" d=" M 309.7126735795938 93.8894299706161 C 309.7126735795938 94.99399947027769 308.8172430792554 95.8894299706161 307.7126735795938 95.8894299706161 C 306.6081040799322 95.8894299706161 305.7126735795938 94.99399947027769 305.7126735795938 93.8894299706161 C 305.7126735795938 92.78486047095451 306.6081040799322 91.8894299706161 307.7126735795938 91.8894299706161 C 308.8172430792554 91.8894299706161 309.7126735795938 92.78486047095451 309.7126735795938 93.8894299706161 Z" stroke-opacity="1" stroke-linecap="round" stroke-linejoin="round" stroke-miterlimit="10"/><text fill="rgb(0,0,255)" stroke="none" font-family="geogebra-sans-serif, sans-serif" font-size="16px" font-style="normal" font-weight="normal" text-decoration="normal" x="312" y="90" text-anchor="start" dominant-baseline="alphabetic" fill-opacity="1">B</text><text fill="none" stroke="rgb(255,255,255)" font-family="geogebra-sans-serif, sans-serif" font-size="16px" font-style="normal" font-weight="normal" text-decoration="normal" x="312" y="90" text-anchor="start" dominant-baseline="alphabetic" stroke-opacity="1" stroke-linejoin="bevel" stroke-miterlimit="10" stroke-width="3">B</text><text fill="rgb(0,0,255)" stroke="none" font-family="geogebra-sans-serif, sans-serif" font-size="16px" font-style="normal" font-weight="normal" text-decoration="normal" x="312" y="90" text-anchor="start" dominant-baseline="alphabetic" fill-opacity="1">B</text><text fill="rgb(0,0,255)" stroke="none" font-family="geogebra-sans-serif, sans-serif" font-size="14px" font-style="normal" font-weight="normal" text-decoration="normal" x="323" y="97" text-anchor="start" dominant-baseline="alphabetic" fill-opacity="1">1</text><text fill="none" stroke="rgb(255,255,255)" font-family="geogebra-sans-serif, sans-serif" font-size="14px" font-style="normal" font-weight="normal" text-decoration="normal" x="323" y="97" text-anchor="start" dominant-baseline="alphabetic" stroke-opacity="1" stroke-linejoin="bevel" stroke-miterlimit="10" stroke-width="3">1</text><text fill="rgb(0,0,255)" stroke="none" font-family="geogebra-sans-serif, sans-serif" font-size="14px" font-style="normal" font-weight="normal" text-decoration="normal" x="323" y="97" text-anchor="start" dominant-baseline="alphabetic" fill-opacity="1">1</text></g></g></svg>