<svg version="1.1" xmlns="http://www.w3.org/2000/svg" xmlns:xlink="http://www.w3.org/1999/xlink" width="320" height="326"><defs><clipPath id="RKTOtqJpUKrh"><path fill="none" stroke="none" d=" M 0 0 L 320 0 L 320 326 L 0 326 L 0 0 Z"/></clipPath></defs><g transform="scale(1,1)" clip-path="url(#RKTOtqJpUKrh)"><g><rect fill="rgb(255,255,255)" stroke="none" x="0" y="0" width="320" height="326" fill-opacity="1"/><path fill="none" stroke="rgb(0,153,255)" paint-order="fill stroke markers" d=" M 289.5000000000007 159.6111111111093 C 289.5000000000007 233.2490777552155 229.804633310773 292.94444444444343 156.16666666666708 292.94444444444343 C 82.52870002256117 292.94444444444343 22.833333333333485 233.2490777552155 22.833333333333485 159.6111111111093 C 22.833333333333485 85.9731444670031 82.52870002256117 26.277777777775185 156.16666666666708 26.277777777775185 C 229.804633310773 26.277777777775185 289.5000000000007 85.9731444670031 289.5000000000007 159.6111111111093 Z" stroke-opacity="0.6980392156862745" stroke-linecap="round" stroke-linejoin="round" stroke-miterlimit="10"/><g transform="scale(19,19)"><g transform="translate(2.0526315789473686,3.167842105263158)"><path fill="rgb(0,153,255)" stroke="none" paint-order="stroke fill markers" d=" M 0.264 -0.082 Q 0.201 0.011 0.11900000000000001 0.011 Q 0.032 0.011 0.016 -0.089 Q 0.013000000000000001 -0.109 0.013000000000000001 -0.131 Q 0.013000000000000001 -0.22 0.051000000000000004 -0.311 Q 0.082 -0.382 0.112 -0.419 Q 0.122 -0.431 0.127 -0.431 Q 0.139 -0.431 0.139 -0.419 Q 0.139 -0.41400000000000003 0.129 -0.4 Q 0.045 -0.28 0.045 -0.17500000000000002 Q 0.045 -0.08 0.109 -0.064 Q 0.12 -0.061 0.133 -0.061 Q 0.201 -0.061 0.257 -0.138 Q 0.264 -0.145 0.266 -0.165 Q 0.276 -0.23800000000000002 0.28700000000000003 -0.266 Q 0.3 -0.291 0.315 -0.291 Q 0.334 -0.291 0.336 -0.268 Q 0.336 -0.24 0.308 -0.168 Q 0.306 -0.161 0.303 -0.155 Q 0.297 -0.14400000000000002 0.297 -0.139 Q 0.297 -0.111 0.317 -0.084 Q 0.335 -0.061 0.372 -0.061 Q 0.449 -0.061 0.511 -0.14400000000000002 Q 0.562 -0.214 0.562 -0.28 Q 0.562 -0.331 0.527 -0.367 Q 0.512 -0.38 0.512 -0.394 Q 0.512 -0.419 0.539 -0.435 Q 0.55 -0.442 0.562 -0.442 Q 0.599 -0.442 0.604 -0.388 Q 0.605 -0.377 0.605 -0.371 Q 0.605 -0.307 0.5750000000000001 -0.213 Q 0.55 -0.136 0.511 -0.082 Q 0.443 0.011 0.358 0.011 Q 0.277 0.011 0.264 -0.082 Z"/></g></g><path fill="none" stroke="rgb(0,100,0)" paint-order="fill stroke markers" d=" M 81.63604169592018 270.1686242852388 L 230.58469738543585 270.2444446128995" stroke-opacity="0.6980392156862745" stroke-linecap="round" stroke-linejoin="round" stroke-miterlimit="10"/><path fill="none" stroke="rgb(0,100,0)" paint-order="fill stroke markers" d=" M 91.54892562758312 42.98210390971093 L 81.63604169592018 270.1686242852388" stroke-opacity="0.6980392156862745" stroke-linecap="round" stroke-linejoin="round" stroke-miterlimit="10"/><path fill="none" stroke="rgb(0,100,0)" paint-order="fill stroke markers" d=" M 91.54892562758312 42.98210390971093 L 230.58469738543585 270.2444446128995" stroke-opacity="0.6980392156862745" stroke-linecap="round" stroke-linejoin="round" stroke-miterlimit="10"/><path fill="none" stroke="rgb(255,85,0)" paint-order="fill stroke markers" d=" M 105.5584658519612 171.27624023819686 L 103.93593690487587 162.423703888886" stroke-opacity="0.6980392156862745" stroke-linecap="round" stroke-linejoin="round" stroke-miterlimit="10"/><path fill="none" stroke="rgb(255,85,0)" paint-order="fill stroke markers" d=" M 123.50020652527743 163.41284483864308 L 85.99419623155964 170.28709928843978" stroke-opacity="0.6980392156862745" stroke-linecap="round" stroke-linejoin="round" stroke-miterlimit="10"/><path fill="none" stroke="rgb(255,85,0)" paint-order="fill stroke markers" d=" M 141.44864793556465 155.54822130070352 L 143.07117688264995 164.40075765001438" stroke-opacity="0.6980392156862745" stroke-linecap="round" stroke-linejoin="round" stroke-miterlimit="10"/><path fill="none" stroke="rgb(255,85,0)" paint-order="fill stroke markers" d=" M 123.50020652527743 163.41284483864308 L 161.01961829293714 156.53613411207485" stroke-opacity="0.6980392156862745" stroke-linecap="round" stroke-linejoin="round" stroke-miterlimit="10"/><path fill="none" stroke="rgb(0,100,0)" paint-order="fill stroke markers" d=" M 24.647476822380984 181.53097608515708 L 85.99419623155964 170.28709928843978" stroke-opacity="0.6980392156862745" stroke-linecap="round" stroke-linejoin="round" stroke-miterlimit="10"/><path fill="none" stroke="rgb(0,100,0)" paint-order="fill stroke markers" d=" M 161.01961829293714 156.53613411207485 L 286.91075675879006 133.46229309268458" stroke-opacity="0.6980392156862745" stroke-linecap="round" stroke-linejoin="round" stroke-miterlimit="10"/><path fill="rgb(0,0,255)" stroke="none" paint-order="stroke fill markers" d=" M 83.63604169592018 270.1686242852388 C 83.63604169592018 271.2731937849004 82.74061119558178 272.1686242852388 81.63604169592018 272.1686242852388 C 80.53147219625859 272.1686242852388 79.63604169592018 271.2731937849004 79.63604169592018 270.1686242852388 C 79.63604169592018 269.06405478557724 80.53147219625859 268.1686242852388 81.63604169592018 268.1686242852388 C 82.74061119558178 268.1686242852388 83.63604169592018 269.06405478557724 83.63604169592018 270.1686242852388 Z" fill-opacity="1"/><path fill="none" stroke="rgb(0,0,0)" paint-order="fill stroke markers" d=" M 83.63604169592018 270.1686242852388 C 83.63604169592018 271.2731937849004 82.74061119558178 272.1686242852388 81.63604169592018 272.1686242852388 C 80.53147219625859 272.1686242852388 79.63604169592018 271.2731937849004 79.63604169592018 270.1686242852388 C 79.63604169592018 269.06405478557724 80.53147219625859 268.1686242852388 81.63604169592018 268.1686242852388 C 82.74061119558178 268.1686242852388 83.63604169592018 269.06405478557724 83.63604169592018 270.1686242852388 Z" stroke-opacity="1" stroke-linecap="round" stroke-linejoin="round" stroke-miterlimit="10"/><text fill="rgb(0,0,255)" stroke="none" font-family="geogebra-sans-serif, sans-serif" font-size="16px" font-style="normal" font-weight="normal" text-decoration="normal" x="68" y="293" text-anchor="start" dominant-baseline="alphabetic" fill-opacity="1">A</text><text fill="none" stroke="rgb(255,255,255)" font-family="geogebra-sans-serif, sans-serif" font-size="16px" font-style="normal" font-weight="normal" text-decoration="normal" x="68" y="293" text-anchor="start" dominant-baseline="alphabetic" stroke-opacity="1" stroke-linejoin="bevel" stroke-miterlimit="10" stroke-width="3">A</text><text fill="rgb(0,0,255)" stroke="none" font-family="geogebra-sans-serif, sans-serif" font-size="16px" font-style="normal" font-weight="normal" text-decoration="normal" x="68" y="293" text-anchor="start" dominant-baseline="alphabetic" fill-opacity="1">A</text><path fill="rgb(0,0,255)" stroke="none" paint-order="stroke fill markers" d=" M 232.58469738543585 270.2444446128995 C 232.58469738543585 271.34901411256106 231.68926688509742 272.2444446128995 230.58469738543585 272.2444446128995 C 229.48012788577427 272.2444446128995 228.58469738543585 271.34901411256106 228.58469738543585 270.2444446128995 C 228.58469738543585 269.1398751132379 229.48012788577427 268.2444446128995 230.58469738543585 268.2444446128995 C 231.68926688509742 268.2444446128995 232.58469738543585 269.1398751132379 232.58469738543585 270.2444446128995 Z" fill-opacity="1"/><path fill="none" stroke="rgb(0,0,0)" paint-order="fill stroke markers" d=" M 232.58469738543585 270.2444446128995 C 232.58469738543585 271.34901411256106 231.68926688509742 272.2444446128995 230.58469738543585 272.2444446128995 C 229.48012788577427 272.2444446128995 228.58469738543585 271.34901411256106 228.58469738543585 270.2444446128995 C 228.58469738543585 269.1398751132379 229.48012788577427 268.2444446128995 230.58469738543585 268.2444446128995 C 231.68926688509742 268.2444446128995 232.58469738543585 269.1398751132379 232.58469738543585 270.2444446128995 Z" stroke-opacity="1" stroke-linecap="round" stroke-linejoin="round" stroke-miterlimit="10"/><text fill="rgb(0,0,255)" stroke="none" font-family="geogebra-sans-serif, sans-serif" font-size="16px" font-style="normal" font-weight="normal" text-decoration="normal" x="236" y="289" text-anchor="start" dominant-baseline="alphabetic" fill-opacity="1">B</text><text fill="none" stroke="rgb(255,255,255)" font-family="geogebra-sans-serif, sans-serif" font-size="16px" font-style="normal" font-weight="normal" text-decoration="normal" x="236" y="289" text-anchor="start" dominant-baseline="alphabetic" stroke-opacity="1" stroke-linejoin="bevel" stroke-miterlimit="10" stroke-width="3">B</text><text fill="rgb(0,0,255)" stroke="none" font-family="geogebra-sans-serif, sans-serif" font-size="16px" font-style="normal" font-weight="normal" text-decoration="normal" x="236" y="289" text-anchor="start" dominant-baseline="alphabetic" fill-opacity="1">B</text><path fill="rgb(0,0,255)" stroke="none" paint-order="stroke fill markers" d=" M 26.647476822380984 181.53097608515708 C 26.647476822380984 182.63554558481866 25.75204632204257 183.53097608515708 24.647476822380984 183.53097608515708 C 23.542907322719397 183.53097608515708 22.647476822380984 182.63554558481866 22.647476822380984 181.53097608515708 C 22.647476822380984 180.4264065854955 23.542907322719397 179.53097608515708 24.647476822380984 179.53097608515708 C 25.75204632204257 179.53097608515708 26.647476822380984 180.4264065854955 26.647476822380984 181.53097608515708 Z" fill-opacity="1"/><path fill="none" stroke="rgb(0,0,0)" paint-order="fill stroke markers" d=" M 26.647476822380984 181.53097608515708 C 26.647476822380984 182.63554558481866 25.75204632204257 183.53097608515708 24.647476822380984 183.53097608515708 C 23.542907322719397 183.53097608515708 22.647476822380984 182.63554558481866 22.647476822380984 181.53097608515708 C 22.647476822380984 180.4264065854955 23.542907322719397 179.53097608515708 24.647476822380984 179.53097608515708 C 25.75204632204257 179.53097608515708 26.647476822380984 180.4264065854955 26.647476822380984 181.53097608515708 Z" stroke-opacity="1" stroke-linecap="round" stroke-linejoin="round" stroke-miterlimit="10"/><text fill="rgb(0,0,255)" stroke="none" font-family="geogebra-sans-serif, sans-serif" font-size="16px" font-style="normal" font-weight="normal" text-decoration="normal" x="8" y="190" text-anchor="start" dominant-baseline="alphabetic" fill-opacity="1">C</text><text fill="none" stroke="rgb(255,255,255)" font-family="geogebra-sans-serif, sans-serif" font-size="16px" font-style="normal" font-weight="normal" text-decoration="normal" x="8" y="190" text-anchor="start" dominant-baseline="alphabetic" stroke-opacity="1" stroke-linejoin="bevel" stroke-miterlimit="10" stroke-width="3">C</text><text fill="rgb(0,0,255)" stroke="none" font-family="geogebra-sans-serif, sans-serif" font-size="16px" font-style="normal" font-weight="normal" text-decoration="normal" x="8" y="190" text-anchor="start" dominant-baseline="alphabetic" fill-opacity="1">C</text><path fill="rgb(0,0,255)" stroke="none" paint-order="stroke fill markers" d=" M 288.91075675879006 133.46229309268458 C 288.91075675879006 134.56686259234615 288.01532625845164 135.46229309268458 286.91075675879006 135.46229309268458 C 285.8061872591285 135.46229309268458 284.91075675879006 134.56686259234615 284.91075675879006 133.46229309268458 C 284.91075675879006 132.357723593023 285.8061872591285 131.46229309268458 286.91075675879006 131.46229309268458 C 288.01532625845164 131.46229309268458 288.91075675879006 132.357723593023 288.91075675879006 133.46229309268458 Z" fill-opacity="1"/><path fill="none" stroke="rgb(0,0,0)" paint-order="fill stroke markers" d=" M 288.91075675879006 133.46229309268458 C 288.91075675879006 134.56686259234615 288.01532625845164 135.46229309268458 286.91075675879006 135.46229309268458 C 285.8061872591285 135.46229309268458 284.91075675879006 134.56686259234615 284.91075675879006 133.46229309268458 C 284.91075675879006 132.357723593023 285.8061872591285 131.46229309268458 286.91075675879006 131.46229309268458 C 288.01532625845164 131.46229309268458 288.91075675879006 132.357723593023 288.91075675879006 133.46229309268458 Z" stroke-opacity="1" stroke-linecap="round" stroke-linejoin="round" stroke-miterlimit="10"/><text fill="rgb(0,0,255)" stroke="none" font-family="geogebra-sans-serif, sans-serif" font-size="16px" font-style="normal" font-weight="normal" text-decoration="normal" x="294" y="135" text-anchor="start" dominant-baseline="alphabetic" fill-opacity="1">D</text><text fill="none" stroke="rgb(255,255,255)" font-family="geogebra-sans-serif, sans-serif" font-size="16px" font-style="normal" font-weight="normal" text-decoration="normal" x="294" y="135" text-anchor="start" dominant-baseline="alphabetic" stroke-opacity="1" stroke-linejoin="bevel" stroke-miterlimit="10" stroke-width="3">D</text><text fill="rgb(0,0,255)" stroke="none" font-family="geogebra-sans-serif, sans-serif" font-size="16px" font-style="normal" font-weight="normal" text-decoration="normal" x="294" y="135" text-anchor="start" dominant-baseline="alphabetic" fill-opacity="1">D</text><path fill="rgb(0,0,255)" stroke="none" paint-order="stroke fill markers" d=" M 125.50020652527743 163.41284483864308 C 125.50020652527743 164.51741433830466 124.60477602493901 165.41284483864308 123.50020652527743 165.41284483864308 C 122.39563702561584 165.41284483864308 121.50020652527743 164.51741433830466 121.50020652527743 163.41284483864308 C 121.50020652527743 162.3082753389815 122.39563702561584 161.41284483864308 123.50020652527743 161.41284483864308 C 124.60477602493901 161.41284483864308 125.50020652527743 162.3082753389815 125.50020652527743 163.41284483864308 Z" fill-opacity="1"/><path fill="none" stroke="rgb(0,0,0)" paint-order="fill stroke markers" d=" M 125.50020652527743 163.41284483864308 C 125.50020652527743 164.51741433830466 124.60477602493901 165.41284483864308 123.50020652527743 165.41284483864308 C 122.39563702561584 165.41284483864308 121.50020652527743 164.51741433830466 121.50020652527743 163.41284483864308 C 121.50020652527743 162.3082753389815 122.39563702561584 161.41284483864308 123.50020652527743 161.41284483864308 C 124.60477602493901 161.41284483864308 125.50020652527743 162.3082753389815 125.50020652527743 163.41284483864308 Z" stroke-opacity="1" stroke-linecap="round" stroke-linejoin="round" stroke-miterlimit="10"/><text fill="rgb(0,0,255)" stroke="none" font-family="geogebra-sans-serif, sans-serif" font-size="16px" font-style="normal" font-weight="normal" text-decoration="normal" x="132" y="180" text-anchor="start" dominant-baseline="alphabetic" fill-opacity="1">J</text><text fill="none" stroke="rgb(255,255,255)" font-family="geogebra-sans-serif, sans-serif" font-size="16px" font-style="normal" font-weight="normal" text-decoration="normal" x="132" y="180" text-anchor="start" dominant-baseline="alphabetic" stroke-opacity="1" stroke-linejoin="bevel" stroke-miterlimit="10" stroke-width="3">J</text><text fill="rgb(0,0,255)" stroke="none" font-family="geogebra-sans-serif, sans-serif" font-size="16px" font-style="normal" font-weight="normal" text-decoration="normal" x="132" y="180" text-anchor="start" dominant-baseline="alphabetic" fill-opacity="1">J</text><path fill="rgb(0,0,255)" stroke="none" paint-order="stroke fill markers" d=" M 163.01961829293714 156.53613411207485 C 163.01961829293714 157.64070361173643 162.12418779259872 158.53613411207485 161.01961829293714 158.53613411207485 C 159.91504879327556 158.53613411207485 159.01961829293714 157.64070361173643 159.01961829293714 156.53613411207485 C 159.01961829293714 155.43156461241327 159.91504879327556 154.53613411207485 161.01961829293714 154.53613411207485 C 162.12418779259872 154.53613411207485 163.01961829293714 155.43156461241327 163.01961829293714 156.53613411207485 Z" fill-opacity="1"/><path fill="none" stroke="rgb(0,0,0)" paint-order="fill stroke markers" d=" M 163.01961829293714 156.53613411207485 C 163.01961829293714 157.64070361173643 162.12418779259872 158.53613411207485 161.01961829293714 158.53613411207485 C 159.91504879327556 158.53613411207485 159.01961829293714 157.64070361173643 159.01961829293714 156.53613411207485 C 159.01961829293714 155.43156461241327 159.91504879327556 154.53613411207485 161.01961829293714 154.53613411207485 C 162.12418779259872 154.53613411207485 163.01961829293714 155.43156461241327 163.01961829293714 156.53613411207485 Z" stroke-opacity="1" stroke-linecap="round" stroke-linejoin="round" stroke-miterlimit="10"/><text fill="rgb(0,0,255)" stroke="none" font-family="geogebra-sans-serif, sans-serif" font-size="16px" font-style="normal" font-weight="normal" text-decoration="normal" x="167" y="146" text-anchor="start" dominant-baseline="alphabetic" fill-opacity="1">F</text><text fill="none" stroke="rgb(255,255,255)" font-family="geogebra-sans-serif, sans-serif" font-size="16px" font-style="normal" font-weight="normal" text-decoration="normal" x="167" y="146" text-anchor="start" dominant-baseline="alphabetic" stroke-opacity="1" stroke-linejoin="bevel" stroke-miterlimit="10" stroke-width="3">F</text><text fill="rgb(0,0,255)" stroke="none" font-family="geogebra-sans-serif, sans-serif" font-size="16px" font-style="normal" font-weight="normal" text-decoration="normal" x="167" y="146" text-anchor="start" dominant-baseline="alphabetic" fill-opacity="1">F</text><path fill="rgb(0,0,255)" stroke="none" paint-order="stroke fill markers" d=" M 93.54892562758312 42.98210390971093 C 93.54892562758312 44.086673409372516 92.6534951272447 44.98210390971093 91.54892562758312 44.98210390971093 C 90.44435612792152 44.98210390971093 89.54892562758312 44.086673409372516 89.54892562758312 42.98210390971093 C 89.54892562758312 41.87753441004934 90.44435612792152 40.98210390971093 91.54892562758312 40.98210390971093 C 92.6534951272447 40.98210390971093 93.54892562758312 41.87753441004934 93.54892562758312 42.98210390971093 Z" fill-opacity="1"/><path fill="none" stroke="rgb(0,0,0)" paint-order="fill stroke markers" d=" M 93.54892562758312 42.98210390971093 C 93.54892562758312 44.086673409372516 92.6534951272447 44.98210390971093 91.54892562758312 44.98210390971093 C 90.44435612792152 44.98210390971093 89.54892562758312 44.086673409372516 89.54892562758312 42.98210390971093 C 89.54892562758312 41.87753441004934 90.44435612792152 40.98210390971093 91.54892562758312 40.98210390971093 C 92.6534951272447 40.98210390971093 93.54892562758312 41.87753441004934 93.54892562758312 42.98210390971093 Z" stroke-opacity="1" stroke-linecap="round" stroke-linejoin="round" stroke-miterlimit="10"/><text fill="rgb(0,0,255)" stroke="none" font-family="geogebra-sans-serif, sans-serif" font-size="16px" font-style="normal" font-weight="normal" text-decoration="normal" x="77" y="32" text-anchor="start" dominant-baseline="alphabetic" fill-opacity="1">X</text><text fill="none" stroke="rgb(255,255,255)" font-family="geogebra-sans-serif, sans-serif" font-size="16px" font-style="normal" font-weight="normal" text-decoration="normal" x="77" y="32" text-anchor="start" dominant-baseline="alphabetic" stroke-opacity="1" stroke-linejoin="bevel" stroke-miterlimit="10" stroke-width="3">X</text><text fill="rgb(0,0,255)" stroke="none" font-family="geogebra-sans-serif, sans-serif" font-size="16px" font-style="normal" font-weight="normal" text-decoration="normal" x="77" y="32" text-anchor="start" dominant-baseline="alphabetic" fill-opacity="1">X</text><path fill="rgb(0,0,255)" stroke="none" paint-order="stroke fill markers" d=" M 87.99419623155964 170.28709928843978 C 87.99419623155964 171.39166878810136 87.09876573122122 172.28709928843978 85.99419623155964 172.28709928843978 C 84.88962673189805 172.28709928843978 83.99419623155964 171.39166878810136 83.99419623155964 170.28709928843978 C 83.99419623155964 169.1825297887782 84.88962673189805 168.28709928843978 85.99419623155964 168.28709928843978 C 87.09876573122122 168.28709928843978 87.99419623155964 169.1825297887782 87.99419623155964 170.28709928843978 Z" fill-opacity="1"/><path fill="none" stroke="rgb(0,0,0)" paint-order="fill stroke markers" d=" M 87.99419623155964 170.28709928843978 C 87.99419623155964 171.39166878810136 87.09876573122122 172.28709928843978 85.99419623155964 172.28709928843978 C 84.88962673189805 172.28709928843978 83.99419623155964 171.39166878810136 83.99419623155964 170.28709928843978 C 83.99419623155964 169.1825297887782 84.88962673189805 168.28709928843978 85.99419623155964 168.28709928843978 C 87.09876573122122 168.28709928843978 87.99419623155964 169.1825297887782 87.99419623155964 170.28709928843978 Z" stroke-opacity="1" stroke-linecap="round" stroke-linejoin="round" stroke-miterlimit="10"/><text fill="rgb(0,0,255)" stroke="none" font-family="geogebra-sans-serif, sans-serif" font-size="16px" font-style="normal" font-weight="normal" text-decoration="normal" x="69" y="164" text-anchor="start" dominant-baseline="alphabetic" fill-opacity="1">G</text><text fill="none" stroke="rgb(255,255,255)" font-family="geogebra-sans-serif, sans-serif" font-size="16px" font-style="normal" font-weight="normal" text-decoration="normal" x="69" y="164" text-anchor="start" dominant-baseline="alphabetic" stroke-opacity="1" stroke-linejoin="bevel" stroke-miterlimit="10" stroke-width="3">G</text><text fill="rgb(0,0,255)" stroke="none" font-family="geogebra-sans-serif, sans-serif" font-size="16px" font-style="normal" font-weight="normal" text-decoration="normal" x="69" y="164" text-anchor="start" dominant-baseline="alphabetic" fill-opacity="1">G</text></g></g></svg>