<svg version="1.1" xmlns="http://www.w3.org/2000/svg" xmlns:xlink="http://www.w3.org/1999/xlink" width="384" height="197"><defs><clipPath id="fBbxFQQGtpZL"><path fill="none" stroke="none" d=" M 0 0 L 384 0 L 384 197 L 0 197 L 0 0 Z"/></clipPath></defs><g transform="scale(1,1)" clip-path="url(#fBbxFQQGtpZL)"><g><rect fill="rgb(255,255,255)" stroke="none" x="0" y="0" width="384" height="197" fill-opacity="1"/><path fill="none" stroke="rgb(0,153,255)" paint-order="fill stroke markers" d=" M 133.4999999999999 75.50000000000094 C 133.4999999999999 103.11423749154045 111.11423749153955 125.50000000000065 83.49999999999989 125.50000000000065 C 55.88576250846021 125.50000000000065 33.49999999999987 103.11423749154045 33.49999999999987 75.50000000000094 C 33.49999999999987 47.885762508461426 55.88576250846021 25.500000000001215 83.49999999999989 25.500000000001215 C 111.11423749153955 25.500000000001215 133.4999999999999 47.885762508461426 133.4999999999999 75.50000000000094 Z" stroke-opacity="0.6980392156862745" stroke-linecap="round" stroke-linejoin="round" stroke-miterlimit="10"/><g transform="scale(19,19)"><g transform="translate(2.8421052631578947,1.062578947368421)"><path fill="rgb(0,153,255)" stroke="none" paint-order="stroke fill markers" d=" M 0.264 -0.082 Q 0.201 0.011 0.11900000000000001 0.011 Q 0.032 0.011 0.016 -0.089 Q 0.013000000000000001 -0.109 0.013000000000000001 -0.131 Q 0.013000000000000001 -0.22 0.051000000000000004 -0.311 Q 0.082 -0.382 0.112 -0.419 Q 0.122 -0.431 0.127 -0.431 Q 0.139 -0.431 0.139 -0.419 Q 0.139 -0.41400000000000003 0.129 -0.4 Q 0.045 -0.28 0.045 -0.17500000000000002 Q 0.045 -0.08 0.109 -0.064 Q 0.12 -0.061 0.133 -0.061 Q 0.201 -0.061 0.257 -0.138 Q 0.264 -0.145 0.266 -0.165 Q 0.276 -0.23800000000000002 0.28700000000000003 -0.266 Q 0.3 -0.291 0.315 -0.291 Q 0.334 -0.291 0.336 -0.268 Q 0.336 -0.24 0.308 -0.168 Q 0.306 -0.161 0.303 -0.155 Q 0.297 -0.14400000000000002 0.297 -0.139 Q 0.297 -0.111 0.317 -0.084 Q 0.335 -0.061 0.372 -0.061 Q 0.449 -0.061 0.511 -0.14400000000000002 Q 0.562 -0.214 0.562 -0.28 Q 0.562 -0.331 0.527 -0.367 Q 0.512 -0.38 0.512 -0.394 Q 0.512 -0.419 0.539 -0.435 Q 0.55 -0.442 0.562 -0.442 Q 0.599 -0.442 0.604 -0.388 Q 0.605 -0.377 0.605 -0.371 Q 0.605 -0.307 0.5750000000000001 -0.213 Q 0.55 -0.136 0.511 -0.082 Q 0.443 0.011 0.358 0.011 Q 0.277 0.011 0.264 -0.082 Z"/></g></g><g transform="scale(19,19)"><g transform="translate(9.842105263157896,8.799263157894735)"><path fill="rgb(0,100,0)" stroke="none" paint-order="stroke fill markers" d=" M 0.016 -0.099 L 0.016 -0.099 L 0.093 -0.17200000000000001 Q 0.093 -0.338 0.17200000000000001 -0.517 Q 0.223 -0.634 0.28300000000000003 -0.682 Q 0.312 -0.705 0.339 -0.705 Q 0.398 -0.705 0.398 -0.627 Q 0.398 -0.47300000000000003 0.226 -0.277 Q 0.201 -0.248 0.17500000000000002 -0.222 Q 0.159 -0.20600000000000002 0.153 -0.197 Q 0.148 -0.189 0.148 -0.14 Q 0.148 -0.01 0.209 -0.01 Q 0.26 -0.01 0.339 -0.088 Q 0.34900000000000003 -0.097 0.352 -0.097 Q 0.362 -0.097 0.364 -0.085 Q 0.364 -0.073 0.31 -0.031 L 0.31 -0.031 Q 0.306 -0.028 0.303 -0.026000000000000002 Q 0.25 0.012 0.20700000000000002 0.012 Q 0.114 0.012 0.095 -0.14100000000000001 Q 0.075 -0.121 0.059000000000000004 -0.107 Q 0.028 -0.076 0.023 -0.076 Q 0.015 -0.076 0.011 -0.089 Q 0.011 -0.092 0.016 -0.099 M 0.158 -0.23900000000000002 Q 0.374 -0.464 0.374 -0.631 Q 0.374 -0.683 0.34 -0.683 Q 0.31 -0.683 0.279 -0.626 L 0.278 -0.625 L 0.26 -0.589 Q 0.20400000000000001 -0.47400000000000003 0.159 -0.244 L 0.159 -0.243 Q 0.158 -0.24 0.158 -0.23900000000000002 Z"/></g></g><path fill="none" stroke="rgb(0,100,0)" paint-order="fill stroke markers" d=" M 33.499999999999886 150.5000000000005 L 333.49999999999994 150.5000000000005" stroke-opacity="0.6980392156862745" stroke-linecap="round" stroke-linejoin="round" stroke-miterlimit="10"/><g transform="scale(19,19)"><g transform="translate(9.842105263157896,1.9708191368421053)"><path fill="rgb(0,100,0)" stroke="none" paint-order="stroke fill markers" d=" M 0.016 -0.099 L 0.016 -0.099 L 0.093 -0.17200000000000001 Q 0.093 -0.338 0.17200000000000001 -0.517 Q 0.223 -0.634 0.28300000000000003 -0.682 Q 0.312 -0.705 0.339 -0.705 Q 0.398 -0.705 0.398 -0.627 Q 0.398 -0.47300000000000003 0.226 -0.277 Q 0.201 -0.248 0.17500000000000002 -0.222 Q 0.159 -0.20600000000000002 0.153 -0.197 Q 0.148 -0.189 0.148 -0.14 Q 0.148 -0.01 0.209 -0.01 Q 0.26 -0.01 0.339 -0.088 Q 0.34900000000000003 -0.097 0.352 -0.097 Q 0.362 -0.097 0.364 -0.085 Q 0.364 -0.073 0.31 -0.031 L 0.31 -0.031 Q 0.306 -0.028 0.303 -0.026000000000000002 Q 0.25 0.012 0.20700000000000002 0.012 Q 0.114 0.012 0.095 -0.14100000000000001 Q 0.075 -0.121 0.059000000000000004 -0.107 Q 0.028 -0.076 0.023 -0.076 Q 0.015 -0.076 0.011 -0.089 Q 0.011 -0.092 0.016 -0.099 M 0.158 -0.23900000000000002 Q 0.374 -0.464 0.374 -0.631 Q 0.374 -0.683 0.34 -0.683 Q 0.31 -0.683 0.279 -0.626 L 0.278 -0.625 L 0.26 -0.589 Q 0.20400000000000001 -0.47400000000000003 0.159 -0.244 L 0.159 -0.243 Q 0.158 -0.24 0.158 -0.23900000000000002 Z"/></g><g transform="translate(10.259105263157895,1.5470947368421053) scale(0.7,0.7)"><path fill="rgb(0,100,0)" stroke="none" paint-order="stroke fill markers" d=" M 0.255 -0.47900000000000004 L 0.076 -0.059000000000000004 Q 0.07 -0.045 0.063 -0.045 Q 0.045 -0.045 0.033 -0.056 Q 0.029 -0.059000000000000004 0.029 -0.063 Q 0.029 -0.065 0.032 -0.077 L 0.153 -0.513 Q 0.166 -0.554 0.197 -0.558 Q 0.202 -0.559 0.20600000000000002 -0.559 Q 0.24 -0.559 0.256 -0.53 Q 0.262 -0.519 0.262 -0.507 Q 0.262 -0.494 0.255 -0.47900000000000004 Z"/></g></g><path fill="none" stroke="rgb(0,100,0)" paint-order="fill stroke markers" d=" M 333.49999999999994 50.50000000000111 L 33.499999999999886 50.50000000000108" stroke-opacity="0.6980392156862745" stroke-linecap="round" stroke-linejoin="round" stroke-miterlimit="10"/><path fill="none" stroke="rgb(244,0,153)" paint-order="fill stroke markers" d=" M 111.67952504554802 70.67468608047103 L 108.7145843523989 79.17228142775066" stroke-opacity="0.6980392156862745" stroke-linecap="round" stroke-linejoin="round" stroke-miterlimit="10"/><path fill="none" stroke="rgb(244,0,153)" paint-order="fill stroke markers" d=" M 114.98414545837898 71.82771857225124 L 112.01920476522986 80.32531391953087" stroke-opacity="0.6980392156862745" stroke-linecap="round" stroke-linejoin="round" stroke-miterlimit="10"/><path fill="none" stroke="rgb(244,0,153)" paint-order="fill stroke markers" d=" M 40.19872981077799 50.50000000000111 L 183.4999999999999 100.5000000000008" stroke-opacity="0.6980392156862745" stroke-linecap="round" stroke-linejoin="round" stroke-miterlimit="10"/><path fill="none" stroke="rgb(244,0,153)" paint-order="fill stroke markers" d=" M 254.98079523477003 120.67468608047074 L 252.0158545416209 129.17228142775036" stroke-opacity="0.6980392156862745" stroke-linecap="round" stroke-linejoin="round" stroke-miterlimit="10"/><path fill="none" stroke="rgb(244,0,153)" paint-order="fill stroke markers" d=" M 258.285415647601 121.82771857225094 L 255.3204749544519 130.32531391953057" stroke-opacity="0.6980392156862745" stroke-linecap="round" stroke-linejoin="round" stroke-miterlimit="10"/><path fill="none" stroke="rgb(244,0,153)" paint-order="fill stroke markers" d=" M 183.4999999999999 100.5000000000008 L 326.801270189222 150.5000000000005" stroke-opacity="0.6980392156862745" stroke-linecap="round" stroke-linejoin="round" stroke-miterlimit="10"/><path fill="none" stroke="rgb(255,127,0)" paint-order="fill stroke markers" d=" M 158.12698545931684 72.12489429698742 L 152.17428472990488 78.87510570301448" stroke-opacity="0.6980392156862745" stroke-linecap="round" stroke-linejoin="round" stroke-miterlimit="10"/><path fill="none" stroke="rgb(255,127,0)" paint-order="fill stroke markers" d=" M 126.80127018922184 50.50000000000111 L 183.4999999999999 100.5000000000008" stroke-opacity="0.6980392156862745" stroke-linecap="round" stroke-linejoin="round" stroke-miterlimit="10"/><path fill="none" stroke="rgb(255,127,0)" paint-order="fill stroke markers" d=" M 214.82571527009495 122.12489429698711 L 208.873014540683 128.87510570301419" stroke-opacity="0.6980392156862745" stroke-linecap="round" stroke-linejoin="round" stroke-miterlimit="10"/><path fill="none" stroke="rgb(255,127,0)" paint-order="fill stroke markers" d=" M 183.4999999999999 100.5000000000008 L 240.19872981077805 150.5000000000005" stroke-opacity="0.6980392156862745" stroke-linecap="round" stroke-linejoin="round" stroke-miterlimit="10"/><path fill="none" stroke="rgb(0,0,0)" paint-order="fill stroke markers" d=" M 262.69868933475794 170.34167863995373 L 240.19872981077805 150.5000000000005" stroke-opacity="0.6980392156862745" stroke-linejoin="round" stroke-miterlimit="10" stroke-dasharray="5,4"/><path fill="none" stroke="rgb(0,0,0)" paint-order="fill stroke markers" d=" M 80.51583509905493 9.683005294267815 L 126.80127018922184 50.50000000000111" stroke-opacity="0.6980392156862745" stroke-linejoin="round" stroke-miterlimit="10" stroke-dasharray="5,4"/><path fill="rgb(0,0,255)" stroke="none" paint-order="stroke fill markers" d=" M 185.4999999999999 100.5000000000008 C 185.4999999999999 101.60456949966238 184.60456949966147 102.5000000000008 183.4999999999999 102.5000000000008 C 182.3954305003383 102.5000000000008 181.4999999999999 101.60456949966238 181.4999999999999 100.5000000000008 C 181.4999999999999 99.3954305003392 182.3954305003383 98.5000000000008 183.4999999999999 98.5000000000008 C 184.60456949966147 98.5000000000008 185.4999999999999 99.3954305003392 185.4999999999999 100.5000000000008 Z" fill-opacity="1"/><path fill="none" stroke="rgb(0,0,0)" paint-order="fill stroke markers" d=" M 185.4999999999999 100.5000000000008 C 185.4999999999999 101.60456949966238 184.60456949966147 102.5000000000008 183.4999999999999 102.5000000000008 C 182.3954305003383 102.5000000000008 181.4999999999999 101.60456949966238 181.4999999999999 100.5000000000008 C 181.4999999999999 99.3954305003392 182.3954305003383 98.5000000000008 183.4999999999999 98.5000000000008 C 184.60456949966147 98.5000000000008 185.4999999999999 99.3954305003392 185.4999999999999 100.5000000000008 Z" stroke-opacity="1" stroke-linecap="round" stroke-linejoin="round" stroke-miterlimit="10"/><text fill="rgb(0,0,255)" stroke="none" font-family="geogebra-sans-serif, sans-serif" font-size="16px" font-style="normal" font-weight="normal" text-decoration="normal" x="191" y="92" text-anchor="start" dominant-baseline="alphabetic" fill-opacity="1">A</text><text fill="none" stroke="rgb(255,255,255)" font-family="geogebra-sans-serif, sans-serif" font-size="16px" font-style="normal" font-weight="normal" text-decoration="normal" x="191" y="92" text-anchor="start" dominant-baseline="alphabetic" stroke-opacity="1" stroke-linejoin="bevel" stroke-miterlimit="10" stroke-width="3">A</text><text fill="rgb(0,0,255)" stroke="none" font-family="geogebra-sans-serif, sans-serif" font-size="16px" font-style="normal" font-weight="normal" text-decoration="normal" x="191" y="92" text-anchor="start" dominant-baseline="alphabetic" fill-opacity="1">A</text><path fill="rgb(0,0,255)" stroke="none" paint-order="stroke fill markers" d=" M 85.49999999999989 75.50000000000094 C 85.49999999999989 76.60456949966252 84.60456949966147 77.50000000000094 83.49999999999989 77.50000000000094 C 82.39543050033829 77.50000000000094 81.49999999999989 76.60456949966252 81.49999999999989 75.50000000000094 C 81.49999999999989 74.39543050033934 82.39543050033829 73.50000000000094 83.49999999999989 73.50000000000094 C 84.60456949966147 73.50000000000094 85.49999999999989 74.39543050033934 85.49999999999989 75.50000000000094 Z" fill-opacity="1"/><path fill="none" stroke="rgb(0,0,0)" paint-order="fill stroke markers" d=" M 85.49999999999989 75.50000000000094 C 85.49999999999989 76.60456949966252 84.60456949966147 77.50000000000094 83.49999999999989 77.50000000000094 C 82.39543050033829 77.50000000000094 81.49999999999989 76.60456949966252 81.49999999999989 75.50000000000094 C 81.49999999999989 74.39543050033934 82.39543050033829 73.50000000000094 83.49999999999989 73.50000000000094 C 84.60456949966147 73.50000000000094 85.49999999999989 74.39543050033934 85.49999999999989 75.50000000000094 Z" stroke-opacity="1" stroke-linecap="round" stroke-linejoin="round" stroke-miterlimit="10"/><text fill="rgb(0,0,255)" stroke="none" font-family="geogebra-sans-serif, sans-serif" font-size="16px" font-style="normal" font-weight="normal" text-decoration="normal" x="60" y="94" text-anchor="start" dominant-baseline="alphabetic" fill-opacity="1">O</text><text fill="none" stroke="rgb(255,255,255)" font-family="geogebra-sans-serif, sans-serif" font-size="16px" font-style="normal" font-weight="normal" text-decoration="normal" x="60" y="94" text-anchor="start" dominant-baseline="alphabetic" stroke-opacity="1" stroke-linejoin="bevel" stroke-miterlimit="10" stroke-width="3">O</text><text fill="rgb(0,0,255)" stroke="none" font-family="geogebra-sans-serif, sans-serif" font-size="16px" font-style="normal" font-weight="normal" text-decoration="normal" x="60" y="94" text-anchor="start" dominant-baseline="alphabetic" fill-opacity="1">O</text><path fill="rgb(0,0,255)" stroke="none" paint-order="stroke fill markers" d=" M 42.19872981077799 50.50000000000111 C 42.19872981077799 51.604569499662695 41.30329931043958 52.50000000000111 40.19872981077799 52.50000000000111 C 39.094160311116404 52.50000000000111 38.19872981077799 51.604569499662695 38.19872981077799 50.50000000000111 C 38.19872981077799 49.39543050033952 39.094160311116404 48.50000000000111 40.19872981077799 48.50000000000111 C 41.30329931043958 48.50000000000111 42.19872981077799 49.39543050033952 42.19872981077799 50.50000000000111 Z" fill-opacity="1"/><path fill="none" stroke="rgb(0,0,0)" paint-order="fill stroke markers" d=" M 42.19872981077799 50.50000000000111 C 42.19872981077799 51.604569499662695 41.30329931043958 52.50000000000111 40.19872981077799 52.50000000000111 C 39.094160311116404 52.50000000000111 38.19872981077799 51.604569499662695 38.19872981077799 50.50000000000111 C 38.19872981077799 49.39543050033952 39.094160311116404 48.50000000000111 40.19872981077799 48.50000000000111 C 41.30329931043958 48.50000000000111 42.19872981077799 49.39543050033952 42.19872981077799 50.50000000000111 Z" stroke-opacity="1" stroke-linecap="round" stroke-linejoin="round" stroke-miterlimit="10"/><text fill="rgb(0,0,255)" stroke="none" font-family="geogebra-sans-serif, sans-serif" font-size="16px" font-style="normal" font-weight="normal" text-decoration="normal" x="21" y="36" text-anchor="start" dominant-baseline="alphabetic" fill-opacity="1">Q'</text><text fill="none" stroke="rgb(255,255,255)" font-family="geogebra-sans-serif, sans-serif" font-size="16px" font-style="normal" font-weight="normal" text-decoration="normal" x="21" y="36" text-anchor="start" dominant-baseline="alphabetic" stroke-opacity="1" stroke-linejoin="bevel" stroke-miterlimit="10" stroke-width="3">Q'</text><text fill="rgb(0,0,255)" stroke="none" font-family="geogebra-sans-serif, sans-serif" font-size="16px" font-style="normal" font-weight="normal" text-decoration="normal" x="21" y="36" text-anchor="start" dominant-baseline="alphabetic" fill-opacity="1">Q'</text><path fill="rgb(0,0,255)" stroke="none" paint-order="stroke fill markers" d=" M 128.80127018922184 50.50000000000111 C 128.80127018922184 51.604569499662695 127.90583968888342 52.50000000000111 126.80127018922184 52.50000000000111 C 125.69670068956025 52.50000000000111 124.80127018922184 51.604569499662695 124.80127018922184 50.50000000000111 C 124.80127018922184 49.39543050033952 125.69670068956025 48.50000000000111 126.80127018922184 48.50000000000111 C 127.90583968888342 48.50000000000111 128.80127018922184 49.39543050033952 128.80127018922184 50.50000000000111 Z" fill-opacity="1"/><path fill="none" stroke="rgb(0,0,0)" paint-order="fill stroke markers" d=" M 128.80127018922184 50.50000000000111 C 128.80127018922184 51.604569499662695 127.90583968888342 52.50000000000111 126.80127018922184 52.50000000000111 C 125.69670068956025 52.50000000000111 124.80127018922184 51.604569499662695 124.80127018922184 50.50000000000111 C 124.80127018922184 49.39543050033952 125.69670068956025 48.50000000000111 126.80127018922184 48.50000000000111 C 127.90583968888342 48.50000000000111 128.80127018922184 49.39543050033952 128.80127018922184 50.50000000000111 Z" stroke-opacity="1" stroke-linecap="round" stroke-linejoin="round" stroke-miterlimit="10"/><text fill="rgb(0,0,255)" stroke="none" font-family="geogebra-sans-serif, sans-serif" font-size="16px" font-style="normal" font-weight="normal" text-decoration="normal" x="129" y="44" text-anchor="start" dominant-baseline="alphabetic" fill-opacity="1">Q</text><text fill="none" stroke="rgb(255,255,255)" font-family="geogebra-sans-serif, sans-serif" font-size="16px" font-style="normal" font-weight="normal" text-decoration="normal" x="129" y="44" text-anchor="start" dominant-baseline="alphabetic" stroke-opacity="1" stroke-linejoin="bevel" stroke-miterlimit="10" stroke-width="3">Q</text><text fill="rgb(0,0,255)" stroke="none" font-family="geogebra-sans-serif, sans-serif" font-size="16px" font-style="normal" font-weight="normal" text-decoration="normal" x="129" y="44" text-anchor="start" dominant-baseline="alphabetic" fill-opacity="1">Q</text><path fill="rgb(0,0,255)" stroke="none" paint-order="stroke fill markers" d=" M 328.801270189222 150.5000000000005 C 328.801270189222 151.6045694996621 327.9058396888836 152.5000000000005 326.801270189222 152.5000000000005 C 325.69670068956043 152.5000000000005 324.801270189222 151.6045694996621 324.801270189222 150.5000000000005 C 324.801270189222 149.39543050033893 325.69670068956043 148.5000000000005 326.801270189222 148.5000000000005 C 327.9058396888836 148.5000000000005 328.801270189222 149.39543050033893 328.801270189222 150.5000000000005 Z" fill-opacity="1"/><path fill="none" stroke="rgb(0,0,0)" paint-order="fill stroke markers" d=" M 328.801270189222 150.5000000000005 C 328.801270189222 151.6045694996621 327.9058396888836 152.5000000000005 326.801270189222 152.5000000000005 C 325.69670068956043 152.5000000000005 324.801270189222 151.6045694996621 324.801270189222 150.5000000000005 C 324.801270189222 149.39543050033893 325.69670068956043 148.5000000000005 326.801270189222 148.5000000000005 C 327.9058396888836 148.5000000000005 328.801270189222 149.39543050033893 328.801270189222 150.5000000000005 Z" stroke-opacity="1" stroke-linecap="round" stroke-linejoin="round" stroke-miterlimit="10"/><text fill="rgb(0,0,255)" stroke="none" font-family="geogebra-sans-serif, sans-serif" font-size="16px" font-style="normal" font-weight="normal" text-decoration="normal" x="319" y="170" text-anchor="start" dominant-baseline="alphabetic" fill-opacity="1">P'</text><text fill="none" stroke="rgb(255,255,255)" font-family="geogebra-sans-serif, sans-serif" font-size="16px" font-style="normal" font-weight="normal" text-decoration="normal" x="319" y="170" text-anchor="start" dominant-baseline="alphabetic" stroke-opacity="1" stroke-linejoin="bevel" stroke-miterlimit="10" stroke-width="3">P'</text><text fill="rgb(0,0,255)" stroke="none" font-family="geogebra-sans-serif, sans-serif" font-size="16px" font-style="normal" font-weight="normal" text-decoration="normal" x="319" y="170" text-anchor="start" dominant-baseline="alphabetic" fill-opacity="1">P'</text><path fill="rgb(0,0,255)" stroke="none" paint-order="stroke fill markers" d=" M 242.19872981077805 150.5000000000005 C 242.19872981077805 151.6045694996621 241.30329931043963 152.5000000000005 240.19872981077805 152.5000000000005 C 239.09416031111647 152.5000000000005 238.19872981077805 151.6045694996621 238.19872981077805 150.5000000000005 C 238.19872981077805 149.39543050033893 239.09416031111647 148.5000000000005 240.19872981077805 148.5000000000005 C 241.30329931043963 148.5000000000005 242.19872981077805 149.39543050033893 242.19872981077805 150.5000000000005 Z" fill-opacity="1"/><path fill="none" stroke="rgb(0,0,0)" paint-order="fill stroke markers" d=" M 242.19872981077805 150.5000000000005 C 242.19872981077805 151.6045694996621 241.30329931043963 152.5000000000005 240.19872981077805 152.5000000000005 C 239.09416031111647 152.5000000000005 238.19872981077805 151.6045694996621 238.19872981077805 150.5000000000005 C 238.19872981077805 149.39543050033893 239.09416031111647 148.5000000000005 240.19872981077805 148.5000000000005 C 241.30329931043963 148.5000000000005 242.19872981077805 149.39543050033893 242.19872981077805 150.5000000000005 Z" stroke-opacity="1" stroke-linecap="round" stroke-linejoin="round" stroke-miterlimit="10"/><text fill="rgb(0,0,255)" stroke="none" font-family="geogebra-sans-serif, sans-serif" font-size="16px" font-style="normal" font-weight="normal" text-decoration="normal" x="234" y="172" text-anchor="start" dominant-baseline="alphabetic" fill-opacity="1">P</text><text fill="none" stroke="rgb(255,255,255)" font-family="geogebra-sans-serif, sans-serif" font-size="16px" font-style="normal" font-weight="normal" text-decoration="normal" x="234" y="172" text-anchor="start" dominant-baseline="alphabetic" stroke-opacity="1" stroke-linejoin="bevel" stroke-miterlimit="10" stroke-width="3">P</text><text fill="rgb(0,0,255)" stroke="none" font-family="geogebra-sans-serif, sans-serif" font-size="16px" font-style="normal" font-weight="normal" text-decoration="normal" x="234" y="172" text-anchor="start" dominant-baseline="alphabetic" fill-opacity="1">P</text></g></g></svg>