<svg version="1.1" xmlns="http://www.w3.org/2000/svg" xmlns:xlink="http://www.w3.org/1999/xlink" width="319" height="323"><defs><clipPath id="rHDMrlIoqBhg"><path fill="none" stroke="none" d=" M 0 0 L 319 0 L 319 323 L 0 323 L 0 0 Z"/></clipPath></defs><g transform="scale(1,1)" clip-path="url(#rHDMrlIoqBhg)"><g><rect fill="rgb(255,255,255)" stroke="none" x="0" y="0" width="319" height="323" fill-opacity="1"/><path fill="none" stroke="rgb(0,153,255)" paint-order="fill stroke markers" d=" M 289.5000000000007 159.6111111111094 C 289.5000000000007 233.24907775521564 229.804633310773 292.9444444444436 156.16666666666708 292.9444444444436 C 82.52870002256117 292.9444444444436 22.833333333333485 233.24907775521564 22.833333333333485 159.6111111111094 C 22.833333333333485 85.97314446700315 82.52870002256117 26.277777777775214 156.16666666666708 26.277777777775214 C 229.804633310773 26.277777777775214 289.5000000000007 85.97314446700315 289.5000000000007 159.6111111111094 Z" stroke-opacity="0.6980392156862745" stroke-linecap="round" stroke-linejoin="round" stroke-miterlimit="10"/><g transform="scale(19,19)"><g transform="translate(2.0526315789473686,3.167842105263158)"><path fill="rgb(0,153,255)" stroke="none" paint-order="stroke fill markers" d=" M 0.264 -0.082 Q 0.201 0.011 0.11900000000000001 0.011 Q 0.032 0.011 0.016 -0.089 Q 0.013000000000000001 -0.109 0.013000000000000001 -0.131 Q 0.013000000000000001 -0.22 0.051000000000000004 -0.311 Q 0.082 -0.382 0.112 -0.419 Q 0.122 -0.431 0.127 -0.431 Q 0.139 -0.431 0.139 -0.419 Q 0.139 -0.41400000000000003 0.129 -0.4 Q 0.045 -0.28 0.045 -0.17500000000000002 Q 0.045 -0.08 0.109 -0.064 Q 0.12 -0.061 0.133 -0.061 Q 0.201 -0.061 0.257 -0.138 Q 0.264 -0.145 0.266 -0.165 Q 0.276 -0.23800000000000002 0.28700000000000003 -0.266 Q 0.3 -0.291 0.315 -0.291 Q 0.334 -0.291 0.336 -0.268 Q 0.336 -0.24 0.308 -0.168 Q 0.306 -0.161 0.303 -0.155 Q 0.297 -0.14400000000000002 0.297 -0.139 Q 0.297 -0.111 0.317 -0.084 Q 0.335 -0.061 0.372 -0.061 Q 0.449 -0.061 0.511 -0.14400000000000002 Q 0.562 -0.214 0.562 -0.28 Q 0.562 -0.331 0.527 -0.367 Q 0.512 -0.38 0.512 -0.394 Q 0.512 -0.419 0.539 -0.435 Q 0.55 -0.442 0.562 -0.442 Q 0.599 -0.442 0.604 -0.388 Q 0.605 -0.377 0.605 -0.371 Q 0.605 -0.307 0.5750000000000001 -0.213 Q 0.55 -0.136 0.511 -0.082 Q 0.443 0.011 0.358 0.011 Q 0.277 0.011 0.264 -0.082 Z"/></g><g transform="translate(2.6746315789473685,3.317842105263158) scale(0.7,0.7)"><path fill="rgb(0,153,255)" stroke="none" paint-order="stroke fill markers" d=" M 0.294 -0.64 L 0.294 -0.079 Q 0.294 -0.049 0.306 -0.041 Q 0.323 -0.031 0.387 -0.031 L 0.419 -0.031 L 0.419 0 Q 0.384 -0.003 0.257 -0.003 Q 0.13 -0.003 0.095 0 L 0.095 -0.031 L 0.127 -0.031 Q 0.20400000000000001 -0.031 0.215 -0.049 L 0.216 -0.05 Q 0.22 -0.058 0.22 -0.079 L 0.22 -0.597 Q 0.168 -0.5710000000000001 0.089 -0.5710000000000001 L 0.089 -0.602 Q 0.209 -0.602 0.271 -0.666 Q 0.29 -0.666 0.293 -0.659 L 0.293 -0.659 L 0.293 -0.658 Q 0.294 -0.655 0.294 -0.64 Z"/></g></g><path fill="rgb(255,0,255)" stroke="none" paint-order="stroke fill markers" d=" M 90.24117272942942 72.9535867285067 C 96.20570476108574 73.21383858516958 102.11224593289727 71.68854286533355 107.20498679632712 68.57287858889066 L 91.54892562758312 42.982103909710986 Z" fill-opacity="0.09803921568627451"/><path fill="none" stroke="rgb(255,0,255)" paint-order="fill stroke markers" d=" M 90.24117272942942 72.9535867285067 C 96.20570476108574 73.21383858516958 102.11224593289727 71.68854286533355 107.20498679632712 68.57287858889066 L 91.54892562758312 42.982103909710986 Z" stroke-opacity="0.6980392156862745" stroke-linecap="round" stroke-linejoin="round" stroke-miterlimit="10" stroke-width="1.5"/><path fill="rgb(255,0,255)" stroke="none" paint-order="stroke fill markers" d=" M 159.70874154011813 186.50748046386434 C 165.6743108973184 186.7684005471964 171.58202969829583 185.24312911937938 176.6756794616811 182.12690879125464 L 161.01961829293714 156.53613411207496 Z" fill-opacity="0.09803921568627451"/><path fill="none" stroke="rgb(255,0,255)" paint-order="fill stroke markers" d=" M 159.70874154011813 186.50748046386434 C 165.6743108973184 186.7684005471964 171.58202969829583 185.24312911937938 176.6756794616811 182.12690879125464 L 161.01961829293714 156.53613411207496 Z" stroke-opacity="0.6980392156862745" stroke-linecap="round" stroke-linejoin="round" stroke-miterlimit="10" stroke-width="1.5"/><path fill="none" stroke="rgb(0,100,0)" paint-order="fill stroke markers" d=" M 81.63604169592018 270.168624285239 L 230.58469738543585 270.24444461289966" stroke-opacity="0.6980392156862745" stroke-linecap="round" stroke-linejoin="round" stroke-miterlimit="10"/><path fill="none" stroke="rgb(102,102,102)" paint-order="fill stroke markers" d=" M 149.26057160257943 110.04861270702467 L 140.8817902291833 106.76288254512299" stroke-opacity="0.6980392156862745" stroke-linecap="round" stroke-linejoin="round" stroke-miterlimit="10"/><path fill="none" stroke="rgb(102,102,102)" paint-order="fill stroke markers" d=" M 147.98278765072877 113.3070276855676 L 139.60400627733264 110.02129752366592" stroke-opacity="0.6980392156862745" stroke-linecap="round" stroke-linejoin="round" stroke-miterlimit="10"/><path fill="none" stroke="rgb(102,102,102)" paint-order="fill stroke markers" d=" M 165.36437135463467 56.6570653920474 L 123.50020652527743 163.4128448386432" stroke-opacity="0.6980392156862745" stroke-linejoin="round" stroke-miterlimit="10" stroke-dasharray="9,8"/><path fill="none" stroke="rgb(102,102,102)" paint-order="fill stroke markers" d=" M 107.3964067732222 216.80439215362046 L 99.01762539982607 213.5186619917188" stroke-opacity="0.6980392156862745" stroke-linecap="round" stroke-linejoin="round" stroke-miterlimit="10"/><path fill="none" stroke="rgb(102,102,102)" paint-order="fill stroke markers" d=" M 106.11862282137153 220.06280713216339 L 97.73984144797541 216.77707697026173" stroke-opacity="0.6980392156862745" stroke-linecap="round" stroke-linejoin="round" stroke-miterlimit="10"/><path fill="none" stroke="rgb(102,102,102)" paint-order="fill stroke markers" d=" M 123.50020652527743 163.4128448386432 L 81.63604169592018 270.168624285239" stroke-opacity="0.6980392156862745" stroke-linejoin="round" stroke-miterlimit="10" stroke-dasharray="9,8"/><path fill="none" stroke="rgb(127,0,255)" paint-order="fill stroke markers" d=" M 91.54892562758312 42.982103909710986 L 81.63604169592018 270.168624285239" stroke-opacity="0.6980392156862745" stroke-linecap="round" stroke-linejoin="round" stroke-miterlimit="10"/><path fill="none" stroke="rgb(0,100,0)" paint-order="fill stroke markers" d=" M 91.54892562758312 42.982103909710986 L 230.58469738543585 270.24444461289966" stroke-opacity="0.6980392156862745" stroke-linecap="round" stroke-linejoin="round" stroke-miterlimit="10"/><path fill="none" stroke="rgb(255,85,0)" paint-order="fill stroke markers" d=" M 105.5584658519612 171.27624023819698 L 103.93593690487587 162.4237038888861" stroke-opacity="0.6980392156862745" stroke-linecap="round" stroke-linejoin="round" stroke-miterlimit="10"/><path fill="none" stroke="rgb(255,85,0)" paint-order="fill stroke markers" d=" M 123.50020652527743 163.4128448386432 L 85.99419623155964 170.28709928843992" stroke-opacity="0.6980392156862745" stroke-linecap="round" stroke-linejoin="round" stroke-miterlimit="10"/><path fill="none" stroke="rgb(255,85,0)" paint-order="fill stroke markers" d=" M 141.44864793556465 155.54822130070363 L 143.07117688264995 164.4007576500145" stroke-opacity="0.6980392156862745" stroke-linecap="round" stroke-linejoin="round" stroke-miterlimit="10"/><path fill="none" stroke="rgb(255,85,0)" paint-order="fill stroke markers" d=" M 123.50020652527743 163.4128448386432 L 161.01961829293714 156.53613411207496" stroke-opacity="0.6980392156862745" stroke-linecap="round" stroke-linejoin="round" stroke-miterlimit="10"/><path fill="none" stroke="rgb(0,100,0)" paint-order="fill stroke markers" d=" M 24.647476822380984 181.53097608515722 L 85.99419623155964 170.28709928843992" stroke-opacity="0.6980392156862745" stroke-linecap="round" stroke-linejoin="round" stroke-miterlimit="10"/><path fill="none" stroke="rgb(0,100,0)" paint-order="fill stroke markers" d=" M 161.01961829293714 156.53613411207496 L 286.91075675879006 133.4622930926847" stroke-opacity="0.6980392156862745" stroke-linecap="round" stroke-linejoin="round" stroke-miterlimit="10"/><path fill="none" stroke="rgb(102,102,102)" paint-order="fill stroke markers" d=" M 91.54892562758312 42.982103909710986 L 155.45148742297172 283.84358576757546" stroke-opacity="0.6980392156862745" stroke-linejoin="round" stroke-miterlimit="10" stroke-dasharray="9,8"/><path fill="none" stroke="rgb(127,0,255)" paint-order="fill stroke markers" d=" M 155.45148742297172 283.84358576757546 L 165.36437135463467 56.6570653920474" stroke-opacity="0.6980392156862745" stroke-linecap="round" stroke-linejoin="round" stroke-miterlimit="10"/><path fill="rgb(0,0,255)" stroke="none" paint-order="stroke fill markers" d=" M 83.63604169592018 270.168624285239 C 83.63604169592018 271.27319378490057 82.74061119558178 272.168624285239 81.63604169592018 272.168624285239 C 80.53147219625859 272.168624285239 79.63604169592018 271.27319378490057 79.63604169592018 270.168624285239 C 79.63604169592018 269.0640547855774 80.53147219625859 268.168624285239 81.63604169592018 268.168624285239 C 82.74061119558178 268.168624285239 83.63604169592018 269.0640547855774 83.63604169592018 270.168624285239 Z" fill-opacity="1"/><path fill="none" stroke="rgb(0,0,0)" paint-order="fill stroke markers" d=" M 83.63604169592018 270.168624285239 C 83.63604169592018 271.27319378490057 82.74061119558178 272.168624285239 81.63604169592018 272.168624285239 C 80.53147219625859 272.168624285239 79.63604169592018 271.27319378490057 79.63604169592018 270.168624285239 C 79.63604169592018 269.0640547855774 80.53147219625859 268.168624285239 81.63604169592018 268.168624285239 C 82.74061119558178 268.168624285239 83.63604169592018 269.0640547855774 83.63604169592018 270.168624285239 Z" stroke-opacity="1" stroke-linecap="round" stroke-linejoin="round" stroke-miterlimit="10"/><text fill="rgb(0,0,255)" stroke="none" font-family="geogebra-sans-serif, sans-serif" font-size="16px" font-style="normal" font-weight="normal" text-decoration="normal" x="68" y="293" text-anchor="start" dominant-baseline="alphabetic" fill-opacity="1">A</text><text fill="none" stroke="rgb(255,255,255)" font-family="geogebra-sans-serif, sans-serif" font-size="16px" font-style="normal" font-weight="normal" text-decoration="normal" x="68" y="293" text-anchor="start" dominant-baseline="alphabetic" stroke-opacity="1" stroke-linejoin="bevel" stroke-miterlimit="10" stroke-width="3">A</text><text fill="rgb(0,0,255)" stroke="none" font-family="geogebra-sans-serif, sans-serif" font-size="16px" font-style="normal" font-weight="normal" text-decoration="normal" x="68" y="293" text-anchor="start" dominant-baseline="alphabetic" fill-opacity="1">A</text><path fill="rgb(0,0,255)" stroke="none" paint-order="stroke fill markers" d=" M 232.58469738543585 270.24444461289966 C 232.58469738543585 271.34901411256124 231.68926688509742 272.24444461289966 230.58469738543585 272.24444461289966 C 229.48012788577427 272.24444461289966 228.58469738543585 271.34901411256124 228.58469738543585 270.24444461289966 C 228.58469738543585 269.1398751132381 229.48012788577427 268.24444461289966 230.58469738543585 268.24444461289966 C 231.68926688509742 268.24444461289966 232.58469738543585 269.1398751132381 232.58469738543585 270.24444461289966 Z" fill-opacity="1"/><path fill="none" stroke="rgb(0,0,0)" paint-order="fill stroke markers" d=" M 232.58469738543585 270.24444461289966 C 232.58469738543585 271.34901411256124 231.68926688509742 272.24444461289966 230.58469738543585 272.24444461289966 C 229.48012788577427 272.24444461289966 228.58469738543585 271.34901411256124 228.58469738543585 270.24444461289966 C 228.58469738543585 269.1398751132381 229.48012788577427 268.24444461289966 230.58469738543585 268.24444461289966 C 231.68926688509742 268.24444461289966 232.58469738543585 269.1398751132381 232.58469738543585 270.24444461289966 Z" stroke-opacity="1" stroke-linecap="round" stroke-linejoin="round" stroke-miterlimit="10"/><text fill="rgb(0,0,255)" stroke="none" font-family="geogebra-sans-serif, sans-serif" font-size="16px" font-style="normal" font-weight="normal" text-decoration="normal" x="236" y="289" text-anchor="start" dominant-baseline="alphabetic" fill-opacity="1">B</text><text fill="none" stroke="rgb(255,255,255)" font-family="geogebra-sans-serif, sans-serif" font-size="16px" font-style="normal" font-weight="normal" text-decoration="normal" x="236" y="289" text-anchor="start" dominant-baseline="alphabetic" stroke-opacity="1" stroke-linejoin="bevel" stroke-miterlimit="10" stroke-width="3">B</text><text fill="rgb(0,0,255)" stroke="none" font-family="geogebra-sans-serif, sans-serif" font-size="16px" font-style="normal" font-weight="normal" text-decoration="normal" x="236" y="289" text-anchor="start" dominant-baseline="alphabetic" fill-opacity="1">B</text><path fill="rgb(0,0,255)" stroke="none" paint-order="stroke fill markers" d=" M 26.647476822380984 181.53097608515722 C 26.647476822380984 182.6355455848188 25.75204632204257 183.53097608515722 24.647476822380984 183.53097608515722 C 23.542907322719397 183.53097608515722 22.647476822380984 182.6355455848188 22.647476822380984 181.53097608515722 C 22.647476822380984 180.42640658549564 23.542907322719397 179.53097608515722 24.647476822380984 179.53097608515722 C 25.75204632204257 179.53097608515722 26.647476822380984 180.42640658549564 26.647476822380984 181.53097608515722 Z" fill-opacity="1"/><path fill="none" stroke="rgb(0,0,0)" paint-order="fill stroke markers" d=" M 26.647476822380984 181.53097608515722 C 26.647476822380984 182.6355455848188 25.75204632204257 183.53097608515722 24.647476822380984 183.53097608515722 C 23.542907322719397 183.53097608515722 22.647476822380984 182.6355455848188 22.647476822380984 181.53097608515722 C 22.647476822380984 180.42640658549564 23.542907322719397 179.53097608515722 24.647476822380984 179.53097608515722 C 25.75204632204257 179.53097608515722 26.647476822380984 180.42640658549564 26.647476822380984 181.53097608515722 Z" stroke-opacity="1" stroke-linecap="round" stroke-linejoin="round" stroke-miterlimit="10"/><text fill="rgb(0,0,255)" stroke="none" font-family="geogebra-sans-serif, sans-serif" font-size="16px" font-style="normal" font-weight="normal" text-decoration="normal" x="8" y="190" text-anchor="start" dominant-baseline="alphabetic" fill-opacity="1">C</text><text fill="none" stroke="rgb(255,255,255)" font-family="geogebra-sans-serif, sans-serif" font-size="16px" font-style="normal" font-weight="normal" text-decoration="normal" x="8" y="190" text-anchor="start" dominant-baseline="alphabetic" stroke-opacity="1" stroke-linejoin="bevel" stroke-miterlimit="10" stroke-width="3">C</text><text fill="rgb(0,0,255)" stroke="none" font-family="geogebra-sans-serif, sans-serif" font-size="16px" font-style="normal" font-weight="normal" text-decoration="normal" x="8" y="190" text-anchor="start" dominant-baseline="alphabetic" fill-opacity="1">C</text><path fill="rgb(0,0,255)" stroke="none" paint-order="stroke fill markers" d=" M 288.91075675879006 133.4622930926847 C 288.91075675879006 134.56686259234627 288.01532625845164 135.4622930926847 286.91075675879006 135.4622930926847 C 285.8061872591285 135.4622930926847 284.91075675879006 134.56686259234627 284.91075675879006 133.4622930926847 C 284.91075675879006 132.3577235930231 285.8061872591285 131.4622930926847 286.91075675879006 131.4622930926847 C 288.01532625845164 131.4622930926847 288.91075675879006 132.3577235930231 288.91075675879006 133.4622930926847 Z" fill-opacity="1"/><path fill="none" stroke="rgb(0,0,0)" paint-order="fill stroke markers" d=" M 288.91075675879006 133.4622930926847 C 288.91075675879006 134.56686259234627 288.01532625845164 135.4622930926847 286.91075675879006 135.4622930926847 C 285.8061872591285 135.4622930926847 284.91075675879006 134.56686259234627 284.91075675879006 133.4622930926847 C 284.91075675879006 132.3577235930231 285.8061872591285 131.4622930926847 286.91075675879006 131.4622930926847 C 288.01532625845164 131.4622930926847 288.91075675879006 132.3577235930231 288.91075675879006 133.4622930926847 Z" stroke-opacity="1" stroke-linecap="round" stroke-linejoin="round" stroke-miterlimit="10"/><text fill="rgb(0,0,255)" stroke="none" font-family="geogebra-sans-serif, sans-serif" font-size="16px" font-style="normal" font-weight="normal" text-decoration="normal" x="294" y="135" text-anchor="start" dominant-baseline="alphabetic" fill-opacity="1">D</text><text fill="none" stroke="rgb(255,255,255)" font-family="geogebra-sans-serif, sans-serif" font-size="16px" font-style="normal" font-weight="normal" text-decoration="normal" x="294" y="135" text-anchor="start" dominant-baseline="alphabetic" stroke-opacity="1" stroke-linejoin="bevel" stroke-miterlimit="10" stroke-width="3">D</text><text fill="rgb(0,0,255)" stroke="none" font-family="geogebra-sans-serif, sans-serif" font-size="16px" font-style="normal" font-weight="normal" text-decoration="normal" x="294" y="135" text-anchor="start" dominant-baseline="alphabetic" fill-opacity="1">D</text><path fill="rgb(0,0,255)" stroke="none" paint-order="stroke fill markers" d=" M 125.50020652527743 163.4128448386432 C 125.50020652527743 164.51741433830477 124.60477602493901 165.4128448386432 123.50020652527743 165.4128448386432 C 122.39563702561584 165.4128448386432 121.50020652527743 164.51741433830477 121.50020652527743 163.4128448386432 C 121.50020652527743 162.30827533898162 122.39563702561584 161.4128448386432 123.50020652527743 161.4128448386432 C 124.60477602493901 161.4128448386432 125.50020652527743 162.30827533898162 125.50020652527743 163.4128448386432 Z" fill-opacity="1"/><path fill="none" stroke="rgb(0,0,0)" paint-order="fill stroke markers" d=" M 125.50020652527743 163.4128448386432 C 125.50020652527743 164.51741433830477 124.60477602493901 165.4128448386432 123.50020652527743 165.4128448386432 C 122.39563702561584 165.4128448386432 121.50020652527743 164.51741433830477 121.50020652527743 163.4128448386432 C 121.50020652527743 162.30827533898162 122.39563702561584 161.4128448386432 123.50020652527743 161.4128448386432 C 124.60477602493901 161.4128448386432 125.50020652527743 162.30827533898162 125.50020652527743 163.4128448386432 Z" stroke-opacity="1" stroke-linecap="round" stroke-linejoin="round" stroke-miterlimit="10"/><text fill="rgb(0,0,255)" stroke="none" font-family="geogebra-sans-serif, sans-serif" font-size="16px" font-style="normal" font-weight="normal" text-decoration="normal" x="132" y="180" text-anchor="start" dominant-baseline="alphabetic" fill-opacity="1">J</text><text fill="none" stroke="rgb(255,255,255)" font-family="geogebra-sans-serif, sans-serif" font-size="16px" font-style="normal" font-weight="normal" text-decoration="normal" x="132" y="180" text-anchor="start" dominant-baseline="alphabetic" stroke-opacity="1" stroke-linejoin="bevel" stroke-miterlimit="10" stroke-width="3">J</text><text fill="rgb(0,0,255)" stroke="none" font-family="geogebra-sans-serif, sans-serif" font-size="16px" font-style="normal" font-weight="normal" text-decoration="normal" x="132" y="180" text-anchor="start" dominant-baseline="alphabetic" fill-opacity="1">J</text><path fill="rgb(0,0,255)" stroke="none" paint-order="stroke fill markers" d=" M 167.36437135463467 56.6570653920474 C 167.36437135463467 57.76163489170899 166.46894085429625 58.6570653920474 165.36437135463467 58.6570653920474 C 164.2598018549731 58.6570653920474 163.36437135463467 57.76163489170899 163.36437135463467 56.6570653920474 C 163.36437135463467 55.552495892385814 164.2598018549731 54.6570653920474 165.36437135463467 54.6570653920474 C 166.46894085429625 54.6570653920474 167.36437135463467 55.552495892385814 167.36437135463467 56.6570653920474 Z" fill-opacity="1"/><path fill="none" stroke="rgb(0,0,0)" paint-order="fill stroke markers" d=" M 167.36437135463467 56.6570653920474 C 167.36437135463467 57.76163489170899 166.46894085429625 58.6570653920474 165.36437135463467 58.6570653920474 C 164.2598018549731 58.6570653920474 163.36437135463467 57.76163489170899 163.36437135463467 56.6570653920474 C 163.36437135463467 55.552495892385814 164.2598018549731 54.6570653920474 165.36437135463467 54.6570653920474 C 166.46894085429625 54.6570653920474 167.36437135463467 55.552495892385814 167.36437135463467 56.6570653920474 Z" stroke-opacity="1" stroke-linecap="round" stroke-linejoin="round" stroke-miterlimit="10"/><text fill="rgb(0,0,255)" stroke="none" font-family="geogebra-sans-serif, sans-serif" font-size="16px" font-style="normal" font-weight="normal" text-decoration="normal" x="176" y="55" text-anchor="start" dominant-baseline="alphabetic" fill-opacity="1">A'</text><text fill="none" stroke="rgb(255,255,255)" font-family="geogebra-sans-serif, sans-serif" font-size="16px" font-style="normal" font-weight="normal" text-decoration="normal" x="176" y="55" text-anchor="start" dominant-baseline="alphabetic" stroke-opacity="1" stroke-linejoin="bevel" stroke-miterlimit="10" stroke-width="3">A'</text><text fill="rgb(0,0,255)" stroke="none" font-family="geogebra-sans-serif, sans-serif" font-size="16px" font-style="normal" font-weight="normal" text-decoration="normal" x="176" y="55" text-anchor="start" dominant-baseline="alphabetic" fill-opacity="1">A'</text><path fill="rgb(0,0,255)" stroke="none" paint-order="stroke fill markers" d=" M 163.01961829293714 156.53613411207496 C 163.01961829293714 157.64070361173654 162.12418779259872 158.53613411207496 161.01961829293714 158.53613411207496 C 159.91504879327556 158.53613411207496 159.01961829293714 157.64070361173654 159.01961829293714 156.53613411207496 C 159.01961829293714 155.43156461241338 159.91504879327556 154.53613411207496 161.01961829293714 154.53613411207496 C 162.12418779259872 154.53613411207496 163.01961829293714 155.43156461241338 163.01961829293714 156.53613411207496 Z" fill-opacity="1"/><path fill="none" stroke="rgb(0,0,0)" paint-order="fill stroke markers" d=" M 163.01961829293714 156.53613411207496 C 163.01961829293714 157.64070361173654 162.12418779259872 158.53613411207496 161.01961829293714 158.53613411207496 C 159.91504879327556 158.53613411207496 159.01961829293714 157.64070361173654 159.01961829293714 156.53613411207496 C 159.01961829293714 155.43156461241338 159.91504879327556 154.53613411207496 161.01961829293714 154.53613411207496 C 162.12418779259872 154.53613411207496 163.01961829293714 155.43156461241338 163.01961829293714 156.53613411207496 Z" stroke-opacity="1" stroke-linecap="round" stroke-linejoin="round" stroke-miterlimit="10"/><text fill="rgb(0,0,255)" stroke="none" font-family="geogebra-sans-serif, sans-serif" font-size="16px" font-style="normal" font-weight="normal" text-decoration="normal" x="167" y="146" text-anchor="start" dominant-baseline="alphabetic" fill-opacity="1">F</text><text fill="none" stroke="rgb(255,255,255)" font-family="geogebra-sans-serif, sans-serif" font-size="16px" font-style="normal" font-weight="normal" text-decoration="normal" x="167" y="146" text-anchor="start" dominant-baseline="alphabetic" stroke-opacity="1" stroke-linejoin="bevel" stroke-miterlimit="10" stroke-width="3">F</text><text fill="rgb(0,0,255)" stroke="none" font-family="geogebra-sans-serif, sans-serif" font-size="16px" font-style="normal" font-weight="normal" text-decoration="normal" x="167" y="146" text-anchor="start" dominant-baseline="alphabetic" fill-opacity="1">F</text><path fill="rgb(0,0,255)" stroke="none" paint-order="stroke fill markers" d=" M 93.54892562758312 42.982103909710986 C 93.54892562758312 44.08667340937257 92.6534951272447 44.982103909710986 91.54892562758312 44.982103909710986 C 90.44435612792152 44.982103909710986 89.54892562758312 44.08667340937257 89.54892562758312 42.982103909710986 C 89.54892562758312 41.8775344100494 90.44435612792152 40.982103909710986 91.54892562758312 40.982103909710986 C 92.6534951272447 40.982103909710986 93.54892562758312 41.8775344100494 93.54892562758312 42.982103909710986 Z" fill-opacity="1"/><path fill="none" stroke="rgb(0,0,0)" paint-order="fill stroke markers" d=" M 93.54892562758312 42.982103909710986 C 93.54892562758312 44.08667340937257 92.6534951272447 44.982103909710986 91.54892562758312 44.982103909710986 C 90.44435612792152 44.982103909710986 89.54892562758312 44.08667340937257 89.54892562758312 42.982103909710986 C 89.54892562758312 41.8775344100494 90.44435612792152 40.982103909710986 91.54892562758312 40.982103909710986 C 92.6534951272447 40.982103909710986 93.54892562758312 41.8775344100494 93.54892562758312 42.982103909710986 Z" stroke-opacity="1" stroke-linecap="round" stroke-linejoin="round" stroke-miterlimit="10"/><text fill="rgb(0,0,255)" stroke="none" font-family="geogebra-sans-serif, sans-serif" font-size="16px" font-style="normal" font-weight="normal" text-decoration="normal" x="77" y="32" text-anchor="start" dominant-baseline="alphabetic" fill-opacity="1">X</text><text fill="none" stroke="rgb(255,255,255)" font-family="geogebra-sans-serif, sans-serif" font-size="16px" font-style="normal" font-weight="normal" text-decoration="normal" x="77" y="32" text-anchor="start" dominant-baseline="alphabetic" stroke-opacity="1" stroke-linejoin="bevel" stroke-miterlimit="10" stroke-width="3">X</text><text fill="rgb(0,0,255)" stroke="none" font-family="geogebra-sans-serif, sans-serif" font-size="16px" font-style="normal" font-weight="normal" text-decoration="normal" x="77" y="32" text-anchor="start" dominant-baseline="alphabetic" fill-opacity="1">X</text><path fill="rgb(0,0,255)" stroke="none" paint-order="stroke fill markers" d=" M 87.99419623155964 170.28709928843992 C 87.99419623155964 171.3916687881015 87.09876573122122 172.28709928843992 85.99419623155964 172.28709928843992 C 84.88962673189805 172.28709928843992 83.99419623155964 171.3916687881015 83.99419623155964 170.28709928843992 C 83.99419623155964 169.18252978877834 84.88962673189805 168.28709928843992 85.99419623155964 168.28709928843992 C 87.09876573122122 168.28709928843992 87.99419623155964 169.18252978877834 87.99419623155964 170.28709928843992 Z" fill-opacity="1"/><path fill="none" stroke="rgb(0,0,0)" paint-order="fill stroke markers" d=" M 87.99419623155964 170.28709928843992 C 87.99419623155964 171.3916687881015 87.09876573122122 172.28709928843992 85.99419623155964 172.28709928843992 C 84.88962673189805 172.28709928843992 83.99419623155964 171.3916687881015 83.99419623155964 170.28709928843992 C 83.99419623155964 169.18252978877834 84.88962673189805 168.28709928843992 85.99419623155964 168.28709928843992 C 87.09876573122122 168.28709928843992 87.99419623155964 169.18252978877834 87.99419623155964 170.28709928843992 Z" stroke-opacity="1" stroke-linecap="round" stroke-linejoin="round" stroke-miterlimit="10"/><text fill="rgb(0,0,255)" stroke="none" font-family="geogebra-sans-serif, sans-serif" font-size="16px" font-style="normal" font-weight="normal" text-decoration="normal" x="69" y="164" text-anchor="start" dominant-baseline="alphabetic" fill-opacity="1">G</text><text fill="none" stroke="rgb(255,255,255)" font-family="geogebra-sans-serif, sans-serif" font-size="16px" font-style="normal" font-weight="normal" text-decoration="normal" x="69" y="164" text-anchor="start" dominant-baseline="alphabetic" stroke-opacity="1" stroke-linejoin="bevel" stroke-miterlimit="10" stroke-width="3">G</text><text fill="rgb(0,0,255)" stroke="none" font-family="geogebra-sans-serif, sans-serif" font-size="16px" font-style="normal" font-weight="normal" text-decoration="normal" x="69" y="164" text-anchor="start" dominant-baseline="alphabetic" fill-opacity="1">G</text><path fill="rgb(0,0,255)" stroke="none" paint-order="stroke fill markers" d=" M 157.45148742297172 283.84358576757546 C 157.45148742297172 284.94815526723704 156.5560569226333 285.84358576757546 155.45148742297172 285.84358576757546 C 154.34691792331014 285.84358576757546 153.45148742297172 284.94815526723704 153.45148742297172 283.84358576757546 C 153.45148742297172 282.7390162679139 154.34691792331014 281.84358576757546 155.45148742297172 281.84358576757546 C 156.5560569226333 281.84358576757546 157.45148742297172 282.7390162679139 157.45148742297172 283.84358576757546 Z" fill-opacity="1"/><path fill="none" stroke="rgb(0,0,0)" paint-order="fill stroke markers" d=" M 157.45148742297172 283.84358576757546 C 157.45148742297172 284.94815526723704 156.5560569226333 285.84358576757546 155.45148742297172 285.84358576757546 C 154.34691792331014 285.84358576757546 153.45148742297172 284.94815526723704 153.45148742297172 283.84358576757546 C 153.45148742297172 282.7390162679139 154.34691792331014 281.84358576757546 155.45148742297172 281.84358576757546 C 156.5560569226333 281.84358576757546 157.45148742297172 282.7390162679139 157.45148742297172 283.84358576757546 Z" stroke-opacity="1" stroke-linecap="round" stroke-linejoin="round" stroke-miterlimit="10"/><text fill="rgb(0,0,255)" stroke="none" font-family="geogebra-sans-serif, sans-serif" font-size="16px" font-style="normal" font-weight="normal" text-decoration="normal" x="148" y="313" text-anchor="start" dominant-baseline="alphabetic" fill-opacity="1">X'</text><text fill="none" stroke="rgb(255,255,255)" font-family="geogebra-sans-serif, sans-serif" font-size="16px" font-style="normal" font-weight="normal" text-decoration="normal" x="148" y="313" text-anchor="start" dominant-baseline="alphabetic" stroke-opacity="1" stroke-linejoin="bevel" stroke-miterlimit="10" stroke-width="3">X'</text><text fill="rgb(0,0,255)" stroke="none" font-family="geogebra-sans-serif, sans-serif" font-size="16px" font-style="normal" font-weight="normal" text-decoration="normal" x="148" y="313" text-anchor="start" dominant-baseline="alphabetic" fill-opacity="1">X'</text></g></g></svg>