<svg version="1.1" xmlns="http://www.w3.org/2000/svg" xmlns:xlink="http://www.w3.org/1999/xlink" width="396" height="341"><defs><clipPath id="MdJqdfQfVbis"><path fill="none" stroke="none" d=" M 0 0 L 396 0 L 396 341 L 0 341 L 0 0 Z"/></clipPath></defs><g transform="scale(1,1)" clip-path="url(#MdJqdfQfVbis)"><g><rect fill="rgb(255,255,255)" stroke="none" x="0" y="0" width="396" height="341" fill-opacity="1"/><path fill="none" stroke="rgb(0,153,255)" paint-order="fill stroke markers" d=" M 279.9999999999998 194.83333333333297 C 279.9999999999998 268.47129997743923 220.30463331077226 328.16666666666714 146.66666666666657 328.16666666666714 C 73.02870002256088 328.16666666666714 13.3333333333334 268.47129997743923 13.3333333333334 194.83333333333297 C 13.3333333333334 121.19536668922673 73.02870002256088 61.499999999998806 146.66666666666657 61.499999999998806 C 220.30463331077226 61.499999999998806 279.9999999999998 121.19536668922673 279.9999999999998 194.83333333333297 Z" stroke-opacity="0.6980392156862745" stroke-linecap="round" stroke-linejoin="round" stroke-miterlimit="10"/><g transform="scale(19,19)"><g transform="translate(6.157894736842105,2.641526315789474)"><path fill="rgb(0,153,255)" stroke="none" paint-order="stroke fill markers" d=" M 0.264 -0.082 Q 0.201 0.011 0.11900000000000001 0.011 Q 0.032 0.011 0.016 -0.089 Q 0.013000000000000001 -0.109 0.013000000000000001 -0.131 Q 0.013000000000000001 -0.22 0.051000000000000004 -0.311 Q 0.082 -0.382 0.112 -0.419 Q 0.122 -0.431 0.127 -0.431 Q 0.139 -0.431 0.139 -0.419 Q 0.139 -0.41400000000000003 0.129 -0.4 Q 0.045 -0.28 0.045 -0.17500000000000002 Q 0.045 -0.08 0.109 -0.064 Q 0.12 -0.061 0.133 -0.061 Q 0.201 -0.061 0.257 -0.138 Q 0.264 -0.145 0.266 -0.165 Q 0.276 -0.23800000000000002 0.28700000000000003 -0.266 Q 0.3 -0.291 0.315 -0.291 Q 0.334 -0.291 0.336 -0.268 Q 0.336 -0.24 0.308 -0.168 Q 0.306 -0.161 0.303 -0.155 Q 0.297 -0.14400000000000002 0.297 -0.139 Q 0.297 -0.111 0.317 -0.084 Q 0.335 -0.061 0.372 -0.061 Q 0.449 -0.061 0.511 -0.14400000000000002 Q 0.562 -0.214 0.562 -0.28 Q 0.562 -0.331 0.527 -0.367 Q 0.512 -0.38 0.512 -0.394 Q 0.512 -0.419 0.539 -0.435 Q 0.55 -0.442 0.562 -0.442 Q 0.599 -0.442 0.604 -0.388 Q 0.605 -0.377 0.605 -0.371 Q 0.605 -0.307 0.5750000000000001 -0.213 Q 0.55 -0.136 0.511 -0.082 Q 0.443 0.011 0.358 0.011 Q 0.277 0.011 0.264 -0.082 Z"/></g><g transform="translate(6.779894736842105,2.791526315789474) scale(0.7,0.7)"><path fill="rgb(0,153,255)" stroke="none" paint-order="stroke fill markers" d=" M 0.294 -0.64 L 0.294 -0.079 Q 0.294 -0.049 0.306 -0.041 Q 0.323 -0.031 0.387 -0.031 L 0.419 -0.031 L 0.419 0 Q 0.384 -0.003 0.257 -0.003 Q 0.13 -0.003 0.095 0 L 0.095 -0.031 L 0.127 -0.031 Q 0.20400000000000001 -0.031 0.215 -0.049 L 0.216 -0.05 Q 0.22 -0.058 0.22 -0.079 L 0.22 -0.597 Q 0.168 -0.5710000000000001 0.089 -0.5710000000000001 L 0.089 -0.602 Q 0.209 -0.602 0.271 -0.666 Q 0.29 -0.666 0.293 -0.659 L 0.293 -0.659 L 0.293 -0.658 Q 0.294 -0.655 0.294 -0.64 Z"/></g></g><path fill="none" stroke="rgb(0,153,255)" paint-order="fill stroke markers" d=" M 368.8888888888886 194.83333333333297 C 368.8888888888886 231.65231665538607 339.0412055442748 261.50000000000006 302.22222222222194 261.50000000000006 C 265.40323890016913 261.50000000000006 235.55555555555537 231.65231665538607 235.55555555555537 194.83333333333297 C 235.55555555555537 158.01435001127984 265.40323890016913 128.1666666666659 302.22222222222194 128.1666666666659 C 339.0412055442748 128.1666666666659 368.8888888888886 158.01435001127984 368.8888888888886 194.83333333333297 Z" stroke-opacity="0.6980392156862745" stroke-linecap="round" stroke-linejoin="round" stroke-miterlimit="10"/><g transform="scale(19,19)"><g transform="translate(17.63157894736842,6.6415263157894735)"><path fill="rgb(0,153,255)" stroke="none" paint-order="stroke fill markers" d=" M 0.264 -0.082 Q 0.201 0.011 0.11900000000000001 0.011 Q 0.032 0.011 0.016 -0.089 Q 0.013000000000000001 -0.109 0.013000000000000001 -0.131 Q 0.013000000000000001 -0.22 0.051000000000000004 -0.311 Q 0.082 -0.382 0.112 -0.419 Q 0.122 -0.431 0.127 -0.431 Q 0.139 -0.431 0.139 -0.419 Q 0.139 -0.41400000000000003 0.129 -0.4 Q 0.045 -0.28 0.045 -0.17500000000000002 Q 0.045 -0.08 0.109 -0.064 Q 0.12 -0.061 0.133 -0.061 Q 0.201 -0.061 0.257 -0.138 Q 0.264 -0.145 0.266 -0.165 Q 0.276 -0.23800000000000002 0.28700000000000003 -0.266 Q 0.3 -0.291 0.315 -0.291 Q 0.334 -0.291 0.336 -0.268 Q 0.336 -0.24 0.308 -0.168 Q 0.306 -0.161 0.303 -0.155 Q 0.297 -0.14400000000000002 0.297 -0.139 Q 0.297 -0.111 0.317 -0.084 Q 0.335 -0.061 0.372 -0.061 Q 0.449 -0.061 0.511 -0.14400000000000002 Q 0.562 -0.214 0.562 -0.28 Q 0.562 -0.331 0.527 -0.367 Q 0.512 -0.38 0.512 -0.394 Q 0.512 -0.419 0.539 -0.435 Q 0.55 -0.442 0.562 -0.442 Q 0.599 -0.442 0.604 -0.388 Q 0.605 -0.377 0.605 -0.371 Q 0.605 -0.307 0.5750000000000001 -0.213 Q 0.55 -0.136 0.511 -0.082 Q 0.443 0.011 0.358 0.011 Q 0.277 0.011 0.264 -0.082 Z"/></g><g transform="translate(18.25357894736842,6.791526315789474) scale(0.7,0.7)"><path fill="rgb(0,153,255)" stroke="none" paint-order="stroke fill markers" d=" M 0.449 -0.17400000000000002 L 0.449 -0.17400000000000002 L 0.421 0 L 0.05 0 Q 0.05 -0.025 0.056 -0.032 L 0.061 -0.037 L 0.253 -0.251 Q 0.358 -0.369 0.358 -0.47200000000000003 Q 0.358 -0.561 0.304 -0.607 L 0.303 -0.608 L 0.302 -0.608 Q 0.27 -0.635 0.224 -0.635 Q 0.152 -0.635 0.109 -0.5730000000000001 Q 0.097 -0.555 0.089 -0.533 Q 0.092 -0.534 0.10200000000000001 -0.534 Q 0.14200000000000002 -0.534 0.153 -0.498 L 0.153 -0.497 Q 0.155 -0.49 0.155 -0.482 Q 0.155 -0.442 0.117 -0.431 Q 0.109 -0.429 0.10300000000000001 -0.429 Q 0.066 -0.429 0.054 -0.46 Q 0.05 -0.47100000000000003 0.05 -0.485 Q 0.05 -0.562 0.109 -0.617 Q 0.162 -0.666 0.23700000000000002 -0.666 Q 0.34700000000000003 -0.666 0.40800000000000003 -0.592 Q 0.443 -0.549 0.448 -0.49 Q 0.449 -0.481 0.449 -0.47200000000000003 Q 0.449 -0.399 0.394 -0.333 Q 0.365 -0.299 0.304 -0.243 L 0.243 -0.189 L 0.233 -0.18 L 0.127 -0.077 L 0.307 -0.077 Q 0.395 -0.077 0.402 -0.085 Q 0.41200000000000003 -0.099 0.424 -0.17400000000000002 L 0.449 -0.17400000000000002 Z"/></g></g><path fill="none" stroke="rgb(102,102,102)" paint-order="fill stroke markers" d=" M 299.0476190476188 81.25527733334303 C 299.0476190476188 118.07426065539615 269.19993570300505 147.92194400001011 232.38095238095218 147.92194400001011 C 195.56196905889936 147.92194400001011 165.7142857142856 118.07426065539615 165.7142857142856 81.25527733334303 C 165.7142857142856 44.43629401128991 195.56196905889936 14.588610666675947 232.38095238095218 14.588610666675947 C 269.19993570300505 14.588610666675947 299.0476190476188 44.43629401128991 299.0476190476188 81.25527733334303 Z" stroke-opacity="0.6980392156862745" stroke-linejoin="round" stroke-miterlimit="10" stroke-dasharray="9,8"/><g transform="scale(19,19)"><g transform="translate(10.68421052631579,2.0126183157894735)"><path fill="rgb(102,102,102)" stroke="none" paint-order="stroke fill markers" d=" M 0.264 -0.082 Q 0.201 0.011 0.11900000000000001 0.011 Q 0.032 0.011 0.016 -0.089 Q 0.013000000000000001 -0.109 0.013000000000000001 -0.131 Q 0.013000000000000001 -0.22 0.051000000000000004 -0.311 Q 0.082 -0.382 0.112 -0.419 Q 0.122 -0.431 0.127 -0.431 Q 0.139 -0.431 0.139 -0.419 Q 0.139 -0.41400000000000003 0.129 -0.4 Q 0.045 -0.28 0.045 -0.17500000000000002 Q 0.045 -0.08 0.109 -0.064 Q 0.12 -0.061 0.133 -0.061 Q 0.201 -0.061 0.257 -0.138 Q 0.264 -0.145 0.266 -0.165 Q 0.276 -0.23800000000000002 0.28700000000000003 -0.266 Q 0.3 -0.291 0.315 -0.291 Q 0.334 -0.291 0.336 -0.268 Q 0.336 -0.24 0.308 -0.168 Q 0.306 -0.161 0.303 -0.155 Q 0.297 -0.14400000000000002 0.297 -0.139 Q 0.297 -0.111 0.317 -0.084 Q 0.335 -0.061 0.372 -0.061 Q 0.449 -0.061 0.511 -0.14400000000000002 Q 0.562 -0.214 0.562 -0.28 Q 0.562 -0.331 0.527 -0.367 Q 0.512 -0.38 0.512 -0.394 Q 0.512 -0.419 0.539 -0.435 Q 0.55 -0.442 0.562 -0.442 Q 0.599 -0.442 0.604 -0.388 Q 0.605 -0.377 0.605 -0.371 Q 0.605 -0.307 0.5750000000000001 -0.213 Q 0.55 -0.136 0.511 -0.082 Q 0.443 0.011 0.358 0.011 Q 0.277 0.011 0.264 -0.082 Z"/></g><g transform="translate(11.30621052631579,1.5997263157894734) scale(0.7,0.7)"><path fill="rgb(102,102,102)" stroke="none" paint-order="stroke fill markers" d=" M 0.255 -0.47900000000000004 L 0.076 -0.059000000000000004 Q 0.07 -0.045 0.063 -0.045 Q 0.045 -0.045 0.033 -0.056 Q 0.029 -0.059000000000000004 0.029 -0.063 Q 0.029 -0.065 0.032 -0.077 L 0.153 -0.513 Q 0.166 -0.554 0.197 -0.558 Q 0.202 -0.559 0.20600000000000002 -0.559 Q 0.24 -0.559 0.256 -0.53 Q 0.262 -0.519 0.262 -0.507 Q 0.262 -0.494 0.255 -0.47900000000000004 Z"/></g><g transform="translate(11.30621052631579,2.2598353157894735) scale(0.7,0.7)"><path fill="rgb(102,102,102)" stroke="none" paint-order="stroke fill markers" d=" M 0.449 -0.17400000000000002 L 0.449 -0.17400000000000002 L 0.421 0 L 0.05 0 Q 0.05 -0.025 0.056 -0.032 L 0.061 -0.037 L 0.253 -0.251 Q 0.358 -0.369 0.358 -0.47200000000000003 Q 0.358 -0.561 0.304 -0.607 L 0.303 -0.608 L 0.302 -0.608 Q 0.27 -0.635 0.224 -0.635 Q 0.152 -0.635 0.109 -0.5730000000000001 Q 0.097 -0.555 0.089 -0.533 Q 0.092 -0.534 0.10200000000000001 -0.534 Q 0.14200000000000002 -0.534 0.153 -0.498 L 0.153 -0.497 Q 0.155 -0.49 0.155 -0.482 Q 0.155 -0.442 0.117 -0.431 Q 0.109 -0.429 0.10300000000000001 -0.429 Q 0.066 -0.429 0.054 -0.46 Q 0.05 -0.47100000000000003 0.05 -0.485 Q 0.05 -0.562 0.109 -0.617 Q 0.162 -0.666 0.23700000000000002 -0.666 Q 0.34700000000000003 -0.666 0.40800000000000003 -0.592 Q 0.443 -0.549 0.448 -0.49 Q 0.449 -0.481 0.449 -0.47200000000000003 Q 0.449 -0.399 0.394 -0.333 Q 0.365 -0.299 0.304 -0.243 L 0.243 -0.189 L 0.233 -0.18 L 0.127 -0.077 L 0.307 -0.077 Q 0.395 -0.077 0.402 -0.085 Q 0.41200000000000003 -0.099 0.424 -0.17400000000000002 L 0.449 -0.17400000000000002 Z"/></g></g><path fill="none" stroke="rgb(102,102,102)" paint-order="fill stroke markers" d=" M 273.6507936507934 166.4388193333355 C 273.6507936507934 203.25780265538862 243.8031103061797 233.10548600000257 206.98412698412682 233.10548600000257 C 170.165143662074 233.10548600000257 140.31746031746025 203.25780265538862 140.31746031746025 166.4388193333355 C 140.31746031746025 129.61983601128236 170.165143662074 99.7721526666684 206.98412698412682 99.7721526666684 C 243.8031103061797 99.7721526666684 273.6507936507934 129.61983601128236 273.6507936507934 166.4388193333355 Z" stroke-opacity="0.6980392156862745" stroke-linejoin="round" stroke-miterlimit="10" stroke-dasharray="9,8"/><g transform="scale(19,19)"><g transform="translate(6.368421052631579,7.852052631578948)"><path fill="rgb(102,102,102)" stroke="none" paint-order="stroke fill markers" d=" M 0.041 -0.254 L 0.041 -0.254 L 0.037 -0.249 Q 0.018000000000000002 -0.249 0.018000000000000002 -0.259 Q 0.018000000000000002 -0.28700000000000003 0.052000000000000005 -0.339 Q 0.122 -0.44 0.213 -0.442 Q 0.303 -0.442 0.34600000000000003 -0.332 Q 0.383 -0.23900000000000002 0.387 -0.128 Q 0.466 -0.326 0.519 -0.424 Q 0.522 -0.431 0.531 -0.431 Q 0.543 -0.431 0.543 -0.421 Q 0.543 -0.41600000000000004 0.524 -0.383 Q 0.45 -0.23600000000000002 0.395 -0.078 Q 0.391 -0.066 0.388 -0.056 Q 0.384 -0.043000000000000003 0.38 -0.017 Q 0.371 0.053 0.343 0.155 Q 0.326 0.212 0.311 0.215 Q 0.298 0.215 0.298 0.197 Q 0.298 0.156 0.34800000000000003 -0.013000000000000001 Q 0.34900000000000003 -0.015 0.35000000000000003 -0.018000000000000002 Q 0.362 -0.052000000000000005 0.362 -0.116 Q 0.362 -0.35100000000000003 0.222 -0.369 Q 0.211 -0.37 0.2 -0.37 Q 0.129 -0.37 0.081 -0.321 L 0.08 -0.32 Q 0.054 -0.293 0.041 -0.254 Z"/></g></g><path fill="rgb(255,0,0)" stroke="none" paint-order="stroke fill markers" fill-rule="evenodd" d=" M 172.06349206349194 109.64979133334052 L 158.51087351991407 105.60918115513192 L 154.47026334170434 119.16179969871052 L 168.02288188528337 123.20240987691848 L 172.06349206349194 109.64979133334052" fill-opacity="0.09803921568627451"/><path fill="none" stroke="rgb(255,0,0)" paint-order="fill stroke markers" d=" M 172.06349206349194 109.64979133334052 L 158.51087351991407 105.60918115513192 L 154.47026334170434 119.16179969871052 L 168.02288188528337 123.20240987691848 L 172.06349206349194 109.64979133334052" stroke-opacity="0.6980392156862745" stroke-linecap="round" stroke-linejoin="round" stroke-miterlimit="10"/><path fill="none" stroke="rgb(0,100,0)" paint-order="fill stroke markers" d=" M 146.66666666666657 194.83333333333297 L 172.06349206349194 109.64979133334052" stroke-opacity="0.6980392156862745" stroke-linejoin="round" stroke-miterlimit="10" stroke-dasharray="9,8"/><path fill="none" stroke="rgb(0,100,0)" paint-order="fill stroke markers" d=" M 146.66666666666657 194.83333333333297 L 267.3015873015871 138.044305333338" stroke-opacity="0.6980392156862745" stroke-linejoin="round" stroke-miterlimit="10" stroke-dasharray="9,8"/><path fill="none" stroke="rgb(255,85,0)" paint-order="fill stroke markers" d=" M 76.8253968253967 81.25527733334303 L 172.06349206349194 109.64979133334052" stroke-opacity="0.6980392156862745" stroke-linecap="round" stroke-linejoin="round" stroke-miterlimit="10" stroke-width="1.5"/><path fill="none" stroke="rgb(255,85,0)" paint-order="fill stroke markers" d=" M 172.06349206349194 109.64979133334052 L 267.3015873015871 138.044305333338" stroke-opacity="0.6980392156862745" stroke-linecap="round" stroke-linejoin="round" stroke-miterlimit="10" stroke-width="1.5"/><path fill="none" stroke="rgb(255,85,0)" paint-order="fill stroke markers" d=" M 267.3015873015871 138.044305333338 L 362.53968253968213 166.4388193333355" stroke-opacity="0.6980392156862745" stroke-linecap="round" stroke-linejoin="round" stroke-miterlimit="10" stroke-width="1.5"/><path fill="none" stroke="rgb(255,85,0)" paint-order="fill stroke markers" d=" M 58.85966512818901 75.89893102127917 L 76.8253968253967 81.25527733334303" stroke-opacity="0.6980392156862745" stroke-linejoin="round" stroke-miterlimit="10" stroke-width="1.5" stroke-dasharray="9.5,8"/><path fill="none" stroke="rgb(255,85,0)" paint-order="fill stroke markers" d=" M 362.53968253968213 166.4388193333355 L 381.6716935922678 172.14288296798338" stroke-opacity="0.6980392156862745" stroke-linejoin="round" stroke-miterlimit="10" stroke-width="1.5" stroke-dasharray="9.5,8"/><path fill="rgb(0,0,255)" stroke="none" paint-order="stroke fill markers" d=" M 148.66666666666657 194.83333333333297 C 148.66666666666657 195.93790283299455 147.77123616632815 196.83333333333297 146.66666666666657 196.83333333333297 C 145.562097167005 196.83333333333297 144.66666666666657 195.93790283299455 144.66666666666657 194.83333333333297 C 144.66666666666657 193.7287638336714 145.562097167005 192.83333333333297 146.66666666666657 192.83333333333297 C 147.77123616632815 192.83333333333297 148.66666666666657 193.7287638336714 148.66666666666657 194.83333333333297 Z" fill-opacity="1"/><path fill="none" stroke="rgb(0,0,0)" paint-order="fill stroke markers" d=" M 148.66666666666657 194.83333333333297 C 148.66666666666657 195.93790283299455 147.77123616632815 196.83333333333297 146.66666666666657 196.83333333333297 C 145.562097167005 196.83333333333297 144.66666666666657 195.93790283299455 144.66666666666657 194.83333333333297 C 144.66666666666657 193.7287638336714 145.562097167005 192.83333333333297 146.66666666666657 192.83333333333297 C 147.77123616632815 192.83333333333297 148.66666666666657 193.7287638336714 148.66666666666657 194.83333333333297 Z" stroke-opacity="1" stroke-linecap="round" stroke-linejoin="round" stroke-miterlimit="10"/><text fill="rgb(0,0,255)" stroke="none" font-family="geogebra-sans-serif, sans-serif" font-size="16px" font-style="normal" font-weight="normal" text-decoration="normal" x="128" y="214" text-anchor="start" dominant-baseline="alphabetic" fill-opacity="1">O</text><text fill="none" stroke="rgb(255,255,255)" font-family="geogebra-sans-serif, sans-serif" font-size="16px" font-style="normal" font-weight="normal" text-decoration="normal" x="128" y="214" text-anchor="start" dominant-baseline="alphabetic" stroke-opacity="1" stroke-linejoin="bevel" stroke-miterlimit="10" stroke-width="3">O</text><text fill="rgb(0,0,255)" stroke="none" font-family="geogebra-sans-serif, sans-serif" font-size="16px" font-style="normal" font-weight="normal" text-decoration="normal" x="128" y="214" text-anchor="start" dominant-baseline="alphabetic" fill-opacity="1">O</text><text fill="rgb(0,0,255)" stroke="none" font-family="geogebra-sans-serif, sans-serif" font-size="14px" font-style="normal" font-weight="normal" text-decoration="normal" x="140" y="221" text-anchor="start" dominant-baseline="alphabetic" fill-opacity="1">1</text><text fill="none" stroke="rgb(255,255,255)" font-family="geogebra-sans-serif, sans-serif" font-size="14px" font-style="normal" font-weight="normal" text-decoration="normal" x="140" y="221" text-anchor="start" dominant-baseline="alphabetic" stroke-opacity="1" stroke-linejoin="bevel" stroke-miterlimit="10" stroke-width="3">1</text><text fill="rgb(0,0,255)" stroke="none" font-family="geogebra-sans-serif, sans-serif" font-size="14px" font-style="normal" font-weight="normal" text-decoration="normal" x="140" y="221" text-anchor="start" dominant-baseline="alphabetic" fill-opacity="1">1</text><path fill="rgb(0,0,255)" stroke="none" paint-order="stroke fill markers" d=" M 304.22222222222194 194.83333333333297 C 304.22222222222194 195.93790283299455 303.3267917218835 196.83333333333297 302.22222222222194 196.83333333333297 C 301.11765272256036 196.83333333333297 300.22222222222194 195.93790283299455 300.22222222222194 194.83333333333297 C 300.22222222222194 193.7287638336714 301.11765272256036 192.83333333333297 302.22222222222194 192.83333333333297 C 303.3267917218835 192.83333333333297 304.22222222222194 193.7287638336714 304.22222222222194 194.83333333333297 Z" fill-opacity="1"/><path fill="none" stroke="rgb(0,0,0)" paint-order="fill stroke markers" d=" M 304.22222222222194 194.83333333333297 C 304.22222222222194 195.93790283299455 303.3267917218835 196.83333333333297 302.22222222222194 196.83333333333297 C 301.11765272256036 196.83333333333297 300.22222222222194 195.93790283299455 300.22222222222194 194.83333333333297 C 300.22222222222194 193.7287638336714 301.11765272256036 192.83333333333297 302.22222222222194 192.83333333333297 C 303.3267917218835 192.83333333333297 304.22222222222194 193.7287638336714 304.22222222222194 194.83333333333297 Z" stroke-opacity="1" stroke-linecap="round" stroke-linejoin="round" stroke-miterlimit="10"/><text fill="rgb(0,0,255)" stroke="none" font-family="geogebra-sans-serif, sans-serif" font-size="16px" font-style="normal" font-weight="normal" text-decoration="normal" x="296" y="217" text-anchor="start" dominant-baseline="alphabetic" fill-opacity="1">O</text><text fill="none" stroke="rgb(255,255,255)" font-family="geogebra-sans-serif, sans-serif" font-size="16px" font-style="normal" font-weight="normal" text-decoration="normal" x="296" y="217" text-anchor="start" dominant-baseline="alphabetic" stroke-opacity="1" stroke-linejoin="bevel" stroke-miterlimit="10" stroke-width="3">O</text><text fill="rgb(0,0,255)" stroke="none" font-family="geogebra-sans-serif, sans-serif" font-size="16px" font-style="normal" font-weight="normal" text-decoration="normal" x="296" y="217" text-anchor="start" dominant-baseline="alphabetic" fill-opacity="1">O</text><text fill="rgb(0,0,255)" stroke="none" font-family="geogebra-sans-serif, sans-serif" font-size="14px" font-style="normal" font-weight="normal" text-decoration="normal" x="308" y="224" text-anchor="start" dominant-baseline="alphabetic" fill-opacity="1">2</text><text fill="none" stroke="rgb(255,255,255)" font-family="geogebra-sans-serif, sans-serif" font-size="14px" font-style="normal" font-weight="normal" text-decoration="normal" x="308" y="224" text-anchor="start" dominant-baseline="alphabetic" stroke-opacity="1" stroke-linejoin="bevel" stroke-miterlimit="10" stroke-width="3">2</text><text fill="rgb(0,0,255)" stroke="none" font-family="geogebra-sans-serif, sans-serif" font-size="14px" font-style="normal" font-weight="normal" text-decoration="normal" x="308" y="224" text-anchor="start" dominant-baseline="alphabetic" fill-opacity="1">2</text><path fill="rgb(0,0,255)" stroke="none" paint-order="stroke fill markers" d=" M 269.3015873015871 138.044305333338 C 269.3015873015871 139.14887483299958 268.4061568012487 140.044305333338 267.3015873015871 140.044305333338 C 266.19701780192554 140.044305333338 265.3015873015871 139.14887483299958 265.3015873015871 138.044305333338 C 265.3015873015871 136.93973583367642 266.19701780192554 136.044305333338 267.3015873015871 136.044305333338 C 268.4061568012487 136.044305333338 269.3015873015871 136.93973583367642 269.3015873015871 138.044305333338 Z" fill-opacity="1"/><path fill="none" stroke="rgb(0,0,0)" paint-order="fill stroke markers" d=" M 269.3015873015871 138.044305333338 C 269.3015873015871 139.14887483299958 268.4061568012487 140.044305333338 267.3015873015871 140.044305333338 C 266.19701780192554 140.044305333338 265.3015873015871 139.14887483299958 265.3015873015871 138.044305333338 C 265.3015873015871 136.93973583367642 266.19701780192554 136.044305333338 267.3015873015871 136.044305333338 C 268.4061568012487 136.044305333338 269.3015873015871 136.93973583367642 269.3015873015871 138.044305333338 Z" stroke-opacity="1" stroke-linecap="round" stroke-linejoin="round" stroke-miterlimit="10"/><text fill="rgb(0,0,255)" stroke="none" font-family="geogebra-sans-serif, sans-serif" font-size="16px" font-style="normal" font-weight="normal" text-decoration="normal" x="261" y="122" text-anchor="start" dominant-baseline="alphabetic" fill-opacity="1">P</text><text fill="none" stroke="rgb(255,255,255)" font-family="geogebra-sans-serif, sans-serif" font-size="16px" font-style="normal" font-weight="normal" text-decoration="normal" x="261" y="122" text-anchor="start" dominant-baseline="alphabetic" stroke-opacity="1" stroke-linejoin="bevel" stroke-miterlimit="10" stroke-width="3">P</text><text fill="rgb(0,0,255)" stroke="none" font-family="geogebra-sans-serif, sans-serif" font-size="16px" font-style="normal" font-weight="normal" text-decoration="normal" x="261" y="122" text-anchor="start" dominant-baseline="alphabetic" fill-opacity="1">P</text><path fill="rgb(0,0,255)" stroke="none" paint-order="stroke fill markers" d=" M 208.98412698412685 166.4388193333355 C 208.98412698412685 167.54338883299707 208.08869648378842 168.4388193333355 206.98412698412685 168.4388193333355 C 205.87955748446527 168.4388193333355 204.98412698412685 167.54338883299707 204.98412698412685 166.4388193333355 C 204.98412698412685 165.3342498336739 205.87955748446527 164.4388193333355 206.98412698412685 164.4388193333355 C 208.08869648378842 164.4388193333355 208.98412698412685 165.3342498336739 208.98412698412685 166.4388193333355 Z" fill-opacity="1"/><path fill="none" stroke="rgb(0,0,0)" paint-order="fill stroke markers" d=" M 208.98412698412685 166.4388193333355 C 208.98412698412685 167.54338883299707 208.08869648378842 168.4388193333355 206.98412698412685 168.4388193333355 C 205.87955748446527 168.4388193333355 204.98412698412685 167.54338883299707 204.98412698412685 166.4388193333355 C 204.98412698412685 165.3342498336739 205.87955748446527 164.4388193333355 206.98412698412685 164.4388193333355 C 208.08869648378842 164.4388193333355 208.98412698412685 165.3342498336739 208.98412698412685 166.4388193333355 Z" stroke-opacity="1" stroke-linecap="round" stroke-linejoin="round" stroke-miterlimit="10"/><text fill="rgb(0,0,255)" stroke="none" font-family="geogebra-sans-serif, sans-serif" font-size="16px" font-style="normal" font-weight="normal" text-decoration="normal" x="208" y="187" text-anchor="start" dominant-baseline="alphabetic" fill-opacity="1">Q</text><text fill="none" stroke="rgb(255,255,255)" font-family="geogebra-sans-serif, sans-serif" font-size="16px" font-style="normal" font-weight="normal" text-decoration="normal" x="208" y="187" text-anchor="start" dominant-baseline="alphabetic" stroke-opacity="1" stroke-linejoin="bevel" stroke-miterlimit="10" stroke-width="3">Q</text><text fill="rgb(0,0,255)" stroke="none" font-family="geogebra-sans-serif, sans-serif" font-size="16px" font-style="normal" font-weight="normal" text-decoration="normal" x="208" y="187" text-anchor="start" dominant-baseline="alphabetic" fill-opacity="1">Q</text><path fill="rgb(0,0,255)" stroke="none" paint-order="stroke fill markers" d=" M 174.06349206349194 109.64979133334052 C 174.06349206349194 110.7543608330021 173.16806156315351 111.64979133334052 172.06349206349194 111.64979133334052 C 170.95892256383036 111.64979133334052 170.06349206349194 110.7543608330021 170.06349206349194 109.64979133334052 C 170.06349206349194 108.54522183367892 170.95892256383036 107.64979133334052 172.06349206349194 107.64979133334052 C 173.16806156315351 107.64979133334052 174.06349206349194 108.54522183367892 174.06349206349194 109.64979133334052 Z" fill-opacity="1"/><path fill="none" stroke="rgb(0,0,0)" paint-order="fill stroke markers" d=" M 174.06349206349194 109.64979133334052 C 174.06349206349194 110.7543608330021 173.16806156315351 111.64979133334052 172.06349206349194 111.64979133334052 C 170.95892256383036 111.64979133334052 170.06349206349194 110.7543608330021 170.06349206349194 109.64979133334052 C 170.06349206349194 108.54522183367892 170.95892256383036 107.64979133334052 172.06349206349194 107.64979133334052 C 173.16806156315351 107.64979133334052 174.06349206349194 108.54522183367892 174.06349206349194 109.64979133334052 Z" stroke-opacity="1" stroke-linecap="round" stroke-linejoin="round" stroke-miterlimit="10"/><text fill="rgb(0,0,255)" stroke="none" font-family="geogebra-sans-serif, sans-serif" font-size="16px" font-style="normal" font-weight="normal" text-decoration="normal" x="175" y="87" text-anchor="start" dominant-baseline="alphabetic" fill-opacity="1">M</text><text fill="none" stroke="rgb(255,255,255)" font-family="geogebra-sans-serif, sans-serif" font-size="16px" font-style="normal" font-weight="normal" text-decoration="normal" x="175" y="87" text-anchor="start" dominant-baseline="alphabetic" stroke-opacity="1" stroke-linejoin="bevel" stroke-miterlimit="10" stroke-width="3">M</text><text fill="rgb(0,0,255)" stroke="none" font-family="geogebra-sans-serif, sans-serif" font-size="16px" font-style="normal" font-weight="normal" text-decoration="normal" x="175" y="87" text-anchor="start" dominant-baseline="alphabetic" fill-opacity="1">M</text><path fill="rgb(0,0,255)" stroke="none" paint-order="stroke fill markers" d=" M 78.8253968253967 81.25527733334303 C 78.8253968253967 82.35984683300461 77.92996632505827 83.25527733334303 76.8253968253967 83.25527733334303 C 75.7208273257351 83.25527733334303 74.8253968253967 82.35984683300461 74.8253968253967 81.25527733334303 C 74.8253968253967 80.15070783368144 75.7208273257351 79.25527733334303 76.8253968253967 79.25527733334303 C 77.92996632505827 79.25527733334303 78.8253968253967 80.15070783368144 78.8253968253967 81.25527733334303 Z" fill-opacity="1"/><path fill="none" stroke="rgb(0,0,0)" paint-order="fill stroke markers" d=" M 78.8253968253967 81.25527733334303 C 78.8253968253967 82.35984683300461 77.92996632505827 83.25527733334303 76.8253968253967 83.25527733334303 C 75.7208273257351 83.25527733334303 74.8253968253967 82.35984683300461 74.8253968253967 81.25527733334303 C 74.8253968253967 80.15070783368144 75.7208273257351 79.25527733334303 76.8253968253967 79.25527733334303 C 77.92996632505827 79.25527733334303 78.8253968253967 80.15070783368144 78.8253968253967 81.25527733334303 Z" stroke-opacity="1" stroke-linecap="round" stroke-linejoin="round" stroke-miterlimit="10"/><text fill="rgb(0,0,255)" stroke="none" font-family="geogebra-sans-serif, sans-serif" font-size="16px" font-style="normal" font-weight="normal" text-decoration="normal" x="71" y="63" text-anchor="start" dominant-baseline="alphabetic" fill-opacity="1">A</text><text fill="none" stroke="rgb(255,255,255)" font-family="geogebra-sans-serif, sans-serif" font-size="16px" font-style="normal" font-weight="normal" text-decoration="normal" x="71" y="63" text-anchor="start" dominant-baseline="alphabetic" stroke-opacity="1" stroke-linejoin="bevel" stroke-miterlimit="10" stroke-width="3">A</text><text fill="rgb(0,0,255)" stroke="none" font-family="geogebra-sans-serif, sans-serif" font-size="16px" font-style="normal" font-weight="normal" text-decoration="normal" x="71" y="63" text-anchor="start" dominant-baseline="alphabetic" fill-opacity="1">A</text><path fill="rgb(0,0,255)" stroke="none" paint-order="stroke fill markers" d=" M 364.53968253968213 166.4388193333355 C 364.53968253968213 167.54338883299707 363.6442520393437 168.4388193333355 362.53968253968213 168.4388193333355 C 361.43511304002055 168.4388193333355 360.53968253968213 167.54338883299707 360.53968253968213 166.4388193333355 C 360.53968253968213 165.3342498336739 361.43511304002055 164.4388193333355 362.53968253968213 164.4388193333355 C 363.6442520393437 164.4388193333355 364.53968253968213 165.3342498336739 364.53968253968213 166.4388193333355 Z" fill-opacity="1"/><path fill="none" stroke="rgb(0,0,0)" paint-order="fill stroke markers" d=" M 364.53968253968213 166.4388193333355 C 364.53968253968213 167.54338883299707 363.6442520393437 168.4388193333355 362.53968253968213 168.4388193333355 C 361.43511304002055 168.4388193333355 360.53968253968213 167.54338883299707 360.53968253968213 166.4388193333355 C 360.53968253968213 165.3342498336739 361.43511304002055 164.4388193333355 362.53968253968213 164.4388193333355 C 363.6442520393437 164.4388193333355 364.53968253968213 165.3342498336739 364.53968253968213 166.4388193333355 Z" stroke-opacity="1" stroke-linecap="round" stroke-linejoin="round" stroke-miterlimit="10"/><text fill="rgb(0,0,255)" stroke="none" font-family="geogebra-sans-serif, sans-serif" font-size="16px" font-style="normal" font-weight="normal" text-decoration="normal" x="372" y="157" text-anchor="start" dominant-baseline="alphabetic" fill-opacity="1">B</text><text fill="none" stroke="rgb(255,255,255)" font-family="geogebra-sans-serif, sans-serif" font-size="16px" font-style="normal" font-weight="normal" text-decoration="normal" x="372" y="157" text-anchor="start" dominant-baseline="alphabetic" stroke-opacity="1" stroke-linejoin="bevel" stroke-miterlimit="10" stroke-width="3">B</text><text fill="rgb(0,0,255)" stroke="none" font-family="geogebra-sans-serif, sans-serif" font-size="16px" font-style="normal" font-weight="normal" text-decoration="normal" x="372" y="157" text-anchor="start" dominant-baseline="alphabetic" fill-opacity="1">B</text></g></g></svg>