<svg version="1.1" xmlns="http://www.w3.org/2000/svg" xmlns:xlink="http://www.w3.org/1999/xlink" width="319" height="323"><defs><clipPath id="FnPCmZvhOAcS"><path fill="none" stroke="none" d=" M 0 0 L 319 0 L 319 323 L 0 323 L 0 0 Z"/></clipPath></defs><g transform="scale(1,1)" clip-path="url(#FnPCmZvhOAcS)"><g><rect fill="rgb(255,255,255)" stroke="none" x="0" y="0" width="319" height="323" fill-opacity="1"/><path fill="none" stroke="rgb(0,153,255)" paint-order="fill stroke markers" d=" M 292.5000000000007 154.6111111111094 C 292.5000000000007 228.24907775521564 232.804633310773 287.9444444444436 159.16666666666708 287.9444444444436 C 85.52870002256117 287.9444444444436 25.833333333333485 228.24907775521564 25.833333333333485 154.6111111111094 C 25.833333333333485 80.97314446700315 85.52870002256117 21.277777777775214 159.16666666666708 21.277777777775214 C 232.804633310773 21.277777777775214 292.5000000000007 80.97314446700315 292.5000000000007 154.6111111111094 Z" stroke-opacity="0.6980392156862745" stroke-linecap="round" stroke-linejoin="round" stroke-miterlimit="10"/><g transform="scale(19,19)"><g transform="translate(2.210526315789474,2.904684210526316)"><path fill="rgb(0,153,255)" stroke="none" paint-order="stroke fill markers" d=" M 0.264 -0.082 Q 0.201 0.011 0.11900000000000001 0.011 Q 0.032 0.011 0.016 -0.089 Q 0.013000000000000001 -0.109 0.013000000000000001 -0.131 Q 0.013000000000000001 -0.22 0.051000000000000004 -0.311 Q 0.082 -0.382 0.112 -0.419 Q 0.122 -0.431 0.127 -0.431 Q 0.139 -0.431 0.139 -0.419 Q 0.139 -0.41400000000000003 0.129 -0.4 Q 0.045 -0.28 0.045 -0.17500000000000002 Q 0.045 -0.08 0.109 -0.064 Q 0.12 -0.061 0.133 -0.061 Q 0.201 -0.061 0.257 -0.138 Q 0.264 -0.145 0.266 -0.165 Q 0.276 -0.23800000000000002 0.28700000000000003 -0.266 Q 0.3 -0.291 0.315 -0.291 Q 0.334 -0.291 0.336 -0.268 Q 0.336 -0.24 0.308 -0.168 Q 0.306 -0.161 0.303 -0.155 Q 0.297 -0.14400000000000002 0.297 -0.139 Q 0.297 -0.111 0.317 -0.084 Q 0.335 -0.061 0.372 -0.061 Q 0.449 -0.061 0.511 -0.14400000000000002 Q 0.562 -0.214 0.562 -0.28 Q 0.562 -0.331 0.527 -0.367 Q 0.512 -0.38 0.512 -0.394 Q 0.512 -0.419 0.539 -0.435 Q 0.55 -0.442 0.562 -0.442 Q 0.599 -0.442 0.604 -0.388 Q 0.605 -0.377 0.605 -0.371 Q 0.605 -0.307 0.5750000000000001 -0.213 Q 0.55 -0.136 0.511 -0.082 Q 0.443 0.011 0.358 0.011 Q 0.277 0.011 0.264 -0.082 Z"/></g><g transform="translate(2.832526315789474,3.054684210526316) scale(0.7,0.7)"><path fill="rgb(0,153,255)" stroke="none" paint-order="stroke fill markers" d=" M 0.294 -0.64 L 0.294 -0.079 Q 0.294 -0.049 0.306 -0.041 Q 0.323 -0.031 0.387 -0.031 L 0.419 -0.031 L 0.419 0 Q 0.384 -0.003 0.257 -0.003 Q 0.13 -0.003 0.095 0 L 0.095 -0.031 L 0.127 -0.031 Q 0.20400000000000001 -0.031 0.215 -0.049 L 0.216 -0.05 Q 0.22 -0.058 0.22 -0.079 L 0.22 -0.597 Q 0.168 -0.5710000000000001 0.089 -0.5710000000000001 L 0.089 -0.602 Q 0.209 -0.602 0.271 -0.666 Q 0.29 -0.666 0.293 -0.659 L 0.293 -0.659 L 0.293 -0.658 Q 0.294 -0.655 0.294 -0.64 Z"/></g></g><path fill="none" stroke="rgb(244,0,153)" paint-order="fill stroke markers" d=" M 168.3643713546347 51.657065392047485 C 144.61543832266418 129.49134418186281 170.40664114060917 213.95389983110584 233.58469738543587 265.24444461289966" stroke-opacity="0.6980392156862745" stroke-linejoin="round" stroke-miterlimit="10" stroke-width="1.5" stroke-dasharray="9.5,8"/><path fill="rgb(255,0,255)" stroke="none" paint-order="stroke fill markers" d=" M 93.24117272942942 67.9535867285067 C 99.20570476108574 68.21383858516958 105.11224593289727 66.68854286533355 110.20498679632712 63.57287858889066 L 94.54892562758312 37.982103909710986 Z" fill-opacity="0.09803921568627451"/><path fill="none" stroke="rgb(255,0,255)" paint-order="fill stroke markers" d=" M 93.24117272942942 67.9535867285067 C 99.20570476108574 68.21383858516958 105.11224593289727 66.68854286533355 110.20498679632712 63.57287858889066 L 94.54892562758312 37.982103909710986 Z" stroke-opacity="0.6980392156862745" stroke-linecap="round" stroke-linejoin="round" stroke-miterlimit="10" stroke-width="1.5"/><path fill="rgb(255,0,255)" stroke="none" paint-order="stroke fill markers" d=" M 162.70874154011813 181.50748046386434 C 168.6743108973184 181.7684005471964 174.58202969829583 180.24312911937938 179.6756794616811 177.12690879125464 L 164.01961829293714 151.53613411207496 Z" fill-opacity="0.09803921568627451"/><path fill="none" stroke="rgb(255,0,255)" paint-order="fill stroke markers" d=" M 162.70874154011813 181.50748046386434 C 168.6743108973184 181.7684005471964 174.58202969829583 180.24312911937938 179.6756794616811 177.12690879125464 L 164.01961829293714 151.53613411207496 Z" stroke-opacity="0.6980392156862745" stroke-linecap="round" stroke-linejoin="round" stroke-miterlimit="10" stroke-width="1.5"/><path fill="none" stroke="rgb(0,100,0)" paint-order="fill stroke markers" d=" M 84.63604169592018 265.168624285239 L 233.58469738543585 265.24444461289966" stroke-opacity="0.6980392156862745" stroke-linecap="round" stroke-linejoin="round" stroke-miterlimit="10"/><path fill="none" stroke="rgb(102,102,102)" paint-order="fill stroke markers" d=" M 152.26057160257943 105.04861270702467 L 143.8817902291833 101.76288254512299" stroke-opacity="0.6980392156862745" stroke-linecap="round" stroke-linejoin="round" stroke-miterlimit="10"/><path fill="none" stroke="rgb(102,102,102)" paint-order="fill stroke markers" d=" M 150.98278765072877 108.3070276855676 L 142.60400627733264 105.02129752366592" stroke-opacity="0.6980392156862745" stroke-linecap="round" stroke-linejoin="round" stroke-miterlimit="10"/><path fill="none" stroke="rgb(102,102,102)" paint-order="fill stroke markers" d=" M 168.36437135463467 51.6570653920474 L 126.50020652527743 158.4128448386432" stroke-opacity="0.6980392156862745" stroke-linejoin="round" stroke-miterlimit="10" stroke-dasharray="9,8"/><path fill="none" stroke="rgb(102,102,102)" paint-order="fill stroke markers" d=" M 110.3964067732222 211.80439215362046 L 102.01762539982607 208.5186619917188" stroke-opacity="0.6980392156862745" stroke-linecap="round" stroke-linejoin="round" stroke-miterlimit="10"/><path fill="none" stroke="rgb(102,102,102)" paint-order="fill stroke markers" d=" M 109.11862282137153 215.06280713216339 L 100.73984144797541 211.77707697026173" stroke-opacity="0.6980392156862745" stroke-linecap="round" stroke-linejoin="round" stroke-miterlimit="10"/><path fill="none" stroke="rgb(102,102,102)" paint-order="fill stroke markers" d=" M 126.50020652527743 158.4128448386432 L 84.63604169592018 265.168624285239" stroke-opacity="0.6980392156862745" stroke-linejoin="round" stroke-miterlimit="10" stroke-dasharray="9,8"/><path fill="none" stroke="rgb(127,0,255)" paint-order="fill stroke markers" d=" M 94.54892562758312 37.982103909710986 L 84.63604169592018 265.168624285239" stroke-opacity="0.6980392156862745" stroke-linecap="round" stroke-linejoin="round" stroke-miterlimit="10"/><path fill="none" stroke="rgb(0,100,0)" paint-order="fill stroke markers" d=" M 94.54892562758312 37.982103909710986 L 233.58469738543585 265.24444461289966" stroke-opacity="0.6980392156862745" stroke-linecap="round" stroke-linejoin="round" stroke-miterlimit="10"/><path fill="none" stroke="rgb(255,85,0)" paint-order="fill stroke markers" d=" M 108.5584658519612 166.27624023819698 L 106.93593690487587 157.4237038888861" stroke-opacity="0.6980392156862745" stroke-linecap="round" stroke-linejoin="round" stroke-miterlimit="10"/><path fill="none" stroke="rgb(255,85,0)" paint-order="fill stroke markers" d=" M 126.50020652527743 158.4128448386432 L 88.99419623155964 165.28709928843992" stroke-opacity="0.6980392156862745" stroke-linecap="round" stroke-linejoin="round" stroke-miterlimit="10"/><path fill="none" stroke="rgb(255,85,0)" paint-order="fill stroke markers" d=" M 144.44864793556465 150.54822130070363 L 146.07117688264995 159.4007576500145" stroke-opacity="0.6980392156862745" stroke-linecap="round" stroke-linejoin="round" stroke-miterlimit="10"/><path fill="none" stroke="rgb(255,85,0)" paint-order="fill stroke markers" d=" M 126.50020652527743 158.4128448386432 L 164.01961829293714 151.53613411207496" stroke-opacity="0.6980392156862745" stroke-linecap="round" stroke-linejoin="round" stroke-miterlimit="10"/><path fill="none" stroke="rgb(0,100,0)" paint-order="fill stroke markers" d=" M 27.647476822380984 176.53097608515722 L 88.99419623155964 165.28709928843992" stroke-opacity="0.6980392156862745" stroke-linecap="round" stroke-linejoin="round" stroke-miterlimit="10"/><path fill="none" stroke="rgb(0,100,0)" paint-order="fill stroke markers" d=" M 164.01961829293714 151.53613411207496 L 289.91075675879006 128.4622930926847" stroke-opacity="0.6980392156862745" stroke-linecap="round" stroke-linejoin="round" stroke-miterlimit="10"/><path fill="none" stroke="rgb(102,102,102)" paint-order="fill stroke markers" d=" M 94.54892562758312 37.982103909710986 L 158.45148742297172 278.84358576757546" stroke-opacity="0.6980392156862745" stroke-linejoin="round" stroke-miterlimit="10" stroke-dasharray="9,8"/><path fill="none" stroke="rgb(102,102,102)" paint-order="fill stroke markers" d=" M 158.45148742297172 278.84358576757546 L 168.36437135463467 51.6570653920474" stroke-opacity="0.6980392156862745" stroke-linejoin="round" stroke-miterlimit="10" stroke-dasharray="9,8"/><path fill="none" stroke="rgb(244,0,153)" paint-order="fill stroke markers" d=" M 168.36437135463467 51.6570653920474 L 233.58469738543585 265.24444461289966" stroke-opacity="0.6980392156862745" stroke-linejoin="round" stroke-miterlimit="10" stroke-dasharray="1,3"/><path fill="none" stroke="rgb(244,0,153)" paint-order="fill stroke markers" d=" M 23.222462047125756 212.72853186289112 L 318.7586836507701 122.48458206953572" stroke-opacity="0.6980392156862745" stroke-linejoin="round" stroke-miterlimit="10" stroke-dasharray="1,3"/><path fill="rgb(0,0,255)" stroke="none" paint-order="stroke fill markers" d=" M 86.63604169592018 265.168624285239 C 86.63604169592018 266.27319378490057 85.74061119558178 267.168624285239 84.63604169592018 267.168624285239 C 83.53147219625859 267.168624285239 82.63604169592018 266.27319378490057 82.63604169592018 265.168624285239 C 82.63604169592018 264.0640547855774 83.53147219625859 263.168624285239 84.63604169592018 263.168624285239 C 85.74061119558178 263.168624285239 86.63604169592018 264.0640547855774 86.63604169592018 265.168624285239 Z" fill-opacity="1"/><path fill="none" stroke="rgb(0,0,0)" paint-order="fill stroke markers" d=" M 86.63604169592018 265.168624285239 C 86.63604169592018 266.27319378490057 85.74061119558178 267.168624285239 84.63604169592018 267.168624285239 C 83.53147219625859 267.168624285239 82.63604169592018 266.27319378490057 82.63604169592018 265.168624285239 C 82.63604169592018 264.0640547855774 83.53147219625859 263.168624285239 84.63604169592018 263.168624285239 C 85.74061119558178 263.168624285239 86.63604169592018 264.0640547855774 86.63604169592018 265.168624285239 Z" stroke-opacity="1" stroke-linecap="round" stroke-linejoin="round" stroke-miterlimit="10"/><text fill="rgb(0,0,255)" stroke="none" font-family="geogebra-sans-serif, sans-serif" font-size="16px" font-style="normal" font-weight="normal" text-decoration="normal" x="71" y="288" text-anchor="start" dominant-baseline="alphabetic" fill-opacity="1">A</text><text fill="none" stroke="rgb(255,255,255)" font-family="geogebra-sans-serif, sans-serif" font-size="16px" font-style="normal" font-weight="normal" text-decoration="normal" x="71" y="288" text-anchor="start" dominant-baseline="alphabetic" stroke-opacity="1" stroke-linejoin="bevel" stroke-miterlimit="10" stroke-width="3">A</text><text fill="rgb(0,0,255)" stroke="none" font-family="geogebra-sans-serif, sans-serif" font-size="16px" font-style="normal" font-weight="normal" text-decoration="normal" x="71" y="288" text-anchor="start" dominant-baseline="alphabetic" fill-opacity="1">A</text><path fill="rgb(0,0,255)" stroke="none" paint-order="stroke fill markers" d=" M 235.58469738543585 265.24444461289966 C 235.58469738543585 266.34901411256124 234.68926688509742 267.24444461289966 233.58469738543585 267.24444461289966 C 232.48012788577427 267.24444461289966 231.58469738543585 266.34901411256124 231.58469738543585 265.24444461289966 C 231.58469738543585 264.1398751132381 232.48012788577427 263.24444461289966 233.58469738543585 263.24444461289966 C 234.68926688509742 263.24444461289966 235.58469738543585 264.1398751132381 235.58469738543585 265.24444461289966 Z" fill-opacity="1"/><path fill="none" stroke="rgb(0,0,0)" paint-order="fill stroke markers" d=" M 235.58469738543585 265.24444461289966 C 235.58469738543585 266.34901411256124 234.68926688509742 267.24444461289966 233.58469738543585 267.24444461289966 C 232.48012788577427 267.24444461289966 231.58469738543585 266.34901411256124 231.58469738543585 265.24444461289966 C 231.58469738543585 264.1398751132381 232.48012788577427 263.24444461289966 233.58469738543585 263.24444461289966 C 234.68926688509742 263.24444461289966 235.58469738543585 264.1398751132381 235.58469738543585 265.24444461289966 Z" stroke-opacity="1" stroke-linecap="round" stroke-linejoin="round" stroke-miterlimit="10"/><text fill="rgb(0,0,255)" stroke="none" font-family="geogebra-sans-serif, sans-serif" font-size="16px" font-style="normal" font-weight="normal" text-decoration="normal" x="239" y="284" text-anchor="start" dominant-baseline="alphabetic" fill-opacity="1">B</text><text fill="none" stroke="rgb(255,255,255)" font-family="geogebra-sans-serif, sans-serif" font-size="16px" font-style="normal" font-weight="normal" text-decoration="normal" x="239" y="284" text-anchor="start" dominant-baseline="alphabetic" stroke-opacity="1" stroke-linejoin="bevel" stroke-miterlimit="10" stroke-width="3">B</text><text fill="rgb(0,0,255)" stroke="none" font-family="geogebra-sans-serif, sans-serif" font-size="16px" font-style="normal" font-weight="normal" text-decoration="normal" x="239" y="284" text-anchor="start" dominant-baseline="alphabetic" fill-opacity="1">B</text><path fill="rgb(0,0,255)" stroke="none" paint-order="stroke fill markers" d=" M 29.647476822380984 176.53097608515722 C 29.647476822380984 177.6355455848188 28.75204632204257 178.53097608515722 27.647476822380984 178.53097608515722 C 26.542907322719397 178.53097608515722 25.647476822380984 177.6355455848188 25.647476822380984 176.53097608515722 C 25.647476822380984 175.42640658549564 26.542907322719397 174.53097608515722 27.647476822380984 174.53097608515722 C 28.75204632204257 174.53097608515722 29.647476822380984 175.42640658549564 29.647476822380984 176.53097608515722 Z" fill-opacity="1"/><path fill="none" stroke="rgb(0,0,0)" paint-order="fill stroke markers" d=" M 29.647476822380984 176.53097608515722 C 29.647476822380984 177.6355455848188 28.75204632204257 178.53097608515722 27.647476822380984 178.53097608515722 C 26.542907322719397 178.53097608515722 25.647476822380984 177.6355455848188 25.647476822380984 176.53097608515722 C 25.647476822380984 175.42640658549564 26.542907322719397 174.53097608515722 27.647476822380984 174.53097608515722 C 28.75204632204257 174.53097608515722 29.647476822380984 175.42640658549564 29.647476822380984 176.53097608515722 Z" stroke-opacity="1" stroke-linecap="round" stroke-linejoin="round" stroke-miterlimit="10"/><text fill="rgb(0,0,255)" stroke="none" font-family="geogebra-sans-serif, sans-serif" font-size="16px" font-style="normal" font-weight="normal" text-decoration="normal" x="9" y="185" text-anchor="start" dominant-baseline="alphabetic" fill-opacity="1">C</text><text fill="none" stroke="rgb(255,255,255)" font-family="geogebra-sans-serif, sans-serif" font-size="16px" font-style="normal" font-weight="normal" text-decoration="normal" x="9" y="185" text-anchor="start" dominant-baseline="alphabetic" stroke-opacity="1" stroke-linejoin="bevel" stroke-miterlimit="10" stroke-width="3">C</text><text fill="rgb(0,0,255)" stroke="none" font-family="geogebra-sans-serif, sans-serif" font-size="16px" font-style="normal" font-weight="normal" text-decoration="normal" x="9" y="185" text-anchor="start" dominant-baseline="alphabetic" fill-opacity="1">C</text><path fill="rgb(0,0,255)" stroke="none" paint-order="stroke fill markers" d=" M 291.91075675879006 128.4622930926847 C 291.91075675879006 129.56686259234627 291.01532625845164 130.4622930926847 289.91075675879006 130.4622930926847 C 288.8061872591285 130.4622930926847 287.91075675879006 129.56686259234627 287.91075675879006 128.4622930926847 C 287.91075675879006 127.3577235930231 288.8061872591285 126.46229309268469 289.91075675879006 126.46229309268469 C 291.01532625845164 126.46229309268469 291.91075675879006 127.3577235930231 291.91075675879006 128.4622930926847 Z" fill-opacity="1"/><path fill="none" stroke="rgb(0,0,0)" paint-order="fill stroke markers" d=" M 291.91075675879006 128.4622930926847 C 291.91075675879006 129.56686259234627 291.01532625845164 130.4622930926847 289.91075675879006 130.4622930926847 C 288.8061872591285 130.4622930926847 287.91075675879006 129.56686259234627 287.91075675879006 128.4622930926847 C 287.91075675879006 127.3577235930231 288.8061872591285 126.46229309268469 289.91075675879006 126.46229309268469 C 291.01532625845164 126.46229309268469 291.91075675879006 127.3577235930231 291.91075675879006 128.4622930926847 Z" stroke-opacity="1" stroke-linecap="round" stroke-linejoin="round" stroke-miterlimit="10"/><text fill="rgb(0,0,255)" stroke="none" font-family="geogebra-sans-serif, sans-serif" font-size="16px" font-style="normal" font-weight="normal" text-decoration="normal" x="297" y="130" text-anchor="start" dominant-baseline="alphabetic" fill-opacity="1">D</text><text fill="none" stroke="rgb(255,255,255)" font-family="geogebra-sans-serif, sans-serif" font-size="16px" font-style="normal" font-weight="normal" text-decoration="normal" x="297" y="130" text-anchor="start" dominant-baseline="alphabetic" stroke-opacity="1" stroke-linejoin="bevel" stroke-miterlimit="10" stroke-width="3">D</text><text fill="rgb(0,0,255)" stroke="none" font-family="geogebra-sans-serif, sans-serif" font-size="16px" font-style="normal" font-weight="normal" text-decoration="normal" x="297" y="130" text-anchor="start" dominant-baseline="alphabetic" fill-opacity="1">D</text><path fill="rgb(0,0,255)" stroke="none" paint-order="stroke fill markers" d=" M 128.50020652527743 158.4128448386432 C 128.50020652527743 159.51741433830477 127.60477602493901 160.4128448386432 126.50020652527743 160.4128448386432 C 125.39563702561584 160.4128448386432 124.50020652527743 159.51741433830477 124.50020652527743 158.4128448386432 C 124.50020652527743 157.30827533898162 125.39563702561584 156.4128448386432 126.50020652527743 156.4128448386432 C 127.60477602493901 156.4128448386432 128.50020652527743 157.30827533898162 128.50020652527743 158.4128448386432 Z" fill-opacity="1"/><path fill="none" stroke="rgb(0,0,0)" paint-order="fill stroke markers" d=" M 128.50020652527743 158.4128448386432 C 128.50020652527743 159.51741433830477 127.60477602493901 160.4128448386432 126.50020652527743 160.4128448386432 C 125.39563702561584 160.4128448386432 124.50020652527743 159.51741433830477 124.50020652527743 158.4128448386432 C 124.50020652527743 157.30827533898162 125.39563702561584 156.4128448386432 126.50020652527743 156.4128448386432 C 127.60477602493901 156.4128448386432 128.50020652527743 157.30827533898162 128.50020652527743 158.4128448386432 Z" stroke-opacity="1" stroke-linecap="round" stroke-linejoin="round" stroke-miterlimit="10"/><text fill="rgb(0,0,255)" stroke="none" font-family="geogebra-sans-serif, sans-serif" font-size="16px" font-style="normal" font-weight="normal" text-decoration="normal" x="135" y="175" text-anchor="start" dominant-baseline="alphabetic" fill-opacity="1">J</text><text fill="none" stroke="rgb(255,255,255)" font-family="geogebra-sans-serif, sans-serif" font-size="16px" font-style="normal" font-weight="normal" text-decoration="normal" x="135" y="175" text-anchor="start" dominant-baseline="alphabetic" stroke-opacity="1" stroke-linejoin="bevel" stroke-miterlimit="10" stroke-width="3">J</text><text fill="rgb(0,0,255)" stroke="none" font-family="geogebra-sans-serif, sans-serif" font-size="16px" font-style="normal" font-weight="normal" text-decoration="normal" x="135" y="175" text-anchor="start" dominant-baseline="alphabetic" fill-opacity="1">J</text><path fill="rgb(0,0,255)" stroke="none" paint-order="stroke fill markers" d=" M 170.36437135463467 51.6570653920474 C 170.36437135463467 52.76163489170899 169.46894085429625 53.6570653920474 168.36437135463467 53.6570653920474 C 167.2598018549731 53.6570653920474 166.36437135463467 52.76163489170899 166.36437135463467 51.6570653920474 C 166.36437135463467 50.552495892385814 167.2598018549731 49.6570653920474 168.36437135463467 49.6570653920474 C 169.46894085429625 49.6570653920474 170.36437135463467 50.552495892385814 170.36437135463467 51.6570653920474 Z" fill-opacity="1"/><path fill="none" stroke="rgb(0,0,0)" paint-order="fill stroke markers" d=" M 170.36437135463467 51.6570653920474 C 170.36437135463467 52.76163489170899 169.46894085429625 53.6570653920474 168.36437135463467 53.6570653920474 C 167.2598018549731 53.6570653920474 166.36437135463467 52.76163489170899 166.36437135463467 51.6570653920474 C 166.36437135463467 50.552495892385814 167.2598018549731 49.6570653920474 168.36437135463467 49.6570653920474 C 169.46894085429625 49.6570653920474 170.36437135463467 50.552495892385814 170.36437135463467 51.6570653920474 Z" stroke-opacity="1" stroke-linecap="round" stroke-linejoin="round" stroke-miterlimit="10"/><text fill="rgb(0,0,255)" stroke="none" font-family="geogebra-sans-serif, sans-serif" font-size="16px" font-style="normal" font-weight="normal" text-decoration="normal" x="179" y="50" text-anchor="start" dominant-baseline="alphabetic" fill-opacity="1">A'</text><text fill="none" stroke="rgb(255,255,255)" font-family="geogebra-sans-serif, sans-serif" font-size="16px" font-style="normal" font-weight="normal" text-decoration="normal" x="179" y="50" text-anchor="start" dominant-baseline="alphabetic" stroke-opacity="1" stroke-linejoin="bevel" stroke-miterlimit="10" stroke-width="3">A'</text><text fill="rgb(0,0,255)" stroke="none" font-family="geogebra-sans-serif, sans-serif" font-size="16px" font-style="normal" font-weight="normal" text-decoration="normal" x="179" y="50" text-anchor="start" dominant-baseline="alphabetic" fill-opacity="1">A'</text><path fill="rgb(0,0,255)" stroke="none" paint-order="stroke fill markers" d=" M 166.01961829293714 151.53613411207496 C 166.01961829293714 152.64070361173654 165.12418779259872 153.53613411207496 164.01961829293714 153.53613411207496 C 162.91504879327556 153.53613411207496 162.01961829293714 152.64070361173654 162.01961829293714 151.53613411207496 C 162.01961829293714 150.43156461241338 162.91504879327556 149.53613411207496 164.01961829293714 149.53613411207496 C 165.12418779259872 149.53613411207496 166.01961829293714 150.43156461241338 166.01961829293714 151.53613411207496 Z" fill-opacity="1"/><path fill="none" stroke="rgb(0,0,0)" paint-order="fill stroke markers" d=" M 166.01961829293714 151.53613411207496 C 166.01961829293714 152.64070361173654 165.12418779259872 153.53613411207496 164.01961829293714 153.53613411207496 C 162.91504879327556 153.53613411207496 162.01961829293714 152.64070361173654 162.01961829293714 151.53613411207496 C 162.01961829293714 150.43156461241338 162.91504879327556 149.53613411207496 164.01961829293714 149.53613411207496 C 165.12418779259872 149.53613411207496 166.01961829293714 150.43156461241338 166.01961829293714 151.53613411207496 Z" stroke-opacity="1" stroke-linecap="round" stroke-linejoin="round" stroke-miterlimit="10"/><text fill="rgb(0,0,255)" stroke="none" font-family="geogebra-sans-serif, sans-serif" font-size="16px" font-style="normal" font-weight="normal" text-decoration="normal" x="170" y="141" text-anchor="start" dominant-baseline="alphabetic" fill-opacity="1">F</text><text fill="none" stroke="rgb(255,255,255)" font-family="geogebra-sans-serif, sans-serif" font-size="16px" font-style="normal" font-weight="normal" text-decoration="normal" x="170" y="141" text-anchor="start" dominant-baseline="alphabetic" stroke-opacity="1" stroke-linejoin="bevel" stroke-miterlimit="10" stroke-width="3">F</text><text fill="rgb(0,0,255)" stroke="none" font-family="geogebra-sans-serif, sans-serif" font-size="16px" font-style="normal" font-weight="normal" text-decoration="normal" x="170" y="141" text-anchor="start" dominant-baseline="alphabetic" fill-opacity="1">F</text><path fill="rgb(0,0,255)" stroke="none" paint-order="stroke fill markers" d=" M 96.54892562758312 37.982103909710986 C 96.54892562758312 39.08667340937257 95.6534951272447 39.982103909710986 94.54892562758312 39.982103909710986 C 93.44435612792152 39.982103909710986 92.54892562758312 39.08667340937257 92.54892562758312 37.982103909710986 C 92.54892562758312 36.8775344100494 93.44435612792152 35.982103909710986 94.54892562758312 35.982103909710986 C 95.6534951272447 35.982103909710986 96.54892562758312 36.8775344100494 96.54892562758312 37.982103909710986 Z" fill-opacity="1"/><path fill="none" stroke="rgb(0,0,0)" paint-order="fill stroke markers" d=" M 96.54892562758312 37.982103909710986 C 96.54892562758312 39.08667340937257 95.6534951272447 39.982103909710986 94.54892562758312 39.982103909710986 C 93.44435612792152 39.982103909710986 92.54892562758312 39.08667340937257 92.54892562758312 37.982103909710986 C 92.54892562758312 36.8775344100494 93.44435612792152 35.982103909710986 94.54892562758312 35.982103909710986 C 95.6534951272447 35.982103909710986 96.54892562758312 36.8775344100494 96.54892562758312 37.982103909710986 Z" stroke-opacity="1" stroke-linecap="round" stroke-linejoin="round" stroke-miterlimit="10"/><text fill="rgb(0,0,255)" stroke="none" font-family="geogebra-sans-serif, sans-serif" font-size="16px" font-style="normal" font-weight="normal" text-decoration="normal" x="80" y="27" text-anchor="start" dominant-baseline="alphabetic" fill-opacity="1">X</text><text fill="none" stroke="rgb(255,255,255)" font-family="geogebra-sans-serif, sans-serif" font-size="16px" font-style="normal" font-weight="normal" text-decoration="normal" x="80" y="27" text-anchor="start" dominant-baseline="alphabetic" stroke-opacity="1" stroke-linejoin="bevel" stroke-miterlimit="10" stroke-width="3">X</text><text fill="rgb(0,0,255)" stroke="none" font-family="geogebra-sans-serif, sans-serif" font-size="16px" font-style="normal" font-weight="normal" text-decoration="normal" x="80" y="27" text-anchor="start" dominant-baseline="alphabetic" fill-opacity="1">X</text><path fill="rgb(0,0,255)" stroke="none" paint-order="stroke fill markers" d=" M 90.99419623155964 165.28709928843992 C 90.99419623155964 166.3916687881015 90.09876573122122 167.28709928843992 88.99419623155964 167.28709928843992 C 87.88962673189805 167.28709928843992 86.99419623155964 166.3916687881015 86.99419623155964 165.28709928843992 C 86.99419623155964 164.18252978877834 87.88962673189805 163.28709928843992 88.99419623155964 163.28709928843992 C 90.09876573122122 163.28709928843992 90.99419623155964 164.18252978877834 90.99419623155964 165.28709928843992 Z" fill-opacity="1"/><path fill="none" stroke="rgb(0,0,0)" paint-order="fill stroke markers" d=" M 90.99419623155964 165.28709928843992 C 90.99419623155964 166.3916687881015 90.09876573122122 167.28709928843992 88.99419623155964 167.28709928843992 C 87.88962673189805 167.28709928843992 86.99419623155964 166.3916687881015 86.99419623155964 165.28709928843992 C 86.99419623155964 164.18252978877834 87.88962673189805 163.28709928843992 88.99419623155964 163.28709928843992 C 90.09876573122122 163.28709928843992 90.99419623155964 164.18252978877834 90.99419623155964 165.28709928843992 Z" stroke-opacity="1" stroke-linecap="round" stroke-linejoin="round" stroke-miterlimit="10"/><text fill="rgb(0,0,255)" stroke="none" font-family="geogebra-sans-serif, sans-serif" font-size="16px" font-style="normal" font-weight="normal" text-decoration="normal" x="72" y="159" text-anchor="start" dominant-baseline="alphabetic" fill-opacity="1">G</text><text fill="none" stroke="rgb(255,255,255)" font-family="geogebra-sans-serif, sans-serif" font-size="16px" font-style="normal" font-weight="normal" text-decoration="normal" x="72" y="159" text-anchor="start" dominant-baseline="alphabetic" stroke-opacity="1" stroke-linejoin="bevel" stroke-miterlimit="10" stroke-width="3">G</text><text fill="rgb(0,0,255)" stroke="none" font-family="geogebra-sans-serif, sans-serif" font-size="16px" font-style="normal" font-weight="normal" text-decoration="normal" x="72" y="159" text-anchor="start" dominant-baseline="alphabetic" fill-opacity="1">G</text><path fill="rgb(0,0,255)" stroke="none" paint-order="stroke fill markers" d=" M 160.45148742297172 278.84358576757546 C 160.45148742297172 279.94815526723704 159.5560569226333 280.84358576757546 158.45148742297172 280.84358576757546 C 157.34691792331014 280.84358576757546 156.45148742297172 279.94815526723704 156.45148742297172 278.84358576757546 C 156.45148742297172 277.7390162679139 157.34691792331014 276.84358576757546 158.45148742297172 276.84358576757546 C 159.5560569226333 276.84358576757546 160.45148742297172 277.7390162679139 160.45148742297172 278.84358576757546 Z" fill-opacity="1"/><path fill="none" stroke="rgb(0,0,0)" paint-order="fill stroke markers" d=" M 160.45148742297172 278.84358576757546 C 160.45148742297172 279.94815526723704 159.5560569226333 280.84358576757546 158.45148742297172 280.84358576757546 C 157.34691792331014 280.84358576757546 156.45148742297172 279.94815526723704 156.45148742297172 278.84358576757546 C 156.45148742297172 277.7390162679139 157.34691792331014 276.84358576757546 158.45148742297172 276.84358576757546 C 159.5560569226333 276.84358576757546 160.45148742297172 277.7390162679139 160.45148742297172 278.84358576757546 Z" stroke-opacity="1" stroke-linecap="round" stroke-linejoin="round" stroke-miterlimit="10"/><text fill="rgb(0,0,255)" stroke="none" font-family="geogebra-sans-serif, sans-serif" font-size="16px" font-style="normal" font-weight="normal" text-decoration="normal" x="151" y="308" text-anchor="start" dominant-baseline="alphabetic" fill-opacity="1">X'</text><text fill="none" stroke="rgb(255,255,255)" font-family="geogebra-sans-serif, sans-serif" font-size="16px" font-style="normal" font-weight="normal" text-decoration="normal" x="151" y="308" text-anchor="start" dominant-baseline="alphabetic" stroke-opacity="1" stroke-linejoin="bevel" stroke-miterlimit="10" stroke-width="3">X'</text><text fill="rgb(0,0,255)" stroke="none" font-family="geogebra-sans-serif, sans-serif" font-size="16px" font-style="normal" font-weight="normal" text-decoration="normal" x="151" y="308" text-anchor="start" dominant-baseline="alphabetic" fill-opacity="1">X'</text></g></g></svg>