<svg version="1.1" xmlns="http://www.w3.org/2000/svg" xmlns:xlink="http://www.w3.org/1999/xlink" width="342" height="239"><defs><clipPath id="zteJWJKSKInE"><path fill="none" stroke="none" d=" M 0 0 L 342 0 L 342 239 L 0 239 L 0 0 Z"/></clipPath></defs><g transform="scale(1,1)" clip-path="url(#zteJWJKSKInE)"><g><rect fill="rgb(255,255,255)" stroke="none" x="0" y="0" width="342" height="239" fill-opacity="1"/><path fill="none" stroke="rgb(0,153,255)" paint-order="fill stroke markers" d=" M 208.99999999999966 134.4999999999995 C 208.99999999999966 189.72847498307902 164.22847498307905 234.4999999999999 108.99999999999983 234.4999999999999 C 53.77152501692059 234.4999999999999 9 189.72847498307902 9 134.4999999999995 C 9 79.27152501691994 53.77152501692059 34.49999999999909 108.99999999999983 34.49999999999909 C 164.22847498307905 34.49999999999909 208.99999999999966 79.27152501691994 208.99999999999966 134.4999999999995 Z" stroke-opacity="0.6980392156862745" stroke-linecap="round" stroke-linejoin="round" stroke-miterlimit="10"/><g transform="scale(19,19)"><g transform="translate(1.4210526315789473,2.431)"><path fill="rgb(0,153,255)" stroke="none" paint-order="stroke fill markers" d=" M 0.264 -0.082 Q 0.201 0.011 0.11900000000000001 0.011 Q 0.032 0.011 0.016 -0.089 Q 0.013000000000000001 -0.109 0.013000000000000001 -0.131 Q 0.013000000000000001 -0.22 0.051000000000000004 -0.311 Q 0.082 -0.382 0.112 -0.419 Q 0.122 -0.431 0.127 -0.431 Q 0.139 -0.431 0.139 -0.419 Q 0.139 -0.41400000000000003 0.129 -0.4 Q 0.045 -0.28 0.045 -0.17500000000000002 Q 0.045 -0.08 0.109 -0.064 Q 0.12 -0.061 0.133 -0.061 Q 0.201 -0.061 0.257 -0.138 Q 0.264 -0.145 0.266 -0.165 Q 0.276 -0.23800000000000002 0.28700000000000003 -0.266 Q 0.3 -0.291 0.315 -0.291 Q 0.334 -0.291 0.336 -0.268 Q 0.336 -0.24 0.308 -0.168 Q 0.306 -0.161 0.303 -0.155 Q 0.297 -0.14400000000000002 0.297 -0.139 Q 0.297 -0.111 0.317 -0.084 Q 0.335 -0.061 0.372 -0.061 Q 0.449 -0.061 0.511 -0.14400000000000002 Q 0.562 -0.214 0.562 -0.28 Q 0.562 -0.331 0.527 -0.367 Q 0.512 -0.38 0.512 -0.394 Q 0.512 -0.419 0.539 -0.435 Q 0.55 -0.442 0.562 -0.442 Q 0.599 -0.442 0.604 -0.388 Q 0.605 -0.377 0.605 -0.371 Q 0.605 -0.307 0.5750000000000001 -0.213 Q 0.55 -0.136 0.511 -0.082 Q 0.443 0.011 0.358 0.011 Q 0.277 0.011 0.264 -0.082 Z"/></g><g transform="translate(2.0430526315789472,2.581) scale(0.7,0.7)"><path fill="rgb(0,153,255)" stroke="none" paint-order="stroke fill markers" d=" M 0.294 -0.64 L 0.294 -0.079 Q 0.294 -0.049 0.306 -0.041 Q 0.323 -0.031 0.387 -0.031 L 0.419 -0.031 L 0.419 0 Q 0.384 -0.003 0.257 -0.003 Q 0.13 -0.003 0.095 0 L 0.095 -0.031 L 0.127 -0.031 Q 0.20400000000000001 -0.031 0.215 -0.049 L 0.216 -0.05 Q 0.22 -0.058 0.22 -0.079 L 0.22 -0.597 Q 0.168 -0.5710000000000001 0.089 -0.5710000000000001 L 0.089 -0.602 Q 0.209 -0.602 0.271 -0.666 Q 0.29 -0.666 0.293 -0.659 L 0.293 -0.659 L 0.293 -0.658 Q 0.294 -0.655 0.294 -0.64 Z"/></g></g><path fill="none" stroke="rgb(0,153,255)" paint-order="fill stroke markers" d=" M 308.99999999999955 134.4999999999995 C 308.99999999999955 171.31898332205253 279.1523166553858 201.1666666666664 242.33333333333297 201.1666666666664 C 205.51435001128013 201.1666666666664 175.6666666666664 171.31898332205253 175.6666666666664 134.4999999999995 C 175.6666666666664 97.68101667794646 205.51435001128013 67.83333333333256 242.33333333333297 67.83333333333256 C 279.1523166553858 67.83333333333256 308.99999999999955 97.68101667794646 308.99999999999955 134.4999999999995 Z" stroke-opacity="0.6980392156862745" stroke-linecap="round" stroke-linejoin="round" stroke-miterlimit="10"/><g transform="scale(19,19)"><g transform="translate(12.842105263157896,3.0625789473684213)"><path fill="rgb(0,153,255)" stroke="none" paint-order="stroke fill markers" d=" M 0.264 -0.082 Q 0.201 0.011 0.11900000000000001 0.011 Q 0.032 0.011 0.016 -0.089 Q 0.013000000000000001 -0.109 0.013000000000000001 -0.131 Q 0.013000000000000001 -0.22 0.051000000000000004 -0.311 Q 0.082 -0.382 0.112 -0.419 Q 0.122 -0.431 0.127 -0.431 Q 0.139 -0.431 0.139 -0.419 Q 0.139 -0.41400000000000003 0.129 -0.4 Q 0.045 -0.28 0.045 -0.17500000000000002 Q 0.045 -0.08 0.109 -0.064 Q 0.12 -0.061 0.133 -0.061 Q 0.201 -0.061 0.257 -0.138 Q 0.264 -0.145 0.266 -0.165 Q 0.276 -0.23800000000000002 0.28700000000000003 -0.266 Q 0.3 -0.291 0.315 -0.291 Q 0.334 -0.291 0.336 -0.268 Q 0.336 -0.24 0.308 -0.168 Q 0.306 -0.161 0.303 -0.155 Q 0.297 -0.14400000000000002 0.297 -0.139 Q 0.297 -0.111 0.317 -0.084 Q 0.335 -0.061 0.372 -0.061 Q 0.449 -0.061 0.511 -0.14400000000000002 Q 0.562 -0.214 0.562 -0.28 Q 0.562 -0.331 0.527 -0.367 Q 0.512 -0.38 0.512 -0.394 Q 0.512 -0.419 0.539 -0.435 Q 0.55 -0.442 0.562 -0.442 Q 0.599 -0.442 0.604 -0.388 Q 0.605 -0.377 0.605 -0.371 Q 0.605 -0.307 0.5750000000000001 -0.213 Q 0.55 -0.136 0.511 -0.082 Q 0.443 0.011 0.358 0.011 Q 0.277 0.011 0.264 -0.082 Z"/></g><g transform="translate(13.464105263157895,3.212578947368421) scale(0.7,0.7)"><path fill="rgb(0,153,255)" stroke="none" paint-order="stroke fill markers" d=" M 0.449 -0.17400000000000002 L 0.449 -0.17400000000000002 L 0.421 0 L 0.05 0 Q 0.05 -0.025 0.056 -0.032 L 0.061 -0.037 L 0.253 -0.251 Q 0.358 -0.369 0.358 -0.47200000000000003 Q 0.358 -0.561 0.304 -0.607 L 0.303 -0.608 L 0.302 -0.608 Q 0.27 -0.635 0.224 -0.635 Q 0.152 -0.635 0.109 -0.5730000000000001 Q 0.097 -0.555 0.089 -0.533 Q 0.092 -0.534 0.10200000000000001 -0.534 Q 0.14200000000000002 -0.534 0.153 -0.498 L 0.153 -0.497 Q 0.155 -0.49 0.155 -0.482 Q 0.155 -0.442 0.117 -0.431 Q 0.109 -0.429 0.10300000000000001 -0.429 Q 0.066 -0.429 0.054 -0.46 Q 0.05 -0.47100000000000003 0.05 -0.485 Q 0.05 -0.562 0.109 -0.617 Q 0.162 -0.666 0.23700000000000002 -0.666 Q 0.34700000000000003 -0.666 0.40800000000000003 -0.592 Q 0.443 -0.549 0.448 -0.49 Q 0.449 -0.481 0.449 -0.47200000000000003 Q 0.449 -0.399 0.394 -0.333 Q 0.365 -0.299 0.304 -0.243 L 0.243 -0.189 L 0.233 -0.18 L 0.127 -0.077 L 0.307 -0.077 Q 0.395 -0.077 0.402 -0.085 Q 0.41200000000000003 -0.099 0.424 -0.17400000000000002 L 0.449 -0.17400000000000002 Z"/></g></g><path fill="none" stroke="rgb(255,85,0)" paint-order="fill stroke markers" d=" M 140.39064093106995 56.49787494608544 L 136.43767390497143 65.6834098619506" stroke-opacity="0.6980392156862745" stroke-linecap="round" stroke-linejoin="round" stroke-miterlimit="10" stroke-width="1.5"/><path fill="none" stroke="rgb(255,85,0)" paint-order="fill stroke markers" d=" M 144.06485489741604 58.079061756524844 L 140.11188787131752 67.26459667239" stroke-opacity="0.6980392156862745" stroke-linecap="round" stroke-linejoin="round" stroke-miterlimit="10" stroke-width="1.5"/><path fill="none" stroke="rgb(255,85,0)" paint-order="fill stroke markers" d=" M 84.00252880238781 37.67476344606885 L 196.4999999999997 86.0877081724066" stroke-opacity="0.6980392156862745" stroke-linecap="round" stroke-linejoin="round" stroke-miterlimit="10" stroke-width="1.5"/><path fill="none" stroke="rgb(255,85,0)" paint-order="fill stroke markers" d=" M 252.88937651850725 104.91136379874065 L 248.93640949240873 114.09689871460581" stroke-opacity="0.6980392156862745" stroke-linecap="round" stroke-linejoin="round" stroke-miterlimit="10" stroke-width="1.5"/><path fill="none" stroke="rgb(255,85,0)" paint-order="fill stroke markers" d=" M 256.5635904848533 106.49255060918004 L 252.61062345875482 115.6780855250452" stroke-opacity="0.6980392156862745" stroke-linecap="round" stroke-linejoin="round" stroke-miterlimit="10" stroke-width="1.5"/><path fill="none" stroke="rgb(255,85,0)" paint-order="fill stroke markers" d=" M 196.4999999999997 86.0877081724066 L 308.99999997726235 134.50174115137926" stroke-opacity="0.6980392156862745" stroke-linecap="round" stroke-linejoin="round" stroke-miterlimit="10" stroke-width="1.5"/><path fill="none" stroke="rgb(255,85,0)" paint-order="fill stroke markers" d=" M 308.99999997726235 134.50174115137926 L 326.5693255786685 142.0626470114389" stroke-opacity="0.6980392156862745" stroke-linejoin="round" stroke-miterlimit="10" stroke-width="1.5" stroke-dasharray="5.5,4"/><path fill="none" stroke="rgb(255,85,0)" paint-order="fill stroke markers" d=" M 84.00252880238781 37.67476344606885 L 59.27570807936849 27.03365131992348" stroke-opacity="0.6980392156862745" stroke-linejoin="round" stroke-miterlimit="10" stroke-width="1.5" stroke-dasharray="5.5,4"/><path fill="rgb(0,0,255)" stroke="none" paint-order="stroke fill markers" d=" M 110.99999999999983 134.4999999999995 C 110.99999999999983 135.60456949966107 110.10456949966141 136.4999999999995 108.99999999999983 136.4999999999995 C 107.89543050033824 136.4999999999995 106.99999999999983 135.60456949966107 106.99999999999983 134.4999999999995 C 106.99999999999983 133.3954305003379 107.89543050033824 132.4999999999995 108.99999999999983 132.4999999999995 C 110.10456949966141 132.4999999999995 110.99999999999983 133.3954305003379 110.99999999999983 134.4999999999995 Z" fill-opacity="1"/><path fill="none" stroke="rgb(0,0,0)" paint-order="fill stroke markers" d=" M 110.99999999999983 134.4999999999995 C 110.99999999999983 135.60456949966107 110.10456949966141 136.4999999999995 108.99999999999983 136.4999999999995 C 107.89543050033824 136.4999999999995 106.99999999999983 135.60456949966107 106.99999999999983 134.4999999999995 C 106.99999999999983 133.3954305003379 107.89543050033824 132.4999999999995 108.99999999999983 132.4999999999995 C 110.10456949966141 132.4999999999995 110.99999999999983 133.3954305003379 110.99999999999983 134.4999999999995 Z" stroke-opacity="1" stroke-linecap="round" stroke-linejoin="round" stroke-miterlimit="10"/><text fill="rgb(0,0,255)" stroke="none" font-family="geogebra-sans-serif, sans-serif" font-size="16px" font-style="normal" font-weight="normal" text-decoration="normal" x="90" y="153" text-anchor="start" dominant-baseline="alphabetic" fill-opacity="1">O</text><text fill="none" stroke="rgb(255,255,255)" font-family="geogebra-sans-serif, sans-serif" font-size="16px" font-style="normal" font-weight="normal" text-decoration="normal" x="90" y="153" text-anchor="start" dominant-baseline="alphabetic" stroke-opacity="1" stroke-linejoin="bevel" stroke-miterlimit="10" stroke-width="3">O</text><text fill="rgb(0,0,255)" stroke="none" font-family="geogebra-sans-serif, sans-serif" font-size="16px" font-style="normal" font-weight="normal" text-decoration="normal" x="90" y="153" text-anchor="start" dominant-baseline="alphabetic" fill-opacity="1">O</text><text fill="rgb(0,0,255)" stroke="none" font-family="geogebra-sans-serif, sans-serif" font-size="14px" font-style="normal" font-weight="normal" text-decoration="normal" x="102" y="160" text-anchor="start" dominant-baseline="alphabetic" fill-opacity="1">1</text><text fill="none" stroke="rgb(255,255,255)" font-family="geogebra-sans-serif, sans-serif" font-size="14px" font-style="normal" font-weight="normal" text-decoration="normal" x="102" y="160" text-anchor="start" dominant-baseline="alphabetic" stroke-opacity="1" stroke-linejoin="bevel" stroke-miterlimit="10" stroke-width="3">1</text><text fill="rgb(0,0,255)" stroke="none" font-family="geogebra-sans-serif, sans-serif" font-size="14px" font-style="normal" font-weight="normal" text-decoration="normal" x="102" y="160" text-anchor="start" dominant-baseline="alphabetic" fill-opacity="1">1</text><path fill="rgb(0,0,255)" stroke="none" paint-order="stroke fill markers" d=" M 244.33333333333294 134.4999999999995 C 244.33333333333294 135.60456949966107 243.43790283299452 136.4999999999995 242.33333333333294 136.4999999999995 C 241.22876383367137 136.4999999999995 240.33333333333294 135.60456949966107 240.33333333333294 134.4999999999995 C 240.33333333333294 133.3954305003379 241.22876383367137 132.4999999999995 242.33333333333294 132.4999999999995 C 243.43790283299452 132.4999999999995 244.33333333333294 133.3954305003379 244.33333333333294 134.4999999999995 Z" fill-opacity="1"/><path fill="none" stroke="rgb(0,0,0)" paint-order="fill stroke markers" d=" M 244.33333333333294 134.4999999999995 C 244.33333333333294 135.60456949966107 243.43790283299452 136.4999999999995 242.33333333333294 136.4999999999995 C 241.22876383367137 136.4999999999995 240.33333333333294 135.60456949966107 240.33333333333294 134.4999999999995 C 240.33333333333294 133.3954305003379 241.22876383367137 132.4999999999995 242.33333333333294 132.4999999999995 C 243.43790283299452 132.4999999999995 244.33333333333294 133.3954305003379 244.33333333333294 134.4999999999995 Z" stroke-opacity="1" stroke-linecap="round" stroke-linejoin="round" stroke-miterlimit="10"/><text fill="rgb(0,0,255)" stroke="none" font-family="geogebra-sans-serif, sans-serif" font-size="16px" font-style="normal" font-weight="normal" text-decoration="normal" x="235" y="159" text-anchor="start" dominant-baseline="alphabetic" fill-opacity="1">O</text><text fill="none" stroke="rgb(255,255,255)" font-family="geogebra-sans-serif, sans-serif" font-size="16px" font-style="normal" font-weight="normal" text-decoration="normal" x="235" y="159" text-anchor="start" dominant-baseline="alphabetic" stroke-opacity="1" stroke-linejoin="bevel" stroke-miterlimit="10" stroke-width="3">O</text><text fill="rgb(0,0,255)" stroke="none" font-family="geogebra-sans-serif, sans-serif" font-size="16px" font-style="normal" font-weight="normal" text-decoration="normal" x="235" y="159" text-anchor="start" dominant-baseline="alphabetic" fill-opacity="1">O</text><text fill="rgb(0,0,255)" stroke="none" font-family="geogebra-sans-serif, sans-serif" font-size="14px" font-style="normal" font-weight="normal" text-decoration="normal" x="247" y="166" text-anchor="start" dominant-baseline="alphabetic" fill-opacity="1">2</text><text fill="none" stroke="rgb(255,255,255)" font-family="geogebra-sans-serif, sans-serif" font-size="14px" font-style="normal" font-weight="normal" text-decoration="normal" x="247" y="166" text-anchor="start" dominant-baseline="alphabetic" stroke-opacity="1" stroke-linejoin="bevel" stroke-miterlimit="10" stroke-width="3">2</text><text fill="rgb(0,0,255)" stroke="none" font-family="geogebra-sans-serif, sans-serif" font-size="14px" font-style="normal" font-weight="normal" text-decoration="normal" x="247" y="166" text-anchor="start" dominant-baseline="alphabetic" fill-opacity="1">2</text><path fill="rgb(0,0,255)" stroke="none" paint-order="stroke fill markers" d=" M 198.4999999999997 86.0877081724066 C 198.4999999999997 87.19227767206817 197.60456949966127 88.0877081724066 196.4999999999997 88.0877081724066 C 195.3954305003381 88.0877081724066 194.4999999999997 87.19227767206817 194.4999999999997 86.0877081724066 C 194.4999999999997 84.983138672745 195.3954305003381 84.0877081724066 196.4999999999997 84.0877081724066 C 197.60456949966127 84.0877081724066 198.4999999999997 84.983138672745 198.4999999999997 86.0877081724066 Z" fill-opacity="1"/><path fill="none" stroke="rgb(0,0,0)" paint-order="fill stroke markers" d=" M 198.4999999999997 86.0877081724066 C 198.4999999999997 87.19227767206817 197.60456949966127 88.0877081724066 196.4999999999997 88.0877081724066 C 195.3954305003381 88.0877081724066 194.4999999999997 87.19227767206817 194.4999999999997 86.0877081724066 C 194.4999999999997 84.983138672745 195.3954305003381 84.0877081724066 196.4999999999997 84.0877081724066 C 197.60456949966127 84.0877081724066 198.4999999999997 84.983138672745 198.4999999999997 86.0877081724066 Z" stroke-opacity="1" stroke-linecap="round" stroke-linejoin="round" stroke-miterlimit="10"/><text fill="rgb(0,0,255)" stroke="none" font-family="geogebra-sans-serif, sans-serif" font-size="16px" font-style="normal" font-weight="normal" text-decoration="normal" x="190" y="70" text-anchor="start" dominant-baseline="alphabetic" fill-opacity="1">P</text><text fill="none" stroke="rgb(255,255,255)" font-family="geogebra-sans-serif, sans-serif" font-size="16px" font-style="normal" font-weight="normal" text-decoration="normal" x="190" y="70" text-anchor="start" dominant-baseline="alphabetic" stroke-opacity="1" stroke-linejoin="bevel" stroke-miterlimit="10" stroke-width="3">P</text><text fill="rgb(0,0,255)" stroke="none" font-family="geogebra-sans-serif, sans-serif" font-size="16px" font-style="normal" font-weight="normal" text-decoration="normal" x="190" y="70" text-anchor="start" dominant-baseline="alphabetic" fill-opacity="1">P</text><path fill="rgb(0,0,255)" stroke="none" paint-order="stroke fill markers" d=" M 86.00252880238781 37.67476344606885 C 86.00252880238781 38.77933294573044 85.1070983020494 39.67476344606885 84.00252880238781 39.67476344606885 C 82.89795930272622 39.67476344606885 82.00252880238781 38.77933294573044 82.00252880238781 37.67476344606885 C 82.00252880238781 36.570193946407265 82.89795930272622 35.67476344606885 84.00252880238781 35.67476344606885 C 85.1070983020494 35.67476344606885 86.00252880238781 36.570193946407265 86.00252880238781 37.67476344606885 Z" fill-opacity="1"/><path fill="none" stroke="rgb(0,0,0)" paint-order="fill stroke markers" d=" M 86.00252880238781 37.67476344606885 C 86.00252880238781 38.77933294573044 85.1070983020494 39.67476344606885 84.00252880238781 39.67476344606885 C 82.89795930272622 39.67476344606885 82.00252880238781 38.77933294573044 82.00252880238781 37.67476344606885 C 82.00252880238781 36.570193946407265 82.89795930272622 35.67476344606885 84.00252880238781 35.67476344606885 C 85.1070983020494 35.67476344606885 86.00252880238781 36.570193946407265 86.00252880238781 37.67476344606885 Z" stroke-opacity="1" stroke-linecap="round" stroke-linejoin="round" stroke-miterlimit="10"/><text fill="rgb(0,0,255)" stroke="none" font-family="geogebra-sans-serif, sans-serif" font-size="16px" font-style="normal" font-weight="normal" text-decoration="normal" x="80" y="25" text-anchor="start" dominant-baseline="alphabetic" fill-opacity="1">A</text><text fill="none" stroke="rgb(255,255,255)" font-family="geogebra-sans-serif, sans-serif" font-size="16px" font-style="normal" font-weight="normal" text-decoration="normal" x="80" y="25" text-anchor="start" dominant-baseline="alphabetic" stroke-opacity="1" stroke-linejoin="bevel" stroke-miterlimit="10" stroke-width="3">A</text><text fill="rgb(0,0,255)" stroke="none" font-family="geogebra-sans-serif, sans-serif" font-size="16px" font-style="normal" font-weight="normal" text-decoration="normal" x="80" y="25" text-anchor="start" dominant-baseline="alphabetic" fill-opacity="1">A</text><path fill="rgb(0,0,255)" stroke="none" paint-order="stroke fill markers" d=" M 310.99999997726235 134.50174115137926 C 310.99999997726235 135.60631065104084 310.1045694769239 136.50174115137926 308.99999997726235 136.50174115137926 C 307.89543047760077 136.50174115137926 306.99999997726235 135.60631065104084 306.99999997726235 134.50174115137926 C 306.99999997726235 133.39717165171768 307.89543047760077 132.50174115137926 308.99999997726235 132.50174115137926 C 310.1045694769239 132.50174115137926 310.99999997726235 133.39717165171768 310.99999997726235 134.50174115137926 Z" fill-opacity="1"/><path fill="none" stroke="rgb(0,0,0)" paint-order="fill stroke markers" d=" M 310.99999997726235 134.50174115137926 C 310.99999997726235 135.60631065104084 310.1045694769239 136.50174115137926 308.99999997726235 136.50174115137926 C 307.89543047760077 136.50174115137926 306.99999997726235 135.60631065104084 306.99999997726235 134.50174115137926 C 306.99999997726235 133.39717165171768 307.89543047760077 132.50174115137926 308.99999997726235 132.50174115137926 C 310.1045694769239 132.50174115137926 310.99999997726235 133.39717165171768 310.99999997726235 134.50174115137926 Z" stroke-opacity="1" stroke-linecap="round" stroke-linejoin="round" stroke-miterlimit="10"/><text fill="rgb(0,0,255)" stroke="none" font-family="geogebra-sans-serif, sans-serif" font-size="16px" font-style="normal" font-weight="normal" text-decoration="normal" x="317" y="128" text-anchor="start" dominant-baseline="alphabetic" fill-opacity="1">B</text><text fill="none" stroke="rgb(255,255,255)" font-family="geogebra-sans-serif, sans-serif" font-size="16px" font-style="normal" font-weight="normal" text-decoration="normal" x="317" y="128" text-anchor="start" dominant-baseline="alphabetic" stroke-opacity="1" stroke-linejoin="bevel" stroke-miterlimit="10" stroke-width="3">B</text><text fill="rgb(0,0,255)" stroke="none" font-family="geogebra-sans-serif, sans-serif" font-size="16px" font-style="normal" font-weight="normal" text-decoration="normal" x="317" y="128" text-anchor="start" dominant-baseline="alphabetic" fill-opacity="1">B</text></g></g></svg>