<svg version="1.1" xmlns="http://www.w3.org/2000/svg" xmlns:xlink="http://www.w3.org/1999/xlink" width="510" height="300"><defs><clipPath id="mqBxinkUuOOE"><path fill="none" stroke="none" d=" M 0 0 L 510 0 L 510 300 L 0 300 L 0 0 Z"/></clipPath></defs><g transform="scale(1,1)" clip-path="url(#mqBxinkUuOOE)"><g><rect fill="rgb(255,255,255)" stroke="none" x="0" y="0" width="510" height="300" fill-opacity="1"/><path fill="rgb(244,0,153)" stroke="none" paint-order="stroke fill markers" fill-rule="evenodd" d=" M 237.00000000000034 131.00000000000006 L 337.0000000000002 265.0000000000003 L 471.00000000000006 165.00000000000009 L 371.0000000000002 30.999999999999886 Z" fill-opacity="0.09803921568627451"/><path fill="none" stroke="rgb(244,0,153)" paint-order="fill stroke markers" d=" M 237.00000000000034 131.00000000000006 L 337.0000000000002 265.0000000000003 L 471.00000000000006 165.00000000000009 L 371.0000000000002 30.999999999999886 Z" stroke-opacity="0.6980392156862745" stroke-linecap="round" stroke-linejoin="round" stroke-miterlimit="10" stroke-width="1.5"/><path fill="rgb(153,51,255)" stroke="none" paint-order="stroke fill markers" fill-rule="evenodd" d=" M 170.00000000000045 264.8333333333336 L 237.00000000000034 131.00000000000006 L 103.16666666666708 63.99999999999994 L 36.16666666666731 197.8333333333335 Z" fill-opacity="0.09803921568627451"/><path fill="none" stroke="rgb(153,51,255)" paint-order="fill stroke markers" d=" M 170.00000000000045 264.8333333333336 L 237.00000000000034 131.00000000000006 L 103.16666666666708 63.99999999999994 L 36.16666666666731 197.8333333333335 Z" stroke-opacity="0.6980392156862745" stroke-linecap="round" stroke-linejoin="round" stroke-miterlimit="10" stroke-width="1.5"/><path fill="rgb(255,0,0)" stroke="none" paint-order="stroke fill markers" fill-rule="evenodd" d=" M 253.5833333333337 181.4166666666668 L 243.57335827844045 191.40668165166 L 253.56337326343362 201.41665670655462 L 263.57334831832685 191.4266417215601 L 253.5833333333337 181.4166666666668" fill-opacity="0.09803921568627451"/><path fill="none" stroke="rgb(255,0,0)" paint-order="fill stroke markers" d=" M 253.5833333333337 181.4166666666668 L 243.57335827844045 191.40668165166 L 253.56337326343362 201.41665670655462 L 263.57334831832685 191.4266417215601 L 253.5833333333337 181.4166666666668" stroke-opacity="0.6980392156862745" stroke-linecap="round" stroke-linejoin="round" stroke-miterlimit="10" stroke-width="1.5"/><path fill="none" stroke="rgb(0,100,0)" paint-order="fill stroke markers" d=" M 237.00000000000034 131.00000000000006 L 170.00000000000045 264.8333333333336" stroke-opacity="0.6980392156862745" stroke-linecap="round" stroke-linejoin="round" stroke-miterlimit="10"/><path fill="none" stroke="rgb(0,100,0)" paint-order="fill stroke markers" d=" M 170.00000000000045 264.8333333333336 L 337.0000000000002 265.0000000000003" stroke-opacity="0.6980392156862745" stroke-linecap="round" stroke-linejoin="round" stroke-miterlimit="10"/><path fill="none" stroke="rgb(0,100,0)" paint-order="fill stroke markers" d=" M 337.0000000000002 265.0000000000003 L 237.00000000000034 131.00000000000006" stroke-opacity="0.6980392156862745" stroke-linecap="round" stroke-linejoin="round" stroke-miterlimit="10"/><path fill="none" stroke="rgb(244,0,153)" paint-order="fill stroke markers" d=" M 237.00000000000034 131.00000000000006 L 337.0000000000002 265.0000000000003" stroke-opacity="0.6980392156862745" stroke-linecap="round" stroke-linejoin="round" stroke-miterlimit="10" stroke-width="1.5"/><path fill="none" stroke="rgb(244,0,153)" paint-order="fill stroke markers" d=" M 337.0000000000002 265.0000000000003 L 471.00000000000006 165.00000000000009" stroke-opacity="0.6980392156862745" stroke-linecap="round" stroke-linejoin="round" stroke-miterlimit="10" stroke-width="1.5"/><path fill="none" stroke="rgb(244,0,153)" paint-order="fill stroke markers" d=" M 471.00000000000006 165.00000000000009 L 371.0000000000002 30.999999999999886" stroke-opacity="0.6980392156862745" stroke-linecap="round" stroke-linejoin="round" stroke-miterlimit="10" stroke-width="1.5"/><path fill="none" stroke="rgb(244,0,153)" paint-order="fill stroke markers" d=" M 371.0000000000002 30.999999999999886 L 237.00000000000034 131.00000000000006" stroke-opacity="0.6980392156862745" stroke-linecap="round" stroke-linejoin="round" stroke-miterlimit="10" stroke-width="1.5"/><path fill="none" stroke="rgb(153,51,255)" paint-order="fill stroke markers" d=" M 170.00000000000045 264.8333333333336 L 237.00000000000034 131.00000000000006" stroke-opacity="0.6980392156862745" stroke-linecap="round" stroke-linejoin="round" stroke-miterlimit="10" stroke-width="1.5"/><path fill="none" stroke="rgb(153,51,255)" paint-order="fill stroke markers" d=" M 237.00000000000034 131.00000000000006 L 103.16666666666708 63.99999999999994" stroke-opacity="0.6980392156862745" stroke-linecap="round" stroke-linejoin="round" stroke-miterlimit="10" stroke-width="1.5"/><path fill="none" stroke="rgb(153,51,255)" paint-order="fill stroke markers" d=" M 103.16666666666708 63.99999999999994 L 36.16666666666731 197.8333333333335" stroke-opacity="0.6980392156862745" stroke-linecap="round" stroke-linejoin="round" stroke-miterlimit="10" stroke-width="1.5"/><path fill="none" stroke="rgb(153,51,255)" paint-order="fill stroke markers" d=" M 36.16666666666731 197.8333333333335 L 170.00000000000045 264.8333333333336" stroke-opacity="0.6980392156862745" stroke-linecap="round" stroke-linejoin="round" stroke-miterlimit="10" stroke-width="1.5"/><path fill="none" stroke="rgb(102,102,102)" paint-order="fill stroke markers" d=" M 36.16666666666731 197.8333333333335 L 471.00000000000006 165.00000000000009" stroke-opacity="0.6980392156862745" stroke-linejoin="round" stroke-miterlimit="10" stroke-dasharray="5,4"/><path fill="none" stroke="rgb(102,102,102)" paint-order="fill stroke markers" d=" M 253.5833333333337 181.4166666666668 L 170.00000000000045 264.8333333333336" stroke-opacity="0.6980392156862745" stroke-linejoin="round" stroke-miterlimit="10" stroke-dasharray="5,4"/><path fill="none" stroke="rgb(102,102,102)" paint-order="fill stroke markers" d=" M 253.5833333333337 181.4166666666668 L 337.0000000000002 265.0000000000003" stroke-opacity="0.6980392156862745" stroke-linejoin="round" stroke-miterlimit="10" stroke-dasharray="5,4"/><path fill="rgb(0,0,255)" stroke="none" paint-order="stroke fill markers" d=" M 239.00000000000034 131.00000000000006 C 239.00000000000034 132.10456949966164 238.10456949966192 133.00000000000006 237.00000000000034 133.00000000000006 C 235.89543050033876 133.00000000000006 235.00000000000034 132.10456949966164 235.00000000000034 131.00000000000006 C 235.00000000000034 129.89543050033848 235.89543050033876 129.00000000000006 237.00000000000034 129.00000000000006 C 238.10456949966192 129.00000000000006 239.00000000000034 129.89543050033848 239.00000000000034 131.00000000000006 Z" fill-opacity="1"/><path fill="none" stroke="rgb(0,0,0)" paint-order="fill stroke markers" d=" M 239.00000000000034 131.00000000000006 C 239.00000000000034 132.10456949966164 238.10456949966192 133.00000000000006 237.00000000000034 133.00000000000006 C 235.89543050033876 133.00000000000006 235.00000000000034 132.10456949966164 235.00000000000034 131.00000000000006 C 235.00000000000034 129.89543050033848 235.89543050033876 129.00000000000006 237.00000000000034 129.00000000000006 C 238.10456949966192 129.00000000000006 239.00000000000034 129.89543050033848 239.00000000000034 131.00000000000006 Z" stroke-opacity="1" stroke-linecap="round" stroke-linejoin="round" stroke-miterlimit="10"/><text fill="rgb(0,0,255)" stroke="none" font-family="geogebra-sans-serif, sans-serif" font-size="16px" font-style="normal" font-weight="normal" text-decoration="normal" x="231" y="112" text-anchor="start" dominant-baseline="alphabetic" fill-opacity="1">A</text><text fill="none" stroke="rgb(255,255,255)" font-family="geogebra-sans-serif, sans-serif" font-size="16px" font-style="normal" font-weight="normal" text-decoration="normal" x="231" y="112" text-anchor="start" dominant-baseline="alphabetic" stroke-opacity="1" stroke-linejoin="bevel" stroke-miterlimit="10" stroke-width="3">A</text><text fill="rgb(0,0,255)" stroke="none" font-family="geogebra-sans-serif, sans-serif" font-size="16px" font-style="normal" font-weight="normal" text-decoration="normal" x="231" y="112" text-anchor="start" dominant-baseline="alphabetic" fill-opacity="1">A</text><path fill="rgb(0,0,255)" stroke="none" paint-order="stroke fill markers" d=" M 172.00000000000045 264.8333333333336 C 172.00000000000045 265.9379028329952 171.10456949966203 266.8333333333336 170.00000000000045 266.8333333333336 C 168.89543050033888 266.8333333333336 168.00000000000045 265.9379028329952 168.00000000000045 264.8333333333336 C 168.00000000000045 263.728763833672 168.89543050033888 262.8333333333336 170.00000000000045 262.8333333333336 C 171.10456949966203 262.8333333333336 172.00000000000045 263.728763833672 172.00000000000045 264.8333333333336 Z" fill-opacity="1"/><path fill="none" stroke="rgb(0,0,0)" paint-order="fill stroke markers" d=" M 172.00000000000045 264.8333333333336 C 172.00000000000045 265.9379028329952 171.10456949966203 266.8333333333336 170.00000000000045 266.8333333333336 C 168.89543050033888 266.8333333333336 168.00000000000045 265.9379028329952 168.00000000000045 264.8333333333336 C 168.00000000000045 263.728763833672 168.89543050033888 262.8333333333336 170.00000000000045 262.8333333333336 C 171.10456949966203 262.8333333333336 172.00000000000045 263.728763833672 172.00000000000045 264.8333333333336 Z" stroke-opacity="1" stroke-linecap="round" stroke-linejoin="round" stroke-miterlimit="10"/><text fill="rgb(0,0,255)" stroke="none" font-family="geogebra-sans-serif, sans-serif" font-size="16px" font-style="normal" font-weight="normal" text-decoration="normal" x="159" y="285" text-anchor="start" dominant-baseline="alphabetic" fill-opacity="1">B</text><text fill="none" stroke="rgb(255,255,255)" font-family="geogebra-sans-serif, sans-serif" font-size="16px" font-style="normal" font-weight="normal" text-decoration="normal" x="159" y="285" text-anchor="start" dominant-baseline="alphabetic" stroke-opacity="1" stroke-linejoin="bevel" stroke-miterlimit="10" stroke-width="3">B</text><text fill="rgb(0,0,255)" stroke="none" font-family="geogebra-sans-serif, sans-serif" font-size="16px" font-style="normal" font-weight="normal" text-decoration="normal" x="159" y="285" text-anchor="start" dominant-baseline="alphabetic" fill-opacity="1">B</text><path fill="rgb(0,0,255)" stroke="none" paint-order="stroke fill markers" d=" M 339.0000000000002 265.0000000000003 C 339.0000000000002 266.10456949966186 338.1045694996618 267.0000000000003 337.0000000000002 267.0000000000003 C 335.89543050033865 267.0000000000003 335.0000000000002 266.10456949966186 335.0000000000002 265.0000000000003 C 335.0000000000002 263.8954305003387 335.89543050033865 263.0000000000003 337.0000000000002 263.0000000000003 C 338.1045694996618 263.0000000000003 339.0000000000002 263.8954305003387 339.0000000000002 265.0000000000003 Z" fill-opacity="1"/><path fill="none" stroke="rgb(0,0,0)" paint-order="fill stroke markers" d=" M 339.0000000000002 265.0000000000003 C 339.0000000000002 266.10456949966186 338.1045694996618 267.0000000000003 337.0000000000002 267.0000000000003 C 335.89543050033865 267.0000000000003 335.0000000000002 266.10456949966186 335.0000000000002 265.0000000000003 C 335.0000000000002 263.8954305003387 335.89543050033865 263.0000000000003 337.0000000000002 263.0000000000003 C 338.1045694996618 263.0000000000003 339.0000000000002 263.8954305003387 339.0000000000002 265.0000000000003 Z" stroke-opacity="1" stroke-linecap="round" stroke-linejoin="round" stroke-miterlimit="10"/><text fill="rgb(0,0,255)" stroke="none" font-family="geogebra-sans-serif, sans-serif" font-size="16px" font-style="normal" font-weight="normal" text-decoration="normal" x="335" y="283" text-anchor="start" dominant-baseline="alphabetic" fill-opacity="1">C</text><text fill="none" stroke="rgb(255,255,255)" font-family="geogebra-sans-serif, sans-serif" font-size="16px" font-style="normal" font-weight="normal" text-decoration="normal" x="335" y="283" text-anchor="start" dominant-baseline="alphabetic" stroke-opacity="1" stroke-linejoin="bevel" stroke-miterlimit="10" stroke-width="3">C</text><text fill="rgb(0,0,255)" stroke="none" font-family="geogebra-sans-serif, sans-serif" font-size="16px" font-style="normal" font-weight="normal" text-decoration="normal" x="335" y="283" text-anchor="start" dominant-baseline="alphabetic" fill-opacity="1">C</text><path fill="rgb(0,0,255)" stroke="none" paint-order="stroke fill markers" d=" M 473.00000000000006 165.00000000000009 C 473.00000000000006 166.10456949966166 472.10456949966164 167.00000000000009 471.00000000000006 167.00000000000009 C 469.8954305003385 167.00000000000009 469.00000000000006 166.10456949966166 469.00000000000006 165.00000000000009 C 469.00000000000006 163.8954305003385 469.8954305003385 163.00000000000009 471.00000000000006 163.00000000000009 C 472.10456949966164 163.00000000000009 473.00000000000006 163.8954305003385 473.00000000000006 165.00000000000009 Z" fill-opacity="1"/><path fill="none" stroke="rgb(0,0,0)" paint-order="fill stroke markers" d=" M 473.00000000000006 165.00000000000009 C 473.00000000000006 166.10456949966166 472.10456949966164 167.00000000000009 471.00000000000006 167.00000000000009 C 469.8954305003385 167.00000000000009 469.00000000000006 166.10456949966166 469.00000000000006 165.00000000000009 C 469.00000000000006 163.8954305003385 469.8954305003385 163.00000000000009 471.00000000000006 163.00000000000009 C 472.10456949966164 163.00000000000009 473.00000000000006 163.8954305003385 473.00000000000006 165.00000000000009 Z" stroke-opacity="1" stroke-linecap="round" stroke-linejoin="round" stroke-miterlimit="10"/><text fill="rgb(0,0,255)" stroke="none" font-family="geogebra-sans-serif, sans-serif" font-size="16px" font-style="normal" font-weight="normal" text-decoration="normal" x="475" y="161" text-anchor="start" dominant-baseline="alphabetic" fill-opacity="1">D</text><text fill="none" stroke="rgb(255,255,255)" font-family="geogebra-sans-serif, sans-serif" font-size="16px" font-style="normal" font-weight="normal" text-decoration="normal" x="475" y="161" text-anchor="start" dominant-baseline="alphabetic" stroke-opacity="1" stroke-linejoin="bevel" stroke-miterlimit="10" stroke-width="3">D</text><text fill="rgb(0,0,255)" stroke="none" font-family="geogebra-sans-serif, sans-serif" font-size="16px" font-style="normal" font-weight="normal" text-decoration="normal" x="475" y="161" text-anchor="start" dominant-baseline="alphabetic" fill-opacity="1">D</text><path fill="rgb(0,0,255)" stroke="none" paint-order="stroke fill markers" d=" M 373.0000000000002 30.999999999999886 C 373.0000000000002 32.10456949966147 372.1045694996618 32.999999999999886 371.0000000000002 32.999999999999886 C 369.89543050033865 32.999999999999886 369.0000000000002 32.10456949966147 369.0000000000002 30.999999999999886 C 369.0000000000002 29.8954305003383 369.89543050033865 28.999999999999886 371.0000000000002 28.999999999999886 C 372.1045694996618 28.999999999999886 373.0000000000002 29.8954305003383 373.0000000000002 30.999999999999886 Z" fill-opacity="1"/><path fill="none" stroke="rgb(0,0,0)" paint-order="fill stroke markers" d=" M 373.0000000000002 30.999999999999886 C 373.0000000000002 32.10456949966147 372.1045694996618 32.999999999999886 371.0000000000002 32.999999999999886 C 369.89543050033865 32.999999999999886 369.0000000000002 32.10456949966147 369.0000000000002 30.999999999999886 C 369.0000000000002 29.8954305003383 369.89543050033865 28.999999999999886 371.0000000000002 28.999999999999886 C 372.1045694996618 28.999999999999886 373.0000000000002 29.8954305003383 373.0000000000002 30.999999999999886 Z" stroke-opacity="1" stroke-linecap="round" stroke-linejoin="round" stroke-miterlimit="10"/><text fill="rgb(0,0,255)" stroke="none" font-family="geogebra-sans-serif, sans-serif" font-size="16px" font-style="normal" font-weight="normal" text-decoration="normal" x="347" y="30" text-anchor="start" dominant-baseline="alphabetic" fill-opacity="1">E</text><text fill="none" stroke="rgb(255,255,255)" font-family="geogebra-sans-serif, sans-serif" font-size="16px" font-style="normal" font-weight="normal" text-decoration="normal" x="347" y="30" text-anchor="start" dominant-baseline="alphabetic" stroke-opacity="1" stroke-linejoin="bevel" stroke-miterlimit="10" stroke-width="3">E</text><text fill="rgb(0,0,255)" stroke="none" font-family="geogebra-sans-serif, sans-serif" font-size="16px" font-style="normal" font-weight="normal" text-decoration="normal" x="347" y="30" text-anchor="start" dominant-baseline="alphabetic" fill-opacity="1">E</text><path fill="rgb(0,0,255)" stroke="none" paint-order="stroke fill markers" d=" M 105.16666666666708 63.99999999999994 C 105.16666666666708 65.10456949966152 104.27123616632866 65.99999999999994 103.16666666666708 65.99999999999994 C 102.06209716700549 65.99999999999994 101.16666666666708 65.10456949966152 101.16666666666708 63.99999999999994 C 101.16666666666708 62.89543050033836 102.06209716700549 61.99999999999994 103.16666666666708 61.99999999999994 C 104.27123616632866 61.99999999999994 105.16666666666708 62.89543050033836 105.16666666666708 63.99999999999994 Z" fill-opacity="1"/><path fill="none" stroke="rgb(0,0,0)" paint-order="fill stroke markers" d=" M 105.16666666666708 63.99999999999994 C 105.16666666666708 65.10456949966152 104.27123616632866 65.99999999999994 103.16666666666708 65.99999999999994 C 102.06209716700549 65.99999999999994 101.16666666666708 65.10456949966152 101.16666666666708 63.99999999999994 C 101.16666666666708 62.89543050033836 102.06209716700549 61.99999999999994 103.16666666666708 61.99999999999994 C 104.27123616632866 61.99999999999994 105.16666666666708 62.89543050033836 105.16666666666708 63.99999999999994 Z" stroke-opacity="1" stroke-linecap="round" stroke-linejoin="round" stroke-miterlimit="10"/><text fill="rgb(0,0,255)" stroke="none" font-family="geogebra-sans-serif, sans-serif" font-size="16px" font-style="normal" font-weight="normal" text-decoration="normal" x="87" y="56" text-anchor="start" dominant-baseline="alphabetic" fill-opacity="1">F</text><text fill="none" stroke="rgb(255,255,255)" font-family="geogebra-sans-serif, sans-serif" font-size="16px" font-style="normal" font-weight="normal" text-decoration="normal" x="87" y="56" text-anchor="start" dominant-baseline="alphabetic" stroke-opacity="1" stroke-linejoin="bevel" stroke-miterlimit="10" stroke-width="3">F</text><text fill="rgb(0,0,255)" stroke="none" font-family="geogebra-sans-serif, sans-serif" font-size="16px" font-style="normal" font-weight="normal" text-decoration="normal" x="87" y="56" text-anchor="start" dominant-baseline="alphabetic" fill-opacity="1">F</text><path fill="rgb(0,0,255)" stroke="none" paint-order="stroke fill markers" d=" M 38.16666666666731 197.8333333333335 C 38.16666666666731 198.9379028329951 37.2712361663289 199.8333333333335 36.16666666666731 199.8333333333335 C 35.062097167005724 199.8333333333335 34.16666666666731 198.9379028329951 34.16666666666731 197.8333333333335 C 34.16666666666731 196.72876383367193 35.062097167005724 195.8333333333335 36.16666666666731 195.8333333333335 C 37.2712361663289 195.8333333333335 38.16666666666731 196.72876383367193 38.16666666666731 197.8333333333335 Z" fill-opacity="1"/><path fill="none" stroke="rgb(0,0,0)" paint-order="fill stroke markers" d=" M 38.16666666666731 197.8333333333335 C 38.16666666666731 198.9379028329951 37.2712361663289 199.8333333333335 36.16666666666731 199.8333333333335 C 35.062097167005724 199.8333333333335 34.16666666666731 198.9379028329951 34.16666666666731 197.8333333333335 C 34.16666666666731 196.72876383367193 35.062097167005724 195.8333333333335 36.16666666666731 195.8333333333335 C 37.2712361663289 195.8333333333335 38.16666666666731 196.72876383367193 38.16666666666731 197.8333333333335 Z" stroke-opacity="1" stroke-linecap="round" stroke-linejoin="round" stroke-miterlimit="10"/><text fill="rgb(0,0,255)" stroke="none" font-family="geogebra-sans-serif, sans-serif" font-size="16px" font-style="normal" font-weight="normal" text-decoration="normal" x="11" y="211" text-anchor="start" dominant-baseline="alphabetic" fill-opacity="1">G</text><text fill="none" stroke="rgb(255,255,255)" font-family="geogebra-sans-serif, sans-serif" font-size="16px" font-style="normal" font-weight="normal" text-decoration="normal" x="11" y="211" text-anchor="start" dominant-baseline="alphabetic" stroke-opacity="1" stroke-linejoin="bevel" stroke-miterlimit="10" stroke-width="3">G</text><text fill="rgb(0,0,255)" stroke="none" font-family="geogebra-sans-serif, sans-serif" font-size="16px" font-style="normal" font-weight="normal" text-decoration="normal" x="11" y="211" text-anchor="start" dominant-baseline="alphabetic" fill-opacity="1">G</text><path fill="rgb(0,0,255)" stroke="none" paint-order="stroke fill markers" d=" M 255.5833333333337 181.4166666666668 C 255.5833333333337 182.52123616632838 254.6879028329953 183.4166666666668 253.5833333333337 183.4166666666668 C 252.47876383367213 183.4166666666668 251.5833333333337 182.52123616632838 251.5833333333337 181.4166666666668 C 251.5833333333337 180.31209716700522 252.47876383367213 179.4166666666668 253.5833333333337 179.4166666666668 C 254.6879028329953 179.4166666666668 255.5833333333337 180.31209716700522 255.5833333333337 181.4166666666668 Z" fill-opacity="1"/><path fill="none" stroke="rgb(0,0,0)" paint-order="fill stroke markers" d=" M 255.5833333333337 181.4166666666668 C 255.5833333333337 182.52123616632838 254.6879028329953 183.4166666666668 253.5833333333337 183.4166666666668 C 252.47876383367213 183.4166666666668 251.5833333333337 182.52123616632838 251.5833333333337 181.4166666666668 C 251.5833333333337 180.31209716700522 252.47876383367213 179.4166666666668 253.5833333333337 179.4166666666668 C 254.6879028329953 179.4166666666668 255.5833333333337 180.31209716700522 255.5833333333337 181.4166666666668 Z" stroke-opacity="1" stroke-linecap="round" stroke-linejoin="round" stroke-miterlimit="10"/><text fill="rgb(0,0,255)" stroke="none" font-family="geogebra-sans-serif, sans-serif" font-size="16px" font-style="normal" font-weight="normal" text-decoration="normal" x="248" y="224" text-anchor="start" dominant-baseline="alphabetic" fill-opacity="1">H</text><text fill="none" stroke="rgb(255,255,255)" font-family="geogebra-sans-serif, sans-serif" font-size="16px" font-style="normal" font-weight="normal" text-decoration="normal" x="248" y="224" text-anchor="start" dominant-baseline="alphabetic" stroke-opacity="1" stroke-linejoin="bevel" stroke-miterlimit="10" stroke-width="3">H</text><text fill="rgb(0,0,255)" stroke="none" font-family="geogebra-sans-serif, sans-serif" font-size="16px" font-style="normal" font-weight="normal" text-decoration="normal" x="248" y="224" text-anchor="start" dominant-baseline="alphabetic" fill-opacity="1">H</text></g></g></svg>