<svg version="1.1" xmlns="http://www.w3.org/2000/svg" xmlns:xlink="http://www.w3.org/1999/xlink" width="460" height="269"><defs><clipPath id="TEVyDXCCEwbJ"><path fill="none" stroke="none" d=" M 0 0 L 460 0 L 460 269 L 0 269 L 0 0 Z"/></clipPath></defs><g transform="scale(1,1)" clip-path="url(#TEVyDXCCEwbJ)"><g><rect fill="rgb(255,255,255)" stroke="none" x="0" y="0" width="460" height="269" fill-opacity="1"/><path fill="none" stroke="rgb(153,51,255)" paint-order="fill stroke markers" d=" M 150.74288726935788 239.95097501614157 L 201.00815876880074 89.15516051781262 L 45.282516879160994 121.02206572033751 Z" stroke-opacity="0.6980392156862745" stroke-linecap="round" stroke-linejoin="round" stroke-miterlimit="10"/><path fill="none" stroke="rgb(244,0,153)" paint-order="fill stroke markers" d=" M 201.00815876880074 89.15516051781262 L 351.8039732671293 239.95097501614157 L 406.99907215788346 33.960061627058394 Z" stroke-opacity="0.6980392156862745" stroke-linecap="round" stroke-linejoin="round" stroke-miterlimit="10"/><path fill="none" stroke="rgb(255,85,0)" paint-order="fill stroke markers" d=" M 150.74288726935788 239.95097501614157 L 351.8039732671293 239.95097501614157 L 251.27343026824366 65.8269668295834 Z" stroke-opacity="0.6980392156862745" stroke-linecap="round" stroke-linejoin="round" stroke-miterlimit="10"/><path fill="rgb(255,127,0)" stroke="none" paint-order="stroke fill markers" d=" M 262.1480654790812 171.57802199283995 C 258.456934250763 167.69288902920394 252.9734945809143 166.07207319331602 247.76330512316616 167.3261201239236 C 242.55311566541798 168.5801670545312 238.40772814175858 172.5185571907956 236.88866991232857 177.65773708503917 L 251.2734302682436 181.9096389539555 Z" fill-opacity="0.09803921568627451"/><path fill="none" stroke="rgb(255,127,0)" paint-order="fill stroke markers" d=" M 262.1480654790812 171.57802199283995 C 258.456934250763 167.69288902920394 252.9734945809143 166.07207319331602 247.76330512316616 167.3261201239236 C 242.55311566541798 168.5801670545312 238.40772814175858 172.5185571907956 236.88866991232857 177.65773708503917 L 251.2734302682436 181.9096389539555 Z" stroke-opacity="0.6980392156862745" stroke-linecap="round" stroke-linejoin="round" stroke-miterlimit="10"/><text fill="rgb(255,127,0)" stroke="none" font-family="geogebra-sans-serif, sans-serif" font-size="16px" font-style="normal" font-weight="normal" text-decoration="normal" x="221" y="163" text-anchor="start" dominant-baseline="alphabetic" fill-opacity="1">120°</text><text fill="none" stroke="rgb(255,255,255)" font-family="geogebra-sans-serif, sans-serif" font-size="16px" font-style="normal" font-weight="normal" text-decoration="normal" x="221" y="163" text-anchor="start" dominant-baseline="alphabetic" stroke-opacity="1" stroke-linejoin="bevel" stroke-miterlimit="10" stroke-width="3">120°</text><text fill="rgb(255,127,0)" stroke="none" font-family="geogebra-sans-serif, sans-serif" font-size="16px" font-style="normal" font-weight="normal" text-decoration="normal" x="221" y="163" text-anchor="start" dominant-baseline="alphabetic" fill-opacity="1">120°</text><path fill="none" stroke="rgb(153,51,255)" paint-order="fill stroke markers" d=" M 150.74288726935788 239.95097501614157 L 201.00815876880074 89.15516051781262" stroke-opacity="0.6980392156862745" stroke-linecap="round" stroke-linejoin="round" stroke-miterlimit="10"/><path fill="none" stroke="rgb(153,51,255)" paint-order="fill stroke markers" d=" M 201.00815876880074 89.15516051781262 L 45.282516879160994 121.02206572033751" stroke-opacity="0.6980392156862745" stroke-linecap="round" stroke-linejoin="round" stroke-miterlimit="10"/><path fill="none" stroke="rgb(153,51,255)" paint-order="fill stroke markers" d=" M 45.282516879160994 121.02206572033751 L 150.74288726935788 239.95097501614157" stroke-opacity="0.6980392156862745" stroke-linecap="round" stroke-linejoin="round" stroke-miterlimit="10"/><path fill="none" stroke="rgb(244,0,153)" paint-order="fill stroke markers" d=" M 201.00815876880074 89.15516051781262 L 351.8039732671293 239.95097501614157" stroke-opacity="0.6980392156862745" stroke-linecap="round" stroke-linejoin="round" stroke-miterlimit="10"/><path fill="none" stroke="rgb(244,0,153)" paint-order="fill stroke markers" d=" M 351.8039732671293 239.95097501614157 L 406.99907215788346 33.960061627058394" stroke-opacity="0.6980392156862745" stroke-linecap="round" stroke-linejoin="round" stroke-miterlimit="10"/><path fill="none" stroke="rgb(244,0,153)" paint-order="fill stroke markers" d=" M 406.99907215788346 33.960061627058394 L 201.00815876880074 89.15516051781262" stroke-opacity="0.6980392156862745" stroke-linecap="round" stroke-linejoin="round" stroke-miterlimit="10"/><path fill="none" stroke="rgb(255,85,0)" paint-order="fill stroke markers" d=" M 150.74288726935788 239.95097501614157 L 351.8039732671293 239.95097501614157" stroke-opacity="0.6980392156862745" stroke-linecap="round" stroke-linejoin="round" stroke-miterlimit="10"/><path fill="none" stroke="rgb(255,85,0)" paint-order="fill stroke markers" d=" M 351.8039732671293 239.95097501614157 L 251.27343026824366 65.8269668295834" stroke-opacity="0.6980392156862745" stroke-linecap="round" stroke-linejoin="round" stroke-miterlimit="10"/><path fill="none" stroke="rgb(255,85,0)" paint-order="fill stroke markers" d=" M 251.27343026824366 65.8269668295834 L 150.74288726935788 239.95097501614157" stroke-opacity="0.6980392156862745" stroke-linecap="round" stroke-linejoin="round" stroke-miterlimit="10"/><path fill="none" stroke="rgb(102,102,102)" paint-order="fill stroke markers" d=" M 45.282516879160994 121.02206572033751 L 251.2734302682436 181.9096389539555" stroke-opacity="0.6980392156862745" stroke-linejoin="round" stroke-miterlimit="10" stroke-dasharray="9,8"/><path fill="none" stroke="rgb(102,102,102)" paint-order="fill stroke markers" d=" M 406.99907215788346 33.960061627058394 L 251.2734302682436 181.9096389539555" stroke-opacity="0.6980392156862745" stroke-linejoin="round" stroke-miterlimit="10" stroke-dasharray="9,8"/><path fill="rgb(0,0,255)" stroke="none" paint-order="stroke fill markers" d=" M 203.00815876880074 89.15516051781262 C 203.00815876880074 90.2597300174742 202.11272826846232 91.15516051781262 201.00815876880074 91.15516051781262 C 199.90358926913916 91.15516051781262 199.00815876880074 90.2597300174742 199.00815876880074 89.15516051781262 C 199.00815876880074 88.05059101815102 199.90358926913916 87.15516051781262 201.00815876880074 87.15516051781262 C 202.11272826846232 87.15516051781262 203.00815876880074 88.05059101815102 203.00815876880074 89.15516051781262 Z" fill-opacity="1"/><path fill="none" stroke="rgb(0,0,0)" paint-order="fill stroke markers" d=" M 203.00815876880074 89.15516051781262 C 203.00815876880074 90.2597300174742 202.11272826846232 91.15516051781262 201.00815876880074 91.15516051781262 C 199.90358926913916 91.15516051781262 199.00815876880074 90.2597300174742 199.00815876880074 89.15516051781262 C 199.00815876880074 88.05059101815102 199.90358926913916 87.15516051781262 201.00815876880074 87.15516051781262 C 202.11272826846232 87.15516051781262 203.00815876880074 88.05059101815102 203.00815876880074 89.15516051781262 Z" stroke-opacity="1" stroke-linecap="round" stroke-linejoin="round" stroke-miterlimit="10"/><text fill="rgb(0,0,255)" stroke="none" font-family="geogebra-sans-serif, sans-serif" font-size="16px" font-style="normal" font-weight="normal" text-decoration="normal" x="193" y="72" text-anchor="start" dominant-baseline="alphabetic" fill-opacity="1">A</text><text fill="none" stroke="rgb(255,255,255)" font-family="geogebra-sans-serif, sans-serif" font-size="16px" font-style="normal" font-weight="normal" text-decoration="normal" x="193" y="72" text-anchor="start" dominant-baseline="alphabetic" stroke-opacity="1" stroke-linejoin="bevel" stroke-miterlimit="10" stroke-width="3">A</text><text fill="rgb(0,0,255)" stroke="none" font-family="geogebra-sans-serif, sans-serif" font-size="16px" font-style="normal" font-weight="normal" text-decoration="normal" x="193" y="72" text-anchor="start" dominant-baseline="alphabetic" fill-opacity="1">A</text><path fill="rgb(0,0,255)" stroke="none" paint-order="stroke fill markers" d=" M 152.74288726935788 239.95097501614157 C 152.74288726935788 241.05554451580315 151.84745676901946 241.95097501614157 150.74288726935788 241.95097501614157 C 149.6383177696963 241.95097501614157 148.74288726935788 241.05554451580315 148.74288726935788 239.95097501614157 C 148.74288726935788 238.84640551648 149.6383177696963 237.95097501614157 150.74288726935788 237.95097501614157 C 151.84745676901946 237.95097501614157 152.74288726935788 238.84640551648 152.74288726935788 239.95097501614157 Z" fill-opacity="1"/><path fill="none" stroke="rgb(0,0,0)" paint-order="fill stroke markers" d=" M 152.74288726935788 239.95097501614157 C 152.74288726935788 241.05554451580315 151.84745676901946 241.95097501614157 150.74288726935788 241.95097501614157 C 149.6383177696963 241.95097501614157 148.74288726935788 241.05554451580315 148.74288726935788 239.95097501614157 C 148.74288726935788 238.84640551648 149.6383177696963 237.95097501614157 150.74288726935788 237.95097501614157 C 151.84745676901946 237.95097501614157 152.74288726935788 238.84640551648 152.74288726935788 239.95097501614157 Z" stroke-opacity="1" stroke-linecap="round" stroke-linejoin="round" stroke-miterlimit="10"/><text fill="rgb(0,0,255)" stroke="none" font-family="geogebra-sans-serif, sans-serif" font-size="16px" font-style="normal" font-weight="normal" text-decoration="normal" x="132" y="258" text-anchor="start" dominant-baseline="alphabetic" fill-opacity="1">B</text><text fill="none" stroke="rgb(255,255,255)" font-family="geogebra-sans-serif, sans-serif" font-size="16px" font-style="normal" font-weight="normal" text-decoration="normal" x="132" y="258" text-anchor="start" dominant-baseline="alphabetic" stroke-opacity="1" stroke-linejoin="bevel" stroke-miterlimit="10" stroke-width="3">B</text><text fill="rgb(0,0,255)" stroke="none" font-family="geogebra-sans-serif, sans-serif" font-size="16px" font-style="normal" font-weight="normal" text-decoration="normal" x="132" y="258" text-anchor="start" dominant-baseline="alphabetic" fill-opacity="1">B</text><path fill="rgb(0,0,255)" stroke="none" paint-order="stroke fill markers" d=" M 353.8039732671293 239.95097501614157 C 353.8039732671293 241.05554451580315 352.9085427667909 241.95097501614157 351.8039732671293 241.95097501614157 C 350.69940376746774 241.95097501614157 349.8039732671293 241.05554451580315 349.8039732671293 239.95097501614157 C 349.8039732671293 238.84640551648 350.69940376746774 237.95097501614157 351.8039732671293 237.95097501614157 C 352.9085427667909 237.95097501614157 353.8039732671293 238.84640551648 353.8039732671293 239.95097501614157 Z" fill-opacity="1"/><path fill="none" stroke="rgb(0,0,0)" paint-order="fill stroke markers" d=" M 353.8039732671293 239.95097501614157 C 353.8039732671293 241.05554451580315 352.9085427667909 241.95097501614157 351.8039732671293 241.95097501614157 C 350.69940376746774 241.95097501614157 349.8039732671293 241.05554451580315 349.8039732671293 239.95097501614157 C 349.8039732671293 238.84640551648 350.69940376746774 237.95097501614157 351.8039732671293 237.95097501614157 C 352.9085427667909 237.95097501614157 353.8039732671293 238.84640551648 353.8039732671293 239.95097501614157 Z" stroke-opacity="1" stroke-linecap="round" stroke-linejoin="round" stroke-miterlimit="10"/><text fill="rgb(0,0,255)" stroke="none" font-family="geogebra-sans-serif, sans-serif" font-size="16px" font-style="normal" font-weight="normal" text-decoration="normal" x="358" y="258" text-anchor="start" dominant-baseline="alphabetic" fill-opacity="1">C</text><text fill="none" stroke="rgb(255,255,255)" font-family="geogebra-sans-serif, sans-serif" font-size="16px" font-style="normal" font-weight="normal" text-decoration="normal" x="358" y="258" text-anchor="start" dominant-baseline="alphabetic" stroke-opacity="1" stroke-linejoin="bevel" stroke-miterlimit="10" stroke-width="3">C</text><text fill="rgb(0,0,255)" stroke="none" font-family="geogebra-sans-serif, sans-serif" font-size="16px" font-style="normal" font-weight="normal" text-decoration="normal" x="358" y="258" text-anchor="start" dominant-baseline="alphabetic" fill-opacity="1">C</text><path fill="rgb(0,0,255)" stroke="none" paint-order="stroke fill markers" d=" M 47.282516879160994 121.02206572033751 C 47.282516879160994 122.12663521999909 46.38708637882258 123.02206572033751 45.282516879160994 123.02206572033751 C 44.17794737949941 123.02206572033751 43.282516879160994 122.12663521999909 43.282516879160994 121.02206572033751 C 43.282516879160994 119.91749622067591 44.17794737949941 119.02206572033751 45.282516879160994 119.02206572033751 C 46.38708637882258 119.02206572033751 47.282516879160994 119.91749622067591 47.282516879160994 121.02206572033751 Z" fill-opacity="1"/><path fill="none" stroke="rgb(0,0,0)" paint-order="fill stroke markers" d=" M 47.282516879160994 121.02206572033751 C 47.282516879160994 122.12663521999909 46.38708637882258 123.02206572033751 45.282516879160994 123.02206572033751 C 44.17794737949941 123.02206572033751 43.282516879160994 122.12663521999909 43.282516879160994 121.02206572033751 C 43.282516879160994 119.91749622067591 44.17794737949941 119.02206572033751 45.282516879160994 119.02206572033751 C 46.38708637882258 119.02206572033751 47.282516879160994 119.91749622067591 47.282516879160994 121.02206572033751 Z" stroke-opacity="1" stroke-linecap="round" stroke-linejoin="round" stroke-miterlimit="10"/><text fill="rgb(0,0,255)" stroke="none" font-family="geogebra-sans-serif, sans-serif" font-size="16px" font-style="normal" font-weight="normal" text-decoration="normal" x="27" y="112" text-anchor="start" dominant-baseline="alphabetic" fill-opacity="1">D</text><text fill="none" stroke="rgb(255,255,255)" font-family="geogebra-sans-serif, sans-serif" font-size="16px" font-style="normal" font-weight="normal" text-decoration="normal" x="27" y="112" text-anchor="start" dominant-baseline="alphabetic" stroke-opacity="1" stroke-linejoin="bevel" stroke-miterlimit="10" stroke-width="3">D</text><text fill="rgb(0,0,255)" stroke="none" font-family="geogebra-sans-serif, sans-serif" font-size="16px" font-style="normal" font-weight="normal" text-decoration="normal" x="27" y="112" text-anchor="start" dominant-baseline="alphabetic" fill-opacity="1">D</text><path fill="rgb(0,0,255)" stroke="none" paint-order="stroke fill markers" d=" M 408.99907215788346 33.960061627058394 C 408.99907215788346 35.06463112671998 408.10364165754504 35.960061627058394 406.99907215788346 35.960061627058394 C 405.8945026582219 35.960061627058394 404.99907215788346 35.06463112671998 404.99907215788346 33.960061627058394 C 404.99907215788346 32.85549212739681 405.8945026582219 31.960061627058394 406.99907215788346 31.960061627058394 C 408.10364165754504 31.960061627058394 408.99907215788346 32.85549212739681 408.99907215788346 33.960061627058394 Z" fill-opacity="1"/><path fill="none" stroke="rgb(0,0,0)" paint-order="fill stroke markers" d=" M 408.99907215788346 33.960061627058394 C 408.99907215788346 35.06463112671998 408.10364165754504 35.960061627058394 406.99907215788346 35.960061627058394 C 405.8945026582219 35.960061627058394 404.99907215788346 35.06463112671998 404.99907215788346 33.960061627058394 C 404.99907215788346 32.85549212739681 405.8945026582219 31.960061627058394 406.99907215788346 31.960061627058394 C 408.10364165754504 31.960061627058394 408.99907215788346 32.85549212739681 408.99907215788346 33.960061627058394 Z" stroke-opacity="1" stroke-linecap="round" stroke-linejoin="round" stroke-miterlimit="10"/><text fill="rgb(0,0,255)" stroke="none" font-family="geogebra-sans-serif, sans-serif" font-size="16px" font-style="normal" font-weight="normal" text-decoration="normal" x="414" y="28" text-anchor="start" dominant-baseline="alphabetic" fill-opacity="1">E</text><text fill="none" stroke="rgb(255,255,255)" font-family="geogebra-sans-serif, sans-serif" font-size="16px" font-style="normal" font-weight="normal" text-decoration="normal" x="414" y="28" text-anchor="start" dominant-baseline="alphabetic" stroke-opacity="1" stroke-linejoin="bevel" stroke-miterlimit="10" stroke-width="3">E</text><text fill="rgb(0,0,255)" stroke="none" font-family="geogebra-sans-serif, sans-serif" font-size="16px" font-style="normal" font-weight="normal" text-decoration="normal" x="414" y="28" text-anchor="start" dominant-baseline="alphabetic" fill-opacity="1">E</text><path fill="rgb(0,0,255)" stroke="none" paint-order="stroke fill markers" d=" M 253.27343026824366 65.8269668295834 C 253.27343026824366 66.93153632924498 252.37799976790524 67.8269668295834 251.27343026824366 67.8269668295834 C 250.16886076858208 67.8269668295834 249.27343026824366 66.93153632924498 249.27343026824366 65.8269668295834 C 249.27343026824366 64.7223973299218 250.16886076858208 63.8269668295834 251.27343026824366 63.8269668295834 C 252.37799976790524 63.8269668295834 253.27343026824366 64.7223973299218 253.27343026824366 65.8269668295834 Z" fill-opacity="1"/><path fill="none" stroke="rgb(0,0,0)" paint-order="fill stroke markers" d=" M 253.27343026824366 65.8269668295834 C 253.27343026824366 66.93153632924498 252.37799976790524 67.8269668295834 251.27343026824366 67.8269668295834 C 250.16886076858208 67.8269668295834 249.27343026824366 66.93153632924498 249.27343026824366 65.8269668295834 C 249.27343026824366 64.7223973299218 250.16886076858208 63.8269668295834 251.27343026824366 63.8269668295834 C 252.37799976790524 63.8269668295834 253.27343026824366 64.7223973299218 253.27343026824366 65.8269668295834 Z" stroke-opacity="1" stroke-linecap="round" stroke-linejoin="round" stroke-miterlimit="10"/><text fill="rgb(0,0,255)" stroke="none" font-family="geogebra-sans-serif, sans-serif" font-size="16px" font-style="normal" font-weight="normal" text-decoration="normal" x="245" y="57" text-anchor="start" dominant-baseline="alphabetic" fill-opacity="1">F</text><text fill="none" stroke="rgb(255,255,255)" font-family="geogebra-sans-serif, sans-serif" font-size="16px" font-style="normal" font-weight="normal" text-decoration="normal" x="245" y="57" text-anchor="start" dominant-baseline="alphabetic" stroke-opacity="1" stroke-linejoin="bevel" stroke-miterlimit="10" stroke-width="3">F</text><text fill="rgb(0,0,255)" stroke="none" font-family="geogebra-sans-serif, sans-serif" font-size="16px" font-style="normal" font-weight="normal" text-decoration="normal" x="245" y="57" text-anchor="start" dominant-baseline="alphabetic" fill-opacity="1">F</text><path fill="rgb(0,0,255)" stroke="none" paint-order="stroke fill markers" d=" M 253.2734302682436 181.9096389539555 C 253.2734302682436 183.01420845361707 252.37799976790518 183.9096389539555 251.2734302682436 183.9096389539555 C 250.16886076858202 183.9096389539555 249.2734302682436 183.01420845361707 249.2734302682436 181.9096389539555 C 249.2734302682436 180.8050694542939 250.16886076858202 179.9096389539555 251.2734302682436 179.9096389539555 C 252.37799976790518 179.9096389539555 253.2734302682436 180.8050694542939 253.2734302682436 181.9096389539555 Z" fill-opacity="1"/><path fill="none" stroke="rgb(0,0,0)" paint-order="fill stroke markers" d=" M 253.2734302682436 181.9096389539555 C 253.2734302682436 183.01420845361707 252.37799976790518 183.9096389539555 251.2734302682436 183.9096389539555 C 250.16886076858202 183.9096389539555 249.2734302682436 183.01420845361707 249.2734302682436 181.9096389539555 C 249.2734302682436 180.8050694542939 250.16886076858202 179.9096389539555 251.2734302682436 179.9096389539555 C 252.37799976790518 179.9096389539555 253.2734302682436 180.8050694542939 253.2734302682436 181.9096389539555 Z" stroke-opacity="1" stroke-linecap="round" stroke-linejoin="round" stroke-miterlimit="10"/><text fill="rgb(0,0,255)" stroke="none" font-family="geogebra-sans-serif, sans-serif" font-size="16px" font-style="normal" font-weight="normal" text-decoration="normal" x="246" y="207" text-anchor="start" dominant-baseline="alphabetic" fill-opacity="1">M</text><text fill="none" stroke="rgb(255,255,255)" font-family="geogebra-sans-serif, sans-serif" font-size="16px" font-style="normal" font-weight="normal" text-decoration="normal" x="246" y="207" text-anchor="start" dominant-baseline="alphabetic" stroke-opacity="1" stroke-linejoin="bevel" stroke-miterlimit="10" stroke-width="3">M</text><text fill="rgb(0,0,255)" stroke="none" font-family="geogebra-sans-serif, sans-serif" font-size="16px" font-style="normal" font-weight="normal" text-decoration="normal" x="246" y="207" text-anchor="start" dominant-baseline="alphabetic" fill-opacity="1">M</text></g></g></svg>