<svg version="1.1" xmlns="http://www.w3.org/2000/svg" xmlns:xlink="http://www.w3.org/1999/xlink" width="431" height="394"><defs><clipPath id="OaprTRxVzwkb"><path fill="none" stroke="none" d=" M 0 0 L 431 0 L 431 394 L 0 394 L 0 0 Z"/></clipPath></defs><g transform="scale(1,1)" clip-path="url(#OaprTRxVzwkb)"><g><rect fill="rgb(255,255,255)" stroke="none" x="0" y="0" width="431" height="394" fill-opacity="1"/><path fill="none" stroke="rgb(0,153,255)" paint-order="fill stroke markers" d=" M 319.0000000000002 230.9999999999999 C 319.0000000000002 313.84271247461885 251.84271247461916 380.99999999999983 169.00000000000014 380.99999999999983 C 86.1572875253811 380.99999999999983 19.000000000000057 313.84271247461885 19.000000000000057 230.9999999999999 C 19.000000000000057 148.15728752538092 86.1572875253811 80.99999999999994 169.00000000000014 80.99999999999994 C 251.84271247461916 80.99999999999994 319.0000000000002 148.15728752538092 319.0000000000002 230.9999999999999 Z" stroke-opacity="0.6980392156862745" stroke-linecap="round" stroke-linejoin="round" stroke-miterlimit="10" stroke-width="0.5"/><g transform="scale(19,19)"><g transform="translate(5.157894736842105,6.273105263157895)"><path fill="rgb(0,153,255)" stroke="none" paint-order="stroke fill markers" d=" M 0.264 -0.082 Q 0.201 0.011 0.11900000000000001 0.011 Q 0.032 0.011 0.016 -0.089 Q 0.013000000000000001 -0.109 0.013000000000000001 -0.131 Q 0.013000000000000001 -0.22 0.051000000000000004 -0.311 Q 0.082 -0.382 0.112 -0.419 Q 0.122 -0.431 0.127 -0.431 Q 0.139 -0.431 0.139 -0.419 Q 0.139 -0.41400000000000003 0.129 -0.4 Q 0.045 -0.28 0.045 -0.17500000000000002 Q 0.045 -0.08 0.109 -0.064 Q 0.12 -0.061 0.133 -0.061 Q 0.201 -0.061 0.257 -0.138 Q 0.264 -0.145 0.266 -0.165 Q 0.276 -0.23800000000000002 0.28700000000000003 -0.266 Q 0.3 -0.291 0.315 -0.291 Q 0.334 -0.291 0.336 -0.268 Q 0.336 -0.24 0.308 -0.168 Q 0.306 -0.161 0.303 -0.155 Q 0.297 -0.14400000000000002 0.297 -0.139 Q 0.297 -0.111 0.317 -0.084 Q 0.335 -0.061 0.372 -0.061 Q 0.449 -0.061 0.511 -0.14400000000000002 Q 0.562 -0.214 0.562 -0.28 Q 0.562 -0.331 0.527 -0.367 Q 0.512 -0.38 0.512 -0.394 Q 0.512 -0.419 0.539 -0.435 Q 0.55 -0.442 0.562 -0.442 Q 0.599 -0.442 0.604 -0.388 Q 0.605 -0.377 0.605 -0.371 Q 0.605 -0.307 0.5750000000000001 -0.213 Q 0.55 -0.136 0.511 -0.082 Q 0.443 0.011 0.358 0.011 Q 0.277 0.011 0.264 -0.082 Z"/></g></g><path fill="rgb(0,100,0)" stroke="none" paint-order="stroke fill markers" fill-rule="evenodd" d=" M 121.5658350974744 88.69750529242287 L 126.03797105247368 102.1139131574207 L 139.45437891747272 97.64177720242202 L 134.98224296247224 84.2253693374236 L 121.5658350974744 88.69750529242287" fill-opacity="0.09803921568627451"/><path fill="none" stroke="rgb(0,100,0)" paint-order="fill stroke markers" d=" M 121.5658350974744 88.69750529242287 L 126.03797105247368 102.1139131574207 L 139.45437891747272 97.64177720242202 L 134.98224296247224 84.2253693374236 L 121.5658350974744 88.69750529242287" stroke-opacity="0.6980392156862745" stroke-linejoin="round" stroke-miterlimit="10" stroke-width="0.5" stroke-dasharray="8.5,8"/><path fill="none" stroke="rgb(127,0,255)" paint-order="fill stroke markers" d=" M 202.9490558161386 66.31318154312069 L 200.1030059219871 57.77503186066607" stroke-opacity="0.6980392156862745" stroke-linecap="round" stroke-linejoin="round" stroke-miterlimit="10"/><path fill="none" stroke="rgb(127,0,255)" paint-order="fill stroke markers" d=" M 199.6286642729618 67.41997872417963 L 196.78261437881028 58.881829041725005" stroke-opacity="0.6980392156862745" stroke-linecap="round" stroke-linejoin="round" stroke-miterlimit="10"/><path fill="none" stroke="rgb(127,0,255)" paint-order="fill stroke markers" d=" M 278.1658350974745 36.49750529242283 L 121.5658350974744 88.69750529242287" stroke-opacity="0.6980392156862745" stroke-linecap="round" stroke-linejoin="round" stroke-miterlimit="10"/><path fill="none" stroke="rgb(0,100,0)" paint-order="fill stroke markers" d=" M 169.00000000000014 230.9999999999999 L 121.5658350974744 88.69750529242287" stroke-opacity="0.6980392156862745" stroke-linejoin="round" stroke-miterlimit="10" stroke-width="0.5" stroke-dasharray="8.5,8"/><path fill="none" stroke="rgb(127,0,255)" paint-order="fill stroke markers" d=" M 309.4567736853695 138.5544414795748 L 313.4816960448692 130.50459676057557" stroke-opacity="0.6980392156862745" stroke-linecap="round" stroke-linejoin="round" stroke-miterlimit="10"/><path fill="none" stroke="rgb(127,0,255)" paint-order="fill stroke markers" d=" M 306.3262785168698 136.98919389532495 L 310.3512008763695 128.93934917632572" stroke-opacity="0.6980392156862745" stroke-linecap="round" stroke-linejoin="round" stroke-miterlimit="10"/><path fill="none" stroke="rgb(127,0,255)" paint-order="fill stroke markers" d=" M 383.7259352367451 170.65786930588803 L 236.08203932499384 96.83592135001248" stroke-opacity="0.6980392156862745" stroke-linecap="round" stroke-linejoin="round" stroke-miterlimit="10"/><path fill="none" stroke="rgb(255,85,0)" paint-order="fill stroke markers" d=" M 278.1658350974745 36.49750529242283 L 383.7259352367451 170.65786930588803" stroke-opacity="0.6980392156862745" stroke-linecap="round" stroke-linejoin="round" stroke-miterlimit="10" stroke-width="0.5"/><path fill="none" stroke="rgb(255,85,0)" paint-order="fill stroke markers" d=" M 68.71986081037755 84.94185753393975 L 375.9448750403331 106.77566704560206" stroke-opacity="0.6980392156862745" stroke-linecap="round" stroke-linejoin="round" stroke-miterlimit="10" stroke-width="0.5"/><path fill="none" stroke="rgb(0,100,0)" paint-order="fill stroke markers" d=" M 160.08203932499381 58.8359213500126 L 236.08203932499384 96.83592135001248" stroke-opacity="0.6980392156862745" stroke-linecap="round" stroke-linejoin="round" stroke-miterlimit="10" stroke-width="0.5"/><path fill="none" stroke="rgb(0,100,0)" paint-order="fill stroke markers" d=" M 383.7259352367451 170.65786930588803 L 408.48203932499405 183.0359213500125" stroke-opacity="0.6980392156862745" stroke-linecap="round" stroke-linejoin="round" stroke-miterlimit="10" stroke-width="0.5"/><path fill="rgb(0,0,255)" stroke="none" paint-order="stroke fill markers" d=" M 170.00000000000014 230.9999999999999 C 170.00000000000014 231.55228474983068 169.55228474983093 231.9999999999999 169.00000000000014 231.9999999999999 C 168.44771525016935 231.9999999999999 168.00000000000014 231.55228474983068 168.00000000000014 230.9999999999999 C 168.00000000000014 230.4477152501691 168.44771525016935 229.9999999999999 169.00000000000014 229.9999999999999 C 169.55228474983093 229.9999999999999 170.00000000000014 230.4477152501691 170.00000000000014 230.9999999999999 Z" fill-opacity="1"/><path fill="none" stroke="rgb(0,0,0)" paint-order="fill stroke markers" d=" M 170.00000000000014 230.9999999999999 C 170.00000000000014 231.55228474983068 169.55228474983093 231.9999999999999 169.00000000000014 231.9999999999999 C 168.44771525016935 231.9999999999999 168.00000000000014 231.55228474983068 168.00000000000014 230.9999999999999 C 168.00000000000014 230.4477152501691 168.44771525016935 229.9999999999999 169.00000000000014 229.9999999999999 C 169.55228474983093 229.9999999999999 170.00000000000014 230.4477152501691 170.00000000000014 230.9999999999999 Z" stroke-opacity="1" stroke-linecap="round" stroke-linejoin="round" stroke-miterlimit="10"/><text fill="rgb(0,0,255)" stroke="none" font-family="geogebra-sans-serif, sans-serif" font-size="16px" font-style="normal" font-weight="normal" text-decoration="normal" x="173" y="229" text-anchor="start" dominant-baseline="alphabetic" fill-opacity="1">O</text><text fill="none" stroke="rgb(255,255,255)" font-family="geogebra-sans-serif, sans-serif" font-size="16px" font-style="normal" font-weight="normal" text-decoration="normal" x="173" y="229" text-anchor="start" dominant-baseline="alphabetic" stroke-opacity="1" stroke-linejoin="bevel" stroke-miterlimit="10" stroke-width="3">O</text><text fill="rgb(0,0,255)" stroke="none" font-family="geogebra-sans-serif, sans-serif" font-size="16px" font-style="normal" font-weight="normal" text-decoration="normal" x="173" y="229" text-anchor="start" dominant-baseline="alphabetic" fill-opacity="1">O</text><path fill="rgb(0,0,255)" stroke="none" paint-order="stroke fill markers" d=" M 122.5658350974744 88.69750529242287 C 122.5658350974744 89.24979004225366 122.1181198473052 89.69750529242287 121.5658350974744 89.69750529242287 C 121.01355034764362 89.69750529242287 120.5658350974744 89.24979004225366 120.5658350974744 88.69750529242287 C 120.5658350974744 88.14522054259209 121.01355034764362 87.69750529242287 121.5658350974744 87.69750529242287 C 122.1181198473052 87.69750529242287 122.5658350974744 88.14522054259209 122.5658350974744 88.69750529242287 Z" fill-opacity="1"/><path fill="none" stroke="rgb(0,0,0)" paint-order="fill stroke markers" d=" M 122.5658350974744 88.69750529242287 C 122.5658350974744 89.24979004225366 122.1181198473052 89.69750529242287 121.5658350974744 89.69750529242287 C 121.01355034764362 89.69750529242287 120.5658350974744 89.24979004225366 120.5658350974744 88.69750529242287 C 120.5658350974744 88.14522054259209 121.01355034764362 87.69750529242287 121.5658350974744 87.69750529242287 C 122.1181198473052 87.69750529242287 122.5658350974744 88.14522054259209 122.5658350974744 88.69750529242287 Z" stroke-opacity="1" stroke-linecap="round" stroke-linejoin="round" stroke-miterlimit="10"/><text fill="rgb(0,0,255)" stroke="none" font-family="geogebra-sans-serif, sans-serif" font-size="16px" font-style="normal" font-weight="normal" text-decoration="normal" x="107" y="80" text-anchor="start" dominant-baseline="alphabetic" fill-opacity="1">A</text><text fill="none" stroke="rgb(255,255,255)" font-family="geogebra-sans-serif, sans-serif" font-size="16px" font-style="normal" font-weight="normal" text-decoration="normal" x="107" y="80" text-anchor="start" dominant-baseline="alphabetic" stroke-opacity="1" stroke-linejoin="bevel" stroke-miterlimit="10" stroke-width="3">A</text><text fill="rgb(0,0,255)" stroke="none" font-family="geogebra-sans-serif, sans-serif" font-size="16px" font-style="normal" font-weight="normal" text-decoration="normal" x="107" y="80" text-anchor="start" dominant-baseline="alphabetic" fill-opacity="1">A</text><path fill="rgb(0,0,255)" stroke="none" paint-order="stroke fill markers" d=" M 279.1658350974745 36.49750529242283 C 279.1658350974745 37.04979004225362 278.7181198473053 37.49750529242283 278.1658350974745 37.49750529242283 C 277.6135503476437 37.49750529242283 277.1658350974745 37.04979004225362 277.1658350974745 36.49750529242283 C 277.1658350974745 35.94522054259203 277.6135503476437 35.49750529242283 278.1658350974745 35.49750529242283 C 278.7181198473053 35.49750529242283 279.1658350974745 35.94522054259203 279.1658350974745 36.49750529242283 Z" fill-opacity="1"/><path fill="none" stroke="rgb(0,0,0)" paint-order="fill stroke markers" d=" M 279.1658350974745 36.49750529242283 C 279.1658350974745 37.04979004225362 278.7181198473053 37.49750529242283 278.1658350974745 37.49750529242283 C 277.6135503476437 37.49750529242283 277.1658350974745 37.04979004225362 277.1658350974745 36.49750529242283 C 277.1658350974745 35.94522054259203 277.6135503476437 35.49750529242283 278.1658350974745 35.49750529242283 C 278.7181198473053 35.49750529242283 279.1658350974745 35.94522054259203 279.1658350974745 36.49750529242283 Z" stroke-opacity="1" stroke-linecap="round" stroke-linejoin="round" stroke-miterlimit="10"/><text fill="rgb(0,0,255)" stroke="none" font-family="geogebra-sans-serif, sans-serif" font-size="16px" font-style="normal" font-weight="normal" text-decoration="normal" x="282" y="24" text-anchor="start" dominant-baseline="alphabetic" fill-opacity="1">B</text><text fill="none" stroke="rgb(255,255,255)" font-family="geogebra-sans-serif, sans-serif" font-size="16px" font-style="normal" font-weight="normal" text-decoration="normal" x="282" y="24" text-anchor="start" dominant-baseline="alphabetic" stroke-opacity="1" stroke-linejoin="bevel" stroke-miterlimit="10" stroke-width="3">B</text><text fill="rgb(0,0,255)" stroke="none" font-family="geogebra-sans-serif, sans-serif" font-size="16px" font-style="normal" font-weight="normal" text-decoration="normal" x="282" y="24" text-anchor="start" dominant-baseline="alphabetic" fill-opacity="1">B</text><path fill="rgb(0,0,255)" stroke="none" paint-order="stroke fill markers" d=" M 384.7259352367451 170.65786930588803 C 384.7259352367451 171.21015405571882 384.2782199865759 171.65786930588803 383.7259352367451 171.65786930588803 C 383.1736504869143 171.65786930588803 382.7259352367451 171.21015405571882 382.7259352367451 170.65786930588803 C 382.7259352367451 170.10558455605724 383.1736504869143 169.65786930588803 383.7259352367451 169.65786930588803 C 384.2782199865759 169.65786930588803 384.7259352367451 170.10558455605724 384.7259352367451 170.65786930588803 Z" fill-opacity="1"/><path fill="none" stroke="rgb(0,0,0)" paint-order="fill stroke markers" d=" M 384.7259352367451 170.65786930588803 C 384.7259352367451 171.21015405571882 384.2782199865759 171.65786930588803 383.7259352367451 171.65786930588803 C 383.1736504869143 171.65786930588803 382.7259352367451 171.21015405571882 382.7259352367451 170.65786930588803 C 382.7259352367451 170.10558455605724 383.1736504869143 169.65786930588803 383.7259352367451 169.65786930588803 C 384.2782199865759 169.65786930588803 384.7259352367451 170.10558455605724 384.7259352367451 170.65786930588803 Z" stroke-opacity="1" stroke-linecap="round" stroke-linejoin="round" stroke-miterlimit="10"/><text fill="rgb(0,0,255)" stroke="none" font-family="geogebra-sans-serif, sans-serif" font-size="16px" font-style="normal" font-weight="normal" text-decoration="normal" x="390" y="165" text-anchor="start" dominant-baseline="alphabetic" fill-opacity="1">B'</text><text fill="none" stroke="rgb(255,255,255)" font-family="geogebra-sans-serif, sans-serif" font-size="16px" font-style="normal" font-weight="normal" text-decoration="normal" x="390" y="165" text-anchor="start" dominant-baseline="alphabetic" stroke-opacity="1" stroke-linejoin="bevel" stroke-miterlimit="10" stroke-width="3">B'</text><text fill="rgb(0,0,255)" stroke="none" font-family="geogebra-sans-serif, sans-serif" font-size="16px" font-style="normal" font-weight="normal" text-decoration="normal" x="390" y="165" text-anchor="start" dominant-baseline="alphabetic" fill-opacity="1">B'</text><path fill="rgb(0,0,255)" stroke="none" paint-order="stroke fill markers" d=" M 237.08203932499384 96.83592135001248 C 237.08203932499384 97.38820609984327 236.63432407482463 97.83592135001248 236.08203932499384 97.83592135001248 C 235.52975457516305 97.83592135001248 235.08203932499384 97.38820609984327 235.08203932499384 96.83592135001248 C 235.08203932499384 96.2836366001817 235.52975457516305 95.83592135001248 236.08203932499384 95.83592135001248 C 236.63432407482463 95.83592135001248 237.08203932499384 96.2836366001817 237.08203932499384 96.83592135001248 Z" fill-opacity="1"/><path fill="none" stroke="rgb(0,0,0)" paint-order="fill stroke markers" d=" M 237.08203932499384 96.83592135001248 C 237.08203932499384 97.38820609984327 236.63432407482463 97.83592135001248 236.08203932499384 97.83592135001248 C 235.52975457516305 97.83592135001248 235.08203932499384 97.38820609984327 235.08203932499384 96.83592135001248 C 235.08203932499384 96.2836366001817 235.52975457516305 95.83592135001248 236.08203932499384 95.83592135001248 C 236.63432407482463 95.83592135001248 237.08203932499384 96.2836366001817 237.08203932499384 96.83592135001248 Z" stroke-opacity="1" stroke-linecap="round" stroke-linejoin="round" stroke-miterlimit="10"/><text fill="rgb(0,0,255)" stroke="none" font-family="geogebra-sans-serif, sans-serif" font-size="16px" font-style="normal" font-weight="normal" text-decoration="normal" x="222" y="120" text-anchor="start" dominant-baseline="alphabetic" fill-opacity="1">A'</text><text fill="none" stroke="rgb(255,255,255)" font-family="geogebra-sans-serif, sans-serif" font-size="16px" font-style="normal" font-weight="normal" text-decoration="normal" x="222" y="120" text-anchor="start" dominant-baseline="alphabetic" stroke-opacity="1" stroke-linejoin="bevel" stroke-miterlimit="10" stroke-width="3">A'</text><text fill="rgb(0,0,255)" stroke="none" font-family="geogebra-sans-serif, sans-serif" font-size="16px" font-style="normal" font-weight="normal" text-decoration="normal" x="222" y="120" text-anchor="start" dominant-baseline="alphabetic" fill-opacity="1">A'</text><path fill="rgb(0,0,255)" stroke="none" paint-order="stroke fill markers" d=" M 331.94588516710957 103.5776872991554 C 331.94588516710957 104.12997204898619 331.49816991694036 104.5776872991554 330.94588516710957 104.5776872991554 C 330.3936004172788 104.5776872991554 329.94588516710957 104.12997204898619 329.94588516710957 103.5776872991554 C 329.94588516710957 103.02540254932461 330.3936004172788 102.5776872991554 330.94588516710957 102.5776872991554 C 331.49816991694036 102.5776872991554 331.94588516710957 103.02540254932461 331.94588516710957 103.5776872991554 Z" fill-opacity="1"/><path fill="none" stroke="rgb(0,0,0)" paint-order="fill stroke markers" d=" M 331.94588516710957 103.5776872991554 C 331.94588516710957 104.12997204898619 331.49816991694036 104.5776872991554 330.94588516710957 104.5776872991554 C 330.3936004172788 104.5776872991554 329.94588516710957 104.12997204898619 329.94588516710957 103.5776872991554 C 329.94588516710957 103.02540254932461 330.3936004172788 102.5776872991554 330.94588516710957 102.5776872991554 C 331.49816991694036 102.5776872991554 331.94588516710957 103.02540254932461 331.94588516710957 103.5776872991554 Z" stroke-opacity="1" stroke-linecap="round" stroke-linejoin="round" stroke-miterlimit="10"/><text fill="rgb(0,0,255)" stroke="none" font-family="geogebra-sans-serif, sans-serif" font-size="16px" font-style="normal" font-weight="normal" text-decoration="normal" x="334" y="93" text-anchor="start" dominant-baseline="alphabetic" fill-opacity="1">E</text><text fill="none" stroke="rgb(255,255,255)" font-family="geogebra-sans-serif, sans-serif" font-size="16px" font-style="normal" font-weight="normal" text-decoration="normal" x="334" y="93" text-anchor="start" dominant-baseline="alphabetic" stroke-opacity="1" stroke-linejoin="bevel" stroke-miterlimit="10" stroke-width="3">E</text><text fill="rgb(0,0,255)" stroke="none" font-family="geogebra-sans-serif, sans-serif" font-size="16px" font-style="normal" font-weight="normal" text-decoration="normal" x="334" y="93" text-anchor="start" dominant-baseline="alphabetic" fill-opacity="1">E</text><path fill="rgb(0,0,255)" stroke="none" paint-order="stroke fill markers" d=" M 181.50945836487853 69.0496308699548 C 181.50945836487853 69.60191561978559 181.06174311470932 70.0496308699548 180.50945836487853 70.0496308699548 C 179.95717361504774 70.0496308699548 179.50945836487853 69.60191561978559 179.50945836487853 69.0496308699548 C 179.50945836487853 68.497346120124 179.95717361504774 68.0496308699548 180.50945836487853 68.0496308699548 C 181.06174311470932 68.0496308699548 181.50945836487853 68.497346120124 181.50945836487853 69.0496308699548 Z" fill-opacity="1"/><path fill="none" stroke="rgb(0,0,0)" paint-order="fill stroke markers" d=" M 181.50945836487853 69.0496308699548 C 181.50945836487853 69.60191561978559 181.06174311470932 70.0496308699548 180.50945836487853 70.0496308699548 C 179.95717361504774 70.0496308699548 179.50945836487853 69.60191561978559 179.50945836487853 69.0496308699548 C 179.50945836487853 68.497346120124 179.95717361504774 68.0496308699548 180.50945836487853 68.0496308699548 C 181.06174311470932 68.0496308699548 181.50945836487853 68.497346120124 181.50945836487853 69.0496308699548 Z" stroke-opacity="1" stroke-linecap="round" stroke-linejoin="round" stroke-miterlimit="10"/><text fill="rgb(0,0,255)" stroke="none" font-family="geogebra-sans-serif, sans-serif" font-size="16px" font-style="normal" font-weight="normal" text-decoration="normal" x="181" y="54" text-anchor="start" dominant-baseline="alphabetic" fill-opacity="1">F</text><text fill="none" stroke="rgb(255,255,255)" font-family="geogebra-sans-serif, sans-serif" font-size="16px" font-style="normal" font-weight="normal" text-decoration="normal" x="181" y="54" text-anchor="start" dominant-baseline="alphabetic" stroke-opacity="1" stroke-linejoin="bevel" stroke-miterlimit="10" stroke-width="3">F</text><text fill="rgb(0,0,255)" stroke="none" font-family="geogebra-sans-serif, sans-serif" font-size="16px" font-style="normal" font-weight="normal" text-decoration="normal" x="181" y="54" text-anchor="start" dominant-baseline="alphabetic" fill-opacity="1">F</text></g></g></svg>