<svg version="1.1" xmlns="http://www.w3.org/2000/svg" xmlns:xlink="http://www.w3.org/1999/xlink" width="259" height="253"><defs><clipPath id="enlnqUpXGONB"><path fill="none" stroke="none" d=" M 0 0 L 259 0 L 259 253 L 0 253 L 0 0 Z"/></clipPath></defs><g transform="scale(1,1)" clip-path="url(#enlnqUpXGONB)"><g><rect fill="rgb(255,255,255)" stroke="none" x="0" y="0" width="259" height="253" fill-opacity="1"/><path fill="none" stroke="rgb(0,153,255)" paint-order="fill stroke markers" d=" M 206.1949368887477 143.82884234781957 C 206.1949368887477 180.64782566987236 176.34725354413388 210.49550901448612 139.52827022208095 210.49550901448612 C 102.709286900028 210.49550901448612 72.86160355541419 180.64782566987236 72.86160355541419 143.82884234781957 C 72.86160355541419 107.00985902576676 102.709286900028 77.16217568115304 139.52827022208095 77.16217568115304 C 176.34725354413388 77.16217568115304 206.1949368887477 107.00985902576676 206.1949368887477 143.82884234781957 Z" stroke-opacity="0.6980392156862745" stroke-linecap="round" stroke-linejoin="round" stroke-miterlimit="10"/><path fill="rgb(127,0,255)" stroke="none" paint-order="stroke fill markers" d=" M 160.11084581217554 47.82331479928999 C 165.08312441377592 54.888740053437004 174.0302146547925 57.96261965661162 182.2948938710931 55.44490919559334 L 176.46663352648778 36.31296257859961 Z" fill-opacity="0.09803921568627451"/><path fill="none" stroke="rgb(127,0,255)" paint-order="fill stroke markers" d=" M 160.11084581217554 47.82331479928999 C 165.08312441377592 54.888740053437004 174.0302146547925 57.96261965661162 182.2948938710931 55.44490919559334 L 176.46663352648778 36.31296257859961 Z" stroke-opacity="0.6980392156862745" stroke-linecap="round" stroke-linejoin="round" stroke-miterlimit="10"/><path fill="none" stroke="rgb(127,0,255)" paint-order="fill stroke markers" d=" M 164.19979274075357 44.945726744117366 C 167.92900169195386 50.24479568472765 174.6393193727163 52.550205387108605 180.83782878494173 50.66192254134492" stroke-opacity="0.6980392156862745" stroke-linecap="round" stroke-linejoin="round" stroke-miterlimit="10"/><path fill="rgb(127,0,255)" stroke="none" paint-order="stroke fill markers" d=" M 151.61828673398205 211.88719594872111 C 148.54615863684722 205.41610159416592 142.24778625804626 201.0821708468987 135.10616449957215 200.52515033591993 C 127.96454274109806 199.96812982494117 121.07036469382143 203.27308964263946 117.03204887478458 209.18959524446882 L 133.55096058977574 220.4645921736182 Z" fill-opacity="0.09803921568627451"/><path fill="none" stroke="rgb(127,0,255)" paint-order="fill stroke markers" d=" M 151.61828673398205 211.88719594872111 C 148.54615863684722 205.41610159416592 142.24778625804626 201.0821708468987 135.10616449957215 200.52515033591993 C 127.96454274109806 199.96812982494117 121.07036469382143 203.27308964263946 117.03204887478458 209.18959524446882 L 133.55096058977574 220.4645921736182 Z" stroke-opacity="0.6980392156862745" stroke-linecap="round" stroke-linejoin="round" stroke-miterlimit="10"/><path fill="none" stroke="rgb(127,0,255)" paint-order="fill stroke markers" d=" M 134.8728839131027 203.5160666115747 L 135.33944508604165 197.53423406026522" stroke-opacity="0.6980392156862745" stroke-linecap="round" stroke-linejoin="round" stroke-miterlimit="10"/><path fill="none" stroke="rgb(255,85,0)" paint-order="fill stroke markers" d=" M 95.46235608858626 87.81691820622332 L 100.64201458789694 95.17702267766383" stroke-opacity="0.6980392156862745" stroke-linecap="round" stroke-linejoin="round" stroke-miterlimit="10"/><path fill="none" stroke="rgb(255,85,0)" paint-order="fill stroke markers" d=" M 98.3246189385909 85.8026065676025 L 103.50427743790158 93.162711039043" stroke-opacity="0.6980392156862745" stroke-linecap="round" stroke-linejoin="round" stroke-miterlimit="10"/><path fill="none" stroke="rgb(255,85,0)" paint-order="fill stroke markers" d=" M 22.500000000000103 144.6666666666667 L 176.46663352648773 36.31296257859961" stroke-opacity="0.6980392156862745" stroke-linecap="round" stroke-linejoin="round" stroke-miterlimit="10"/><path fill="none" stroke="rgb(0,100,0)" paint-order="fill stroke markers" d=" M 176.46663352648773 36.31296257859961 L 220.0550647412282 179.3970888549436" stroke-opacity="0.6980392156862745" stroke-linecap="round" stroke-linejoin="round" stroke-miterlimit="10"/><path fill="none" stroke="rgb(0,100,0)" paint-order="fill stroke markers" d=" M 220.0550647412282 179.3970888549436 L 133.55096058977574 220.4645921736182" stroke-opacity="0.6980392156862745" stroke-linecap="round" stroke-linejoin="round" stroke-miterlimit="10"/><path fill="none" stroke="rgb(255,85,0)" paint-order="fill stroke markers" d=" M 78.37941553595277 188.25550901861658 L 83.45316415406998 180.82199874687058" stroke-opacity="0.6980392156862745" stroke-linecap="round" stroke-linejoin="round" stroke-miterlimit="10"/><path fill="none" stroke="rgb(255,85,0)" paint-order="fill stroke markers" d=" M 75.48860598582932 186.28238455601544 L 80.56235460394653 178.84887428426944" stroke-opacity="0.6980392156862745" stroke-linecap="round" stroke-linejoin="round" stroke-miterlimit="10"/><path fill="none" stroke="rgb(255,85,0)" paint-order="fill stroke markers" d=" M 72.59779643570587 184.3092600934143 L 77.67154505382308 176.8757498216683" stroke-opacity="0.6980392156862745" stroke-linecap="round" stroke-linejoin="round" stroke-miterlimit="10"/><path fill="none" stroke="rgb(255,85,0)" paint-order="fill stroke markers" d=" M 133.55096058977574 220.4645921736182 L 22.500000000000103 144.6666666666667" stroke-opacity="0.6980392156862745" stroke-linecap="round" stroke-linejoin="round" stroke-miterlimit="10"/><path fill="rgb(0,0,255)" stroke="none" paint-order="stroke fill markers" d=" M 24.500000000000103 144.6666666666667 C 24.500000000000103 145.7712361663283 23.60456949966169 146.6666666666667 22.500000000000103 146.6666666666667 C 21.395430500338517 146.6666666666667 20.500000000000103 145.7712361663283 20.500000000000103 144.6666666666667 C 20.500000000000103 143.56209716700513 21.395430500338517 142.6666666666667 22.500000000000103 142.6666666666667 C 23.60456949966169 142.6666666666667 24.500000000000103 143.56209716700513 24.500000000000103 144.6666666666667 Z" fill-opacity="1"/><path fill="none" stroke="rgb(0,0,0)" paint-order="fill stroke markers" d=" M 24.500000000000103 144.6666666666667 C 24.500000000000103 145.7712361663283 23.60456949966169 146.6666666666667 22.500000000000103 146.6666666666667 C 21.395430500338517 146.6666666666667 20.500000000000103 145.7712361663283 20.500000000000103 144.6666666666667 C 20.500000000000103 143.56209716700513 21.395430500338517 142.6666666666667 22.500000000000103 142.6666666666667 C 23.60456949966169 142.6666666666667 24.500000000000103 143.56209716700513 24.500000000000103 144.6666666666667 Z" stroke-opacity="1" stroke-linecap="round" stroke-linejoin="round" stroke-miterlimit="10"/><text fill="rgb(0,0,255)" stroke="none" font-family="geogebra-sans-serif, sans-serif" font-size="16px" font-style="normal" font-weight="normal" text-decoration="normal" x="11" y="133" text-anchor="start" dominant-baseline="alphabetic" fill-opacity="1">A</text><text fill="none" stroke="rgb(255,255,255)" font-family="geogebra-sans-serif, sans-serif" font-size="16px" font-style="normal" font-weight="normal" text-decoration="normal" x="11" y="133" text-anchor="start" dominant-baseline="alphabetic" stroke-opacity="1" stroke-linejoin="bevel" stroke-miterlimit="10" stroke-width="3">A</text><text fill="rgb(0,0,255)" stroke="none" font-family="geogebra-sans-serif, sans-serif" font-size="16px" font-style="normal" font-weight="normal" text-decoration="normal" x="11" y="133" text-anchor="start" dominant-baseline="alphabetic" fill-opacity="1">A</text><path fill="rgb(0,0,255)" stroke="none" paint-order="stroke fill markers" d=" M 178.46663352648773 36.31296257859961 C 178.46663352648773 37.417532078261196 177.5712030261493 38.31296257859961 176.46663352648773 38.31296257859961 C 175.36206402682615 38.31296257859961 174.46663352648773 37.417532078261196 174.46663352648773 36.31296257859961 C 174.46663352648773 35.20839307893802 175.36206402682615 34.31296257859961 176.46663352648773 34.31296257859961 C 177.5712030261493 34.31296257859961 178.46663352648773 35.20839307893802 178.46663352648773 36.31296257859961 Z" fill-opacity="1"/><path fill="none" stroke="rgb(0,0,0)" paint-order="fill stroke markers" d=" M 178.46663352648773 36.31296257859961 C 178.46663352648773 37.417532078261196 177.5712030261493 38.31296257859961 176.46663352648773 38.31296257859961 C 175.36206402682615 38.31296257859961 174.46663352648773 37.417532078261196 174.46663352648773 36.31296257859961 C 174.46663352648773 35.20839307893802 175.36206402682615 34.31296257859961 176.46663352648773 34.31296257859961 C 177.5712030261493 34.31296257859961 178.46663352648773 35.20839307893802 178.46663352648773 36.31296257859961 Z" stroke-opacity="1" stroke-linecap="round" stroke-linejoin="round" stroke-miterlimit="10"/><text fill="rgb(0,0,255)" stroke="none" font-family="geogebra-sans-serif, sans-serif" font-size="16px" font-style="normal" font-weight="normal" text-decoration="normal" x="174" y="26" text-anchor="start" dominant-baseline="alphabetic" fill-opacity="1">B</text><text fill="none" stroke="rgb(255,255,255)" font-family="geogebra-sans-serif, sans-serif" font-size="16px" font-style="normal" font-weight="normal" text-decoration="normal" x="174" y="26" text-anchor="start" dominant-baseline="alphabetic" stroke-opacity="1" stroke-linejoin="bevel" stroke-miterlimit="10" stroke-width="3">B</text><text fill="rgb(0,0,255)" stroke="none" font-family="geogebra-sans-serif, sans-serif" font-size="16px" font-style="normal" font-weight="normal" text-decoration="normal" x="174" y="26" text-anchor="start" dominant-baseline="alphabetic" fill-opacity="1">B</text><path fill="rgb(0,0,255)" stroke="none" paint-order="stroke fill markers" d=" M 135.55096058977574 220.4645921736182 C 135.55096058977574 221.56916167327978 134.65553008943732 222.4645921736182 133.55096058977574 222.4645921736182 C 132.44639109011416 222.4645921736182 131.55096058977574 221.56916167327978 131.55096058977574 220.4645921736182 C 131.55096058977574 219.36002267395662 132.44639109011416 218.4645921736182 133.55096058977574 218.4645921736182 C 134.65553008943732 218.4645921736182 135.55096058977574 219.36002267395662 135.55096058977574 220.4645921736182 Z" fill-opacity="1"/><path fill="none" stroke="rgb(0,0,0)" paint-order="fill stroke markers" d=" M 135.55096058977574 220.4645921736182 C 135.55096058977574 221.56916167327978 134.65553008943732 222.4645921736182 133.55096058977574 222.4645921736182 C 132.44639109011416 222.4645921736182 131.55096058977574 221.56916167327978 131.55096058977574 220.4645921736182 C 131.55096058977574 219.36002267395662 132.44639109011416 218.4645921736182 133.55096058977574 218.4645921736182 C 134.65553008943732 218.4645921736182 135.55096058977574 219.36002267395662 135.55096058977574 220.4645921736182 Z" stroke-opacity="1" stroke-linecap="round" stroke-linejoin="round" stroke-miterlimit="10"/><text fill="rgb(0,0,255)" stroke="none" font-family="geogebra-sans-serif, sans-serif" font-size="16px" font-style="normal" font-weight="normal" text-decoration="normal" x="125" y="242" text-anchor="start" dominant-baseline="alphabetic" fill-opacity="1">D</text><text fill="none" stroke="rgb(255,255,255)" font-family="geogebra-sans-serif, sans-serif" font-size="16px" font-style="normal" font-weight="normal" text-decoration="normal" x="125" y="242" text-anchor="start" dominant-baseline="alphabetic" stroke-opacity="1" stroke-linejoin="bevel" stroke-miterlimit="10" stroke-width="3">D</text><text fill="rgb(0,0,255)" stroke="none" font-family="geogebra-sans-serif, sans-serif" font-size="16px" font-style="normal" font-weight="normal" text-decoration="normal" x="125" y="242" text-anchor="start" dominant-baseline="alphabetic" fill-opacity="1">D</text><path fill="rgb(0,0,255)" stroke="none" paint-order="stroke fill markers" d=" M 222.0550647412282 179.3970888549436 C 222.0550647412282 180.50165835460518 221.15963424088977 181.3970888549436 220.0550647412282 181.3970888549436 C 218.9504952415666 181.3970888549436 218.0550647412282 180.50165835460518 218.0550647412282 179.3970888549436 C 218.0550647412282 178.29251935528202 218.9504952415666 177.3970888549436 220.0550647412282 177.3970888549436 C 221.15963424088977 177.3970888549436 222.0550647412282 178.29251935528202 222.0550647412282 179.3970888549436 Z" fill-opacity="1"/><path fill="none" stroke="rgb(0,0,0)" paint-order="fill stroke markers" d=" M 222.0550647412282 179.3970888549436 C 222.0550647412282 180.50165835460518 221.15963424088977 181.3970888549436 220.0550647412282 181.3970888549436 C 218.9504952415666 181.3970888549436 218.0550647412282 180.50165835460518 218.0550647412282 179.3970888549436 C 218.0550647412282 178.29251935528202 218.9504952415666 177.3970888549436 220.0550647412282 177.3970888549436 C 221.15963424088977 177.3970888549436 222.0550647412282 178.29251935528202 222.0550647412282 179.3970888549436 Z" stroke-opacity="1" stroke-linecap="round" stroke-linejoin="round" stroke-miterlimit="10"/><text fill="rgb(0,0,255)" stroke="none" font-family="geogebra-sans-serif, sans-serif" font-size="16px" font-style="normal" font-weight="normal" text-decoration="normal" x="215" y="201" text-anchor="start" dominant-baseline="alphabetic" fill-opacity="1">C</text><text fill="none" stroke="rgb(255,255,255)" font-family="geogebra-sans-serif, sans-serif" font-size="16px" font-style="normal" font-weight="normal" text-decoration="normal" x="215" y="201" text-anchor="start" dominant-baseline="alphabetic" stroke-opacity="1" stroke-linejoin="bevel" stroke-miterlimit="10" stroke-width="3">C</text><text fill="rgb(0,0,255)" stroke="none" font-family="geogebra-sans-serif, sans-serif" font-size="16px" font-style="normal" font-weight="normal" text-decoration="normal" x="215" y="201" text-anchor="start" dominant-baseline="alphabetic" fill-opacity="1">C</text></g></g></svg>