<svg version="1.1" xmlns="http://www.w3.org/2000/svg" xmlns:xlink="http://www.w3.org/1999/xlink" width="332" height="386"><defs><clipPath id="tqSKbzwhSKAK"><path fill="none" stroke="none" d=" M 0 0 L 332 0 L 332 386 L 0 386 L 0 0 Z"/></clipPath></defs><g transform="scale(1,1)" clip-path="url(#tqSKbzwhSKAK)"><g><rect fill="rgb(255,255,255)" stroke="none" x="0" y="0" width="332" height="386" fill-opacity="1"/><path fill="rgb(255,127,0)" stroke="none" paint-order="stroke fill markers" d=" M 47.582311122453994 285.45812539139115 C 49.71473667434277 287.33501234408664 52.222531446060245 288.7360943553799 54.93872891425924 289.56808875517845 L 60.79626746058271 270.44508579595856 Z" fill-opacity="0.09803921568627451"/><path fill="none" stroke="rgb(255,127,0)" paint-order="fill stroke markers" d=" M 47.582311122453994 285.45812539139115 C 49.71473667434277 287.33501234408664 52.222531446060245 288.7360943553799 54.93872891425924 289.56808875517845 L 60.79626746058271 270.44508579595856 Z" stroke-opacity="0.6980392156862745" stroke-linecap="round" stroke-linejoin="round" stroke-miterlimit="10"/><path fill="rgb(255,127,0)" stroke="none" paint-order="stroke fill markers" d=" M 79.02087754547551 262.20714993473564 C 77.85077572741085 259.6185585991038 76.14264935060021 257.30893315322146 74.01022379871144 255.43204620052603 L 60.79626746058271 270.44508579595856 Z" fill-opacity="0.09803921568627451"/><path fill="none" stroke="rgb(255,127,0)" paint-order="fill stroke markers" d=" M 79.02087754547551 262.20714993473564 C 77.85077572741085 259.6185585991038 76.14264935060021 257.30893315322146 74.01022379871144 255.43204620052603 L 60.79626746058271 270.44508579595856 Z" stroke-opacity="0.6980392156862745" stroke-linecap="round" stroke-linejoin="round" stroke-miterlimit="10"/><path fill="rgb(255,127,0)" stroke="none" paint-order="stroke fill markers" d=" M 108.93749116043264 240.09027797421365 C 108.99728058224882 242.78080195594157 109.59945283209444 245.43158628495377 110.70794463217204 247.88387908973365 L 128.93255471706485 239.6459432285107 Z" fill-opacity="0.09803921568627451"/><path fill="none" stroke="rgb(255,127,0)" paint-order="fill stroke markers" d=" M 108.93749116043264 240.09027797421365 C 108.99728058224882 242.78080195594157 109.59945283209444 245.43158628495377 110.70794463217204 247.88387908973365 L 128.93255471706485 239.6459432285107 Z" stroke-opacity="0.6980392156862745" stroke-linecap="round" stroke-linejoin="round" stroke-miterlimit="10"/><path fill="rgb(255,127,0)" stroke="none" paint-order="stroke fill markers" d=" M 147.50512383815717 247.06616399626733 C 148.5035843766206 244.56705002840877 148.98740769551324 241.89213246453573 148.92761827369702 239.20160848280776 L 128.93255471706485 239.6459432285107 Z" fill-opacity="0.09803921568627451"/><path fill="none" stroke="rgb(255,127,0)" paint-order="fill stroke markers" d=" M 147.50512383815717 247.06616399626733 C 148.5035843766206 244.56705002840877 148.98740769551324 241.89213246453573 148.92761827369702 239.20160848280776 L 128.93255471706485 239.6459432285107 Z" stroke-opacity="0.6980392156862745" stroke-linecap="round" stroke-linejoin="round" stroke-miterlimit="10"/><path fill="rgb(255,127,0)" stroke="none" paint-order="stroke fill markers" d=" M 186.1076948880141 253.30728432160842 C 183.95123005095596 255.317382767011 182.26580231184911 257.77935386543993 181.17205344224072 260.5169713997036 L 199.74462256333305 267.93719216746024 Z" fill-opacity="0.09803921568627451"/><path fill="none" stroke="rgb(255,127,0)" paint-order="fill stroke markers" d=" M 186.1076948880141 253.30728432160842 C 183.95123005095596 255.317382767011 182.26580231184911 257.77935386543993 181.17205344224072 260.5169713997036 L 199.74462256333305 267.93719216746024 Z" stroke-opacity="0.6980392156862745" stroke-linecap="round" stroke-linejoin="round" stroke-miterlimit="10"/><path fill="rgb(255,127,0)" stroke="none" paint-order="stroke fill markers" d=" M 205.84329622838757 286.9846639032883 C 208.65091494109316 286.08571255992007 211.2250854015939 284.57719845871475 213.38155023865204 282.56710001331214 L 199.74462256333305 267.93719216746024 Z" fill-opacity="0.09803921568627451"/><path fill="none" stroke="rgb(255,127,0)" paint-order="fill stroke markers" d=" M 205.84329622838757 286.9846639032883 C 208.65091494109316 286.08571255992007 211.2250854015939 284.57719845871475 213.38155023865204 282.56710001331214 L 199.74462256333305 267.93719216746024 Z" stroke-opacity="0.6980392156862745" stroke-linecap="round" stroke-linejoin="round" stroke-miterlimit="10"/><g transform="scale(19,19)"><g transform="translate(7,8.430842105263157)"><path fill="rgb(0,100,0)" stroke="none" paint-order="stroke fill markers" d=" M 0.016 -0.099 L 0.016 -0.099 L 0.093 -0.17200000000000001 Q 0.093 -0.338 0.17200000000000001 -0.517 Q 0.223 -0.634 0.28300000000000003 -0.682 Q 0.312 -0.705 0.339 -0.705 Q 0.398 -0.705 0.398 -0.627 Q 0.398 -0.47300000000000003 0.226 -0.277 Q 0.201 -0.248 0.17500000000000002 -0.222 Q 0.159 -0.20600000000000002 0.153 -0.197 Q 0.148 -0.189 0.148 -0.14 Q 0.148 -0.01 0.209 -0.01 Q 0.26 -0.01 0.339 -0.088 Q 0.34900000000000003 -0.097 0.352 -0.097 Q 0.362 -0.097 0.364 -0.085 Q 0.364 -0.073 0.31 -0.031 L 0.31 -0.031 Q 0.306 -0.028 0.303 -0.026000000000000002 Q 0.25 0.012 0.20700000000000002 0.012 Q 0.114 0.012 0.095 -0.14100000000000001 Q 0.075 -0.121 0.059000000000000004 -0.107 Q 0.028 -0.076 0.023 -0.076 Q 0.015 -0.076 0.011 -0.089 Q 0.011 -0.092 0.016 -0.099 M 0.158 -0.23900000000000002 Q 0.374 -0.464 0.374 -0.631 Q 0.374 -0.683 0.34 -0.683 Q 0.31 -0.683 0.279 -0.626 L 0.278 -0.625 L 0.26 -0.589 Q 0.20400000000000001 -0.47400000000000003 0.159 -0.244 L 0.159 -0.243 Q 0.158 -0.24 0.158 -0.23900000000000002 Z"/></g><g transform="translate(7.417,8.580842105263157) scale(0.7,0.7)"><path fill="rgb(0,100,0)" stroke="none" paint-order="stroke fill markers" d=" M 0.294 -0.64 L 0.294 -0.079 Q 0.294 -0.049 0.306 -0.041 Q 0.323 -0.031 0.387 -0.031 L 0.419 -0.031 L 0.419 0 Q 0.384 -0.003 0.257 -0.003 Q 0.13 -0.003 0.095 0 L 0.095 -0.031 L 0.127 -0.031 Q 0.20400000000000001 -0.031 0.215 -0.049 L 0.216 -0.05 Q 0.22 -0.058 0.22 -0.079 L 0.22 -0.597 Q 0.168 -0.5710000000000001 0.089 -0.5710000000000001 L 0.089 -0.602 Q 0.209 -0.602 0.271 -0.666 Q 0.29 -0.666 0.293 -0.659 L 0.293 -0.659 L 0.293 -0.658 Q 0.294 -0.655 0.294 -0.64 Z"/></g></g><path fill="none" stroke="rgb(0,100,0)" paint-order="fill stroke markers" d=" M 18.499999999999996 318.5000000000008 L 231.49999999999997 76.50000000000159" stroke-opacity="0.6980392156862745" stroke-linecap="round" stroke-linejoin="round" stroke-miterlimit="10"/><g transform="scale(19,19)"><g transform="translate(12.578947368421053,12.167684210526314)"><path fill="rgb(127,0,255)" stroke="none" paint-order="stroke fill markers" d=" M 0.016 -0.099 L 0.016 -0.099 L 0.093 -0.17200000000000001 Q 0.093 -0.338 0.17200000000000001 -0.517 Q 0.223 -0.634 0.28300000000000003 -0.682 Q 0.312 -0.705 0.339 -0.705 Q 0.398 -0.705 0.398 -0.627 Q 0.398 -0.47300000000000003 0.226 -0.277 Q 0.201 -0.248 0.17500000000000002 -0.222 Q 0.159 -0.20600000000000002 0.153 -0.197 Q 0.148 -0.189 0.148 -0.14 Q 0.148 -0.01 0.209 -0.01 Q 0.26 -0.01 0.339 -0.088 Q 0.34900000000000003 -0.097 0.352 -0.097 Q 0.362 -0.097 0.364 -0.085 Q 0.364 -0.073 0.31 -0.031 L 0.31 -0.031 Q 0.306 -0.028 0.303 -0.026000000000000002 Q 0.25 0.012 0.20700000000000002 0.012 Q 0.114 0.012 0.095 -0.14100000000000001 Q 0.075 -0.121 0.059000000000000004 -0.107 Q 0.028 -0.076 0.023 -0.076 Q 0.015 -0.076 0.011 -0.089 Q 0.011 -0.092 0.016 -0.099 M 0.158 -0.23900000000000002 Q 0.374 -0.464 0.374 -0.631 Q 0.374 -0.683 0.34 -0.683 Q 0.31 -0.683 0.279 -0.626 L 0.278 -0.625 L 0.26 -0.589 Q 0.20400000000000001 -0.47400000000000003 0.159 -0.244 L 0.159 -0.243 Q 0.158 -0.24 0.158 -0.23900000000000002 Z"/></g><g transform="translate(12.995947368421053,12.317684210526314) scale(0.7,0.7)"><path fill="rgb(127,0,255)" stroke="none" paint-order="stroke fill markers" d=" M 0.449 -0.17400000000000002 L 0.449 -0.17400000000000002 L 0.421 0 L 0.05 0 Q 0.05 -0.025 0.056 -0.032 L 0.061 -0.037 L 0.253 -0.251 Q 0.358 -0.369 0.358 -0.47200000000000003 Q 0.358 -0.561 0.304 -0.607 L 0.303 -0.608 L 0.302 -0.608 Q 0.27 -0.635 0.224 -0.635 Q 0.152 -0.635 0.109 -0.5730000000000001 Q 0.097 -0.555 0.089 -0.533 Q 0.092 -0.534 0.10200000000000001 -0.534 Q 0.14200000000000002 -0.534 0.153 -0.498 L 0.153 -0.497 Q 0.155 -0.49 0.155 -0.482 Q 0.155 -0.442 0.117 -0.431 Q 0.109 -0.429 0.10300000000000001 -0.429 Q 0.066 -0.429 0.054 -0.46 Q 0.05 -0.47100000000000003 0.05 -0.485 Q 0.05 -0.562 0.109 -0.617 Q 0.162 -0.666 0.23700000000000002 -0.666 Q 0.34700000000000003 -0.666 0.40800000000000003 -0.592 Q 0.443 -0.549 0.448 -0.49 Q 0.449 -0.481 0.449 -0.47200000000000003 Q 0.449 -0.399 0.394 -0.333 Q 0.365 -0.299 0.304 -0.243 L 0.243 -0.189 L 0.233 -0.18 L 0.127 -0.077 L 0.307 -0.077 Q 0.395 -0.077 0.402 -0.085 Q 0.41200000000000003 -0.099 0.424 -0.17400000000000002 L 0.449 -0.17400000000000002 Z"/></g></g><path fill="none" stroke="rgb(127,0,255)" paint-order="fill stroke markers" d=" M 22.999999999999996 242.00000000000102 L 315.49999999999994 235.50000000000105" stroke-opacity="0.6980392156862745" stroke-linecap="round" stroke-linejoin="round" stroke-miterlimit="10"/><g transform="scale(19,19)"><g transform="translate(12,15.641368421052633)"><path fill="rgb(255,0,255)" stroke="none" paint-order="stroke fill markers" d=" M 0.016 -0.099 L 0.016 -0.099 L 0.093 -0.17200000000000001 Q 0.093 -0.338 0.17200000000000001 -0.517 Q 0.223 -0.634 0.28300000000000003 -0.682 Q 0.312 -0.705 0.339 -0.705 Q 0.398 -0.705 0.398 -0.627 Q 0.398 -0.47300000000000003 0.226 -0.277 Q 0.201 -0.248 0.17500000000000002 -0.222 Q 0.159 -0.20600000000000002 0.153 -0.197 Q 0.148 -0.189 0.148 -0.14 Q 0.148 -0.01 0.209 -0.01 Q 0.26 -0.01 0.339 -0.088 Q 0.34900000000000003 -0.097 0.352 -0.097 Q 0.362 -0.097 0.364 -0.085 Q 0.364 -0.073 0.31 -0.031 L 0.31 -0.031 Q 0.306 -0.028 0.303 -0.026000000000000002 Q 0.25 0.012 0.20700000000000002 0.012 Q 0.114 0.012 0.095 -0.14100000000000001 Q 0.075 -0.121 0.059000000000000004 -0.107 Q 0.028 -0.076 0.023 -0.076 Q 0.015 -0.076 0.011 -0.089 Q 0.011 -0.092 0.016 -0.099 M 0.158 -0.23900000000000002 Q 0.374 -0.464 0.374 -0.631 Q 0.374 -0.683 0.34 -0.683 Q 0.31 -0.683 0.279 -0.626 L 0.278 -0.625 L 0.26 -0.589 Q 0.20400000000000001 -0.47400000000000003 0.159 -0.244 L 0.159 -0.243 Q 0.158 -0.24 0.158 -0.23900000000000002 Z"/></g><g transform="translate(12.417,15.791368421052633) scale(0.7,0.7)"><path fill="rgb(255,0,255)" stroke="none" paint-order="stroke fill markers" d=" M 0.088 -0.059000000000000004 L 0.088 -0.059000000000000004 L 0.146 -0.29 Q 0.162 -0.354 0.162 -0.374 Q 0.162 -0.42 0.131 -0.42 Q 0.09 -0.42 0.064 -0.325 Q 0.061 -0.314 0.058 -0.301 Q 0.047 -0.279 0.041 -0.278 Q 0.029 -0.278 0.029 -0.28800000000000003 Q 0.029 -0.304 0.049 -0.36 L 0.049 -0.361 Q 0.049 -0.362 0.05 -0.362 L 0.05 -0.363 L 0.05 -0.364 L 0.059000000000000004 -0.385 Q 0.081 -0.425 0.10400000000000001 -0.435 Q 0.11800000000000001 -0.442 0.134 -0.442 Q 0.19 -0.442 0.215 -0.395 Q 0.224 -0.377 0.226 -0.355 Q 0.29 -0.442 0.382 -0.442 Q 0.468 -0.442 0.491 -0.376 Q 0.497 -0.358 0.497 -0.335 Q 0.497 -0.28400000000000003 0.436 -0.115 Q 0.418 -0.07100000000000001 0.418 -0.044 Q 0.418 -0.011 0.442 -0.011 Q 0.508 -0.011 0.544 -0.135 Q 0.549 -0.151 0.554 -0.152 L 0.554 -0.153 L 0.559 -0.153 Q 0.5710000000000001 -0.153 0.5710000000000001 -0.14300000000000002 Q 0.5710000000000001 -0.126 0.55 -0.08 Q 0.507 0.011 0.44 0.011 Q 0.389 0.011 0.367 -0.032 Q 0.358 -0.05 0.358 -0.07100000000000001 Q 0.358 -0.091 0.368 -0.117 Q 0.433 -0.292 0.433 -0.35000000000000003 Q 0.433 -0.42 0.379 -0.42 Q 0.289 -0.42 0.228 -0.32 Q 0.221 -0.309 0.216 -0.298 L 0.203 -0.248 Q 0.198 -0.225 0.186 -0.181 L 0.164 -0.091 Q 0.147 -0.022 0.145 -0.017 Q 0.136 0.009000000000000001 0.108 0.011 Q 0.083 0.006 0.079 -0.016 Q 0.079 -0.014 0.088 -0.059000000000000004 Z"/></g></g><path fill="none" stroke="rgb(255,0,255)" paint-order="fill stroke markers" d=" M 73.49999999999999 132.50000000000136 L 279.49999999999994 353.5000000000006" stroke-opacity="0.6980392156862745" stroke-linecap="round" stroke-linejoin="round" stroke-miterlimit="10"/><path fill="none" stroke="rgb(102,102,102)" paint-order="fill stroke markers" d=" M 130.72649875683135 42.14509093609644 L 60.79626746058271 270.44508579595856" stroke-opacity="0.6980392156862745" stroke-linejoin="round" stroke-miterlimit="10" stroke-dasharray="9,8"/><path fill="none" stroke="rgb(102,102,102)" paint-order="fill stroke markers" d=" M 278.37079786131187 172.0964781644197 L 128.93255471706485 239.6459432285107" stroke-opacity="0.6980392156862745" stroke-linejoin="round" stroke-miterlimit="10" stroke-dasharray="9,8"/><path fill="none" stroke="rgb(102,102,102)" paint-order="fill stroke markers" d=" M 281.22399399629694 300.4903042387466 L 199.74462256333305 267.93719216746024" stroke-opacity="0.6980392156862745" stroke-linejoin="round" stroke-miterlimit="10" stroke-dasharray="9,8"/><path fill="none" stroke="rgb(102,102,102)" paint-order="fill stroke markers" d=" M 226.49999999999997 351.5000000000006 L 281.22399399629694 300.4903042387466" stroke-opacity="0.6980392156862745" stroke-linejoin="round" stroke-miterlimit="10" stroke-dasharray="9,8"/><path fill="none" stroke="rgb(102,102,102)" paint-order="fill stroke markers" d=" M 281.22399399629694 300.4903042387466 L 278.37079786131187 172.0964781644197" stroke-opacity="0.6980392156862745" stroke-linejoin="round" stroke-miterlimit="10" stroke-dasharray="9,8"/><path fill="none" stroke="rgb(102,102,102)" paint-order="fill stroke markers" d=" M 278.37079786131187 172.0964781644197 L 130.72649875683135 42.14509093609644" stroke-opacity="0.6980392156862745" stroke-linejoin="round" stroke-miterlimit="10" stroke-dasharray="9,8"/><path fill="rgb(255,85,0)" stroke="none" paint-order="stroke fill markers" d=" M 60.79626746058271 270.44508579595856 L 52.81755049598636 283.6890495379379 L 59.98867660569383 285.88562649280914 L 60.79626746058271 270.44508579595856 Z M 54.94125688263206 286.99903313093176 L 52.158926073128406 296.0824595365612 L 53.593151295069895 296.52177492753543 L 56.37548210457355 287.438348521906 L 54.94125688263206 286.99903313093176 Z M 49.81591065459901 303.7316607202492 L 47.03357984509535 312.8150871258787 L 48.46780506703684 313.2544025168529 L 51.2501358765405 304.1709761112234 L 49.81591065459901 303.7316607202492 Z M 44.690564426565956 320.46428830956665 L 41.9082336170623 329.5477147151961 L 43.34245883900379 329.9870301061703 L 46.124789648507445 320.9036037005409 L 44.690564426565956 320.46428830956665 Z M 39.565218198532904 337.1969158988841 L 36.78288738902925 346.28034230451357 L 38.21711261097074 346.7196576954878 L 40.99944342047439 337.6362312898583 L 39.565218198532904 337.1969158988841 Z" fill-opacity="0.6980392156862745"/><path fill="rgb(255,85,0)" stroke="none" paint-order="stroke fill markers" d=" M 128.93255471706468 239.64594322851073 L 113.71948417941593 242.40728073351053 L 114.95517455859938 245.14097224624447 L 114.95517455859931 245.14097224624447 L 108.3269463386305 248.13708128206486 L 108.94479152822223 249.5039270384318 L 115.57301974819109 246.5078180026114 L 116.80871012737452 249.2415095153453 L 128.93255471706482 239.64594322851073 Z M 101.03710230467338 251.43225562655405 L 92.38041251434929 255.34527516063497 L 92.99825770394101 256.7121209170019 L 101.6549474942651 252.799101382921 L 101.03710230467338 251.43225562655405 Z M 85.09056848039216 258.64044950512414 L 76.43387869006807 262.553469039205 L 77.05172387965979 263.920314795572 L 85.70841366998388 260.0072952614911 L 85.09056848039216 258.64044950512414 Z M 69.14403465611095 265.8486433836942 L 60.48734486578685 269.7616629177751 L 61.10519005537857 271.12850867414204 L 69.76187984570267 267.21548914006115 L 69.14403465611095 265.8486433836942 Z" fill-opacity="0.6980392156862745"/><path fill="rgb(255,85,0)" stroke="none" paint-order="stroke fill markers" d=" M 129.21081299585572 238.94947188646975 L 128.65429643827397 240.34241457055165 L 137.47626677079285 243.86701943523605 L 138.0327833283746 242.47407675115414 L 129.21081299585572 238.94947188646975 Z M 145.46181097681153 245.44216505825682 L 144.9052944192298 246.83510774233872 L 153.72726475174863 250.3597126070231 L 154.28378130933038 248.9667699229412 L 145.46181097681153 245.44216505825682 Z M 161.71280895776732 251.9348582300439 L 161.15629240018558 253.3278009141258 L 169.97826273270445 256.85240577881024 L 170.5347792902862 255.4594630947283 L 161.71280895776732 251.9348582300439 Z M 177.96380693872314 258.4275514018309 L 177.4072903811414 259.82049408591286 L 185.5369374437229 263.0684979336838 L 184.42390432855942 265.85438330184763 L 199.74462256333263 267.9371921674602 L 199.74462256333297 267.9371921674602 L 187.20648711646814 258.88966988143795 L 186.09345400130465 261.6755552496018 L 177.96380693872314 258.4275514018309 Z" fill-opacity="0.6980392156862745"/><path fill="rgb(255,85,0)" stroke="none" paint-order="stroke fill markers" d=" M 200.4589027534266 267.7084919050207 L 199.0303423732395 268.16589242989977 L 201.92721236414042 277.21344150441814 L 203.3557727443275 276.7560409795391 L 200.4589027534266 267.7084919050207 Z M 205.7952422103493 284.3750296738703 L 204.3666818301622 284.83243019874936 L 207.26355182106312 293.8799792732677 L 208.6921122012502 293.4225787483886 L 205.7952422103493 284.3750296738703 Z M 211.13158166727203 301.0415674427199 L 209.70302128708494 301.49896796759896 L 212.59989127798585 310.5465170421173 L 214.02845165817294 310.0891165172382 L 211.13158166727203 301.0415674427199 Z M 216.46792112419473 317.7081052115695 L 215.03936074400764 318.16550573644855 L 217.93623073490855 327.21305481096687 L 219.36479111509564 326.7556542860878 L 216.46792112419473 317.7081052115695 Z M 221.80426058111746 334.3746429804191 L 220.37570020093037 334.83204350529815 L 221.21171456111554 337.44309646056905 L 221.21171456111557 337.44309646056905 L 218.35459380074133 338.35789751032723 L 226.49999999999997 351.5000000000006 L 225.49739570167685 336.0708948859318 L 222.64027494130278 336.98569593568993 L 222.6402749413026 336.98569593568993 L 221.80426058111746 334.3746429804191 Z" fill-opacity="0.6980392156862745"/><path fill="rgb(204,0,0)" stroke="none" paint-order="stroke fill markers" d=" M 42.49999999999999 346.5000000000007 C 42.49999999999999 349.26142374915463 40.26142374915396 351.5000000000007 37.49999999999999 351.5000000000007 C 34.73857625084602 351.5000000000007 32.49999999999999 349.26142374915463 32.49999999999999 346.5000000000007 C 32.49999999999999 343.73857625084673 34.73857625084602 341.5000000000007 37.49999999999999 341.5000000000007 C 40.26142374915396 341.5000000000007 42.49999999999999 343.73857625084673 42.49999999999999 346.5000000000007 Z" fill-opacity="1"/><path fill="none" stroke="rgb(0,0,0)" paint-order="fill stroke markers" d=" M 42.49999999999999 346.5000000000007 C 42.49999999999999 349.26142374915463 40.26142374915396 351.5000000000007 37.49999999999999 351.5000000000007 C 34.73857625084602 351.5000000000007 32.49999999999999 349.26142374915463 32.49999999999999 346.5000000000007 C 32.49999999999999 343.73857625084673 34.73857625084602 341.5000000000007 37.49999999999999 341.5000000000007 C 40.26142374915396 341.5000000000007 42.49999999999999 343.73857625084673 42.49999999999999 346.5000000000007 Z" stroke-opacity="1" stroke-linecap="round" stroke-linejoin="round" stroke-miterlimit="10"/><text fill="rgb(204,0,0)" stroke="none" font-family="geogebra-sans-serif, sans-serif" font-size="16px" font-style="normal" font-weight="normal" text-decoration="normal" x="26" y="365" text-anchor="start" dominant-baseline="alphabetic" fill-opacity="1">A</text><text fill="none" stroke="rgb(255,255,255)" font-family="geogebra-sans-serif, sans-serif" font-size="16px" font-style="normal" font-weight="normal" text-decoration="normal" x="26" y="365" text-anchor="start" dominant-baseline="alphabetic" stroke-opacity="1" stroke-linejoin="bevel" stroke-miterlimit="10" stroke-width="3">A</text><text fill="rgb(204,0,0)" stroke="none" font-family="geogebra-sans-serif, sans-serif" font-size="16px" font-style="normal" font-weight="normal" text-decoration="normal" x="26" y="365" text-anchor="start" dominant-baseline="alphabetic" fill-opacity="1">A</text><path fill="rgb(0,0,0)" stroke="none" paint-order="stroke fill markers" d=" M 231.49999999999997 351.5000000000006 C 231.49999999999997 354.2614237491546 229.26142374915395 356.5000000000006 226.49999999999997 356.5000000000006 C 223.738576250846 356.5000000000006 221.49999999999997 354.2614237491546 221.49999999999997 351.5000000000006 C 221.49999999999997 348.7385762508467 223.738576250846 346.5000000000006 226.49999999999997 346.5000000000006 C 229.26142374915395 346.5000000000006 231.49999999999997 348.7385762508467 231.49999999999997 351.5000000000006 Z" fill-opacity="1"/><path fill="none" stroke="rgb(0,0,0)" paint-order="fill stroke markers" d=" M 231.49999999999997 351.5000000000006 C 231.49999999999997 354.2614237491546 229.26142374915395 356.5000000000006 226.49999999999997 356.5000000000006 C 223.738576250846 356.5000000000006 221.49999999999997 354.2614237491546 221.49999999999997 351.5000000000006 C 221.49999999999997 348.7385762508467 223.738576250846 346.5000000000006 226.49999999999997 346.5000000000006 C 229.26142374915395 346.5000000000006 231.49999999999997 348.7385762508467 231.49999999999997 351.5000000000006 Z" stroke-opacity="1" stroke-linecap="round" stroke-linejoin="round" stroke-miterlimit="10"/><text fill="rgb(0,0,0)" stroke="none" font-family="geogebra-sans-serif, sans-serif" font-size="16px" font-style="normal" font-weight="normal" text-decoration="normal" x="226" y="376" text-anchor="start" dominant-baseline="alphabetic" fill-opacity="1">B</text><text fill="none" stroke="rgb(255,255,255)" font-family="geogebra-sans-serif, sans-serif" font-size="16px" font-style="normal" font-weight="normal" text-decoration="normal" x="226" y="376" text-anchor="start" dominant-baseline="alphabetic" stroke-opacity="1" stroke-linejoin="bevel" stroke-miterlimit="10" stroke-width="3">B</text><text fill="rgb(0,0,0)" stroke="none" font-family="geogebra-sans-serif, sans-serif" font-size="16px" font-style="normal" font-weight="normal" text-decoration="normal" x="226" y="376" text-anchor="start" dominant-baseline="alphabetic" fill-opacity="1">B</text><path fill="rgb(255,0,255)" stroke="none" paint-order="stroke fill markers" d=" M 283.22399399629694 300.4903042387466 C 283.22399399629694 301.5948737384082 282.3285634959585 302.4903042387466 281.22399399629694 302.4903042387466 C 280.11942449663536 302.4903042387466 279.22399399629694 301.5948737384082 279.22399399629694 300.4903042387466 C 279.22399399629694 299.385734739085 280.11942449663536 298.4903042387466 281.22399399629694 298.4903042387466 C 282.3285634959585 298.4903042387466 283.22399399629694 299.385734739085 283.22399399629694 300.4903042387466 Z" fill-opacity="1"/><path fill="none" stroke="rgb(0,0,0)" paint-order="fill stroke markers" d=" M 283.22399399629694 300.4903042387466 C 283.22399399629694 301.5948737384082 282.3285634959585 302.4903042387466 281.22399399629694 302.4903042387466 C 280.11942449663536 302.4903042387466 279.22399399629694 301.5948737384082 279.22399399629694 300.4903042387466 C 279.22399399629694 299.385734739085 280.11942449663536 298.4903042387466 281.22399399629694 298.4903042387466 C 282.3285634959585 298.4903042387466 283.22399399629694 299.385734739085 283.22399399629694 300.4903042387466 Z" stroke-opacity="1" stroke-linecap="round" stroke-linejoin="round" stroke-miterlimit="10"/><text fill="rgb(255,0,255)" stroke="none" font-family="geogebra-sans-serif, sans-serif" font-size="16px" font-style="normal" font-weight="normal" text-decoration="normal" x="290" y="304" text-anchor="start" dominant-baseline="alphabetic" fill-opacity="1">B</text><text fill="none" stroke="rgb(255,255,255)" font-family="geogebra-sans-serif, sans-serif" font-size="16px" font-style="normal" font-weight="normal" text-decoration="normal" x="290" y="304" text-anchor="start" dominant-baseline="alphabetic" stroke-opacity="1" stroke-linejoin="bevel" stroke-miterlimit="10" stroke-width="3">B</text><text fill="rgb(255,0,255)" stroke="none" font-family="geogebra-sans-serif, sans-serif" font-size="16px" font-style="normal" font-weight="normal" text-decoration="normal" x="290" y="304" text-anchor="start" dominant-baseline="alphabetic" fill-opacity="1">B</text><text fill="rgb(255,0,255)" stroke="none" font-family="geogebra-sans-serif, sans-serif" font-size="14px" font-style="normal" font-weight="normal" text-decoration="normal" x="301" y="311" text-anchor="start" dominant-baseline="alphabetic" fill-opacity="1">n</text><text fill="none" stroke="rgb(255,255,255)" font-family="geogebra-sans-serif, sans-serif" font-size="14px" font-style="normal" font-weight="normal" text-decoration="normal" x="301" y="311" text-anchor="start" dominant-baseline="alphabetic" stroke-opacity="1" stroke-linejoin="bevel" stroke-miterlimit="10" stroke-width="3">n</text><text fill="rgb(255,0,255)" stroke="none" font-family="geogebra-sans-serif, sans-serif" font-size="14px" font-style="normal" font-weight="normal" text-decoration="normal" x="301" y="311" text-anchor="start" dominant-baseline="alphabetic" fill-opacity="1">n</text><path fill="rgb(127,0,255)" stroke="none" paint-order="stroke fill markers" d=" M 280.37079786131187 172.0964781644197 C 280.37079786131187 173.20104766408127 279.47536736097345 174.0964781644197 278.37079786131187 174.0964781644197 C 277.2662283616503 174.0964781644197 276.37079786131187 173.20104766408127 276.37079786131187 172.0964781644197 C 276.37079786131187 170.9919086647581 277.2662283616503 170.0964781644197 278.37079786131187 170.0964781644197 C 279.47536736097345 170.0964781644197 280.37079786131187 170.9919086647581 280.37079786131187 172.0964781644197 Z" fill-opacity="1"/><path fill="none" stroke="rgb(0,0,0)" paint-order="fill stroke markers" d=" M 280.37079786131187 172.0964781644197 C 280.37079786131187 173.20104766408127 279.47536736097345 174.0964781644197 278.37079786131187 174.0964781644197 C 277.2662283616503 174.0964781644197 276.37079786131187 173.20104766408127 276.37079786131187 172.0964781644197 C 276.37079786131187 170.9919086647581 277.2662283616503 170.0964781644197 278.37079786131187 170.0964781644197 C 279.47536736097345 170.0964781644197 280.37079786131187 170.9919086647581 280.37079786131187 172.0964781644197 Z" stroke-opacity="1" stroke-linecap="round" stroke-linejoin="round" stroke-miterlimit="10"/><text fill="rgb(127,0,255)" stroke="none" font-family="geogebra-sans-serif, sans-serif" font-size="16px" font-style="normal" font-weight="normal" text-decoration="normal" x="282" y="168" text-anchor="start" dominant-baseline="alphabetic" fill-opacity="1">B</text><text fill="none" stroke="rgb(255,255,255)" font-family="geogebra-sans-serif, sans-serif" font-size="16px" font-style="normal" font-weight="normal" text-decoration="normal" x="282" y="168" text-anchor="start" dominant-baseline="alphabetic" stroke-opacity="1" stroke-linejoin="bevel" stroke-miterlimit="10" stroke-width="3">B</text><text fill="rgb(127,0,255)" stroke="none" font-family="geogebra-sans-serif, sans-serif" font-size="16px" font-style="normal" font-weight="normal" text-decoration="normal" x="282" y="168" text-anchor="start" dominant-baseline="alphabetic" fill-opacity="1">B</text><text fill="rgb(127,0,255)" stroke="none" font-family="geogebra-sans-serif, sans-serif" font-size="14px" font-style="normal" font-weight="normal" text-decoration="normal" x="293" y="175" text-anchor="start" dominant-baseline="alphabetic" fill-opacity="1">2</text><text fill="none" stroke="rgb(255,255,255)" font-family="geogebra-sans-serif, sans-serif" font-size="14px" font-style="normal" font-weight="normal" text-decoration="normal" x="293" y="175" text-anchor="start" dominant-baseline="alphabetic" stroke-opacity="1" stroke-linejoin="bevel" stroke-miterlimit="10" stroke-width="3">2</text><text fill="rgb(127,0,255)" stroke="none" font-family="geogebra-sans-serif, sans-serif" font-size="14px" font-style="normal" font-weight="normal" text-decoration="normal" x="293" y="175" text-anchor="start" dominant-baseline="alphabetic" fill-opacity="1">2</text><path fill="rgb(0,153,0)" stroke="none" paint-order="stroke fill markers" d=" M 132.72649875683135 42.14509093609644 C 132.72649875683135 43.249660435758024 131.83106825649293 44.14509093609644 130.72649875683135 44.14509093609644 C 129.62192925716977 44.14509093609644 128.72649875683135 43.249660435758024 128.72649875683135 42.14509093609644 C 128.72649875683135 41.04052143643485 129.62192925716977 40.14509093609644 130.72649875683135 40.14509093609644 C 131.83106825649293 40.14509093609644 132.72649875683135 41.04052143643485 132.72649875683135 42.14509093609644 Z" fill-opacity="1"/><path fill="none" stroke="rgb(0,0,0)" paint-order="fill stroke markers" d=" M 132.72649875683135 42.14509093609644 C 132.72649875683135 43.249660435758024 131.83106825649293 44.14509093609644 130.72649875683135 44.14509093609644 C 129.62192925716977 44.14509093609644 128.72649875683135 43.249660435758024 128.72649875683135 42.14509093609644 C 128.72649875683135 41.04052143643485 129.62192925716977 40.14509093609644 130.72649875683135 40.14509093609644 C 131.83106825649293 40.14509093609644 132.72649875683135 41.04052143643485 132.72649875683135 42.14509093609644 Z" stroke-opacity="1" stroke-linecap="round" stroke-linejoin="round" stroke-miterlimit="10"/><text fill="rgb(0,153,0)" stroke="none" font-family="geogebra-sans-serif, sans-serif" font-size="16px" font-style="normal" font-weight="normal" text-decoration="normal" x="127" y="31" text-anchor="start" dominant-baseline="alphabetic" fill-opacity="1">B</text><text fill="none" stroke="rgb(255,255,255)" font-family="geogebra-sans-serif, sans-serif" font-size="16px" font-style="normal" font-weight="normal" text-decoration="normal" x="127" y="31" text-anchor="start" dominant-baseline="alphabetic" stroke-opacity="1" stroke-linejoin="bevel" stroke-miterlimit="10" stroke-width="3">B</text><text fill="rgb(0,153,0)" stroke="none" font-family="geogebra-sans-serif, sans-serif" font-size="16px" font-style="normal" font-weight="normal" text-decoration="normal" x="127" y="31" text-anchor="start" dominant-baseline="alphabetic" fill-opacity="1">B</text><text fill="rgb(0,153,0)" stroke="none" font-family="geogebra-sans-serif, sans-serif" font-size="14px" font-style="normal" font-weight="normal" text-decoration="normal" x="138" y="38" text-anchor="start" dominant-baseline="alphabetic" fill-opacity="1">1</text><text fill="none" stroke="rgb(255,255,255)" font-family="geogebra-sans-serif, sans-serif" font-size="14px" font-style="normal" font-weight="normal" text-decoration="normal" x="138" y="38" text-anchor="start" dominant-baseline="alphabetic" stroke-opacity="1" stroke-linejoin="bevel" stroke-miterlimit="10" stroke-width="3">1</text><text fill="rgb(0,153,0)" stroke="none" font-family="geogebra-sans-serif, sans-serif" font-size="14px" font-style="normal" font-weight="normal" text-decoration="normal" x="138" y="38" text-anchor="start" dominant-baseline="alphabetic" fill-opacity="1">1</text><path fill="rgb(102,102,102)" stroke="none" paint-order="stroke fill markers" d=" M 62.79626746058271 270.44508579595856 C 62.79626746058271 271.54965529562014 61.9008369602443 272.44508579595856 60.79626746058271 272.44508579595856 C 59.691697960921125 272.44508579595856 58.79626746058271 271.54965529562014 58.79626746058271 270.44508579595856 C 58.79626746058271 269.340516296297 59.691697960921125 268.44508579595856 60.79626746058271 268.44508579595856 C 61.9008369602443 268.44508579595856 62.79626746058271 269.340516296297 62.79626746058271 270.44508579595856 Z" fill-opacity="1"/><path fill="none" stroke="rgb(0,0,0)" paint-order="fill stroke markers" d=" M 62.79626746058271 270.44508579595856 C 62.79626746058271 271.54965529562014 61.9008369602443 272.44508579595856 60.79626746058271 272.44508579595856 C 59.691697960921125 272.44508579595856 58.79626746058271 271.54965529562014 58.79626746058271 270.44508579595856 C 58.79626746058271 269.340516296297 59.691697960921125 268.44508579595856 60.79626746058271 268.44508579595856 C 61.9008369602443 268.44508579595856 62.79626746058271 269.340516296297 62.79626746058271 270.44508579595856 Z" stroke-opacity="1" stroke-linecap="round" stroke-linejoin="round" stroke-miterlimit="10"/><path fill="rgb(102,102,102)" stroke="none" paint-order="stroke fill markers" d=" M 130.93255471706485 239.6459432285107 C 130.93255471706485 240.75051272817228 130.03712421672643 241.6459432285107 128.93255471706485 241.6459432285107 C 127.82798521740325 241.6459432285107 126.93255471706485 240.75051272817228 126.93255471706485 239.6459432285107 C 126.93255471706485 238.54137372884912 127.82798521740325 237.6459432285107 128.93255471706485 237.6459432285107 C 130.03712421672643 237.6459432285107 130.93255471706485 238.54137372884912 130.93255471706485 239.6459432285107 Z" fill-opacity="1"/><path fill="none" stroke="rgb(0,0,0)" paint-order="fill stroke markers" d=" M 130.93255471706485 239.6459432285107 C 130.93255471706485 240.75051272817228 130.03712421672643 241.6459432285107 128.93255471706485 241.6459432285107 C 127.82798521740325 241.6459432285107 126.93255471706485 240.75051272817228 126.93255471706485 239.6459432285107 C 126.93255471706485 238.54137372884912 127.82798521740325 237.6459432285107 128.93255471706485 237.6459432285107 C 130.03712421672643 237.6459432285107 130.93255471706485 238.54137372884912 130.93255471706485 239.6459432285107 Z" stroke-opacity="1" stroke-linecap="round" stroke-linejoin="round" stroke-miterlimit="10"/><path fill="rgb(102,102,102)" stroke="none" paint-order="stroke fill markers" d=" M 201.74462256333305 267.93719216746024 C 201.74462256333305 269.0417616671218 200.84919206299463 269.93719216746024 199.74462256333305 269.93719216746024 C 198.64005306367147 269.93719216746024 197.74462256333305 269.0417616671218 197.74462256333305 267.93719216746024 C 197.74462256333305 266.83262266779866 198.64005306367147 265.93719216746024 199.74462256333305 265.93719216746024 C 200.84919206299463 265.93719216746024 201.74462256333305 266.83262266779866 201.74462256333305 267.93719216746024 Z" fill-opacity="1"/><path fill="none" stroke="rgb(0,0,0)" paint-order="fill stroke markers" d=" M 201.74462256333305 267.93719216746024 C 201.74462256333305 269.0417616671218 200.84919206299463 269.93719216746024 199.74462256333305 269.93719216746024 C 198.64005306367147 269.93719216746024 197.74462256333305 269.0417616671218 197.74462256333305 267.93719216746024 C 197.74462256333305 266.83262266779866 198.64005306367147 265.93719216746024 199.74462256333305 265.93719216746024 C 200.84919206299463 265.93719216746024 201.74462256333305 266.83262266779866 201.74462256333305 267.93719216746024 Z" stroke-opacity="1" stroke-linecap="round" stroke-linejoin="round" stroke-miterlimit="10"/></g></g></svg>