<svg version="1.1" xmlns="http://www.w3.org/2000/svg" xmlns:xlink="http://www.w3.org/1999/xlink" width="337" height="253"><defs><clipPath id="sEOqCwwRMFto"><path fill="none" stroke="none" d=" M 0 0 L 337 0 L 337 253 L 0 253 L 0 0 Z"/></clipPath></defs><g transform="scale(1,1)" clip-path="url(#sEOqCwwRMFto)"><g><rect fill="rgb(255,255,255)" stroke="none" x="0" y="0" width="337" height="253" fill-opacity="1"/><path fill="none" stroke="rgb(0,100,0)" paint-order="fill stroke markers" d=" M 190.5000000000001 69.99999999999997 L 140.50000000000009 220.00000000000003" stroke-opacity="0.6980392156862745" stroke-linecap="round" stroke-linejoin="round" stroke-miterlimit="10"/><path fill="none" stroke="rgb(0,100,0)" paint-order="fill stroke markers" d=" M 190.5000000000001 69.99999999999997 L 240.50000000000014 220.00000000000003" stroke-opacity="0.6980392156862745" stroke-linecap="round" stroke-linejoin="round" stroke-miterlimit="10"/><path fill="none" stroke="rgb(0,100,0)" paint-order="fill stroke markers" d=" M 220.5000000000001 39.99999999999997 L 40.50000000000003 220.00000000000003" stroke-opacity="0.6980392156862745" stroke-linecap="round" stroke-linejoin="round" stroke-miterlimit="10"/><path fill="none" stroke="rgb(0,100,0)" paint-order="fill stroke markers" d=" M 40.50000000000003 220.00000000000003 L 290.50000000000017 220.00000000000003" stroke-opacity="0.6980392156862745" stroke-linecap="round" stroke-linejoin="round" stroke-miterlimit="10"/><path fill="rgb(0,0,255)" stroke="none" paint-order="stroke fill markers" d=" M 42.50000000000003 220.00000000000003 C 42.50000000000003 221.1045694996616 41.604569499661615 222.00000000000003 40.50000000000003 222.00000000000003 C 39.39543050033844 222.00000000000003 38.50000000000003 221.1045694996616 38.50000000000003 220.00000000000003 C 38.50000000000003 218.89543050033845 39.39543050033844 218.00000000000003 40.50000000000003 218.00000000000003 C 41.604569499661615 218.00000000000003 42.50000000000003 218.89543050033845 42.50000000000003 220.00000000000003 Z" fill-opacity="1"/><path fill="none" stroke="rgb(0,0,0)" paint-order="fill stroke markers" d=" M 42.50000000000003 220.00000000000003 C 42.50000000000003 221.1045694996616 41.604569499661615 222.00000000000003 40.50000000000003 222.00000000000003 C 39.39543050033844 222.00000000000003 38.50000000000003 221.1045694996616 38.50000000000003 220.00000000000003 C 38.50000000000003 218.89543050033845 39.39543050033844 218.00000000000003 40.50000000000003 218.00000000000003 C 41.604569499661615 218.00000000000003 42.50000000000003 218.89543050033845 42.50000000000003 220.00000000000003 Z" stroke-opacity="1" stroke-linecap="round" stroke-linejoin="round" stroke-miterlimit="10"/><text fill="rgb(0,0,255)" stroke="none" font-family="geogebra-sans-serif, sans-serif" font-size="16px" font-style="normal" font-weight="normal" text-decoration="normal" x="17" y="238" text-anchor="start" dominant-baseline="alphabetic" fill-opacity="1">O</text><text fill="none" stroke="rgb(255,255,255)" font-family="geogebra-sans-serif, sans-serif" font-size="16px" font-style="normal" font-weight="normal" text-decoration="normal" x="17" y="238" text-anchor="start" dominant-baseline="alphabetic" stroke-opacity="1" stroke-linejoin="bevel" stroke-miterlimit="10" stroke-width="3">O</text><text fill="rgb(0,0,255)" stroke="none" font-family="geogebra-sans-serif, sans-serif" font-size="16px" font-style="normal" font-weight="normal" text-decoration="normal" x="17" y="238" text-anchor="start" dominant-baseline="alphabetic" fill-opacity="1">O</text><path fill="rgb(0,0,255)" stroke="none" paint-order="stroke fill markers" d=" M 192.5000000000001 69.99999999999997 C 192.5000000000001 71.10456949966155 191.6045694996617 71.99999999999997 190.5000000000001 71.99999999999997 C 189.39543050033853 71.99999999999997 188.5000000000001 71.10456949966155 188.5000000000001 69.99999999999997 C 188.5000000000001 68.89543050033838 189.39543050033853 67.99999999999997 190.5000000000001 67.99999999999997 C 191.6045694996617 67.99999999999997 192.5000000000001 68.89543050033838 192.5000000000001 69.99999999999997 Z" fill-opacity="1"/><path fill="none" stroke="rgb(0,0,0)" paint-order="fill stroke markers" d=" M 192.5000000000001 69.99999999999997 C 192.5000000000001 71.10456949966155 191.6045694996617 71.99999999999997 190.5000000000001 71.99999999999997 C 189.39543050033853 71.99999999999997 188.5000000000001 71.10456949966155 188.5000000000001 69.99999999999997 C 188.5000000000001 68.89543050033838 189.39543050033853 67.99999999999997 190.5000000000001 67.99999999999997 C 191.6045694996617 67.99999999999997 192.5000000000001 68.89543050033838 192.5000000000001 69.99999999999997 Z" stroke-opacity="1" stroke-linecap="round" stroke-linejoin="round" stroke-miterlimit="10"/><text fill="rgb(0,0,255)" stroke="none" font-family="geogebra-sans-serif, sans-serif" font-size="16px" font-style="normal" font-weight="normal" text-decoration="normal" x="186" y="51" text-anchor="start" dominant-baseline="alphabetic" fill-opacity="1">X</text><text fill="none" stroke="rgb(255,255,255)" font-family="geogebra-sans-serif, sans-serif" font-size="16px" font-style="normal" font-weight="normal" text-decoration="normal" x="186" y="51" text-anchor="start" dominant-baseline="alphabetic" stroke-opacity="1" stroke-linejoin="bevel" stroke-miterlimit="10" stroke-width="3">X</text><text fill="rgb(0,0,255)" stroke="none" font-family="geogebra-sans-serif, sans-serif" font-size="16px" font-style="normal" font-weight="normal" text-decoration="normal" x="186" y="51" text-anchor="start" dominant-baseline="alphabetic" fill-opacity="1">X</text><path fill="rgb(0,0,255)" stroke="none" paint-order="stroke fill markers" d=" M 213.49090909090924 132.97272727272727 C 213.49090909090924 134.07729677238885 212.59547859057082 134.97272727272727 211.49090909090924 134.97272727272727 C 210.38633959124766 134.97272727272727 209.49090909090924 134.07729677238885 209.49090909090924 132.97272727272727 C 209.49090909090924 131.8681577730657 210.38633959124766 130.97272727272727 211.49090909090924 130.97272727272727 C 212.59547859057082 130.97272727272727 213.49090909090924 131.8681577730657 213.49090909090924 132.97272727272727 Z" fill-opacity="1"/><path fill="none" stroke="rgb(0,0,0)" paint-order="fill stroke markers" d=" M 213.49090909090924 132.97272727272727 C 213.49090909090924 134.07729677238885 212.59547859057082 134.97272727272727 211.49090909090924 134.97272727272727 C 210.38633959124766 134.97272727272727 209.49090909090924 134.07729677238885 209.49090909090924 132.97272727272727 C 209.49090909090924 131.8681577730657 210.38633959124766 130.97272727272727 211.49090909090924 130.97272727272727 C 212.59547859057082 130.97272727272727 213.49090909090924 131.8681577730657 213.49090909090924 132.97272727272727 Z" stroke-opacity="1" stroke-linecap="round" stroke-linejoin="round" stroke-miterlimit="10"/><text fill="rgb(0,0,255)" stroke="none" font-family="geogebra-sans-serif, sans-serif" font-size="16px" font-style="normal" font-weight="normal" text-decoration="normal" x="219" y="132" text-anchor="start" dominant-baseline="alphabetic" fill-opacity="1">A</text><text fill="none" stroke="rgb(255,255,255)" font-family="geogebra-sans-serif, sans-serif" font-size="16px" font-style="normal" font-weight="normal" text-decoration="normal" x="219" y="132" text-anchor="start" dominant-baseline="alphabetic" stroke-opacity="1" stroke-linejoin="bevel" stroke-miterlimit="10" stroke-width="3">A</text><text fill="rgb(0,0,255)" stroke="none" font-family="geogebra-sans-serif, sans-serif" font-size="16px" font-style="normal" font-weight="normal" text-decoration="normal" x="219" y="132" text-anchor="start" dominant-baseline="alphabetic" fill-opacity="1">A</text><path fill="rgb(0,0,255)" stroke="none" paint-order="stroke fill markers" d=" M 159.709090909091 168.37272727272727 C 159.709090909091 169.47729677238885 158.81366040875258 170.37272727272727 157.709090909091 170.37272727272727 C 156.60452140942942 170.37272727272727 155.709090909091 169.47729677238885 155.709090909091 168.37272727272727 C 155.709090909091 167.2681577730657 156.60452140942942 166.37272727272727 157.709090909091 166.37272727272727 C 158.81366040875258 166.37272727272727 159.709090909091 167.2681577730657 159.709090909091 168.37272727272727 Z" fill-opacity="1"/><path fill="none" stroke="rgb(0,0,0)" paint-order="fill stroke markers" d=" M 159.709090909091 168.37272727272727 C 159.709090909091 169.47729677238885 158.81366040875258 170.37272727272727 157.709090909091 170.37272727272727 C 156.60452140942942 170.37272727272727 155.709090909091 169.47729677238885 155.709090909091 168.37272727272727 C 155.709090909091 167.2681577730657 156.60452140942942 166.37272727272727 157.709090909091 166.37272727272727 C 158.81366040875258 166.37272727272727 159.709090909091 167.2681577730657 159.709090909091 168.37272727272727 Z" stroke-opacity="1" stroke-linecap="round" stroke-linejoin="round" stroke-miterlimit="10"/><text fill="rgb(0,0,255)" stroke="none" font-family="geogebra-sans-serif, sans-serif" font-size="16px" font-style="normal" font-weight="normal" text-decoration="normal" x="164" y="189" text-anchor="start" dominant-baseline="alphabetic" fill-opacity="1">B</text><text fill="none" stroke="rgb(255,255,255)" font-family="geogebra-sans-serif, sans-serif" font-size="16px" font-style="normal" font-weight="normal" text-decoration="normal" x="164" y="189" text-anchor="start" dominant-baseline="alphabetic" stroke-opacity="1" stroke-linejoin="bevel" stroke-miterlimit="10" stroke-width="3">B</text><text fill="rgb(0,0,255)" stroke="none" font-family="geogebra-sans-serif, sans-serif" font-size="16px" font-style="normal" font-weight="normal" text-decoration="normal" x="164" y="189" text-anchor="start" dominant-baseline="alphabetic" fill-opacity="1">B</text><path fill="rgb(0,0,255)" stroke="none" paint-order="stroke fill markers" d=" M 222.5000000000001 39.99999999999997 C 222.5000000000001 41.10456949966156 221.6045694996617 41.99999999999997 220.5000000000001 41.99999999999997 C 219.39543050033853 41.99999999999997 218.5000000000001 41.10456949966156 218.5000000000001 39.99999999999997 C 218.5000000000001 38.895430500338385 219.39543050033853 37.99999999999997 220.5000000000001 37.99999999999997 C 221.6045694996617 37.99999999999997 222.5000000000001 38.895430500338385 222.5000000000001 39.99999999999997 Z" fill-opacity="1"/><path fill="none" stroke="rgb(0,0,0)" paint-order="fill stroke markers" d=" M 222.5000000000001 39.99999999999997 C 222.5000000000001 41.10456949966156 221.6045694996617 41.99999999999997 220.5000000000001 41.99999999999997 C 219.39543050033853 41.99999999999997 218.5000000000001 41.10456949966156 218.5000000000001 39.99999999999997 C 218.5000000000001 38.895430500338385 219.39543050033853 37.99999999999997 220.5000000000001 37.99999999999997 C 221.6045694996617 37.99999999999997 222.5000000000001 38.895430500338385 222.5000000000001 39.99999999999997 Z" stroke-opacity="1" stroke-linecap="round" stroke-linejoin="round" stroke-miterlimit="10"/><text fill="rgb(0,0,255)" stroke="none" font-family="geogebra-sans-serif, sans-serif" font-size="16px" font-style="normal" font-weight="normal" text-decoration="normal" x="227" y="33" text-anchor="start" dominant-baseline="alphabetic" fill-opacity="1">M</text><text fill="none" stroke="rgb(255,255,255)" font-family="geogebra-sans-serif, sans-serif" font-size="16px" font-style="normal" font-weight="normal" text-decoration="normal" x="227" y="33" text-anchor="start" dominant-baseline="alphabetic" stroke-opacity="1" stroke-linejoin="bevel" stroke-miterlimit="10" stroke-width="3">M</text><text fill="rgb(0,0,255)" stroke="none" font-family="geogebra-sans-serif, sans-serif" font-size="16px" font-style="normal" font-weight="normal" text-decoration="normal" x="227" y="33" text-anchor="start" dominant-baseline="alphabetic" fill-opacity="1">M</text><path fill="rgb(0,0,255)" stroke="none" paint-order="stroke fill markers" d=" M 292.50000000000017 220.00000000000003 C 292.50000000000017 221.1045694996616 291.60456949966175 222.00000000000003 290.50000000000017 222.00000000000003 C 289.3954305003386 222.00000000000003 288.50000000000017 221.1045694996616 288.50000000000017 220.00000000000003 C 288.50000000000017 218.89543050033845 289.3954305003386 218.00000000000003 290.50000000000017 218.00000000000003 C 291.60456949966175 218.00000000000003 292.50000000000017 218.89543050033845 292.50000000000017 220.00000000000003 Z" fill-opacity="1"/><path fill="none" stroke="rgb(0,0,0)" paint-order="fill stroke markers" d=" M 292.50000000000017 220.00000000000003 C 292.50000000000017 221.1045694996616 291.60456949966175 222.00000000000003 290.50000000000017 222.00000000000003 C 289.3954305003386 222.00000000000003 288.50000000000017 221.1045694996616 288.50000000000017 220.00000000000003 C 288.50000000000017 218.89543050033845 289.3954305003386 218.00000000000003 290.50000000000017 218.00000000000003 C 291.60456949966175 218.00000000000003 292.50000000000017 218.89543050033845 292.50000000000017 220.00000000000003 Z" stroke-opacity="1" stroke-linecap="round" stroke-linejoin="round" stroke-miterlimit="10"/><text fill="rgb(0,0,255)" stroke="none" font-family="geogebra-sans-serif, sans-serif" font-size="16px" font-style="normal" font-weight="normal" text-decoration="normal" x="302" y="225" text-anchor="start" dominant-baseline="alphabetic" fill-opacity="1">N</text><text fill="none" stroke="rgb(255,255,255)" font-family="geogebra-sans-serif, sans-serif" font-size="16px" font-style="normal" font-weight="normal" text-decoration="normal" x="302" y="225" text-anchor="start" dominant-baseline="alphabetic" stroke-opacity="1" stroke-linejoin="bevel" stroke-miterlimit="10" stroke-width="3">N</text><text fill="rgb(0,0,255)" stroke="none" font-family="geogebra-sans-serif, sans-serif" font-size="16px" font-style="normal" font-weight="normal" text-decoration="normal" x="302" y="225" text-anchor="start" dominant-baseline="alphabetic" fill-opacity="1">N</text></g></g></svg>