<svg version="1.1" xmlns="http://www.w3.org/2000/svg" xmlns:xlink="http://www.w3.org/1999/xlink" width="337" height="253"><defs><clipPath id="drBrqiPtGcpH"><path fill="none" stroke="none" d=" M 0 0 L 337 0 L 337 253 L 0 253 L 0 0 Z"/></clipPath></defs><g transform="scale(1,1)" clip-path="url(#drBrqiPtGcpH)"><g><rect fill="rgb(255,255,255)" stroke="none" x="0" y="0" width="337" height="253" fill-opacity="1"/><path fill="none" stroke="rgb(0,153,255)" paint-order="fill stroke markers" d=" M 211.4909090909092 132.9727272727273 C 216.88237162952336 111.65046729320825 210.48899817798167 89.07157554952566 194.71911063892898 73.74130203777418 C 178.94922309987626 58.41102852602268 156.19864253477758 52.65840647909749 135.03729245711077 58.65039294686506 C 113.87594237944394 64.64237941463263 97.51873526588696 81.46864911139005 92.12727272727287 102.7909090909091" stroke-opacity="0.6980392156862745" stroke-linejoin="round" stroke-miterlimit="10" stroke-width="1.5" stroke-dasharray="5.5,4"/><path fill="rgb(127,0,255)" stroke="none" paint-order="stroke fill markers" d=" M 166.78291754873726 77.90569415042091 C 169.27129252049966 85.37081906570808 175.12918093429198 91.2287074795004 182.59430584957917 93.7170824512628 L 190.5000000000001 69.99999999999997 Z" fill-opacity="0.09803921568627451"/><path fill="none" stroke="rgb(127,0,255)" paint-order="fill stroke markers" d=" M 166.78291754873726 77.90569415042091 C 169.27129252049966 85.37081906570808 175.12918093429198 91.2287074795004 182.59430584957917 93.7170824512628 L 190.5000000000001 69.99999999999997 Z" stroke-opacity="0.6980392156862745" stroke-linecap="round" stroke-linejoin="round" stroke-miterlimit="10"/><path fill="rgb(255,127,0)" stroke="none" paint-order="stroke fill markers" d=" M 165.75126265847095 94.74873734152914 C 169.5933827453095 98.59085742836768 174.27728317427776 101.48566709339028 179.4320281894108 103.20391543176797 L 190.5000000000001 69.99999999999997 Z" fill-opacity="0.09803921568627451"/><path fill="none" stroke="rgb(255,127,0)" paint-order="fill stroke markers" d=" M 165.75126265847095 94.74873734152914 C 169.5933827453095 98.59085742836768 174.27728317427776 101.48566709339028 179.4320281894108 103.20391543176797 L 190.5000000000001 69.99999999999997 Z" stroke-opacity="0.6980392156862745" stroke-linecap="round" stroke-linejoin="round" stroke-miterlimit="10"/><path fill="none" stroke="rgb(255,127,0)" paint-order="fill stroke markers" d=" M 173.67660441218783 97.22082586726525 L 170.52221773947304 102.32473071737749" stroke-opacity="0.6980392156862745" stroke-linecap="round" stroke-linejoin="round" stroke-miterlimit="10"/><path fill="rgb(255,0,255)" stroke="none" paint-order="stroke fill markers" d=" M 70.50000000000003 220.00000000000006 C 70.50000000000003 212.04350530481372 67.33929478903751 204.41288791784467 61.713203435596455 198.78679656440363 L 40.50000000000003 220.00000000000003 Z" fill-opacity="0.09803921568627451"/><path fill="none" stroke="rgb(255,0,255)" paint-order="fill stroke markers" d=" M 70.50000000000003 220.00000000000006 C 70.50000000000003 212.04350530481372 67.33929478903751 204.41288791784467 61.713203435596455 198.78679656440363 L 40.50000000000003 220.00000000000003 Z" stroke-opacity="0.6980392156862745" stroke-linecap="round" stroke-linejoin="round" stroke-miterlimit="10"/><path fill="none" stroke="rgb(255,0,255)" paint-order="fill stroke markers" d=" M 66.17852593996918 211.65654115187647 L 71.8848650377401 209.80243918562678" stroke-opacity="0.6980392156862745" stroke-linecap="round" stroke-linejoin="round" stroke-miterlimit="10"/><path fill="none" stroke="rgb(255,0,255)" paint-order="fill stroke markers" d=" M 64.55717615308596 207.74225650703227 L 69.90321529821617 205.01831350859499" stroke-opacity="0.6980392156862745" stroke-linecap="round" stroke-linejoin="round" stroke-miterlimit="10"/><path fill="rgb(0,153,0)" stroke="none" paint-order="stroke fill markers" d=" M 181.01316701949497 98.46049894151537 C 187.17117125343333 100.51316701949483 193.8288287465669 100.51316701949483 199.98683298050526 98.4604989415154 L 190.5000000000001 69.99999999999997 Z" fill-opacity="0.09803921568627451"/><path fill="none" stroke="rgb(0,153,0)" paint-order="fill stroke markers" d=" M 181.01316701949497 98.46049894151537 C 187.17117125343333 100.51316701949483 193.8288287465669 100.51316701949483 199.98683298050526 98.4604989415154 L 190.5000000000001 69.99999999999997 Z" stroke-opacity="0.6980392156862745" stroke-linecap="round" stroke-linejoin="round" stroke-miterlimit="10"/><path fill="none" stroke="rgb(0,153,0)" paint-order="fill stroke markers" d=" M 182.59430584957917 93.7170824512628 C 187.72597604452778 95.42763918291237 193.27402395547244 95.42763918291237 198.40569415042106 93.7170824512628" stroke-opacity="0.6980392156862745" stroke-linecap="round" stroke-linejoin="round" stroke-miterlimit="10"/><path fill="rgb(255,0,0)" stroke="none" paint-order="stroke fill markers" fill-rule="evenodd" d=" M 124.91818181818192 135.58181818181816 L 117.41818181818243 143.08181818181765 L 124.91818181818192 150.58181818181816 L 132.4181818181814 143.08181818181765 L 124.91818181818192 135.58181818181816" fill-opacity="0.09803921568627451"/><path fill="none" stroke="rgb(255,0,0)" paint-order="fill stroke markers" d=" M 124.91818181818192 135.58181818181816 L 117.41818181818243 143.08181818181765 L 124.91818181818192 150.58181818181816 L 132.4181818181814 143.08181818181765 L 124.91818181818192 135.58181818181816" stroke-opacity="0.6980392156862745" stroke-linecap="round" stroke-linejoin="round" stroke-miterlimit="10" stroke-width="1.5"/><path fill="none" stroke="rgb(0,100,0)" paint-order="fill stroke markers" d=" M 190.5000000000001 69.99999999999997 L 140.50000000000009 220.00000000000003" stroke-opacity="0.6980392156862745" stroke-linecap="round" stroke-linejoin="round" stroke-miterlimit="10"/><path fill="none" stroke="rgb(0,100,0)" paint-order="fill stroke markers" d=" M 190.5000000000001 69.99999999999997 L 240.50000000000014 220.00000000000003" stroke-opacity="0.6980392156862745" stroke-linecap="round" stroke-linejoin="round" stroke-miterlimit="10"/><path fill="none" stroke="rgb(0,100,0)" paint-order="fill stroke markers" d=" M 220.5000000000001 39.99999999999997 L 40.50000000000003 220.00000000000003" stroke-opacity="0.6980392156862745" stroke-linecap="round" stroke-linejoin="round" stroke-miterlimit="10"/><path fill="none" stroke="rgb(0,100,0)" paint-order="fill stroke markers" d=" M 40.50000000000003 220.00000000000003 L 290.50000000000017 220.00000000000003" stroke-opacity="0.6980392156862745" stroke-linecap="round" stroke-linejoin="round" stroke-miterlimit="10"/><path fill="none" stroke="rgb(102,102,102)" paint-order="fill stroke markers" d=" M 92.12727272727278 102.79090909090905 L 157.709090909091 168.37272727272727" stroke-opacity="0.6980392156862745" stroke-linejoin="round" stroke-miterlimit="10" stroke-dasharray="9,8"/><path fill="none" stroke="rgb(102,102,102)" paint-order="fill stroke markers" d=" M 92.12727272727278 102.79090909090905 L 211.49090909090924 132.97272727272727" stroke-opacity="0.6980392156862745" stroke-linejoin="round" stroke-miterlimit="10" stroke-dasharray="9,8"/><path fill="none" stroke="rgb(102,102,102)" paint-order="fill stroke markers" d=" M 92.12727272727278 102.79090909090905 L 190.5000000000001 69.99999999999997" stroke-opacity="0.6980392156862745" stroke-linejoin="round" stroke-miterlimit="10" stroke-dasharray="9,8"/><path fill="none" stroke="rgb(102,102,102)" paint-order="fill stroke markers" d=" M 143.25818001189947 147.5578553448568 L 136.89421898122055 153.9218163755357" stroke-opacity="0.6980392156862745" stroke-linecap="round" stroke-linejoin="round" stroke-miterlimit="10"/><path fill="none" stroke="rgb(102,102,102)" paint-order="fill stroke markers" d=" M 145.7330537460524 150.03272907900973 L 139.36909271537348 156.39669010968865" stroke-opacity="0.6980392156862745" stroke-linecap="round" stroke-linejoin="round" stroke-miterlimit="10"/><path fill="none" stroke="rgb(102,102,102)" paint-order="fill stroke markers" d=" M 124.91818181818192 135.58181818181816 L 157.709090909091 168.37272727272727" stroke-opacity="0.6980392156862745" stroke-linejoin="round" stroke-miterlimit="10" stroke-dasharray="9,8"/><path fill="none" stroke="rgb(102,102,102)" paint-order="fill stroke markers" d=" M 106.57818362446434 123.60578101877952 L 112.94214465514327 117.2418199881006" stroke-opacity="0.6980392156862745" stroke-linecap="round" stroke-linejoin="round" stroke-miterlimit="10"/><path fill="none" stroke="rgb(102,102,102)" paint-order="fill stroke markers" d=" M 104.10330989031144 121.13090728462662 L 110.46727092099036 114.7669462539477" stroke-opacity="0.6980392156862745" stroke-linecap="round" stroke-linejoin="round" stroke-miterlimit="10"/><path fill="none" stroke="rgb(102,102,102)" paint-order="fill stroke markers" d=" M 124.91818181818192 135.58181818181816 L 92.12727272727278 102.79090909090905" stroke-opacity="0.6980392156862745" stroke-linejoin="round" stroke-miterlimit="10" stroke-dasharray="9,8"/><path fill="rgb(0,0,255)" stroke="none" paint-order="stroke fill markers" d=" M 42.50000000000003 220.00000000000003 C 42.50000000000003 221.1045694996616 41.604569499661615 222.00000000000003 40.50000000000003 222.00000000000003 C 39.39543050033844 222.00000000000003 38.50000000000003 221.1045694996616 38.50000000000003 220.00000000000003 C 38.50000000000003 218.89543050033845 39.39543050033844 218.00000000000003 40.50000000000003 218.00000000000003 C 41.604569499661615 218.00000000000003 42.50000000000003 218.89543050033845 42.50000000000003 220.00000000000003 Z" fill-opacity="1"/><path fill="none" stroke="rgb(0,0,0)" paint-order="fill stroke markers" d=" M 42.50000000000003 220.00000000000003 C 42.50000000000003 221.1045694996616 41.604569499661615 222.00000000000003 40.50000000000003 222.00000000000003 C 39.39543050033844 222.00000000000003 38.50000000000003 221.1045694996616 38.50000000000003 220.00000000000003 C 38.50000000000003 218.89543050033845 39.39543050033844 218.00000000000003 40.50000000000003 218.00000000000003 C 41.604569499661615 218.00000000000003 42.50000000000003 218.89543050033845 42.50000000000003 220.00000000000003 Z" stroke-opacity="1" stroke-linecap="round" stroke-linejoin="round" stroke-miterlimit="10"/><text fill="rgb(0,0,255)" stroke="none" font-family="geogebra-sans-serif, sans-serif" font-size="16px" font-style="normal" font-weight="normal" text-decoration="normal" x="17" y="238" text-anchor="start" dominant-baseline="alphabetic" fill-opacity="1">O</text><text fill="none" stroke="rgb(255,255,255)" font-family="geogebra-sans-serif, sans-serif" font-size="16px" font-style="normal" font-weight="normal" text-decoration="normal" x="17" y="238" text-anchor="start" dominant-baseline="alphabetic" stroke-opacity="1" stroke-linejoin="bevel" stroke-miterlimit="10" stroke-width="3">O</text><text fill="rgb(0,0,255)" stroke="none" font-family="geogebra-sans-serif, sans-serif" font-size="16px" font-style="normal" font-weight="normal" text-decoration="normal" x="17" y="238" text-anchor="start" dominant-baseline="alphabetic" fill-opacity="1">O</text><path fill="rgb(0,0,255)" stroke="none" paint-order="stroke fill markers" d=" M 192.5000000000001 69.99999999999997 C 192.5000000000001 71.10456949966155 191.6045694996617 71.99999999999997 190.5000000000001 71.99999999999997 C 189.39543050033853 71.99999999999997 188.5000000000001 71.10456949966155 188.5000000000001 69.99999999999997 C 188.5000000000001 68.89543050033838 189.39543050033853 67.99999999999997 190.5000000000001 67.99999999999997 C 191.6045694996617 67.99999999999997 192.5000000000001 68.89543050033838 192.5000000000001 69.99999999999997 Z" fill-opacity="1"/><path fill="none" stroke="rgb(0,0,0)" paint-order="fill stroke markers" d=" M 192.5000000000001 69.99999999999997 C 192.5000000000001 71.10456949966155 191.6045694996617 71.99999999999997 190.5000000000001 71.99999999999997 C 189.39543050033853 71.99999999999997 188.5000000000001 71.10456949966155 188.5000000000001 69.99999999999997 C 188.5000000000001 68.89543050033838 189.39543050033853 67.99999999999997 190.5000000000001 67.99999999999997 C 191.6045694996617 67.99999999999997 192.5000000000001 68.89543050033838 192.5000000000001 69.99999999999997 Z" stroke-opacity="1" stroke-linecap="round" stroke-linejoin="round" stroke-miterlimit="10"/><text fill="rgb(0,0,255)" stroke="none" font-family="geogebra-sans-serif, sans-serif" font-size="16px" font-style="normal" font-weight="normal" text-decoration="normal" x="186" y="51" text-anchor="start" dominant-baseline="alphabetic" fill-opacity="1">X</text><text fill="none" stroke="rgb(255,255,255)" font-family="geogebra-sans-serif, sans-serif" font-size="16px" font-style="normal" font-weight="normal" text-decoration="normal" x="186" y="51" text-anchor="start" dominant-baseline="alphabetic" stroke-opacity="1" stroke-linejoin="bevel" stroke-miterlimit="10" stroke-width="3">X</text><text fill="rgb(0,0,255)" stroke="none" font-family="geogebra-sans-serif, sans-serif" font-size="16px" font-style="normal" font-weight="normal" text-decoration="normal" x="186" y="51" text-anchor="start" dominant-baseline="alphabetic" fill-opacity="1">X</text><path fill="rgb(0,0,255)" stroke="none" paint-order="stroke fill markers" d=" M 142.50000000000009 220.00000000000003 C 142.50000000000009 221.1045694996616 141.60456949966166 222.00000000000003 140.50000000000009 222.00000000000003 C 139.3954305003385 222.00000000000003 138.50000000000009 221.1045694996616 138.50000000000009 220.00000000000003 C 138.50000000000009 218.89543050033845 139.3954305003385 218.00000000000003 140.50000000000009 218.00000000000003 C 141.60456949966166 218.00000000000003 142.50000000000009 218.89543050033845 142.50000000000009 220.00000000000003 Z" fill-opacity="1"/><path fill="none" stroke="rgb(0,0,0)" paint-order="fill stroke markers" d=" M 142.50000000000009 220.00000000000003 C 142.50000000000009 221.1045694996616 141.60456949966166 222.00000000000003 140.50000000000009 222.00000000000003 C 139.3954305003385 222.00000000000003 138.50000000000009 221.1045694996616 138.50000000000009 220.00000000000003 C 138.50000000000009 218.89543050033845 139.3954305003385 218.00000000000003 140.50000000000009 218.00000000000003 C 141.60456949966166 218.00000000000003 142.50000000000009 218.89543050033845 142.50000000000009 220.00000000000003 Z" stroke-opacity="1" stroke-linecap="round" stroke-linejoin="round" stroke-miterlimit="10"/><text fill="rgb(0,0,255)" stroke="none" font-family="geogebra-sans-serif, sans-serif" font-size="16px" font-style="normal" font-weight="normal" text-decoration="normal" x="132" y="241" text-anchor="start" dominant-baseline="alphabetic" fill-opacity="1">Z</text><text fill="none" stroke="rgb(255,255,255)" font-family="geogebra-sans-serif, sans-serif" font-size="16px" font-style="normal" font-weight="normal" text-decoration="normal" x="132" y="241" text-anchor="start" dominant-baseline="alphabetic" stroke-opacity="1" stroke-linejoin="bevel" stroke-miterlimit="10" stroke-width="3">Z</text><text fill="rgb(0,0,255)" stroke="none" font-family="geogebra-sans-serif, sans-serif" font-size="16px" font-style="normal" font-weight="normal" text-decoration="normal" x="132" y="241" text-anchor="start" dominant-baseline="alphabetic" fill-opacity="1">Z</text><path fill="rgb(0,0,255)" stroke="none" paint-order="stroke fill markers" d=" M 242.50000000000014 220.00000000000003 C 242.50000000000014 221.1045694996616 241.60456949966172 222.00000000000003 240.50000000000014 222.00000000000003 C 239.39543050033856 222.00000000000003 238.50000000000014 221.1045694996616 238.50000000000014 220.00000000000003 C 238.50000000000014 218.89543050033845 239.39543050033856 218.00000000000003 240.50000000000014 218.00000000000003 C 241.60456949966172 218.00000000000003 242.50000000000014 218.89543050033845 242.50000000000014 220.00000000000003 Z" fill-opacity="1"/><path fill="none" stroke="rgb(0,0,0)" paint-order="fill stroke markers" d=" M 242.50000000000014 220.00000000000003 C 242.50000000000014 221.1045694996616 241.60456949966172 222.00000000000003 240.50000000000014 222.00000000000003 C 239.39543050033856 222.00000000000003 238.50000000000014 221.1045694996616 238.50000000000014 220.00000000000003 C 238.50000000000014 218.89543050033845 239.39543050033856 218.00000000000003 240.50000000000014 218.00000000000003 C 241.60456949966172 218.00000000000003 242.50000000000014 218.89543050033845 242.50000000000014 220.00000000000003 Z" stroke-opacity="1" stroke-linecap="round" stroke-linejoin="round" stroke-miterlimit="10"/><text fill="rgb(0,0,255)" stroke="none" font-family="geogebra-sans-serif, sans-serif" font-size="16px" font-style="normal" font-weight="normal" text-decoration="normal" x="241" y="240" text-anchor="start" dominant-baseline="alphabetic" fill-opacity="1">Y</text><text fill="none" stroke="rgb(255,255,255)" font-family="geogebra-sans-serif, sans-serif" font-size="16px" font-style="normal" font-weight="normal" text-decoration="normal" x="241" y="240" text-anchor="start" dominant-baseline="alphabetic" stroke-opacity="1" stroke-linejoin="bevel" stroke-miterlimit="10" stroke-width="3">Y</text><text fill="rgb(0,0,255)" stroke="none" font-family="geogebra-sans-serif, sans-serif" font-size="16px" font-style="normal" font-weight="normal" text-decoration="normal" x="241" y="240" text-anchor="start" dominant-baseline="alphabetic" fill-opacity="1">Y</text><path fill="rgb(0,0,255)" stroke="none" paint-order="stroke fill markers" d=" M 213.49090909090924 132.97272727272727 C 213.49090909090924 134.07729677238885 212.59547859057082 134.97272727272727 211.49090909090924 134.97272727272727 C 210.38633959124766 134.97272727272727 209.49090909090924 134.07729677238885 209.49090909090924 132.97272727272727 C 209.49090909090924 131.8681577730657 210.38633959124766 130.97272727272727 211.49090909090924 130.97272727272727 C 212.59547859057082 130.97272727272727 213.49090909090924 131.8681577730657 213.49090909090924 132.97272727272727 Z" fill-opacity="1"/><path fill="none" stroke="rgb(0,0,0)" paint-order="fill stroke markers" d=" M 213.49090909090924 132.97272727272727 C 213.49090909090924 134.07729677238885 212.59547859057082 134.97272727272727 211.49090909090924 134.97272727272727 C 210.38633959124766 134.97272727272727 209.49090909090924 134.07729677238885 209.49090909090924 132.97272727272727 C 209.49090909090924 131.8681577730657 210.38633959124766 130.97272727272727 211.49090909090924 130.97272727272727 C 212.59547859057082 130.97272727272727 213.49090909090924 131.8681577730657 213.49090909090924 132.97272727272727 Z" stroke-opacity="1" stroke-linecap="round" stroke-linejoin="round" stroke-miterlimit="10"/><text fill="rgb(0,0,255)" stroke="none" font-family="geogebra-sans-serif, sans-serif" font-size="16px" font-style="normal" font-weight="normal" text-decoration="normal" x="219" y="132" text-anchor="start" dominant-baseline="alphabetic" fill-opacity="1">A</text><text fill="none" stroke="rgb(255,255,255)" font-family="geogebra-sans-serif, sans-serif" font-size="16px" font-style="normal" font-weight="normal" text-decoration="normal" x="219" y="132" text-anchor="start" dominant-baseline="alphabetic" stroke-opacity="1" stroke-linejoin="bevel" stroke-miterlimit="10" stroke-width="3">A</text><text fill="rgb(0,0,255)" stroke="none" font-family="geogebra-sans-serif, sans-serif" font-size="16px" font-style="normal" font-weight="normal" text-decoration="normal" x="219" y="132" text-anchor="start" dominant-baseline="alphabetic" fill-opacity="1">A</text><path fill="rgb(0,0,255)" stroke="none" paint-order="stroke fill markers" d=" M 159.709090909091 168.37272727272727 C 159.709090909091 169.47729677238885 158.81366040875258 170.37272727272727 157.709090909091 170.37272727272727 C 156.60452140942942 170.37272727272727 155.709090909091 169.47729677238885 155.709090909091 168.37272727272727 C 155.709090909091 167.2681577730657 156.60452140942942 166.37272727272727 157.709090909091 166.37272727272727 C 158.81366040875258 166.37272727272727 159.709090909091 167.2681577730657 159.709090909091 168.37272727272727 Z" fill-opacity="1"/><path fill="none" stroke="rgb(0,0,0)" paint-order="fill stroke markers" d=" M 159.709090909091 168.37272727272727 C 159.709090909091 169.47729677238885 158.81366040875258 170.37272727272727 157.709090909091 170.37272727272727 C 156.60452140942942 170.37272727272727 155.709090909091 169.47729677238885 155.709090909091 168.37272727272727 C 155.709090909091 167.2681577730657 156.60452140942942 166.37272727272727 157.709090909091 166.37272727272727 C 158.81366040875258 166.37272727272727 159.709090909091 167.2681577730657 159.709090909091 168.37272727272727 Z" stroke-opacity="1" stroke-linecap="round" stroke-linejoin="round" stroke-miterlimit="10"/><text fill="rgb(0,0,255)" stroke="none" font-family="geogebra-sans-serif, sans-serif" font-size="16px" font-style="normal" font-weight="normal" text-decoration="normal" x="164" y="189" text-anchor="start" dominant-baseline="alphabetic" fill-opacity="1">B</text><text fill="none" stroke="rgb(255,255,255)" font-family="geogebra-sans-serif, sans-serif" font-size="16px" font-style="normal" font-weight="normal" text-decoration="normal" x="164" y="189" text-anchor="start" dominant-baseline="alphabetic" stroke-opacity="1" stroke-linejoin="bevel" stroke-miterlimit="10" stroke-width="3">B</text><text fill="rgb(0,0,255)" stroke="none" font-family="geogebra-sans-serif, sans-serif" font-size="16px" font-style="normal" font-weight="normal" text-decoration="normal" x="164" y="189" text-anchor="start" dominant-baseline="alphabetic" fill-opacity="1">B</text><path fill="rgb(0,0,255)" stroke="none" paint-order="stroke fill markers" d=" M 222.5000000000001 39.99999999999997 C 222.5000000000001 41.10456949966156 221.6045694996617 41.99999999999997 220.5000000000001 41.99999999999997 C 219.39543050033853 41.99999999999997 218.5000000000001 41.10456949966156 218.5000000000001 39.99999999999997 C 218.5000000000001 38.895430500338385 219.39543050033853 37.99999999999997 220.5000000000001 37.99999999999997 C 221.6045694996617 37.99999999999997 222.5000000000001 38.895430500338385 222.5000000000001 39.99999999999997 Z" fill-opacity="1"/><path fill="none" stroke="rgb(0,0,0)" paint-order="fill stroke markers" d=" M 222.5000000000001 39.99999999999997 C 222.5000000000001 41.10456949966156 221.6045694996617 41.99999999999997 220.5000000000001 41.99999999999997 C 219.39543050033853 41.99999999999997 218.5000000000001 41.10456949966156 218.5000000000001 39.99999999999997 C 218.5000000000001 38.895430500338385 219.39543050033853 37.99999999999997 220.5000000000001 37.99999999999997 C 221.6045694996617 37.99999999999997 222.5000000000001 38.895430500338385 222.5000000000001 39.99999999999997 Z" stroke-opacity="1" stroke-linecap="round" stroke-linejoin="round" stroke-miterlimit="10"/><text fill="rgb(0,0,255)" stroke="none" font-family="geogebra-sans-serif, sans-serif" font-size="16px" font-style="normal" font-weight="normal" text-decoration="normal" x="227" y="33" text-anchor="start" dominant-baseline="alphabetic" fill-opacity="1">M</text><text fill="none" stroke="rgb(255,255,255)" font-family="geogebra-sans-serif, sans-serif" font-size="16px" font-style="normal" font-weight="normal" text-decoration="normal" x="227" y="33" text-anchor="start" dominant-baseline="alphabetic" stroke-opacity="1" stroke-linejoin="bevel" stroke-miterlimit="10" stroke-width="3">M</text><text fill="rgb(0,0,255)" stroke="none" font-family="geogebra-sans-serif, sans-serif" font-size="16px" font-style="normal" font-weight="normal" text-decoration="normal" x="227" y="33" text-anchor="start" dominant-baseline="alphabetic" fill-opacity="1">M</text><path fill="rgb(0,0,255)" stroke="none" paint-order="stroke fill markers" d=" M 292.50000000000017 220.00000000000003 C 292.50000000000017 221.1045694996616 291.60456949966175 222.00000000000003 290.50000000000017 222.00000000000003 C 289.3954305003386 222.00000000000003 288.50000000000017 221.1045694996616 288.50000000000017 220.00000000000003 C 288.50000000000017 218.89543050033845 289.3954305003386 218.00000000000003 290.50000000000017 218.00000000000003 C 291.60456949966175 218.00000000000003 292.50000000000017 218.89543050033845 292.50000000000017 220.00000000000003 Z" fill-opacity="1"/><path fill="none" stroke="rgb(0,0,0)" paint-order="fill stroke markers" d=" M 292.50000000000017 220.00000000000003 C 292.50000000000017 221.1045694996616 291.60456949966175 222.00000000000003 290.50000000000017 222.00000000000003 C 289.3954305003386 222.00000000000003 288.50000000000017 221.1045694996616 288.50000000000017 220.00000000000003 C 288.50000000000017 218.89543050033845 289.3954305003386 218.00000000000003 290.50000000000017 218.00000000000003 C 291.60456949966175 218.00000000000003 292.50000000000017 218.89543050033845 292.50000000000017 220.00000000000003 Z" stroke-opacity="1" stroke-linecap="round" stroke-linejoin="round" stroke-miterlimit="10"/><text fill="rgb(0,0,255)" stroke="none" font-family="geogebra-sans-serif, sans-serif" font-size="16px" font-style="normal" font-weight="normal" text-decoration="normal" x="302" y="225" text-anchor="start" dominant-baseline="alphabetic" fill-opacity="1">N</text><text fill="none" stroke="rgb(255,255,255)" font-family="geogebra-sans-serif, sans-serif" font-size="16px" font-style="normal" font-weight="normal" text-decoration="normal" x="302" y="225" text-anchor="start" dominant-baseline="alphabetic" stroke-opacity="1" stroke-linejoin="bevel" stroke-miterlimit="10" stroke-width="3">N</text><text fill="rgb(0,0,255)" stroke="none" font-family="geogebra-sans-serif, sans-serif" font-size="16px" font-style="normal" font-weight="normal" text-decoration="normal" x="302" y="225" text-anchor="start" dominant-baseline="alphabetic" fill-opacity="1">N</text><path fill="rgb(0,0,255)" stroke="none" paint-order="stroke fill markers" d=" M 94.12727272727278 102.79090909090905 C 94.12727272727278 103.89547859057063 93.23184222693436 104.79090909090905 92.12727272727278 104.79090909090905 C 91.02270322761119 104.79090909090905 90.12727272727278 103.89547859057063 90.12727272727278 102.79090909090905 C 90.12727272727278 101.68633959124746 91.02270322761119 100.79090909090905 92.12727272727278 100.79090909090905 C 93.23184222693436 100.79090909090905 94.12727272727278 101.68633959124746 94.12727272727278 102.79090909090905 Z" fill-opacity="1"/><path fill="none" stroke="rgb(0,0,0)" paint-order="fill stroke markers" d=" M 94.12727272727278 102.79090909090905 C 94.12727272727278 103.89547859057063 93.23184222693436 104.79090909090905 92.12727272727278 104.79090909090905 C 91.02270322761119 104.79090909090905 90.12727272727278 103.89547859057063 90.12727272727278 102.79090909090905 C 90.12727272727278 101.68633959124746 91.02270322761119 100.79090909090905 92.12727272727278 100.79090909090905 C 93.23184222693436 100.79090909090905 94.12727272727278 101.68633959124746 94.12727272727278 102.79090909090905 Z" stroke-opacity="1" stroke-linecap="round" stroke-linejoin="round" stroke-miterlimit="10"/><text fill="rgb(0,0,255)" stroke="none" font-family="geogebra-sans-serif, sans-serif" font-size="16px" font-style="normal" font-weight="normal" text-decoration="normal" x="67" y="100" text-anchor="start" dominant-baseline="alphabetic" fill-opacity="1">B'</text><text fill="none" stroke="rgb(255,255,255)" font-family="geogebra-sans-serif, sans-serif" font-size="16px" font-style="normal" font-weight="normal" text-decoration="normal" x="67" y="100" text-anchor="start" dominant-baseline="alphabetic" stroke-opacity="1" stroke-linejoin="bevel" stroke-miterlimit="10" stroke-width="3">B'</text><text fill="rgb(0,0,255)" stroke="none" font-family="geogebra-sans-serif, sans-serif" font-size="16px" font-style="normal" font-weight="normal" text-decoration="normal" x="67" y="100" text-anchor="start" dominant-baseline="alphabetic" fill-opacity="1">B'</text></g></g></svg>