<svg version="1.1" xmlns="http://www.w3.org/2000/svg" xmlns:xlink="http://www.w3.org/1999/xlink" width="268" height="224"><defs><clipPath id="ICwZASIyZgWM"><path fill="none" stroke="none" d=" M 0 0 L 268 0 L 268 224 L 0 224 L 0 0 Z"/></clipPath></defs><g transform="scale(1,1)" clip-path="url(#ICwZASIyZgWM)"><g><rect fill="rgb(255,255,255)" stroke="none" x="0" y="0" width="268" height="224" fill-opacity="1"/><path fill="none" stroke="rgb(0,153,255)" paint-order="fill stroke markers" d=" M 206.19493688874763 143.82884234781957 C 206.19493688874763 180.64782566987236 176.34725354413382 210.49550901448612 139.5282702220809 210.49550901448612 C 102.70928690002796 210.49550901448612 72.86160355541415 180.64782566987236 72.86160355541415 143.82884234781957 C 72.86160355541415 107.00985902576676 102.70928690002796 77.16217568115304 139.5282702220809 77.16217568115304 C 176.34725354413382 77.16217568115304 206.19493688874763 107.00985902576676 206.19493688874763 143.82884234781957 Z" stroke-opacity="0.6980392156862745" stroke-linecap="round" stroke-linejoin="round" stroke-miterlimit="10"/><path fill="rgb(127,0,255)" stroke="none" paint-order="stroke fill markers" d=" M 160.11084581217546 47.82331479928999 C 165.08312441377586 54.888740053437004 174.03021465479245 57.96261965661162 182.29489387109302 55.44490919559334 L 176.4666335264877 36.31296257859961 Z" fill-opacity="0.09803921568627451"/><path fill="none" stroke="rgb(127,0,255)" paint-order="fill stroke markers" d=" M 160.11084581217546 47.82331479928999 C 165.08312441377586 54.888740053437004 174.03021465479245 57.96261965661162 182.29489387109302 55.44490919559334 L 176.4666335264877 36.31296257859961 Z" stroke-opacity="0.6980392156862745" stroke-linecap="round" stroke-linejoin="round" stroke-miterlimit="10"/><path fill="none" stroke="rgb(127,0,255)" paint-order="fill stroke markers" d=" M 164.1997927407535 44.945726744117366 C 167.92900169195383 50.24479568472765 174.63931937271627 52.550205387108605 180.83782878494168 50.66192254134492" stroke-opacity="0.6980392156862745" stroke-linecap="round" stroke-linejoin="round" stroke-miterlimit="10"/><path fill="rgb(127,0,255)" stroke="none" paint-order="stroke fill markers" d=" M 116.0985463371546 78.79688072278859 C 120.22115832078435 84.65496092223907 127.16194876015112 87.86087396238011 134.2948632973889 87.20165973678763 C 141.4277778346267 86.54244551119513 147.6634531757044 82.11878148859728 150.64261589971633 75.60436496410182 L 132.45433405146684 67.28652850209818 Z" fill-opacity="0.09803921568627451"/><path fill="none" stroke="rgb(127,0,255)" paint-order="fill stroke markers" d=" M 116.0985463371546 78.79688072278859 C 120.22115832078435 84.65496092223907 127.16194876015112 87.86087396238011 134.2948632973889 87.20165973678763 C 141.4277778346267 86.54244551119513 147.6634531757044 82.11878148859728 150.64261589971633 75.60436496410182 L 132.45433405146684 67.28652850209818 Z" stroke-opacity="0.6980392156862745" stroke-linecap="round" stroke-linejoin="round" stroke-miterlimit="10"/><path fill="none" stroke="rgb(127,0,255)" paint-order="fill stroke markers" d=" M 134.0187839105006 84.2143900515842 L 134.5709426842772 90.18892942199103" stroke-opacity="0.6980392156862745" stroke-linecap="round" stroke-linejoin="round" stroke-miterlimit="10"/><path fill="none" stroke="rgb(255,85,0)" paint-order="fill stroke markers" d=" M 95.46235608858623 87.81691820622332 L 100.64201458789691 95.17702267766383" stroke-opacity="0.6980392156862745" stroke-linecap="round" stroke-linejoin="round" stroke-miterlimit="10"/><path fill="none" stroke="rgb(255,85,0)" paint-order="fill stroke markers" d=" M 98.32461893859087 85.8026065676025 L 103.50427743790155 93.162711039043" stroke-opacity="0.6980392156862745" stroke-linecap="round" stroke-linejoin="round" stroke-miterlimit="10"/><path fill="none" stroke="rgb(255,85,0)" paint-order="fill stroke markers" d=" M 22.500000000000092 144.6666666666667 L 176.4666335264877 36.31296257859961" stroke-opacity="0.6980392156862745" stroke-linecap="round" stroke-linejoin="round" stroke-miterlimit="10"/><path fill="none" stroke="rgb(0,100,0)" paint-order="fill stroke markers" d=" M 176.4666335264877 36.31296257859961 L 220.05506474122814 179.3970888549436" stroke-opacity="0.6980392156862745" stroke-linecap="round" stroke-linejoin="round" stroke-miterlimit="10"/><path fill="none" stroke="rgb(0,100,0)" paint-order="fill stroke markers" d=" M 219.53755902781336 107.11129204933971 L 132.45433405146684 67.28652850209818" stroke-opacity="0.6980392156862745" stroke-linecap="round" stroke-linejoin="round" stroke-miterlimit="10"/><path fill="rgb(0,0,255)" stroke="none" paint-order="stroke fill markers" d=" M 24.500000000000092 144.6666666666667 C 24.500000000000092 145.7712361663283 23.60456949966168 146.6666666666667 22.500000000000092 146.6666666666667 C 21.395430500338506 146.6666666666667 20.500000000000092 145.7712361663283 20.500000000000092 144.6666666666667 C 20.500000000000092 143.56209716700513 21.395430500338506 142.6666666666667 22.500000000000092 142.6666666666667 C 23.60456949966168 142.6666666666667 24.500000000000092 143.56209716700513 24.500000000000092 144.6666666666667 Z" fill-opacity="1"/><path fill="none" stroke="rgb(0,0,0)" paint-order="fill stroke markers" d=" M 24.500000000000092 144.6666666666667 C 24.500000000000092 145.7712361663283 23.60456949966168 146.6666666666667 22.500000000000092 146.6666666666667 C 21.395430500338506 146.6666666666667 20.500000000000092 145.7712361663283 20.500000000000092 144.6666666666667 C 20.500000000000092 143.56209716700513 21.395430500338506 142.6666666666667 22.500000000000092 142.6666666666667 C 23.60456949966168 142.6666666666667 24.500000000000092 143.56209716700513 24.500000000000092 144.6666666666667 Z" stroke-opacity="1" stroke-linecap="round" stroke-linejoin="round" stroke-miterlimit="10"/><text fill="rgb(0,0,255)" stroke="none" font-family="geogebra-sans-serif, sans-serif" font-size="16px" font-style="normal" font-weight="normal" text-decoration="normal" x="11" y="133" text-anchor="start" dominant-baseline="alphabetic" fill-opacity="1">A</text><text fill="none" stroke="rgb(255,255,255)" font-family="geogebra-sans-serif, sans-serif" font-size="16px" font-style="normal" font-weight="normal" text-decoration="normal" x="11" y="133" text-anchor="start" dominant-baseline="alphabetic" stroke-opacity="1" stroke-linejoin="bevel" stroke-miterlimit="10" stroke-width="3">A</text><text fill="rgb(0,0,255)" stroke="none" font-family="geogebra-sans-serif, sans-serif" font-size="16px" font-style="normal" font-weight="normal" text-decoration="normal" x="11" y="133" text-anchor="start" dominant-baseline="alphabetic" fill-opacity="1">A</text><path fill="rgb(0,0,255)" stroke="none" paint-order="stroke fill markers" d=" M 141.5282702220809 143.82884234781957 C 141.5282702220809 144.93341184748115 140.63283972174247 145.82884234781957 139.5282702220809 145.82884234781957 C 138.4237007224193 145.82884234781957 137.5282702220809 144.93341184748115 137.5282702220809 143.82884234781957 C 137.5282702220809 142.724272848158 138.4237007224193 141.82884234781957 139.5282702220809 141.82884234781957 C 140.63283972174247 141.82884234781957 141.5282702220809 142.724272848158 141.5282702220809 143.82884234781957 Z" fill-opacity="1"/><path fill="none" stroke="rgb(0,0,0)" paint-order="fill stroke markers" d=" M 141.5282702220809 143.82884234781957 C 141.5282702220809 144.93341184748115 140.63283972174247 145.82884234781957 139.5282702220809 145.82884234781957 C 138.4237007224193 145.82884234781957 137.5282702220809 144.93341184748115 137.5282702220809 143.82884234781957 C 137.5282702220809 142.724272848158 138.4237007224193 141.82884234781957 139.5282702220809 141.82884234781957 C 140.63283972174247 141.82884234781957 141.5282702220809 142.724272848158 141.5282702220809 143.82884234781957 Z" stroke-opacity="1" stroke-linecap="round" stroke-linejoin="round" stroke-miterlimit="10"/><text fill="rgb(0,0,255)" stroke="none" font-family="geogebra-sans-serif, sans-serif" font-size="16px" font-style="normal" font-weight="normal" text-decoration="normal" x="133" y="165" text-anchor="start" dominant-baseline="alphabetic" fill-opacity="1">O</text><text fill="none" stroke="rgb(255,255,255)" font-family="geogebra-sans-serif, sans-serif" font-size="16px" font-style="normal" font-weight="normal" text-decoration="normal" x="133" y="165" text-anchor="start" dominant-baseline="alphabetic" stroke-opacity="1" stroke-linejoin="bevel" stroke-miterlimit="10" stroke-width="3">O</text><text fill="rgb(0,0,255)" stroke="none" font-family="geogebra-sans-serif, sans-serif" font-size="16px" font-style="normal" font-weight="normal" text-decoration="normal" x="133" y="165" text-anchor="start" dominant-baseline="alphabetic" fill-opacity="1">O</text><path fill="rgb(0,0,255)" stroke="none" paint-order="stroke fill markers" d=" M 178.4666335264877 36.31296257859961 C 178.4666335264877 37.417532078261196 177.57120302614928 38.31296257859961 176.4666335264877 38.31296257859961 C 175.36206402682612 38.31296257859961 174.4666335264877 37.417532078261196 174.4666335264877 36.31296257859961 C 174.4666335264877 35.20839307893802 175.36206402682612 34.31296257859961 176.4666335264877 34.31296257859961 C 177.57120302614928 34.31296257859961 178.4666335264877 35.20839307893802 178.4666335264877 36.31296257859961 Z" fill-opacity="1"/><path fill="none" stroke="rgb(0,0,0)" paint-order="fill stroke markers" d=" M 178.4666335264877 36.31296257859961 C 178.4666335264877 37.417532078261196 177.57120302614928 38.31296257859961 176.4666335264877 38.31296257859961 C 175.36206402682612 38.31296257859961 174.4666335264877 37.417532078261196 174.4666335264877 36.31296257859961 C 174.4666335264877 35.20839307893802 175.36206402682612 34.31296257859961 176.4666335264877 34.31296257859961 C 177.57120302614928 34.31296257859961 178.4666335264877 35.20839307893802 178.4666335264877 36.31296257859961 Z" stroke-opacity="1" stroke-linecap="round" stroke-linejoin="round" stroke-miterlimit="10"/><text fill="rgb(0,0,255)" stroke="none" font-family="geogebra-sans-serif, sans-serif" font-size="16px" font-style="normal" font-weight="normal" text-decoration="normal" x="174" y="26" text-anchor="start" dominant-baseline="alphabetic" fill-opacity="1">B</text><text fill="none" stroke="rgb(255,255,255)" font-family="geogebra-sans-serif, sans-serif" font-size="16px" font-style="normal" font-weight="normal" text-decoration="normal" x="174" y="26" text-anchor="start" dominant-baseline="alphabetic" stroke-opacity="1" stroke-linejoin="bevel" stroke-miterlimit="10" stroke-width="3">B</text><text fill="rgb(0,0,255)" stroke="none" font-family="geogebra-sans-serif, sans-serif" font-size="16px" font-style="normal" font-weight="normal" text-decoration="normal" x="174" y="26" text-anchor="start" dominant-baseline="alphabetic" fill-opacity="1">B</text><path fill="rgb(0,0,255)" stroke="none" paint-order="stroke fill markers" d=" M 134.45433405146684 67.28652850209818 C 134.45433405146684 68.39109800175976 133.55890355112842 69.28652850209818 132.45433405146684 69.28652850209818 C 131.34976455180527 69.28652850209818 130.45433405146684 68.39109800175976 130.45433405146684 67.28652850209818 C 130.45433405146684 66.18195900243659 131.34976455180527 65.28652850209818 132.45433405146684 65.28652850209818 C 133.55890355112842 65.28652850209818 134.45433405146684 66.18195900243659 134.45433405146684 67.28652850209818 Z" fill-opacity="1"/><path fill="none" stroke="rgb(0,0,0)" paint-order="fill stroke markers" d=" M 134.45433405146684 67.28652850209818 C 134.45433405146684 68.39109800175976 133.55890355112842 69.28652850209818 132.45433405146684 69.28652850209818 C 131.34976455180527 69.28652850209818 130.45433405146684 68.39109800175976 130.45433405146684 67.28652850209818 C 130.45433405146684 66.18195900243659 131.34976455180527 65.28652850209818 132.45433405146684 65.28652850209818 C 133.55890355112842 65.28652850209818 134.45433405146684 66.18195900243659 134.45433405146684 67.28652850209818 Z" stroke-opacity="1" stroke-linecap="round" stroke-linejoin="round" stroke-miterlimit="10"/><text fill="rgb(0,0,255)" stroke="none" font-family="geogebra-sans-serif, sans-serif" font-size="16px" font-style="normal" font-weight="normal" text-decoration="normal" x="106" y="66" text-anchor="start" dominant-baseline="alphabetic" fill-opacity="1">D'</text><text fill="none" stroke="rgb(255,255,255)" font-family="geogebra-sans-serif, sans-serif" font-size="16px" font-style="normal" font-weight="normal" text-decoration="normal" x="106" y="66" text-anchor="start" dominant-baseline="alphabetic" stroke-opacity="1" stroke-linejoin="bevel" stroke-miterlimit="10" stroke-width="3">D'</text><text fill="rgb(0,0,255)" stroke="none" font-family="geogebra-sans-serif, sans-serif" font-size="16px" font-style="normal" font-weight="normal" text-decoration="normal" x="106" y="66" text-anchor="start" dominant-baseline="alphabetic" fill-opacity="1">D'</text></g></g></svg>