<svg version="1.1" xmlns="http://www.w3.org/2000/svg" xmlns:xlink="http://www.w3.org/1999/xlink" width="315" height="296"><defs><clipPath id="ArLRLWkNOWbA"><path fill="none" stroke="none" d=" M 0 0 L 315 0 L 315 296 L 0 296 L 0 0 Z"/></clipPath></defs><g transform="scale(1,1)" clip-path="url(#ArLRLWkNOWbA)"><g><rect fill="rgb(255,255,255)" stroke="none" x="0" y="0" width="315" height="296" fill-opacity="1"/><g transform="scale(19,19)"><g transform="translate(7.368421052631579,3.220315789473684)"><path fill="rgb(0,100,0)" stroke="none" paint-order="stroke fill markers" d=" M 0.016 -0.099 L 0.016 -0.099 L 0.093 -0.17200000000000001 Q 0.093 -0.338 0.17200000000000001 -0.517 Q 0.223 -0.634 0.28300000000000003 -0.682 Q 0.312 -0.705 0.339 -0.705 Q 0.398 -0.705 0.398 -0.627 Q 0.398 -0.47300000000000003 0.226 -0.277 Q 0.201 -0.248 0.17500000000000002 -0.222 Q 0.159 -0.20600000000000002 0.153 -0.197 Q 0.148 -0.189 0.148 -0.14 Q 0.148 -0.01 0.209 -0.01 Q 0.26 -0.01 0.339 -0.088 Q 0.34900000000000003 -0.097 0.352 -0.097 Q 0.362 -0.097 0.364 -0.085 Q 0.364 -0.073 0.31 -0.031 L 0.31 -0.031 Q 0.306 -0.028 0.303 -0.026000000000000002 Q 0.25 0.012 0.20700000000000002 0.012 Q 0.114 0.012 0.095 -0.14100000000000001 Q 0.075 -0.121 0.059000000000000004 -0.107 Q 0.028 -0.076 0.023 -0.076 Q 0.015 -0.076 0.011 -0.089 Q 0.011 -0.092 0.016 -0.099 M 0.158 -0.23900000000000002 Q 0.374 -0.464 0.374 -0.631 Q 0.374 -0.683 0.34 -0.683 Q 0.31 -0.683 0.279 -0.626 L 0.278 -0.625 L 0.26 -0.589 Q 0.20400000000000001 -0.47400000000000003 0.159 -0.244 L 0.159 -0.243 Q 0.158 -0.24 0.158 -0.23900000000000002 Z"/></g><g transform="translate(7.785421052631579,3.370315789473684) scale(0.7,0.7)"><path fill="rgb(0,100,0)" stroke="none" paint-order="stroke fill markers" d=" M 0.294 -0.64 L 0.294 -0.079 Q 0.294 -0.049 0.306 -0.041 Q 0.323 -0.031 0.387 -0.031 L 0.419 -0.031 L 0.419 0 Q 0.384 -0.003 0.257 -0.003 Q 0.13 -0.003 0.095 0 L 0.095 -0.031 L 0.127 -0.031 Q 0.20400000000000001 -0.031 0.215 -0.049 L 0.216 -0.05 Q 0.22 -0.058 0.22 -0.079 L 0.22 -0.597 Q 0.168 -0.5710000000000001 0.089 -0.5710000000000001 L 0.089 -0.602 Q 0.209 -0.602 0.271 -0.666 Q 0.29 -0.666 0.293 -0.659 L 0.293 -0.659 L 0.293 -0.658 Q 0.294 -0.655 0.294 -0.64 Z"/></g></g><path fill="none" stroke="rgb(0,100,0)" paint-order="fill stroke markers" d=" M 18.499999999999996 224.50000000000077 L 200.99999999999997 17.000000000001364" stroke-opacity="0.6980392156862745" stroke-linecap="round" stroke-linejoin="round" stroke-miterlimit="10"/><g transform="scale(19,19)"><g transform="translate(11.421052631578947,7.062421052631579)"><path fill="rgb(127,0,255)" stroke="none" paint-order="stroke fill markers" d=" M 0.016 -0.099 L 0.016 -0.099 L 0.093 -0.17200000000000001 Q 0.093 -0.338 0.17200000000000001 -0.517 Q 0.223 -0.634 0.28300000000000003 -0.682 Q 0.312 -0.705 0.339 -0.705 Q 0.398 -0.705 0.398 -0.627 Q 0.398 -0.47300000000000003 0.226 -0.277 Q 0.201 -0.248 0.17500000000000002 -0.222 Q 0.159 -0.20600000000000002 0.153 -0.197 Q 0.148 -0.189 0.148 -0.14 Q 0.148 -0.01 0.209 -0.01 Q 0.26 -0.01 0.339 -0.088 Q 0.34900000000000003 -0.097 0.352 -0.097 Q 0.362 -0.097 0.364 -0.085 Q 0.364 -0.073 0.31 -0.031 L 0.31 -0.031 Q 0.306 -0.028 0.303 -0.026000000000000002 Q 0.25 0.012 0.20700000000000002 0.012 Q 0.114 0.012 0.095 -0.14100000000000001 Q 0.075 -0.121 0.059000000000000004 -0.107 Q 0.028 -0.076 0.023 -0.076 Q 0.015 -0.076 0.011 -0.089 Q 0.011 -0.092 0.016 -0.099 M 0.158 -0.23900000000000002 Q 0.374 -0.464 0.374 -0.631 Q 0.374 -0.683 0.34 -0.683 Q 0.31 -0.683 0.279 -0.626 L 0.278 -0.625 L 0.26 -0.589 Q 0.20400000000000001 -0.47400000000000003 0.159 -0.244 L 0.159 -0.243 Q 0.158 -0.24 0.158 -0.23900000000000002 Z"/></g><g transform="translate(11.838052631578947,7.212421052631579) scale(0.7,0.7)"><path fill="rgb(127,0,255)" stroke="none" paint-order="stroke fill markers" d=" M 0.449 -0.17400000000000002 L 0.449 -0.17400000000000002 L 0.421 0 L 0.05 0 Q 0.05 -0.025 0.056 -0.032 L 0.061 -0.037 L 0.253 -0.251 Q 0.358 -0.369 0.358 -0.47200000000000003 Q 0.358 -0.561 0.304 -0.607 L 0.303 -0.608 L 0.302 -0.608 Q 0.27 -0.635 0.224 -0.635 Q 0.152 -0.635 0.109 -0.5730000000000001 Q 0.097 -0.555 0.089 -0.533 Q 0.092 -0.534 0.10200000000000001 -0.534 Q 0.14200000000000002 -0.534 0.153 -0.498 L 0.153 -0.497 Q 0.155 -0.49 0.155 -0.482 Q 0.155 -0.442 0.117 -0.431 Q 0.109 -0.429 0.10300000000000001 -0.429 Q 0.066 -0.429 0.054 -0.46 Q 0.05 -0.47100000000000003 0.05 -0.485 Q 0.05 -0.562 0.109 -0.617 Q 0.162 -0.666 0.23700000000000002 -0.666 Q 0.34700000000000003 -0.666 0.40800000000000003 -0.592 Q 0.443 -0.549 0.448 -0.49 Q 0.449 -0.481 0.449 -0.47200000000000003 Q 0.449 -0.399 0.394 -0.333 Q 0.365 -0.299 0.304 -0.243 L 0.243 -0.189 L 0.233 -0.18 L 0.127 -0.077 L 0.307 -0.077 Q 0.395 -0.077 0.402 -0.085 Q 0.41200000000000003 -0.099 0.424 -0.17400000000000002 L 0.449 -0.17400000000000002 Z"/></g></g><path fill="none" stroke="rgb(127,0,255)" paint-order="fill stroke markers" d=" M 22.999999999999996 148.000000000001 L 277.99999999999994 144.000000000001" stroke-opacity="0.6980392156862745" stroke-linecap="round" stroke-linejoin="round" stroke-miterlimit="10"/><g transform="scale(19,19)"><g transform="translate(12.210526315789474,10.37821052631579)"><path fill="rgb(255,0,255)" stroke="none" paint-order="stroke fill markers" d=" M 0.016 -0.099 L 0.016 -0.099 L 0.093 -0.17200000000000001 Q 0.093 -0.338 0.17200000000000001 -0.517 Q 0.223 -0.634 0.28300000000000003 -0.682 Q 0.312 -0.705 0.339 -0.705 Q 0.398 -0.705 0.398 -0.627 Q 0.398 -0.47300000000000003 0.226 -0.277 Q 0.201 -0.248 0.17500000000000002 -0.222 Q 0.159 -0.20600000000000002 0.153 -0.197 Q 0.148 -0.189 0.148 -0.14 Q 0.148 -0.01 0.209 -0.01 Q 0.26 -0.01 0.339 -0.088 Q 0.34900000000000003 -0.097 0.352 -0.097 Q 0.362 -0.097 0.364 -0.085 Q 0.364 -0.073 0.31 -0.031 L 0.31 -0.031 Q 0.306 -0.028 0.303 -0.026000000000000002 Q 0.25 0.012 0.20700000000000002 0.012 Q 0.114 0.012 0.095 -0.14100000000000001 Q 0.075 -0.121 0.059000000000000004 -0.107 Q 0.028 -0.076 0.023 -0.076 Q 0.015 -0.076 0.011 -0.089 Q 0.011 -0.092 0.016 -0.099 M 0.158 -0.23900000000000002 Q 0.374 -0.464 0.374 -0.631 Q 0.374 -0.683 0.34 -0.683 Q 0.31 -0.683 0.279 -0.626 L 0.278 -0.625 L 0.26 -0.589 Q 0.20400000000000001 -0.47400000000000003 0.159 -0.244 L 0.159 -0.243 Q 0.158 -0.24 0.158 -0.23900000000000002 Z"/></g><g transform="translate(12.627526315789474,10.52821052631579) scale(0.7,0.7)"><path fill="rgb(255,0,255)" stroke="none" paint-order="stroke fill markers" d=" M 0.088 -0.059000000000000004 L 0.088 -0.059000000000000004 L 0.146 -0.29 Q 0.162 -0.354 0.162 -0.374 Q 0.162 -0.42 0.131 -0.42 Q 0.09 -0.42 0.064 -0.325 Q 0.061 -0.314 0.058 -0.301 Q 0.047 -0.279 0.041 -0.278 Q 0.029 -0.278 0.029 -0.28800000000000003 Q 0.029 -0.304 0.049 -0.36 L 0.049 -0.361 Q 0.049 -0.362 0.05 -0.362 L 0.05 -0.363 L 0.05 -0.364 L 0.059000000000000004 -0.385 Q 0.081 -0.425 0.10400000000000001 -0.435 Q 0.11800000000000001 -0.442 0.134 -0.442 Q 0.19 -0.442 0.215 -0.395 Q 0.224 -0.377 0.226 -0.355 Q 0.29 -0.442 0.382 -0.442 Q 0.468 -0.442 0.491 -0.376 Q 0.497 -0.358 0.497 -0.335 Q 0.497 -0.28400000000000003 0.436 -0.115 Q 0.418 -0.07100000000000001 0.418 -0.044 Q 0.418 -0.011 0.442 -0.011 Q 0.508 -0.011 0.544 -0.135 Q 0.549 -0.151 0.554 -0.152 L 0.554 -0.153 L 0.559 -0.153 Q 0.5710000000000001 -0.153 0.5710000000000001 -0.14300000000000002 Q 0.5710000000000001 -0.126 0.55 -0.08 Q 0.507 0.011 0.44 0.011 Q 0.389 0.011 0.367 -0.032 Q 0.358 -0.05 0.358 -0.07100000000000001 Q 0.358 -0.091 0.368 -0.117 Q 0.433 -0.292 0.433 -0.35000000000000003 Q 0.433 -0.42 0.379 -0.42 Q 0.289 -0.42 0.228 -0.32 Q 0.221 -0.309 0.216 -0.298 L 0.203 -0.248 Q 0.198 -0.225 0.186 -0.181 L 0.164 -0.091 Q 0.147 -0.022 0.145 -0.017 Q 0.136 0.009000000000000001 0.108 0.011 Q 0.083 0.006 0.079 -0.016 Q 0.079 -0.014 0.088 -0.059000000000000004 Z"/></g></g><path fill="none" stroke="rgb(255,0,255)" paint-order="fill stroke markers" d=" M 73.49999999999999 38.50000000000131 L 279.49999999999994 259.5000000000007" stroke-opacity="0.6980392156862745" stroke-linecap="round" stroke-linejoin="round" stroke-miterlimit="10"/><path fill="rgb(255,85,0)" stroke="none" paint-order="stroke fill markers" d=" M 59.38979275366755 178.0088657732282 L 51.56286758901404 191.34309775212049 L 58.75861501021671 193.45762347914658 L 59.38979275366755 178.0088657732282 Z M 54.2605046012954 192.80370207868938 L 51.58210534706236 201.91831547887944 L 53.02125483130289 202.34122062428463 L 55.69965408553593 193.22660722409458 L 54.2605046012954 192.80370207868938 Z M 49.32661123823453 209.59377939482894 L 46.64821198400148 218.708392795019 L 48.08736146824201 219.1312979404242 L 50.76576072247506 210.01668454023414 L 49.32661123823453 209.59377939482894 Z M 44.39271787517365 226.3838567109685 L 41.7143186209406 235.49847011115853 L 43.15346810518113 235.92137525656372 L 45.83186735941418 226.8067618563737 L 44.39271787517365 226.3838567109685 Z M 39.45882451211278 243.17393402710803 L 36.78042525787973 252.28854742729808 L 38.21957474212026 252.71145257270328 L 40.89797399635331 243.59683917251323 L 39.45882451211278 243.17393402710803 Z" fill-opacity="0.6980392156862745"/><path fill="rgb(255,85,0)" stroke="none" paint-order="stroke fill markers" d=" M 131.5933470146947 146.29657494879012 L 116.35162098747784 148.89509139308294 L 119.36759649387645 155.76196053009173 L 131.5933470146947 146.29657494879012 Z M 115.85431340230026 152.39011467329888 L 107.15627916208913 156.2103503147371 L 107.75947426336884 157.58372414213883 L 116.45750850357997 153.76348850070062 L 115.85431340230026 152.39011467329888 Z M 99.83161874927978 159.4273908548956 L 91.13358450906867 163.24762649633385 L 91.73677961034838 164.6210003237356 L 100.4348138505595 160.80076468229734 L 99.83161874927978 159.4273908548956 Z M 83.80892409625929 166.46466703649236 L 75.11088985604817 170.28490267793057 L 75.71408495732788 171.6582765053323 L 84.412119197539 167.8380408638941 L 83.80892409625929 166.46466703649236 Z M 67.78622944323881 173.50194321808908 L 59.08819520302769 177.32217885952733 L 59.69139030430741 178.69555268692906 L 68.38942454451852 174.87531704549082 L 67.78622944323881 173.50194321808908 Z" fill-opacity="0.6980392156862745"/><path fill="rgb(255,85,0)" stroke="none" paint-order="stroke fill markers" d=" M 131.87325836085478 145.60076632690414 L 131.31343566853462 146.9923835706761 L 140.12701154575697 150.53792728870363 L 140.68683423807713 149.14631004493165 L 131.87325836085478 145.60076632690414 Z M 148.10879287152753 152.13203107063902 L 147.54897017920737 153.523648314411 L 156.36254605642972 157.06919203243848 L 156.92236874874988 155.6775747886665 L 148.10879287152753 152.13203107063902 Z M 164.34432738220028 158.6632958143739 L 163.78450468988012 160.05491305814587 L 172.59808056710247 163.60045677617336 L 173.15790325942262 162.20883953240138 L 164.34432738220028 158.6632958143739 Z M 186.89307993399123 164.50060732970553 L 185.77343454935098 167.28384181724942 L 180.57986189287303 165.19456055810878 L 180.02003920055287 166.58617780188075 L 185.21361185703083 168.6754590610214 L 184.09396647239058 171.4586935485653 L 199.4096956409104 173.57787736233675 L 186.89307993399123 164.50060732970553 Z" fill-opacity="0.6980392156862745"/><path fill="rgb(255,85,0)" stroke="none" paint-order="stroke fill markers" d=" M 200.12343074189002 173.34748160363097 L 198.69596053993078 173.80827312104253 L 201.61430681687057 182.8489177334511 L 203.0417770188298 182.38812621603952 L 200.12343074189002 173.34748160363097 Z M 205.49933177835806 190.0013006264888 L 204.07186157639882 190.46209214390038 L 206.9902078533386 199.50273675630893 L 208.41767805529784 199.04194523889737 L 205.49933177835806 190.0013006264888 Z M 210.8752328148261 206.65511964934666 L 209.44776261286685 207.11591116675822 L 212.36610888980664 216.15655577916678 L 213.79357909176588 215.69576426175522 L 210.8752328148261 206.65511964934666 Z M 216.25113385129413 223.3089386722045 L 214.8236636493349 223.76973018961607 L 217.74200992627468 232.81037480202463 L 219.16948012823391 232.34958328461306 L 216.25113385129413 223.3089386722045 Z M 221.62703488776216 239.96275769506238 L 220.19956468580293 240.42354921247394 L 221.1783497249049 243.45569373911403 L 221.17834972490488 243.45569373911403 L 218.3234093209864 244.3772767739371 L 226.49999999999997 257.5000000000007 L 225.46076033078265 242.0733191868794 L 221.59637268300588 243.32075471698113 L 221.5963726830059 243.32075471698113 L 222.60581992686414 242.99490222170246 L 221.62703488776216 239.96275769506238 Z" fill-opacity="0.6980392156862745"/><path fill="rgb(204,0,0)" stroke="none" paint-order="stroke fill markers" d=" M 42.49999999999999 252.50000000000068 C 42.49999999999999 255.26142374915466 40.26142374915396 257.5000000000007 37.49999999999999 257.5000000000007 C 34.73857625084602 257.5000000000007 32.49999999999999 255.26142374915466 32.49999999999999 252.50000000000068 C 32.49999999999999 249.7385762508467 34.73857625084602 247.50000000000068 37.49999999999999 247.50000000000068 C 40.26142374915396 247.50000000000068 42.49999999999999 249.7385762508467 42.49999999999999 252.50000000000068 Z" fill-opacity="1"/><path fill="none" stroke="rgb(0,0,0)" paint-order="fill stroke markers" d=" M 42.49999999999999 252.50000000000068 C 42.49999999999999 255.26142374915466 40.26142374915396 257.5000000000007 37.49999999999999 257.5000000000007 C 34.73857625084602 257.5000000000007 32.49999999999999 255.26142374915466 32.49999999999999 252.50000000000068 C 32.49999999999999 249.7385762508467 34.73857625084602 247.50000000000068 37.49999999999999 247.50000000000068 C 40.26142374915396 247.50000000000068 42.49999999999999 249.7385762508467 42.49999999999999 252.50000000000068 Z" stroke-opacity="1" stroke-linecap="round" stroke-linejoin="round" stroke-miterlimit="10"/><text fill="rgb(204,0,0)" stroke="none" font-family="geogebra-sans-serif, sans-serif" font-size="16px" font-style="normal" font-weight="normal" text-decoration="normal" x="26" y="271" text-anchor="start" dominant-baseline="alphabetic" fill-opacity="1">A</text><text fill="none" stroke="rgb(255,255,255)" font-family="geogebra-sans-serif, sans-serif" font-size="16px" font-style="normal" font-weight="normal" text-decoration="normal" x="26" y="271" text-anchor="start" dominant-baseline="alphabetic" stroke-opacity="1" stroke-linejoin="bevel" stroke-miterlimit="10" stroke-width="3">A</text><text fill="rgb(204,0,0)" stroke="none" font-family="geogebra-sans-serif, sans-serif" font-size="16px" font-style="normal" font-weight="normal" text-decoration="normal" x="26" y="271" text-anchor="start" dominant-baseline="alphabetic" fill-opacity="1">A</text><path fill="rgb(0,0,0)" stroke="none" paint-order="stroke fill markers" d=" M 231.49999999999997 257.5000000000007 C 231.49999999999997 260.26142374915463 229.26142374915395 262.5000000000007 226.49999999999997 262.5000000000007 C 223.738576250846 262.5000000000007 221.49999999999997 260.26142374915463 221.49999999999997 257.5000000000007 C 221.49999999999997 254.7385762508467 223.738576250846 252.50000000000068 226.49999999999997 252.50000000000068 C 229.26142374915395 252.50000000000068 231.49999999999997 254.7385762508467 231.49999999999997 257.5000000000007 Z" fill-opacity="1"/><path fill="none" stroke="rgb(0,0,0)" paint-order="fill stroke markers" d=" M 231.49999999999997 257.5000000000007 C 231.49999999999997 260.26142374915463 229.26142374915395 262.5000000000007 226.49999999999997 262.5000000000007 C 223.738576250846 262.5000000000007 221.49999999999997 260.26142374915463 221.49999999999997 257.5000000000007 C 221.49999999999997 254.7385762508467 223.738576250846 252.50000000000068 226.49999999999997 252.50000000000068 C 229.26142374915395 252.50000000000068 231.49999999999997 254.7385762508467 231.49999999999997 257.5000000000007 Z" stroke-opacity="1" stroke-linecap="round" stroke-linejoin="round" stroke-miterlimit="10"/><text fill="rgb(0,0,0)" stroke="none" font-family="geogebra-sans-serif, sans-serif" font-size="16px" font-style="normal" font-weight="normal" text-decoration="normal" x="226" y="282" text-anchor="start" dominant-baseline="alphabetic" fill-opacity="1">B</text><text fill="none" stroke="rgb(255,255,255)" font-family="geogebra-sans-serif, sans-serif" font-size="16px" font-style="normal" font-weight="normal" text-decoration="normal" x="226" y="282" text-anchor="start" dominant-baseline="alphabetic" stroke-opacity="1" stroke-linejoin="bevel" stroke-miterlimit="10" stroke-width="3">B</text><text fill="rgb(0,0,0)" stroke="none" font-family="geogebra-sans-serif, sans-serif" font-size="16px" font-style="normal" font-weight="normal" text-decoration="normal" x="226" y="282" text-anchor="start" dominant-baseline="alphabetic" fill-opacity="1">B</text><path fill="rgb(102,102,102)" stroke="none" paint-order="stroke fill markers" d=" M 61.38979275366755 178.0088657732282 C 61.38979275366755 179.11343527288977 60.494362253329136 180.0088657732282 59.38979275366755 180.0088657732282 C 58.28522325400596 180.0088657732282 57.38979275366755 179.11343527288977 57.38979275366755 178.0088657732282 C 57.38979275366755 176.90429627356662 58.28522325400596 176.0088657732282 59.38979275366755 176.0088657732282 C 60.494362253329136 176.0088657732282 61.38979275366755 176.90429627356662 61.38979275366755 178.0088657732282 Z" fill-opacity="1"/><path fill="none" stroke="rgb(0,0,0)" paint-order="fill stroke markers" d=" M 61.38979275366755 178.0088657732282 C 61.38979275366755 179.11343527288977 60.494362253329136 180.0088657732282 59.38979275366755 180.0088657732282 C 58.28522325400596 180.0088657732282 57.38979275366755 179.11343527288977 57.38979275366755 178.0088657732282 C 57.38979275366755 176.90429627356662 58.28522325400596 176.0088657732282 59.38979275366755 176.0088657732282 C 60.494362253329136 176.0088657732282 61.38979275366755 176.90429627356662 61.38979275366755 178.0088657732282 Z" stroke-opacity="1" stroke-linecap="round" stroke-linejoin="round" stroke-miterlimit="10"/><path fill="rgb(102,102,102)" stroke="none" paint-order="stroke fill markers" d=" M 133.5933470146947 146.29657494879012 C 133.5933470146947 147.4011444484517 132.69791651435628 148.29657494879012 131.5933470146947 148.29657494879012 C 130.48877751503312 148.29657494879012 129.5933470146947 147.4011444484517 129.5933470146947 146.29657494879012 C 129.5933470146947 145.19200544912854 130.48877751503312 144.29657494879012 131.5933470146947 144.29657494879012 C 132.69791651435628 144.29657494879012 133.5933470146947 145.19200544912854 133.5933470146947 146.29657494879012 Z" fill-opacity="1"/><path fill="none" stroke="rgb(0,0,0)" paint-order="fill stroke markers" d=" M 133.5933470146947 146.29657494879012 C 133.5933470146947 147.4011444484517 132.69791651435628 148.29657494879012 131.5933470146947 148.29657494879012 C 130.48877751503312 148.29657494879012 129.5933470146947 147.4011444484517 129.5933470146947 146.29657494879012 C 129.5933470146947 145.19200544912854 130.48877751503312 144.29657494879012 131.5933470146947 144.29657494879012 C 132.69791651435628 144.29657494879012 133.5933470146947 145.19200544912854 133.5933470146947 146.29657494879012 Z" stroke-opacity="1" stroke-linecap="round" stroke-linejoin="round" stroke-miterlimit="10"/><path fill="rgb(102,102,102)" stroke="none" paint-order="stroke fill markers" d=" M 201.4096956409104 173.57787736233675 C 201.4096956409104 174.68244686199833 200.51426514057198 175.57787736233675 199.4096956409104 175.57787736233675 C 198.30512614124882 175.57787736233675 197.4096956409104 174.68244686199833 197.4096956409104 173.57787736233675 C 197.4096956409104 172.47330786267517 198.30512614124882 171.57787736233675 199.4096956409104 171.57787736233675 C 200.51426514057198 171.57787736233675 201.4096956409104 172.47330786267517 201.4096956409104 173.57787736233675 Z" fill-opacity="1"/><path fill="none" stroke="rgb(0,0,0)" paint-order="fill stroke markers" d=" M 201.4096956409104 173.57787736233675 C 201.4096956409104 174.68244686199833 200.51426514057198 175.57787736233675 199.4096956409104 175.57787736233675 C 198.30512614124882 175.57787736233675 197.4096956409104 174.68244686199833 197.4096956409104 173.57787736233675 C 197.4096956409104 172.47330786267517 198.30512614124882 171.57787736233675 199.4096956409104 171.57787736233675 C 200.51426514057198 171.57787736233675 201.4096956409104 172.47330786267517 201.4096956409104 173.57787736233675 Z" stroke-opacity="1" stroke-linecap="round" stroke-linejoin="round" stroke-miterlimit="10"/></g></g></svg>