<svg version="1.1" xmlns="http://www.w3.org/2000/svg" xmlns:xlink="http://www.w3.org/1999/xlink" width="294" height="264"><defs><clipPath id="IlmAvHFcpLud"><path fill="none" stroke="none" d=" M 0 0 L 294 0 L 294 264 L 0 264 L 0 0 Z"/></clipPath></defs><g transform="scale(1,1)" clip-path="url(#IlmAvHFcpLud)"><g><rect fill="rgb(255,255,255)" stroke="none" x="0" y="0" width="294" height="264" fill-opacity="1"/><path fill="none" stroke="rgb(0,153,255)" paint-order="fill stroke markers" d=" M 227.1949368887477 151.82884234781957 C 227.1949368887477 188.6478256698724 197.34725354413385 218.49550901448612 160.52827022208092 218.49550901448612 C 123.70928690002798 218.49550901448612 93.86160355541416 188.6478256698724 93.86160355541416 151.82884234781957 C 93.86160355541416 115.00985902576674 123.70928690002798 85.16217568115302 160.52827022208092 85.16217568115302 C 197.34725354413385 85.16217568115302 227.1949368887477 115.00985902576674 227.1949368887477 151.82884234781957 Z" stroke-opacity="0.6980392156862745" stroke-linecap="round" stroke-linejoin="round" stroke-miterlimit="10"/><path fill="rgb(127,0,255)" stroke="none" paint-order="stroke fill markers" d=" M 181.1108458121755 55.82331479928996 C 186.0831244137759 62.888740053436976 195.03021465479247 65.96261965661157 203.29489387109308 63.44490919559331 L 197.46663352648775 44.31296257859955 Z" fill-opacity="0.09803921568627451"/><path fill="none" stroke="rgb(127,0,255)" paint-order="fill stroke markers" d=" M 181.1108458121755 55.82331479928996 C 186.0831244137759 62.888740053436976 195.03021465479247 65.96261965661157 203.29489387109308 63.44490919559331 L 197.46663352648775 44.31296257859955 Z" stroke-opacity="0.6980392156862745" stroke-linecap="round" stroke-linejoin="round" stroke-miterlimit="10"/><path fill="none" stroke="rgb(127,0,255)" paint-order="fill stroke markers" d=" M 185.19979274075354 52.94572674411734 C 188.92900169195383 58.24479568472762 195.63931937271627 60.550205387108576 201.8378287849417 58.661922541344865" stroke-opacity="0.6980392156862745" stroke-linecap="round" stroke-linejoin="round" stroke-miterlimit="10"/><path fill="rgb(127,0,255)" stroke="none" paint-order="stroke fill markers" d=" M 172.61828673398202 219.88719594872117 C 169.5461586368472 213.41610159416598 163.24778625804623 209.08217084689875 156.10616449957212 208.52515033592 C 148.96454274109803 207.9681298249412 142.0703646938214 211.2730896426395 138.03204887478455 217.18959524446888 L 154.5509605897757 228.46459217361823 Z" fill-opacity="0.09803921568627451"/><path fill="none" stroke="rgb(127,0,255)" paint-order="fill stroke markers" d=" M 172.61828673398202 219.88719594872117 C 169.5461586368472 213.41610159416598 163.24778625804623 209.08217084689875 156.10616449957212 208.52515033592 C 148.96454274109803 207.9681298249412 142.0703646938214 211.2730896426395 138.03204887478455 217.18959524446888 L 154.5509605897757 228.46459217361823 Z" stroke-opacity="0.6980392156862745" stroke-linecap="round" stroke-linejoin="round" stroke-miterlimit="10"/><path fill="none" stroke="rgb(127,0,255)" paint-order="fill stroke markers" d=" M 155.87288391310267 211.5160666115747 L 156.33944508604162 205.53423406026525" stroke-opacity="0.6980392156862745" stroke-linecap="round" stroke-linejoin="round" stroke-miterlimit="10"/><path fill="rgb(255,0,0)" stroke="none" paint-order="stroke fill markers" fill-rule="evenodd" d=" M 240.7963118845207 151.2541904521417 L 240.72037945281306 140.64786053714286 L 230.1140495378135 140.72379296884978 L 230.18998196952182 151.33012288384933 L 240.7963118845207 151.2541904521417" fill-opacity="0.09803921568627451"/><path fill="none" stroke="rgb(255,0,0)" paint-order="fill stroke markers" d=" M 240.7963118845207 151.2541904521417 L 240.72037945281306 140.64786053714286 L 230.1140495378135 140.72379296884978 L 230.18998196952182 151.33012288384933 L 240.7963118845207 151.2541904521417" stroke-opacity="0.6980392156862745" stroke-linecap="round" stroke-linejoin="round" stroke-miterlimit="10" stroke-width="1.5"/><path fill="none" stroke="rgb(255,85,0)" paint-order="fill stroke markers" d=" M 116.46235608858623 95.81691820622329 L 121.64201458789691 103.1770226776638" stroke-opacity="0.6980392156862745" stroke-linecap="round" stroke-linejoin="round" stroke-miterlimit="10"/><path fill="none" stroke="rgb(255,85,0)" paint-order="fill stroke markers" d=" M 119.32461893859087 93.80260656760247 L 124.50427743790155 101.16271103904297" stroke-opacity="0.6980392156862745" stroke-linecap="round" stroke-linejoin="round" stroke-miterlimit="10"/><path fill="none" stroke="rgb(255,85,0)" paint-order="fill stroke markers" d=" M 43.50000000000007 152.6666666666667 L 197.4666335264877 44.31296257859955" stroke-opacity="0.6980392156862745" stroke-linecap="round" stroke-linejoin="round" stroke-miterlimit="10"/><path fill="none" stroke="rgb(0,100,0)" paint-order="fill stroke markers" d=" M 197.4666335264877 44.31296257859955 L 241.05506474122816 187.39708885494363" stroke-opacity="0.6980392156862745" stroke-linecap="round" stroke-linejoin="round" stroke-miterlimit="10"/><path fill="none" stroke="rgb(0,100,0)" paint-order="fill stroke markers" d=" M 241.05506474122816 187.39708885494363 L 154.5509605897757 228.46459217361823" stroke-opacity="0.6980392156862745" stroke-linecap="round" stroke-linejoin="round" stroke-miterlimit="10"/><path fill="none" stroke="rgb(255,85,0)" paint-order="fill stroke markers" d=" M 99.37941553595275 196.2555090186166 L 104.45316415406995 188.8219987468706" stroke-opacity="0.6980392156862745" stroke-linecap="round" stroke-linejoin="round" stroke-miterlimit="10"/><path fill="none" stroke="rgb(255,85,0)" paint-order="fill stroke markers" d=" M 96.4886059858293 194.28238455601547 L 101.5623546039465 186.84887428426947" stroke-opacity="0.6980392156862745" stroke-linecap="round" stroke-linejoin="round" stroke-miterlimit="10"/><path fill="none" stroke="rgb(255,85,0)" paint-order="fill stroke markers" d=" M 93.59779643570585 192.30926009341434 L 98.67154505382305 184.87574982166834" stroke-opacity="0.6980392156862745" stroke-linecap="round" stroke-linejoin="round" stroke-miterlimit="10"/><path fill="none" stroke="rgb(255,85,0)" paint-order="fill stroke markers" d=" M 154.5509605897757 228.46459217361823 L 43.50000000000007 152.6666666666667" stroke-opacity="0.6980392156862745" stroke-linecap="round" stroke-linejoin="round" stroke-miterlimit="10"/><path fill="none" stroke="rgb(102,102,102)" paint-order="fill stroke markers" d=" M 24.19164505790701 152.80489830331928 L 266.97904991651177 151.06674399484058" stroke-opacity="0.6980392156862745" stroke-linejoin="round" stroke-miterlimit="10" stroke-dasharray="9,8"/><path fill="none" stroke="rgb(102,102,102)" paint-order="fill stroke markers" d=" M 245.1668201400058 133.15052584831724 L 236.16705077232828 133.2149566531642" stroke-opacity="0.6980392156862745" stroke-linecap="round" stroke-linejoin="round" stroke-miterlimit="10"/><path fill="none" stroke="rgb(102,102,102)" paint-order="fill stroke markers" d=" M 240.5375590278134 115.11129204933971 L 240.7963118845207 151.2541904521417" stroke-opacity="0.6980392156862745" stroke-linejoin="round" stroke-miterlimit="10" stroke-dasharray="9,8"/><path fill="none" stroke="rgb(102,102,102)" paint-order="fill stroke markers" d=" M 245.42557299671319 169.2934242511192 L 236.42580362903567 169.35785505596616" stroke-opacity="0.6980392156862745" stroke-linecap="round" stroke-linejoin="round" stroke-miterlimit="10"/><path fill="none" stroke="rgb(102,102,102)" paint-order="fill stroke markers" d=" M 240.7963118845207 151.2541904521417 L 241.05506474122816 187.39708885494363" stroke-opacity="0.6980392156862745" stroke-linejoin="round" stroke-miterlimit="10" stroke-dasharray="9,8"/><path fill="none" stroke="rgb(0,100,0)" paint-order="fill stroke markers" d=" M 240.5375590278134 115.11129204933971 L 153.45433405146684 75.28652850209815" stroke-opacity="0.6980392156862745" stroke-linecap="round" stroke-linejoin="round" stroke-miterlimit="10"/><path fill="rgb(0,0,255)" stroke="none" paint-order="stroke fill markers" d=" M 45.50000000000007 152.6666666666667 C 45.50000000000007 153.7712361663283 44.60456949966166 154.6666666666667 43.50000000000007 154.6666666666667 C 42.395430500338485 154.6666666666667 41.50000000000007 153.7712361663283 41.50000000000007 152.6666666666667 C 41.50000000000007 151.56209716700513 42.395430500338485 150.6666666666667 43.50000000000007 150.6666666666667 C 44.60456949966166 150.6666666666667 45.50000000000007 151.56209716700513 45.50000000000007 152.6666666666667 Z" fill-opacity="1"/><path fill="none" stroke="rgb(0,0,0)" paint-order="fill stroke markers" d=" M 45.50000000000007 152.6666666666667 C 45.50000000000007 153.7712361663283 44.60456949966166 154.6666666666667 43.50000000000007 154.6666666666667 C 42.395430500338485 154.6666666666667 41.50000000000007 153.7712361663283 41.50000000000007 152.6666666666667 C 41.50000000000007 151.56209716700513 42.395430500338485 150.6666666666667 43.50000000000007 150.6666666666667 C 44.60456949966166 150.6666666666667 45.50000000000007 151.56209716700513 45.50000000000007 152.6666666666667 Z" stroke-opacity="1" stroke-linecap="round" stroke-linejoin="round" stroke-miterlimit="10"/><text fill="rgb(0,0,255)" stroke="none" font-family="geogebra-sans-serif, sans-serif" font-size="16px" font-style="normal" font-weight="normal" text-decoration="normal" x="32" y="141" text-anchor="start" dominant-baseline="alphabetic" fill-opacity="1">A</text><text fill="rgb(0,0,255)" stroke="none" font-family="geogebra-sans-serif, sans-serif" font-size="16px" font-style="normal" font-weight="normal" text-decoration="normal" x="32" y="141" text-anchor="start" dominant-baseline="alphabetic" fill-opacity="1">A</text><path fill="rgb(0,0,255)" stroke="none" paint-order="stroke fill markers" d=" M 162.52827022208092 151.82884234781957 C 162.52827022208092 152.93341184748115 161.6328397217425 153.82884234781957 160.52827022208092 153.82884234781957 C 159.42370072241934 153.82884234781957 158.52827022208092 152.93341184748115 158.52827022208092 151.82884234781957 C 158.52827022208092 150.724272848158 159.42370072241934 149.82884234781957 160.52827022208092 149.82884234781957 C 161.6328397217425 149.82884234781957 162.52827022208092 150.724272848158 162.52827022208092 151.82884234781957 Z" fill-opacity="1"/><path fill="none" stroke="rgb(0,0,0)" paint-order="fill stroke markers" d=" M 162.52827022208092 151.82884234781957 C 162.52827022208092 152.93341184748115 161.6328397217425 153.82884234781957 160.52827022208092 153.82884234781957 C 159.42370072241934 153.82884234781957 158.52827022208092 152.93341184748115 158.52827022208092 151.82884234781957 C 158.52827022208092 150.724272848158 159.42370072241934 149.82884234781957 160.52827022208092 149.82884234781957 C 161.6328397217425 149.82884234781957 162.52827022208092 150.724272848158 162.52827022208092 151.82884234781957 Z" stroke-opacity="1" stroke-linecap="round" stroke-linejoin="round" stroke-miterlimit="10"/><text fill="rgb(0,0,255)" stroke="none" font-family="geogebra-sans-serif, sans-serif" font-size="16px" font-style="normal" font-weight="normal" text-decoration="normal" x="154" y="173" text-anchor="start" dominant-baseline="alphabetic" fill-opacity="1">O</text><text fill="rgb(0,0,255)" stroke="none" font-family="geogebra-sans-serif, sans-serif" font-size="16px" font-style="normal" font-weight="normal" text-decoration="normal" x="154" y="173" text-anchor="start" dominant-baseline="alphabetic" fill-opacity="1">O</text><path fill="rgb(0,0,255)" stroke="none" paint-order="stroke fill markers" d=" M 199.4666335264877 44.31296257859955 C 199.4666335264877 45.41753207826114 198.57120302614928 46.31296257859955 197.4666335264877 46.31296257859955 C 196.36206402682612 46.31296257859955 195.4666335264877 45.41753207826114 195.4666335264877 44.31296257859955 C 195.4666335264877 43.208393078937966 196.36206402682612 42.31296257859955 197.4666335264877 42.31296257859955 C 198.57120302614928 42.31296257859955 199.4666335264877 43.208393078937966 199.4666335264877 44.31296257859955 Z" fill-opacity="1"/><path fill="none" stroke="rgb(0,0,0)" paint-order="fill stroke markers" d=" M 199.4666335264877 44.31296257859955 C 199.4666335264877 45.41753207826114 198.57120302614928 46.31296257859955 197.4666335264877 46.31296257859955 C 196.36206402682612 46.31296257859955 195.4666335264877 45.41753207826114 195.4666335264877 44.31296257859955 C 195.4666335264877 43.208393078937966 196.36206402682612 42.31296257859955 197.4666335264877 42.31296257859955 C 198.57120302614928 42.31296257859955 199.4666335264877 43.208393078937966 199.4666335264877 44.31296257859955 Z" stroke-opacity="1" stroke-linecap="round" stroke-linejoin="round" stroke-miterlimit="10"/><text fill="rgb(0,0,255)" stroke="none" font-family="geogebra-sans-serif, sans-serif" font-size="16px" font-style="normal" font-weight="normal" text-decoration="normal" x="196" y="31" text-anchor="start" dominant-baseline="alphabetic" fill-opacity="1">B</text><text fill="rgb(0,0,255)" stroke="none" font-family="geogebra-sans-serif, sans-serif" font-size="16px" font-style="normal" font-weight="normal" text-decoration="normal" x="196" y="31" text-anchor="start" dominant-baseline="alphabetic" fill-opacity="1">B</text><path fill="rgb(0,0,255)" stroke="none" paint-order="stroke fill markers" d=" M 156.5509605897757 228.46459217361823 C 156.5509605897757 229.5691616732798 155.6555300894373 230.46459217361823 154.5509605897757 230.46459217361823 C 153.44639109011413 230.46459217361823 152.5509605897757 229.5691616732798 152.5509605897757 228.46459217361823 C 152.5509605897757 227.36002267395665 153.44639109011413 226.46459217361823 154.5509605897757 226.46459217361823 C 155.6555300894373 226.46459217361823 156.5509605897757 227.36002267395665 156.5509605897757 228.46459217361823 Z" fill-opacity="1"/><path fill="none" stroke="rgb(0,0,0)" paint-order="fill stroke markers" d=" M 156.5509605897757 228.46459217361823 C 156.5509605897757 229.5691616732798 155.6555300894373 230.46459217361823 154.5509605897757 230.46459217361823 C 153.44639109011413 230.46459217361823 152.5509605897757 229.5691616732798 152.5509605897757 228.46459217361823 C 152.5509605897757 227.36002267395665 153.44639109011413 226.46459217361823 154.5509605897757 226.46459217361823 C 155.6555300894373 226.46459217361823 156.5509605897757 227.36002267395665 156.5509605897757 228.46459217361823 Z" stroke-opacity="1" stroke-linecap="round" stroke-linejoin="round" stroke-miterlimit="10"/><text fill="rgb(0,0,255)" stroke="none" font-family="geogebra-sans-serif, sans-serif" font-size="16px" font-style="normal" font-weight="normal" text-decoration="normal" x="146" y="250" text-anchor="start" dominant-baseline="alphabetic" fill-opacity="1">D</text><text fill="rgb(0,0,255)" stroke="none" font-family="geogebra-sans-serif, sans-serif" font-size="16px" font-style="normal" font-weight="normal" text-decoration="normal" x="146" y="250" text-anchor="start" dominant-baseline="alphabetic" fill-opacity="1">D</text><path fill="rgb(0,0,255)" stroke="none" paint-order="stroke fill markers" d=" M 243.05506474122816 187.39708885494363 C 243.05506474122816 188.5016583546052 242.15963424088974 189.39708885494363 241.05506474122816 189.39708885494363 C 239.95049524156659 189.39708885494363 239.05506474122816 188.5016583546052 239.05506474122816 187.39708885494363 C 239.05506474122816 186.29251935528205 239.95049524156659 185.39708885494363 241.05506474122816 185.39708885494363 C 242.15963424088974 185.39708885494363 243.05506474122816 186.29251935528205 243.05506474122816 187.39708885494363 Z" fill-opacity="1"/><path fill="none" stroke="rgb(0,0,0)" paint-order="fill stroke markers" d=" M 243.05506474122816 187.39708885494363 C 243.05506474122816 188.5016583546052 242.15963424088974 189.39708885494363 241.05506474122816 189.39708885494363 C 239.95049524156659 189.39708885494363 239.05506474122816 188.5016583546052 239.05506474122816 187.39708885494363 C 239.05506474122816 186.29251935528205 239.95049524156659 185.39708885494363 241.05506474122816 185.39708885494363 C 242.15963424088974 185.39708885494363 243.05506474122816 186.29251935528205 243.05506474122816 187.39708885494363 Z" stroke-opacity="1" stroke-linecap="round" stroke-linejoin="round" stroke-miterlimit="10"/><text fill="rgb(0,0,255)" stroke="none" font-family="geogebra-sans-serif, sans-serif" font-size="16px" font-style="normal" font-weight="normal" text-decoration="normal" x="236" y="209" text-anchor="start" dominant-baseline="alphabetic" fill-opacity="1">C</text><text fill="rgb(0,0,255)" stroke="none" font-family="geogebra-sans-serif, sans-serif" font-size="16px" font-style="normal" font-weight="normal" text-decoration="normal" x="236" y="209" text-anchor="start" dominant-baseline="alphabetic" fill-opacity="1">C</text><path fill="rgb(0,0,255)" stroke="none" paint-order="stroke fill markers" d=" M 268.97904991651177 151.06674399484058 C 268.97904991651177 152.17131349450216 268.08361941617335 153.06674399484058 266.97904991651177 153.06674399484058 C 265.8744804168502 153.06674399484058 264.97904991651177 152.17131349450216 264.97904991651177 151.06674399484058 C 264.97904991651177 149.962174495179 265.8744804168502 149.06674399484058 266.97904991651177 149.06674399484058 C 268.08361941617335 149.06674399484058 268.97904991651177 149.962174495179 268.97904991651177 151.06674399484058 Z" fill-opacity="1"/><path fill="none" stroke="rgb(0,0,0)" paint-order="fill stroke markers" d=" M 268.97904991651177 151.06674399484058 C 268.97904991651177 152.17131349450216 268.08361941617335 153.06674399484058 266.97904991651177 153.06674399484058 C 265.8744804168502 153.06674399484058 264.97904991651177 152.17131349450216 264.97904991651177 151.06674399484058 C 264.97904991651177 149.962174495179 265.8744804168502 149.06674399484058 266.97904991651177 149.06674399484058 C 268.08361941617335 149.06674399484058 268.97904991651177 149.962174495179 268.97904991651177 151.06674399484058 Z" stroke-opacity="1" stroke-linecap="round" stroke-linejoin="round" stroke-miterlimit="10"/><text fill="rgb(0,0,255)" stroke="none" font-family="geogebra-sans-serif, sans-serif" font-size="16px" font-style="normal" font-weight="normal" text-decoration="normal" x="263" y="141" text-anchor="start" dominant-baseline="alphabetic" fill-opacity="1">F</text><text fill="rgb(0,0,255)" stroke="none" font-family="geogebra-sans-serif, sans-serif" font-size="16px" font-style="normal" font-weight="normal" text-decoration="normal" x="263" y="141" text-anchor="start" dominant-baseline="alphabetic" fill-opacity="1">F</text><path fill="rgb(0,0,255)" stroke="none" paint-order="stroke fill markers" d=" M 242.5375590278134 115.11129204933971 C 242.5375590278134 116.21586154900129 241.64212852747497 117.11129204933971 240.5375590278134 117.11129204933971 C 239.4329895281518 117.11129204933971 238.5375590278134 116.21586154900129 238.5375590278134 115.11129204933971 C 238.5375590278134 114.00672254967812 239.4329895281518 113.11129204933971 240.5375590278134 113.11129204933971 C 241.64212852747497 113.11129204933971 242.5375590278134 114.00672254967812 242.5375590278134 115.11129204933971 Z" fill-opacity="1"/><path fill="none" stroke="rgb(0,0,0)" paint-order="fill stroke markers" d=" M 242.5375590278134 115.11129204933971 C 242.5375590278134 116.21586154900129 241.64212852747497 117.11129204933971 240.5375590278134 117.11129204933971 C 239.4329895281518 117.11129204933971 238.5375590278134 116.21586154900129 238.5375590278134 115.11129204933971 C 238.5375590278134 114.00672254967812 239.4329895281518 113.11129204933971 240.5375590278134 113.11129204933971 C 241.64212852747497 113.11129204933971 242.5375590278134 114.00672254967812 242.5375590278134 115.11129204933971 Z" stroke-opacity="1" stroke-linecap="round" stroke-linejoin="round" stroke-miterlimit="10"/><text fill="rgb(0,0,255)" stroke="none" font-family="geogebra-sans-serif, sans-serif" font-size="16px" font-style="normal" font-weight="normal" text-decoration="normal" x="246" y="105" text-anchor="start" dominant-baseline="alphabetic" fill-opacity="1">C'</text><text fill="rgb(0,0,255)" stroke="none" font-family="geogebra-sans-serif, sans-serif" font-size="16px" font-style="normal" font-weight="normal" text-decoration="normal" x="246" y="105" text-anchor="start" dominant-baseline="alphabetic" fill-opacity="1">C'</text><path fill="rgb(0,0,255)" stroke="none" paint-order="stroke fill markers" d=" M 155.45433405146684 75.28652850209815 C 155.45433405146684 76.39109800175973 154.55890355112842 77.28652850209815 153.45433405146684 77.28652850209815 C 152.34976455180527 77.28652850209815 151.45433405146684 76.39109800175973 151.45433405146684 75.28652850209815 C 151.45433405146684 74.18195900243656 152.34976455180527 73.28652850209815 153.45433405146684 73.28652850209815 C 154.55890355112842 73.28652850209815 155.45433405146684 74.18195900243656 155.45433405146684 75.28652850209815 Z" fill-opacity="1"/><path fill="none" stroke="rgb(0,0,0)" paint-order="fill stroke markers" d=" M 155.45433405146684 75.28652850209815 C 155.45433405146684 76.39109800175973 154.55890355112842 77.28652850209815 153.45433405146684 77.28652850209815 C 152.34976455180527 77.28652850209815 151.45433405146684 76.39109800175973 151.45433405146684 75.28652850209815 C 151.45433405146684 74.18195900243656 152.34976455180527 73.28652850209815 153.45433405146684 73.28652850209815 C 154.55890355112842 73.28652850209815 155.45433405146684 74.18195900243656 155.45433405146684 75.28652850209815 Z" stroke-opacity="1" stroke-linecap="round" stroke-linejoin="round" stroke-miterlimit="10"/><text fill="rgb(0,0,255)" stroke="none" font-family="geogebra-sans-serif, sans-serif" font-size="16px" font-style="normal" font-weight="normal" text-decoration="normal" x="127" y="74" text-anchor="start" dominant-baseline="alphabetic" fill-opacity="1">D'</text><text fill="rgb(0,0,255)" stroke="none" font-family="geogebra-sans-serif, sans-serif" font-size="16px" font-style="normal" font-weight="normal" text-decoration="normal" x="127" y="74" text-anchor="start" dominant-baseline="alphabetic" fill-opacity="1">D'</text></g></g></svg>