<svg version="1.1" xmlns="http://www.w3.org/2000/svg" xmlns:xlink="http://www.w3.org/1999/xlink" width="285" height="259"><defs><clipPath id="aQJaOxCxNZeC"><path fill="none" stroke="none" d=" M 0 0 L 285 0 L 285 259 L 0 259 L 0 0 Z"/></clipPath></defs><g transform="scale(1,1)" clip-path="url(#aQJaOxCxNZeC)"><g><rect fill="rgb(255,255,255)" stroke="none" x="0" y="0" width="285" height="259" fill-opacity="1"/><path fill="none" stroke="rgb(0,153,255)" paint-order="fill stroke markers" d=" M 227.1949368887477 151.82884234781955 C 227.1949368887477 188.64782566987236 197.34725354413385 218.4955090144861 160.52827022208092 218.4955090144861 C 123.70928690002798 218.4955090144861 93.86160355541416 188.64782566987236 93.86160355541416 151.82884234781955 C 93.86160355541416 115.00985902576673 123.70928690002798 85.162175681153 160.52827022208092 85.162175681153 C 197.34725354413385 85.162175681153 227.1949368887477 115.00985902576673 227.1949368887477 151.82884234781955 Z" stroke-opacity="0.6980392156862745" stroke-linecap="round" stroke-linejoin="round" stroke-miterlimit="10"/><path fill="rgb(127,0,255)" stroke="none" paint-order="stroke fill markers" d=" M 181.1108458121755 55.82331479928993 C 186.0831244137759 62.888740053436976 195.03021465479247 65.96261965661157 203.29489387109308 63.44490919559331 L 197.46663352648775 44.31296257859955 Z" fill-opacity="0.09803921568627451"/><path fill="none" stroke="rgb(127,0,255)" paint-order="fill stroke markers" d=" M 181.1108458121755 55.82331479928993 C 186.0831244137759 62.888740053436976 195.03021465479247 65.96261965661157 203.29489387109308 63.44490919559331 L 197.46663352648775 44.31296257859955 Z" stroke-opacity="0.6980392156862745" stroke-linecap="round" stroke-linejoin="round" stroke-miterlimit="10"/><path fill="none" stroke="rgb(127,0,255)" paint-order="fill stroke markers" d=" M 185.19979274075354 52.94572674411734 C 188.92900169195383 58.24479568472762 195.63931937271627 60.55020538710855 201.8378287849417 58.661922541344865" stroke-opacity="0.6980392156862745" stroke-linecap="round" stroke-linejoin="round" stroke-miterlimit="10"/><path fill="rgb(127,0,255)" stroke="none" paint-order="stroke fill markers" d=" M 168.10145519793045 222.03154500494537 C 165.7973591250793 217.17822423902896 161.0735798409786 213.92777617857857 155.717363522123 213.5100107953445 C 150.36114720326745 213.0922454121104 145.19051366780997 215.57096527538414 142.16177680353235 220.00834447675615 L 154.5509605897757 228.46459217361817 Z" fill-opacity="0.09803921568627451"/><path fill="none" stroke="rgb(127,0,255)" paint-order="fill stroke markers" d=" M 168.10145519793045 222.03154500494537 C 165.7973591250793 217.17822423902896 161.0735798409786 213.92777617857857 155.717363522123 213.5100107953445 C 150.36114720326745 213.0922454121104 145.19051366780997 215.57096527538414 142.16177680353235 220.00834447675615 L 154.5509605897757 228.46459217361817 Z" stroke-opacity="0.6980392156862745" stroke-linecap="round" stroke-linejoin="round" stroke-miterlimit="10"/><path fill="none" stroke="rgb(127,0,255)" paint-order="fill stroke markers" d=" M 155.48408293565356 216.5009270709992 L 155.9506441085925 210.51909451968976" stroke-opacity="0.6980392156862745" stroke-linecap="round" stroke-linejoin="round" stroke-miterlimit="10"/><path fill="rgb(255,0,0)" stroke="none" paint-order="stroke fill markers" fill-rule="evenodd" d=" M 240.7963118845207 151.25419045214167 L 240.72037945281306 140.64786053714283 L 230.1140495378135 140.72379296884975 L 230.18998196952182 151.3301228838493 L 240.7963118845207 151.25419045214167" fill-opacity="0.09803921568627451"/><path fill="none" stroke="rgb(255,0,0)" paint-order="fill stroke markers" d=" M 240.7963118845207 151.25419045214167 L 240.72037945281306 140.64786053714283 L 230.1140495378135 140.72379296884975 L 230.18998196952182 151.3301228838493 L 240.7963118845207 151.25419045214167" stroke-opacity="0.6980392156862745" stroke-linecap="round" stroke-linejoin="round" stroke-miterlimit="10" stroke-width="1.5"/><path fill="rgb(127,0,255)" stroke="none" paint-order="stroke fill markers" d=" M 141.18749326573266 83.9192926676159 C 144.27945225345496 88.3128528172038 149.48504508298004 90.71728759730956 154.83473098590838 90.22287692811523 C 160.18441688883675 89.72846625892086 164.86117339464502 86.41071824197246 167.09554543765395 81.5249058486009 L 153.45433405146684 75.28652850209812 Z" fill-opacity="0.09803921568627451"/><path fill="none" stroke="rgb(127,0,255)" paint-order="fill stroke markers" d=" M 141.18749326573266 83.9192926676159 C 144.27945225345496 88.3128528172038 149.48504508298004 90.71728759730956 154.83473098590838 90.22287692811523 C 160.18441688883675 89.72846625892086 164.86117339464502 86.41071824197246 167.09554543765395 81.5249058486009 L 153.45433405146684 75.28652850209812 Z" stroke-opacity="0.6980392156862745" stroke-linecap="round" stroke-linejoin="round" stroke-miterlimit="10"/><path fill="none" stroke="rgb(127,0,255)" paint-order="fill stroke markers" d=" M 154.55865159902007 87.23560724291178 L 155.1108103727967 93.21014661331861" stroke-opacity="0.6980392156862745" stroke-linecap="round" stroke-linejoin="round" stroke-miterlimit="10"/><path fill="none" stroke="rgb(255,85,0)" paint-order="fill stroke markers" d=" M 116.46235608858623 95.81691820622328 L 121.64201458789691 103.17702267766379" stroke-opacity="0.6980392156862745" stroke-linecap="round" stroke-linejoin="round" stroke-miterlimit="10"/><path fill="none" stroke="rgb(255,85,0)" paint-order="fill stroke markers" d=" M 119.32461893859087 93.80260656760245 L 124.50427743790155 101.16271103904296" stroke-opacity="0.6980392156862745" stroke-linecap="round" stroke-linejoin="round" stroke-miterlimit="10"/><path fill="none" stroke="rgb(255,85,0)" paint-order="fill stroke markers" d=" M 43.50000000000007 152.66666666666669 L 197.4666335264877 44.31296257859955" stroke-opacity="0.6980392156862745" stroke-linecap="round" stroke-linejoin="round" stroke-miterlimit="10"/><path fill="none" stroke="rgb(0,100,0)" paint-order="fill stroke markers" d=" M 197.4666335264877 44.31296257859955 L 241.05506474122816 187.3970888549436" stroke-opacity="0.6980392156862745" stroke-linecap="round" stroke-linejoin="round" stroke-miterlimit="10"/><path fill="none" stroke="rgb(0,100,0)" paint-order="fill stroke markers" d=" M 241.05506474122816 187.3970888549436 L 154.5509605897757 228.46459217361817" stroke-opacity="0.6980392156862745" stroke-linecap="round" stroke-linejoin="round" stroke-miterlimit="10"/><path fill="none" stroke="rgb(255,85,0)" paint-order="fill stroke markers" d=" M 99.37941553595275 196.25550901861658 L 104.45316415406995 188.82199874687058" stroke-opacity="0.6980392156862745" stroke-linecap="round" stroke-linejoin="round" stroke-miterlimit="10"/><path fill="none" stroke="rgb(255,85,0)" paint-order="fill stroke markers" d=" M 96.4886059858293 194.28238455601544 L 101.5623546039465 186.84887428426944" stroke-opacity="0.6980392156862745" stroke-linecap="round" stroke-linejoin="round" stroke-miterlimit="10"/><path fill="none" stroke="rgb(255,85,0)" paint-order="fill stroke markers" d=" M 93.59779643570585 192.3092600934143 L 98.67154505382305 184.8757498216683" stroke-opacity="0.6980392156862745" stroke-linecap="round" stroke-linejoin="round" stroke-miterlimit="10"/><path fill="none" stroke="rgb(255,85,0)" paint-order="fill stroke markers" d=" M 154.5509605897757 228.46459217361817 L 43.50000000000007 152.66666666666669" stroke-opacity="0.6980392156862745" stroke-linecap="round" stroke-linejoin="round" stroke-miterlimit="10"/><path fill="none" stroke="rgb(102,102,102)" paint-order="fill stroke markers" d=" M 24.19164505790701 152.80489830331925 L 266.97904991651177 151.06674399484055" stroke-opacity="0.6980392156862745" stroke-linejoin="round" stroke-miterlimit="10" stroke-dasharray="9,8"/><path fill="none" stroke="rgb(102,102,102)" paint-order="fill stroke markers" d=" M 245.1668201400058 133.1505258483172 L 236.16705077232828 133.21495665316414" stroke-opacity="0.6980392156862745" stroke-linecap="round" stroke-linejoin="round" stroke-miterlimit="10"/><path fill="none" stroke="rgb(102,102,102)" paint-order="fill stroke markers" d=" M 240.5375590278134 115.11129204933968 L 240.7963118845207 151.25419045214167" stroke-opacity="0.6980392156862745" stroke-linejoin="round" stroke-miterlimit="10" stroke-dasharray="9,8"/><path fill="none" stroke="rgb(102,102,102)" paint-order="fill stroke markers" d=" M 245.42557299671319 169.29342425111915 L 236.42580362903567 169.3578550559661" stroke-opacity="0.6980392156862745" stroke-linecap="round" stroke-linejoin="round" stroke-miterlimit="10"/><path fill="none" stroke="rgb(102,102,102)" paint-order="fill stroke markers" d=" M 240.7963118845207 151.25419045214167 L 241.05506474122816 187.3970888549436" stroke-opacity="0.6980392156862745" stroke-linejoin="round" stroke-miterlimit="10" stroke-dasharray="9,8"/><path fill="none" stroke="rgb(102,102,102)" paint-order="fill stroke markers" d=" M 240.5375590278134 115.11129204933968 L 153.45433405146684 75.28652850209812" stroke-opacity="0.6980392156862745" stroke-linejoin="round" stroke-miterlimit="10" stroke-dasharray="9,8"/><path fill="rgb(0,0,255)" stroke="none" paint-order="stroke fill markers" d=" M 45.50000000000007 152.66666666666669 C 45.50000000000007 153.77123616632826 44.60456949966166 154.66666666666669 43.50000000000007 154.66666666666669 C 42.395430500338485 154.66666666666669 41.50000000000007 153.77123616632826 41.50000000000007 152.66666666666669 C 41.50000000000007 151.5620971670051 42.395430500338485 150.66666666666669 43.50000000000007 150.66666666666669 C 44.60456949966166 150.66666666666669 45.50000000000007 151.5620971670051 45.50000000000007 152.66666666666669 Z" fill-opacity="1"/><path fill="none" stroke="rgb(0,0,0)" paint-order="fill stroke markers" d=" M 45.50000000000007 152.66666666666669 C 45.50000000000007 153.77123616632826 44.60456949966166 154.66666666666669 43.50000000000007 154.66666666666669 C 42.395430500338485 154.66666666666669 41.50000000000007 153.77123616632826 41.50000000000007 152.66666666666669 C 41.50000000000007 151.5620971670051 42.395430500338485 150.66666666666669 43.50000000000007 150.66666666666669 C 44.60456949966166 150.66666666666669 45.50000000000007 151.5620971670051 45.50000000000007 152.66666666666669 Z" stroke-opacity="1" stroke-linecap="round" stroke-linejoin="round" stroke-miterlimit="10"/><text fill="rgb(0,0,255)" stroke="none" font-family="geogebra-sans-serif, sans-serif" font-size="16px" font-style="normal" font-weight="normal" text-decoration="normal" x="32" y="141" text-anchor="start" dominant-baseline="alphabetic" fill-opacity="1">A</text><text fill="none" stroke="rgb(255,255,255)" font-family="geogebra-sans-serif, sans-serif" font-size="16px" font-style="normal" font-weight="normal" text-decoration="normal" x="32" y="141" text-anchor="start" dominant-baseline="alphabetic" stroke-opacity="1" stroke-linejoin="bevel" stroke-miterlimit="10" stroke-width="3">A</text><text fill="rgb(0,0,255)" stroke="none" font-family="geogebra-sans-serif, sans-serif" font-size="16px" font-style="normal" font-weight="normal" text-decoration="normal" x="32" y="141" text-anchor="start" dominant-baseline="alphabetic" fill-opacity="1">A</text><path fill="rgb(0,0,255)" stroke="none" paint-order="stroke fill markers" d=" M 162.52827022208092 151.82884234781955 C 162.52827022208092 152.93341184748112 161.6328397217425 153.82884234781955 160.52827022208092 153.82884234781955 C 159.42370072241934 153.82884234781955 158.52827022208092 152.93341184748112 158.52827022208092 151.82884234781955 C 158.52827022208092 150.72427284815797 159.42370072241934 149.82884234781955 160.52827022208092 149.82884234781955 C 161.6328397217425 149.82884234781955 162.52827022208092 150.72427284815797 162.52827022208092 151.82884234781955 Z" fill-opacity="1"/><path fill="none" stroke="rgb(0,0,0)" paint-order="fill stroke markers" d=" M 162.52827022208092 151.82884234781955 C 162.52827022208092 152.93341184748112 161.6328397217425 153.82884234781955 160.52827022208092 153.82884234781955 C 159.42370072241934 153.82884234781955 158.52827022208092 152.93341184748112 158.52827022208092 151.82884234781955 C 158.52827022208092 150.72427284815797 159.42370072241934 149.82884234781955 160.52827022208092 149.82884234781955 C 161.6328397217425 149.82884234781955 162.52827022208092 150.72427284815797 162.52827022208092 151.82884234781955 Z" stroke-opacity="1" stroke-linecap="round" stroke-linejoin="round" stroke-miterlimit="10"/><text fill="rgb(0,0,255)" stroke="none" font-family="geogebra-sans-serif, sans-serif" font-size="16px" font-style="normal" font-weight="normal" text-decoration="normal" x="154" y="173" text-anchor="start" dominant-baseline="alphabetic" fill-opacity="1">O</text><text fill="none" stroke="rgb(255,255,255)" font-family="geogebra-sans-serif, sans-serif" font-size="16px" font-style="normal" font-weight="normal" text-decoration="normal" x="154" y="173" text-anchor="start" dominant-baseline="alphabetic" stroke-opacity="1" stroke-linejoin="bevel" stroke-miterlimit="10" stroke-width="3">O</text><text fill="rgb(0,0,255)" stroke="none" font-family="geogebra-sans-serif, sans-serif" font-size="16px" font-style="normal" font-weight="normal" text-decoration="normal" x="154" y="173" text-anchor="start" dominant-baseline="alphabetic" fill-opacity="1">O</text><path fill="rgb(0,0,255)" stroke="none" paint-order="stroke fill markers" d=" M 199.4666335264877 44.31296257859955 C 199.4666335264877 45.41753207826114 198.57120302614928 46.31296257859955 197.4666335264877 46.31296257859955 C 196.36206402682612 46.31296257859955 195.4666335264877 45.41753207826114 195.4666335264877 44.31296257859955 C 195.4666335264877 43.208393078937966 196.36206402682612 42.31296257859955 197.4666335264877 42.31296257859955 C 198.57120302614928 42.31296257859955 199.4666335264877 43.208393078937966 199.4666335264877 44.31296257859955 Z" fill-opacity="1"/><path fill="none" stroke="rgb(0,0,0)" paint-order="fill stroke markers" d=" M 199.4666335264877 44.31296257859955 C 199.4666335264877 45.41753207826114 198.57120302614928 46.31296257859955 197.4666335264877 46.31296257859955 C 196.36206402682612 46.31296257859955 195.4666335264877 45.41753207826114 195.4666335264877 44.31296257859955 C 195.4666335264877 43.208393078937966 196.36206402682612 42.31296257859955 197.4666335264877 42.31296257859955 C 198.57120302614928 42.31296257859955 199.4666335264877 43.208393078937966 199.4666335264877 44.31296257859955 Z" stroke-opacity="1" stroke-linecap="round" stroke-linejoin="round" stroke-miterlimit="10"/><text fill="rgb(0,0,255)" stroke="none" font-family="geogebra-sans-serif, sans-serif" font-size="16px" font-style="normal" font-weight="normal" text-decoration="normal" x="196" y="31" text-anchor="start" dominant-baseline="alphabetic" fill-opacity="1">B</text><text fill="none" stroke="rgb(255,255,255)" font-family="geogebra-sans-serif, sans-serif" font-size="16px" font-style="normal" font-weight="normal" text-decoration="normal" x="196" y="31" text-anchor="start" dominant-baseline="alphabetic" stroke-opacity="1" stroke-linejoin="bevel" stroke-miterlimit="10" stroke-width="3">B</text><text fill="rgb(0,0,255)" stroke="none" font-family="geogebra-sans-serif, sans-serif" font-size="16px" font-style="normal" font-weight="normal" text-decoration="normal" x="196" y="31" text-anchor="start" dominant-baseline="alphabetic" fill-opacity="1">B</text><path fill="rgb(0,0,255)" stroke="none" paint-order="stroke fill markers" d=" M 156.5509605897757 228.46459217361817 C 156.5509605897757 229.56916167327975 155.6555300894373 230.46459217361817 154.5509605897757 230.46459217361817 C 153.44639109011413 230.46459217361817 152.5509605897757 229.56916167327975 152.5509605897757 228.46459217361817 C 152.5509605897757 227.3600226739566 153.44639109011413 226.46459217361817 154.5509605897757 226.46459217361817 C 155.6555300894373 226.46459217361817 156.5509605897757 227.3600226739566 156.5509605897757 228.46459217361817 Z" fill-opacity="1"/><path fill="none" stroke="rgb(0,0,0)" paint-order="fill stroke markers" d=" M 156.5509605897757 228.46459217361817 C 156.5509605897757 229.56916167327975 155.6555300894373 230.46459217361817 154.5509605897757 230.46459217361817 C 153.44639109011413 230.46459217361817 152.5509605897757 229.56916167327975 152.5509605897757 228.46459217361817 C 152.5509605897757 227.3600226739566 153.44639109011413 226.46459217361817 154.5509605897757 226.46459217361817 C 155.6555300894373 226.46459217361817 156.5509605897757 227.3600226739566 156.5509605897757 228.46459217361817 Z" stroke-opacity="1" stroke-linecap="round" stroke-linejoin="round" stroke-miterlimit="10"/><text fill="rgb(0,0,255)" stroke="none" font-family="geogebra-sans-serif, sans-serif" font-size="16px" font-style="normal" font-weight="normal" text-decoration="normal" x="146" y="250" text-anchor="start" dominant-baseline="alphabetic" fill-opacity="1">D</text><text fill="none" stroke="rgb(255,255,255)" font-family="geogebra-sans-serif, sans-serif" font-size="16px" font-style="normal" font-weight="normal" text-decoration="normal" x="146" y="250" text-anchor="start" dominant-baseline="alphabetic" stroke-opacity="1" stroke-linejoin="bevel" stroke-miterlimit="10" stroke-width="3">D</text><text fill="rgb(0,0,255)" stroke="none" font-family="geogebra-sans-serif, sans-serif" font-size="16px" font-style="normal" font-weight="normal" text-decoration="normal" x="146" y="250" text-anchor="start" dominant-baseline="alphabetic" fill-opacity="1">D</text><path fill="rgb(0,0,255)" stroke="none" paint-order="stroke fill markers" d=" M 243.05506474122816 187.3970888549436 C 243.05506474122816 188.50165835460518 242.15963424088974 189.3970888549436 241.05506474122816 189.3970888549436 C 239.95049524156659 189.3970888549436 239.05506474122816 188.50165835460518 239.05506474122816 187.3970888549436 C 239.05506474122816 186.29251935528202 239.95049524156659 185.3970888549436 241.05506474122816 185.3970888549436 C 242.15963424088974 185.3970888549436 243.05506474122816 186.29251935528202 243.05506474122816 187.3970888549436 Z" fill-opacity="1"/><path fill="none" stroke="rgb(0,0,0)" paint-order="fill stroke markers" d=" M 243.05506474122816 187.3970888549436 C 243.05506474122816 188.50165835460518 242.15963424088974 189.3970888549436 241.05506474122816 189.3970888549436 C 239.95049524156659 189.3970888549436 239.05506474122816 188.50165835460518 239.05506474122816 187.3970888549436 C 239.05506474122816 186.29251935528202 239.95049524156659 185.3970888549436 241.05506474122816 185.3970888549436 C 242.15963424088974 185.3970888549436 243.05506474122816 186.29251935528202 243.05506474122816 187.3970888549436 Z" stroke-opacity="1" stroke-linecap="round" stroke-linejoin="round" stroke-miterlimit="10"/><text fill="rgb(0,0,255)" stroke="none" font-family="geogebra-sans-serif, sans-serif" font-size="16px" font-style="normal" font-weight="normal" text-decoration="normal" x="236" y="209" text-anchor="start" dominant-baseline="alphabetic" fill-opacity="1">C</text><text fill="none" stroke="rgb(255,255,255)" font-family="geogebra-sans-serif, sans-serif" font-size="16px" font-style="normal" font-weight="normal" text-decoration="normal" x="236" y="209" text-anchor="start" dominant-baseline="alphabetic" stroke-opacity="1" stroke-linejoin="bevel" stroke-miterlimit="10" stroke-width="3">C</text><text fill="rgb(0,0,255)" stroke="none" font-family="geogebra-sans-serif, sans-serif" font-size="16px" font-style="normal" font-weight="normal" text-decoration="normal" x="236" y="209" text-anchor="start" dominant-baseline="alphabetic" fill-opacity="1">C</text><path fill="rgb(0,0,255)" stroke="none" paint-order="stroke fill markers" d=" M 268.97904991651177 151.06674399484055 C 268.97904991651177 152.17131349450213 268.08361941617335 153.06674399484055 266.97904991651177 153.06674399484055 C 265.8744804168502 153.06674399484055 264.97904991651177 152.17131349450213 264.97904991651177 151.06674399484055 C 264.97904991651177 149.96217449517897 265.8744804168502 149.06674399484055 266.97904991651177 149.06674399484055 C 268.08361941617335 149.06674399484055 268.97904991651177 149.96217449517897 268.97904991651177 151.06674399484055 Z" fill-opacity="1"/><path fill="none" stroke="rgb(0,0,0)" paint-order="fill stroke markers" d=" M 268.97904991651177 151.06674399484055 C 268.97904991651177 152.17131349450213 268.08361941617335 153.06674399484055 266.97904991651177 153.06674399484055 C 265.8744804168502 153.06674399484055 264.97904991651177 152.17131349450213 264.97904991651177 151.06674399484055 C 264.97904991651177 149.96217449517897 265.8744804168502 149.06674399484055 266.97904991651177 149.06674399484055 C 268.08361941617335 149.06674399484055 268.97904991651177 149.96217449517897 268.97904991651177 151.06674399484055 Z" stroke-opacity="1" stroke-linecap="round" stroke-linejoin="round" stroke-miterlimit="10"/><text fill="rgb(0,0,255)" stroke="none" font-family="geogebra-sans-serif, sans-serif" font-size="16px" font-style="normal" font-weight="normal" text-decoration="normal" x="263" y="141" text-anchor="start" dominant-baseline="alphabetic" fill-opacity="1">F</text><text fill="none" stroke="rgb(255,255,255)" font-family="geogebra-sans-serif, sans-serif" font-size="16px" font-style="normal" font-weight="normal" text-decoration="normal" x="263" y="141" text-anchor="start" dominant-baseline="alphabetic" stroke-opacity="1" stroke-linejoin="bevel" stroke-miterlimit="10" stroke-width="3">F</text><text fill="rgb(0,0,255)" stroke="none" font-family="geogebra-sans-serif, sans-serif" font-size="16px" font-style="normal" font-weight="normal" text-decoration="normal" x="263" y="141" text-anchor="start" dominant-baseline="alphabetic" fill-opacity="1">F</text><path fill="rgb(0,0,255)" stroke="none" paint-order="stroke fill markers" d=" M 242.5375590278134 115.11129204933968 C 242.5375590278134 116.21586154900126 241.64212852747497 117.11129204933968 240.5375590278134 117.11129204933968 C 239.4329895281518 117.11129204933968 238.5375590278134 116.21586154900126 238.5375590278134 115.11129204933968 C 238.5375590278134 114.00672254967809 239.4329895281518 113.11129204933968 240.5375590278134 113.11129204933968 C 241.64212852747497 113.11129204933968 242.5375590278134 114.00672254967809 242.5375590278134 115.11129204933968 Z" fill-opacity="1"/><path fill="none" stroke="rgb(0,0,0)" paint-order="fill stroke markers" d=" M 242.5375590278134 115.11129204933968 C 242.5375590278134 116.21586154900126 241.64212852747497 117.11129204933968 240.5375590278134 117.11129204933968 C 239.4329895281518 117.11129204933968 238.5375590278134 116.21586154900126 238.5375590278134 115.11129204933968 C 238.5375590278134 114.00672254967809 239.4329895281518 113.11129204933968 240.5375590278134 113.11129204933968 C 241.64212852747497 113.11129204933968 242.5375590278134 114.00672254967809 242.5375590278134 115.11129204933968 Z" stroke-opacity="1" stroke-linecap="round" stroke-linejoin="round" stroke-miterlimit="10"/><text fill="rgb(0,0,255)" stroke="none" font-family="geogebra-sans-serif, sans-serif" font-size="16px" font-style="normal" font-weight="normal" text-decoration="normal" x="246" y="105" text-anchor="start" dominant-baseline="alphabetic" fill-opacity="1">C'</text><text fill="none" stroke="rgb(255,255,255)" font-family="geogebra-sans-serif, sans-serif" font-size="16px" font-style="normal" font-weight="normal" text-decoration="normal" x="246" y="105" text-anchor="start" dominant-baseline="alphabetic" stroke-opacity="1" stroke-linejoin="bevel" stroke-miterlimit="10" stroke-width="3">C'</text><text fill="rgb(0,0,255)" stroke="none" font-family="geogebra-sans-serif, sans-serif" font-size="16px" font-style="normal" font-weight="normal" text-decoration="normal" x="246" y="105" text-anchor="start" dominant-baseline="alphabetic" fill-opacity="1">C'</text><path fill="rgb(0,0,255)" stroke="none" paint-order="stroke fill markers" d=" M 155.45433405146684 75.28652850209812 C 155.45433405146684 76.3910980017597 154.55890355112842 77.28652850209812 153.45433405146684 77.28652850209812 C 152.34976455180527 77.28652850209812 151.45433405146684 76.3910980017597 151.45433405146684 75.28652850209812 C 151.45433405146684 74.18195900243653 152.34976455180527 73.28652850209812 153.45433405146684 73.28652850209812 C 154.55890355112842 73.28652850209812 155.45433405146684 74.18195900243653 155.45433405146684 75.28652850209812 Z" fill-opacity="1"/><path fill="none" stroke="rgb(0,0,0)" paint-order="fill stroke markers" d=" M 155.45433405146684 75.28652850209812 C 155.45433405146684 76.3910980017597 154.55890355112842 77.28652850209812 153.45433405146684 77.28652850209812 C 152.34976455180527 77.28652850209812 151.45433405146684 76.3910980017597 151.45433405146684 75.28652850209812 C 151.45433405146684 74.18195900243653 152.34976455180527 73.28652850209812 153.45433405146684 73.28652850209812 C 154.55890355112842 73.28652850209812 155.45433405146684 74.18195900243653 155.45433405146684 75.28652850209812 Z" stroke-opacity="1" stroke-linecap="round" stroke-linejoin="round" stroke-miterlimit="10"/><text fill="rgb(0,0,255)" stroke="none" font-family="geogebra-sans-serif, sans-serif" font-size="16px" font-style="normal" font-weight="normal" text-decoration="normal" x="127" y="74" text-anchor="start" dominant-baseline="alphabetic" fill-opacity="1">D'</text><text fill="none" stroke="rgb(255,255,255)" font-family="geogebra-sans-serif, sans-serif" font-size="16px" font-style="normal" font-weight="normal" text-decoration="normal" x="127" y="74" text-anchor="start" dominant-baseline="alphabetic" stroke-opacity="1" stroke-linejoin="bevel" stroke-miterlimit="10" stroke-width="3">D'</text><text fill="rgb(0,0,255)" stroke="none" font-family="geogebra-sans-serif, sans-serif" font-size="16px" font-style="normal" font-weight="normal" text-decoration="normal" x="127" y="74" text-anchor="start" dominant-baseline="alphabetic" fill-opacity="1">D'</text></g></g></svg>