<svg version="1.1" xmlns="http://www.w3.org/2000/svg" xmlns:xlink="http://www.w3.org/1999/xlink" width="309" height="236"><defs><clipPath id="bidXLbTrAEPV"><path fill="none" stroke="none" d=" M 0 0 L 309 0 L 309 236 L 0 236 L 0 0 Z"/></clipPath></defs><g transform="scale(1,1)" clip-path="url(#bidXLbTrAEPV)"><g><rect fill="rgb(255,255,255)" stroke="none" x="0" y="0" width="309" height="236" fill-opacity="1"/><path fill="rgb(255,85,0)" stroke="none" paint-order="stroke fill markers" d=" M 68.74722259486826 72.52312831295237 L 67.8434924960964 72.95123099756646 L 69.9840059191669 77.46988149142577 L 70.88773601793876 77.04177880681168 L 68.74722259486826 72.52312831295237 Z M 72.60014675639516 80.65669920189913 L 71.6964166576233 81.08480188651322 L 73.83693008069379 85.60345238037253 L 74.74066017946565 85.17534969575844 L 72.60014675639516 80.65669920189913 Z M 76.45307091792205 88.7902700908459 L 75.54934081915019 89.21837277545998 L 77.68985424222069 93.73702326931931 L 78.59358434099255 93.30892058470522 L 76.45307091792205 88.7902700908459 Z M 80.30599507944895 96.92384097979266 L 79.40226498067709 97.35194366440675 L 81.54277840374758 101.87059415826607 L 82.44650850251944 101.44249147365198 L 80.30599507944895 96.92384097979266 Z M 84.15891924097583 105.05741186873942 L 83.25518914220397 105.48551455335351 L 85.39570256527448 110.00416504721284 L 86.29943266404634 109.57606236259875 L 84.15891924097583 105.05741186873942 Z M 88.01184340250273 113.1909827576862 L 87.10811330373087 113.61908544230029 L 89.24862672680136 118.1377359361596 L 90.15235682557322 117.70963325154551 L 88.01184340250273 113.1909827576862 Z M 91.86476756402962 121.32455364663296 L 90.96103746525776 121.75265633124705 L 93.10155088832826 126.27130682510636 L 94.00528098710012 125.84320414049228 L 91.86476756402962 121.32455364663296 Z M 95.71769172555652 129.45812453557974 L 94.81396162678466 129.88622722019383 L 96.95447504985515 134.40487771405313 L 97.85820514862701 133.97677502943904 L 95.71769172555652 129.45812453557974 Z M 99.5706158870834 137.59169542452648 L 98.66688578831155 138.01979810914057 L 100.80739921138205 142.53844860299992 L 101.71112931015391 142.11034591838583 L 99.5706158870834 137.59169542452648 Z M 103.4235400486103 145.72526631347327 L 102.51980994983845 146.15336899808736 L 104.66032337290895 150.67201949194666 L 105.56405347168081 150.24391680733257 L 103.4235400486103 145.72526631347327 Z M 107.27646421013719 153.85883720242003 L 106.37273411136533 154.28693988703412 L 108.51324753443583 158.80559038089342 L 109.4169776332077 158.37748769627933 L 107.27646421013719 153.85883720242003 Z M 111.12938837166409 161.9924080913668 L 110.22565827289223 162.4205107759809 L 112.36617169596272 166.93916126984018 L 113.26990179473458 166.5110585852261 L 111.12938837166409 161.9924080913668 Z M 114.98231253319099 170.12597898031356 L 114.07858243441913 170.55408166492765 L 116.21909585748962 175.07273215878698 L 117.12282595626148 174.6446294741729 L 114.98231253319099 170.12597898031356 Z M 118.83523669471788 178.25954986926033 L 117.93150659594602 178.68765255387441 L 118.18252069359606 179.21754644012017 L 118.18252069359609 179.21754644012017 L 119.08625079236786 178.7894437555061 L 119.08625079236793 178.7894437555061 L 118.83523669471788 178.25954986926033 Z" fill-opacity="0.6980392156862745"/><path fill="rgb(255,85,0)" stroke="none" paint-order="stroke fill markers" d=" M 120.65579004864905 178.09914565835882 C 120.5832246446467 178.09914565835882 120.51014992497792 178.11493369756022 120.44184594052572 178.14728972858492 L 116.82692554543829 179.85970046704134 C 116.64416319321256 179.9462761534554 116.53154873434985 180.13442042505525 116.54159411478403 180.33640190242647 C 116.55163949521825 180.53838337979775 116.68236644925707 180.7144252690415 116.87281720281075 180.78243951269664 L 119.53648276958268 181.73369434101218 C 119.59205484356123 181.75354037737316 119.64881641093055 181.76295658211492 119.70462769272882 181.76295658211492 C 119.90999234131597 181.76295658211492 120.10249045762188 181.63546448293027 120.17551645078666 181.4309800296774 L 121.12677127910217 178.76731446290543 C 121.19478552275731 178.57686370935178 121.14137787998918 178.36419517154064 120.99145225104124 178.228475855842 C 120.89755850012475 178.14347907635744 120.77738936332368 178.09914565835882 120.65579004864905 178.09914565835882 Z" fill-opacity="0.6980392156862745"/><path fill="rgb(255,85,0)" stroke="none" paint-order="stroke fill markers" d=" M 221.26819493680793 158.87767332317995 L 216.38027073402554 159.93038267901093 L 216.59081260519173 160.9079675195674 L 221.47873680797412 159.8552581637364 L 221.26819493680793 158.87767332317995 Z M 212.46993137179962 160.77255016367573 L 207.58200716901723 161.82525951950672 L 207.79254904018342 162.80284436006318 L 212.6804732429658 161.7501350042322 L 212.46993137179962 160.77255016367573 Z M 203.6716678067913 162.66742700417151 L 198.78374360400895 163.7201363600025 L 198.99428547517513 164.69772120055896 L 203.8822096779575 163.64501184472797 L 203.6716678067913 162.66742700417151 Z M 194.873404241783 164.5623038446673 L 189.98548003900063 165.61501320049828 L 190.19602191016682 166.59259804105474 L 195.08394611294918 165.53988868522376 L 194.873404241783 164.5623038446673 Z M 186.0751406767747 166.45718068516308 L 181.18721647399232 167.50989004099407 L 181.3977583451585 168.48747488155053 L 186.2856825479409 167.43476552571954 L 186.0751406767747 166.45718068516308 Z M 177.2768771117664 168.35205752565886 L 172.388952908984 169.40476688148985 L 172.5994947801502 170.3823517220463 L 177.48741898293258 169.32964236621532 L 177.2768771117664 168.35205752565886 Z M 168.47861354675808 170.24693436615465 L 163.5906893439757 171.29964372198563 L 163.80123121514188 172.2772285625421 L 168.68915541792427 171.2245192067111 L 168.47861354675808 170.24693436615465 Z M 159.68034998174977 172.14181120665043 L 154.79242577896738 173.19452056248142 L 155.00296765013357 174.17210540303788 L 159.89089185291596 173.1193960472069 L 159.68034998174977 172.14181120665043 Z M 150.88208641674146 174.0366880471462 L 145.99416221395907 175.0893974029772 L 146.20470408512526 176.06698224353366 L 151.09262828790764 175.01427288770267 L 150.88208641674146 174.0366880471462 Z M 142.08382285173317 175.931564887642 L 137.19589864895076 176.98427424347298 L 137.40644052011694 177.96185908402944 L 142.29436472289936 176.90914972819846 L 142.08382285173317 175.931564887642 Z M 133.28555928672486 177.82644172813778 L 128.39763508394245 178.87915108396876 L 128.60817695510863 179.85673592452522 L 133.49610115789105 178.80402656869424 L 133.28555928672486 177.82644172813778 Z M 124.48729572171655 179.72131856863356 L 119.59937151893415 180.77402792446455 L 119.80991339010033 181.751612765021 L 124.69783759288273 180.69890340919002 L 124.48729572171655 179.72131856863356 Z" fill-opacity="0.6980392156862745"/><path fill="rgb(255,85,0)" stroke="none" paint-order="stroke fill markers" d=" M 221.91911937063747 156.7030935959875 C 221.81962639461048 156.7030935959875 221.72023422985365 156.73273320612302 221.63479369817685 156.79179384669303 C 221.46843842955383 156.90678667895014 221.3877335828391 157.11066657250888 221.43031170175826 157.30836465206062 L 222.27247918642306 161.21870401428654 C 222.3150573053422 161.4164020938383 222.47253335834242 161.56898510734982 222.67147650834872 161.6053038344024 C 222.70149396868686 161.61078377150403 222.73156353280464 161.61345398485832 222.7613628746305 161.61345398485832 C 222.92906108470177 161.61345398485832 223.08820144450533 161.52888921447342 223.1813378340853 161.3846237212621 L 224.71542377286585 159.00837029781678 C 224.86519822904782 158.77637412651364 224.79854435934365 158.46688788405606 224.5665481880405 158.31711342787412 L 222.19029476459517 156.7830274890935 C 222.10765542822347 156.72967634284493 222.0133421923501 156.7030935959875 221.91911937063747 156.7030935959875 Z" fill-opacity="0.6980392156862745"/><path fill="rgb(255,85,0)" stroke="none" paint-order="stroke fill markers" d=" M 210.44391880884032 73.8585154048997 L 209.4579273393575 74.02531115456695 L 210.29190608769372 78.9552685019812 L 211.27789755717654 78.78847275231395 L 210.44391880884032 73.8585154048997 Z M 211.9450805558455 82.73243863024533 L 210.95908908636267 82.89923437991257 L 211.7930678346989 87.8291917273268 L 212.77905930418171 87.66239597765956 L 211.9450805558455 82.73243863024533 Z M 213.4462423028507 91.60636185559095 L 212.46025083336787 91.77315760525819 L 213.2942295817041 96.70311495267242 L 214.2802210511869 96.53631920300518 L 213.4462423028507 91.60636185559095 Z M 214.9474040498559 100.48028508093657 L 213.96141258037306 100.64708083060381 L 214.7953913287093 105.57703817801803 L 215.7813827981921 105.41024242835078 L 214.9474040498559 100.48028508093657 Z M 216.4485657968611 109.35420830628217 L 215.46257432737826 109.52100405594942 L 216.29655307571448 114.45096140336366 L 217.2825445451973 114.28416565369642 L 216.4485657968611 109.35420830628217 Z M 217.9497275438663 118.22813153162778 L 216.96373607438346 118.39492728129503 L 217.79771482271968 123.32488462870927 L 218.7837062922025 123.15808887904203 L 217.9497275438663 118.22813153162778 Z M 219.4508892908715 127.1020547569734 L 218.46489782138866 127.26885050664065 L 219.29887656972488 132.19880785405488 L 220.2848680392077 132.03201210438763 L 219.4508892908715 127.1020547569734 Z M 220.95205103787666 135.97597798231902 L 219.96605956839383 136.14277373198627 L 220.80003831673005 141.07273107940048 L 221.78602978621288 140.90593532973324 L 220.95205103787666 135.97597798231902 Z M 222.45321278488186 144.84990120766463 L 221.46722131539903 145.01669695733187 L 222.30120006373525 149.94665430474612 L 223.28719153321808 149.77985855507887 L 222.45321278488186 144.84990120766463 Z M 223.95437453188705 153.72382443301024 L 222.96838306240423 153.89062018267748 L 223.80236181074045 158.82057753009173 L 224.78835328022328 158.65378178042448 L 223.95437453188705 153.72382443301024 Z" fill-opacity="0.6980392156862745"/><path fill="rgb(255,85,0)" stroke="none" paint-order="stroke fill markers" d=" M 209.33316844636397 69.78757386395014 C 209.17674440626186 69.78757386395014 209.0226796263376 69.86076669285376 208.92516979810677 69.99798430887273 L 207.28677835847554 72.30355874717293 C 207.1696341913601 72.46840616444103 207.16332648164092 72.68758758719139 207.270796504489 72.85889906099914 C 207.3632257166589 73.00623488674937 207.52415916387022 73.09320779450856 207.69424411726249 73.09320779450856 C 207.7219216828624 73.09320779450856 207.74984158369733 73.09090472006075 207.77774806327227 73.08618390621464 L 211.7217139412037 72.4190009075457 C 211.92111210275885 72.38526961587812 212.08055699741192 72.23474516985738 212.1256997203063 72.03761688310274 C 212.17084244320068 71.84048859634808 212.09279290793847 71.63557750995662 211.92794549067037 71.51843334284115 L 209.62237105237017 69.88004190320993 C 209.5344929622399 69.81759381729746 209.43334688039778 69.78757386395014 209.33316844636397 69.78757386395014 Z" fill-opacity="0.6980392156862745"/><path fill="none" stroke="rgb(102,102,102)" paint-order="fill stroke markers" d=" M 68.29535754548233 72.73717965525941 L 209.33274162806987 70.28761373317303" stroke-opacity="0.6980392156862745" stroke-linejoin="round" stroke-miterlimit="10" stroke-dasharray="9,8"/><path fill="none" stroke="rgb(102,102,102)" paint-order="fill stroke markers" d=" M 32.99999999999997 103.00000000000145 L 154.9999999999996 151.00000000000074" stroke-opacity="0.6980392156862745" stroke-linejoin="round" stroke-miterlimit="10" stroke-dasharray="5,4"/><path fill="none" stroke="rgb(102,102,102)" paint-order="fill stroke markers" d=" M 154.9999999999996 151.00000000000074 L 188.9999999999995 189.00000000000014" stroke-opacity="0.6980392156862745" stroke-linejoin="round" stroke-miterlimit="10" stroke-dasharray="5,4"/><path fill="none" stroke="rgb(102,102,102)" paint-order="fill stroke markers" d=" M 188.9999999999995 189.00000000000014 L 244.62809917355222 40.02479338843099" stroke-opacity="0.6980392156862745" stroke-linejoin="round" stroke-miterlimit="10" stroke-dasharray="5,4"/><path fill="none" stroke="rgb(102,102,102)" paint-order="fill stroke markers" d=" M 244.62809917355222 40.02479338843099 L 32.99999999999997 103.00000000000145" stroke-opacity="0.6980392156862745" stroke-linejoin="round" stroke-miterlimit="10" stroke-dasharray="5,4"/><path fill="rgb(0,0,255)" stroke="none" paint-order="stroke fill markers" d=" M 95.99999999999979 127.0000000000011 C 95.99999999999979 128.1045694996627 95.10456949966138 129.00000000000108 93.99999999999979 129.00000000000108 C 92.8954305003382 129.00000000000108 91.99999999999979 128.1045694996627 91.99999999999979 127.0000000000011 C 91.99999999999979 125.8954305003395 92.8954305003382 125.0000000000011 93.99999999999979 125.0000000000011 C 95.10456949966138 125.0000000000011 95.99999999999979 125.8954305003395 95.99999999999979 127.0000000000011 Z" fill-opacity="1"/><path fill="none" stroke="rgb(0,0,0)" paint-order="fill stroke markers" d=" M 95.99999999999979 127.0000000000011 C 95.99999999999979 128.1045694996627 95.10456949966138 129.00000000000108 93.99999999999979 129.00000000000108 C 92.8954305003382 129.00000000000108 91.99999999999979 128.1045694996627 91.99999999999979 127.0000000000011 C 91.99999999999979 125.8954305003395 92.8954305003382 125.0000000000011 93.99999999999979 125.0000000000011 C 95.10456949966138 125.0000000000011 95.99999999999979 125.8954305003395 95.99999999999979 127.0000000000011 Z" stroke-opacity="1" stroke-linecap="round" stroke-linejoin="round" stroke-miterlimit="10"/><text fill="rgb(0,0,255)" stroke="none" font-family="geogebra-sans-serif, sans-serif" font-size="16px" font-style="normal" font-weight="normal" text-decoration="normal" x="68" y="144" text-anchor="start" dominant-baseline="alphabetic" fill-opacity="1">O</text><text fill="none" stroke="rgb(255,255,255)" font-family="geogebra-sans-serif, sans-serif" font-size="16px" font-style="normal" font-weight="normal" text-decoration="normal" x="68" y="144" text-anchor="start" dominant-baseline="alphabetic" stroke-opacity="1" stroke-linejoin="bevel" stroke-miterlimit="10" stroke-width="3">O</text><text fill="rgb(0,0,255)" stroke="none" font-family="geogebra-sans-serif, sans-serif" font-size="16px" font-style="normal" font-weight="normal" text-decoration="normal" x="68" y="144" text-anchor="start" dominant-baseline="alphabetic" fill-opacity="1">O</text><text fill="rgb(0,0,255)" stroke="none" font-family="geogebra-sans-serif, sans-serif" font-size="14px" font-style="normal" font-weight="normal" text-decoration="normal" x="80" y="151" text-anchor="start" dominant-baseline="alphabetic" fill-opacity="1">1</text><text fill="none" stroke="rgb(255,255,255)" font-family="geogebra-sans-serif, sans-serif" font-size="14px" font-style="normal" font-weight="normal" text-decoration="normal" x="80" y="151" text-anchor="start" dominant-baseline="alphabetic" stroke-opacity="1" stroke-linejoin="bevel" stroke-miterlimit="10" stroke-width="3">1</text><text fill="rgb(0,0,255)" stroke="none" font-family="geogebra-sans-serif, sans-serif" font-size="14px" font-style="normal" font-weight="normal" text-decoration="normal" x="80" y="151" text-anchor="start" dominant-baseline="alphabetic" fill-opacity="1">1</text><path fill="rgb(0,0,255)" stroke="none" paint-order="stroke fill markers" d=" M 173.99999999999955 170.00000000000043 C 173.99999999999955 171.104569499662 173.10456949966112 172.00000000000043 171.99999999999955 172.00000000000043 C 170.89543050033797 172.00000000000043 169.99999999999955 171.104569499662 169.99999999999955 170.00000000000043 C 169.99999999999955 168.89543050033885 170.89543050033797 168.00000000000043 171.99999999999955 168.00000000000043 C 173.10456949966112 168.00000000000043 173.99999999999955 168.89543050033885 173.99999999999955 170.00000000000043 Z" fill-opacity="1"/><path fill="none" stroke="rgb(0,0,0)" paint-order="fill stroke markers" d=" M 173.99999999999955 170.00000000000043 C 173.99999999999955 171.104569499662 173.10456949966112 172.00000000000043 171.99999999999955 172.00000000000043 C 170.89543050033797 172.00000000000043 169.99999999999955 171.104569499662 169.99999999999955 170.00000000000043 C 169.99999999999955 168.89543050033885 170.89543050033797 168.00000000000043 171.99999999999955 168.00000000000043 C 173.10456949966112 168.00000000000043 173.99999999999955 168.89543050033885 173.99999999999955 170.00000000000043 Z" stroke-opacity="1" stroke-linecap="round" stroke-linejoin="round" stroke-miterlimit="10"/><text fill="rgb(0,0,255)" stroke="none" font-family="geogebra-sans-serif, sans-serif" font-size="16px" font-style="normal" font-weight="normal" text-decoration="normal" x="154" y="195" text-anchor="start" dominant-baseline="alphabetic" fill-opacity="1">O</text><text fill="none" stroke="rgb(255,255,255)" font-family="geogebra-sans-serif, sans-serif" font-size="16px" font-style="normal" font-weight="normal" text-decoration="normal" x="154" y="195" text-anchor="start" dominant-baseline="alphabetic" stroke-opacity="1" stroke-linejoin="bevel" stroke-miterlimit="10" stroke-width="3">O</text><text fill="rgb(0,0,255)" stroke="none" font-family="geogebra-sans-serif, sans-serif" font-size="16px" font-style="normal" font-weight="normal" text-decoration="normal" x="154" y="195" text-anchor="start" dominant-baseline="alphabetic" fill-opacity="1">O</text><text fill="rgb(0,0,255)" stroke="none" font-family="geogebra-sans-serif, sans-serif" font-size="14px" font-style="normal" font-weight="normal" text-decoration="normal" x="166" y="202" text-anchor="start" dominant-baseline="alphabetic" fill-opacity="1">2</text><text fill="none" stroke="rgb(255,255,255)" font-family="geogebra-sans-serif, sans-serif" font-size="14px" font-style="normal" font-weight="normal" text-decoration="normal" x="166" y="202" text-anchor="start" dominant-baseline="alphabetic" stroke-opacity="1" stroke-linejoin="bevel" stroke-miterlimit="10" stroke-width="3">2</text><text fill="rgb(0,0,255)" stroke="none" font-family="geogebra-sans-serif, sans-serif" font-size="14px" font-style="normal" font-weight="normal" text-decoration="normal" x="166" y="202" text-anchor="start" dominant-baseline="alphabetic" fill-opacity="1">2</text><path fill="rgb(0,0,255)" stroke="none" paint-order="stroke fill markers" d=" M 218.81404958677587 114.51239669421557 C 218.81404958677587 115.61696619387715 217.91861908643745 116.51239669421557 216.81404958677587 116.51239669421557 C 215.7094800871143 116.51239669421557 214.81404958677587 115.61696619387715 214.81404958677587 114.51239669421557 C 214.81404958677587 113.40782719455397 215.7094800871143 112.51239669421557 216.81404958677587 112.51239669421557 C 217.91861908643745 112.51239669421557 218.81404958677587 113.40782719455397 218.81404958677587 114.51239669421557 Z" fill-opacity="1"/><path fill="none" stroke="rgb(0,0,0)" paint-order="fill stroke markers" d=" M 218.81404958677587 114.51239669421557 C 218.81404958677587 115.61696619387715 217.91861908643745 116.51239669421557 216.81404958677587 116.51239669421557 C 215.7094800871143 116.51239669421557 214.81404958677587 115.61696619387715 214.81404958677587 114.51239669421557 C 214.81404958677587 113.40782719455397 215.7094800871143 112.51239669421557 216.81404958677587 112.51239669421557 C 217.91861908643745 112.51239669421557 218.81404958677587 113.40782719455397 218.81404958677587 114.51239669421557 Z" stroke-opacity="1" stroke-linecap="round" stroke-linejoin="round" stroke-miterlimit="10"/><text fill="rgb(0,0,255)" stroke="none" font-family="geogebra-sans-serif, sans-serif" font-size="16px" font-style="normal" font-weight="normal" text-decoration="normal" x="227" y="109" text-anchor="start" dominant-baseline="alphabetic" fill-opacity="1">O</text><text fill="none" stroke="rgb(255,255,255)" font-family="geogebra-sans-serif, sans-serif" font-size="16px" font-style="normal" font-weight="normal" text-decoration="normal" x="227" y="109" text-anchor="start" dominant-baseline="alphabetic" stroke-opacity="1" stroke-linejoin="bevel" stroke-miterlimit="10" stroke-width="3">O</text><text fill="rgb(0,0,255)" stroke="none" font-family="geogebra-sans-serif, sans-serif" font-size="16px" font-style="normal" font-weight="normal" text-decoration="normal" x="227" y="109" text-anchor="start" dominant-baseline="alphabetic" fill-opacity="1">O</text><text fill="rgb(0,0,255)" stroke="none" font-family="geogebra-sans-serif, sans-serif" font-size="14px" font-style="normal" font-weight="normal" text-decoration="normal" x="239" y="116" text-anchor="start" dominant-baseline="alphabetic" fill-opacity="1">n</text><text fill="none" stroke="rgb(255,255,255)" font-family="geogebra-sans-serif, sans-serif" font-size="14px" font-style="normal" font-weight="normal" text-decoration="normal" x="239" y="116" text-anchor="start" dominant-baseline="alphabetic" stroke-opacity="1" stroke-linejoin="bevel" stroke-miterlimit="10" stroke-width="3">n</text><text fill="rgb(0,0,255)" stroke="none" font-family="geogebra-sans-serif, sans-serif" font-size="14px" font-style="normal" font-weight="normal" text-decoration="normal" x="239" y="116" text-anchor="start" dominant-baseline="alphabetic" fill-opacity="1">n</text><path fill="none" stroke="rgb(77,77,255)" paint-order="fill stroke markers" d=" M 69.29535754548233 72.73717965525941 C 69.29535754548233 73.2894644050902 68.84764229531312 73.73717965525941 68.29535754548233 73.73717965525941 C 67.74307279565154 73.73717965525941 67.29535754548233 73.2894644050902 67.29535754548233 72.73717965525941 C 67.29535754548233 72.18489490542862 67.74307279565154 71.73717965525941 68.29535754548233 71.73717965525941 C 68.84764229531312 71.73717965525941 69.29535754548233 72.18489490542862 69.29535754548233 72.73717965525941 Z" stroke-opacity="1" stroke-linecap="square" stroke-miterlimit="10" stroke-width="0.5"/><text fill="rgb(77,77,255)" stroke="none" font-family="geogebra-sans-serif, sans-serif" font-size="16px" font-style="normal" font-weight="normal" text-decoration="normal" x="53" y="70" text-anchor="start" dominant-baseline="alphabetic" fill-opacity="1">A</text><text fill="none" stroke="rgb(255,255,255)" font-family="geogebra-sans-serif, sans-serif" font-size="16px" font-style="normal" font-weight="normal" text-decoration="normal" x="53" y="70" text-anchor="start" dominant-baseline="alphabetic" stroke-opacity="1" stroke-linejoin="bevel" stroke-miterlimit="10" stroke-width="3">A</text><text fill="rgb(77,77,255)" stroke="none" font-family="geogebra-sans-serif, sans-serif" font-size="16px" font-style="normal" font-weight="normal" text-decoration="normal" x="53" y="70" text-anchor="start" dominant-baseline="alphabetic" fill-opacity="1">A</text><path fill="none" stroke="rgb(77,77,255)" paint-order="fill stroke markers" d=" M 120.70464245451724 181.26282034474278 C 120.70464245451724 181.81510509457357 120.25692720434803 182.26282034474278 119.70464245451724 182.26282034474278 C 119.15235770468645 182.26282034474278 118.70464245451724 181.81510509457357 118.70464245451724 181.26282034474278 C 118.70464245451724 180.710535594912 119.15235770468645 180.26282034474278 119.70464245451724 180.26282034474278 C 120.25692720434803 180.26282034474278 120.70464245451724 180.710535594912 120.70464245451724 181.26282034474278 Z" stroke-opacity="1" stroke-linecap="square" stroke-miterlimit="10" stroke-width="0.5"/><text fill="rgb(77,77,255)" stroke="none" font-family="geogebra-sans-serif, sans-serif" font-size="16px" font-style="normal" font-weight="normal" text-decoration="normal" x="106" y="208" text-anchor="start" dominant-baseline="alphabetic" fill-opacity="1">A</text><text fill="none" stroke="rgb(255,255,255)" font-family="geogebra-sans-serif, sans-serif" font-size="16px" font-style="normal" font-weight="normal" text-decoration="normal" x="106" y="208" text-anchor="start" dominant-baseline="alphabetic" stroke-opacity="1" stroke-linejoin="bevel" stroke-miterlimit="10" stroke-width="3">A</text><text fill="rgb(77,77,255)" stroke="none" font-family="geogebra-sans-serif, sans-serif" font-size="16px" font-style="normal" font-weight="normal" text-decoration="normal" x="106" y="208" text-anchor="start" dominant-baseline="alphabetic" fill-opacity="1">A</text><text fill="rgb(77,77,255)" stroke="none" font-family="geogebra-sans-serif, sans-serif" font-size="14px" font-style="normal" font-weight="normal" text-decoration="normal" x="117" y="215" text-anchor="start" dominant-baseline="alphabetic" fill-opacity="1">1</text><text fill="none" stroke="rgb(255,255,255)" font-family="geogebra-sans-serif, sans-serif" font-size="14px" font-style="normal" font-weight="normal" text-decoration="normal" x="117" y="215" text-anchor="start" dominant-baseline="alphabetic" stroke-opacity="1" stroke-linejoin="bevel" stroke-miterlimit="10" stroke-width="3">1</text><text fill="rgb(77,77,255)" stroke="none" font-family="geogebra-sans-serif, sans-serif" font-size="14px" font-style="normal" font-weight="normal" text-decoration="normal" x="117" y="215" text-anchor="start" dominant-baseline="alphabetic" fill-opacity="1">1</text><path fill="none" stroke="rgb(77,77,255)" paint-order="fill stroke markers" d=" M 225.29535754548186 158.7371796552581 C 225.29535754548186 159.2894644050889 224.84764229531265 159.7371796552581 224.29535754548186 159.7371796552581 C 223.74307279565107 159.7371796552581 223.29535754548186 159.2894644050889 223.29535754548186 158.7371796552581 C 223.29535754548186 158.1848949054273 223.74307279565107 157.7371796552581 224.29535754548186 157.7371796552581 C 224.84764229531265 157.7371796552581 225.29535754548186 158.1848949054273 225.29535754548186 158.7371796552581 Z" stroke-opacity="1" stroke-linecap="square" stroke-miterlimit="10" stroke-width="0.5"/><text fill="rgb(77,77,255)" stroke="none" font-family="geogebra-sans-serif, sans-serif" font-size="16px" font-style="normal" font-weight="normal" text-decoration="normal" x="241" y="180" text-anchor="start" dominant-baseline="alphabetic" fill-opacity="1">A</text><text fill="none" stroke="rgb(255,255,255)" font-family="geogebra-sans-serif, sans-serif" font-size="16px" font-style="normal" font-weight="normal" text-decoration="normal" x="241" y="180" text-anchor="start" dominant-baseline="alphabetic" stroke-opacity="1" stroke-linejoin="bevel" stroke-miterlimit="10" stroke-width="3">A</text><text fill="rgb(77,77,255)" stroke="none" font-family="geogebra-sans-serif, sans-serif" font-size="16px" font-style="normal" font-weight="normal" text-decoration="normal" x="241" y="180" text-anchor="start" dominant-baseline="alphabetic" fill-opacity="1">A</text><text fill="rgb(77,77,255)" stroke="none" font-family="geogebra-sans-serif, sans-serif" font-size="14px" font-style="normal" font-weight="normal" text-decoration="normal" x="252" y="187" text-anchor="start" dominant-baseline="alphabetic" fill-opacity="1">n-1</text><text fill="none" stroke="rgb(255,255,255)" font-family="geogebra-sans-serif, sans-serif" font-size="14px" font-style="normal" font-weight="normal" text-decoration="normal" x="252" y="187" text-anchor="start" dominant-baseline="alphabetic" stroke-opacity="1" stroke-linejoin="bevel" stroke-miterlimit="10" stroke-width="3">n-1</text><text fill="rgb(77,77,255)" stroke="none" font-family="geogebra-sans-serif, sans-serif" font-size="14px" font-style="normal" font-weight="normal" text-decoration="normal" x="252" y="187" text-anchor="start" dominant-baseline="alphabetic" fill-opacity="1">n-1</text><path fill="none" stroke="rgb(77,77,255)" paint-order="fill stroke markers" d=" M 210.33274162806987 70.28761373317303 C 210.33274162806987 70.83989848300382 209.88502637790066 71.28761373317303 209.33274162806987 71.28761373317303 C 208.78045687823908 71.28761373317303 208.33274162806987 70.83989848300382 208.33274162806987 70.28761373317303 C 208.33274162806987 69.73532898334224 208.78045687823908 69.28761373317303 209.33274162806987 69.28761373317303 C 209.88502637790066 69.28761373317303 210.33274162806987 69.73532898334224 210.33274162806987 70.28761373317303 Z" stroke-opacity="1" stroke-linecap="square" stroke-miterlimit="10" stroke-width="0.5"/><text fill="rgb(77,77,255)" stroke="none" font-family="geogebra-sans-serif, sans-serif" font-size="16px" font-style="normal" font-weight="normal" text-decoration="normal" x="187" y="88" text-anchor="start" dominant-baseline="alphabetic" fill-opacity="1">A</text><text fill="none" stroke="rgb(255,255,255)" font-family="geogebra-sans-serif, sans-serif" font-size="16px" font-style="normal" font-weight="normal" text-decoration="normal" x="187" y="88" text-anchor="start" dominant-baseline="alphabetic" stroke-opacity="1" stroke-linejoin="bevel" stroke-miterlimit="10" stroke-width="3">A</text><text fill="rgb(77,77,255)" stroke="none" font-family="geogebra-sans-serif, sans-serif" font-size="16px" font-style="normal" font-weight="normal" text-decoration="normal" x="187" y="88" text-anchor="start" dominant-baseline="alphabetic" fill-opacity="1">A</text><text fill="rgb(77,77,255)" stroke="none" font-family="geogebra-sans-serif, sans-serif" font-size="14px" font-style="normal" font-weight="normal" text-decoration="normal" x="198" y="95" text-anchor="start" dominant-baseline="alphabetic" fill-opacity="1">n</text><text fill="none" stroke="rgb(255,255,255)" font-family="geogebra-sans-serif, sans-serif" font-size="14px" font-style="normal" font-weight="normal" text-decoration="normal" x="198" y="95" text-anchor="start" dominant-baseline="alphabetic" stroke-opacity="1" stroke-linejoin="bevel" stroke-miterlimit="10" stroke-width="3">n</text><text fill="rgb(77,77,255)" stroke="none" font-family="geogebra-sans-serif, sans-serif" font-size="14px" font-style="normal" font-weight="normal" text-decoration="normal" x="198" y="95" text-anchor="start" dominant-baseline="alphabetic" fill-opacity="1">n</text><path fill="rgb(0,0,255)" stroke="none" paint-order="stroke fill markers" d=" M 140.8140495867761 71.51239669421622 C 140.8140495867761 72.6169661938778 139.91861908643767 73.51239669421622 138.8140495867761 73.51239669421622 C 137.7094800871145 73.51239669421622 136.8140495867761 72.6169661938778 136.8140495867761 71.51239669421622 C 136.8140495867761 70.40782719455463 137.7094800871145 69.51239669421622 138.8140495867761 69.51239669421622 C 139.91861908643767 69.51239669421622 140.8140495867761 70.40782719455463 140.8140495867761 71.51239669421622 Z" fill-opacity="1"/><path fill="none" stroke="rgb(0,0,0)" paint-order="fill stroke markers" d=" M 140.8140495867761 71.51239669421622 C 140.8140495867761 72.6169661938778 139.91861908643767 73.51239669421622 138.8140495867761 73.51239669421622 C 137.7094800871145 73.51239669421622 136.8140495867761 72.6169661938778 136.8140495867761 71.51239669421622 C 136.8140495867761 70.40782719455463 137.7094800871145 69.51239669421622 138.8140495867761 69.51239669421622 C 139.91861908643767 69.51239669421622 140.8140495867761 70.40782719455463 140.8140495867761 71.51239669421622 Z" stroke-opacity="1" stroke-linecap="round" stroke-linejoin="round" stroke-miterlimit="10"/><text fill="rgb(0,0,255)" stroke="none" font-family="geogebra-sans-serif, sans-serif" font-size="16px" font-style="normal" font-weight="normal" text-decoration="normal" x="128" y="60" text-anchor="start" dominant-baseline="alphabetic" fill-opacity="1">O</text><text fill="none" stroke="rgb(255,255,255)" font-family="geogebra-sans-serif, sans-serif" font-size="16px" font-style="normal" font-weight="normal" text-decoration="normal" x="128" y="60" text-anchor="start" dominant-baseline="alphabetic" stroke-opacity="1" stroke-linejoin="bevel" stroke-miterlimit="10" stroke-width="3">O</text><text fill="rgb(0,0,255)" stroke="none" font-family="geogebra-sans-serif, sans-serif" font-size="16px" font-style="normal" font-weight="normal" text-decoration="normal" x="128" y="60" text-anchor="start" dominant-baseline="alphabetic" fill-opacity="1">O</text><path fill="rgb(0,0,255)" stroke="none" paint-order="stroke fill markers" d=" M 34.99999999999997 103.00000000000145 C 34.99999999999997 104.10456949966303 34.10456949966156 105.00000000000145 32.99999999999997 105.00000000000145 C 31.895430500338385 105.00000000000145 30.99999999999997 104.10456949966303 30.99999999999997 103.00000000000145 C 30.99999999999997 101.89543050033986 31.895430500338385 101.00000000000145 32.99999999999997 101.00000000000145 C 34.10456949966156 101.00000000000145 34.99999999999997 101.89543050033986 34.99999999999997 103.00000000000145 Z" fill-opacity="1"/><path fill="none" stroke="rgb(0,0,0)" paint-order="fill stroke markers" d=" M 34.99999999999997 103.00000000000145 C 34.99999999999997 104.10456949966303 34.10456949966156 105.00000000000145 32.99999999999997 105.00000000000145 C 31.895430500338385 105.00000000000145 30.99999999999997 104.10456949966303 30.99999999999997 103.00000000000145 C 30.99999999999997 101.89543050033986 31.895430500338385 101.00000000000145 32.99999999999997 101.00000000000145 C 34.10456949966156 101.00000000000145 34.99999999999997 101.89543050033986 34.99999999999997 103.00000000000145 Z" stroke-opacity="1" stroke-linecap="round" stroke-linejoin="round" stroke-miterlimit="10"/><text fill="rgb(0,0,255)" stroke="none" font-family="geogebra-sans-serif, sans-serif" font-size="16px" font-style="normal" font-weight="normal" text-decoration="normal" x="14" y="100" text-anchor="start" dominant-baseline="alphabetic" fill-opacity="1">B</text><text fill="none" stroke="rgb(255,255,255)" font-family="geogebra-sans-serif, sans-serif" font-size="16px" font-style="normal" font-weight="normal" text-decoration="normal" x="14" y="100" text-anchor="start" dominant-baseline="alphabetic" stroke-opacity="1" stroke-linejoin="bevel" stroke-miterlimit="10" stroke-width="3">B</text><text fill="rgb(0,0,255)" stroke="none" font-family="geogebra-sans-serif, sans-serif" font-size="16px" font-style="normal" font-weight="normal" text-decoration="normal" x="14" y="100" text-anchor="start" dominant-baseline="alphabetic" fill-opacity="1">B</text><path fill="rgb(0,0,255)" stroke="none" paint-order="stroke fill markers" d=" M 156.9999999999996 151.00000000000074 C 156.9999999999996 152.10456949966232 156.10456949966118 153.00000000000074 154.9999999999996 153.00000000000074 C 153.89543050033802 153.00000000000074 152.9999999999996 152.10456949966232 152.9999999999996 151.00000000000074 C 152.9999999999996 149.89543050033916 153.89543050033802 149.00000000000074 154.9999999999996 149.00000000000074 C 156.10456949966118 149.00000000000074 156.9999999999996 149.89543050033916 156.9999999999996 151.00000000000074 Z" fill-opacity="1"/><path fill="none" stroke="rgb(0,0,0)" paint-order="fill stroke markers" d=" M 156.9999999999996 151.00000000000074 C 156.9999999999996 152.10456949966232 156.10456949966118 153.00000000000074 154.9999999999996 153.00000000000074 C 153.89543050033802 153.00000000000074 152.9999999999996 152.10456949966232 152.9999999999996 151.00000000000074 C 152.9999999999996 149.89543050033916 153.89543050033802 149.00000000000074 154.9999999999996 149.00000000000074 C 156.10456949966118 149.00000000000074 156.9999999999996 149.89543050033916 156.9999999999996 151.00000000000074 Z" stroke-opacity="1" stroke-linecap="round" stroke-linejoin="round" stroke-miterlimit="10"/><text fill="rgb(0,0,255)" stroke="none" font-family="geogebra-sans-serif, sans-serif" font-size="16px" font-style="normal" font-weight="normal" text-decoration="normal" x="159" y="145" text-anchor="start" dominant-baseline="alphabetic" fill-opacity="1">B</text><text fill="none" stroke="rgb(255,255,255)" font-family="geogebra-sans-serif, sans-serif" font-size="16px" font-style="normal" font-weight="normal" text-decoration="normal" x="159" y="145" text-anchor="start" dominant-baseline="alphabetic" stroke-opacity="1" stroke-linejoin="bevel" stroke-miterlimit="10" stroke-width="3">B</text><text fill="rgb(0,0,255)" stroke="none" font-family="geogebra-sans-serif, sans-serif" font-size="16px" font-style="normal" font-weight="normal" text-decoration="normal" x="159" y="145" text-anchor="start" dominant-baseline="alphabetic" fill-opacity="1">B</text><text fill="rgb(0,0,255)" stroke="none" font-family="geogebra-sans-serif, sans-serif" font-size="14px" font-style="normal" font-weight="normal" text-decoration="normal" x="170" y="152" text-anchor="start" dominant-baseline="alphabetic" fill-opacity="1">1</text><text fill="none" stroke="rgb(255,255,255)" font-family="geogebra-sans-serif, sans-serif" font-size="14px" font-style="normal" font-weight="normal" text-decoration="normal" x="170" y="152" text-anchor="start" dominant-baseline="alphabetic" stroke-opacity="1" stroke-linejoin="bevel" stroke-miterlimit="10" stroke-width="3">1</text><text fill="rgb(0,0,255)" stroke="none" font-family="geogebra-sans-serif, sans-serif" font-size="14px" font-style="normal" font-weight="normal" text-decoration="normal" x="170" y="152" text-anchor="start" dominant-baseline="alphabetic" fill-opacity="1">1</text><path fill="rgb(0,0,255)" stroke="none" paint-order="stroke fill markers" d=" M 190.9999999999995 189.00000000000014 C 190.9999999999995 190.10456949966172 190.10456949966107 191.00000000000014 188.9999999999995 191.00000000000014 C 187.8954305003379 191.00000000000014 186.9999999999995 190.10456949966172 186.9999999999995 189.00000000000014 C 186.9999999999995 187.89543050033856 187.8954305003379 187.00000000000014 188.9999999999995 187.00000000000014 C 190.10456949966107 187.00000000000014 190.9999999999995 187.89543050033856 190.9999999999995 189.00000000000014 Z" fill-opacity="1"/><path fill="none" stroke="rgb(0,0,0)" paint-order="fill stroke markers" d=" M 190.9999999999995 189.00000000000014 C 190.9999999999995 190.10456949966172 190.10456949966107 191.00000000000014 188.9999999999995 191.00000000000014 C 187.8954305003379 191.00000000000014 186.9999999999995 190.10456949966172 186.9999999999995 189.00000000000014 C 186.9999999999995 187.89543050033856 187.8954305003379 187.00000000000014 188.9999999999995 187.00000000000014 C 190.10456949966107 187.00000000000014 190.9999999999995 187.89543050033856 190.9999999999995 189.00000000000014 Z" stroke-opacity="1" stroke-linecap="round" stroke-linejoin="round" stroke-miterlimit="10"/><text fill="rgb(0,0,255)" stroke="none" font-family="geogebra-sans-serif, sans-serif" font-size="16px" font-style="normal" font-weight="normal" text-decoration="normal" x="183" y="214" text-anchor="start" dominant-baseline="alphabetic" fill-opacity="1">B</text><text fill="none" stroke="rgb(255,255,255)" font-family="geogebra-sans-serif, sans-serif" font-size="16px" font-style="normal" font-weight="normal" text-decoration="normal" x="183" y="214" text-anchor="start" dominant-baseline="alphabetic" stroke-opacity="1" stroke-linejoin="bevel" stroke-miterlimit="10" stroke-width="3">B</text><text fill="rgb(0,0,255)" stroke="none" font-family="geogebra-sans-serif, sans-serif" font-size="16px" font-style="normal" font-weight="normal" text-decoration="normal" x="183" y="214" text-anchor="start" dominant-baseline="alphabetic" fill-opacity="1">B</text><text fill="rgb(0,0,255)" stroke="none" font-family="geogebra-sans-serif, sans-serif" font-size="14px" font-style="normal" font-weight="normal" text-decoration="normal" x="194" y="221" text-anchor="start" dominant-baseline="alphabetic" fill-opacity="1">2</text><text fill="none" stroke="rgb(255,255,255)" font-family="geogebra-sans-serif, sans-serif" font-size="14px" font-style="normal" font-weight="normal" text-decoration="normal" x="194" y="221" text-anchor="start" dominant-baseline="alphabetic" stroke-opacity="1" stroke-linejoin="bevel" stroke-miterlimit="10" stroke-width="3">2</text><text fill="rgb(0,0,255)" stroke="none" font-family="geogebra-sans-serif, sans-serif" font-size="14px" font-style="normal" font-weight="normal" text-decoration="normal" x="194" y="221" text-anchor="start" dominant-baseline="alphabetic" fill-opacity="1">2</text><path fill="rgb(0,0,255)" stroke="none" paint-order="stroke fill markers" d=" M 246.62809917355222 40.02479338843099 C 246.62809917355222 41.12936288809258 245.7326686732138 42.02479338843099 244.62809917355222 42.02479338843099 C 243.52352967389064 42.02479338843099 242.62809917355222 41.12936288809258 242.62809917355222 40.02479338843099 C 242.62809917355222 38.92022388876941 243.52352967389064 38.02479338843099 244.62809917355222 38.02479338843099 C 245.7326686732138 38.02479338843099 246.62809917355222 38.92022388876941 246.62809917355222 40.02479338843099 Z" fill-opacity="1"/><path fill="none" stroke="rgb(0,0,0)" paint-order="fill stroke markers" d=" M 246.62809917355222 40.02479338843099 C 246.62809917355222 41.12936288809258 245.7326686732138 42.02479338843099 244.62809917355222 42.02479338843099 C 243.52352967389064 42.02479338843099 242.62809917355222 41.12936288809258 242.62809917355222 40.02479338843099 C 242.62809917355222 38.92022388876941 243.52352967389064 38.02479338843099 244.62809917355222 38.02479338843099 C 245.7326686732138 38.02479338843099 246.62809917355222 38.92022388876941 246.62809917355222 40.02479338843099 Z" stroke-opacity="1" stroke-linecap="round" stroke-linejoin="round" stroke-miterlimit="10"/><text fill="rgb(0,0,255)" stroke="none" font-family="geogebra-sans-serif, sans-serif" font-size="16px" font-style="normal" font-weight="normal" text-decoration="normal" x="248" y="31" text-anchor="start" dominant-baseline="alphabetic" fill-opacity="1">B</text><text fill="none" stroke="rgb(255,255,255)" font-family="geogebra-sans-serif, sans-serif" font-size="16px" font-style="normal" font-weight="normal" text-decoration="normal" x="248" y="31" text-anchor="start" dominant-baseline="alphabetic" stroke-opacity="1" stroke-linejoin="bevel" stroke-miterlimit="10" stroke-width="3">B</text><text fill="rgb(0,0,255)" stroke="none" font-family="geogebra-sans-serif, sans-serif" font-size="16px" font-style="normal" font-weight="normal" text-decoration="normal" x="248" y="31" text-anchor="start" dominant-baseline="alphabetic" fill-opacity="1">B</text><text fill="rgb(0,0,255)" stroke="none" font-family="geogebra-sans-serif, sans-serif" font-size="14px" font-style="normal" font-weight="normal" text-decoration="normal" x="259" y="38" text-anchor="start" dominant-baseline="alphabetic" fill-opacity="1">n</text><text fill="none" stroke="rgb(255,255,255)" font-family="geogebra-sans-serif, sans-serif" font-size="14px" font-style="normal" font-weight="normal" text-decoration="normal" x="259" y="38" text-anchor="start" dominant-baseline="alphabetic" stroke-opacity="1" stroke-linejoin="bevel" stroke-miterlimit="10" stroke-width="3">n</text><text fill="rgb(0,0,255)" stroke="none" font-family="geogebra-sans-serif, sans-serif" font-size="14px" font-style="normal" font-weight="normal" text-decoration="normal" x="259" y="38" text-anchor="start" dominant-baseline="alphabetic" fill-opacity="1">n</text></g></g></svg>