<svg version="1.1" xmlns="http://www.w3.org/2000/svg" xmlns:xlink="http://www.w3.org/1999/xlink" width="355" height="206"><defs><clipPath id="nMqPkoiywwGL"><path fill="none" stroke="none" d=" M 0 0 L 355 0 L 355 206 L 0 206 L 0 0 Z"/></clipPath></defs><g transform="scale(1,1)" clip-path="url(#nMqPkoiywwGL)"><g><rect fill="rgb(255,255,255)" stroke="none" x="0" y="0" width="355" height="206" fill-opacity="1"/><path fill="none" stroke="rgb(0,100,0)" paint-order="fill stroke markers" d=" M 130.60263340389886 143.6241279777137 L 127.75658350974733 152.16227766016831" stroke-opacity="0.6980392156862745" stroke-linecap="round" stroke-linejoin="round" stroke-miterlimit="10"/><path fill="none" stroke="rgb(0,100,0)" paint-order="fill stroke markers" d=" M 133.92302494707567 144.73092515877264 L 131.07697505292415 153.26907484122725" stroke-opacity="0.6980392156862745" stroke-linecap="round" stroke-linejoin="round" stroke-miterlimit="10"/><path fill="none" stroke="rgb(0,100,0)" paint-order="fill stroke markers" d=" M 137.24341649025249 145.83772233983157 L 134.39736659610097 154.3758720222862" stroke-opacity="0.6980392156862745" stroke-linecap="round" stroke-linejoin="round" stroke-miterlimit="10"/><path fill="none" stroke="rgb(0,100,0)" paint-order="fill stroke markers" d=" M 57.499999999999986 123.99999999999994 L 207.49999999999983 173.99999999999994" stroke-opacity="0.6980392156862745" stroke-linecap="round" stroke-linejoin="round" stroke-miterlimit="10"/><path fill="none" stroke="rgb(0,100,0)" paint-order="fill stroke markers" d=" M 237.24341649025237 52.16227766016834 L 234.39736659610085 43.62412797771373" stroke-opacity="0.6980392156862745" stroke-linecap="round" stroke-linejoin="round" stroke-miterlimit="10"/><path fill="none" stroke="rgb(0,100,0)" paint-order="fill stroke markers" d=" M 233.92302494707556 53.26907484122728 L 231.07697505292404 44.73092515877266" stroke-opacity="0.6980392156862745" stroke-linecap="round" stroke-linejoin="round" stroke-miterlimit="10"/><path fill="none" stroke="rgb(0,100,0)" paint-order="fill stroke markers" d=" M 230.60263340389875 54.37587202228622 L 227.75658350974723 45.8377223398316" stroke-opacity="0.6980392156862745" stroke-linecap="round" stroke-linejoin="round" stroke-miterlimit="10"/><path fill="none" stroke="rgb(0,100,0)" paint-order="fill stroke markers" d=" M 307.4999999999997 23.99999999999997 L 157.4999999999999 73.99999999999997" stroke-opacity="0.6980392156862745" stroke-linecap="round" stroke-linejoin="round" stroke-miterlimit="10"/><path fill="none" stroke="rgb(102,102,102)" paint-order="fill stroke markers" d=" M 32.500000000000014 115.66666666666661 L 157.4999999999999 73.99999999999997" stroke-opacity="0.6980392156862745" stroke-linejoin="round" stroke-miterlimit="10" stroke-dasharray="9,8"/><path fill="none" stroke="rgb(102,102,102)" paint-order="fill stroke markers" d=" M 32.500000000000014 115.66666666666661 L 57.499999999999986 123.99999999999994" stroke-opacity="0.6980392156862745" stroke-linejoin="round" stroke-miterlimit="10" stroke-dasharray="9,8"/><g transform="scale(19,19)"><g transform="translate(8.578947368421053,7.115052631578948)"><path fill="rgb(255,85,0)" stroke="none" paint-order="stroke fill markers" d=" M 0.016 -0.099 L 0.016 -0.099 L 0.093 -0.17200000000000001 Q 0.093 -0.338 0.17200000000000001 -0.517 Q 0.223 -0.634 0.28300000000000003 -0.682 Q 0.312 -0.705 0.339 -0.705 Q 0.398 -0.705 0.398 -0.627 Q 0.398 -0.47300000000000003 0.226 -0.277 Q 0.201 -0.248 0.17500000000000002 -0.222 Q 0.159 -0.20600000000000002 0.153 -0.197 Q 0.148 -0.189 0.148 -0.14 Q 0.148 -0.01 0.209 -0.01 Q 0.26 -0.01 0.339 -0.088 Q 0.34900000000000003 -0.097 0.352 -0.097 Q 0.362 -0.097 0.364 -0.085 Q 0.364 -0.073 0.31 -0.031 L 0.31 -0.031 Q 0.306 -0.028 0.303 -0.026000000000000002 Q 0.25 0.012 0.20700000000000002 0.012 Q 0.114 0.012 0.095 -0.14100000000000001 Q 0.075 -0.121 0.059000000000000004 -0.107 Q 0.028 -0.076 0.023 -0.076 Q 0.015 -0.076 0.011 -0.089 Q 0.011 -0.092 0.016 -0.099 M 0.158 -0.23900000000000002 Q 0.374 -0.464 0.374 -0.631 Q 0.374 -0.683 0.34 -0.683 Q 0.31 -0.683 0.279 -0.626 L 0.278 -0.625 L 0.26 -0.589 Q 0.20400000000000001 -0.47400000000000003 0.159 -0.244 L 0.159 -0.243 Q 0.158 -0.24 0.158 -0.23900000000000002 Z"/></g></g><path fill="none" stroke="rgb(255,85,0)" paint-order="fill stroke markers" d=" M 32.500000000000014 115.66666666666661 L 278.9999999999997 115.66666666666661" stroke-opacity="0.6980392156862745" stroke-linecap="round" stroke-linejoin="round" stroke-miterlimit="10"/><path fill="none" stroke="rgb(255,85,0)" paint-order="fill stroke markers" d=" M 107.49999999999993 98.99999999999994 L 257.4999999999998 98.99999999999994" stroke-opacity="0.6980392156862745" stroke-linecap="round" stroke-linejoin="round" stroke-miterlimit="10"/><path fill="none" stroke="rgb(0,100,0)" paint-order="fill stroke markers" d=" M 134.51246117974972 90.52492235949958 L 130.4875388202501 82.47507764050033" stroke-opacity="0.6980392156862745" stroke-linecap="round" stroke-linejoin="round" stroke-miterlimit="10"/><path fill="none" stroke="rgb(0,100,0)" paint-order="fill stroke markers" d=" M 157.4999999999999 73.99999999999997 L 107.49999999999993 98.99999999999994" stroke-opacity="0.6980392156862745" stroke-linecap="round" stroke-linejoin="round" stroke-miterlimit="10"/><path fill="none" stroke="rgb(0,100,0)" paint-order="fill stroke markers" d=" M 84.51246117974976 115.52492235949957 L 80.48753882025015 107.47507764050032" stroke-opacity="0.6980392156862745" stroke-linecap="round" stroke-linejoin="round" stroke-miterlimit="10"/><path fill="none" stroke="rgb(0,100,0)" paint-order="fill stroke markers" d=" M 107.49999999999993 98.99999999999994 L 57.499999999999986 123.99999999999994" stroke-opacity="0.6980392156862745" stroke-linecap="round" stroke-linejoin="round" stroke-miterlimit="10"/><path fill="none" stroke="rgb(0,100,0)" paint-order="fill stroke markers" d=" M 287.21495166791425 62.54006286792226 L 279.72649901887365 57.547761101895205" stroke-opacity="0.6980392156862745" stroke-linecap="round" stroke-linejoin="round" stroke-miterlimit="10"/><path fill="none" stroke="rgb(0,100,0)" paint-order="fill stroke markers" d=" M 285.2735009811259 65.45223889810471 L 277.7850483320853 60.459937132077656" stroke-opacity="0.6980392156862745" stroke-linecap="round" stroke-linejoin="round" stroke-miterlimit="10"/><path fill="none" stroke="rgb(0,100,0)" paint-order="fill stroke markers" d=" M 307.4999999999997 23.99999999999997 L 257.4999999999998 98.99999999999994" stroke-opacity="0.6980392156862745" stroke-linecap="round" stroke-linejoin="round" stroke-miterlimit="10"/><path fill="none" stroke="rgb(0,100,0)" paint-order="fill stroke markers" d=" M 237.21495166791425 137.54006286792225 L 229.72649901887365 132.54776110189516" stroke-opacity="0.6980392156862745" stroke-linecap="round" stroke-linejoin="round" stroke-miterlimit="10"/><path fill="none" stroke="rgb(0,100,0)" paint-order="fill stroke markers" d=" M 235.27350098112595 140.45223889810472 L 227.78504833208535 135.45993713207764" stroke-opacity="0.6980392156862745" stroke-linecap="round" stroke-linejoin="round" stroke-miterlimit="10"/><path fill="none" stroke="rgb(0,100,0)" paint-order="fill stroke markers" d=" M 257.4999999999998 98.99999999999994 L 207.49999999999983 173.99999999999994" stroke-opacity="0.6980392156862745" stroke-linecap="round" stroke-linejoin="round" stroke-miterlimit="10"/><path fill="rgb(0,0,255)" stroke="none" paint-order="stroke fill markers" d=" M 59.499999999999986 123.99999999999994 C 59.499999999999986 125.10456949966152 58.60456949966157 125.99999999999994 57.499999999999986 125.99999999999994 C 56.3954305003384 125.99999999999994 55.499999999999986 125.10456949966152 55.499999999999986 123.99999999999994 C 55.499999999999986 122.89543050033835 56.3954305003384 121.99999999999994 57.499999999999986 121.99999999999994 C 58.60456949966157 121.99999999999994 59.499999999999986 122.89543050033835 59.499999999999986 123.99999999999994 Z" fill-opacity="1"/><path fill="none" stroke="rgb(0,0,0)" paint-order="fill stroke markers" d=" M 59.499999999999986 123.99999999999994 C 59.499999999999986 125.10456949966152 58.60456949966157 125.99999999999994 57.499999999999986 125.99999999999994 C 56.3954305003384 125.99999999999994 55.499999999999986 125.10456949966152 55.499999999999986 123.99999999999994 C 55.499999999999986 122.89543050033835 56.3954305003384 121.99999999999994 57.499999999999986 121.99999999999994 C 58.60456949966157 121.99999999999994 59.499999999999986 122.89543050033835 59.499999999999986 123.99999999999994 Z" stroke-opacity="1" stroke-linecap="round" stroke-linejoin="round" stroke-miterlimit="10"/><text fill="rgb(0,0,255)" stroke="none" font-family="geogebra-sans-serif, sans-serif" font-size="16px" font-style="normal" font-weight="normal" text-decoration="normal" x="47" y="148" text-anchor="start" dominant-baseline="alphabetic" fill-opacity="1">A</text><text fill="none" stroke="rgb(255,255,255)" font-family="geogebra-sans-serif, sans-serif" font-size="16px" font-style="normal" font-weight="normal" text-decoration="normal" x="47" y="148" text-anchor="start" dominant-baseline="alphabetic" stroke-opacity="1" stroke-linejoin="bevel" stroke-miterlimit="10" stroke-width="3">A</text><text fill="rgb(0,0,255)" stroke="none" font-family="geogebra-sans-serif, sans-serif" font-size="16px" font-style="normal" font-weight="normal" text-decoration="normal" x="47" y="148" text-anchor="start" dominant-baseline="alphabetic" fill-opacity="1">A</text><path fill="rgb(0,0,255)" stroke="none" paint-order="stroke fill markers" d=" M 159.4999999999999 73.99999999999997 C 159.4999999999999 75.10456949966155 158.60456949966147 75.99999999999997 157.4999999999999 75.99999999999997 C 156.3954305003383 75.99999999999997 155.4999999999999 75.10456949966155 155.4999999999999 73.99999999999997 C 155.4999999999999 72.89543050033838 156.3954305003383 71.99999999999997 157.4999999999999 71.99999999999997 C 158.60456949966147 71.99999999999997 159.4999999999999 72.89543050033838 159.4999999999999 73.99999999999997 Z" fill-opacity="1"/><path fill="none" stroke="rgb(0,0,0)" paint-order="fill stroke markers" d=" M 159.4999999999999 73.99999999999997 C 159.4999999999999 75.10456949966155 158.60456949966147 75.99999999999997 157.4999999999999 75.99999999999997 C 156.3954305003383 75.99999999999997 155.4999999999999 75.10456949966155 155.4999999999999 73.99999999999997 C 155.4999999999999 72.89543050033838 156.3954305003383 71.99999999999997 157.4999999999999 71.99999999999997 C 158.60456949966147 71.99999999999997 159.4999999999999 72.89543050033838 159.4999999999999 73.99999999999997 Z" stroke-opacity="1" stroke-linecap="round" stroke-linejoin="round" stroke-miterlimit="10"/><text fill="rgb(0,0,255)" stroke="none" font-family="geogebra-sans-serif, sans-serif" font-size="16px" font-style="normal" font-weight="normal" text-decoration="normal" x="138" y="61" text-anchor="start" dominant-baseline="alphabetic" fill-opacity="1">B</text><text fill="none" stroke="rgb(255,255,255)" font-family="geogebra-sans-serif, sans-serif" font-size="16px" font-style="normal" font-weight="normal" text-decoration="normal" x="138" y="61" text-anchor="start" dominant-baseline="alphabetic" stroke-opacity="1" stroke-linejoin="bevel" stroke-miterlimit="10" stroke-width="3">B</text><text fill="rgb(0,0,255)" stroke="none" font-family="geogebra-sans-serif, sans-serif" font-size="16px" font-style="normal" font-weight="normal" text-decoration="normal" x="138" y="61" text-anchor="start" dominant-baseline="alphabetic" fill-opacity="1">B</text><path fill="rgb(0,0,255)" stroke="none" paint-order="stroke fill markers" d=" M 309.4999999999997 23.99999999999997 C 309.4999999999997 25.104569499661558 308.6045694996613 25.99999999999997 307.4999999999997 25.99999999999997 C 306.39543050033814 25.99999999999997 305.4999999999997 25.104569499661558 305.4999999999997 23.99999999999997 C 305.4999999999997 22.895430500338385 306.39543050033814 21.99999999999997 307.4999999999997 21.99999999999997 C 308.6045694996613 21.99999999999997 309.4999999999997 22.895430500338385 309.4999999999997 23.99999999999997 Z" fill-opacity="1"/><path fill="none" stroke="rgb(0,0,0)" paint-order="fill stroke markers" d=" M 309.4999999999997 23.99999999999997 C 309.4999999999997 25.104569499661558 308.6045694996613 25.99999999999997 307.4999999999997 25.99999999999997 C 306.39543050033814 25.99999999999997 305.4999999999997 25.104569499661558 305.4999999999997 23.99999999999997 C 305.4999999999997 22.895430500338385 306.39543050033814 21.99999999999997 307.4999999999997 21.99999999999997 C 308.6045694996613 21.99999999999997 309.4999999999997 22.895430500338385 309.4999999999997 23.99999999999997 Z" stroke-opacity="1" stroke-linecap="round" stroke-linejoin="round" stroke-miterlimit="10"/><text fill="rgb(0,0,255)" stroke="none" font-family="geogebra-sans-serif, sans-serif" font-size="16px" font-style="normal" font-weight="normal" text-decoration="normal" x="312" y="24" text-anchor="start" dominant-baseline="alphabetic" fill-opacity="1">C</text><text fill="none" stroke="rgb(255,255,255)" font-family="geogebra-sans-serif, sans-serif" font-size="16px" font-style="normal" font-weight="normal" text-decoration="normal" x="312" y="24" text-anchor="start" dominant-baseline="alphabetic" stroke-opacity="1" stroke-linejoin="bevel" stroke-miterlimit="10" stroke-width="3">C</text><text fill="rgb(0,0,255)" stroke="none" font-family="geogebra-sans-serif, sans-serif" font-size="16px" font-style="normal" font-weight="normal" text-decoration="normal" x="312" y="24" text-anchor="start" dominant-baseline="alphabetic" fill-opacity="1">C</text><path fill="rgb(0,0,255)" stroke="none" paint-order="stroke fill markers" d=" M 209.49999999999983 173.99999999999994 C 209.49999999999983 175.10456949966152 208.6045694996614 175.99999999999994 207.49999999999983 175.99999999999994 C 206.39543050033825 175.99999999999994 205.49999999999983 175.10456949966152 205.49999999999983 173.99999999999994 C 205.49999999999983 172.89543050033836 206.39543050033825 171.99999999999994 207.49999999999983 171.99999999999994 C 208.6045694996614 171.99999999999994 209.49999999999983 172.89543050033836 209.49999999999983 173.99999999999994 Z" fill-opacity="1"/><path fill="none" stroke="rgb(0,0,0)" paint-order="fill stroke markers" d=" M 209.49999999999983 173.99999999999994 C 209.49999999999983 175.10456949966152 208.6045694996614 175.99999999999994 207.49999999999983 175.99999999999994 C 206.39543050033825 175.99999999999994 205.49999999999983 175.10456949966152 205.49999999999983 173.99999999999994 C 205.49999999999983 172.89543050033836 206.39543050033825 171.99999999999994 207.49999999999983 171.99999999999994 C 208.6045694996614 171.99999999999994 209.49999999999983 172.89543050033836 209.49999999999983 173.99999999999994 Z" stroke-opacity="1" stroke-linecap="round" stroke-linejoin="round" stroke-miterlimit="10"/><text fill="rgb(0,0,255)" stroke="none" font-family="geogebra-sans-serif, sans-serif" font-size="16px" font-style="normal" font-weight="normal" text-decoration="normal" x="213" y="195" text-anchor="start" dominant-baseline="alphabetic" fill-opacity="1">D</text><text fill="none" stroke="rgb(255,255,255)" font-family="geogebra-sans-serif, sans-serif" font-size="16px" font-style="normal" font-weight="normal" text-decoration="normal" x="213" y="195" text-anchor="start" dominant-baseline="alphabetic" stroke-opacity="1" stroke-linejoin="bevel" stroke-miterlimit="10" stroke-width="3">D</text><text fill="rgb(0,0,255)" stroke="none" font-family="geogebra-sans-serif, sans-serif" font-size="16px" font-style="normal" font-weight="normal" text-decoration="normal" x="213" y="195" text-anchor="start" dominant-baseline="alphabetic" fill-opacity="1">D</text><path fill="rgb(0,0,255)" stroke="none" paint-order="stroke fill markers" d=" M 109.49999999999993 98.99999999999994 C 109.49999999999993 100.10456949966152 108.60456949966152 100.99999999999994 107.49999999999993 100.99999999999994 C 106.39543050033834 100.99999999999994 105.49999999999993 100.10456949966152 105.49999999999993 98.99999999999994 C 105.49999999999993 97.89543050033835 106.39543050033834 96.99999999999994 107.49999999999993 96.99999999999994 C 108.60456949966152 96.99999999999994 109.49999999999993 97.89543050033835 109.49999999999993 98.99999999999994 Z" fill-opacity="1"/><path fill="none" stroke="rgb(0,0,0)" paint-order="fill stroke markers" d=" M 109.49999999999993 98.99999999999994 C 109.49999999999993 100.10456949966152 108.60456949966152 100.99999999999994 107.49999999999993 100.99999999999994 C 106.39543050033834 100.99999999999994 105.49999999999993 100.10456949966152 105.49999999999993 98.99999999999994 C 105.49999999999993 97.89543050033835 106.39543050033834 96.99999999999994 107.49999999999993 96.99999999999994 C 108.60456949966152 96.99999999999994 109.49999999999993 97.89543050033835 109.49999999999993 98.99999999999994 Z" stroke-opacity="1" stroke-linecap="round" stroke-linejoin="round" stroke-miterlimit="10"/><text fill="rgb(0,0,255)" stroke="none" font-family="geogebra-sans-serif, sans-serif" font-size="16px" font-style="normal" font-weight="normal" text-decoration="normal" x="89" y="84" text-anchor="start" dominant-baseline="alphabetic" fill-opacity="1">M</text><text fill="none" stroke="rgb(255,255,255)" font-family="geogebra-sans-serif, sans-serif" font-size="16px" font-style="normal" font-weight="normal" text-decoration="normal" x="89" y="84" text-anchor="start" dominant-baseline="alphabetic" stroke-opacity="1" stroke-linejoin="bevel" stroke-miterlimit="10" stroke-width="3">M</text><text fill="rgb(0,0,255)" stroke="none" font-family="geogebra-sans-serif, sans-serif" font-size="16px" font-style="normal" font-weight="normal" text-decoration="normal" x="89" y="84" text-anchor="start" dominant-baseline="alphabetic" fill-opacity="1">M</text><path fill="rgb(0,0,255)" stroke="none" paint-order="stroke fill markers" d=" M 259.4999999999998 98.99999999999994 C 259.4999999999998 100.10456949966152 258.60456949966135 100.99999999999994 257.4999999999998 100.99999999999994 C 256.3954305003382 100.99999999999994 255.49999999999977 100.10456949966152 255.49999999999977 98.99999999999994 C 255.49999999999977 97.89543050033835 256.3954305003382 96.99999999999994 257.4999999999998 96.99999999999994 C 258.60456949966135 96.99999999999994 259.4999999999998 97.89543050033835 259.4999999999998 98.99999999999994 Z" fill-opacity="1"/><path fill="none" stroke="rgb(0,0,0)" paint-order="fill stroke markers" d=" M 259.4999999999998 98.99999999999994 C 259.4999999999998 100.10456949966152 258.60456949966135 100.99999999999994 257.4999999999998 100.99999999999994 C 256.3954305003382 100.99999999999994 255.49999999999977 100.10456949966152 255.49999999999977 98.99999999999994 C 255.49999999999977 97.89543050033835 256.3954305003382 96.99999999999994 257.4999999999998 96.99999999999994 C 258.60456949966135 96.99999999999994 259.4999999999998 97.89543050033835 259.4999999999998 98.99999999999994 Z" stroke-opacity="1" stroke-linecap="round" stroke-linejoin="round" stroke-miterlimit="10"/><text fill="rgb(0,0,255)" stroke="none" font-family="geogebra-sans-serif, sans-serif" font-size="16px" font-style="normal" font-weight="normal" text-decoration="normal" x="271" y="103" text-anchor="start" dominant-baseline="alphabetic" fill-opacity="1">N</text><text fill="none" stroke="rgb(255,255,255)" font-family="geogebra-sans-serif, sans-serif" font-size="16px" font-style="normal" font-weight="normal" text-decoration="normal" x="271" y="103" text-anchor="start" dominant-baseline="alphabetic" stroke-opacity="1" stroke-linejoin="bevel" stroke-miterlimit="10" stroke-width="3">N</text><text fill="rgb(0,0,255)" stroke="none" font-family="geogebra-sans-serif, sans-serif" font-size="16px" font-style="normal" font-weight="normal" text-decoration="normal" x="271" y="103" text-anchor="start" dominant-baseline="alphabetic" fill-opacity="1">N</text><path fill="rgb(0,0,255)" stroke="none" paint-order="stroke fill markers" d=" M 34.500000000000014 115.66666666666661 C 34.500000000000014 116.77123616632821 33.6045694996616 117.66666666666661 32.500000000000014 117.66666666666661 C 31.395430500338428 117.66666666666661 30.500000000000014 116.77123616632821 30.500000000000014 115.66666666666661 C 30.500000000000014 114.56209716700502 31.395430500338428 113.66666666666661 32.500000000000014 113.66666666666661 C 33.6045694996616 113.66666666666661 34.500000000000014 114.56209716700502 34.500000000000014 115.66666666666661 Z" fill-opacity="1"/><path fill="none" stroke="rgb(0,0,0)" paint-order="fill stroke markers" d=" M 34.500000000000014 115.66666666666661 C 34.500000000000014 116.77123616632821 33.6045694996616 117.66666666666661 32.500000000000014 117.66666666666661 C 31.395430500338428 117.66666666666661 30.500000000000014 116.77123616632821 30.500000000000014 115.66666666666661 C 30.500000000000014 114.56209716700502 31.395430500338428 113.66666666666661 32.500000000000014 113.66666666666661 C 33.6045694996616 113.66666666666661 34.500000000000014 114.56209716700502 34.500000000000014 115.66666666666661 Z" stroke-opacity="1" stroke-linecap="round" stroke-linejoin="round" stroke-miterlimit="10"/><text fill="rgb(0,0,255)" stroke="none" font-family="geogebra-sans-serif, sans-serif" font-size="16px" font-style="normal" font-weight="normal" text-decoration="normal" x="15" y="119" text-anchor="start" dominant-baseline="alphabetic" fill-opacity="1">E</text><text fill="none" stroke="rgb(255,255,255)" font-family="geogebra-sans-serif, sans-serif" font-size="16px" font-style="normal" font-weight="normal" text-decoration="normal" x="15" y="119" text-anchor="start" dominant-baseline="alphabetic" stroke-opacity="1" stroke-linejoin="bevel" stroke-miterlimit="10" stroke-width="3">E</text><text fill="rgb(0,0,255)" stroke="none" font-family="geogebra-sans-serif, sans-serif" font-size="16px" font-style="normal" font-weight="normal" text-decoration="normal" x="15" y="119" text-anchor="start" dominant-baseline="alphabetic" fill-opacity="1">E</text></g></g></svg>