<svg version="1.1" xmlns="http://www.w3.org/2000/svg" xmlns:xlink="http://www.w3.org/1999/xlink" width="262" height="203"><defs><clipPath id="PKMGVZcDrqNP"><path fill="none" stroke="none" d=" M 0 0 L 262 0 L 262 203 L 0 203 L 0 0 Z"/></clipPath></defs><g transform="scale(1,1)" clip-path="url(#PKMGVZcDrqNP)"><g><rect fill="rgb(255,255,255)" stroke="none" x="0" y="0" width="262" height="203" fill-opacity="1"/><path fill="rgb(255,85,0)" stroke="none" paint-order="stroke fill markers" d=" M 39.74722259486834 43.52312831295239 L 38.84349249609648 43.95123099756649 L 40.98400591916698 48.4698814914258 L 41.88773601793884 48.0417788068117 L 39.74722259486834 43.52312831295239 Z M 43.60014675639524 51.65669920189915 L 42.69641665762338 52.084801886513254 L 44.836930080693875 56.603452380372566 L 45.740660179465735 56.17534969575846 L 43.60014675639524 51.65669920189915 Z M 47.45307091792214 59.790270090845915 L 46.54934081915028 60.21837277546002 L 48.689854242220775 64.73702326931932 L 49.593584340992635 64.30892058470523 L 47.45307091792214 59.790270090845915 Z M 51.30599507944903 67.92384097979269 L 50.402264980677174 68.35194366440678 L 52.542778403747675 72.87059415826609 L 53.446508502519535 72.442491473652 L 51.30599507944903 67.92384097979269 Z M 55.15891924097593 76.05741186873945 L 54.255189142204074 76.48551455335354 L 56.395702565274576 81.00416504721285 L 57.299432664046435 80.57606236259876 L 55.15891924097593 76.05741186873945 Z M 59.011843402502834 84.19098275768621 L 58.108113303730974 84.6190854423003 L 60.248626726801476 89.13773593615961 L 61.152356825573335 88.70963325154553 L 59.011843402502834 84.19098275768621 Z M 62.864767564029734 92.32455364663298 L 61.961037465257874 92.75265633124707 L 64.10155088832838 97.2713068251064 L 65.00528098710024 96.8432041404923 L 62.864767564029734 92.32455364663298 Z M 66.71769172555663 100.45812453557974 L 65.81396162678477 100.88622722019383 L 67.95447504985526 105.40487771405314 L 68.85820514862712 104.97677502943905 L 66.71769172555663 100.45812453557974 Z M 70.57061588708353 108.5916954245265 L 69.66688578831167 109.0197981091406 L 71.80739921138218 113.5384486029999 L 72.71112931015404 113.11034591838582 L 70.57061588708353 108.5916954245265 Z M 74.42354004861042 116.72526631347327 L 73.51980994983856 117.15336899808736 L 75.66032337290906 121.67201949194668 L 76.56405347168092 121.2439168073326 L 74.42354004861042 116.72526631347327 Z M 78.27646421013733 124.85883720242003 L 77.37273411136547 125.28693988703412 L 79.51324753443598 129.80559038089345 L 80.41697763320784 129.37748769627936 L 78.27646421013733 124.85883720242003 Z M 82.12938837166422 132.9924080913668 L 81.22565827289236 133.4205107759809 L 83.36617169596286 137.93916126984018 L 84.26990179473472 137.5110585852261 L 82.12938837166422 132.9924080913668 Z M 85.98231253319113 141.12597898031356 L 85.07858243441927 141.55408166492765 L 87.21909585748976 146.07273215878698 L 88.12282595626162 145.6446294741729 L 85.98231253319113 141.12597898031356 Z M 89.83523669471802 149.25954986926033 L 88.93150659594616 149.68765255387441 L 89.18252069359622 150.2175464401202 L 89.1825206935962 150.2175464401202 L 90.08625079236803 149.7894437555061 L 90.08625079236808 149.7894437555061 L 89.83523669471802 149.25954986926033 Z" fill-opacity="0.6980392156862745"/><path fill="rgb(255,85,0)" stroke="none" paint-order="stroke fill markers" d=" M 91.65579004864917 149.09914565835885 C 91.58322464464682 149.09914565835885 91.51014992497805 149.11493369756025 91.44184594052585 149.14728972858495 L 87.82692554543839 150.85970046704136 C 87.64416319321266 150.94627615345541 87.53154873434995 151.13442042505523 87.54159411478417 151.3364019024265 C 87.55163949521835 151.53838337979778 87.68236644925719 151.7144252690415 87.87281720281086 151.78243951269667 L 90.53648276958278 152.73369434101218 C 90.59205484356134 152.75354037737316 90.64881641093066 152.76295658211492 90.70462769272895 152.76295658211492 C 90.90999234131611 152.76295658211492 91.102490457622 152.63546448293027 91.17551645078676 152.4309800296774 L 92.12677127910229 149.76731446290546 C 92.19478552275743 149.5768637093518 92.14137787998928 149.36419517154064 91.99145225104135 149.228475855842 C 91.89755850012484 149.14347907635744 91.77738936332379 149.09914565835885 91.65579004864917 149.09914565835885 Z" fill-opacity="0.6980392156862745"/><path fill="rgb(255,85,0)" stroke="none" paint-order="stroke fill markers" d=" M 192.2681949368081 129.87767332318003 L 187.38027073402571 130.93038267901102 L 187.5908126051919 131.90796751956748 L 192.4787368079743 130.8552581637365 L 192.2681949368081 129.87767332318003 Z M 183.4699313717998 131.77255016367582 L 178.5820071690174 132.8252595195068 L 178.7925490401836 133.80284436006326 L 183.68047324296597 132.75013500423228 L 183.4699313717998 131.77255016367582 Z M 174.67166780679148 133.6674270041716 L 169.7837436040091 134.72013636000258 L 169.99428547517527 135.69772120055904 L 174.88220967795766 134.64501184472806 L 174.67166780679148 133.6674270041716 Z M 165.87340424178316 135.56230384466735 L 160.9854800390008 136.61501320049834 L 161.196021910167 137.5925980410548 L 166.08394611294935 136.53988868522381 L 165.87340424178316 135.56230384466735 Z M 157.07514067677485 137.45718068516314 L 152.18721647399246 138.50989004099412 L 152.39775834515865 139.48747488155058 L 157.28568254794104 138.4347655257196 L 157.07514067677485 137.45718068516314 Z M 148.27687711176654 139.35205752565892 L 143.38895290898415 140.4047668814899 L 143.59949478015034 141.38235172204637 L 148.48741898293272 140.32964236621538 L 148.27687711176654 139.35205752565892 Z M 139.47861354675825 141.2469343661547 L 134.59068934397587 142.2996437219857 L 134.80123121514205 143.27722856254215 L 139.68915541792444 142.22451920671116 L 139.47861354675825 141.2469343661547 Z M 130.68034998174994 143.1418112066505 L 125.79242577896756 144.19452056248147 L 126.00296765013374 145.17210540303793 L 130.89089185291613 144.11939604720695 L 130.68034998174994 143.1418112066505 Z M 121.88208641674163 145.03668804714624 L 116.99416221395923 146.08939740297726 L 117.20470408512541 147.06698224353372 L 122.09262828790781 146.0142728877027 L 121.88208641674163 145.03668804714624 Z M 113.08382285173332 146.93156488764203 L 108.19589864895093 147.984274243473 L 108.40644052011712 148.96185908402947 L 113.2943647228995 147.90914972819849 L 113.08382285173332 146.93156488764203 Z M 104.285559286725 148.8264417281378 L 99.39763508394262 149.8791510839688 L 99.6081769551088 150.85673592452525 L 104.49610115789119 149.80402656869427 L 104.285559286725 148.8264417281378 Z M 95.4872957217167 150.7213185686336 L 90.5993715189343 151.77402792446458 L 90.80991339010049 152.75161276502104 L 95.69783759288289 151.69890340919005 L 95.4872957217167 150.7213185686336 Z" fill-opacity="0.6980392156862745"/><path fill="rgb(255,85,0)" stroke="none" paint-order="stroke fill markers" d=" M 192.91911937063782 127.70309359598757 C 192.81962639461085 127.70309359598758 192.72023422985404 127.7327332061231 192.63479369817722 127.7917938466931 C 192.46843842955417 127.90678667895018 192.38773358283945 128.11066657250893 192.4303117017586 128.30836465206067 L 193.2724791864234 132.21870401428663 C 193.31505730534255 132.41640209383837 193.4725333583428 132.56898510734987 193.6714765083491 132.60530383440243 C 193.70149396868723 132.61078377150406 193.73156353280504 132.61345398485835 193.76136287463092 132.61345398485835 C 193.92906108470217 132.61345398485835 194.08820144450567 132.52888921447348 194.1813378340856 132.3846237212622 L 195.71542377286616 130.00837029781684 C 195.86519822904816 129.7763741265137 195.798544359344 129.46688788405612 195.56654818804085 129.31711342787418 L 193.1902947645955 127.7830274890936 C 193.10765542822384 127.729676342845 193.01334219235045 127.70309359598757 192.91911937063782 127.70309359598757 Z" fill-opacity="0.6980392156862745"/><path fill="rgb(255,85,0)" stroke="none" paint-order="stroke fill markers" d=" M 181.4439188088406 44.85851540489978 L 180.45792733935778 45.02531115456702 L 181.291906087694 49.95526850198125 L 182.27789755717683 49.78847275231401 L 181.4439188088406 44.85851540489978 Z M 182.9450805558458 53.7324386302454 L 181.95908908636298 53.89923437991264 L 182.7930678346992 58.82919172732687 L 183.77905930418203 58.66239597765963 L 182.9450805558458 53.7324386302454 Z M 184.446242302851 62.606361855591004 L 183.46025083336818 62.77315760525825 L 184.2942295817044 67.70311495267248 L 185.28022105118723 67.53631920300523 L 184.446242302851 62.606361855591004 Z M 185.9474040498562 71.48028508093662 L 184.96141258037338 71.64708083060387 L 185.7953913287096 76.5770381780181 L 186.78138279819242 76.41024242835086 L 185.9474040498562 71.48028508093662 Z M 187.4485657968614 80.35420830628223 L 186.46257432737858 80.52100405594948 L 187.2965530757148 85.45096140336372 L 188.28254454519762 85.28416565369648 L 187.4485657968614 80.35420830628223 Z M 188.94972754386657 89.22813153162785 L 187.96373607438375 89.3949272812951 L 188.79771482271997 94.32488462870933 L 189.7837062922028 94.15808887904208 L 188.94972754386657 89.22813153162785 Z M 190.45088929087177 98.10205475697347 L 189.46489782138894 98.26885050664072 L 190.29887656972517 103.19880785405493 L 191.284868039208 103.03201210438769 L 190.45088929087177 98.10205475697347 Z M 191.95205103787697 106.97597798231908 L 190.96605956839414 107.14277373198632 L 191.80003831673037 112.07273107940055 L 192.7860297862132 111.90593532973331 L 191.95205103787697 106.97597798231908 Z M 193.45321278488217 115.8499012076647 L 192.46722131539934 116.01669695733194 L 193.30120006373556 120.94665430474618 L 194.2871915332184 120.77985855507893 L 193.45321278488217 115.8499012076647 Z M 194.95437453188737 124.72382443301031 L 193.96838306240454 124.89062018267755 L 194.80236181074076 129.82057753009178 L 195.7883532802236 129.65378178042454 L 194.95437453188737 124.72382443301031 Z" fill-opacity="0.6980392156862745"/><path fill="rgb(255,85,0)" stroke="none" paint-order="stroke fill markers" d=" M 180.33316844636428 40.78757386395015 C 180.17674440626217 40.78757386395015 180.02267962633792 40.86076669285375 179.92516979810705 40.99798430887273 L 178.28677835847586 43.30355874717293 C 178.1696341913604 43.46840616444101 178.1633264816412 43.68758758719136 178.27079650448928 43.858899060999136 C 178.36322571665917 44.006234886749354 178.52415916387056 44.09320779450854 178.69424411726288 44.093207794508544 C 178.72192168286276 44.093207794508544 178.74984158369767 44.09090472006074 178.77774806327258 44.08618390621464 L 182.72171394120397 43.419000907545666 C 182.92111210275914 43.38526961587809 183.0805569974122 43.234745169857376 183.12569972030659 43.037616883102714 C 183.17084244320097 42.84048859634805 183.09279290793876 42.63557750995659 182.92794549067065 42.51843334284115 L 180.62237105237045 40.88004190320993 C 180.5344929622402 40.817593817297464 180.43334688039806 40.78757386395015 180.33316844636428 40.78757386395015 Z" fill-opacity="0.6980392156862745"/><path fill="none" stroke="rgb(102,102,102)" paint-order="fill stroke markers" d=" M 39.29535754548241 43.73717965525944 L 180.33274162807015 41.28761373317306" stroke-opacity="0.6980392156862745" stroke-linejoin="round" stroke-miterlimit="10" stroke-dasharray="9,8"/><path fill="rgb(0,0,255)" stroke="none" paint-order="stroke fill markers" d=" M 66.9999999999999 98.00000000000114 C 66.9999999999999 99.10456949966272 66.1045694996615 100.00000000000114 64.9999999999999 100.00000000000114 C 63.895430500338314 100.00000000000114 62.9999999999999 99.10456949966272 62.9999999999999 98.00000000000114 C 62.9999999999999 96.89543050033954 63.895430500338314 96.00000000000114 64.9999999999999 96.00000000000114 C 66.1045694996615 96.00000000000114 66.9999999999999 96.89543050033954 66.9999999999999 98.00000000000114 Z" fill-opacity="1"/><path fill="none" stroke="rgb(0,0,0)" paint-order="fill stroke markers" d=" M 66.9999999999999 98.00000000000114 C 66.9999999999999 99.10456949966272 66.1045694996615 100.00000000000114 64.9999999999999 100.00000000000114 C 63.895430500338314 100.00000000000114 62.9999999999999 99.10456949966272 62.9999999999999 98.00000000000114 C 62.9999999999999 96.89543050033954 63.895430500338314 96.00000000000114 64.9999999999999 96.00000000000114 C 66.1045694996615 96.00000000000114 66.9999999999999 96.89543050033954 66.9999999999999 98.00000000000114 Z" stroke-opacity="1" stroke-linecap="round" stroke-linejoin="round" stroke-miterlimit="10"/><text fill="rgb(0,0,255)" stroke="none" font-family="geogebra-sans-serif, sans-serif" font-size="16px" font-style="normal" font-weight="normal" text-decoration="normal" x="37" y="105" text-anchor="start" dominant-baseline="alphabetic" fill-opacity="1">O</text><text fill="none" stroke="rgb(255,255,255)" font-family="geogebra-sans-serif, sans-serif" font-size="16px" font-style="normal" font-weight="normal" text-decoration="normal" x="37" y="105" text-anchor="start" dominant-baseline="alphabetic" stroke-opacity="1" stroke-linejoin="bevel" stroke-miterlimit="10" stroke-width="3">O</text><text fill="rgb(0,0,255)" stroke="none" font-family="geogebra-sans-serif, sans-serif" font-size="16px" font-style="normal" font-weight="normal" text-decoration="normal" x="37" y="105" text-anchor="start" dominant-baseline="alphabetic" fill-opacity="1">O</text><text fill="rgb(0,0,255)" stroke="none" font-family="geogebra-sans-serif, sans-serif" font-size="14px" font-style="normal" font-weight="normal" text-decoration="normal" x="49" y="112" text-anchor="start" dominant-baseline="alphabetic" fill-opacity="1">1</text><text fill="none" stroke="rgb(255,255,255)" font-family="geogebra-sans-serif, sans-serif" font-size="14px" font-style="normal" font-weight="normal" text-decoration="normal" x="49" y="112" text-anchor="start" dominant-baseline="alphabetic" stroke-opacity="1" stroke-linejoin="bevel" stroke-miterlimit="10" stroke-width="3">1</text><text fill="rgb(0,0,255)" stroke="none" font-family="geogebra-sans-serif, sans-serif" font-size="14px" font-style="normal" font-weight="normal" text-decoration="normal" x="49" y="112" text-anchor="start" dominant-baseline="alphabetic" fill-opacity="1">1</text><path fill="rgb(0,0,255)" stroke="none" paint-order="stroke fill markers" d=" M 144.9999999999998 141.00000000000048 C 144.9999999999998 142.10456949966206 144.10456949966138 143.00000000000048 142.9999999999998 143.00000000000048 C 141.89543050033822 143.00000000000048 140.9999999999998 142.10456949966206 140.9999999999998 141.00000000000048 C 140.9999999999998 139.8954305003389 141.89543050033822 139.00000000000048 142.9999999999998 139.00000000000048 C 144.10456949966138 139.00000000000048 144.9999999999998 139.8954305003389 144.9999999999998 141.00000000000048 Z" fill-opacity="1"/><path fill="none" stroke="rgb(0,0,0)" paint-order="fill stroke markers" d=" M 144.9999999999998 141.00000000000048 C 144.9999999999998 142.10456949966206 144.10456949966138 143.00000000000048 142.9999999999998 143.00000000000048 C 141.89543050033822 143.00000000000048 140.9999999999998 142.10456949966206 140.9999999999998 141.00000000000048 C 140.9999999999998 139.8954305003389 141.89543050033822 139.00000000000048 142.9999999999998 139.00000000000048 C 144.10456949966138 139.00000000000048 144.9999999999998 139.8954305003389 144.9999999999998 141.00000000000048 Z" stroke-opacity="1" stroke-linecap="round" stroke-linejoin="round" stroke-miterlimit="10"/><text fill="rgb(0,0,255)" stroke="none" font-family="geogebra-sans-serif, sans-serif" font-size="16px" font-style="normal" font-weight="normal" text-decoration="normal" x="147" y="165" text-anchor="start" dominant-baseline="alphabetic" fill-opacity="1">O</text><text fill="none" stroke="rgb(255,255,255)" font-family="geogebra-sans-serif, sans-serif" font-size="16px" font-style="normal" font-weight="normal" text-decoration="normal" x="147" y="165" text-anchor="start" dominant-baseline="alphabetic" stroke-opacity="1" stroke-linejoin="bevel" stroke-miterlimit="10" stroke-width="3">O</text><text fill="rgb(0,0,255)" stroke="none" font-family="geogebra-sans-serif, sans-serif" font-size="16px" font-style="normal" font-weight="normal" text-decoration="normal" x="147" y="165" text-anchor="start" dominant-baseline="alphabetic" fill-opacity="1">O</text><text fill="rgb(0,0,255)" stroke="none" font-family="geogebra-sans-serif, sans-serif" font-size="14px" font-style="normal" font-weight="normal" text-decoration="normal" x="159" y="172" text-anchor="start" dominant-baseline="alphabetic" fill-opacity="1">2</text><text fill="none" stroke="rgb(255,255,255)" font-family="geogebra-sans-serif, sans-serif" font-size="14px" font-style="normal" font-weight="normal" text-decoration="normal" x="159" y="172" text-anchor="start" dominant-baseline="alphabetic" stroke-opacity="1" stroke-linejoin="bevel" stroke-miterlimit="10" stroke-width="3">2</text><text fill="rgb(0,0,255)" stroke="none" font-family="geogebra-sans-serif, sans-serif" font-size="14px" font-style="normal" font-weight="normal" text-decoration="normal" x="159" y="172" text-anchor="start" dominant-baseline="alphabetic" fill-opacity="1">2</text><path fill="rgb(0,0,255)" stroke="none" paint-order="stroke fill markers" d=" M 189.81404958677615 85.5123966942156 C 189.81404958677615 86.61696619387718 188.91861908643773 87.5123966942156 187.81404958677615 87.5123966942156 C 186.70948008711457 87.5123966942156 185.81404958677615 86.61696619387718 185.81404958677615 85.5123966942156 C 185.81404958677615 84.407827194554 186.70948008711457 83.5123966942156 187.81404958677615 83.5123966942156 C 188.91861908643773 83.5123966942156 189.81404958677615 84.407827194554 189.81404958677615 85.5123966942156 Z" fill-opacity="1"/><path fill="none" stroke="rgb(0,0,0)" paint-order="fill stroke markers" d=" M 189.81404958677615 85.5123966942156 C 189.81404958677615 86.61696619387718 188.91861908643773 87.5123966942156 187.81404958677615 87.5123966942156 C 186.70948008711457 87.5123966942156 185.81404958677615 86.61696619387718 185.81404958677615 85.5123966942156 C 185.81404958677615 84.407827194554 186.70948008711457 83.5123966942156 187.81404958677615 83.5123966942156 C 188.91861908643773 83.5123966942156 189.81404958677615 84.407827194554 189.81404958677615 85.5123966942156 Z" stroke-opacity="1" stroke-linecap="round" stroke-linejoin="round" stroke-miterlimit="10"/><text fill="rgb(0,0,255)" stroke="none" font-family="geogebra-sans-serif, sans-serif" font-size="16px" font-style="normal" font-weight="normal" text-decoration="normal" x="198" y="80" text-anchor="start" dominant-baseline="alphabetic" fill-opacity="1">O</text><text fill="none" stroke="rgb(255,255,255)" font-family="geogebra-sans-serif, sans-serif" font-size="16px" font-style="normal" font-weight="normal" text-decoration="normal" x="198" y="80" text-anchor="start" dominant-baseline="alphabetic" stroke-opacity="1" stroke-linejoin="bevel" stroke-miterlimit="10" stroke-width="3">O</text><text fill="rgb(0,0,255)" stroke="none" font-family="geogebra-sans-serif, sans-serif" font-size="16px" font-style="normal" font-weight="normal" text-decoration="normal" x="198" y="80" text-anchor="start" dominant-baseline="alphabetic" fill-opacity="1">O</text><text fill="rgb(0,0,255)" stroke="none" font-family="geogebra-sans-serif, sans-serif" font-size="14px" font-style="normal" font-weight="normal" text-decoration="normal" x="210" y="87" text-anchor="start" dominant-baseline="alphabetic" fill-opacity="1">n</text><text fill="none" stroke="rgb(255,255,255)" font-family="geogebra-sans-serif, sans-serif" font-size="14px" font-style="normal" font-weight="normal" text-decoration="normal" x="210" y="87" text-anchor="start" dominant-baseline="alphabetic" stroke-opacity="1" stroke-linejoin="bevel" stroke-miterlimit="10" stroke-width="3">n</text><text fill="rgb(0,0,255)" stroke="none" font-family="geogebra-sans-serif, sans-serif" font-size="14px" font-style="normal" font-weight="normal" text-decoration="normal" x="210" y="87" text-anchor="start" dominant-baseline="alphabetic" fill-opacity="1">n</text><path fill="none" stroke="rgb(77,77,255)" paint-order="fill stroke markers" d=" M 40.29535754548241 43.73717965525944 C 40.29535754548241 44.28946440509023 39.84764229531321 44.73717965525944 39.29535754548241 44.73717965525944 C 38.743072795651614 44.73717965525944 38.29535754548241 44.28946440509023 38.29535754548241 43.73717965525944 C 38.29535754548241 43.18489490542864 38.743072795651614 42.73717965525944 39.29535754548241 42.73717965525944 C 39.84764229531321 42.73717965525944 40.29535754548241 43.18489490542864 40.29535754548241 43.73717965525944 Z" stroke-opacity="1" stroke-linecap="square" stroke-miterlimit="10" stroke-width="0.5"/><text fill="rgb(77,77,255)" stroke="none" font-family="geogebra-sans-serif, sans-serif" font-size="16px" font-style="normal" font-weight="normal" text-decoration="normal" x="24" y="41" text-anchor="start" dominant-baseline="alphabetic" fill-opacity="1">A</text><text fill="none" stroke="rgb(255,255,255)" font-family="geogebra-sans-serif, sans-serif" font-size="16px" font-style="normal" font-weight="normal" text-decoration="normal" x="24" y="41" text-anchor="start" dominant-baseline="alphabetic" stroke-opacity="1" stroke-linejoin="bevel" stroke-miterlimit="10" stroke-width="3">A</text><text fill="rgb(77,77,255)" stroke="none" font-family="geogebra-sans-serif, sans-serif" font-size="16px" font-style="normal" font-weight="normal" text-decoration="normal" x="24" y="41" text-anchor="start" dominant-baseline="alphabetic" fill-opacity="1">A</text><path fill="none" stroke="rgb(77,77,255)" paint-order="fill stroke markers" d=" M 91.7046424545174 152.2628203447428 C 91.7046424545174 152.8151050945736 91.25692720434819 153.2628203447428 90.7046424545174 153.2628203447428 C 90.15235770468661 153.2628203447428 89.7046424545174 152.8151050945736 89.7046424545174 152.2628203447428 C 89.7046424545174 151.71053559491202 90.15235770468661 151.2628203447428 90.7046424545174 151.2628203447428 C 91.25692720434819 151.2628203447428 91.7046424545174 151.71053559491202 91.7046424545174 152.2628203447428 Z" stroke-opacity="1" stroke-linecap="square" stroke-miterlimit="10" stroke-width="0.5"/><text fill="rgb(77,77,255)" stroke="none" font-family="geogebra-sans-serif, sans-serif" font-size="16px" font-style="normal" font-weight="normal" text-decoration="normal" x="77" y="179" text-anchor="start" dominant-baseline="alphabetic" fill-opacity="1">A</text><text fill="none" stroke="rgb(255,255,255)" font-family="geogebra-sans-serif, sans-serif" font-size="16px" font-style="normal" font-weight="normal" text-decoration="normal" x="77" y="179" text-anchor="start" dominant-baseline="alphabetic" stroke-opacity="1" stroke-linejoin="bevel" stroke-miterlimit="10" stroke-width="3">A</text><text fill="rgb(77,77,255)" stroke="none" font-family="geogebra-sans-serif, sans-serif" font-size="16px" font-style="normal" font-weight="normal" text-decoration="normal" x="77" y="179" text-anchor="start" dominant-baseline="alphabetic" fill-opacity="1">A</text><text fill="rgb(77,77,255)" stroke="none" font-family="geogebra-sans-serif, sans-serif" font-size="14px" font-style="normal" font-weight="normal" text-decoration="normal" x="88" y="186" text-anchor="start" dominant-baseline="alphabetic" fill-opacity="1">1</text><text fill="none" stroke="rgb(255,255,255)" font-family="geogebra-sans-serif, sans-serif" font-size="14px" font-style="normal" font-weight="normal" text-decoration="normal" x="88" y="186" text-anchor="start" dominant-baseline="alphabetic" stroke-opacity="1" stroke-linejoin="bevel" stroke-miterlimit="10" stroke-width="3">1</text><text fill="rgb(77,77,255)" stroke="none" font-family="geogebra-sans-serif, sans-serif" font-size="14px" font-style="normal" font-weight="normal" text-decoration="normal" x="88" y="186" text-anchor="start" dominant-baseline="alphabetic" fill-opacity="1">1</text><path fill="none" stroke="rgb(77,77,255)" paint-order="fill stroke markers" d=" M 196.29535754548218 129.73717965525816 C 196.29535754548218 130.28946440508895 195.84764229531297 130.73717965525816 195.29535754548218 130.73717965525816 C 194.7430727956514 130.73717965525816 194.29535754548218 130.28946440508895 194.29535754548218 129.73717965525816 C 194.29535754548218 129.18489490542737 194.7430727956514 128.73717965525816 195.29535754548218 128.73717965525816 C 195.84764229531297 128.73717965525816 196.29535754548218 129.18489490542737 196.29535754548218 129.73717965525816 Z" stroke-opacity="1" stroke-linecap="square" stroke-miterlimit="10" stroke-width="0.5"/><text fill="rgb(77,77,255)" stroke="none" font-family="geogebra-sans-serif, sans-serif" font-size="16px" font-style="normal" font-weight="normal" text-decoration="normal" x="212" y="151" text-anchor="start" dominant-baseline="alphabetic" fill-opacity="1">A</text><text fill="none" stroke="rgb(255,255,255)" font-family="geogebra-sans-serif, sans-serif" font-size="16px" font-style="normal" font-weight="normal" text-decoration="normal" x="212" y="151" text-anchor="start" dominant-baseline="alphabetic" stroke-opacity="1" stroke-linejoin="bevel" stroke-miterlimit="10" stroke-width="3">A</text><text fill="rgb(77,77,255)" stroke="none" font-family="geogebra-sans-serif, sans-serif" font-size="16px" font-style="normal" font-weight="normal" text-decoration="normal" x="212" y="151" text-anchor="start" dominant-baseline="alphabetic" fill-opacity="1">A</text><text fill="rgb(77,77,255)" stroke="none" font-family="geogebra-sans-serif, sans-serif" font-size="14px" font-style="normal" font-weight="normal" text-decoration="normal" x="223" y="158" text-anchor="start" dominant-baseline="alphabetic" fill-opacity="1">n-1</text><text fill="none" stroke="rgb(255,255,255)" font-family="geogebra-sans-serif, sans-serif" font-size="14px" font-style="normal" font-weight="normal" text-decoration="normal" x="223" y="158" text-anchor="start" dominant-baseline="alphabetic" stroke-opacity="1" stroke-linejoin="bevel" stroke-miterlimit="10" stroke-width="3">n-1</text><text fill="rgb(77,77,255)" stroke="none" font-family="geogebra-sans-serif, sans-serif" font-size="14px" font-style="normal" font-weight="normal" text-decoration="normal" x="223" y="158" text-anchor="start" dominant-baseline="alphabetic" fill-opacity="1">n-1</text><path fill="none" stroke="rgb(77,77,255)" paint-order="fill stroke markers" d=" M 181.33274162807015 41.28761373317306 C 181.33274162807015 41.83989848300385 180.88502637790094 42.28761373317306 180.33274162807015 42.28761373317306 C 179.78045687823936 42.28761373317306 179.33274162807015 41.83989848300385 179.33274162807015 41.28761373317306 C 179.33274162807015 40.735328983342264 179.78045687823936 40.28761373317306 180.33274162807015 40.28761373317306 C 180.88502637790094 40.28761373317306 181.33274162807015 40.735328983342264 181.33274162807015 41.28761373317306 Z" stroke-opacity="1" stroke-linecap="square" stroke-miterlimit="10" stroke-width="0.5"/><text fill="rgb(77,77,255)" stroke="none" font-family="geogebra-sans-serif, sans-serif" font-size="16px" font-style="normal" font-weight="normal" text-decoration="normal" x="176" y="31" text-anchor="start" dominant-baseline="alphabetic" fill-opacity="1">A</text><text fill="none" stroke="rgb(255,255,255)" font-family="geogebra-sans-serif, sans-serif" font-size="16px" font-style="normal" font-weight="normal" text-decoration="normal" x="176" y="31" text-anchor="start" dominant-baseline="alphabetic" stroke-opacity="1" stroke-linejoin="bevel" stroke-miterlimit="10" stroke-width="3">A</text><text fill="rgb(77,77,255)" stroke="none" font-family="geogebra-sans-serif, sans-serif" font-size="16px" font-style="normal" font-weight="normal" text-decoration="normal" x="176" y="31" text-anchor="start" dominant-baseline="alphabetic" fill-opacity="1">A</text><text fill="rgb(77,77,255)" stroke="none" font-family="geogebra-sans-serif, sans-serif" font-size="14px" font-style="normal" font-weight="normal" text-decoration="normal" x="187" y="38" text-anchor="start" dominant-baseline="alphabetic" fill-opacity="1">n</text><text fill="none" stroke="rgb(255,255,255)" font-family="geogebra-sans-serif, sans-serif" font-size="14px" font-style="normal" font-weight="normal" text-decoration="normal" x="187" y="38" text-anchor="start" dominant-baseline="alphabetic" stroke-opacity="1" stroke-linejoin="bevel" stroke-miterlimit="10" stroke-width="3">n</text><text fill="rgb(77,77,255)" stroke="none" font-family="geogebra-sans-serif, sans-serif" font-size="14px" font-style="normal" font-weight="normal" text-decoration="normal" x="187" y="38" text-anchor="start" dominant-baseline="alphabetic" fill-opacity="1">n</text><path fill="rgb(0,0,255)" stroke="none" paint-order="stroke fill markers" d=" M 111.81404958677628 42.51239669421625 C 111.81404958677628 43.616966193877836 110.91861908643787 44.51239669421625 109.81404958677628 44.51239669421625 C 108.70948008711468 44.51239669421625 107.81404958677628 43.616966193877836 107.81404958677628 42.51239669421625 C 107.81404958677628 41.40782719455466 108.70948008711468 40.51239669421625 109.81404958677628 40.51239669421625 C 110.91861908643787 40.51239669421625 111.81404958677628 41.40782719455466 111.81404958677628 42.51239669421625 Z" fill-opacity="1"/><path fill="none" stroke="rgb(0,0,0)" paint-order="fill stroke markers" d=" M 111.81404958677628 42.51239669421625 C 111.81404958677628 43.616966193877836 110.91861908643787 44.51239669421625 109.81404958677628 44.51239669421625 C 108.70948008711468 44.51239669421625 107.81404958677628 43.616966193877836 107.81404958677628 42.51239669421625 C 107.81404958677628 41.40782719455466 108.70948008711468 40.51239669421625 109.81404958677628 40.51239669421625 C 110.91861908643787 40.51239669421625 111.81404958677628 41.40782719455466 111.81404958677628 42.51239669421625 Z" stroke-opacity="1" stroke-linecap="round" stroke-linejoin="round" stroke-miterlimit="10"/><text fill="rgb(0,0,255)" stroke="none" font-family="geogebra-sans-serif, sans-serif" font-size="16px" font-style="normal" font-weight="normal" text-decoration="normal" x="99" y="31" text-anchor="start" dominant-baseline="alphabetic" fill-opacity="1">O</text><text fill="none" stroke="rgb(255,255,255)" font-family="geogebra-sans-serif, sans-serif" font-size="16px" font-style="normal" font-weight="normal" text-decoration="normal" x="99" y="31" text-anchor="start" dominant-baseline="alphabetic" stroke-opacity="1" stroke-linejoin="bevel" stroke-miterlimit="10" stroke-width="3">O</text><text fill="rgb(0,0,255)" stroke="none" font-family="geogebra-sans-serif, sans-serif" font-size="16px" font-style="normal" font-weight="normal" text-decoration="normal" x="99" y="31" text-anchor="start" dominant-baseline="alphabetic" fill-opacity="1">O</text></g></g></svg>