<svg version="1.1" xmlns="http://www.w3.org/2000/svg" xmlns:xlink="http://www.w3.org/1999/xlink" width="472" height="181"><defs><clipPath id="zrDceHNPuxDE"><path fill="none" stroke="none" d=" M 0 0 L 472 0 L 472 181 L 0 181 L 0 0 Z"/></clipPath></defs><g transform="scale(1,1)" clip-path="url(#zrDceHNPuxDE)"><g><rect fill="rgb(255,255,255)" stroke="none" x="0" y="0" width="472" height="181" fill-opacity="1"/><path fill="rgb(0,100,0)" stroke="none" paint-order="stroke fill markers" d=" M 413.66950145357146 125.29203438043062 L 404.1933067765908 125.96414630858195 L 404.2994297126147 127.46038757336837 L 413.77562438959535 126.78827564521704 L 413.66950145357146 125.29203438043062 Z M 396.21335336439654 126.53013530070939 L 386.7371586874158 127.20224722886073 L 386.8432816234397 128.69848849364715 L 396.31947630042043 128.0263765654958 L 396.21335336439654 126.53013530070939 Z M 378.7572052752216 127.76823622098814 L 369.281010598241 128.44034814913948 L 369.3871335342649 129.9365894139259 L 378.8633282112455 129.26447748577456 L 378.7572052752216 127.76823622098814 Z M 361.3010571860467 129.00633714126693 L 351.82486250906607 129.67844906941824 L 351.93098544508996 131.17469033420466 L 361.4071801220706 130.50257840605335 L 361.3010571860467 129.00633714126693 Z M 343.8449090968718 130.24443806154568 L 334.36871441989115 130.91654998969702 L 334.47483735591504 132.41279125448344 L 343.9510320328957 131.7406793263321 L 343.8449090968718 130.24443806154568 Z M 326.38876100769687 131.48253898182443 L 316.91256633071623 132.15465090997577 L 317.0186892667401 133.6508921747622 L 326.49488394372077 132.97878024661085 L 326.38876100769687 131.48253898182443 Z M 308.93261291852195 132.72063990210322 L 299.4564182415413 133.39275183025453 L 299.5625411775652 134.88899309504095 L 309.03873585454585 134.21688116688964 L 308.93261291852195 132.72063990210322 Z M 291.47646482934704 133.95874082238197 L 282.0002701523664 134.6308527505333 L 282.1063930883903 136.12709401531973 L 291.58258776537093 135.4549820871684 L 291.47646482934704 133.95874082238197 Z M 274.0203167401721 135.19684174266072 L 264.5441220631915 135.86895367081206 L 264.6502449992154 137.36519493559848 L 274.126439676196 136.69308300744714 L 274.0203167401721 135.19684174266072 Z M 256.5641686509972 136.4349426629395 L 247.08797397401656 137.10705459109084 L 247.19409691004046 138.60329585587726 L 256.6702915870211 137.93118392772593 L 256.5641686509972 136.4349426629395 Z M 239.10802056182231 137.67304358321826 L 229.63182588484165 138.3451555113696 L 229.73794882086554 139.84139677615602 L 239.2141434978462 139.16928484800468 L 239.10802056182231 137.67304358321826 Z M 221.65187247264743 138.91114450349704 L 212.17567779566673 139.58325643164835 L 212.28180073169062 141.07949769643477 L 221.75799540867132 140.40738576828346 L 221.65187247264743 138.91114450349704 Z M 204.19572438347248 140.1492454237758 L 194.71952970649184 140.82135735192713 L 194.82565264251573 142.31759861671355 L 204.30184731949637 141.64548668856222 L 204.19572438347248 140.1492454237758 Z M 186.73957629429756 141.38734634405455 L 177.26338161731692 142.0594582722059 L 177.36950455334082 143.5556995369923 L 186.84569923032146 142.88358760884097 L 186.73957629429756 141.38734634405455 Z M 169.28342820512268 142.62544726433333 L 159.807233528142 143.29755919248464 L 159.9133564641659 144.79380045727106 L 169.38955114114657 144.12168852911975 L 169.28342820512268 142.62544726433333 Z M 151.82728011594776 143.86354818461209 L 142.35108543896712 144.53566011276342 L 142.457208374991 146.03190137754984 L 151.93340305197165 145.3597894493985 L 151.82728011594776 143.86354818461209 Z M 134.37113202677287 145.10164910489084 L 124.89493734979219 145.77376103304218 L 125.00106028581608 147.2700022978286 L 134.47725496279676 146.59789036967726 L 134.37113202677287 145.10164910489084 Z M 116.91498393759795 146.33975002516962 L 107.43878926061728 147.01186195332096 L 107.54491219664118 148.50810321810738 L 117.02110687362185 147.83599128995604 L 116.91498393759795 146.33975002516962 Z M 99.45883584842304 147.57785094544838 L 89.98264117144237 148.2499628735997 L 90.08876410746626 149.74620413838613 L 99.56495878444693 149.0740922102348 L 99.45883584842304 147.57785094544838 Z M 82.00268775924813 148.81595186572716 L 72.52649308226746 149.48806379387847 L 72.63261601829136 150.9843050586649 L 82.10881069527203 150.31219313051358 L 82.00268775924813 148.81595186572716 Z M 64.54653967007322 150.0540527860059 L 55.070344993092554 150.72616471415725 L 55.17646792911645 152.22240597894367 L 64.65266260609711 151.55029405079233 L 64.54653967007322 150.0540527860059 Z M 47.09039158089831 151.29215370628467 L 37.614196903917644 151.964265634436 L 37.72031983994154 153.46050689922242 L 47.19651451692221 152.78839497107109 L 47.09039158089831 151.29215370628467 Z" fill-opacity="0.6980392156862745"/><path fill="rgb(0,100,0)" stroke="none" paint-order="stroke fill markers" d=" M 421.1278640411662 121.75736667890126 C 421.01380354054197 121.75736667890126 420.8990290348176 121.78336239453233 420.79269745076107 121.83650948023438 C 420.52135683715045 121.97213205158955 420.3584312335915 122.25785199329239 420.37989259405646 122.56043854365866 L 420.80438433815203 128.54540360280436 C 420.82584569861706 128.84799015317066 421.0274675755966 129.10785407160682 421.31523400337915 129.20382121961504 C 421.39310589686954 129.22979069626962 421.4731361237222 129.2423742732002 421.5523932902542 129.2423742732002 C 421.76602166517745 129.2423742732002 421.97403369000233 129.15095349833962 422.119026266707 128.98382318325227 L 424.89926292423206 125.77909478163163 C 425.02961180272723 125.62884399204427 425.0949350367554 125.4329661932597 425.0808622604635 125.23455226515982 C 425.0667894841717 125.03613833705994 424.9744734661175 124.85144131550518 424.82422267653016 124.72109243701 L 421.6194942749095 121.94085577948495 C 421.48015063997974 121.81996931633607 421.3048670707501 121.75736667890126 421.1278640411662 121.75736667890126 Z" fill-opacity="0.6980392156862745"/><path fill="rgb(0,100,0)" stroke="none" paint-order="stroke fill markers" d=" M 131.10834981901377 42.03059049689705 L 130.70219239734305 43.47455592197542 L 130.70219239734303 43.47455592197542 L 137.7431869433553 45.45504114768686 L 138.149344365026 44.011075722608474 L 131.10834981901374 42.03059049689705 Z M 145.85049329877737 46.177248638185596 L 145.44433587710668 47.621214063263984 L 154.58945023593648 50.193544400511804 L 154.99560765760717 48.749578975433415 L 145.85049329877737 46.177248638185596 Z M 162.69675659135854 50.91575189101054 L 162.29059916968785 52.359717316088926 L 171.4357135285176 54.932047653336745 L 171.84187095018828 53.48808222825836 L 162.69675659135854 50.91575189101054 Z M 179.54301988393965 55.65425514383548 L 179.13686246226897 57.09822056891387 L 188.28197682109877 59.6705509061617 L 188.68813424276945 58.22658548108331 L 179.54301988393965 55.65425514383548 Z M 196.38928317652082 60.39275839666043 L 195.98312575485014 61.83672382173882 L 205.12824011367994 64.40905415898665 L 205.53439753535062 62.96508873390827 L 196.38928317652082 60.39275839666043 Z M 213.235546469102 65.1312616494854 L 212.8293890474313 66.57522707456377 L 221.97450340626108 69.14755741181159 L 222.38066082793176 67.70359198673322 L 213.235546469102 65.1312616494854 Z M 230.08180976168313 69.86976490231032 L 229.67565234001245 71.3137303273887 L 238.82076669884225 73.88606066463655 L 239.22692412051293 72.44209523955817 L 230.08180976168313 69.86976490231032 Z M 246.9280730542643 74.60826815513528 L 246.52191563259362 76.05223358021365 L 255.66702999142342 78.62456391746149 L 256.0731874130941 77.18059849238311 L 246.9280730542643 74.60826815513528 Z M 263.77433634684553 79.34677140796023 L 263.3681789251748 80.79073683303861 L 272.51329328400453 83.36306717028643 L 272.9194507056753 81.91910174520805 L 263.77433634684553 79.34677140796023 Z M 280.62059963942664 84.08527466078517 L 280.2144422177559 85.52924008586355 L 289.3595565765857 88.10157042311138 L 289.76571399825644 86.65760499803301 L 280.62059963942664 84.08527466078517 Z M 297.4668629320078 88.82377791361012 L 297.0607055103371 90.26774333868849 L 306.2058198691668 92.84007367593632 L 306.61197729083756 91.39610825085795 L 297.4668629320078 88.82377791361012 Z M 314.313126224589 93.56228116643507 L 313.90696880291824 95.00624659151345 L 323.052083161748 97.57857692876127 L 323.4582405834187 96.13461150368289 L 314.313126224589 93.56228116643507 Z M 331.1593895171701 98.30078441926001 L 330.75323209549936 99.74474984433839 L 339.89834645432916 102.31708018158622 L 340.3045038759999 100.87311475650785 L 331.1593895171701 98.30078441926001 Z M 348.00565280975127 103.03928767208497 L 347.5994953880805 104.48325309716334 L 356.7446097469103 107.05558343441116 L 357.15076716858107 105.61161800933279 L 348.00565280975127 103.03928767208497 Z M 364.85191610233244 107.77779092490991 L 364.4457586806617 109.22175634998828 L 373.5908730394915 111.79408668723612 L 373.99703046116224 110.35012126215774 L 364.85191610233244 107.77779092490991 Z M 381.6981793949136 112.51629417773486 L 381.29202197324287 113.96025960281324 L 390.43713633207267 116.53258994006106 L 390.8432937537434 115.08862451498268 L 381.6981793949136 112.51629417773486 Z M 398.5444426874948 117.2547974305598 L 398.13828526582404 118.69876285563818 L 407.2833996246538 121.27109319288601 L 407.6895570463245 119.82712776780764 L 398.5444426874948 117.2547974305598 Z M 415.39070598007595 121.99330068338475 L 414.9845485584052 123.43726610846312 L 424.12966291723495 126.00959644571095 L 424.5358203389057 124.56563102063258 L 415.39070598007595 121.99330068338475 Z" fill-opacity="0.6980392156862745"/><path fill="rgb(0,100,0)" stroke="none" paint-order="stroke fill markers" d=" M 130.99549820702768 38.91155940262899 C 130.86962489337637 38.91155940262899 130.74321769026463 38.94319918005047 130.628682700591 39.00744644296189 L 126.92843700709281 41.083062449777245 C 126.56717804990303 41.28570706752953 126.43859572224791 41.7428412364593 126.6412403400002 42.10410019364909 L 128.71685634681558 45.804345887147264 C 128.8506034266925 46.042779708580326 129.10192413157745 46.18744532029848 129.37075485874598 46.18744532029848 C 129.40021819347817 46.18744532029848 129.4298918540759 46.18570763433182 129.45964411041098 46.18216525780235 C 129.7608632858226 46.14630136481935 130.01081859357942 45.932518808220465 130.09295626483697 45.64050405959301 L 131.71758595151982 39.86464235927947 C 131.79972362277738 39.572627610652006 131.69786804943794 39.259887975233895 131.45951432595294 39.07225345560492 C 131.32434797666585 38.965849105600824 131.16038113394737 38.91155940262899 130.99549820702768 38.91155940262899 Z" fill-opacity="0.6980392156862745"/><path fill="rgb(0,100,0)" stroke="none" paint-order="stroke fill markers" d=" M 268.0017924593562 38.61458130622221 L 259.47671505131177 42.80660410993533 L 260.13861338874017 44.15266896383708 L 268.6636907967846 39.960646160123964 L 268.0017924593562 38.61458130622221 Z M 252.2977024971691 46.33672857622006 L 243.7726250891247 50.528751379933176 L 244.43452342655308 51.87481623383493 L 252.9596008345975 47.68279343012181 L 252.2977024971691 46.33672857622006 Z M 236.59361253498204 54.05887584621791 L 228.0685351269376 58.250898649931024 L 228.730433464366 59.596963503832775 L 237.25551087241044 55.40494070011966 L 236.59361253498204 54.05887584621791 Z M 220.88952257279496 61.78102311621575 L 212.36444516475055 65.97304591992888 L 213.02634350217895 67.31911077383062 L 221.55142091022336 63.1270879701175 L 220.88952257279496 61.78102311621575 Z M 205.18543261060788 69.50317038621361 L 196.66035520256347 73.69519318992673 L 197.32225353999186 75.04125804382846 L 205.84733094803627 70.84923524011535 L 205.18543261060788 69.50317038621361 Z M 189.48134264842082 77.22531765621144 L 180.9562652403764 81.41734045992456 L 181.6181635778048 82.7634053138263 L 190.14324098584922 78.57138251011318 L 189.48134264842082 77.22531765621144 Z M 173.77725268623374 84.94746492620929 L 165.25217527818933 89.13948772992241 L 165.91407361561772 90.48555258382414 L 174.43915102366213 86.29352978011103 L 173.77725268623374 84.94746492620929 Z M 158.07316272404665 92.66961219620714 L 149.54808531600224 96.86163499992026 L 150.20998365343064 98.20769985382199 L 158.73506106147505 94.01567705010888 L 158.07316272404665 92.66961219620714 Z M 142.36907276185957 100.39175946620499 L 133.84399535381516 104.5837822699181 L 134.50589369124356 105.92984712381984 L 143.03097109928797 101.73782432010672 L 142.36907276185957 100.39175946620499 Z M 126.66498279967249 108.11390673620284 L 118.1399053916281 112.30592953991595 L 118.8018037290565 113.65199439381769 L 127.32688113710088 109.45997159010457 L 126.66498279967249 108.11390673620284 Z M 110.96089283748543 115.83605400620068 L 102.43581542944102 120.0280768099138 L 103.09771376686942 121.37414166381554 L 111.62279117491383 117.18211886010242 L 110.96089283748543 115.83605400620068 Z M 95.25680287529835 123.55820127619853 L 86.73172546725394 127.75022407991165 L 87.39362380468233 129.09628893381338 L 95.91870121272675 124.90426613010027 L 95.25680287529835 123.55820127619853 Z M 79.55271291311129 131.28034854619636 L 71.02763550506685 135.47237134990948 L 71.68953384249525 136.81843620381122 L 80.21461125053969 132.6264134000981 L 79.55271291311129 131.28034854619636 Z M 63.84862295092422 139.00249581619423 L 55.323545542879806 143.1945186199073 L 55.98544388030819 144.54058347380905 L 64.5105212883526 140.34856067009596 L 63.84862295092422 139.00249581619423 Z M 48.14453298873713 146.72464308619206 L 40.701471337969814 150.38460799630738 L 40.7014713379698 150.38460799630738 L 41.3633696753982 151.73067285020915 L 41.36336967539813 151.73067285020915 L 48.806431326165516 148.0707079400938 L 48.14453298873713 146.72464308619206 Z" fill-opacity="0.6980392156862745"/><path fill="rgb(0,100,0)" stroke="none" paint-order="stroke fill markers" d=" M 39.03579680646351 147.94645189784188 C 39.019727306217185 147.94645189784188 39.003585798681975 147.9469674237086 38.987392600838206 147.94801023637064 C 38.684672976162645 147.96750483284904 38.42350433672921 148.16743376811917 38.32566921039506 148.45457049253935 L 36.957336177448326 152.47049687519961 C 36.89318312207092 152.65877994767914 36.90645276813703 152.86483613771927 36.99422594497872 153.04333543554338 C 37.08199912182042 153.22183473336747 37.23708590782053 153.35815540593302 37.42536898030005 153.42230846131042 L 41.44129536296032 154.79064149425716 C 41.52058740918397 154.81765840536545 41.6022175920346 154.83075068694208 41.68306531537826 154.83075068694208 C 41.89498782011335 154.83075068694208 42.101534062677864 154.74079390638087 42.2465002771051 154.5758714199303 C 42.446770615145056 154.34803155915756 42.49007362523682 154.02198633729603 42.35621718154074 153.7497701310617 L 39.7086238318272 148.36551071545472 C 39.58192768993763 148.10785600614534 39.32013449757144 147.94645189784188 39.03579680646351 147.94645189784188 Z" fill-opacity="0.6980392156862745"/><path fill="none" stroke="rgb(102,102,102)" paint-order="fill stroke markers" d=" M 127.29535754548245 41.73717965525947 L 268.3327416280704 39.28761373317309" stroke-opacity="0.6980392156862745" stroke-linejoin="round" stroke-miterlimit="10" stroke-dasharray="9,8"/><path fill="rgb(0,0,255)" stroke="none" paint-order="stroke fill markers" d=" M 154.99999999999997 96.00000000000115 C 154.99999999999997 97.10456949966274 154.10456949966155 98.00000000000115 152.99999999999997 98.00000000000115 C 151.8954305003384 98.00000000000115 150.99999999999997 97.10456949966274 150.99999999999997 96.00000000000115 C 150.99999999999997 94.89543050033956 151.8954305003384 94.00000000000115 152.99999999999997 94.00000000000115 C 154.10456949966155 94.00000000000115 154.99999999999997 94.89543050033956 154.99999999999997 96.00000000000115 Z" fill-opacity="1"/><path fill="none" stroke="rgb(0,0,0)" paint-order="fill stroke markers" d=" M 154.99999999999997 96.00000000000115 C 154.99999999999997 97.10456949966274 154.10456949966155 98.00000000000115 152.99999999999997 98.00000000000115 C 151.8954305003384 98.00000000000115 150.99999999999997 97.10456949966274 150.99999999999997 96.00000000000115 C 150.99999999999997 94.89543050033956 151.8954305003384 94.00000000000115 152.99999999999997 94.00000000000115 C 154.10456949966155 94.00000000000115 154.99999999999997 94.89543050033956 154.99999999999997 96.00000000000115 Z" stroke-opacity="1" stroke-linecap="round" stroke-linejoin="round" stroke-miterlimit="10"/><text fill="rgb(0,0,255)" stroke="none" font-family="geogebra-sans-serif, sans-serif" font-size="16px" font-style="normal" font-weight="normal" text-decoration="normal" x="126" y="84" text-anchor="start" dominant-baseline="alphabetic" fill-opacity="1">O</text><text fill="none" stroke="rgb(255,255,255)" font-family="geogebra-sans-serif, sans-serif" font-size="16px" font-style="normal" font-weight="normal" text-decoration="normal" x="126" y="84" text-anchor="start" dominant-baseline="alphabetic" stroke-opacity="1" stroke-linejoin="bevel" stroke-miterlimit="10" stroke-width="3">O</text><text fill="rgb(0,0,255)" stroke="none" font-family="geogebra-sans-serif, sans-serif" font-size="16px" font-style="normal" font-weight="normal" text-decoration="normal" x="126" y="84" text-anchor="start" dominant-baseline="alphabetic" fill-opacity="1">O</text><text fill="rgb(0,0,255)" stroke="none" font-family="geogebra-sans-serif, sans-serif" font-size="14px" font-style="normal" font-weight="normal" text-decoration="normal" x="138" y="91" text-anchor="start" dominant-baseline="alphabetic" fill-opacity="1">1</text><text fill="none" stroke="rgb(255,255,255)" font-family="geogebra-sans-serif, sans-serif" font-size="14px" font-style="normal" font-weight="normal" text-decoration="normal" x="138" y="91" text-anchor="start" dominant-baseline="alphabetic" stroke-opacity="1" stroke-linejoin="bevel" stroke-miterlimit="10" stroke-width="3">1</text><text fill="rgb(0,0,255)" stroke="none" font-family="geogebra-sans-serif, sans-serif" font-size="14px" font-style="normal" font-weight="normal" text-decoration="normal" x="138" y="91" text-anchor="start" dominant-baseline="alphabetic" fill-opacity="1">1</text><path fill="rgb(0,0,255)" stroke="none" paint-order="stroke fill markers" d=" M 232.99999999999994 139.00000000000048 C 232.99999999999994 140.10456949966206 232.10456949966152 141.00000000000048 230.99999999999994 141.00000000000048 C 229.89543050033836 141.00000000000048 228.99999999999994 140.10456949966206 228.99999999999994 139.00000000000048 C 228.99999999999994 137.8954305003389 229.89543050033836 137.00000000000048 230.99999999999994 137.00000000000048 C 232.10456949966152 137.00000000000048 232.99999999999994 137.8954305003389 232.99999999999994 139.00000000000048 Z" fill-opacity="1"/><path fill="none" stroke="rgb(0,0,0)" paint-order="fill stroke markers" d=" M 232.99999999999994 139.00000000000048 C 232.99999999999994 140.10456949966206 232.10456949966152 141.00000000000048 230.99999999999994 141.00000000000048 C 229.89543050033836 141.00000000000048 228.99999999999994 140.10456949966206 228.99999999999994 139.00000000000048 C 228.99999999999994 137.8954305003389 229.89543050033836 137.00000000000048 230.99999999999994 137.00000000000048 C 232.10456949966152 137.00000000000048 232.99999999999994 137.8954305003389 232.99999999999994 139.00000000000048 Z" stroke-opacity="1" stroke-linecap="round" stroke-linejoin="round" stroke-miterlimit="10"/><text fill="rgb(0,0,255)" stroke="none" font-family="geogebra-sans-serif, sans-serif" font-size="16px" font-style="normal" font-weight="normal" text-decoration="normal" x="215" y="163" text-anchor="start" dominant-baseline="alphabetic" fill-opacity="1">O</text><text fill="none" stroke="rgb(255,255,255)" font-family="geogebra-sans-serif, sans-serif" font-size="16px" font-style="normal" font-weight="normal" text-decoration="normal" x="215" y="163" text-anchor="start" dominant-baseline="alphabetic" stroke-opacity="1" stroke-linejoin="bevel" stroke-miterlimit="10" stroke-width="3">O</text><text fill="rgb(0,0,255)" stroke="none" font-family="geogebra-sans-serif, sans-serif" font-size="16px" font-style="normal" font-weight="normal" text-decoration="normal" x="215" y="163" text-anchor="start" dominant-baseline="alphabetic" fill-opacity="1">O</text><text fill="rgb(0,0,255)" stroke="none" font-family="geogebra-sans-serif, sans-serif" font-size="14px" font-style="normal" font-weight="normal" text-decoration="normal" x="227" y="170" text-anchor="start" dominant-baseline="alphabetic" fill-opacity="1">2</text><text fill="none" stroke="rgb(255,255,255)" font-family="geogebra-sans-serif, sans-serif" font-size="14px" font-style="normal" font-weight="normal" text-decoration="normal" x="227" y="170" text-anchor="start" dominant-baseline="alphabetic" stroke-opacity="1" stroke-linejoin="bevel" stroke-miterlimit="10" stroke-width="3">2</text><text fill="rgb(0,0,255)" stroke="none" font-family="geogebra-sans-serif, sans-serif" font-size="14px" font-style="normal" font-weight="normal" text-decoration="normal" x="227" y="170" text-anchor="start" dominant-baseline="alphabetic" fill-opacity="1">2</text><path fill="rgb(0,0,255)" stroke="none" paint-order="stroke fill markers" d=" M 277.8140495867764 83.51239669421562 C 277.8140495867764 84.6169661938772 276.91861908643796 85.51239669421562 275.8140495867764 85.51239669421562 C 274.7094800871148 85.51239669421562 273.8140495867764 84.6169661938772 273.8140495867764 83.51239669421562 C 273.8140495867764 82.40782719455403 274.7094800871148 81.51239669421562 275.8140495867764 81.51239669421562 C 276.91861908643796 81.51239669421562 277.8140495867764 82.40782719455403 277.8140495867764 83.51239669421562 Z" fill-opacity="1"/><path fill="none" stroke="rgb(0,0,0)" paint-order="fill stroke markers" d=" M 277.8140495867764 83.51239669421562 C 277.8140495867764 84.6169661938772 276.91861908643796 85.51239669421562 275.8140495867764 85.51239669421562 C 274.7094800871148 85.51239669421562 273.8140495867764 84.6169661938772 273.8140495867764 83.51239669421562 C 273.8140495867764 82.40782719455403 274.7094800871148 81.51239669421562 275.8140495867764 81.51239669421562 C 276.91861908643796 81.51239669421562 277.8140495867764 82.40782719455403 277.8140495867764 83.51239669421562 Z" stroke-opacity="1" stroke-linecap="round" stroke-linejoin="round" stroke-miterlimit="10"/><text fill="rgb(0,0,255)" stroke="none" font-family="geogebra-sans-serif, sans-serif" font-size="16px" font-style="normal" font-weight="normal" text-decoration="normal" x="286" y="72" text-anchor="start" dominant-baseline="alphabetic" fill-opacity="1">O</text><text fill="none" stroke="rgb(255,255,255)" font-family="geogebra-sans-serif, sans-serif" font-size="16px" font-style="normal" font-weight="normal" text-decoration="normal" x="286" y="72" text-anchor="start" dominant-baseline="alphabetic" stroke-opacity="1" stroke-linejoin="bevel" stroke-miterlimit="10" stroke-width="3">O</text><text fill="rgb(0,0,255)" stroke="none" font-family="geogebra-sans-serif, sans-serif" font-size="16px" font-style="normal" font-weight="normal" text-decoration="normal" x="286" y="72" text-anchor="start" dominant-baseline="alphabetic" fill-opacity="1">O</text><text fill="rgb(0,0,255)" stroke="none" font-family="geogebra-sans-serif, sans-serif" font-size="14px" font-style="normal" font-weight="normal" text-decoration="normal" x="298" y="79" text-anchor="start" dominant-baseline="alphabetic" fill-opacity="1">n</text><text fill="none" stroke="rgb(255,255,255)" font-family="geogebra-sans-serif, sans-serif" font-size="14px" font-style="normal" font-weight="normal" text-decoration="normal" x="298" y="79" text-anchor="start" dominant-baseline="alphabetic" stroke-opacity="1" stroke-linejoin="bevel" stroke-miterlimit="10" stroke-width="3">n</text><text fill="rgb(0,0,255)" stroke="none" font-family="geogebra-sans-serif, sans-serif" font-size="14px" font-style="normal" font-weight="normal" text-decoration="normal" x="298" y="79" text-anchor="start" dominant-baseline="alphabetic" fill-opacity="1">n</text><path fill="none" stroke="rgb(77,77,255)" paint-order="fill stroke markers" d=" M 128.29535754548243 41.73717965525947 C 128.29535754548243 42.28946440509026 127.84764229531324 42.73717965525947 127.29535754548245 42.73717965525947 C 126.74307279565166 42.73717965525947 126.29535754548245 42.28946440509026 126.29535754548245 41.73717965525947 C 126.29535754548245 41.18489490542867 126.74307279565166 40.73717965525947 127.29535754548245 40.73717965525947 C 127.84764229531324 40.73717965525947 128.29535754548243 41.18489490542867 128.29535754548243 41.73717965525947 Z" stroke-opacity="1" stroke-linecap="square" stroke-miterlimit="10" stroke-width="0.5"/><text fill="rgb(77,77,255)" stroke="none" font-family="geogebra-sans-serif, sans-serif" font-size="16px" font-style="normal" font-weight="normal" text-decoration="normal" x="112" y="39" text-anchor="start" dominant-baseline="alphabetic" fill-opacity="1">A</text><text fill="none" stroke="rgb(255,255,255)" font-family="geogebra-sans-serif, sans-serif" font-size="16px" font-style="normal" font-weight="normal" text-decoration="normal" x="112" y="39" text-anchor="start" dominant-baseline="alphabetic" stroke-opacity="1" stroke-linejoin="bevel" stroke-miterlimit="10" stroke-width="3">A</text><text fill="rgb(77,77,255)" stroke="none" font-family="geogebra-sans-serif, sans-serif" font-size="16px" font-style="normal" font-weight="normal" text-decoration="normal" x="112" y="39" text-anchor="start" dominant-baseline="alphabetic" fill-opacity="1">A</text><path fill="none" stroke="rgb(77,77,255)" paint-order="fill stroke markers" d=" M 269.3327416280704 39.28761373317309 C 269.3327416280704 39.83989848300388 268.88502637790117 40.28761373317309 268.3327416280704 40.28761373317309 C 267.7804568782396 40.28761373317309 267.3327416280704 39.83989848300388 267.3327416280704 39.28761373317309 C 267.3327416280704 38.73532898334229 267.7804568782396 38.28761373317309 268.3327416280704 38.28761373317309 C 268.88502637790117 38.28761373317309 269.3327416280704 38.73532898334229 269.3327416280704 39.28761373317309 Z" stroke-opacity="1" stroke-linecap="square" stroke-miterlimit="10" stroke-width="0.5"/><text fill="rgb(77,77,255)" stroke="none" font-family="geogebra-sans-serif, sans-serif" font-size="16px" font-style="normal" font-weight="normal" text-decoration="normal" x="275" y="31" text-anchor="start" dominant-baseline="alphabetic" fill-opacity="1">A</text><text fill="none" stroke="rgb(255,255,255)" font-family="geogebra-sans-serif, sans-serif" font-size="16px" font-style="normal" font-weight="normal" text-decoration="normal" x="275" y="31" text-anchor="start" dominant-baseline="alphabetic" stroke-opacity="1" stroke-linejoin="bevel" stroke-miterlimit="10" stroke-width="3">A</text><text fill="rgb(77,77,255)" stroke="none" font-family="geogebra-sans-serif, sans-serif" font-size="16px" font-style="normal" font-weight="normal" text-decoration="normal" x="275" y="31" text-anchor="start" dominant-baseline="alphabetic" fill-opacity="1">A</text><text fill="rgb(77,77,255)" stroke="none" font-family="geogebra-sans-serif, sans-serif" font-size="14px" font-style="normal" font-weight="normal" text-decoration="normal" x="286" y="38" text-anchor="start" dominant-baseline="alphabetic" fill-opacity="1">n</text><text fill="none" stroke="rgb(255,255,255)" font-family="geogebra-sans-serif, sans-serif" font-size="14px" font-style="normal" font-weight="normal" text-decoration="normal" x="286" y="38" text-anchor="start" dominant-baseline="alphabetic" stroke-opacity="1" stroke-linejoin="bevel" stroke-miterlimit="10" stroke-width="3">n</text><text fill="rgb(77,77,255)" stroke="none" font-family="geogebra-sans-serif, sans-serif" font-size="14px" font-style="normal" font-weight="normal" text-decoration="normal" x="286" y="38" text-anchor="start" dominant-baseline="alphabetic" fill-opacity="1">n</text><path fill="none" stroke="rgb(77,77,255)" paint-order="fill stroke markers" d=" M 38.66725837192959 152.7123862668292 C 38.66725837192959 153.26467101666 38.21954312176038 153.7123862668292 37.66725837192959 153.7123862668292 C 37.114973622098795 153.7123862668292 36.66725837192959 153.26467101666 36.66725837192959 152.7123862668292 C 36.66725837192959 152.16010151699842 37.114973622098795 151.7123862668292 37.66725837192959 151.7123862668292 C 38.21954312176038 151.7123862668292 38.66725837192959 152.16010151699842 38.66725837192959 152.7123862668292 Z" stroke-opacity="1" stroke-linecap="square" stroke-miterlimit="10" stroke-width="0.5"/><text fill="rgb(77,77,255)" stroke="none" font-family="geogebra-sans-serif, sans-serif" font-size="16px" font-style="normal" font-weight="normal" text-decoration="normal" x="18" y="131" text-anchor="start" dominant-baseline="alphabetic" fill-opacity="1">A</text><text fill="none" stroke="rgb(255,255,255)" font-family="geogebra-sans-serif, sans-serif" font-size="16px" font-style="normal" font-weight="normal" text-decoration="normal" x="18" y="131" text-anchor="start" dominant-baseline="alphabetic" stroke-opacity="1" stroke-linejoin="bevel" stroke-miterlimit="10" stroke-width="3">A</text><text fill="rgb(77,77,255)" stroke="none" font-family="geogebra-sans-serif, sans-serif" font-size="16px" font-style="normal" font-weight="normal" text-decoration="normal" x="18" y="131" text-anchor="start" dominant-baseline="alphabetic" fill-opacity="1">A</text><text fill="rgb(77,77,255)" stroke="none" font-family="geogebra-sans-serif, sans-serif" font-size="14px" font-style="normal" font-weight="normal" text-decoration="normal" x="29" y="138" text-anchor="start" dominant-baseline="alphabetic" fill-opacity="1">n+1</text><text fill="none" stroke="rgb(255,255,255)" font-family="geogebra-sans-serif, sans-serif" font-size="14px" font-style="normal" font-weight="normal" text-decoration="normal" x="29" y="138" text-anchor="start" dominant-baseline="alphabetic" stroke-opacity="1" stroke-linejoin="bevel" stroke-miterlimit="10" stroke-width="3">n+1</text><text fill="rgb(77,77,255)" stroke="none" font-family="geogebra-sans-serif, sans-serif" font-size="14px" font-style="normal" font-weight="normal" text-decoration="normal" x="29" y="138" text-anchor="start" dominant-baseline="alphabetic" fill-opacity="1">n+1</text><path fill="none" stroke="rgb(77,77,255)" paint-order="fill stroke markers" d=" M 425.3327416280703 125.28761373317177 C 425.3327416280703 125.83989848300256 424.8850263779011 126.28761373317177 424.3327416280703 126.28761373317177 C 423.78045687823953 126.28761373317177 423.3327416280703 125.83989848300256 423.3327416280703 125.28761373317177 C 423.3327416280703 124.73532898334098 423.78045687823953 124.28761373317177 424.3327416280703 124.28761373317177 C 424.8850263779011 124.28761373317177 425.3327416280703 124.73532898334098 425.3327416280703 125.28761373317177 Z" stroke-opacity="1" stroke-linecap="square" stroke-miterlimit="10" stroke-width="0.5"/><text fill="rgb(77,77,255)" stroke="none" font-family="geogebra-sans-serif, sans-serif" font-size="16px" font-style="normal" font-weight="normal" text-decoration="normal" x="410" y="108" text-anchor="start" dominant-baseline="alphabetic" fill-opacity="1">A</text><text fill="none" stroke="rgb(255,255,255)" font-family="geogebra-sans-serif, sans-serif" font-size="16px" font-style="normal" font-weight="normal" text-decoration="normal" x="410" y="108" text-anchor="start" dominant-baseline="alphabetic" stroke-opacity="1" stroke-linejoin="bevel" stroke-miterlimit="10" stroke-width="3">A</text><text fill="rgb(77,77,255)" stroke="none" font-family="geogebra-sans-serif, sans-serif" font-size="16px" font-style="normal" font-weight="normal" text-decoration="normal" x="410" y="108" text-anchor="start" dominant-baseline="alphabetic" fill-opacity="1">A</text><text fill="rgb(77,77,255)" stroke="none" font-family="geogebra-sans-serif, sans-serif" font-size="14px" font-style="normal" font-weight="normal" text-decoration="normal" x="421" y="115" text-anchor="start" dominant-baseline="alphabetic" fill-opacity="1">2n-1</text><text fill="none" stroke="rgb(255,255,255)" font-family="geogebra-sans-serif, sans-serif" font-size="14px" font-style="normal" font-weight="normal" text-decoration="normal" x="421" y="115" text-anchor="start" dominant-baseline="alphabetic" stroke-opacity="1" stroke-linejoin="bevel" stroke-miterlimit="10" stroke-width="3">2n-1</text><text fill="rgb(77,77,255)" stroke="none" font-family="geogebra-sans-serif, sans-serif" font-size="14px" font-style="normal" font-weight="normal" text-decoration="normal" x="421" y="115" text-anchor="start" dominant-baseline="alphabetic" fill-opacity="1">2n-1</text><path fill="rgb(0,0,255)" stroke="none" paint-order="stroke fill markers" d=" M 199.8140495867764 40.51239669421628 C 199.8140495867764 41.616966193877865 198.91861908643799 42.51239669421628 197.8140495867764 42.51239669421628 C 196.70948008711483 42.51239669421628 195.8140495867764 41.616966193877865 195.8140495867764 40.51239669421628 C 195.8140495867764 39.40782719455469 196.70948008711483 38.51239669421628 197.8140495867764 38.51239669421628 C 198.91861908643799 38.51239669421628 199.8140495867764 39.40782719455469 199.8140495867764 40.51239669421628 Z" fill-opacity="1"/><path fill="none" stroke="rgb(0,0,0)" paint-order="fill stroke markers" d=" M 199.8140495867764 40.51239669421628 C 199.8140495867764 41.616966193877865 198.91861908643799 42.51239669421628 197.8140495867764 42.51239669421628 C 196.70948008711483 42.51239669421628 195.8140495867764 41.616966193877865 195.8140495867764 40.51239669421628 C 195.8140495867764 39.40782719455469 196.70948008711483 38.51239669421628 197.8140495867764 38.51239669421628 C 198.91861908643799 38.51239669421628 199.8140495867764 39.40782719455469 199.8140495867764 40.51239669421628 Z" stroke-opacity="1" stroke-linecap="round" stroke-linejoin="round" stroke-miterlimit="10"/><text fill="rgb(0,0,255)" stroke="none" font-family="geogebra-sans-serif, sans-serif" font-size="16px" font-style="normal" font-weight="normal" text-decoration="normal" x="187" y="29" text-anchor="start" dominant-baseline="alphabetic" fill-opacity="1">O</text><text fill="none" stroke="rgb(255,255,255)" font-family="geogebra-sans-serif, sans-serif" font-size="16px" font-style="normal" font-weight="normal" text-decoration="normal" x="187" y="29" text-anchor="start" dominant-baseline="alphabetic" stroke-opacity="1" stroke-linejoin="bevel" stroke-miterlimit="10" stroke-width="3">O</text><text fill="rgb(0,0,255)" stroke="none" font-family="geogebra-sans-serif, sans-serif" font-size="16px" font-style="normal" font-weight="normal" text-decoration="normal" x="187" y="29" text-anchor="start" dominant-baseline="alphabetic" fill-opacity="1">O</text></g></g></svg>