<svg version="1.1" xmlns="http://www.w3.org/2000/svg" xmlns:xlink="http://www.w3.org/1999/xlink" width="476" height="185"><defs><clipPath id="JzTFtIUizPcc"><path fill="none" stroke="none" d=" M 0 0 L 476 0 L 476 185 L 0 185 L 0 0 Z"/></clipPath></defs><g transform="scale(1,1)" clip-path="url(#JzTFtIUizPcc)"><g><rect fill="rgb(255,255,255)" stroke="none" x="0" y="0" width="476" height="185" fill-opacity="1"/><path fill="rgb(255,85,0)" stroke="none" paint-order="stroke fill markers" d=" M 133.7472225948683 38.523128312952416 L 132.84349249609645 38.95123099756652 L 134.98400591916695 43.46988149142583 L 135.8877360179388 43.04177880681173 L 133.7472225948683 38.523128312952416 Z M 137.6001467563952 46.65669920189918 L 136.69641665762333 47.08480188651328 L 138.83693008069383 51.603452380372595 L 139.7406601794657 51.17534969575849 L 137.6001467563952 46.65669920189918 Z M 141.4530709179221 54.790270090845944 L 140.54934081915025 55.21837277546005 L 142.68985424222072 59.73702326931936 L 143.59358434099258 59.308920584705255 L 141.4530709179221 54.790270090845944 Z M 145.305995079449 62.92384097979271 L 144.40226498067713 63.35194366440681 L 146.54277840374763 67.87059415826613 L 147.4465085025195 67.44249147365204 L 145.305995079449 62.92384097979271 Z M 149.15891924097588 71.05741186873948 L 148.25518914220402 71.48551455335357 L 150.39570256527452 76.0041650472129 L 151.29943266404638 75.5760623625988 L 149.15891924097588 71.05741186873948 Z M 153.0118434025028 79.19098275768624 L 152.10811330373093 79.61908544230033 L 154.2486267268014 84.13773593615966 L 155.15235682557326 83.70963325154557 L 153.0118434025028 79.19098275768624 Z M 156.86476756402968 87.324553646633 L 155.96103746525782 87.7526563312471 L 158.10155088832832 92.27130682510642 L 159.00528098710018 91.84320414049233 L 156.86476756402968 87.324553646633 Z M 160.71769172555656 95.45812453557977 L 159.8139616267847 95.88622722019386 L 161.9544750498552 100.40487771405319 L 162.85820514862706 99.9767750294391 L 160.71769172555656 95.45812453557977 Z M 164.57061588708348 103.59169542452653 L 163.66688578831162 104.01979810914062 L 165.8073992113821 108.53844860299995 L 166.71112931015395 108.11034591838586 L 164.57061588708348 103.59169542452653 Z M 168.42354004861036 111.72526631347331 L 167.5198099498385 112.1533689980874 L 169.660323372909 116.67201949194671 L 170.56405347168086 116.24391680733262 L 168.42354004861036 111.72526631347331 Z M 172.27646421013725 119.85883720242008 L 171.3727341113654 120.28693988703417 L 173.5132475344359 124.80559038089348 L 174.41697763320775 124.37748769627939 L 172.27646421013725 119.85883720242008 Z M 176.12938837166413 127.99240809136685 L 175.22565827289228 128.42051077598094 L 177.36617169596278 132.93916126984024 L 178.26990179473464 132.51105858522615 L 176.12938837166413 127.99240809136685 Z M 179.98231253319105 136.1259789803136 L 179.0785824344192 136.55408166492768 L 181.2190958574897 141.072732158787 L 182.12282595626155 140.64462947417292 L 179.98231253319105 136.1259789803136 Z M 183.83523669471793 144.25954986926038 L 182.93150659594608 144.68765255387447 L 183.1825206935961 145.2175464401202 L 184.08625079236796 144.7894437555061 L 183.83523669471793 144.25954986926038 Z" fill-opacity="0.6980392156862745"/><path fill="rgb(255,85,0)" stroke="none" paint-order="stroke fill markers" d=" M 185.6557900486491 144.09914565835882 C 185.58322464464675 144.09914565835882 185.51014992497798 144.11493369756022 185.44184594052578 144.14728972858495 L 181.82692554543834 145.85970046704134 C 181.64416319321262 145.9462761534554 181.53154873434988 146.13442042505525 181.5415941147841 146.3364019024265 C 181.5516394952183 146.53838337979778 181.68236644925713 146.71442526904153 181.87281720281078 146.7824395126967 L 184.53648276958273 147.73369434101218 C 184.5920548435613 147.75354037737316 184.64881641093064 147.76295658211495 184.70462769272893 147.76295658211495 C 184.90999234131604 147.76295658211495 185.10249045762194 147.6354644829303 185.17551645078672 147.4309800296774 L 186.12677127910223 144.7673144629055 C 186.1947855227574 144.5768637093518 186.14137787998925 144.36419517154067 185.9914522510413 144.228475855842 C 185.89755850012477 144.14347907635744 185.77738936332372 144.09914565835882 185.6557900486491 144.09914565835882 Z" fill-opacity="0.6980392156862745"/><path fill="rgb(255,85,0)" stroke="none" paint-order="stroke fill markers" d=" M 286.26819493680796 124.87767332317999 L 281.3802707340256 125.93038267901099 L 281.59081260519184 126.90796751956748 L 286.4787368079742 125.85525816373648 L 286.26819493680796 124.87767332317999 Z M 277.46993137179965 126.77255016367577 L 272.5820071690173 127.82525951950676 L 272.79254904018353 128.80284436006323 L 277.6804732429659 127.75013500423226 L 277.46993137179965 126.77255016367577 Z M 268.67166780679133 128.66742700417157 L 263.783743604009 129.72013636000256 L 263.9942854751752 130.69772120055902 L 268.8822096779576 129.64501184472803 L 268.67166780679133 128.66742700417157 Z M 259.8734042417831 130.56230384466735 L 254.9854800390007 131.61501320049834 L 255.19602191016688 132.5925980410548 L 260.0839461129493 131.53988868522381 L 259.8734042417831 130.56230384466735 Z M 251.0751406767748 132.45718068516314 L 246.18721647399238 133.50989004099412 L 246.39775834515856 134.48747488155058 L 251.28568254794098 133.4347655257196 L 251.0751406767748 132.45718068516314 Z M 242.27687711176648 134.35205752565892 L 237.38895290898407 135.4047668814899 L 237.59949478015025 136.38235172204637 L 242.48741898293267 135.32964236621538 L 242.27687711176648 134.35205752565892 Z M 233.47861354675817 136.2469343661547 L 228.59068934397575 137.2996437219857 L 228.80123121514194 138.27722856254215 L 233.68915541792435 137.22451920671116 L 233.47861354675817 136.2469343661547 Z M 224.68034998174986 138.1418112066505 L 219.79242577896744 139.19452056248147 L 220.00296765013363 140.17210540303793 L 224.89089185291604 139.11939604720695 L 224.68034998174986 138.1418112066505 Z M 215.88208641674154 140.03668804714627 L 210.99416221395913 141.08939740297726 L 211.20470408512531 142.06698224353372 L 216.09262828790773 141.01427288770273 L 215.88208641674154 140.03668804714627 Z M 207.08382285173323 141.93156488764205 L 202.19589864895084 142.98427424347304 L 202.40644052011703 143.9618590840295 L 207.29436472289942 142.9091497281985 L 207.08382285173323 141.93156488764205 Z M 198.28555928672492 143.82644172813784 L 193.39763508394253 144.87915108396882 L 193.60817695510872 145.85673592452528 L 198.4961011578911 144.8040265686943 L 198.28555928672492 143.82644172813784 Z M 189.4872957217166 145.72131856863362 L 184.59937151893422 146.7740279244646 L 184.8099133901004 147.75161276502106 L 189.6978375928828 146.69890340919008 L 189.4872957217166 145.72131856863362 Z" fill-opacity="0.6980392156862745"/><path fill="rgb(255,85,0)" stroke="none" paint-order="stroke fill markers" d=" M 286.9191193706376 122.70309359598758 C 286.8196263946106 122.70309359598758 286.7202342298538 122.73273320612311 286.634793698177 122.79179384669311 C 286.46843842955394 122.90678667895021 286.38773358283925 123.11066657250895 286.4303117017584 123.3083646520607 L 287.2724791864232 127.21870401428662 C 287.31505730534235 127.41640209383836 287.4725333583425 127.56898510734987 287.67147650834886 127.60530383440246 C 287.701493968687 127.61078377150407 287.7315635328048 127.61345398485837 287.76136287463066 127.61345398485837 C 287.9290610847019 127.61345398485837 288.0882014445054 127.52888921447352 288.1813378340854 127.38462372126219 L 289.715423772866 125.00837029781684 C 289.8651982290479 124.7763741265137 289.7985443593438 124.46688788405612 289.56654818804066 124.31711342787418 L 287.1902947645953 122.78302748909361 C 287.1076554282236 122.72967634284501 287.01334219235025 122.70309359598758 286.9191193706376 122.70309359598758 Z" fill-opacity="0.6980392156862745"/><path fill="rgb(255,85,0)" stroke="none" paint-order="stroke fill markers" d=" M 275.4439188088404 39.85851540489979 L 274.4579273393575 40.025311154567035 L 275.29190608769375 44.95526850198125 L 276.27789755717663 44.78847275231401 L 275.4439188088404 39.85851540489979 Z M 276.9450805558456 48.7324386302454 L 275.9590890863627 48.89923437991264 L 276.79306783469895 53.82919172732687 L 277.7790593041818 53.66239597765963 L 276.9450805558456 48.7324386302454 Z M 278.4462423028508 57.606361855591004 L 277.4602508333679 57.77315760525825 L 278.29422958170414 62.703114952672486 L 279.280221051187 62.53631920300524 L 278.4462423028508 57.606361855591004 Z M 279.947404049856 66.48028508093662 L 278.9614125803731 66.64708083060387 L 279.79539132870934 71.57703817801811 L 280.7813827981922 71.41024242835087 L 279.947404049856 66.48028508093662 Z M 281.4485657968612 75.35420830628225 L 280.4625743273783 75.52100405594949 L 281.29655307571454 80.45096140336372 L 282.2825445451974 80.28416565369648 L 281.4485657968612 75.35420830628225 Z M 282.9497275438664 84.22813153162785 L 281.9637360743835 84.3949272812951 L 282.79771482271974 89.32488462870933 L 283.7837062922026 89.15808887904208 L 282.9497275438664 84.22813153162785 Z M 284.4508892908716 93.10205475697347 L 283.4648978213887 93.26885050664072 L 284.29887656972494 98.19880785405495 L 285.2848680392078 98.0320121043877 L 284.4508892908716 93.10205475697347 Z M 285.9520510378768 101.97597798231908 L 284.9660595683939 102.14277373198632 L 285.80003831673014 107.07273107940055 L 286.786029786213 106.90593532973331 L 285.9520510378768 101.97597798231908 Z M 287.453212784882 110.84990120766469 L 286.4672213153991 111.01669695733193 L 287.30120006373534 115.94665430474618 L 288.2871915332182 115.77985855507893 L 287.453212784882 110.84990120766469 Z M 288.9543745318872 119.72382443301031 L 287.9683830624043 119.89062018267755 L 288.80236181074054 124.82057753009178 L 289.7883532802234 124.65378178042454 L 288.9543745318872 119.72382443301031 Z" fill-opacity="0.6980392156862745"/><path fill="rgb(255,85,0)" stroke="none" paint-order="stroke fill markers" d=" M 274.33316844636397 35.78757386395017 C 274.1767444062619 35.78757386395017 274.02267962633766 35.860766692853794 273.9251697981068 35.99798430887279 L 272.2867783584756 38.30355874717293 C 272.16963419136016 38.468406164441035 272.163326481641 38.68758758719139 272.270796504489 38.858899060999136 C 272.3632257166589 39.00623488674936 272.5241591638703 39.093207794508565 272.6942441172626 39.09320779450857 C 272.7219216828625 39.09320779450857 272.7498415836974 39.09090472006077 272.7777480632723 39.08618390621467 L 276.7217139412037 38.419000907545694 C 276.9211121027589 38.38526961587809 277.080556997412 38.234745169857376 277.12569972030633 38.037616883102714 C 277.17084244320074 37.84048859634805 277.09279290793853 37.63557750995665 276.92794549067037 37.51843334284115 L 274.6223710523702 35.880041903209985 C 274.53449296223994 35.8175938172975 274.4333468803978 35.78757386395017 274.33316844636397 35.78757386395017 Z" fill-opacity="0.6980392156862745"/><path fill="rgb(0,100,0)" stroke="none" paint-order="stroke fill markers" d=" M 419.66950145357157 122.29203438043056 L 410.19330677659093 122.96414630858189 L 410.2994297126148 124.46038757336831 L 419.77562438959546 123.78827564521698 L 419.66950145357157 122.29203438043056 Z M 402.21335336439665 123.53013530070933 L 392.73715868741596 124.20224722886067 L 392.84328162343985 125.69848849364709 L 402.31947630042055 125.02637656549575 L 402.21335336439665 123.53013530070933 Z M 384.75720527522174 124.7682362209881 L 375.28101059824104 125.44034814913942 L 375.38713353426493 126.93658941392584 L 384.86332821124563 126.26447748577452 L 384.75720527522174 124.7682362209881 Z M 367.3010571860468 126.00633714126687 L 357.8248625090662 126.67844906941819 L 357.9309854450901 128.17469033420463 L 367.4071801220707 127.50257840605329 L 367.3010571860468 126.00633714126687 Z M 349.8449090968719 127.24443806154562 L 340.3687144198912 127.91654998969696 L 340.4748373559151 129.41279125448338 L 349.9510320328958 128.74067932633204 L 349.8449090968719 127.24443806154562 Z M 332.388761007697 128.4825389818244 L 322.91256633071634 129.15465090997574 L 323.01868926674024 130.65089217476216 L 332.4948839437209 129.97878024661082 L 332.388761007697 128.4825389818244 Z M 314.93261291852207 129.72063990210316 L 305.4564182415414 130.3927518302545 L 305.5625411775653 131.88899309504092 L 315.03873585454596 131.21688116688958 L 314.93261291852207 129.72063990210316 Z M 297.47646482934715 130.95874082238194 L 288.0002701523665 131.63085275053325 L 288.1063930883904 133.12709401531967 L 297.58258776537104 132.45498208716836 L 297.47646482934715 130.95874082238194 Z M 280.0203167401723 132.1968417426607 L 270.5441220631916 132.86895367081203 L 270.6502449992155 134.36519493559845 L 280.1264396761962 133.69308300744711 L 280.0203167401723 132.1968417426607 Z M 262.5641686509973 133.43494266293948 L 253.0879739740167 134.1070545910908 L 253.1940969100406 135.6032958558772 L 262.6702915870212 134.9311839277259 L 262.5641686509973 133.43494266293948 Z M 245.10802056182246 134.67304358321823 L 235.6318258848418 135.34515551136957 L 235.73794882086568 136.841396776156 L 245.21414349784635 136.16928484800465 L 245.10802056182246 134.67304358321823 Z M 227.65187247264754 135.911144503497 L 218.17567779566687 136.58325643164832 L 218.28180073169077 138.07949769643474 L 227.75799540867143 137.40738576828343 L 227.65187247264754 135.911144503497 Z M 210.19572438347262 137.14924542377577 L 200.71952970649198 137.8213573519271 L 200.82565264251588 139.31759861671352 L 210.30184731949652 138.6454866885622 L 210.19572438347262 137.14924542377577 Z M 192.73957629429773 138.38734634405452 L 183.26338161731707 139.05945827220586 L 183.36950455334096 140.55569953699228 L 192.84569923032163 139.88358760884094 L 192.73957629429773 138.38734634405452 Z M 175.28342820512282 139.6254472643333 L 165.80723352814215 140.29755919248464 L 165.91335646416604 141.79380045727106 L 175.3895511411467 141.12168852911972 L 175.28342820512282 139.6254472643333 Z M 157.82728011594793 140.86354818461206 L 148.35108543896723 141.5356601127634 L 148.45720837499113 143.03190137754981 L 157.93340305197182 142.35978944939848 L 157.82728011594793 140.86354818461206 Z M 140.371132026773 142.10164910489084 L 130.89493734979231 142.77376103304218 L 131.0010602858162 144.2700022978286 L 140.4772549627969 143.59789036967726 L 140.371132026773 142.10164910489084 Z M 122.91498393759808 143.3397500251696 L 113.43878926061743 144.01186195332093 L 113.54491219664132 145.50810321810735 L 123.02110687362197 144.835991289956 L 122.91498393759808 143.3397500251696 Z M 105.45883584842318 144.57785094544838 L 95.98264117144251 145.2499628735997 L 96.0887641074664 146.74620413838613 L 105.56495878444707 146.0740922102348 L 105.45883584842318 144.57785094544838 Z M 88.00268775924826 145.81595186572713 L 78.5264930822676 146.48806379387847 L 78.6326160182915 147.9843050586649 L 88.10881069527215 147.31219313051355 L 88.00268775924826 145.81595186572713 Z M 70.54653967007336 147.0540527860059 L 61.0703449930927 147.72616471415725 L 61.17646792911659 149.22240597894367 L 70.65266260609725 148.55029405079233 L 70.54653967007336 147.0540527860059 Z M 53.090391580898455 148.29215370628467 L 43.61419690391779 148.964265634436 L 43.72031983994168 150.46050689922242 L 53.19651451692235 149.78839497107109 L 53.090391580898455 148.29215370628467 Z" fill-opacity="0.6980392156862745"/><path fill="rgb(0,100,0)" stroke="none" paint-order="stroke fill markers" d=" M 427.1278640411654 118.75736667890125 C 427.0138035405412 118.75736667890125 426.8990290348168 118.78336239453232 426.7926974507603 118.83650948023438 C 426.52135683714965 118.97213205158954 426.3584312335907 119.25785199329239 426.3798925940557 119.56043854365865 L 426.8043843381513 125.54540360280434 C 426.8258456986163 125.8479901531706 427.0274675755958 126.1078540716068 427.31523400337835 126.20382121961501 C 427.39310589686875 126.22979069626959 427.4731361237214 126.24237427320016 427.5523932902534 126.24237427320016 C 427.7660216651767 126.24237427320016 427.9740336900016 126.1509534983396 428.1190262667062 125.98382318325226 L 430.89926292423127 122.77909478163161 C 431.0296118027265 122.62884399204425 431.0949350367547 122.43296619325969 431.0808622604628 122.23455226515982 C 431.06678948417095 122.03613833705994 430.97447346611676 121.85144131550516 430.82422267652936 121.72109243701 L 427.61949427490873 118.94085577948493 C 427.48015063997894 118.81996931633607 427.3048670707493 118.75736667890126 427.1278640411654 118.75736667890125 Z" fill-opacity="0.6980392156862745"/><path fill="rgb(0,100,0)" stroke="none" paint-order="stroke fill markers" d=" M 137.10834981901368 39.03059049689706 L 136.70219239734297 40.47455592197544 L 136.702192397343 40.47455592197544 L 143.74318694335457 42.45504114768668 L 144.14934436502526 41.01107572260829 L 137.1083498190137 39.03059049689706 Z M 151.85049329877663 43.17724863818541 L 151.44433587710594 44.6212140632638 L 160.58945023593574 47.19354440051165 L 160.99560765760643 45.74957897543326 L 151.85049329877663 43.17724863818541 Z M 168.6967565913578 47.91575189101038 L 168.2905991696871 49.35971731608877 L 177.43571352851689 51.93204765333659 L 177.84187095018757 50.4880822282582 L 168.6967565913578 47.91575189101038 Z M 185.54301988393897 52.654255143835336 L 185.13686246226828 54.098220568913725 L 194.28197682109803 56.67055090616156 L 194.6881342427687 55.22658548108317 L 185.54301988393897 52.654255143835336 Z M 202.38928317652014 57.39275839666029 L 201.98312575484945 58.83672382173868 L 211.1282401136792 61.409054158986514 L 211.53439753534988 59.965088733908125 L 202.38928317652014 57.39275839666029 Z M 219.23554646910125 62.131261649485246 L 218.82938904743057 63.575227074563635 L 227.97450340626037 66.14755741181148 L 228.38066082793105 64.7035919867331 L 219.23554646910125 62.131261649485246 Z M 236.08180976168242 66.86976490231021 L 235.67565234001174 68.31373032738858 L 244.82076669884154 70.88606066463643 L 245.22692412051222 69.44209523955806 L 236.08180976168242 66.86976490231021 Z M 252.9280730542636 71.60826815513516 L 252.5219156325929 73.05223358021354 L 261.6670299914226 75.62456391746137 L 262.07318741309336 74.180598492383 L 252.9280730542636 71.60826815513516 Z M 269.7743363468448 76.34677140796012 L 269.36817892517405 77.7907368330385 L 278.5132932840038 80.36306717028634 L 278.91945070567454 78.91910174520797 L 269.7743363468448 76.34677140796012 Z M 286.6205996394259 81.08527466078507 L 286.21444221775516 82.52924008586345 L 295.35955657658496 85.1015704231113 L 295.7657139982557 83.65760499803292 L 286.6205996394259 81.08527466078507 Z M 303.4668629320071 85.82377791361004 L 303.06070551033633 87.26774333868842 L 312.20581986916613 89.84007367593625 L 312.6119772908369 88.39610825085788 L 303.4668629320071 85.82377791361004 Z M 320.31312622458825 90.562281166435 L 319.9069688029175 92.00624659151337 L 329.0520831617473 94.57857692876121 L 329.45824058341805 93.13461150368283 L 320.31312622458825 90.562281166435 Z M 337.1593895171694 95.30078441925995 L 336.7532320954987 96.74474984433833 L 345.8983464543284 99.31708018158616 L 346.30450387599916 97.87311475650779 L 337.1593895171694 95.30078441925995 Z M 354.0056528097506 100.03928767208491 L 353.59949538807984 101.48325309716328 L 362.7446097469096 104.05558343441112 L 363.15076716858033 102.61161800933274 L 354.0056528097506 100.03928767208491 Z M 370.8519161023317 104.77779092490988 L 370.44575868066096 106.22175634998825 L 379.59087303949076 108.79408668723609 L 379.9970304611615 107.35012126215771 L 370.8519161023317 104.77779092490988 Z M 387.69817939491287 109.51629417773484 L 387.29202197324213 110.96025960281321 L 396.4371363320719 113.53258994006104 L 396.8432937537426 112.08862451498267 L 387.69817939491287 109.51629417773484 Z M 404.54444268749404 114.25479743055979 L 404.1382852658233 115.69876285563817 L 413.28339962465304 118.271093192886 L 413.6895570463238 116.82712776780762 L 404.54444268749404 114.25479743055979 Z M 421.3907059800752 118.99330068338475 L 420.98454855840447 120.43726610846312 L 430.1296629172342 123.00959644571095 L 430.53582033890495 121.56563102063258 L 421.3907059800752 118.99330068338475 Z" fill-opacity="0.6980392156862745"/><path fill="rgb(0,100,0)" stroke="none" paint-order="stroke fill markers" d=" M 136.99549820702765 35.91155940262898 C 136.86962489337634 35.91155940262898 136.7432176902646 35.94319918005046 136.62868270059096 36.00744644296189 L 132.92843700709273 38.083062449777245 C 132.56717804990302 38.28570706752953 132.4385957222479 38.74284123645931 132.64124034000014 39.10410019364909 L 134.7168563468155 42.804345887147264 C 134.85060342669243 43.04277970858033 135.1019241315774 43.18744532029848 135.37075485874593 43.18744532029848 C 135.4002181934781 43.18744532029848 135.42989185407583 43.18570763433182 135.45964411041092 43.18216525780235 C 135.76086328582255 43.14630136481935 136.0108185935794 42.932518808220465 136.09295626483691 42.64050405959301 L 137.71758595151977 36.86464235927946 C 137.79972362277732 36.572627610652006 137.69786804943791 36.259887975233895 137.45951432595288 36.07225345560492 C 137.3243479766658 35.96584910560081 137.16038113394734 35.91155940262898 136.99549820702765 35.91155940262898 Z" fill-opacity="0.6980392156862745"/><path fill="rgb(0,100,0)" stroke="none" paint-order="stroke fill markers" d=" M 274.0017924593557 35.61458130622221 L 265.4767150513113 39.806604109935336 L 266.1386133887397 41.15266896383709 L 274.6636907967841 36.960646160123964 L 274.0017924593557 35.61458130622221 Z M 258.29770249716864 43.336728576220075 L 249.77262508912426 47.5287513799332 L 250.43452342655266 48.87481623383495 L 258.95960083459704 44.682793430121826 L 258.29770249716864 43.336728576220075 Z M 242.5936125349816 51.05887584621794 L 234.0685351269372 55.25089864993106 L 234.7304334643656 56.59696350383281 L 243.25551087240999 52.40494070011969 L 242.5936125349816 51.05887584621794 Z M 226.88952257279453 58.7810231162158 L 218.36444516475012 62.97304591992892 L 219.02634350217852 64.31911077383067 L 227.55142091022293 60.12708797011755 L 226.88952257279453 58.7810231162158 Z M 211.18543261060745 66.50317038621367 L 202.66035520256304 70.69519318992678 L 203.32225353999144 72.04125804382852 L 211.84733094803585 67.8492352401154 L 211.18543261060745 66.50317038621367 Z M 195.48134264842042 74.22531765621153 L 186.95626524037598 78.41734045992465 L 187.61816357780438 79.76340531382638 L 196.14324098584882 75.57138251011327 L 195.48134264842042 74.22531765621153 Z M 179.77725268623334 81.94746492620939 L 171.25217527818893 86.13948772992251 L 171.91407361561733 87.48555258382424 L 180.43915102366174 83.29352978011113 L 179.77725268623334 81.94746492620939 Z M 164.07316272404626 89.66961219620725 L 155.54808531600185 93.86163499992037 L 156.20998365343024 95.2076998538221 L 164.73506106147465 91.01567705010899 L 164.07316272404626 89.66961219620725 Z M 148.3690727618592 97.39175946620512 L 139.8439953538148 101.58378226991823 L 140.5058936912432 102.92984712381997 L 149.0309710992876 98.73782432010685 L 148.3690727618592 97.39175946620512 Z M 132.66498279967212 105.11390673620298 L 124.1399053916277 109.3059295399161 L 124.8018037290561 110.65199439381783 L 133.32688113710051 106.45997159010471 L 132.66498279967212 105.11390673620298 Z M 116.96089283748509 112.83605400620083 L 108.43581542944068 117.02807680991396 L 109.09771376686908 118.37414166381569 L 117.62279117491349 114.18211886010256 L 116.96089283748509 112.83605400620083 Z M 101.256802875298 120.55820127619869 L 92.7317254672536 124.75022407991182 L 93.393623804682 126.09628893381355 L 101.9187012127264 121.90426613010042 L 101.256802875298 120.55820127619869 Z M 85.55271291311092 128.28034854619656 L 77.02763550506654 132.47237134990968 L 77.68953384249494 133.81843620381142 L 86.21461125053932 129.6264134000983 L 85.55271291311092 128.28034854619656 Z M 69.84862295092387 136.00249581619443 L 61.323545542879465 140.19451861990754 L 61.98544388030785 141.54058347380928 L 70.51052128835227 137.34856067009616 L 69.84862295092387 136.00249581619443 Z M 54.14453298873682 143.7246430861923 L 46.70147133796997 147.38460799630735 L 46.70147133796991 147.38460799630735 L 47.36336967539831 148.73067285020912 L 47.363369675398296 148.73067285020912 L 54.8064313261652 145.07070794009402 L 54.14453298873682 143.7246430861923 Z" fill-opacity="0.6980392156862745"/><path fill="rgb(0,100,0)" stroke="none" paint-order="stroke fill markers" d=" M 45.03579680646375 144.94645189784197 C 45.019727306217405 144.94645189784197 45.003585798682174 144.94696742370868 44.987392600838376 144.94801023637072 C 44.6846729761628 144.9675048328491 44.423504336729366 145.16743376811922 44.32566921039522 145.4545704925394 L 42.9573361774485 149.47049687519967 C 42.89318312207109 149.6587799476792 42.9064527681372 149.86483613771932 42.994225944978865 150.0433354355434 C 43.08199912182056 150.2218347333675 43.2370859078207 150.35815540593308 43.42536898030022 150.42230846131048 L 47.44129536296049 151.79064149425722 C 47.52058740918413 151.8176584053655 47.60221759203476 151.83075068694214 47.683065315378414 151.83075068694214 C 47.894987820113506 151.83075068694214 48.101534062678034 151.7407939063809 48.24650027710527 151.57587141993034 C 48.446770615145226 151.34803155915762 48.490073625236974 151.02198633729608 48.3562171815409 150.74977013106175 L 45.70862383182735 145.36551071545477 C 45.5819276899378 145.1078560061454 45.32013449757165 144.94645189784197 45.03579680646375 144.94645189784197 Z" fill-opacity="0.6980392156862745"/><path fill="none" stroke="rgb(102,102,102)" paint-order="fill stroke markers" d=" M 133.29535754548237 38.73717965525947 L 274.3327416280699 36.28761373317309" stroke-opacity="0.6980392156862745" stroke-linejoin="round" stroke-miterlimit="10" stroke-dasharray="9,8"/><path fill="rgb(0,0,255)" stroke="none" paint-order="stroke fill markers" d=" M 160.99999999999983 93.00000000000115 C 160.99999999999983 94.10456949966274 160.1045694996614 95.00000000000115 158.99999999999983 95.00000000000115 C 157.89543050033825 95.00000000000115 156.99999999999983 94.10456949966274 156.99999999999983 93.00000000000115 C 156.99999999999983 91.89543050033956 157.89543050033825 91.00000000000115 158.99999999999983 91.00000000000115 C 160.1045694996614 91.00000000000115 160.99999999999983 91.89543050033956 160.99999999999983 93.00000000000115 Z" fill-opacity="1"/><path fill="none" stroke="rgb(0,0,0)" paint-order="fill stroke markers" d=" M 160.99999999999983 93.00000000000115 C 160.99999999999983 94.10456949966274 160.1045694996614 95.00000000000115 158.99999999999983 95.00000000000115 C 157.89543050033825 95.00000000000115 156.99999999999983 94.10456949966274 156.99999999999983 93.00000000000115 C 156.99999999999983 91.89543050033956 157.89543050033825 91.00000000000115 158.99999999999983 91.00000000000115 C 160.1045694996614 91.00000000000115 160.99999999999983 91.89543050033956 160.99999999999983 93.00000000000115 Z" stroke-opacity="1" stroke-linecap="round" stroke-linejoin="round" stroke-miterlimit="10"/><text fill="rgb(0,0,255)" stroke="none" font-family="geogebra-sans-serif, sans-serif" font-size="16px" font-style="normal" font-weight="normal" text-decoration="normal" x="127" y="85" text-anchor="start" dominant-baseline="alphabetic" fill-opacity="1">O</text><text fill="none" stroke="rgb(255,255,255)" font-family="geogebra-sans-serif, sans-serif" font-size="16px" font-style="normal" font-weight="normal" text-decoration="normal" x="127" y="85" text-anchor="start" dominant-baseline="alphabetic" stroke-opacity="1" stroke-linejoin="bevel" stroke-miterlimit="10" stroke-width="3">O</text><text fill="rgb(0,0,255)" stroke="none" font-family="geogebra-sans-serif, sans-serif" font-size="16px" font-style="normal" font-weight="normal" text-decoration="normal" x="127" y="85" text-anchor="start" dominant-baseline="alphabetic" fill-opacity="1">O</text><text fill="rgb(0,0,255)" stroke="none" font-family="geogebra-sans-serif, sans-serif" font-size="14px" font-style="normal" font-weight="normal" text-decoration="normal" x="139" y="92" text-anchor="start" dominant-baseline="alphabetic" fill-opacity="1">1</text><text fill="none" stroke="rgb(255,255,255)" font-family="geogebra-sans-serif, sans-serif" font-size="14px" font-style="normal" font-weight="normal" text-decoration="normal" x="139" y="92" text-anchor="start" dominant-baseline="alphabetic" stroke-opacity="1" stroke-linejoin="bevel" stroke-miterlimit="10" stroke-width="3">1</text><text fill="rgb(0,0,255)" stroke="none" font-family="geogebra-sans-serif, sans-serif" font-size="14px" font-style="normal" font-weight="normal" text-decoration="normal" x="139" y="92" text-anchor="start" dominant-baseline="alphabetic" fill-opacity="1">1</text><path fill="rgb(0,0,255)" stroke="none" paint-order="stroke fill markers" d=" M 238.99999999999966 136.00000000000048 C 238.99999999999966 137.10456949966206 238.10456949966124 138.00000000000048 236.99999999999966 138.00000000000048 C 235.89543050033808 138.00000000000048 234.99999999999966 137.10456949966206 234.99999999999966 136.00000000000048 C 234.99999999999966 134.8954305003389 235.89543050033808 134.00000000000048 236.99999999999966 134.00000000000048 C 238.10456949966124 134.00000000000048 238.99999999999966 134.8954305003389 238.99999999999966 136.00000000000048 Z" fill-opacity="1"/><path fill="none" stroke="rgb(0,0,0)" paint-order="fill stroke markers" d=" M 238.99999999999966 136.00000000000048 C 238.99999999999966 137.10456949966206 238.10456949966124 138.00000000000048 236.99999999999966 138.00000000000048 C 235.89543050033808 138.00000000000048 234.99999999999966 137.10456949966206 234.99999999999966 136.00000000000048 C 234.99999999999966 134.8954305003389 235.89543050033808 134.00000000000048 236.99999999999966 134.00000000000048 C 238.10456949966124 134.00000000000048 238.99999999999966 134.8954305003389 238.99999999999966 136.00000000000048 Z" stroke-opacity="1" stroke-linecap="round" stroke-linejoin="round" stroke-miterlimit="10"/><text fill="rgb(0,0,255)" stroke="none" font-family="geogebra-sans-serif, sans-serif" font-size="16px" font-style="normal" font-weight="normal" text-decoration="normal" x="241" y="160" text-anchor="start" dominant-baseline="alphabetic" fill-opacity="1">O</text><text fill="none" stroke="rgb(255,255,255)" font-family="geogebra-sans-serif, sans-serif" font-size="16px" font-style="normal" font-weight="normal" text-decoration="normal" x="241" y="160" text-anchor="start" dominant-baseline="alphabetic" stroke-opacity="1" stroke-linejoin="bevel" stroke-miterlimit="10" stroke-width="3">O</text><text fill="rgb(0,0,255)" stroke="none" font-family="geogebra-sans-serif, sans-serif" font-size="16px" font-style="normal" font-weight="normal" text-decoration="normal" x="241" y="160" text-anchor="start" dominant-baseline="alphabetic" fill-opacity="1">O</text><text fill="rgb(0,0,255)" stroke="none" font-family="geogebra-sans-serif, sans-serif" font-size="14px" font-style="normal" font-weight="normal" text-decoration="normal" x="253" y="167" text-anchor="start" dominant-baseline="alphabetic" fill-opacity="1">2</text><text fill="none" stroke="rgb(255,255,255)" font-family="geogebra-sans-serif, sans-serif" font-size="14px" font-style="normal" font-weight="normal" text-decoration="normal" x="253" y="167" text-anchor="start" dominant-baseline="alphabetic" stroke-opacity="1" stroke-linejoin="bevel" stroke-miterlimit="10" stroke-width="3">2</text><text fill="rgb(0,0,255)" stroke="none" font-family="geogebra-sans-serif, sans-serif" font-size="14px" font-style="normal" font-weight="normal" text-decoration="normal" x="253" y="167" text-anchor="start" dominant-baseline="alphabetic" fill-opacity="1">2</text><path fill="rgb(0,0,255)" stroke="none" paint-order="stroke fill markers" d=" M 283.814049586776 80.51239669421562 C 283.814049586776 81.6169661938772 282.91861908643756 82.51239669421562 281.814049586776 82.51239669421562 C 280.7094800871144 82.51239669421562 279.814049586776 81.6169661938772 279.814049586776 80.51239669421562 C 279.814049586776 79.40782719455403 280.7094800871144 78.51239669421562 281.814049586776 78.51239669421562 C 282.91861908643756 78.51239669421562 283.814049586776 79.40782719455403 283.814049586776 80.51239669421562 Z" fill-opacity="1"/><path fill="none" stroke="rgb(0,0,0)" paint-order="fill stroke markers" d=" M 283.814049586776 80.51239669421562 C 283.814049586776 81.6169661938772 282.91861908643756 82.51239669421562 281.814049586776 82.51239669421562 C 280.7094800871144 82.51239669421562 279.814049586776 81.6169661938772 279.814049586776 80.51239669421562 C 279.814049586776 79.40782719455403 280.7094800871144 78.51239669421562 281.814049586776 78.51239669421562 C 282.91861908643756 78.51239669421562 283.814049586776 79.40782719455403 283.814049586776 80.51239669421562 Z" stroke-opacity="1" stroke-linecap="round" stroke-linejoin="round" stroke-miterlimit="10"/><text fill="rgb(0,0,255)" stroke="none" font-family="geogebra-sans-serif, sans-serif" font-size="16px" font-style="normal" font-weight="normal" text-decoration="normal" x="292" y="75" text-anchor="start" dominant-baseline="alphabetic" fill-opacity="1">O</text><text fill="none" stroke="rgb(255,255,255)" font-family="geogebra-sans-serif, sans-serif" font-size="16px" font-style="normal" font-weight="normal" text-decoration="normal" x="292" y="75" text-anchor="start" dominant-baseline="alphabetic" stroke-opacity="1" stroke-linejoin="bevel" stroke-miterlimit="10" stroke-width="3">O</text><text fill="rgb(0,0,255)" stroke="none" font-family="geogebra-sans-serif, sans-serif" font-size="16px" font-style="normal" font-weight="normal" text-decoration="normal" x="292" y="75" text-anchor="start" dominant-baseline="alphabetic" fill-opacity="1">O</text><text fill="rgb(0,0,255)" stroke="none" font-family="geogebra-sans-serif, sans-serif" font-size="14px" font-style="normal" font-weight="normal" text-decoration="normal" x="304" y="82" text-anchor="start" dominant-baseline="alphabetic" fill-opacity="1">n</text><text fill="none" stroke="rgb(255,255,255)" font-family="geogebra-sans-serif, sans-serif" font-size="14px" font-style="normal" font-weight="normal" text-decoration="normal" x="304" y="82" text-anchor="start" dominant-baseline="alphabetic" stroke-opacity="1" stroke-linejoin="bevel" stroke-miterlimit="10" stroke-width="3">n</text><text fill="rgb(0,0,255)" stroke="none" font-family="geogebra-sans-serif, sans-serif" font-size="14px" font-style="normal" font-weight="normal" text-decoration="normal" x="304" y="82" text-anchor="start" dominant-baseline="alphabetic" fill-opacity="1">n</text><path fill="none" stroke="rgb(77,77,255)" paint-order="fill stroke markers" d=" M 134.29535754548237 38.73717965525947 C 134.29535754548237 39.28946440509026 133.84764229531316 39.73717965525947 133.29535754548237 39.73717965525947 C 132.74307279565159 39.73717965525947 132.29535754548237 39.28946440509026 132.29535754548237 38.73717965525947 C 132.29535754548237 38.18489490542867 132.74307279565159 37.73717965525947 133.29535754548237 37.73717965525947 C 133.84764229531316 37.73717965525947 134.29535754548237 38.18489490542867 134.29535754548237 38.73717965525947 Z" stroke-opacity="1" stroke-linecap="square" stroke-miterlimit="10" stroke-width="0.5"/><text fill="rgb(77,77,255)" stroke="none" font-family="geogebra-sans-serif, sans-serif" font-size="16px" font-style="normal" font-weight="normal" text-decoration="normal" x="118" y="36" text-anchor="start" dominant-baseline="alphabetic" fill-opacity="1">A</text><text fill="none" stroke="rgb(255,255,255)" font-family="geogebra-sans-serif, sans-serif" font-size="16px" font-style="normal" font-weight="normal" text-decoration="normal" x="118" y="36" text-anchor="start" dominant-baseline="alphabetic" stroke-opacity="1" stroke-linejoin="bevel" stroke-miterlimit="10" stroke-width="3">A</text><text fill="rgb(77,77,255)" stroke="none" font-family="geogebra-sans-serif, sans-serif" font-size="16px" font-style="normal" font-weight="normal" text-decoration="normal" x="118" y="36" text-anchor="start" dominant-baseline="alphabetic" fill-opacity="1">A</text><path fill="none" stroke="rgb(77,77,255)" paint-order="fill stroke markers" d=" M 185.7046424545173 147.26282034474283 C 185.7046424545173 147.81510509457362 185.2569272043481 148.26282034474283 184.7046424545173 148.26282034474283 C 184.15235770468652 148.26282034474283 183.7046424545173 147.81510509457362 183.7046424545173 147.26282034474283 C 183.7046424545173 146.71053559491205 184.15235770468652 146.26282034474283 184.7046424545173 146.26282034474283 C 185.2569272043481 146.26282034474283 185.7046424545173 146.71053559491205 185.7046424545173 147.26282034474283 Z" stroke-opacity="1" stroke-linecap="square" stroke-miterlimit="10" stroke-width="0.5"/><text fill="rgb(77,77,255)" stroke="none" font-family="geogebra-sans-serif, sans-serif" font-size="16px" font-style="normal" font-weight="normal" text-decoration="normal" x="171" y="174" text-anchor="start" dominant-baseline="alphabetic" fill-opacity="1">A</text><text fill="none" stroke="rgb(255,255,255)" font-family="geogebra-sans-serif, sans-serif" font-size="16px" font-style="normal" font-weight="normal" text-decoration="normal" x="171" y="174" text-anchor="start" dominant-baseline="alphabetic" stroke-opacity="1" stroke-linejoin="bevel" stroke-miterlimit="10" stroke-width="3">A</text><text fill="rgb(77,77,255)" stroke="none" font-family="geogebra-sans-serif, sans-serif" font-size="16px" font-style="normal" font-weight="normal" text-decoration="normal" x="171" y="174" text-anchor="start" dominant-baseline="alphabetic" fill-opacity="1">A</text><text fill="rgb(77,77,255)" stroke="none" font-family="geogebra-sans-serif, sans-serif" font-size="14px" font-style="normal" font-weight="normal" text-decoration="normal" x="182" y="181" text-anchor="start" dominant-baseline="alphabetic" fill-opacity="1">1</text><text fill="none" stroke="rgb(255,255,255)" font-family="geogebra-sans-serif, sans-serif" font-size="14px" font-style="normal" font-weight="normal" text-decoration="normal" x="182" y="181" text-anchor="start" dominant-baseline="alphabetic" stroke-opacity="1" stroke-linejoin="bevel" stroke-miterlimit="10" stroke-width="3">1</text><text fill="rgb(77,77,255)" stroke="none" font-family="geogebra-sans-serif, sans-serif" font-size="14px" font-style="normal" font-weight="normal" text-decoration="normal" x="182" y="181" text-anchor="start" dominant-baseline="alphabetic" fill-opacity="1">1</text><path fill="none" stroke="rgb(77,77,255)" paint-order="fill stroke markers" d=" M 290.295357545482 124.73717965525816 C 290.295357545482 125.28946440508895 289.84764229531277 125.73717965525816 289.295357545482 125.73717965525816 C 288.7430727956512 125.73717965525816 288.295357545482 125.28946440508895 288.295357545482 124.73717965525816 C 288.295357545482 124.18489490542737 288.7430727956512 123.73717965525816 289.295357545482 123.73717965525816 C 289.84764229531277 123.73717965525816 290.295357545482 124.18489490542737 290.295357545482 124.73717965525816 Z" stroke-opacity="1" stroke-linecap="square" stroke-miterlimit="10" stroke-width="0.5"/><text fill="rgb(77,77,255)" stroke="none" font-family="geogebra-sans-serif, sans-serif" font-size="16px" font-style="normal" font-weight="normal" text-decoration="normal" x="306" y="146" text-anchor="start" dominant-baseline="alphabetic" fill-opacity="1">A</text><text fill="none" stroke="rgb(255,255,255)" font-family="geogebra-sans-serif, sans-serif" font-size="16px" font-style="normal" font-weight="normal" text-decoration="normal" x="306" y="146" text-anchor="start" dominant-baseline="alphabetic" stroke-opacity="1" stroke-linejoin="bevel" stroke-miterlimit="10" stroke-width="3">A</text><text fill="rgb(77,77,255)" stroke="none" font-family="geogebra-sans-serif, sans-serif" font-size="16px" font-style="normal" font-weight="normal" text-decoration="normal" x="306" y="146" text-anchor="start" dominant-baseline="alphabetic" fill-opacity="1">A</text><text fill="rgb(77,77,255)" stroke="none" font-family="geogebra-sans-serif, sans-serif" font-size="14px" font-style="normal" font-weight="normal" text-decoration="normal" x="317" y="153" text-anchor="start" dominant-baseline="alphabetic" fill-opacity="1">n-1</text><text fill="none" stroke="rgb(255,255,255)" font-family="geogebra-sans-serif, sans-serif" font-size="14px" font-style="normal" font-weight="normal" text-decoration="normal" x="317" y="153" text-anchor="start" dominant-baseline="alphabetic" stroke-opacity="1" stroke-linejoin="bevel" stroke-miterlimit="10" stroke-width="3">n-1</text><text fill="rgb(77,77,255)" stroke="none" font-family="geogebra-sans-serif, sans-serif" font-size="14px" font-style="normal" font-weight="normal" text-decoration="normal" x="317" y="153" text-anchor="start" dominant-baseline="alphabetic" fill-opacity="1">n-1</text><path fill="none" stroke="rgb(77,77,255)" paint-order="fill stroke markers" d=" M 275.3327416280699 36.28761373317309 C 275.3327416280699 36.83989848300388 274.8850263779007 37.28761373317309 274.3327416280699 37.28761373317309 C 273.78045687823914 37.28761373317309 273.3327416280699 36.83989848300388 273.3327416280699 36.28761373317309 C 273.3327416280699 35.73532898334229 273.78045687823914 35.28761373317309 274.3327416280699 35.28761373317309 C 274.8850263779007 35.28761373317309 275.3327416280699 35.73532898334229 275.3327416280699 36.28761373317309 Z" stroke-opacity="1" stroke-linecap="square" stroke-miterlimit="10" stroke-width="0.5"/><text fill="rgb(77,77,255)" stroke="none" font-family="geogebra-sans-serif, sans-serif" font-size="16px" font-style="normal" font-weight="normal" text-decoration="normal" x="270" y="31" text-anchor="start" dominant-baseline="alphabetic" fill-opacity="1">A</text><text fill="none" stroke="rgb(255,255,255)" font-family="geogebra-sans-serif, sans-serif" font-size="16px" font-style="normal" font-weight="normal" text-decoration="normal" x="270" y="31" text-anchor="start" dominant-baseline="alphabetic" stroke-opacity="1" stroke-linejoin="bevel" stroke-miterlimit="10" stroke-width="3">A</text><text fill="rgb(77,77,255)" stroke="none" font-family="geogebra-sans-serif, sans-serif" font-size="16px" font-style="normal" font-weight="normal" text-decoration="normal" x="270" y="31" text-anchor="start" dominant-baseline="alphabetic" fill-opacity="1">A</text><text fill="rgb(77,77,255)" stroke="none" font-family="geogebra-sans-serif, sans-serif" font-size="14px" font-style="normal" font-weight="normal" text-decoration="normal" x="281" y="38" text-anchor="start" dominant-baseline="alphabetic" fill-opacity="1">n</text><text fill="none" stroke="rgb(255,255,255)" font-family="geogebra-sans-serif, sans-serif" font-size="14px" font-style="normal" font-weight="normal" text-decoration="normal" x="281" y="38" text-anchor="start" dominant-baseline="alphabetic" stroke-opacity="1" stroke-linejoin="bevel" stroke-miterlimit="10" stroke-width="3">n</text><text fill="rgb(77,77,255)" stroke="none" font-family="geogebra-sans-serif, sans-serif" font-size="14px" font-style="normal" font-weight="normal" text-decoration="normal" x="281" y="38" text-anchor="start" dominant-baseline="alphabetic" fill-opacity="1">n</text><path fill="none" stroke="rgb(77,77,255)" paint-order="fill stroke markers" d=" M 44.667258371929734 149.7123862668292 C 44.667258371929734 150.26467101666 44.21954312176052 150.7123862668292 43.667258371929734 150.7123862668292 C 43.11497362209894 150.7123862668292 42.667258371929734 150.26467101666 42.667258371929734 149.7123862668292 C 42.667258371929734 149.16010151699842 43.11497362209894 148.7123862668292 43.667258371929734 148.7123862668292 C 44.21954312176052 148.7123862668292 44.667258371929734 149.16010151699842 44.667258371929734 149.7123862668292 Z" stroke-opacity="1" stroke-linecap="square" stroke-miterlimit="10" stroke-width="0.5"/><text fill="rgb(77,77,255)" stroke="none" font-family="geogebra-sans-serif, sans-serif" font-size="16px" font-style="normal" font-weight="normal" text-decoration="normal" x="24" y="128" text-anchor="start" dominant-baseline="alphabetic" fill-opacity="1">A</text><text fill="none" stroke="rgb(255,255,255)" font-family="geogebra-sans-serif, sans-serif" font-size="16px" font-style="normal" font-weight="normal" text-decoration="normal" x="24" y="128" text-anchor="start" dominant-baseline="alphabetic" stroke-opacity="1" stroke-linejoin="bevel" stroke-miterlimit="10" stroke-width="3">A</text><text fill="rgb(77,77,255)" stroke="none" font-family="geogebra-sans-serif, sans-serif" font-size="16px" font-style="normal" font-weight="normal" text-decoration="normal" x="24" y="128" text-anchor="start" dominant-baseline="alphabetic" fill-opacity="1">A</text><text fill="rgb(77,77,255)" stroke="none" font-family="geogebra-sans-serif, sans-serif" font-size="14px" font-style="normal" font-weight="normal" text-decoration="normal" x="35" y="135" text-anchor="start" dominant-baseline="alphabetic" fill-opacity="1">n+1</text><text fill="none" stroke="rgb(255,255,255)" font-family="geogebra-sans-serif, sans-serif" font-size="14px" font-style="normal" font-weight="normal" text-decoration="normal" x="35" y="135" text-anchor="start" dominant-baseline="alphabetic" stroke-opacity="1" stroke-linejoin="bevel" stroke-miterlimit="10" stroke-width="3">n+1</text><text fill="rgb(77,77,255)" stroke="none" font-family="geogebra-sans-serif, sans-serif" font-size="14px" font-style="normal" font-weight="normal" text-decoration="normal" x="35" y="135" text-anchor="start" dominant-baseline="alphabetic" fill-opacity="1">n+1</text><path fill="none" stroke="rgb(77,77,255)" paint-order="fill stroke markers" d=" M 431.3327416280696 122.28761373317177 C 431.3327416280696 122.83989848300256 430.8850263779004 123.28761373317177 430.3327416280696 123.28761373317177 C 429.7804568782388 123.28761373317177 429.3327416280696 122.83989848300256 429.3327416280696 122.28761373317177 C 429.3327416280696 121.73532898334098 429.7804568782388 121.28761373317177 430.3327416280696 121.28761373317177 C 430.8850263779004 121.28761373317177 431.3327416280696 121.73532898334098 431.3327416280696 122.28761373317177 Z" stroke-opacity="1" stroke-linecap="square" stroke-miterlimit="10" stroke-width="0.5"/><text fill="rgb(77,77,255)" stroke="none" font-family="geogebra-sans-serif, sans-serif" font-size="16px" font-style="normal" font-weight="normal" text-decoration="normal" x="416" y="105" text-anchor="start" dominant-baseline="alphabetic" fill-opacity="1">A</text><text fill="none" stroke="rgb(255,255,255)" font-family="geogebra-sans-serif, sans-serif" font-size="16px" font-style="normal" font-weight="normal" text-decoration="normal" x="416" y="105" text-anchor="start" dominant-baseline="alphabetic" stroke-opacity="1" stroke-linejoin="bevel" stroke-miterlimit="10" stroke-width="3">A</text><text fill="rgb(77,77,255)" stroke="none" font-family="geogebra-sans-serif, sans-serif" font-size="16px" font-style="normal" font-weight="normal" text-decoration="normal" x="416" y="105" text-anchor="start" dominant-baseline="alphabetic" fill-opacity="1">A</text><text fill="rgb(77,77,255)" stroke="none" font-family="geogebra-sans-serif, sans-serif" font-size="14px" font-style="normal" font-weight="normal" text-decoration="normal" x="427" y="112" text-anchor="start" dominant-baseline="alphabetic" fill-opacity="1">2n-1</text><text fill="none" stroke="rgb(255,255,255)" font-family="geogebra-sans-serif, sans-serif" font-size="14px" font-style="normal" font-weight="normal" text-decoration="normal" x="427" y="112" text-anchor="start" dominant-baseline="alphabetic" stroke-opacity="1" stroke-linejoin="bevel" stroke-miterlimit="10" stroke-width="3">2n-1</text><text fill="rgb(77,77,255)" stroke="none" font-family="geogebra-sans-serif, sans-serif" font-size="14px" font-style="normal" font-weight="normal" text-decoration="normal" x="427" y="112" text-anchor="start" dominant-baseline="alphabetic" fill-opacity="1">2n-1</text><path fill="rgb(0,0,255)" stroke="none" paint-order="stroke fill markers" d=" M 205.81404958677618 37.51239669421628 C 205.81404958677618 38.616966193877865 204.91861908643776 39.51239669421628 203.81404958677618 39.51239669421628 C 202.7094800871146 39.51239669421628 201.81404958677618 38.616966193877865 201.81404958677618 37.51239669421628 C 201.81404958677618 36.40782719455469 202.7094800871146 35.51239669421628 203.81404958677618 35.51239669421628 C 204.91861908643776 35.51239669421628 205.81404958677618 36.40782719455469 205.81404958677618 37.51239669421628 Z" fill-opacity="1"/><path fill="none" stroke="rgb(0,0,0)" paint-order="fill stroke markers" d=" M 205.81404958677618 37.51239669421628 C 205.81404958677618 38.616966193877865 204.91861908643776 39.51239669421628 203.81404958677618 39.51239669421628 C 202.7094800871146 39.51239669421628 201.81404958677618 38.616966193877865 201.81404958677618 37.51239669421628 C 201.81404958677618 36.40782719455469 202.7094800871146 35.51239669421628 203.81404958677618 35.51239669421628 C 204.91861908643776 35.51239669421628 205.81404958677618 36.40782719455469 205.81404958677618 37.51239669421628 Z" stroke-opacity="1" stroke-linecap="round" stroke-linejoin="round" stroke-miterlimit="10"/><text fill="rgb(0,0,255)" stroke="none" font-family="geogebra-sans-serif, sans-serif" font-size="16px" font-style="normal" font-weight="normal" text-decoration="normal" x="193" y="26" text-anchor="start" dominant-baseline="alphabetic" fill-opacity="1">O</text><text fill="none" stroke="rgb(255,255,255)" font-family="geogebra-sans-serif, sans-serif" font-size="16px" font-style="normal" font-weight="normal" text-decoration="normal" x="193" y="26" text-anchor="start" dominant-baseline="alphabetic" stroke-opacity="1" stroke-linejoin="bevel" stroke-miterlimit="10" stroke-width="3">O</text><text fill="rgb(0,0,255)" stroke="none" font-family="geogebra-sans-serif, sans-serif" font-size="16px" font-style="normal" font-weight="normal" text-decoration="normal" x="193" y="26" text-anchor="start" dominant-baseline="alphabetic" fill-opacity="1">O</text></g></g></svg>