<svg version="1.1" xmlns="http://www.w3.org/2000/svg" xmlns:xlink="http://www.w3.org/1999/xlink" width="447" height="297"><defs><clipPath id="aBaTfcSHPvFD"><path fill="none" stroke="none" d=" M 0 0 L 447 0 L 447 297 L 0 297 L 0 0 Z"/></clipPath></defs><g transform="scale(1,1)" clip-path="url(#aBaTfcSHPvFD)"><g><rect fill="rgb(255,255,255)" stroke="none" x="0" y="0" width="447" height="297" fill-opacity="1"/><path fill="none" stroke="rgb(0,153,255)" paint-order="fill stroke markers" d=" M 227.0000000000004 185.49999999999986 C 227.0000000000004 240.72847498307928 182.22847498307965 285.50000000000006 127.00000000000021 285.50000000000006 C 71.77152501692078 285.50000000000006 27.000000000000014 240.72847498307928 27.000000000000014 185.49999999999986 C 27.000000000000014 130.2715250169204 71.77152501692078 85.49999999999966 127.00000000000021 85.49999999999966 C 182.22847498307965 85.49999999999966 227.0000000000004 130.2715250169204 227.0000000000004 185.49999999999986 Z" stroke-opacity="0.6980392156862745" stroke-linecap="round" stroke-linejoin="round" stroke-miterlimit="10"/><g transform="scale(19,19)"><g transform="translate(2.4210526315789473,5.220473684210527)"><path fill="rgb(0,153,255)" stroke="none" paint-order="stroke fill markers" d=" M 0.264 -0.082 Q 0.201 0.011 0.11900000000000001 0.011 Q 0.032 0.011 0.016 -0.089 Q 0.013000000000000001 -0.109 0.013000000000000001 -0.131 Q 0.013000000000000001 -0.22 0.051000000000000004 -0.311 Q 0.082 -0.382 0.112 -0.419 Q 0.122 -0.431 0.127 -0.431 Q 0.139 -0.431 0.139 -0.419 Q 0.139 -0.41400000000000003 0.129 -0.4 Q 0.045 -0.28 0.045 -0.17500000000000002 Q 0.045 -0.08 0.109 -0.064 Q 0.12 -0.061 0.133 -0.061 Q 0.201 -0.061 0.257 -0.138 Q 0.264 -0.145 0.266 -0.165 Q 0.276 -0.23800000000000002 0.28700000000000003 -0.266 Q 0.3 -0.291 0.315 -0.291 Q 0.334 -0.291 0.336 -0.268 Q 0.336 -0.24 0.308 -0.168 Q 0.306 -0.161 0.303 -0.155 Q 0.297 -0.14400000000000002 0.297 -0.139 Q 0.297 -0.111 0.317 -0.084 Q 0.335 -0.061 0.372 -0.061 Q 0.449 -0.061 0.511 -0.14400000000000002 Q 0.562 -0.214 0.562 -0.28 Q 0.562 -0.331 0.527 -0.367 Q 0.512 -0.38 0.512 -0.394 Q 0.512 -0.419 0.539 -0.435 Q 0.55 -0.442 0.562 -0.442 Q 0.599 -0.442 0.604 -0.388 Q 0.605 -0.377 0.605 -0.371 Q 0.605 -0.307 0.5750000000000001 -0.213 Q 0.55 -0.136 0.511 -0.082 Q 0.443 0.011 0.358 0.011 Q 0.277 0.011 0.264 -0.082 Z"/></g><g transform="translate(3.0430526315789472,5.370473684210527) scale(0.7,0.7)"><path fill="rgb(0,153,255)" stroke="none" paint-order="stroke fill markers" d=" M 0.294 -0.64 L 0.294 -0.079 Q 0.294 -0.049 0.306 -0.041 Q 0.323 -0.031 0.387 -0.031 L 0.419 -0.031 L 0.419 0 Q 0.384 -0.003 0.257 -0.003 Q 0.13 -0.003 0.095 0 L 0.095 -0.031 L 0.127 -0.031 Q 0.20400000000000001 -0.031 0.215 -0.049 L 0.216 -0.05 Q 0.22 -0.058 0.22 -0.079 L 0.22 -0.597 Q 0.168 -0.5710000000000001 0.089 -0.5710000000000001 L 0.089 -0.602 Q 0.209 -0.602 0.271 -0.666 Q 0.29 -0.666 0.293 -0.659 L 0.293 -0.659 L 0.293 -0.658 Q 0.294 -0.655 0.294 -0.64 Z"/></g></g><path fill="none" stroke="rgb(0,153,255)" paint-order="fill stroke markers" d=" M 402.0000000000008 135.49999999999977 C 402.0000000000008 176.92135623730934 368.4213562373102 210.49999999999991 327.0000000000006 210.49999999999991 C 285.57864376269106 210.49999999999991 252.00000000000048 176.92135623730934 252.00000000000048 135.49999999999977 C 252.00000000000048 94.07864376269019 285.57864376269106 60.49999999999963 327.0000000000006 60.49999999999963 C 368.4213562373102 60.49999999999963 402.0000000000008 94.07864376269019 402.0000000000008 135.49999999999977 Z" stroke-opacity="0.6980392156862745" stroke-linecap="round" stroke-linejoin="round" stroke-miterlimit="10"/><g transform="scale(19,19)"><g transform="translate(15.421052631578947,2.799421052631579)"><path fill="rgb(0,153,255)" stroke="none" paint-order="stroke fill markers" d=" M 0.264 -0.082 Q 0.201 0.011 0.11900000000000001 0.011 Q 0.032 0.011 0.016 -0.089 Q 0.013000000000000001 -0.109 0.013000000000000001 -0.131 Q 0.013000000000000001 -0.22 0.051000000000000004 -0.311 Q 0.082 -0.382 0.112 -0.419 Q 0.122 -0.431 0.127 -0.431 Q 0.139 -0.431 0.139 -0.419 Q 0.139 -0.41400000000000003 0.129 -0.4 Q 0.045 -0.28 0.045 -0.17500000000000002 Q 0.045 -0.08 0.109 -0.064 Q 0.12 -0.061 0.133 -0.061 Q 0.201 -0.061 0.257 -0.138 Q 0.264 -0.145 0.266 -0.165 Q 0.276 -0.23800000000000002 0.28700000000000003 -0.266 Q 0.3 -0.291 0.315 -0.291 Q 0.334 -0.291 0.336 -0.268 Q 0.336 -0.24 0.308 -0.168 Q 0.306 -0.161 0.303 -0.155 Q 0.297 -0.14400000000000002 0.297 -0.139 Q 0.297 -0.111 0.317 -0.084 Q 0.335 -0.061 0.372 -0.061 Q 0.449 -0.061 0.511 -0.14400000000000002 Q 0.562 -0.214 0.562 -0.28 Q 0.562 -0.331 0.527 -0.367 Q 0.512 -0.38 0.512 -0.394 Q 0.512 -0.419 0.539 -0.435 Q 0.55 -0.442 0.562 -0.442 Q 0.599 -0.442 0.604 -0.388 Q 0.605 -0.377 0.605 -0.371 Q 0.605 -0.307 0.5750000000000001 -0.213 Q 0.55 -0.136 0.511 -0.082 Q 0.443 0.011 0.358 0.011 Q 0.277 0.011 0.264 -0.082 Z"/></g><g transform="translate(16.04305263157895,2.9494210526315787) scale(0.7,0.7)"><path fill="rgb(0,153,255)" stroke="none" paint-order="stroke fill markers" d=" M 0.449 -0.17400000000000002 L 0.449 -0.17400000000000002 L 0.421 0 L 0.05 0 Q 0.05 -0.025 0.056 -0.032 L 0.061 -0.037 L 0.253 -0.251 Q 0.358 -0.369 0.358 -0.47200000000000003 Q 0.358 -0.561 0.304 -0.607 L 0.303 -0.608 L 0.302 -0.608 Q 0.27 -0.635 0.224 -0.635 Q 0.152 -0.635 0.109 -0.5730000000000001 Q 0.097 -0.555 0.089 -0.533 Q 0.092 -0.534 0.10200000000000001 -0.534 Q 0.14200000000000002 -0.534 0.153 -0.498 L 0.153 -0.497 Q 0.155 -0.49 0.155 -0.482 Q 0.155 -0.442 0.117 -0.431 Q 0.109 -0.429 0.10300000000000001 -0.429 Q 0.066 -0.429 0.054 -0.46 Q 0.05 -0.47100000000000003 0.05 -0.485 Q 0.05 -0.562 0.109 -0.617 Q 0.162 -0.666 0.23700000000000002 -0.666 Q 0.34700000000000003 -0.666 0.40800000000000003 -0.592 Q 0.443 -0.549 0.448 -0.49 Q 0.449 -0.481 0.449 -0.47200000000000003 Q 0.449 -0.399 0.394 -0.333 Q 0.365 -0.299 0.304 -0.243 L 0.243 -0.189 L 0.233 -0.18 L 0.127 -0.077 L 0.307 -0.077 Q 0.395 -0.077 0.402 -0.085 Q 0.41200000000000003 -0.099 0.424 -0.17400000000000002 L 0.449 -0.17400000000000002 Z"/></g></g><path fill="none" stroke="rgb(255,85,0)" paint-order="fill stroke markers" d=" M 90.66750419289214 92.33375209644569 L 265.6675041928925 92.33375209644569" stroke-opacity="0.6980392156862745" stroke-linecap="round" stroke-linejoin="round" stroke-miterlimit="10"/><g transform="scale(19,19)"><g transform="translate(8,1.6413684210526314)"><path fill="rgb(0,100,0)" stroke="none" paint-order="stroke fill markers" d=" M 0.016 -0.099 L 0.016 -0.099 L 0.093 -0.17200000000000001 Q 0.093 -0.338 0.17200000000000001 -0.517 Q 0.223 -0.634 0.28300000000000003 -0.682 Q 0.312 -0.705 0.339 -0.705 Q 0.398 -0.705 0.398 -0.627 Q 0.398 -0.47300000000000003 0.226 -0.277 Q 0.201 -0.248 0.17500000000000002 -0.222 Q 0.159 -0.20600000000000002 0.153 -0.197 Q 0.148 -0.189 0.148 -0.14 Q 0.148 -0.01 0.209 -0.01 Q 0.26 -0.01 0.339 -0.088 Q 0.34900000000000003 -0.097 0.352 -0.097 Q 0.362 -0.097 0.364 -0.085 Q 0.364 -0.073 0.31 -0.031 L 0.31 -0.031 Q 0.306 -0.028 0.303 -0.026000000000000002 Q 0.25 0.012 0.20700000000000002 0.012 Q 0.114 0.012 0.095 -0.14100000000000001 Q 0.075 -0.121 0.059000000000000004 -0.107 Q 0.028 -0.076 0.023 -0.076 Q 0.015 -0.076 0.011 -0.089 Q 0.011 -0.092 0.016 -0.099 M 0.158 -0.23900000000000002 Q 0.374 -0.464 0.374 -0.631 Q 0.374 -0.683 0.34 -0.683 Q 0.31 -0.683 0.279 -0.626 L 0.278 -0.625 L 0.26 -0.589 Q 0.20400000000000001 -0.47400000000000003 0.159 -0.244 L 0.159 -0.243 Q 0.158 -0.24 0.158 -0.23900000000000002 Z"/></g></g><path fill="none" stroke="rgb(0,100,0)" paint-order="fill stroke markers" d=" M 27.000000000000032 35.499999999999545 L 427.00000000000085 35.499999999999545" stroke-opacity="0.6980392156862745" stroke-linecap="round" stroke-linejoin="round" stroke-miterlimit="10"/><path fill="rgb(0,0,255)" stroke="none" paint-order="stroke fill markers" d=" M 129.00000000000023 185.49999999999986 C 129.00000000000023 186.60456949966144 128.1045694996618 187.49999999999986 127.00000000000021 187.49999999999986 C 125.89543050033862 187.49999999999986 125.00000000000021 186.60456949966144 125.00000000000021 185.49999999999986 C 125.00000000000021 184.39543050033828 125.89543050033862 183.49999999999986 127.00000000000021 183.49999999999986 C 128.1045694996618 183.49999999999986 129.00000000000023 184.39543050033828 129.00000000000023 185.49999999999986 Z" fill-opacity="1"/><path fill="none" stroke="rgb(0,0,0)" paint-order="fill stroke markers" d=" M 129.00000000000023 185.49999999999986 C 129.00000000000023 186.60456949966144 128.1045694996618 187.49999999999986 127.00000000000021 187.49999999999986 C 125.89543050033862 187.49999999999986 125.00000000000021 186.60456949966144 125.00000000000021 185.49999999999986 C 125.00000000000021 184.39543050033828 125.89543050033862 183.49999999999986 127.00000000000021 183.49999999999986 C 128.1045694996618 183.49999999999986 129.00000000000023 184.39543050033828 129.00000000000023 185.49999999999986 Z" stroke-opacity="1" stroke-linecap="round" stroke-linejoin="round" stroke-miterlimit="10"/><text fill="rgb(0,0,255)" stroke="none" font-family="geogebra-sans-serif, sans-serif" font-size="16px" font-style="normal" font-weight="normal" text-decoration="normal" x="128" y="206" text-anchor="start" dominant-baseline="alphabetic" fill-opacity="1">O</text><text fill="none" stroke="rgb(255,255,255)" font-family="geogebra-sans-serif, sans-serif" font-size="16px" font-style="normal" font-weight="normal" text-decoration="normal" x="128" y="206" text-anchor="start" dominant-baseline="alphabetic" stroke-opacity="1" stroke-linejoin="bevel" stroke-miterlimit="10" stroke-width="3">O</text><text fill="rgb(0,0,255)" stroke="none" font-family="geogebra-sans-serif, sans-serif" font-size="16px" font-style="normal" font-weight="normal" text-decoration="normal" x="128" y="206" text-anchor="start" dominant-baseline="alphabetic" fill-opacity="1">O</text><text fill="rgb(0,0,255)" stroke="none" font-family="geogebra-sans-serif, sans-serif" font-size="14px" font-style="normal" font-weight="normal" text-decoration="normal" x="140" y="213" text-anchor="start" dominant-baseline="alphabetic" fill-opacity="1">1</text><text fill="none" stroke="rgb(255,255,255)" font-family="geogebra-sans-serif, sans-serif" font-size="14px" font-style="normal" font-weight="normal" text-decoration="normal" x="140" y="213" text-anchor="start" dominant-baseline="alphabetic" stroke-opacity="1" stroke-linejoin="bevel" stroke-miterlimit="10" stroke-width="3">1</text><text fill="rgb(0,0,255)" stroke="none" font-family="geogebra-sans-serif, sans-serif" font-size="14px" font-style="normal" font-weight="normal" text-decoration="normal" x="140" y="213" text-anchor="start" dominant-baseline="alphabetic" fill-opacity="1">1</text><path fill="rgb(0,0,255)" stroke="none" paint-order="stroke fill markers" d=" M 329.0000000000006 135.49999999999977 C 329.0000000000006 136.60456949966135 328.1045694996622 137.49999999999977 327.0000000000006 137.49999999999977 C 325.89543050033905 137.49999999999977 325.0000000000006 136.60456949966135 325.0000000000006 135.49999999999977 C 325.0000000000006 134.3954305003382 325.89543050033905 133.49999999999977 327.0000000000006 133.49999999999977 C 328.1045694996622 133.49999999999977 329.0000000000006 134.3954305003382 329.0000000000006 135.49999999999977 Z" fill-opacity="1"/><path fill="none" stroke="rgb(0,0,0)" paint-order="fill stroke markers" d=" M 329.0000000000006 135.49999999999977 C 329.0000000000006 136.60456949966135 328.1045694996622 137.49999999999977 327.0000000000006 137.49999999999977 C 325.89543050033905 137.49999999999977 325.0000000000006 136.60456949966135 325.0000000000006 135.49999999999977 C 325.0000000000006 134.3954305003382 325.89543050033905 133.49999999999977 327.0000000000006 133.49999999999977 C 328.1045694996622 133.49999999999977 329.0000000000006 134.3954305003382 329.0000000000006 135.49999999999977 Z" stroke-opacity="1" stroke-linecap="round" stroke-linejoin="round" stroke-miterlimit="10"/><text fill="rgb(0,0,255)" stroke="none" font-family="geogebra-sans-serif, sans-serif" font-size="16px" font-style="normal" font-weight="normal" text-decoration="normal" x="331" y="131" text-anchor="start" dominant-baseline="alphabetic" fill-opacity="1">O</text><text fill="none" stroke="rgb(255,255,255)" font-family="geogebra-sans-serif, sans-serif" font-size="16px" font-style="normal" font-weight="normal" text-decoration="normal" x="331" y="131" text-anchor="start" dominant-baseline="alphabetic" stroke-opacity="1" stroke-linejoin="bevel" stroke-miterlimit="10" stroke-width="3">O</text><text fill="rgb(0,0,255)" stroke="none" font-family="geogebra-sans-serif, sans-serif" font-size="16px" font-style="normal" font-weight="normal" text-decoration="normal" x="331" y="131" text-anchor="start" dominant-baseline="alphabetic" fill-opacity="1">O</text><text fill="rgb(0,0,255)" stroke="none" font-family="geogebra-sans-serif, sans-serif" font-size="14px" font-style="normal" font-weight="normal" text-decoration="normal" x="343" y="138" text-anchor="start" dominant-baseline="alphabetic" fill-opacity="1">2</text><text fill="none" stroke="rgb(255,255,255)" font-family="geogebra-sans-serif, sans-serif" font-size="14px" font-style="normal" font-weight="normal" text-decoration="normal" x="343" y="138" text-anchor="start" dominant-baseline="alphabetic" stroke-opacity="1" stroke-linejoin="bevel" stroke-miterlimit="10" stroke-width="3">2</text><text fill="rgb(0,0,255)" stroke="none" font-family="geogebra-sans-serif, sans-serif" font-size="14px" font-style="normal" font-weight="normal" text-decoration="normal" x="343" y="138" text-anchor="start" dominant-baseline="alphabetic" fill-opacity="1">2</text><path fill="rgb(0,0,255)" stroke="none" paint-order="stroke fill markers" d=" M 267.6675041928925 92.33375209644569 C 267.6675041928925 93.43832159610727 266.7720736925541 94.33375209644569 265.6675041928925 94.33375209644569 C 264.56293469323094 94.33375209644569 263.6675041928925 93.43832159610727 263.6675041928925 92.33375209644569 C 263.6675041928925 91.2291825967841 264.56293469323094 90.33375209644569 265.6675041928925 90.33375209644569 C 266.7720736925541 90.33375209644569 267.6675041928925 91.2291825967841 267.6675041928925 92.33375209644569 Z" fill-opacity="1"/><path fill="none" stroke="rgb(0,0,0)" paint-order="fill stroke markers" d=" M 267.6675041928925 92.33375209644569 C 267.6675041928925 93.43832159610727 266.7720736925541 94.33375209644569 265.6675041928925 94.33375209644569 C 264.56293469323094 94.33375209644569 263.6675041928925 93.43832159610727 263.6675041928925 92.33375209644569 C 263.6675041928925 91.2291825967841 264.56293469323094 90.33375209644569 265.6675041928925 90.33375209644569 C 266.7720736925541 90.33375209644569 267.6675041928925 91.2291825967841 267.6675041928925 92.33375209644569 Z" stroke-opacity="1" stroke-linecap="round" stroke-linejoin="round" stroke-miterlimit="10"/><text fill="rgb(0,0,255)" stroke="none" font-family="geogebra-sans-serif, sans-serif" font-size="16px" font-style="normal" font-weight="normal" text-decoration="normal" x="253" y="82" text-anchor="start" dominant-baseline="alphabetic" fill-opacity="1">B</text><text fill="none" stroke="rgb(255,255,255)" font-family="geogebra-sans-serif, sans-serif" font-size="16px" font-style="normal" font-weight="normal" text-decoration="normal" x="253" y="82" text-anchor="start" dominant-baseline="alphabetic" stroke-opacity="1" stroke-linejoin="bevel" stroke-miterlimit="10" stroke-width="3">B</text><text fill="rgb(0,0,255)" stroke="none" font-family="geogebra-sans-serif, sans-serif" font-size="16px" font-style="normal" font-weight="normal" text-decoration="normal" x="253" y="82" text-anchor="start" dominant-baseline="alphabetic" fill-opacity="1">B</text><path fill="rgb(0,0,255)" stroke="none" paint-order="stroke fill markers" d=" M 92.66750419289214 92.33375209644569 C 92.66750419289214 93.43832159610727 91.77207369255373 94.33375209644569 90.66750419289214 94.33375209644569 C 89.56293469323055 94.33375209644569 88.66750419289214 93.43832159610727 88.66750419289214 92.33375209644569 C 88.66750419289214 91.2291825967841 89.56293469323055 90.33375209644569 90.66750419289214 90.33375209644569 C 91.77207369255373 90.33375209644569 92.66750419289214 91.2291825967841 92.66750419289214 92.33375209644569 Z" fill-opacity="1"/><path fill="none" stroke="rgb(0,0,0)" paint-order="fill stroke markers" d=" M 92.66750419289214 92.33375209644569 C 92.66750419289214 93.43832159610727 91.77207369255373 94.33375209644569 90.66750419289214 94.33375209644569 C 89.56293469323055 94.33375209644569 88.66750419289214 93.43832159610727 88.66750419289214 92.33375209644569 C 88.66750419289214 91.2291825967841 89.56293469323055 90.33375209644569 90.66750419289214 90.33375209644569 C 91.77207369255373 90.33375209644569 92.66750419289214 91.2291825967841 92.66750419289214 92.33375209644569 Z" stroke-opacity="1" stroke-linecap="round" stroke-linejoin="round" stroke-miterlimit="10"/><text fill="rgb(0,0,255)" stroke="none" font-family="geogebra-sans-serif, sans-serif" font-size="16px" font-style="normal" font-weight="normal" text-decoration="normal" x="85" y="82" text-anchor="start" dominant-baseline="alphabetic" fill-opacity="1">A</text><text fill="none" stroke="rgb(255,255,255)" font-family="geogebra-sans-serif, sans-serif" font-size="16px" font-style="normal" font-weight="normal" text-decoration="normal" x="85" y="82" text-anchor="start" dominant-baseline="alphabetic" stroke-opacity="1" stroke-linejoin="bevel" stroke-miterlimit="10" stroke-width="3">A</text><text fill="rgb(0,0,255)" stroke="none" font-family="geogebra-sans-serif, sans-serif" font-size="16px" font-style="normal" font-weight="normal" text-decoration="normal" x="85" y="82" text-anchor="start" dominant-baseline="alphabetic" fill-opacity="1">A</text></g></g></svg>