<svg version="1.1" xmlns="http://www.w3.org/2000/svg" xmlns:xlink="http://www.w3.org/1999/xlink" width="430" height="299"><defs><clipPath id="pcNsdyiSPKRv"><path fill="none" stroke="none" d=" M 0 0 L 430 0 L 430 299 L 0 299 L 0 0 Z"/></clipPath></defs><g transform="scale(1,1)" clip-path="url(#pcNsdyiSPKRv)"><g><rect fill="rgb(255,255,255)" stroke="none" x="0" y="0" width="430" height="299" fill-opacity="1"/><path fill="none" stroke="rgb(0,153,255)" paint-order="fill stroke markers" d=" M 222.9999999999999 183.4999999999998 C 222.9999999999999 238.72847498307922 178.22847498307925 283.5 122.99999999999994 283.5 C 67.77152501692063 283.5 22.999999999999986 238.72847498307922 22.999999999999986 183.4999999999998 C 22.999999999999986 128.27152501692035 67.77152501692063 83.4999999999996 122.99999999999994 83.4999999999996 C 178.22847498307925 83.4999999999996 222.9999999999999 128.27152501692035 222.9999999999999 183.4999999999998 Z" stroke-opacity="0.6980392156862745" stroke-linecap="round" stroke-linejoin="round" stroke-miterlimit="10"/><g transform="scale(19,19)"><g transform="translate(2.1578947368421053,5.115210526315789)"><path fill="rgb(0,153,255)" stroke="none" paint-order="stroke fill markers" d=" M 0.264 -0.082 Q 0.201 0.011 0.11900000000000001 0.011 Q 0.032 0.011 0.016 -0.089 Q 0.013000000000000001 -0.109 0.013000000000000001 -0.131 Q 0.013000000000000001 -0.22 0.051000000000000004 -0.311 Q 0.082 -0.382 0.112 -0.419 Q 0.122 -0.431 0.127 -0.431 Q 0.139 -0.431 0.139 -0.419 Q 0.139 -0.41400000000000003 0.129 -0.4 Q 0.045 -0.28 0.045 -0.17500000000000002 Q 0.045 -0.08 0.109 -0.064 Q 0.12 -0.061 0.133 -0.061 Q 0.201 -0.061 0.257 -0.138 Q 0.264 -0.145 0.266 -0.165 Q 0.276 -0.23800000000000002 0.28700000000000003 -0.266 Q 0.3 -0.291 0.315 -0.291 Q 0.334 -0.291 0.336 -0.268 Q 0.336 -0.24 0.308 -0.168 Q 0.306 -0.161 0.303 -0.155 Q 0.297 -0.14400000000000002 0.297 -0.139 Q 0.297 -0.111 0.317 -0.084 Q 0.335 -0.061 0.372 -0.061 Q 0.449 -0.061 0.511 -0.14400000000000002 Q 0.562 -0.214 0.562 -0.28 Q 0.562 -0.331 0.527 -0.367 Q 0.512 -0.38 0.512 -0.394 Q 0.512 -0.419 0.539 -0.435 Q 0.55 -0.442 0.562 -0.442 Q 0.599 -0.442 0.604 -0.388 Q 0.605 -0.377 0.605 -0.371 Q 0.605 -0.307 0.5750000000000001 -0.213 Q 0.55 -0.136 0.511 -0.082 Q 0.443 0.011 0.358 0.011 Q 0.277 0.011 0.264 -0.082 Z"/></g><g transform="translate(2.779894736842105,5.26521052631579) scale(0.7,0.7)"><path fill="rgb(0,153,255)" stroke="none" paint-order="stroke fill markers" d=" M 0.294 -0.64 L 0.294 -0.079 Q 0.294 -0.049 0.306 -0.041 Q 0.323 -0.031 0.387 -0.031 L 0.419 -0.031 L 0.419 0 Q 0.384 -0.003 0.257 -0.003 Q 0.13 -0.003 0.095 0 L 0.095 -0.031 L 0.127 -0.031 Q 0.20400000000000001 -0.031 0.215 -0.049 L 0.216 -0.05 Q 0.22 -0.058 0.22 -0.079 L 0.22 -0.597 Q 0.168 -0.5710000000000001 0.089 -0.5710000000000001 L 0.089 -0.602 Q 0.209 -0.602 0.271 -0.666 Q 0.29 -0.666 0.293 -0.659 L 0.293 -0.659 L 0.293 -0.658 Q 0.294 -0.655 0.294 -0.64 Z"/></g></g><path fill="none" stroke="rgb(0,153,255)" paint-order="fill stroke markers" d=" M 397.9999999999998 133.49999999999972 C 397.9999999999998 174.92135623730928 364.4213562373093 208.49999999999986 322.99999999999983 208.49999999999986 C 281.5786437626904 208.49999999999986 247.99999999999986 174.92135623730928 247.99999999999986 133.49999999999972 C 247.99999999999986 92.07864376269013 281.5786437626904 58.499999999999574 322.99999999999983 58.499999999999574 C 364.4213562373093 58.499999999999574 397.9999999999998 92.07864376269013 397.9999999999998 133.49999999999972 Z" stroke-opacity="0.6980392156862745" stroke-linecap="round" stroke-linejoin="round" stroke-miterlimit="10"/><g transform="scale(19,19)"><g transform="translate(15.210526315789474,2.694157894736842)"><path fill="rgb(0,153,255)" stroke="none" paint-order="stroke fill markers" d=" M 0.264 -0.082 Q 0.201 0.011 0.11900000000000001 0.011 Q 0.032 0.011 0.016 -0.089 Q 0.013000000000000001 -0.109 0.013000000000000001 -0.131 Q 0.013000000000000001 -0.22 0.051000000000000004 -0.311 Q 0.082 -0.382 0.112 -0.419 Q 0.122 -0.431 0.127 -0.431 Q 0.139 -0.431 0.139 -0.419 Q 0.139 -0.41400000000000003 0.129 -0.4 Q 0.045 -0.28 0.045 -0.17500000000000002 Q 0.045 -0.08 0.109 -0.064 Q 0.12 -0.061 0.133 -0.061 Q 0.201 -0.061 0.257 -0.138 Q 0.264 -0.145 0.266 -0.165 Q 0.276 -0.23800000000000002 0.28700000000000003 -0.266 Q 0.3 -0.291 0.315 -0.291 Q 0.334 -0.291 0.336 -0.268 Q 0.336 -0.24 0.308 -0.168 Q 0.306 -0.161 0.303 -0.155 Q 0.297 -0.14400000000000002 0.297 -0.139 Q 0.297 -0.111 0.317 -0.084 Q 0.335 -0.061 0.372 -0.061 Q 0.449 -0.061 0.511 -0.14400000000000002 Q 0.562 -0.214 0.562 -0.28 Q 0.562 -0.331 0.527 -0.367 Q 0.512 -0.38 0.512 -0.394 Q 0.512 -0.419 0.539 -0.435 Q 0.55 -0.442 0.562 -0.442 Q 0.599 -0.442 0.604 -0.388 Q 0.605 -0.377 0.605 -0.371 Q 0.605 -0.307 0.5750000000000001 -0.213 Q 0.55 -0.136 0.511 -0.082 Q 0.443 0.011 0.358 0.011 Q 0.277 0.011 0.264 -0.082 Z"/></g><g transform="translate(15.832526315789474,2.844157894736842) scale(0.7,0.7)"><path fill="rgb(0,153,255)" stroke="none" paint-order="stroke fill markers" d=" M 0.449 -0.17400000000000002 L 0.449 -0.17400000000000002 L 0.421 0 L 0.05 0 Q 0.05 -0.025 0.056 -0.032 L 0.061 -0.037 L 0.253 -0.251 Q 0.358 -0.369 0.358 -0.47200000000000003 Q 0.358 -0.561 0.304 -0.607 L 0.303 -0.608 L 0.302 -0.608 Q 0.27 -0.635 0.224 -0.635 Q 0.152 -0.635 0.109 -0.5730000000000001 Q 0.097 -0.555 0.089 -0.533 Q 0.092 -0.534 0.10200000000000001 -0.534 Q 0.14200000000000002 -0.534 0.153 -0.498 L 0.153 -0.497 Q 0.155 -0.49 0.155 -0.482 Q 0.155 -0.442 0.117 -0.431 Q 0.109 -0.429 0.10300000000000001 -0.429 Q 0.066 -0.429 0.054 -0.46 Q 0.05 -0.47100000000000003 0.05 -0.485 Q 0.05 -0.562 0.109 -0.617 Q 0.162 -0.666 0.23700000000000002 -0.666 Q 0.34700000000000003 -0.666 0.40800000000000003 -0.592 Q 0.443 -0.549 0.448 -0.49 Q 0.449 -0.481 0.449 -0.47200000000000003 Q 0.449 -0.399 0.394 -0.333 Q 0.365 -0.299 0.304 -0.243 L 0.243 -0.189 L 0.233 -0.18 L 0.127 -0.077 L 0.307 -0.077 Q 0.395 -0.077 0.402 -0.085 Q 0.41200000000000003 -0.099 0.424 -0.17400000000000002 L 0.449 -0.17400000000000002 Z"/></g></g><path fill="none" stroke="rgb(0,153,255)" paint-order="fill stroke markers" d=" M 397.9999999999999 183.4999999999998 C 397.9999999999999 238.72847498307922 353.2284749830792 283.5 297.9999999999999 283.5 C 242.77152501692058 283.5 197.99999999999994 238.72847498307922 197.99999999999994 183.4999999999998 C 197.99999999999994 128.27152501692035 242.77152501692058 83.4999999999996 297.9999999999999 83.4999999999996 C 353.2284749830792 83.4999999999996 397.9999999999999 128.27152501692035 397.9999999999999 183.4999999999998 Z" stroke-opacity="0.6980392156862745" stroke-linejoin="round" stroke-miterlimit="10" stroke-dasharray="5,4"/><g transform="scale(19,19)"><g transform="translate(10.894736842105264,5.907355157894737)"><path fill="rgb(0,153,255)" stroke="none" paint-order="stroke fill markers" d=" M 0.264 -0.082 Q 0.201 0.011 0.11900000000000001 0.011 Q 0.032 0.011 0.016 -0.089 Q 0.013000000000000001 -0.109 0.013000000000000001 -0.131 Q 0.013000000000000001 -0.22 0.051000000000000004 -0.311 Q 0.082 -0.382 0.112 -0.419 Q 0.122 -0.431 0.127 -0.431 Q 0.139 -0.431 0.139 -0.419 Q 0.139 -0.41400000000000003 0.129 -0.4 Q 0.045 -0.28 0.045 -0.17500000000000002 Q 0.045 -0.08 0.109 -0.064 Q 0.12 -0.061 0.133 -0.061 Q 0.201 -0.061 0.257 -0.138 Q 0.264 -0.145 0.266 -0.165 Q 0.276 -0.23800000000000002 0.28700000000000003 -0.266 Q 0.3 -0.291 0.315 -0.291 Q 0.334 -0.291 0.336 -0.268 Q 0.336 -0.24 0.308 -0.168 Q 0.306 -0.161 0.303 -0.155 Q 0.297 -0.14400000000000002 0.297 -0.139 Q 0.297 -0.111 0.317 -0.084 Q 0.335 -0.061 0.372 -0.061 Q 0.449 -0.061 0.511 -0.14400000000000002 Q 0.562 -0.214 0.562 -0.28 Q 0.562 -0.331 0.527 -0.367 Q 0.512 -0.38 0.512 -0.394 Q 0.512 -0.419 0.539 -0.435 Q 0.55 -0.442 0.562 -0.442 Q 0.599 -0.442 0.604 -0.388 Q 0.605 -0.377 0.605 -0.371 Q 0.605 -0.307 0.5750000000000001 -0.213 Q 0.55 -0.136 0.511 -0.082 Q 0.443 0.011 0.358 0.011 Q 0.277 0.011 0.264 -0.082 Z"/></g><g transform="translate(11.552736842105263,5.494463157894737) scale(0.7,0.7)"><path fill="rgb(0,153,255)" stroke="none" paint-order="stroke fill markers" d=" M 0.255 -0.47900000000000004 L 0.076 -0.059000000000000004 Q 0.07 -0.045 0.063 -0.045 Q 0.045 -0.045 0.033 -0.056 Q 0.029 -0.059000000000000004 0.029 -0.063 Q 0.029 -0.065 0.032 -0.077 L 0.153 -0.513 Q 0.166 -0.554 0.197 -0.558 Q 0.202 -0.559 0.20600000000000002 -0.559 Q 0.24 -0.559 0.256 -0.53 Q 0.262 -0.519 0.262 -0.507 Q 0.262 -0.494 0.255 -0.47900000000000004 Z"/></g></g><path fill="none" stroke="rgb(255,85,0)" paint-order="fill stroke markers" d=" M 219.33249580710788 156.6662479035537 L 394.33249580710776 156.6662479035537" stroke-opacity="0.6980392156862745" stroke-linejoin="round" stroke-miterlimit="10" stroke-dasharray="5,4"/><path fill="none" stroke="rgb(255,85,0)" paint-order="fill stroke markers" d=" M 86.66750419289193 90.33375209644564 L 261.6675041928919 90.33375209644564" stroke-opacity="0.6980392156862745" stroke-linecap="round" stroke-linejoin="round" stroke-miterlimit="10"/><g transform="scale(19,19)"><g transform="translate(11.894736842105264,1.0097894736842106)"><path fill="rgb(0,100,0)" stroke="none" paint-order="stroke fill markers" d=" M 0.016 -0.099 L 0.016 -0.099 L 0.093 -0.17200000000000001 Q 0.093 -0.338 0.17200000000000001 -0.517 Q 0.223 -0.634 0.28300000000000003 -0.682 Q 0.312 -0.705 0.339 -0.705 Q 0.398 -0.705 0.398 -0.627 Q 0.398 -0.47300000000000003 0.226 -0.277 Q 0.201 -0.248 0.17500000000000002 -0.222 Q 0.159 -0.20600000000000002 0.153 -0.197 Q 0.148 -0.189 0.148 -0.14 Q 0.148 -0.01 0.209 -0.01 Q 0.26 -0.01 0.339 -0.088 Q 0.34900000000000003 -0.097 0.352 -0.097 Q 0.362 -0.097 0.364 -0.085 Q 0.364 -0.073 0.31 -0.031 L 0.31 -0.031 Q 0.306 -0.028 0.303 -0.026000000000000002 Q 0.25 0.012 0.20700000000000002 0.012 Q 0.114 0.012 0.095 -0.14100000000000001 Q 0.075 -0.121 0.059000000000000004 -0.107 Q 0.028 -0.076 0.023 -0.076 Q 0.015 -0.076 0.011 -0.089 Q 0.011 -0.092 0.016 -0.099 M 0.158 -0.23900000000000002 Q 0.374 -0.464 0.374 -0.631 Q 0.374 -0.683 0.34 -0.683 Q 0.31 -0.683 0.279 -0.626 L 0.278 -0.625 L 0.26 -0.589 Q 0.20400000000000001 -0.47400000000000003 0.159 -0.244 L 0.159 -0.243 Q 0.158 -0.24 0.158 -0.23900000000000002 Z"/></g></g><path fill="none" stroke="rgb(0,100,0)" paint-order="fill stroke markers" d=" M 22.999999999999982 33.49999999999949 L 422.99999999999983 33.49999999999949" stroke-opacity="0.6980392156862745" stroke-linecap="round" stroke-linejoin="round" stroke-miterlimit="10"/><path fill="rgb(0,100,0)" stroke="none" paint-order="stroke fill markers" d=" M 282.9999999999999 179.7499999999998 L 282.9999999999999 182.7499999999998 L 122.99999999999994 182.7499999999998 C 122.58578643762685 182.7499999999998 122.24999999999994 183.0857864376267 122.24999999999994 183.4999999999998 C 122.24999999999994 183.9142135623729 122.58578643762685 184.2499999999998 122.99999999999994 184.2499999999998 L 282.9999999999999 184.2499999999998 L 282.9999999999999 187.2499999999998 L 297.9999999999999 183.4999999999998 L 282.9999999999999 179.7499999999998 Z" fill-opacity="0.6980392156862745"/><path fill="rgb(0,0,255)" stroke="none" paint-order="stroke fill markers" d=" M 124.99999999999994 183.4999999999998 C 124.99999999999994 184.60456949966138 124.10456949966152 185.4999999999998 122.99999999999994 185.4999999999998 C 121.89543050033835 185.4999999999998 120.99999999999994 184.60456949966138 120.99999999999994 183.4999999999998 C 120.99999999999994 182.39543050033822 121.89543050033835 181.4999999999998 122.99999999999994 181.4999999999998 C 124.10456949966152 181.4999999999998 124.99999999999994 182.39543050033822 124.99999999999994 183.4999999999998 Z" fill-opacity="1"/><path fill="none" stroke="rgb(0,0,0)" paint-order="fill stroke markers" d=" M 124.99999999999994 183.4999999999998 C 124.99999999999994 184.60456949966138 124.10456949966152 185.4999999999998 122.99999999999994 185.4999999999998 C 121.89543050033835 185.4999999999998 120.99999999999994 184.60456949966138 120.99999999999994 183.4999999999998 C 120.99999999999994 182.39543050033822 121.89543050033835 181.4999999999998 122.99999999999994 181.4999999999998 C 124.10456949966152 181.4999999999998 124.99999999999994 182.39543050033822 124.99999999999994 183.4999999999998 Z" stroke-opacity="1" stroke-linecap="round" stroke-linejoin="round" stroke-miterlimit="10"/><text fill="rgb(0,0,255)" stroke="none" font-family="geogebra-sans-serif, sans-serif" font-size="16px" font-style="normal" font-weight="normal" text-decoration="normal" x="124" y="204" text-anchor="start" dominant-baseline="alphabetic" fill-opacity="1">O</text><text fill="none" stroke="rgb(255,255,255)" font-family="geogebra-sans-serif, sans-serif" font-size="16px" font-style="normal" font-weight="normal" text-decoration="normal" x="124" y="204" text-anchor="start" dominant-baseline="alphabetic" stroke-opacity="1" stroke-linejoin="bevel" stroke-miterlimit="10" stroke-width="3">O</text><text fill="rgb(0,0,255)" stroke="none" font-family="geogebra-sans-serif, sans-serif" font-size="16px" font-style="normal" font-weight="normal" text-decoration="normal" x="124" y="204" text-anchor="start" dominant-baseline="alphabetic" fill-opacity="1">O</text><text fill="rgb(0,0,255)" stroke="none" font-family="geogebra-sans-serif, sans-serif" font-size="14px" font-style="normal" font-weight="normal" text-decoration="normal" x="136" y="211" text-anchor="start" dominant-baseline="alphabetic" fill-opacity="1">1</text><text fill="none" stroke="rgb(255,255,255)" font-family="geogebra-sans-serif, sans-serif" font-size="14px" font-style="normal" font-weight="normal" text-decoration="normal" x="136" y="211" text-anchor="start" dominant-baseline="alphabetic" stroke-opacity="1" stroke-linejoin="bevel" stroke-miterlimit="10" stroke-width="3">1</text><text fill="rgb(0,0,255)" stroke="none" font-family="geogebra-sans-serif, sans-serif" font-size="14px" font-style="normal" font-weight="normal" text-decoration="normal" x="136" y="211" text-anchor="start" dominant-baseline="alphabetic" fill-opacity="1">1</text><path fill="rgb(0,0,255)" stroke="none" paint-order="stroke fill markers" d=" M 324.99999999999983 133.49999999999972 C 324.99999999999983 134.6045694996613 324.1045694996614 135.49999999999972 322.99999999999983 135.49999999999972 C 321.89543050033825 135.49999999999972 320.99999999999983 134.6045694996613 320.99999999999983 133.49999999999972 C 320.99999999999983 132.39543050033814 321.89543050033825 131.49999999999972 322.99999999999983 131.49999999999972 C 324.1045694996614 131.49999999999972 324.99999999999983 132.39543050033814 324.99999999999983 133.49999999999972 Z" fill-opacity="1"/><path fill="none" stroke="rgb(0,0,0)" paint-order="fill stroke markers" d=" M 324.99999999999983 133.49999999999972 C 324.99999999999983 134.6045694996613 324.1045694996614 135.49999999999972 322.99999999999983 135.49999999999972 C 321.89543050033825 135.49999999999972 320.99999999999983 134.6045694996613 320.99999999999983 133.49999999999972 C 320.99999999999983 132.39543050033814 321.89543050033825 131.49999999999972 322.99999999999983 131.49999999999972 C 324.1045694996614 131.49999999999972 324.99999999999983 132.39543050033814 324.99999999999983 133.49999999999972 Z" stroke-opacity="1" stroke-linecap="round" stroke-linejoin="round" stroke-miterlimit="10"/><text fill="rgb(0,0,255)" stroke="none" font-family="geogebra-sans-serif, sans-serif" font-size="16px" font-style="normal" font-weight="normal" text-decoration="normal" x="327" y="129" text-anchor="start" dominant-baseline="alphabetic" fill-opacity="1">O</text><text fill="none" stroke="rgb(255,255,255)" font-family="geogebra-sans-serif, sans-serif" font-size="16px" font-style="normal" font-weight="normal" text-decoration="normal" x="327" y="129" text-anchor="start" dominant-baseline="alphabetic" stroke-opacity="1" stroke-linejoin="bevel" stroke-miterlimit="10" stroke-width="3">O</text><text fill="rgb(0,0,255)" stroke="none" font-family="geogebra-sans-serif, sans-serif" font-size="16px" font-style="normal" font-weight="normal" text-decoration="normal" x="327" y="129" text-anchor="start" dominant-baseline="alphabetic" fill-opacity="1">O</text><text fill="rgb(0,0,255)" stroke="none" font-family="geogebra-sans-serif, sans-serif" font-size="14px" font-style="normal" font-weight="normal" text-decoration="normal" x="339" y="136" text-anchor="start" dominant-baseline="alphabetic" fill-opacity="1">2</text><text fill="none" stroke="rgb(255,255,255)" font-family="geogebra-sans-serif, sans-serif" font-size="14px" font-style="normal" font-weight="normal" text-decoration="normal" x="339" y="136" text-anchor="start" dominant-baseline="alphabetic" stroke-opacity="1" stroke-linejoin="bevel" stroke-miterlimit="10" stroke-width="3">2</text><text fill="rgb(0,0,255)" stroke="none" font-family="geogebra-sans-serif, sans-serif" font-size="14px" font-style="normal" font-weight="normal" text-decoration="normal" x="339" y="136" text-anchor="start" dominant-baseline="alphabetic" fill-opacity="1">2</text><path fill="rgb(0,0,255)" stroke="none" paint-order="stroke fill markers" d=" M 299.9999999999999 183.4999999999998 C 299.9999999999999 184.60456949966138 299.10456949966147 185.4999999999998 297.9999999999999 185.4999999999998 C 296.8954305003383 185.4999999999998 295.9999999999999 184.60456949966138 295.9999999999999 183.4999999999998 C 295.9999999999999 182.39543050033822 296.8954305003383 181.4999999999998 297.9999999999999 181.4999999999998 C 299.10456949966147 181.4999999999998 299.9999999999999 182.39543050033822 299.9999999999999 183.4999999999998 Z" fill-opacity="1"/><path fill="none" stroke="rgb(0,0,0)" paint-order="fill stroke markers" d=" M 299.9999999999999 183.4999999999998 C 299.9999999999999 184.60456949966138 299.10456949966147 185.4999999999998 297.9999999999999 185.4999999999998 C 296.8954305003383 185.4999999999998 295.9999999999999 184.60456949966138 295.9999999999999 183.4999999999998 C 295.9999999999999 182.39543050033822 296.8954305003383 181.4999999999998 297.9999999999999 181.4999999999998 C 299.10456949966147 181.4999999999998 299.9999999999999 182.39543050033822 299.9999999999999 183.4999999999998 Z" stroke-opacity="1" stroke-linecap="round" stroke-linejoin="round" stroke-miterlimit="10"/><text fill="rgb(0,0,255)" stroke="none" font-family="geogebra-sans-serif, sans-serif" font-size="16px" font-style="normal" font-weight="normal" text-decoration="normal" x="303" y="198" text-anchor="start" dominant-baseline="alphabetic" fill-opacity="1">O'</text><text fill="none" stroke="rgb(255,255,255)" font-family="geogebra-sans-serif, sans-serif" font-size="16px" font-style="normal" font-weight="normal" text-decoration="normal" x="303" y="198" text-anchor="start" dominant-baseline="alphabetic" stroke-opacity="1" stroke-linejoin="bevel" stroke-miterlimit="10" stroke-width="3">O'</text><text fill="rgb(0,0,255)" stroke="none" font-family="geogebra-sans-serif, sans-serif" font-size="16px" font-style="normal" font-weight="normal" text-decoration="normal" x="303" y="198" text-anchor="start" dominant-baseline="alphabetic" fill-opacity="1">O'</text><path fill="rgb(0,0,255)" stroke="none" paint-order="stroke fill markers" d=" M 263.6675041928919 90.33375209644564 C 263.6675041928919 91.43832159610722 262.7720736925535 92.33375209644564 261.6675041928919 92.33375209644564 C 260.5629346932303 92.33375209644564 259.6675041928919 91.43832159610722 259.6675041928919 90.33375209644564 C 259.6675041928919 89.22918259678404 260.5629346932303 88.33375209644564 261.6675041928919 88.33375209644564 C 262.7720736925535 88.33375209644564 263.6675041928919 89.22918259678404 263.6675041928919 90.33375209644564 Z" fill-opacity="1"/><path fill="none" stroke="rgb(0,0,0)" paint-order="fill stroke markers" d=" M 263.6675041928919 90.33375209644564 C 263.6675041928919 91.43832159610722 262.7720736925535 92.33375209644564 261.6675041928919 92.33375209644564 C 260.5629346932303 92.33375209644564 259.6675041928919 91.43832159610722 259.6675041928919 90.33375209644564 C 259.6675041928919 89.22918259678404 260.5629346932303 88.33375209644564 261.6675041928919 88.33375209644564 C 262.7720736925535 88.33375209644564 263.6675041928919 89.22918259678404 263.6675041928919 90.33375209644564 Z" stroke-opacity="1" stroke-linecap="round" stroke-linejoin="round" stroke-miterlimit="10"/><text fill="rgb(0,0,255)" stroke="none" font-family="geogebra-sans-serif, sans-serif" font-size="16px" font-style="normal" font-weight="normal" text-decoration="normal" x="269" y="109" text-anchor="start" dominant-baseline="alphabetic" fill-opacity="1">B</text><text fill="none" stroke="rgb(255,255,255)" font-family="geogebra-sans-serif, sans-serif" font-size="16px" font-style="normal" font-weight="normal" text-decoration="normal" x="269" y="109" text-anchor="start" dominant-baseline="alphabetic" stroke-opacity="1" stroke-linejoin="bevel" stroke-miterlimit="10" stroke-width="3">B</text><text fill="rgb(0,0,255)" stroke="none" font-family="geogebra-sans-serif, sans-serif" font-size="16px" font-style="normal" font-weight="normal" text-decoration="normal" x="269" y="109" text-anchor="start" dominant-baseline="alphabetic" fill-opacity="1">B</text><path fill="rgb(0,0,255)" stroke="none" paint-order="stroke fill markers" d=" M 88.66750419289193 90.33375209644564 C 88.66750419289193 91.43832159610722 87.7720736925535 92.33375209644564 86.66750419289193 92.33375209644564 C 85.56293469323033 92.33375209644564 84.66750419289193 91.43832159610722 84.66750419289193 90.33375209644564 C 84.66750419289193 89.22918259678404 85.56293469323033 88.33375209644564 86.66750419289193 88.33375209644564 C 87.7720736925535 88.33375209644564 88.66750419289193 89.22918259678404 88.66750419289193 90.33375209644564 Z" fill-opacity="1"/><path fill="none" stroke="rgb(0,0,0)" paint-order="fill stroke markers" d=" M 88.66750419289193 90.33375209644564 C 88.66750419289193 91.43832159610722 87.7720736925535 92.33375209644564 86.66750419289193 92.33375209644564 C 85.56293469323033 92.33375209644564 84.66750419289193 91.43832159610722 84.66750419289193 90.33375209644564 C 84.66750419289193 89.22918259678404 85.56293469323033 88.33375209644564 86.66750419289193 88.33375209644564 C 87.7720736925535 88.33375209644564 88.66750419289193 89.22918259678404 88.66750419289193 90.33375209644564 Z" stroke-opacity="1" stroke-linecap="round" stroke-linejoin="round" stroke-miterlimit="10"/><text fill="rgb(0,0,255)" stroke="none" font-family="geogebra-sans-serif, sans-serif" font-size="16px" font-style="normal" font-weight="normal" text-decoration="normal" x="83" y="110" text-anchor="start" dominant-baseline="alphabetic" fill-opacity="1">A</text><text fill="none" stroke="rgb(255,255,255)" font-family="geogebra-sans-serif, sans-serif" font-size="16px" font-style="normal" font-weight="normal" text-decoration="normal" x="83" y="110" text-anchor="start" dominant-baseline="alphabetic" stroke-opacity="1" stroke-linejoin="bevel" stroke-miterlimit="10" stroke-width="3">A</text><text fill="rgb(0,0,255)" stroke="none" font-family="geogebra-sans-serif, sans-serif" font-size="16px" font-style="normal" font-weight="normal" text-decoration="normal" x="83" y="110" text-anchor="start" dominant-baseline="alphabetic" fill-opacity="1">A</text><path fill="rgb(0,0,255)" stroke="none" paint-order="stroke fill markers" d=" M 396.33249580710776 156.6662479035537 C 396.33249580710776 157.7708174032153 395.43706530676934 158.6662479035537 394.33249580710776 158.6662479035537 C 393.2279263074462 158.6662479035537 392.33249580710776 157.7708174032153 392.33249580710776 156.6662479035537 C 392.33249580710776 155.56167840389213 393.2279263074462 154.6662479035537 394.33249580710776 154.6662479035537 C 395.43706530676934 154.6662479035537 396.33249580710776 155.56167840389213 396.33249580710776 156.6662479035537 Z" fill-opacity="1"/><path fill="none" stroke="rgb(0,0,0)" paint-order="fill stroke markers" d=" M 396.33249580710776 156.6662479035537 C 396.33249580710776 157.7708174032153 395.43706530676934 158.6662479035537 394.33249580710776 158.6662479035537 C 393.2279263074462 158.6662479035537 392.33249580710776 157.7708174032153 392.33249580710776 156.6662479035537 C 392.33249580710776 155.56167840389213 393.2279263074462 154.6662479035537 394.33249580710776 154.6662479035537 C 395.43706530676934 154.6662479035537 396.33249580710776 155.56167840389213 396.33249580710776 156.6662479035537 Z" stroke-opacity="1" stroke-linecap="round" stroke-linejoin="round" stroke-miterlimit="10"/><text fill="rgb(0,0,255)" stroke="none" font-family="geogebra-sans-serif, sans-serif" font-size="16px" font-style="normal" font-weight="normal" text-decoration="normal" x="405" y="155" text-anchor="start" dominant-baseline="alphabetic" fill-opacity="1">B'</text><text fill="none" stroke="rgb(255,255,255)" font-family="geogebra-sans-serif, sans-serif" font-size="16px" font-style="normal" font-weight="normal" text-decoration="normal" x="405" y="155" text-anchor="start" dominant-baseline="alphabetic" stroke-opacity="1" stroke-linejoin="bevel" stroke-miterlimit="10" stroke-width="3">B'</text><text fill="rgb(0,0,255)" stroke="none" font-family="geogebra-sans-serif, sans-serif" font-size="16px" font-style="normal" font-weight="normal" text-decoration="normal" x="405" y="155" text-anchor="start" dominant-baseline="alphabetic" fill-opacity="1">B'</text><path fill="rgb(0,0,255)" stroke="none" paint-order="stroke fill markers" d=" M 221.33249580710788 156.6662479035537 C 221.33249580710788 157.7708174032153 220.43706530676945 158.6662479035537 219.33249580710788 158.6662479035537 C 218.2279263074463 158.6662479035537 217.33249580710788 157.7708174032153 217.33249580710788 156.6662479035537 C 217.33249580710788 155.56167840389213 218.2279263074463 154.6662479035537 219.33249580710788 154.6662479035537 C 220.43706530676945 154.6662479035537 221.33249580710788 155.56167840389213 221.33249580710788 156.6662479035537 Z" fill-opacity="1"/><path fill="none" stroke="rgb(0,0,0)" paint-order="fill stroke markers" d=" M 221.33249580710788 156.6662479035537 C 221.33249580710788 157.7708174032153 220.43706530676945 158.6662479035537 219.33249580710788 158.6662479035537 C 218.2279263074463 158.6662479035537 217.33249580710788 157.7708174032153 217.33249580710788 156.6662479035537 C 217.33249580710788 155.56167840389213 218.2279263074463 154.6662479035537 219.33249580710788 154.6662479035537 C 220.43706530676945 154.6662479035537 221.33249580710788 155.56167840389213 221.33249580710788 156.6662479035537 Z" stroke-opacity="1" stroke-linecap="round" stroke-linejoin="round" stroke-miterlimit="10"/><text fill="rgb(0,0,255)" stroke="none" font-family="geogebra-sans-serif, sans-serif" font-size="16px" font-style="normal" font-weight="normal" text-decoration="normal" x="225" y="150" text-anchor="start" dominant-baseline="alphabetic" fill-opacity="1">A'</text><text fill="none" stroke="rgb(255,255,255)" font-family="geogebra-sans-serif, sans-serif" font-size="16px" font-style="normal" font-weight="normal" text-decoration="normal" x="225" y="150" text-anchor="start" dominant-baseline="alphabetic" stroke-opacity="1" stroke-linejoin="bevel" stroke-miterlimit="10" stroke-width="3">A'</text><text fill="rgb(0,0,255)" stroke="none" font-family="geogebra-sans-serif, sans-serif" font-size="16px" font-style="normal" font-weight="normal" text-decoration="normal" x="225" y="150" text-anchor="start" dominant-baseline="alphabetic" fill-opacity="1">A'</text></g></g></svg>